<?xml version="1.0" encoding="utf-8"?>
<!-- Generator: Adobe Illustrator 25.3.0, SVG Export Plug-In . SVG Version: 6.00 Build 0)  -->
<svg version="1.1" id="Layer_1" xmlns="http://www.w3.org/2000/svg" xmlns:xlink="http://www.w3.org/1999/xlink" x="0px" y="0px"
	 viewBox="0 0 90 90" style="enable-background:new 0 0 90 90;" xml:space="preserve">
<style type="text/css">
	.st0{fill:#EFF1FF;stroke:#595682;stroke-width:2;stroke-linecap:round;stroke-linejoin:round;}
	.st1{fill:#F6E9D1;}
	.st2{fill:none;stroke:#595682;stroke-width:2;stroke-linecap:round;stroke-linejoin:round;}
	.st3{fill:none;stroke:#595682;stroke-width:2;stroke-linecap:round;stroke-linejoin:round;stroke-dasharray:4.0012,4.0012;}
	.st4{fill:none;stroke:#595682;stroke-width:2;stroke-linecap:round;stroke-linejoin:round;stroke-dasharray:4.0703,4.0703;}
	.st5{fill:none;stroke:#595682;stroke-width:2;stroke-linecap:round;stroke-linejoin:round;stroke-dasharray:3.6563,3.6563;}
	.st6{fill:none;stroke:#595682;stroke-width:2;stroke-linecap:round;stroke-linejoin:round;stroke-dasharray:3.8306,3.8306;}
	.st7{fill:#FFFFFF;stroke:#595682;stroke-width:1.5;stroke-linecap:round;stroke-linejoin:round;}
	.st8{fill:none;stroke:#595682;stroke-width:1.5;stroke-linecap:round;stroke-linejoin:round;}
	.st9{fill:#FFFFFF;stroke:#595682;stroke-width:2;stroke-miterlimit:10;}
	.st10{fill:#2EC98A;}
	.st11{fill:#FFFFFF;}
</style>
<path class="st0" d="M22,11.1h36c2.7,0,4.9,2.2,4.9,4.9v47.4c0,2.7-2.2,4.9-4.9,4.9H22c-2.7,0-4.9-2.2-4.9-4.9V16
	C17.1,13.3,19.3,11.1,22,11.1z"/>
<g>
	<path class="st1" d="M70.7,75.3h-44c-1.1,0-2-0.9-2-2v-53c0-1.1,0.9-2,2-2h34.9l11.1,11.3v43.7C72.7,74.4,71.8,75.3,70.7,75.3z"/>
	<g>
		<path class="st2" d="M72.7,73.3L72.7,73.3c0,1.1-0.9,2-2,2l0,0"/>
		<line class="st3" x1="66.7" y1="75.3" x2="28.7" y2="75.3"/>
		<path class="st2" d="M26.7,75.3L26.7,75.3c-1.1,0-2-0.9-2-2l0,0"/>
		<line class="st4" x1="24.7" y1="69.2" x2="24.7" y2="22.4"/>
		<path class="st2" d="M24.7,20.3L24.7,20.3c0-1.1,0.9-2,2-2l0,0"/>
		<line class="st5" x1="30.3" y1="18.3" x2="57.7" y2="18.3"/>
		<path class="st2" d="M59.6,18.3h1.1c0.6,0,1.1,0.2,1.5,0.6l0.8,0.9"/>
		<path class="st6" d="M65.7,22.5l6.4,6.5c0.4,0.4,0.6,0.9,0.6,1.4v40.9"/>
	</g>
</g>
<rect x="33.8" y="28.8" class="st7" width="30" height="38.5"/>
<line class="st8" x1="33.8" y1="36.8" x2="62.8" y2="36.8"/>
<line class="st8" x1="44.8" y1="67.2" x2="44.8" y2="28.8"/>
<line class="st8" x1="33.8" y1="44.8" x2="62.8" y2="44.8"/>
<line class="st8" x1="33.8" y1="52.8" x2="62.8" y2="52.8"/>
<line class="st8" x1="33.8" y1="60.2" x2="62.8" y2="60.2"/>
<circle class="st9" cx="65.3" cy="64.1" r="13.4"/>
<circle class="st10" cx="65.3" cy="64.1" r="11.3"/>
<path class="st11" d="M71.5,61l-1.3,1.5c-1.9,2.1-3.9,4.2-5.8,6.3c-0.3,0.3-0.6,0.4-1,0.4l0,0c-0.4,0-0.7-0.1-1-0.4
	c-1.1-1.2-2.2-2.4-3.3-3.6c-0.5-0.5-0.4-1.4,0.2-1.8c0.5-0.4,1.2-0.4,1.7,0.1c0.8,0.8,1.6,1.7,2.3,2.5c1.6-1.8,3.2-3.6,4.8-5.3
	l1.3-1.5c0.5-0.5,1.3-0.5,1.8,0C71.8,59.8,71.8,60.5,71.5,61L71.5,61z"/>
</svg>
