<?xml version="1.0" encoding="utf-8"?>
<!-- Generator: Adobe Illustrator 26.3.1, SVG Export Plug-In . SVG Version: 6.00 Build 0)  -->
<svg version="1.1" id="Layer_1" xmlns="http://www.w3.org/2000/svg" xmlns:xlink="http://www.w3.org/1999/xlink" x="0px" y="0px"
	 viewBox="0 0 114 113.9" style="enable-background:new 0 0 114 113.9;" xml:space="preserve">
<style type="text/css">
	.st0{opacity:0.49;}
	.st1{fill:#D3B366;}
	.st2{fill:#20355D;}
	.st3{fill:#FFFFFF;}
	.st4{opacity:0.63;}
	.st5{opacity:0.35;fill:#20355D;}
	.st6{opacity:0.33;fill:#D3B366;}
	.st7{fill:#2EC98A;stroke:#20355D;stroke-width:2;stroke-miterlimit:10;}
	.st8{opacity:0.64;}
</style>
<g class="st0">
	<path class="st1" d="M89.8,111.3c-0.2,0-0.4,0-0.6-0.1l-57.9-9.5c-0.9-0.1-1.7-0.5-2.2-1.2c-0.5-0.7-0.8-1.5-0.6-2.4l0-0.1V98
		L43,14.8c0.3-1.5,1.7-2.6,3.3-2.6c0.2,0,0.5,0,0.7,0.1l57.8,9.5c0.9,0.1,1.7,0.6,2.2,1.3c0.5,0.7,0.8,1.5,0.6,2.3L93,108.5
		C92.7,110.1,91.4,111.3,89.8,111.3z"/>
	<path class="st2" d="M46.3,13.1L46.3,13.1c0.2,0,0.3,0,0.5,0l0,0l0,0l57.8,9.5c1.3,0.2,2.2,1.3,2,2.4L92,108.3
		c-0.2,1.1-1.2,1.9-2.3,1.9c-0.1,0-0.3,0-0.4,0l0,0l0,0l-57.9-9.5l-0.1,0l-0.1,0c-0.6-0.1-1.1-0.4-1.5-0.8c-0.4-0.5-0.5-1-0.4-1.6
		l0-0.1V98L44,15C44.2,13.9,45.2,13.1,46.3,13.1 M46.3,11.1c-2.1,0-3.9,1.4-4.3,3.4L27.4,97.9c0,0.1,0,0.1,0,0.1
		c-0.3,2.3,1.4,4.5,3.7,4.7l57.9,9.5c0.3,0.1,0.6,0.1,0.8,0.1c2,0,3.8-1.4,4.2-3.5l14.7-83.3c0.3-2.3-1.4-4.4-3.7-4.7l-57.8-9.5
		C46.9,11.2,46.6,11.1,46.3,11.1L46.3,11.1z"/>
</g>
<g>
	<path class="st2" d="M46.3,13.1L46.3,13.1c0.2,0,0.3,0,0.5,0l0,0l0,0l57.8,9.5c1.3,0.2,2.2,1.3,2,2.4L92,108.3
		c-0.2,1.1-1.2,1.9-2.3,1.9c-0.1,0-0.3,0-0.4,0l0,0l0,0l-57.9-9.5l-0.1,0l-0.1,0c-0.6-0.1-1.1-0.4-1.5-0.8c-0.4-0.5-0.5-1-0.4-1.6
		l0-0.1V98L44,15C44.2,13.9,45.2,13.1,46.3,13.1 M46.3,11.1c-2.1,0-3.9,1.4-4.3,3.4L27.4,97.9c0,0.1,0,0.1,0,0.1
		c-0.3,2.3,1.4,4.5,3.7,4.7l57.9,9.5c0.3,0.1,0.6,0.1,0.8,0.1c2,0,3.8-1.4,4.2-3.5l14.7-83.3c0.3-2.3-1.4-4.4-3.7-4.7l-57.8-9.5
		C46.9,11.2,46.6,11.1,46.3,11.1L46.3,11.1z"/>
</g>
<g>
	<path class="st3" d="M23.5,106c-1.6,0-3-1.1-3.2-2.7L5.7,20.5c-0.1-0.8,0.1-1.6,0.6-2.2c0.5-0.7,1.2-1.1,2-1.2l53.9-8.8
		c0.2,0,0.3,0,0.5,0c1.5,0,2.8,1.1,3.1,2.6l14.5,82.9c0.3,1.6-1,3.2-2.6,3.5L24,106C23.8,106,23.6,106,23.5,106z"/>
	<path class="st1" d="M62.8,9.2c1,0,1.9,0.7,2.1,1.8l14.5,82.9c0.1,0.5-0.1,1-0.4,1.5c-0.3,0.5-0.9,0.8-1.4,0.9L23.8,105
		c-0.1,0-0.2,0-0.4,0c-1.1,0-2.1-0.8-2.2-1.8l0,0l0,0L6.7,20.4c-0.1-0.5,0.1-1,0.4-1.5c0.3-0.5,0.9-0.8,1.4-0.9l53.9-8.8
		C62.5,9.3,62.7,9.2,62.8,9.2 M62.8,7.2c-0.2,0-0.4,0-0.6,0L8.2,16.1c-2.2,0.3-3.8,2.4-3.5,4.6l14.6,82.8c0.3,2.1,2.1,3.5,4.2,3.5
		c0.2,0,0.4,0,0.7,0L78,98.2c2.2-0.3,3.8-2.4,3.5-4.6L66.9,10.6C66.4,8.7,64.7,7.2,62.8,7.2L62.8,7.2z"/>
</g>
<g>
	<path class="st3" d="M18.3,4h71.8c2,0,3.6,1.6,3.6,3.6v98.3c0,2-1.6,3.6-3.6,3.6H18.3c-2,0-3.6-1.6-3.6-3.6V7.5
		C14.8,5.6,16.4,4,18.3,4z"/>
</g>
<path class="st3" d="M27.4,85.5h53.9c1,0,1.8,0.8,1.8,1.8v8.4c0,1-0.8,1.8-1.8,1.8H27.4c-1,0-1.8-0.8-1.8-1.8v-8.4
	C25.6,86.2,26.4,85.5,27.4,85.5z"/>
<g class="st4">
	<path class="st1" d="M26.8,16h55.1c0.7,0,1.2,0.6,1.2,1.2v3.6c0,0.7-0.6,1.2-1.2,1.2H26.8c-0.7,0-1.2-0.6-1.2-1.2v-3.6
		C25.6,16.4,26.1,16,26.8,16z"/>
</g>
<g class="st4">
	<path class="st1" d="M26.8,28H52c0.7,0,1.2,0.6,1.2,1.2v1.2c0,0.7-0.6,1.2-1.2,1.2H26.8c-0.7,0-1.2-0.6-1.2-1.2v-1.2
		C25.6,28.4,26.1,28,26.8,28z"/>
</g>
<path class="st5" d="M60.4,28H82c0.7,0,1.2,0.6,1.2,1.2v1.2c0,0.7-0.6,1.2-1.2,1.2H60.4c-0.7,0-1.2-0.6-1.2-1.2v-1.2
	C59.1,28.4,59.7,28,60.4,28z"/>
<path class="st5" d="M26.8,37.6H52c0.7,0,1.2,0.6,1.2,1.2v1.2c0,0.7-0.6,1.2-1.2,1.2H26.8c-0.7,0-1.2-0.6-1.2-1.2v-1.2
	C25.6,38,26.1,37.6,26.8,37.6z"/>
<path class="st5" d="M60.4,37.6H82c0.7,0,1.2,0.6,1.2,1.2v1.2c0,0.7-0.6,1.2-1.2,1.2H60.4c-0.7,0-1.2-0.6-1.2-1.2v-1.2
	C59.1,38,59.7,37.6,60.4,37.6z"/>
<path class="st6" d="M26.8,45.9h55.1c0.7,0,1.2,0.6,1.2,1.2v1.2c0,0.7-0.6,1.2-1.2,1.2H26.8c-0.7,0-1.2-0.6-1.2-1.2V47
	C25.6,46.5,26.1,45.9,26.8,45.9z"/>
<path class="st5" d="M26.6,55.5h20.3c0.6,0,0.9,0.6,0.9,1.2v1.2c0,0.7-0.5,1.2-0.9,1.2H26.6c-0.6,0-0.9-0.6-0.9-1.2v-1.2
	C25.6,56.1,26,55.5,26.6,55.5z"/>
<g>
	<g class="st4">
		<polygon class="st1" points="89.9,71.5 85.9,65.6 84.6,58.6 71.7,71.5 		"/>
	</g>
	<g class="st4">
		<polygon class="st1" points="68.6,52.4 62.7,56.4 55.7,57.7 68.6,70.6 		"/>
	</g>
	<g class="st4">
		<polygon class="st1" points="49.5,73.4 53.5,79.3 54.8,86.3 67.7,73.4 		"/>
	</g>
	<g class="st4">
		<polygon class="st1" points="55.7,87.5 62.7,88.8 68.6,92.8 68.6,74.6 		"/>
	</g>
	<g class="st4">
		<polygon class="st1" points="54.8,58.6 53.5,65.6 49.5,71.5 67.7,71.5 		"/>
	</g>
	<g class="st4">
		<polygon class="st1" points="89.9,73.5 71.7,73.5 84.6,86.4 85.9,79.4 		"/>
	</g>
	<g class="st4">
		<polygon class="st1" points="70.6,92.8 76.5,88.8 83.5,87.5 70.6,74.6 		"/>
	</g>
	<g class="st4">
		<polygon class="st1" points="83.5,57.7 76.5,56.4 70.6,52.4 70.6,70.6 		"/>
	</g>
	<g class="st4">
		<polygon class="st1" points="76.2,90.2 69.6,94.7 63,90.2 60.5,90.2 60.5,105.6 63,105.6 69.6,101.1 76.2,105.6 78.6,105.6 
			78.6,90.2 		"/>
	</g>
	<path class="st7" d="M81.5,72.6c0,6.5-5.3,11.8-11.8,11.8c-6.5,0-11.8-5.3-11.8-11.8c0-6.5,5.3-11.8,11.8-11.8c0,0,0,0,0,0
		C76.2,60.8,81.5,66,81.5,72.6C81.5,72.6,81.5,72.6,81.5,72.6"/>
	<path class="st3" d="M76.4,70.3L75,71.8c-2,2.1-4.2,4.2-6.1,6.3c-0.3,0.3-0.7,0.5-1,0.4l0,0c-0.4,0-0.8-0.1-1-0.4
		c-1.1-1.2-2.4-2.5-3.5-3.6c-0.5-0.6-0.4-1.4,0.2-1.8s1.3-0.4,1.8,0.1c0.8,0.8,1.7,1.7,2.5,2.5c1.7-1.8,3.5-3.6,5.2-5.3l1.4-1.5
		c0.6-0.5,1.4-0.5,2,0C76.9,69.1,76.9,69.8,76.4,70.3L76.4,70.3z"/>
</g>
<g class="st8">
	<path class="st2" d="M90.2,6c0.9,0,1.6,0.7,1.6,1.6v98.3c0,0.9-0.7,1.6-1.6,1.6H18.3c-0.9,0-1.6-0.7-1.6-1.6V7.5
		c0-0.9,0.7-1.6,1.6-1.6H90.2 M90.2,4H18.3c-2,0-3.6,1.6-3.6,3.6v98.3c0,2,1.6,3.6,3.6,3.6h71.8c2,0,3.6-1.6,3.6-3.6V7.5
		C93.8,5.6,92.2,4,90.2,4L90.2,4z"/>
</g>
</svg>
