<?xml version="1.0" encoding="utf-8"?>
<!-- Generator: Adobe Illustrator 25.3.0, SVG Export Plug-In . SVG Version: 6.00 Build 0)  -->
<svg version="1.1" id="Layer_1" xmlns="http://www.w3.org/2000/svg" xmlns:xlink="http://www.w3.org/1999/xlink" x="0px" y="0px"
	 viewBox="0 0 512 512" style="enable-background:new 0 0 512 512;" xml:space="preserve">
<style type="text/css">
	.st0{fill:#E8E1EF;}
	.st1{fill:#2B3751;}
	.st2{fill:#94B3DF;}
	.st3{fill:#F08463;}
	.st4{fill:#020203;}
	.st5{fill:#A5C3E8;}
	.st6{fill:#E6F4FD;}
	.st7{fill:#3A476B;}
	.st8{fill:#F4993F;}
	.st9{fill:#6977AB;}
	.st10{fill:#F8B46A;}
</style>
<rect class="st0" width="511.89" height="511.89"/>
<g>
	<g>
		<path class="st0" d="M512,256c0,48.87-13.73,94.56-37.45,133.44c-4.12,6.75-8.57,13.23-13.23,19.55
			c-3.46,4.61-7.03,9.06-10.82,13.4c-9.83,11.53-20.7,22.13-32.4,31.79c-3.84,3.13-7.8,6.21-11.86,9.12
			c-2.2,1.65-4.45,3.24-6.75,4.78c-3.95,2.64-7.96,5.22-12.08,7.63c-0.77,0.55-1.59,0.99-2.42,1.48c-0.82,0.49-1.7,0.99-2.58,1.48
			c-8.13,4.67-16.64,8.84-25.31,12.57c-18.29,7.91-37.72,13.67-57.93,17.08c-2.25,0.44-4.45,0.77-6.7,1.1
			c-5.71,0.82-11.48,1.43-17.3,1.87c-0.6,0.05-1.21,0.11-1.81,0.11c-4.01,0.27-8.13,0.44-12.25,0.49C259.4,512,257.7,512,256,512
			c-20.65,0-40.8-2.47-60.02-7.08c-15.65-3.73-30.7-8.95-45.08-15.54c-11.42-5.05-22.4-11.04-32.89-17.74
			c-3.9-2.47-7.74-5.11-11.53-7.85c-4.45-3.18-8.79-6.53-13.01-10.1c-11.04-9.01-21.31-19-30.7-29.82c-2.09-2.42-4.12-4.83-6.1-7.3
			c-2.14-2.64-4.23-5.33-6.26-8.07c-0.88-1.15-1.7-2.25-2.53-3.4c-6.75-9.39-12.85-19.27-18.29-29.6c-2.2-4.06-4.23-8.24-6.15-12.41
			C8.35,330.46,0,294.16,0,256C0,114.6,114.6,0,256,0S512,114.6,512,256z"/>
	</g>
	<g>
		<path class="st1" d="M324.6,195.78c0.65,14.43-6.11,26.47-15.11,26.87c-9,0.41-16.83-10.96-17.48-25.4
			c-0.65-14.43,6.11-26.47,15.11-26.87C316.12,169.98,323.94,181.35,324.6,195.78z"/>
	</g>
	<g>
		<path class="st2" d="M406.24,463.29c-2.2,1.65-4.45,3.24-6.75,4.78c-4.72,3.18-9.55,6.26-14.5,9.12
			c-27.9,16.31-59.14,27.46-92.53,32.23c-1.59,0.22-3.18,0.44-4.83,0.6c-8.51,1.1-17.19,1.7-26.03,1.87h-0.49
			C259.4,512,257.7,512,256,512c-20.65,0-40.8-2.47-60.02-7.08c-28.06-6.75-54.36-18.12-77.98-33.28
			c-8.57-5.44-16.75-11.42-24.55-17.96c-11.04-9.01-21.31-19-30.7-29.82c-2.09-2.42-4.12-4.83-6.1-7.3
			c-3.24-43.87,38.05-86.16,45.41-94.78c23.67-28.01,90.22-43.6,155.57-41.73c0,0,89.01-0.33,126.08,39.26
			C400.03,336.72,405.47,398.77,406.24,463.29z"/>
	</g>
	<g>
		<path class="st2" d="M109.82,314.25l-3.35,149.55c-4.45-3.18-8.79-6.53-13.01-10.1c-11.04-9.01-21.31-19-30.7-29.82
			c-2.09-2.42-4.12-4.83-6.1-7.3c-2.14-2.64-4.23-5.33-6.26-8.07c-0.88-1.15-1.7-2.25-2.53-3.4c-6.75-9.39-12.85-19.27-18.29-29.6
			C62.29,344.15,109.82,314.25,109.82,314.25z"/>
	</g>
	<g>
		<path class="st2" d="M450.5,422.38c-9.83,11.53-20.7,22.13-32.4,31.79c-3.84,3.13-7.8,6.21-11.86,9.12
			c-2.2,1.65-4.45,3.24-6.75,4.78c-1.04,0.71-2.14,1.43-3.18,2.09c-1.32,0.88-2.64,1.76-3.95,2.53c-2.42,1.59-4.89,3.08-7.36,4.5
			c-8.95,5.27-18.29,9.94-27.9,14.06l-31.79-26.19l60.62-143.27L450.5,422.38z"/>
	</g>
	<g>
		<g>
			<g>
				<g>
					<path class="st3" d="M208.85,233.74l-4.17,51.37c0,0,3.5,15.58,37.11,21.07c25.03,4.09,38.7-11.02,38.7-11.02l-0.43-11.09
						l-1.15-28.84l-60-18.39L208.85,233.74z"/>
				</g>
			</g>
		</g>
	</g>
	<g>
		<g>
			<g>
				<g>
					<path class="st4" d="M218.92,236.83c0.02,1.59,0.47,3.5,1.23,5.72c10.6,29.94,45.47,39.04,59.91,41.52l-1.15-28.84
						L218.92,236.83z"/>
				</g>
			</g>
		</g>
	</g>
	<g>
		<g>
			<g>
				<g>
					<path class="st3" d="M302.5,124.46c0,0,24.47,74.97,9.23,114.28c-15.23,39.31-51.43,29.39-72.71,19.45
						c-21.27-9.94-30.19-24.44-30.19-24.44s-21.25,4.98-33.16-15.48c-11.91-20.47-1.31-41.62,10.93-45.52s25.39,5.94,25.39,5.94
						l-8.93-21.96C203.06,156.72,259.41,54.95,302.5,124.46z"/>
				</g>
			</g>
		</g>
	</g>
	<g>
		<path class="st4" d="M290.58,215.99c-0.36,0-0.73-0.07-1.08-0.22c-1.39-0.6-2.04-2.21-1.45-3.6c5.36-12.57-2.94-27.74-3.02-27.89
			c-0.74-1.32-0.26-2.99,1.06-3.74c1.32-0.73,2.99-0.27,3.73,1.06c0.4,0.71,9.71,17.65,3.28,32.73
			C292.66,215.36,291.64,215.99,290.58,215.99z"/>
	</g>
	<g>
		<path class="st4" d="M205.69,211.98c-0.66,0-1.31-0.29-1.74-0.86l-17.38-22.71c-0.73-0.96-0.55-2.33,0.41-3.06
			c0.95-0.75,2.33-0.55,3.06,0.41l17.38,22.71c0.73,0.96,0.55,2.33-0.41,3.06C206.62,211.83,206.15,211.98,205.69,211.98z"/>
	</g>
	<g>
		<path class="st4" d="M185.59,204.29c-1.16,0-2.13-0.91-2.18-2.08c-0.06-1.21,0.87-2.23,2.08-2.29l13.72-0.65
			c1.29-0.05,2.23,0.87,2.29,2.08c0.06,1.21-0.87,2.23-2.08,2.29l-13.72,0.65C185.66,204.29,185.62,204.29,185.59,204.29z"/>
	</g>
	<g>
		<path class="st4" d="M260.79,185.8c-1.49,0-2.71-1.19-2.75-2.68l-0.32-13.57c-0.04-1.52,1.16-2.77,2.68-2.81
			c1.51,0.01,2.77,1.17,2.81,2.68l0.32,13.57c0.03,1.51-1.16,2.77-2.68,2.81C260.83,185.8,260.81,185.8,260.79,185.8z"/>
	</g>
	<g>
		<path class="st4" d="M300.87,186.73c-1.46,0-2.68-1.15-2.74-2.63l-0.58-13.56c-0.06-1.52,1.11-2.8,2.62-2.86
			c1.57-0.1,2.8,1.11,2.86,2.62l0.58,13.56c0.06,1.51-1.11,2.8-2.63,2.86C300.95,186.73,300.91,186.73,300.87,186.73z"/>
	</g>
	<g>
		<path class="st4" d="M254.15,160.34c-0.54,0-1.08-0.16-1.56-0.49c-1.25-0.87-1.56-2.58-0.69-3.82c6.3-9.08,18.24-4.92,18.75-4.74
			c1.42,0.51,2.16,2.08,1.65,3.5c-0.5,1.42-2.08,2.17-3.5,1.67c-0.34-0.12-8.51-2.9-12.39,2.7
			C255.88,159.93,255.03,160.34,254.15,160.34z"/>
	</g>
	<g>
		<path class="st4" d="M306.54,160.28c-0.92,0-1.82-0.46-2.34-1.31c-0.61-0.98-2.74-3.62-5.27-4.13c-1.38-0.29-2.79,0.09-4.28,1.15
			c-1.24,0.87-2.95,0.58-3.83-0.66c-0.87-1.24-0.58-2.95,0.66-3.83c2.73-1.93,5.7-2.62,8.57-2.03c5.3,1.1,8.48,6.07,8.82,6.63
			c0.79,1.29,0.38,2.98-0.91,3.78C307.52,160.15,307.03,160.28,306.54,160.28z"/>
	</g>
	<g>
		<path class="st4" d="M302.5,124.47l-4.63-6.77c0,0-5.69,3.9-18.36,6.58c-19.46,4.22-42.31,3.03-42.31,3.03s3.84,5.57,2.95,25.63
			c-0.88,20.12-21.75,31.32-21.75,31.32c-7.34-5.17-13.53-8.1-18.73-9.65c-2.25-0.64-4.25-1.04-6.11-1.27
			c-12.04-1.18-16.52,6.25-16.52,6.25s-27.7-44.16,4.35-75.88c22.47-22.15,52.57-20.73,68.51-17.87c5.42,0.99,9.18,2.12,10.56,2.55
			c0.38,0.11,0.56,0.16,0.56,0.16s47.99-11.38,55.97-4.27C324.97,91.33,308.26,124.77,302.5,124.47z"/>
	</g>
	<g>
		<path class="st4" d="M274.74,236.55c-1.87,0-3.89-0.32-5.96-1.17c-2.76-1.13-4.72-3.02-5.69-5.45c-1.7-4.28,0.2-8.69,0.43-9.18
			c0.31-0.68,0.88-1.2,1.58-1.45c0.7-0.25,1.47-0.2,2.14,0.13l17.92,8.9c0.85,0.42,1.42,1.25,1.51,2.2
			c0.09,0.95-0.32,1.87-1.07,2.45C285.34,233.16,280.78,236.55,274.74,236.55z M267.89,225.88c-0.02,0.68,0.05,1.4,0.31,2.04
			c0.42,1.04,1.29,1.81,2.66,2.37c2.44,1.01,4.81,0.89,6.74,0.42L267.89,225.88z"/>
	</g>
	<g>
		<path class="st5" d="M287.63,510.02c-8.51,1.1-17.19,1.7-26.03,1.87l-19.05-203.23l18.73,4.89L287.63,510.02z"/>
	</g>
	<g>
		<path class="st6" d="M281.29,282.44c0,0,21.81,60.64,15.45,59.74c-6.36-0.9-45.57-32.1-45.57-32.1s-25.66,35.3-34.61,35.95
			c-8.95,0.66-11.87-63.17-11.87-63.17s6.77,18.05,40.19,21.11C278.28,307.04,281.29,282.44,281.29,282.44z"/>
	</g>
	<g>
		<path class="st1" d="M217.22,201.34c0.65,14.43-6.11,26.47-15.11,26.87c-9,0.41-16.83-10.96-17.48-25.4
			c-0.65-14.43,6.11-26.47,15.11-26.87C208.74,175.54,216.56,186.91,217.22,201.34z"/>
	</g>
	<g>
		
			<ellipse transform="matrix(0.999 -0.0453 0.0453 0.999 -8.9531 9.1324)" class="st7" cx="197.16" cy="202.25" rx="16.31" ry="26.16"/>
	</g>
	<g>
		<g>
			<path class="st7" d="M199.67,174.6c0.46,4.67,1.15,7.67,1.3,8.22c0.38,1.65-0.59,3.3-2.24,3.75l-0.43,0.02
				c-1.54,0.19-2.94-0.79-3.32-2.32c-0.07-0.18-1.06-4.28-1.42-10.93c-1.3-20.52,2.68-64.87,56.34-87.51
				c5.42,0.99,9.18,2.12,10.56,2.55C199.93,109.35,197.83,155.66,199.67,174.6z"/>
		</g>
	</g>
	<g>
		<path class="st7" d="M243.8,246.13c-33.07,0-49.88-22.89-50.64-23.95c-0.99-1.38-0.67-3.3,0.71-4.3c1.39-0.99,3.31-0.68,4.31,0.7
			c0.74,1.02,18.53,25.07,53.75,20.88c1.7-0.21,3.23,1.01,3.43,2.7c0.2,1.69-1.01,3.23-2.7,3.43
			C249.59,245.96,246.63,246.13,243.8,246.13z"/>
	</g>
	<g>
		
			<ellipse transform="matrix(0.999 -0.0452 0.0452 0.999 -10.6885 12.1672)" class="st7" cx="263.47" cy="242.23" rx="14.04" ry="7.89"/>
	</g>
	<g>
		<g>
			<path class="st6" d="M387.4,475.7c-0.77,0.55-1.59,0.99-2.42,1.48c-0.82,0.49-1.7,0.99-2.58,1.48L360.5,376.04
				c-0.27-1.48,0.66-2.91,2.14-3.24c1.48-0.33,2.91,0.6,3.24,2.09L387.4,475.7z"/>
		</g>
	</g>
</g>
<g>
	<g>
		<path class="st0" d="M511.88,255.99c0,46.71-12.51,90.51-34.41,128.21c-0.82,1.43-1.7,2.85-2.58,4.28
			c-2.03,3.4-4.17,6.81-6.42,10.1c-0.93,1.37-1.87,2.74-2.91,4.12c-33.37,47.81-82.77,83.48-140.29,99.67
			c-1.21,0.33-2.47,0.66-3.68,0.99c-20.91,5.54-42.92,8.51-65.59,8.51c-88.42,0-166.42-44.84-212.25-113.07
			c-4.34-6.31-8.34-12.9-12.02-19.59C11.59,342.66,0.12,300.67,0.12,255.99C0.12,114.66,114.67,0.11,256,0.11
			S511.88,114.66,511.88,255.99z"/>
	</g>
	<g>
		<g>
			<path class="st4" d="M447.28,308.2c0.88,130.63-129.15,108.68-129.15,108.68l-123.11-48.68c0,0-123.33-65.21-42.48-140.67
				c0,0-28.27-126.95,71.85-152.42c0.44-0.16,0.88-0.27,1.32-0.38c3.29-0.77,6.48-1.43,9.55-1.87
				c92.7-14.38,100.66,110.38,100.66,110.38S446.57,203.69,447.28,308.2z"/>
		</g>
	</g>
	<g>
		
			<ellipse transform="matrix(0.0453 -0.999 0.999 0.0453 -14.2226 366.9186)" class="st8" cx="184.85" cy="190.9" rx="26.15" ry="16.3"/>
	</g>
	<g>
		<g>
			<path class="st9" d="M465.56,402.72c-33.37,47.81-82.77,83.48-140.29,99.67c-1.21,0.33-2.47,0.66-3.68,0.99
				c-20.91,5.54-42.92,8.51-65.59,8.51c-10.59,0-21.02-0.66-31.28-1.87c-8.62-1.1-17.12-2.58-25.47-4.45
				c-64.55-14.6-119.76-53.57-155.49-106.75c34.36-46.98,77.44-82.55,106.75-95.17c43.36-18.66,112.13-31.18,175.64-13.01
				c0.16,0.05,0.38,0.05,0.6,0.11c19.1,5.49,37.65,13.72,54.94,25.41C419.07,341.41,446.29,370.72,465.56,402.72z"/>
		</g>
	</g>
	<g>
		<g>
			<g>
				<g>
					<g>
						<path class="st3" d="M209.31,246.01l0.01,1.49l1.25,28.01l0.89,21.96c0,0,3.78,8.81,29.34,7.15
							c34.26-2.35,39.65-20.77,39.65-20.77l1.46-51.48l-10.39,1.98L209.31,246.01z"/>
					</g>
				</g>
			</g>
		</g>
	</g>
	<g>
		<g>
			<g>
				<g>
					<g>
						<path class="st4" d="M209.32,247.49l1.25,28.01c16.65-2.02,46.95-9.23,59.19-35.42c0.94-2.13,1.57-4.04,1.77-5.64
							l-62.11,12.62L209.32,247.49z"/>
					</g>
				</g>
			</g>
		</g>
	</g>
	<g>
		<g>
			<g>
				<g>
					<g>
						<path class="st3" d="M198.46,113.44c0,0-31.86,72.93-20.38,113.9c11.48,40.97,48.81,34.52,71.14,26.6
							c22.33-7.92,32.7-21.62,32.7-21.62s20.86,7.07,34.82-12.33c13.95-19.4,5.36-41.68-6.55-46.78c-11.91-5.1-26.08,3.5-26.08,3.5
							l11.1-21.19C295.21,155.51,248.5,47.81,198.46,113.44z"/>
					</g>
				</g>
			</g>
		</g>
	</g>
	<g>
		<g>
			<path class="st4" d="M208.35,102.64c0,0-2.31,38.8,36.73,56.43c39.03,17.63,65.11,14.14,65.11,14.14l-2.54-50.6l-53-45.46
				l-39.55,6.3L208.35,102.64z"/>
		</g>
	</g>
	<g>
		<g>
			<polygon class="st4" points="281.47,165.52 281.62,187.61 301.27,168.23 			"/>
		</g>
	</g>
	<g>
		<g>
			<path class="st9" d="M474.89,388.49c-2.03,3.4-4.17,6.81-6.42,10.1c-0.93,1.37-1.87,2.74-2.91,4.12
				c-33.37,47.81-82.77,83.48-140.29,99.67c-1.21,0.33-2.47,0.66-3.68,0.99l3.51-212.91c0,0,0.38,0.05,1.04,0.17
				c0.16,0.05,0.38,0.05,0.6,0.11c12.62,2.14,95.34,18.5,139.74,83.59C469.51,378.66,472.25,383.44,474.89,388.49z"/>
		</g>
	</g>
	<g>
		<path class="st4" d="M189.4,140.07c-1.12,0-2.15-0.72-2.5-1.84c-0.43-1.38,0.34-2.85,1.72-3.29l14.54-4.55
			c1.39-0.43,2.85,0.34,3.29,1.72c0.43,1.38-0.34,2.85-1.72,3.29l-14.54,4.55C189.92,140.03,189.65,140.07,189.4,140.07z"/>
	</g>
	<g>
		<path class="st4" d="M285.6,210.74c-0.71,0-1.41-0.29-1.93-0.85c-0.98-1.07-0.91-2.73,0.15-3.71l22.48-20.69
			c1.06-0.98,2.73-0.91,3.71,0.15c0.98,1.07,0.91,2.73-0.15,3.71l-22.48,20.69C286.87,210.51,286.23,210.74,285.6,210.74z"/>
	</g>
	<g>
		<path class="st4" d="M308.37,208.02c-0.35,0-0.71-0.07-1.05-0.22l-13.42-5.89c-1.33-0.58-1.93-2.13-1.35-3.45
			c0.58-1.33,2.12-1.93,3.45-1.35l13.42,5.89c1.33,0.58,1.93,2.13,1.35,3.45C310.35,207.44,309.38,208.02,308.37,208.02z"/>
	</g>
	<g>
		<path class="st4" d="M193.89,176.86c-0.18,0-0.36-0.02-0.54-0.06c-1.42-0.29-2.33-1.68-2.03-3.1l2.68-12.91l-5.27-6.08
			c-0.95-1.09-0.83-2.75,0.26-3.7c1.09-0.95,2.75-0.84,3.7,0.26l6.12,7.06c0.54,0.62,0.75,1.45,0.59,2.25l-2.94,14.18
			C196.2,176.01,195.11,176.86,193.89,176.86z"/>
	</g>
	<g>
		<path class="st4" d="M237.86,179.1c-0.18,0-0.36-0.02-0.54-0.06c-1.42-0.29-2.33-1.68-2.03-3.1l2.68-12.91l-5.27-6.08
			c-0.95-1.09-0.83-2.75,0.26-3.7c1.09-0.95,2.75-0.83,3.7,0.26l6.12,7.06c0.54,0.62,0.75,1.45,0.59,2.25l-2.94,14.18
			C240.17,178.24,239.08,179.1,237.86,179.1z"/>
	</g>
	<g>
		<path class="st4" d="M202.59,208.88c-1.21,0-2.31-0.85-2.56-2.09c-4.88-23.32,6.41-35.06,6.9-35.55c1.02-1.03,2.68-1.03,3.71-0.02
			c1.03,1.02,1.04,2.67,0.03,3.7c-0.4,0.42-9.78,10.39-5.5,30.8c0.3,1.42-0.61,2.81-2.03,3.11
			C202.95,208.86,202.77,208.88,202.59,208.88z"/>
	</g>
	<g>
		<path class="st4" d="M226.28,231.31c-1.56,0-5.28-0.72-13.05-9.32c-0.9-1-1.22-2.35-0.87-3.62c0.37-1.32,1.41-2.35,2.78-2.76
			c18.73-5.6,21.17-3.76,22.34-2.87c0.93,0.7,2.34,2.39,1.3,5.88c-1.42,4.78-7.38,12.35-12.04,12.66
			C226.63,231.31,226.47,231.31,226.28,231.31z M218.61,220.06c4.18,4.34,6.94,6,7.79,6c0.47-0.05,2.22-1.07,4.37-3.76
			c1.86-2.33,2.8-4.37,3.06-5.41C232.16,216.83,227.7,217.45,218.61,220.06z"/>
	</g>
	<g>
		<g>
			<path class="st10" d="M132.04,387.28c-0.28,0.32-26.49,28.43-21.52,78.96c-1.57-1.01-3.09-2.08-4.61-3.21
				c-0.43-0.28-0.81-0.62-1.25-0.95c-3.22-50.17,23.1-78.22,23.43-78.6c1.06-1.08,2.76-1.11,3.9-0.1
				C133.08,384.44,133.11,386.2,132.04,387.28z"/>
		</g>
	</g>
	<g>
		<path class="st2" d="M244.2,309.25l-19.48,200.78c-8.62-1.1-17.12-2.58-25.47-4.45l26.67-191.72L244.2,309.25z"/>
	</g>
	<g>
		<path class="st6" d="M211,286.08c0,0-26.02,57.59-19.79,56.69c6.23-0.9,44.57-32.08,44.57-32.08s25.1,35.28,33.86,35.94
			c8.75,0.66,11.62-63.14,11.62-63.14s-6.62,18.04-39.31,21.1C209.26,307.63,211,286.08,211,286.08z"/>
	</g>
	<g>
		<path class="st8" d="M282.23,196.96c-0.65,14.43,6.11,26.45,15.1,26.86c9,0.41,16.82-10.96,17.47-25.38
			c0.65-14.43-6.11-26.45-15.1-26.86C290.71,171.17,282.89,182.53,282.23,196.96z"/>
	</g>
	<g>
		<path class="st10" d="M285.99,197.13c-0.65,14.43,6.11,26.45,15.1,26.86c9,0.41,16.82-10.96,17.47-25.38
			c0.65-14.43-6.11-26.45-15.1-26.86C294.46,171.34,286.64,182.7,285.99,197.13z"/>
	</g>
	<g>
		<path class="st10" d="M255.65,241.73c-2.83,0-5.77-0.17-8.84-0.53c-1.69-0.2-2.9-1.73-2.7-3.42c0.2-1.69,1.71-2.9,3.42-2.7
			c35.19,4.16,52.98-19.85,53.72-20.88c1-1.38,2.92-1.69,4.3-0.7c1.38,0.99,1.7,2.91,0.71,4.3
			C305.51,218.85,288.7,241.73,255.65,241.73z"/>
	</g>
	<g>
		<path class="st10" d="M221.99,237.19c-0.2,4.35,5.92,8.16,13.66,8.52s14.18-2.89,14.37-7.24c0.2-4.35-5.92-8.16-13.66-8.52
			C228.62,229.59,222.18,232.84,221.99,237.19z"/>
	</g>
	<g>
		<g>
			<path class="st10" d="M304.74,183.93c0,1.65-1.37,3.02-3.07,3.02c-1.76,0-3.13-1.43-3.07-3.13
				c0.99-80.52-63.34-105.16-74.21-108.73c0.44-0.16,0.88-0.27,1.32-0.38c3.29-0.77,6.48-1.43,9.55-1.87
				C257.26,82.94,305.62,113.24,304.74,183.93z"/>
		</g>
	</g>
</g>
</svg>
