<?xml version="1.0" encoding="utf-8"?>
<!-- Generator: Adobe Illustrator 26.3.1, SVG Export Plug-In . SVG Version: 6.00 Build 0)  -->
<svg version="1.1" xmlns="http://www.w3.org/2000/svg" xmlns:xlink="http://www.w3.org/1999/xlink" x="0px" y="0px"
	 viewBox="0 0 137.6 137.6" style="enable-background:new 0 0 137.6 137.6;" xml:space="preserve">
<style type="text/css">
	.st0{opacity:0.4;}
	.st1{fill:#E3E7FE;}
	.st2{fill:#EFF1FF;stroke:#6576FF;stroke-width:2;stroke-linecap:round;stroke-linejoin:round;}
</style>
<g id="BACKGROUND">
</g>
<g id="OBJECTS">
	<g class="st0">
		<path class="st1" d="M66.8,24.8v-2.7c0-0.2-0.2-0.4-0.4-0.4h-2.7l-1.9-1.9l0.2-0.3h1.8c0.2,0,0.3-0.1,0.4-0.2
			c0.1-0.1,0.1-0.3,0-0.4l-0.9-1.6l0.9-1.6c0.1-0.1,0.1-0.3,0-0.4c-0.1-0.1-0.2-0.2-0.4-0.2H62l-0.2-0.3l1.9-1.9h2.7
			c0.2,0,0.4-0.2,0.4-0.4V9.6l1.9-1.9c0.1-0.1,0.1-0.2,0.1-0.3c0-0.1,0-0.2-0.1-0.3l-1.9-1.9V2.5c0-0.2-0.2-0.4-0.4-0.4h-2.7
			l-1.9-1.9C61.7,0,61.5,0,61.4,0c-0.1,0-0.2,0-0.3,0.1L59.2,2h-2.7c-0.2,0-0.4,0.2-0.4,0.4v2.7L54.2,7l-0.3-0.2V5
			c0-0.2-0.1-0.3-0.2-0.4c-0.1-0.1-0.3-0.1-0.4,0l-1.6,0.9L50,4.6c-0.1-0.1-0.3-0.1-0.4,0c-0.1,0.1-0.2,0.2-0.2,0.4v1.8L49,7
			l-1.8-1.8V2.5C47.2,2.2,47,2,46.7,2H44l-1.9-1.9C42,0,41.9,0,41.8,0c-0.1,0-0.2,0-0.3,0.1L39.6,2h-2.7c-0.2,0-0.4,0.2-0.4,0.4v2.7
			l-1.9,1.9c-0.1,0.1-0.1,0.2-0.1,0.3c0,0.1,0,0.2,0.1,0.3l1.9,1.9v2.7c0,0.2,0.2,0.4,0.4,0.4h2.7l1.9,1.9l-0.2,0.3h-1.8
			c-0.2,0-0.3,0.1-0.4,0.2c-0.1,0.1-0.1,0.3,0,0.4l0.9,1.6L39,18.8c-0.1,0.1-0.1,0.3,0,0.4c0.1,0.1,0.2,0.2,0.4,0.2h1.8l0.2,0.3
			l-1.9,1.9h-2.7c-0.2,0-0.4,0.2-0.4,0.4v2.7l-1.9,1.9c-0.1,0.1-0.1,0.2-0.1,0.3c0,0.1,0,0.2,0.1,0.3l1.9,1.9v2.7
			c0,0.2,0.2,0.4,0.4,0.4h2.7l1.9,1.9c0.1,0.1,0.2,0.1,0.3,0.1c0.1,0,0.2,0,0.3-0.1l1.9-1.9h2.7c0.2,0,0.4-0.2,0.4-0.4v-2.7l1.9-1.9
			l0.3,0.2v1.8c0,0.2,0.1,0.3,0.2,0.4c0.1,0.1,0.3,0.1,0.4,0l1.6-0.9l1.6,0.9c0.1,0,0.1,0.1,0.2,0.1c0.1,0,0.2,0,0.2-0.1
			c0.1-0.1,0.2-0.2,0.2-0.4v-1.8l0.3-0.2l1.9,1.9v2.7c0,0.2,0.2,0.4,0.4,0.4h2.7l1.9,1.9c0.1,0.1,0.2,0.1,0.3,0.1
			c0.1,0,0.2,0,0.3-0.1l1.9-1.9h2.7c0.2,0,0.4-0.2,0.4-0.4v-2.7l1.9-1.9c0.1-0.1,0.1-0.2,0.1-0.3c0-0.1,0-0.2-0.1-0.3L66.8,24.8z
			 M66.8,6.4l1,1l-1,1V6.4z M36.4,8.3l-1-1l1-1V8.3z M36.4,28l-1-1l1-1V28z M41.8,1.1l1,1h-1.9L41.8,1.1z M37.3,2.9h1.3l-1.3,1.3
			V2.9z M37.3,11.9v-1.3l1.3,1.3H37.3z M40.9,12.8h1.9l-0.4,0.4c-0.1,0-0.1,0.1-0.1,0.1l-0.4,0.4L40.9,12.8z M40.2,18.6l0.7-1.1
			c0.1-0.1,0.1-0.3,0-0.4l-0.7-1.1h1.3c0.2,0,0.3-0.1,0.4-0.2l0.7-1.1l0.7,1.1c0.1,0.1,0.2,0.2,0.4,0.2h1.3L44.2,17
			c-0.1,0.1-0.1,0.3,0,0.4l0.7,1.1h-1.3c-0.2,0-0.3,0.1-0.4,0.2l-0.7,1.1l-0.7-1.1c-0.1-0.1-0.2-0.2-0.4-0.2H40.2z M45.3,17.2l1-1
			v1.9L45.3,17.2z M46.2,19.4v2.2H44l-0.9-0.9l0.7-1.3h1.8c0.2,0,0.3-0.1,0.4-0.2L46.2,19.4z M46.1,15.2c-0.1-0.1-0.2-0.2-0.4-0.2
			h-1.8l-0.7-1.3l0.9-0.9h2.2V15L46.1,15.2z M41.8,20.7l1,1h-1.9L41.8,20.7z M37.3,22.6h1.3l-1.3,1.3V22.6z M37.3,31.5v-1.3l1.3,1.3
			H37.3z M41.8,33.3l-1-1h1.9L41.8,33.3z M46.3,31.5h-1.3l1.3-1.3V31.5z M46.3,28.9l-2.6,2.6H40l-2.6-2.6v-3.7l2.6-2.6h3.7l2.6,2.6
			V28.9z M46.3,23.9l-1.3-1.3h1.3V23.9z M46.3,11.9h-1.3l1.3-1.3V11.9z M46.3,9.2l-2.6,2.6H40l-2.6-2.6V5.5L40,2.9h3.7l2.6,2.6V9.2z
			 M46.3,4.3l-1.3-1.3h1.3V4.3z M50,7.5c0.1-0.1,0.2-0.2,0.2-0.4V5.8l1.1,0.7c0.1,0.1,0.3,0.1,0.4,0L53,5.8v1.3
			c0,0.2,0.1,0.3,0.2,0.4l1.1,0.7l-1.1,0.7C53,8.9,53,9,53,9.2v1.3l-1.1-0.7c-0.1,0-0.1-0.1-0.2-0.1c-0.1,0-0.2,0-0.2,0.1l-1.1,0.7
			V9.2c0-0.2-0.1-0.3-0.2-0.4l-1.1-0.7L50,7.5z M52.6,11.8h-1.9l1-1L52.6,11.8z M47.2,6.4l1,1l-0.4,0.4l0,0c-0.1,0-0.1,0.1-0.2,0.2
			l-0.4,0.4V6.4z M47.2,9.6l0.9-0.9l1.3,0.7v1.8c0,0.2,0.1,0.3,0.2,0.4l-0.2,0.2h-2.2V9.6z M47.1,12.7h1.3l-1.3,1.3V12.7z
			 M47.1,21.7v-1.3l1.3,1.3H47.1z M49.4,22.6l0.2,0.2c-0.1,0.1-0.2,0.2-0.2,0.4v1.8l-1.3,0.7l-0.9-0.9v-2.2H49.4z M47.2,28v-1.9l1,1
			L47.2,28z M53.2,26.9C53,27,53,27.1,53,27.3v1.3l-1.1-0.7c-0.1,0-0.1-0.1-0.2-0.1c-0.1,0-0.2,0-0.2,0.1l-1.1,0.7v-1.3
			c0-0.2-0.1-0.3-0.2-0.4l-1.1-0.7l1.1-0.7c0.1-0.1,0.2-0.2,0.2-0.4v-1.3l1.1,0.7c0.1,0.1,0.3,0.1,0.4,0l1.1-0.7v1.3
			c0,0.2,0.1,0.3,0.2,0.4l1.1,0.7L53.2,26.9z M50.7,22.6h1.9l-1,1L50.7,22.6z M56.1,28l-1-1l1-1V28z M56.1,24.8l-0.9,0.9l-1.3-0.8
			v-1.8c0-0.2-0.1-0.3-0.2-0.4l0.2-0.2h2.2V24.8z M56.1,21.7h-1.3l1.3-1.3V21.7z M56.1,19l-2.6,2.6h-3.7L47.1,19v-3.7l2.6-2.6h3.7
			l2.6,2.6V19z M56.1,14.1l-1.3-1.3h1.3V14.1z M56.1,11.8h-2.2l-0.2-0.2c0.1-0.1,0.2-0.2,0.2-0.4V9.4l1.3-0.7l0.9,0.9V11.8z
			 M56.1,8.3l-1-1l1-1V8.3z M62.4,21.7h-1.9l1-1L62.4,21.7z M63,15.8L62.4,17c-0.1,0.1-0.1,0.3,0,0.4l0.7,1.1h-1.3
			c-0.2,0-0.3,0.1-0.4,0.2l-0.7,1.1L60,18.8c-0.1-0.1-0.2-0.2-0.4-0.2h-1.3l0.7-1.1c0.1-0.1,0.1-0.3,0-0.4l-0.7-1.1h1.3
			c0.2,0,0.3-0.1,0.4-0.2l0.7-1.1l0.7,1.1c0.1,0.1,0.2,0.2,0.4,0.2H63z M61.4,13.7l-1-1h1.9L61.4,13.7z M65.9,11.9h-1.3l1.3-1.3
			V11.9z M65.9,2.9v1.3l-1.3-1.3H65.9z M61.4,1.1l1,1h-1.9L61.4,1.1z M57,2.9h1.3L57,4.3V2.9z M57,5.5l2.6-2.6h3.7l2.6,2.6v3.7
			l-2.6,2.6h-3.7L57,9.2V5.5z M57,10.5l1.3,1.3H57V10.5z M57,12.8h2.2l0.9,0.9l-0.7,1.3h-1.8c-0.2,0-0.3,0.1-0.4,0.2L57,15V12.8z
			 M57,16.2l1,1l-1,1V16.2z M57,19.4l0.2-0.2c0.1,0.1,0.2,0.2,0.4,0.2h1.8l0.8,1.3l-0.9,0.9H57V19.4z M57,22.6h1.3L57,23.9V22.6z
			 M57,31.5v-1.3l1.3,1.3H57z M61.4,33.3l-1-1h1.9L61.4,33.3z M65.9,31.5h-1.3l1.3-1.3V31.5z M65.9,28.9l-2.6,2.6h-3.7L57,28.9v-3.7
			l2.6-2.6h3.7l2.6,2.6V28.9z M65.9,23.9l-1.3-1.3h1.3V23.9z M66.8,28v-1.9l1,1L66.8,28z"/>
		<path class="st1" d="M49.2,2.1h0.5c0.2,0.8,0.9,1.3,1.8,1.3c0.8,0,1.5-0.6,1.8-1.3h0.5c0.5,0,0.8-0.4,0.8-0.8V0h-0.9v1.2h-1.2
			l0,0.4c0,0.5-0.4,0.9-0.9,0.9c-0.5,0-0.9-0.4-0.9-0.9l0-0.4h-1.2V0h-0.9v1.3C48.4,1.8,48.8,2.1,49.2,2.1z"/>
		<path class="st1" d="M54.5,34.4v-1.3c0-0.5-0.4-0.8-0.8-0.8h-0.5C53,31.5,52.3,31,51.5,31c-0.8,0-1.5,0.6-1.8,1.3h-0.5
			c-0.5,0-0.8,0.4-0.8,0.8v1.3h0.9v-1.2h1.2l0-0.4c0-0.5,0.4-0.9,0.9-0.9c0.5,0,0.9,0.4,0.9,0.9l0,0.4h1.2v1.2H54.5z"/>
		<path class="st1" d="M36.6,19.4V19c0.8-0.2,1.3-0.9,1.3-1.8c0-0.8-0.6-1.5-1.3-1.8V15c0-0.5-0.4-0.8-0.8-0.8h-1.3h-1.3
			c-0.5,0-0.8,0.4-0.8,0.8v0.5c-0.8,0.2-1.3,0.9-1.3,1.8c0,0.8,0.6,1.5,1.3,1.8v0.5c0,0.5,0.4,0.8,0.8,0.8h1.3h1.3
			C36.2,20.3,36.6,19.9,36.6,19.4z M35.7,19.4h-1.2h-1.2v-1.2l-0.4,0c-0.5,0-0.9-0.4-0.9-0.9c0-0.5,0.4-0.9,0.9-0.9l0.4,0v-1.2h1.2
			h1.2v1.2l0.4,0c0.5,0,0.9,0.4,0.9,0.9c0,0.5-0.4,0.9-0.9,0.9l-0.4,0V19.4z"/>
		<path class="st1" d="M66.8,59.2v-2.7c0-0.2-0.2-0.4-0.4-0.4h-2.7l-1.9-1.9l0.2-0.3h1.8c0.2,0,0.3-0.1,0.4-0.2
			c0.1-0.1,0.1-0.3,0-0.4l-0.9-1.6l0.9-1.6c0.1-0.1,0.1-0.3,0-0.4c-0.1-0.1-0.2-0.2-0.4-0.2H62L61.8,49l1.9-1.9h2.7
			c0.2,0,0.4-0.2,0.4-0.4V44l1.9-1.9c0.1-0.1,0.1-0.2,0.1-0.3c0-0.1,0-0.2-0.1-0.3l-1.9-1.9v-2.7c0-0.2-0.2-0.4-0.4-0.4h-2.7
			l-1.9-1.9c-0.1-0.1-0.2-0.1-0.3-0.1c-0.1,0-0.2,0-0.3,0.1l-1.9,1.9h-2.7c-0.2,0-0.4,0.2-0.4,0.4v2.7l-1.9,1.9l-0.3-0.2v-1.8
			c0-0.2-0.1-0.3-0.2-0.4c-0.1-0.1-0.3-0.1-0.4,0l-1.6,0.9L50,39c-0.1-0.1-0.3-0.1-0.4,0c-0.1,0.1-0.2,0.2-0.2,0.4v1.8L49,41.4
			l-1.8-1.8v-2.7c0-0.2-0.2-0.4-0.4-0.4H44l-1.9-1.9c-0.1-0.1-0.2-0.1-0.3-0.1c-0.1,0-0.2,0-0.3,0.1l-1.9,1.9h-2.7
			c-0.2,0-0.4,0.2-0.4,0.4v2.7l-1.9,1.9c-0.1,0.1-0.1,0.2-0.1,0.3c0,0.1,0,0.2,0.1,0.3l1.9,1.9v2.7c0,0.2,0.2,0.4,0.4,0.4h2.7
			l1.9,1.9l-0.2,0.3h-1.8c-0.2,0-0.3,0.1-0.4,0.2C39,49.7,39,49.9,39,50l0.9,1.6L39,53.2c-0.1,0.1-0.1,0.3,0,0.4
			c0.1,0.1,0.2,0.2,0.4,0.2h1.8l0.2,0.3l-1.9,1.9h-2.7c-0.2,0-0.4,0.2-0.4,0.4v2.7l-1.9,1.9c-0.1,0.1-0.1,0.2-0.1,0.3
			c0,0.1,0,0.2,0.1,0.3l1.9,1.9v2.7c0,0.2,0.2,0.4,0.4,0.4h2.7l1.9,1.9c0.1,0.1,0.2,0.1,0.3,0.1c0.1,0,0.2,0,0.3-0.1l1.9-1.9h2.7
			c0.2,0,0.4-0.2,0.4-0.4v-2.7l1.9-1.9l0.3,0.2v1.8c0,0.2,0.1,0.3,0.2,0.4c0.1,0.1,0.3,0.1,0.4,0l1.6-0.9l1.6,0.9
			c0.1,0,0.1,0.1,0.2,0.1c0.1,0,0.2,0,0.2-0.1c0.1-0.1,0.2-0.2,0.2-0.4V62l0.3-0.2l1.9,1.9v2.7c0,0.2,0.2,0.4,0.4,0.4h2.7l1.9,1.9
			c0.1,0.1,0.2,0.1,0.3,0.1c0.1,0,0.2,0,0.3-0.1l1.9-1.9h2.7c0.2,0,0.4-0.2,0.4-0.4v-2.7l1.9-1.9c0.1-0.1,0.1-0.2,0.1-0.3
			c0-0.1,0-0.2-0.1-0.3L66.8,59.2z M66.8,40.9l1,1l-1,1V40.9z M36.4,42.8l-1-1l1-1V42.8z M36.4,62.4l-1-1l1-1V62.4z M41.8,35.5l1,1
			h-1.9L41.8,35.5z M37.3,37.3h1.3l-1.3,1.3V37.3z M37.3,46.3v-1.3l1.3,1.3H37.3z M40.9,47.2h1.9l-0.4,0.4c-0.1,0-0.1,0.1-0.1,0.1
			l-0.4,0.4L40.9,47.2z M40.2,53l0.7-1.1c0.1-0.1,0.1-0.3,0-0.4l-0.7-1.1h1.3c0.2,0,0.3-0.1,0.4-0.2l0.7-1.1l0.7,1.1
			c0.1,0.1,0.2,0.2,0.4,0.2h1.3l-0.7,1.1c-0.1,0.1-0.1,0.3,0,0.4l0.7,1.1h-1.3c-0.2,0-0.3,0.1-0.4,0.2l-0.7,1.1l-0.7-1.1
			C41.8,53,41.7,53,41.5,53H40.2z M45.3,51.6l1-1v1.9L45.3,51.6z M46.2,53.8v2.2H44l-0.9-0.9l0.7-1.3h1.8c0.2,0,0.3-0.1,0.4-0.2
			L46.2,53.8z M46.1,49.6c-0.1-0.1-0.2-0.2-0.4-0.2h-1.8l-0.7-1.3l0.9-0.9h2.2v2.2L46.1,49.6z M41.8,55.1l1,1h-1.9L41.8,55.1z
			 M37.3,57h1.3l-1.3,1.3V57z M37.3,65.9v-1.3l1.3,1.3H37.3z M41.8,67.7l-1-1h1.9L41.8,67.7z M46.3,65.9h-1.3l1.3-1.3V65.9z
			 M46.3,63.3l-2.6,2.6H40l-2.6-2.6v-3.7L40,57h3.7l2.6,2.6V63.3z M46.3,58.3L44.9,57h1.3V58.3z M46.3,46.3h-1.3l1.3-1.3V46.3z
			 M46.3,43.7l-2.6,2.6H40l-2.6-2.6V40l2.6-2.6h3.7l2.6,2.6V43.7z M46.3,38.7l-1.3-1.3h1.3V38.7z M50,41.9c0.1-0.1,0.2-0.2,0.2-0.4
			v-1.3l1.1,0.7c0.1,0.1,0.3,0.1,0.4,0l1.1-0.7v1.3c0,0.2,0.1,0.3,0.2,0.4l1.1,0.7l-1.1,0.7C53,43.3,53,43.4,53,43.6v1.3l-1.1-0.7
			c-0.1,0-0.1-0.1-0.2-0.1c-0.1,0-0.2,0-0.2,0.1l-1.1,0.7v-1.3c0-0.2-0.1-0.3-0.2-0.4l-1.1-0.7L50,41.9z M52.6,46.2h-1.9l1-1
			L52.6,46.2z M47.2,40.9l1,1l-0.4,0.4l0,0c-0.1,0-0.1,0.1-0.2,0.2l-0.4,0.4V40.9z M47.2,44l0.9-0.9l1.3,0.7v1.8
			c0,0.2,0.1,0.3,0.2,0.4l-0.2,0.2h-2.2V44z M47.1,47.1h1.3l-1.3,1.3V47.1z M47.1,56.1v-1.3l1.3,1.3H47.1z M49.4,57l0.2,0.2
			c-0.1,0.1-0.2,0.2-0.2,0.4v1.8l-1.3,0.7l-0.9-0.9V57H49.4z M47.2,62.4v-1.9l1,1L47.2,62.4z M53.2,61.3C53,61.4,53,61.5,53,61.7V63
			l-1.1-0.7c-0.1,0-0.1-0.1-0.2-0.1c-0.1,0-0.2,0-0.2,0.1L50.2,63v-1.3c0-0.2-0.1-0.3-0.2-0.4l-1.1-0.7L50,60
			c0.1-0.1,0.2-0.2,0.2-0.4v-1.3l1.1,0.7c0.1,0.1,0.3,0.1,0.4,0l1.1-0.7v1.3c0,0.2,0.1,0.3,0.2,0.4l1.1,0.7L53.2,61.3z M50.7,57h1.9
			l-1,1L50.7,57z M56.1,62.4l-1-1l1-1V62.4z M56.1,59.2l-0.9,0.9l-1.3-0.8v-1.8c0-0.2-0.1-0.3-0.2-0.4l0.2-0.2h2.2V59.2z M56.1,56.1
			h-1.3l1.3-1.3V56.1z M56.1,53.5l-2.6,2.6h-3.7l-2.6-2.6v-3.7l2.6-2.6h3.7l2.6,2.6V53.5z M56.1,48.5l-1.3-1.3h1.3V48.5z M56.1,46.2
			h-2.2l-0.2-0.2c0.1-0.1,0.2-0.2,0.2-0.4v-1.8l1.3-0.7l0.9,0.9V46.2z M56.1,42.8l-1-1l1-1V42.8z M62.4,56.1h-1.9l1-1L62.4,56.1z
			 M63,50.2l-0.7,1.1c-0.1,0.1-0.1,0.3,0,0.4L63,53h-1.3c-0.2,0-0.3,0.1-0.4,0.2l-0.7,1.1L60,53.2C59.9,53,59.8,53,59.6,53h-1.3
			l0.7-1.1c0.1-0.1,0.1-0.3,0-0.4l-0.7-1.1h1.3c0.2,0,0.3-0.1,0.4-0.2l0.7-1.1l0.7,1.1c0.1,0.1,0.2,0.2,0.4,0.2H63z M61.4,48.1l-1-1
			h1.9L61.4,48.1z M65.9,46.3h-1.3l1.3-1.3V46.3z M65.9,37.3v1.3l-1.3-1.3H65.9z M61.4,35.5l1,1h-1.9L61.4,35.5z M57,37.3h1.3
			L57,38.7V37.3z M57,40l2.6-2.6h3.7l2.6,2.6v3.7l-2.6,2.6h-3.7L57,43.7V40z M57,44.9l1.3,1.3H57V44.9z M57,47.2h2.2l0.9,0.9
			l-0.7,1.3h-1.8c-0.2,0-0.3,0.1-0.4,0.2L57,49.4V47.2z M57,50.7l1,1l-1,1V50.7z M57,53.8l0.2-0.2c0.1,0.1,0.2,0.2,0.4,0.2h1.8
			l0.8,1.3l-0.9,0.9H57V53.8z M57,57h1.3L57,58.3V57z M57,65.9v-1.3l1.3,1.3H57z M61.4,67.7l-1-1h1.9L61.4,67.7z M65.9,65.9h-1.3
			l1.3-1.3V65.9z M65.9,63.3l-2.6,2.6h-3.7L57,63.3v-3.7l2.6-2.6h3.7l2.6,2.6V63.3z M65.9,58.3L64.5,57h1.3V58.3z M66.8,62.4v-1.9
			l1,1L66.8,62.4z"/>
		<path class="st1" d="M48.4,35.7c0,0.5,0.4,0.8,0.8,0.8h0.5c0.2,0.8,0.9,1.3,1.8,1.3c0.8,0,1.5-0.6,1.8-1.3h0.5
			c0.5,0,0.8-0.4,0.8-0.8v-1.3h-0.9v1.2h-1.2l0,0.4c0,0.5-0.4,0.9-0.9,0.9c-0.5,0-0.9-0.4-0.9-0.9l0-0.4h-1.2v-1.2h-0.9V35.7z"/>
		<path class="st1" d="M54.5,68.8v-1.3c0-0.5-0.4-0.8-0.8-0.8h-0.5c-0.2-0.8-0.9-1.3-1.8-1.3c-0.8,0-1.5,0.6-1.8,1.3h-0.5
			c-0.5,0-0.8,0.4-0.8,0.8v1.3h0.9v-1.2h1.2l0-0.4c0-0.5,0.4-0.9,0.9-0.9c0.5,0,0.9,0.4,0.9,0.9l0,0.4h1.2v1.2H54.5z"/>
		<path class="st1" d="M36.6,53.8v-0.5c0.8-0.2,1.3-0.9,1.3-1.8c0-0.8-0.6-1.5-1.3-1.8v-0.5c0-0.5-0.4-0.8-0.8-0.8h-1.3h-1.3
			c-0.5,0-0.8,0.4-0.8,0.8v0.5c-0.8,0.2-1.3,0.9-1.3,1.8c0,0.8,0.6,1.5,1.3,1.8v0.5c0,0.5,0.4,0.8,0.8,0.8h1.3h1.3
			C36.2,54.7,36.6,54.3,36.6,53.8z M35.7,53.8h-1.2h-1.2v-1.2l-0.4,0c-0.5,0-0.9-0.4-0.9-0.9c0-0.5,0.4-0.9,0.9-0.9l0.4,0v-1.2h1.2
			h1.2v1.2l0.4,0c0.5,0,0.9,0.4,0.9,0.9c0,0.5-0.4,0.9-0.9,0.9l-0.4,0V53.8z"/>
		<path class="st1" d="M32.4,24.8v-2.7c0-0.2-0.2-0.4-0.4-0.4h-2.7l-1.9-1.9l0.2-0.3h1.8c0.2,0,0.3-0.1,0.4-0.2
			c0.1-0.1,0.1-0.3,0-0.4l-0.9-1.6l0.9-1.6c0.1-0.1,0.1-0.3,0-0.4c-0.1-0.1-0.2-0.2-0.4-0.2h-1.8l-0.2-0.3l1.9-1.9h2.7
			c0.2,0,0.4-0.2,0.4-0.4V9.6l1.9-1.9c0.1-0.1,0.1-0.2,0.1-0.3c0-0.1,0-0.2-0.1-0.3l-1.9-1.9V2.5c0-0.2-0.2-0.4-0.4-0.4h-2.7
			l-1.9-1.9C27.2,0,27.1,0,27,0c-0.1,0-0.2,0-0.3,0.1L24.8,2h-2.7c-0.2,0-0.4,0.2-0.4,0.4v2.7L19.8,7l-0.3-0.2V5
			c0-0.2-0.1-0.3-0.2-0.4c-0.1-0.1-0.3-0.1-0.4,0l-1.6,0.9l-1.6-0.9c-0.1-0.1-0.3-0.1-0.4,0C15,4.7,14.9,4.8,14.9,5v1.8L14.6,7
			l-1.8-1.8V2.5c0-0.2-0.2-0.4-0.4-0.4H9.6L7.7,0.1C7.6,0,7.5,0,7.4,0C7.3,0,7.2,0,7.1,0.1L5.2,2H2.5C2.2,2,2,2.2,2,2.5v2.7L0.1,7.1
			C0,7.2,0,7.3,0,7.4c0,0.1,0,0.2,0.1,0.3L2,9.6v2.7c0,0.2,0.2,0.4,0.4,0.4h2.7L7,14.6l-0.2,0.3H5c-0.2,0-0.3,0.1-0.4,0.2
			c-0.1,0.1-0.1,0.3,0,0.4l0.9,1.6l-0.9,1.6c-0.1,0.1-0.1,0.3,0,0.4c0.1,0.1,0.2,0.2,0.4,0.2h1.8L7,19.8l-1.9,1.9H2.5
			c-0.2,0-0.4,0.2-0.4,0.4v2.7l-1.9,1.9C0,26.8,0,26.9,0,27c0,0.1,0,0.2,0.1,0.3L2,29.2v2.7c0,0.2,0.2,0.4,0.4,0.4h2.7l1.9,1.9
			c0.1,0.1,0.2,0.1,0.3,0.1c0.1,0,0.2,0,0.3-0.1l1.9-1.9h2.7c0.2,0,0.4-0.2,0.4-0.4v-2.7l1.9-1.9l0.3,0.2v1.8c0,0.2,0.1,0.3,0.2,0.4
			c0.1,0.1,0.3,0.1,0.4,0l1.6-0.9l1.6,0.9c0.1,0,0.1,0.1,0.2,0.1c0.1,0,0.2,0,0.2-0.1c0.1-0.1,0.2-0.2,0.2-0.4v-1.8l0.3-0.2l1.9,1.9
			v2.7c0,0.2,0.2,0.4,0.4,0.4h2.7l1.9,1.9c0.1,0.1,0.2,0.1,0.3,0.1c0.1,0,0.2,0,0.3-0.1l1.9-1.9h2.7c0.2,0,0.4-0.2,0.4-0.4v-2.7
			l1.9-1.9c0.1-0.1,0.1-0.2,0.1-0.3c0-0.1,0-0.2-0.1-0.3L32.4,24.8z M32.4,6.4l1,1l-1,1V6.4z M2,8.3l-1-1l1-1V8.3z M2,28l-1-1l1-1
			V28z M7.4,1.1l1,1H6.4L7.4,1.1z M2.9,2.9h1.3L2.9,4.3V2.9z M2.9,11.9v-1.3l1.3,1.3H2.9z M6.4,12.8h1.9l-0.4,0.4
			c-0.1,0-0.1,0.1-0.1,0.1l-0.4,0.4L6.4,12.8z M5.8,18.6l0.7-1.1c0.1-0.1,0.1-0.3,0-0.4l-0.7-1.1h1.3c0.2,0,0.3-0.1,0.4-0.2l0.7-1.1
			l0.7,1.1c0.1,0.1,0.2,0.2,0.4,0.2h1.3L9.8,17c-0.1,0.1-0.1,0.3,0,0.4l0.7,1.1H9.2c-0.2,0-0.3,0.1-0.4,0.2l-0.7,1.1l-0.7-1.1
			c-0.1-0.1-0.2-0.2-0.4-0.2H5.8z M10.9,17.2l1-1v1.9L10.9,17.2z M11.8,19.4v2.2H9.6l-0.9-0.9l0.7-1.3h1.8c0.2,0,0.3-0.1,0.4-0.2
			L11.8,19.4z M11.6,15.2c-0.1-0.1-0.2-0.2-0.4-0.2H9.4l-0.7-1.3l0.9-0.9h2.2V15L11.6,15.2z M7.4,20.7l1,1H6.4L7.4,20.7z M2.9,22.6
			h1.3l-1.3,1.3V22.6z M2.9,31.5v-1.3l1.3,1.3H2.9z M7.4,33.3l-1-1h1.9L7.4,33.3z M11.9,31.5h-1.3l1.3-1.3V31.5z M11.9,28.9
			l-2.6,2.6H5.5l-2.6-2.6v-3.7l2.6-2.6h3.7l2.6,2.6V28.9z M11.9,23.9l-1.3-1.3h1.3V23.9z M11.9,11.9h-1.3l1.3-1.3V11.9z M11.9,9.2
			l-2.6,2.6H5.5L2.9,9.2V5.5l2.6-2.6h3.7l2.6,2.6V9.2z M11.9,4.3l-1.3-1.3h1.3V4.3z M15.6,7.5c0.1-0.1,0.2-0.2,0.2-0.4V5.8L17,6.4
			c0.1,0.1,0.3,0.1,0.4,0l1.1-0.7v1.3c0,0.2,0.1,0.3,0.2,0.4l1.1,0.7l-1.1,0.7c-0.1,0.1-0.2,0.2-0.2,0.4v1.3l-1.1-0.7
			c-0.1,0-0.1-0.1-0.2-0.1c-0.1,0-0.2,0-0.2,0.1l-1.1,0.7V9.2c0-0.2-0.1-0.3-0.2-0.4l-1.1-0.7L15.6,7.5z M18.1,11.8h-1.9l1-1
			L18.1,11.8z M12.8,6.4l1,1l-0.4,0.4l0,0c-0.1,0-0.1,0.1-0.2,0.2l-0.4,0.4V6.4z M12.8,9.6l0.9-0.9l1.3,0.7v1.8
			c0,0.2,0.1,0.3,0.2,0.4L15,11.8h-2.2V9.6z M12.7,12.7h1.3l-1.3,1.3V12.7z M12.7,21.7v-1.3l1.3,1.3H12.7z M15,22.6l0.2,0.2
			c-0.1,0.1-0.2,0.2-0.2,0.4v1.8l-1.3,0.7l-0.9-0.9v-2.2H15z M12.8,28v-1.9l1,1L12.8,28z M18.8,26.9c-0.1,0.1-0.2,0.2-0.2,0.4v1.3
			l-1.1-0.7c-0.1,0-0.1-0.1-0.2-0.1c-0.1,0-0.2,0-0.2,0.1l-1.1,0.7v-1.3c0-0.2-0.1-0.3-0.2-0.4l-1.1-0.7l1.1-0.7
			c0.1-0.1,0.2-0.2,0.2-0.4v-1.3l1.1,0.7c0.1,0.1,0.3,0.1,0.4,0l1.1-0.7v1.3c0,0.2,0.1,0.3,0.2,0.4l1.1,0.7L18.8,26.9z M16.2,22.6
			h1.9l-1,1L16.2,22.6z M21.7,28l-1-1l1-1V28z M21.7,24.8l-0.9,0.9l-1.3-0.8v-1.8c0-0.2-0.1-0.3-0.2-0.4l0.2-0.2h2.2V24.8z
			 M21.7,21.7h-1.3l1.3-1.3V21.7z M21.7,19L19,21.7h-3.7L12.7,19v-3.7l2.6-2.6H19l2.6,2.6V19z M21.7,14.1l-1.3-1.3h1.3V14.1z
			 M21.7,11.8h-2.2l-0.2-0.2c0.1-0.1,0.2-0.2,0.2-0.4V9.4l1.3-0.7l0.9,0.9V11.8z M21.7,8.3l-1-1l1-1V8.3z M28,21.7h-1.9l1-1L28,21.7
			z M28.6,15.8L27.9,17c-0.1,0.1-0.1,0.3,0,0.4l0.7,1.1h-1.3c-0.2,0-0.3,0.1-0.4,0.2l-0.7,1.1l-0.7-1.1c-0.1-0.1-0.2-0.2-0.4-0.2
			h-1.3l0.7-1.1c0.1-0.1,0.1-0.3,0-0.4l-0.7-1.1h1.3c0.2,0,0.3-0.1,0.4-0.2l0.7-1.1l0.7,1.1c0.1,0.1,0.2,0.2,0.4,0.2H28.6z M27,13.7
			l-1-1H28L27,13.7z M31.5,11.9h-1.3l1.3-1.3V11.9z M31.5,2.9v1.3l-1.3-1.3H31.5z M27,1.1l1,1h-1.9L27,1.1z M22.6,2.9h1.3l-1.3,1.3
			V2.9z M22.6,5.5l2.6-2.6h3.7l2.6,2.6v3.7l-2.6,2.6h-3.7l-2.6-2.6V5.5z M22.6,10.5l1.3,1.3h-1.3V10.5z M22.6,12.8h2.2l0.9,0.9
			l-0.7,1.3h-1.8c-0.2,0-0.3,0.1-0.4,0.2L22.6,15V12.8z M22.6,16.2l1,1l-1,1V16.2z M22.6,19.4l0.2-0.2c0.1,0.1,0.2,0.2,0.4,0.2h1.8
			l0.8,1.3l-0.9,0.9h-2.2V19.4z M22.6,22.6h1.3l-1.3,1.3V22.6z M22.6,31.5v-1.3l1.3,1.3H22.6z M27,33.3l-1-1H28L27,33.3z M31.5,31.5
			h-1.3l1.3-1.3V31.5z M31.5,28.9l-2.6,2.6h-3.7l-2.6-2.6v-3.7l2.6-2.6h3.7l2.6,2.6V28.9z M31.5,23.9l-1.3-1.3h1.3V23.9z M32.4,28
			v-1.9l1,1L32.4,28z"/>
		<path class="st1" d="M14.8,2.1h0.5c0.2,0.8,0.9,1.3,1.8,1.3c0.8,0,1.5-0.6,1.8-1.3h0.5c0.5,0,0.8-0.4,0.8-0.8V0h-0.9v1.2H18l0,0.4
			c0,0.5-0.4,0.9-0.9,0.9c-0.5,0-0.9-0.4-0.9-0.9l0-0.4h-1.2V0H14v1.3C14,1.8,14.4,2.1,14.8,2.1z"/>
		<path class="st1" d="M20.1,34.4v-1.3c0-0.5-0.4-0.8-0.8-0.8h-0.5c-0.2-0.8-0.9-1.3-1.8-1.3c-0.8,0-1.5,0.6-1.8,1.3h-0.5
			c-0.5,0-0.8,0.4-0.8,0.8v1.3h0.9v-1.2h1.2l0-0.4c0-0.5,0.4-0.9,0.9-0.9c0.5,0,0.9,0.4,0.9,0.9l0,0.4h1.2v1.2H20.1z"/>
		<path class="st1" d="M2.1,19.4V19c0.8-0.2,1.3-0.9,1.3-1.8c0-0.8-0.6-1.5-1.3-1.8V15c0-0.5-0.4-0.8-0.8-0.8H0v0.9h1.2v1.2l0.4,0
			c0.5,0,0.9,0.4,0.9,0.9c0,0.5-0.4,0.9-0.9,0.9l-0.4,0v1.2H0v0.9h1.3C1.8,20.3,2.1,19.9,2.1,19.4z"/>
		<path class="st1" d="M32.4,59.2v-2.7c0-0.2-0.2-0.4-0.4-0.4h-2.7l-1.9-1.9l0.2-0.3h1.8c0.2,0,0.3-0.1,0.4-0.2
			c0.1-0.1,0.1-0.3,0-0.4l-0.9-1.6l0.9-1.6c0.1-0.1,0.1-0.3,0-0.4c-0.1-0.1-0.2-0.2-0.4-0.2h-1.8L27.4,49l1.9-1.9h2.7
			c0.2,0,0.4-0.2,0.4-0.4V44l1.9-1.9c0.1-0.1,0.1-0.2,0.1-0.3c0-0.1,0-0.2-0.1-0.3l-1.9-1.9v-2.7c0-0.2-0.2-0.4-0.4-0.4h-2.7
			l-1.9-1.9c-0.1-0.1-0.2-0.1-0.3-0.1c-0.1,0-0.2,0-0.3,0.1l-1.9,1.9h-2.7c-0.2,0-0.4,0.2-0.4,0.4v2.7l-1.9,1.9l-0.3-0.2v-1.8
			c0-0.2-0.1-0.3-0.2-0.4c-0.1-0.1-0.3-0.1-0.4,0l-1.6,0.9L15.6,39c-0.1-0.1-0.3-0.1-0.4,0c-0.1,0.1-0.2,0.2-0.2,0.4v1.8l-0.3,0.2
			l-1.8-1.8v-2.7c0-0.2-0.2-0.4-0.4-0.4H9.6l-1.9-1.9c-0.1-0.1-0.2-0.1-0.3-0.1c-0.1,0-0.2,0-0.3,0.1l-1.9,1.9H2.5
			c-0.2,0-0.4,0.2-0.4,0.4v2.7l-1.9,1.9C0,41.6,0,41.7,0,41.8c0,0.1,0,0.2,0.1,0.3L2,44v2.7c0,0.2,0.2,0.4,0.4,0.4h2.7L7,49
			l-0.2,0.3H5c-0.2,0-0.3,0.1-0.4,0.2c-0.1,0.1-0.1,0.3,0,0.4l0.9,1.6l-0.9,1.6c-0.1,0.1-0.1,0.3,0,0.4c0.1,0.1,0.2,0.2,0.4,0.2h1.8
			L7,54.2l-1.9,1.9H2.5c-0.2,0-0.4,0.2-0.4,0.4v2.7l-1.9,1.9C0,61.2,0,61.3,0,61.4c0,0.1,0,0.2,0.1,0.3L2,63.6v2.7
			c0,0.2,0.2,0.4,0.4,0.4h2.7l1.9,1.9c0.1,0.1,0.2,0.1,0.3,0.1c0.1,0,0.2,0,0.3-0.1l1.9-1.9h2.7c0.2,0,0.4-0.2,0.4-0.4v-2.7l1.9-1.9
			l0.3,0.2v1.8c0,0.2,0.1,0.3,0.2,0.4c0.1,0.1,0.3,0.1,0.4,0l1.6-0.9l1.6,0.9c0.1,0,0.1,0.1,0.2,0.1c0.1,0,0.2,0,0.2-0.1
			c0.1-0.1,0.2-0.2,0.2-0.4V62l0.3-0.2l1.9,1.9v2.7c0,0.2,0.2,0.4,0.4,0.4h2.7l1.9,1.9c0.1,0.1,0.2,0.1,0.3,0.1c0.1,0,0.2,0,0.3-0.1
			l1.9-1.9h2.7c0.2,0,0.4-0.2,0.4-0.4v-2.7l1.9-1.9c0.1-0.1,0.1-0.2,0.1-0.3c0-0.1,0-0.2-0.1-0.3L32.4,59.2z M32.4,40.9l1,1l-1,1
			V40.9z M2,42.8l-1-1l1-1V42.8z M2,62.4l-1-1l1-1V62.4z M7.4,35.5l1,1H6.4L7.4,35.5z M2.9,37.3h1.3l-1.3,1.3V37.3z M2.9,46.3v-1.3
			l1.3,1.3H2.9z M6.4,47.2h1.9l-0.4,0.4c-0.1,0-0.1,0.1-0.1,0.1l-0.4,0.4L6.4,47.2z M5.8,53l0.7-1.1c0.1-0.1,0.1-0.3,0-0.4l-0.7-1.1
			h1.3c0.2,0,0.3-0.1,0.4-0.2l0.7-1.1L8.8,50c0.1,0.1,0.2,0.2,0.4,0.2h1.3l-0.7,1.1c-0.1,0.1-0.1,0.3,0,0.4l0.7,1.1H9.2
			C9,53,8.9,53,8.8,53.2l-0.7,1.1l-0.7-1.1C7.4,53,7.3,53,7.1,53H5.8z M10.9,51.6l1-1v1.9L10.9,51.6z M11.8,53.8v2.2H9.6l-0.9-0.9
			l0.7-1.3h1.8c0.2,0,0.3-0.1,0.4-0.2L11.8,53.8z M11.6,49.6c-0.1-0.1-0.2-0.2-0.4-0.2H9.4l-0.7-1.3l0.9-0.9h2.2v2.2L11.6,49.6z
			 M7.4,55.1l1,1H6.4L7.4,55.1z M2.9,57h1.3l-1.3,1.3V57z M2.9,65.9v-1.3l1.3,1.3H2.9z M7.4,67.7l-1-1h1.9L7.4,67.7z M11.9,65.9
			h-1.3l1.3-1.3V65.9z M11.9,63.3l-2.6,2.6H5.5l-2.6-2.6v-3.7L5.5,57h3.7l2.6,2.6V63.3z M11.9,58.3L10.5,57h1.3V58.3z M11.9,46.3
			h-1.3l1.3-1.3V46.3z M11.9,43.7l-2.6,2.6H5.5l-2.6-2.6V40l2.6-2.6h3.7l2.6,2.6V43.7z M11.9,38.7l-1.3-1.3h1.3V38.7z M15.6,41.9
			c0.1-0.1,0.2-0.2,0.2-0.4v-1.3l1.1,0.7c0.1,0.1,0.3,0.1,0.4,0l1.1-0.7v1.3c0,0.2,0.1,0.3,0.2,0.4l1.1,0.7l-1.1,0.7
			c-0.1,0.1-0.2,0.2-0.2,0.4v1.3l-1.1-0.7c-0.1,0-0.1-0.1-0.2-0.1c-0.1,0-0.2,0-0.2,0.1l-1.1,0.7v-1.3c0-0.2-0.1-0.3-0.2-0.4
			l-1.1-0.7L15.6,41.9z M18.1,46.2h-1.9l1-1L18.1,46.2z M12.8,40.9l1,1l-0.4,0.4l0,0c-0.1,0-0.1,0.1-0.2,0.2l-0.4,0.4V40.9z
			 M12.8,44l0.9-0.9l1.3,0.7v1.8c0,0.2,0.1,0.3,0.2,0.4L15,46.2h-2.2V44z M12.7,47.1h1.3l-1.3,1.3V47.1z M12.7,56.1v-1.3l1.3,1.3
			H12.7z M15,57l0.2,0.2c-0.1,0.1-0.2,0.2-0.2,0.4v1.8l-1.3,0.7l-0.9-0.9V57H15z M12.8,62.4v-1.9l1,1L12.8,62.4z M18.8,61.3
			c-0.1,0.1-0.2,0.2-0.2,0.4V63l-1.1-0.7c-0.1,0-0.1-0.1-0.2-0.1c-0.1,0-0.2,0-0.2,0.1L15.8,63v-1.3c0-0.2-0.1-0.3-0.2-0.4l-1.1-0.7
			l1.1-0.7c0.1-0.1,0.2-0.2,0.2-0.4v-1.3L17,59c0.1,0.1,0.3,0.1,0.4,0l1.1-0.7v1.3c0,0.2,0.1,0.3,0.2,0.4l1.1,0.7L18.8,61.3z
			 M16.2,57h1.9l-1,1L16.2,57z M21.7,62.4l-1-1l1-1V62.4z M21.7,59.2l-0.9,0.9l-1.3-0.8v-1.8c0-0.2-0.1-0.3-0.2-0.4l0.2-0.2h2.2
			V59.2z M21.7,56.1h-1.3l1.3-1.3V56.1z M21.7,53.5L19,56.1h-3.7l-2.6-2.6v-3.7l2.6-2.6H19l2.6,2.6V53.5z M21.7,48.5l-1.3-1.3h1.3
			V48.5z M21.7,46.2h-2.2l-0.2-0.2c0.1-0.1,0.2-0.2,0.2-0.4v-1.8l1.3-0.7l0.9,0.9V46.2z M21.7,42.8l-1-1l1-1V42.8z M28,56.1h-1.9
			l1-1L28,56.1z M28.6,50.2l-0.7,1.1c-0.1,0.1-0.1,0.3,0,0.4l0.7,1.1h-1.3c-0.2,0-0.3,0.1-0.4,0.2l-0.7,1.1l-0.7-1.1
			C25.5,53,25.4,53,25.2,53h-1.3l0.7-1.1c0.1-0.1,0.1-0.3,0-0.4l-0.7-1.1h1.3c0.2,0,0.3-0.1,0.4-0.2l0.7-1.1l0.7,1.1
			c0.1,0.1,0.2,0.2,0.4,0.2H28.6z M27,48.1l-1-1H28L27,48.1z M31.5,46.3h-1.3l1.3-1.3V46.3z M31.5,37.3v1.3l-1.3-1.3H31.5z M27,35.5
			l1,1h-1.9L27,35.5z M22.6,37.3h1.3l-1.3,1.3V37.3z M22.6,40l2.6-2.6h3.7l2.6,2.6v3.7l-2.6,2.6h-3.7l-2.6-2.6V40z M22.6,44.9
			l1.3,1.3h-1.3V44.9z M22.6,47.2h2.2l0.9,0.9l-0.7,1.3h-1.8c-0.2,0-0.3,0.1-0.4,0.2l-0.2-0.2V47.2z M22.6,50.7l1,1l-1,1V50.7z
			 M22.6,53.8l0.2-0.2c0.1,0.1,0.2,0.2,0.4,0.2h1.8l0.8,1.3l-0.9,0.9h-2.2V53.8z M22.6,57h1.3l-1.3,1.3V57z M22.6,65.9v-1.3l1.3,1.3
			H22.6z M27,67.7l-1-1H28L27,67.7z M31.5,65.9h-1.3l1.3-1.3V65.9z M31.5,63.3l-2.6,2.6h-3.7l-2.6-2.6v-3.7l2.6-2.6h3.7l2.6,2.6
			V63.3z M31.5,58.3L30.1,57h1.3V58.3z M32.4,62.4v-1.9l1,1L32.4,62.4z"/>
		<path class="st1" d="M14,35.7c0,0.5,0.4,0.8,0.8,0.8h0.5c0.2,0.8,0.9,1.3,1.8,1.3c0.8,0,1.5-0.6,1.8-1.3h0.5
			c0.5,0,0.8-0.4,0.8-0.8v-1.3h-0.9v1.2H18l0,0.4c0,0.5-0.4,0.9-0.9,0.9c-0.5,0-0.9-0.4-0.9-0.9l0-0.4h-1.2v-1.2H14V35.7z"/>
		<path class="st1" d="M20.1,68.8v-1.3c0-0.5-0.4-0.8-0.8-0.8h-0.5c-0.2-0.8-0.9-1.3-1.8-1.3c-0.8,0-1.5,0.6-1.8,1.3h-0.5
			c-0.5,0-0.8,0.4-0.8,0.8v1.3h0.9v-1.2h1.2l0-0.4c0-0.5,0.4-0.9,0.9-0.9c0.5,0,0.9,0.4,0.9,0.9l0,0.4h1.2v1.2H20.1z"/>
		<path class="st1" d="M2.1,53.8v-0.5c0.8-0.2,1.3-0.9,1.3-1.8c0-0.8-0.6-1.5-1.3-1.8v-0.5c0-0.5-0.4-0.8-0.8-0.8H0v0.9h1.2v1.2
			l0.4,0c0.5,0,0.9,0.4,0.9,0.9c0,0.5-0.4,0.9-0.9,0.9l-0.4,0v1.2H0v0.9h1.3C1.8,54.7,2.1,54.3,2.1,53.8z"/>
		<path class="st1" d="M135.6,24.8v-2.7c0-0.2-0.2-0.4-0.4-0.4h-2.7l-1.9-1.9l0.2-0.3h1.8c0.2,0,0.3-0.1,0.4-0.2
			c0.1-0.1,0.1-0.3,0-0.4l-0.9-1.6l0.9-1.6c0.1-0.1,0.1-0.3,0-0.4c-0.1-0.1-0.2-0.2-0.4-0.2h-1.8l-0.2-0.3l1.9-1.9h2.7
			c0.2,0,0.4-0.2,0.4-0.4V9.6l1.9-1.9c0.1-0.1,0.1-0.2,0.1-0.3c0-0.1,0-0.2-0.1-0.3l-1.9-1.9V2.5c0-0.2-0.2-0.4-0.4-0.4h-2.7
			l-1.9-1.9C130.5,0,130.4,0,130.2,0c-0.1,0-0.2,0-0.3,0.1L128,2h-2.7c-0.2,0-0.4,0.2-0.4,0.4v2.7L123,7l-0.3-0.2V5
			c0-0.2-0.1-0.3-0.2-0.4c-0.1-0.1-0.3-0.1-0.4,0l-1.6,0.9l-1.6-0.9c-0.1-0.1-0.3-0.1-0.4,0c-0.1,0.1-0.2,0.2-0.2,0.4v1.8L117.8,7
			L116,5.2V2.5c0-0.2-0.2-0.4-0.4-0.4h-2.7l-1.9-1.9C110.9,0,110.7,0,110.6,0c-0.1,0-0.2,0-0.3,0.1L108.4,2h-2.7
			c-0.2,0-0.4,0.2-0.4,0.4v2.7l-1.9,1.9c-0.1,0.1-0.1,0.2-0.1,0.3c0,0.1,0,0.2,0.1,0.3l1.9,1.9v2.7c0,0.2,0.2,0.4,0.4,0.4h2.7
			l1.9,1.9l-0.2,0.3h-1.8c-0.2,0-0.3,0.1-0.4,0.2c-0.1,0.1-0.1,0.3,0,0.4l0.9,1.6l-0.9,1.6c-0.1,0.1-0.1,0.3,0,0.4
			c0.1,0.1,0.2,0.2,0.4,0.2h1.8l0.2,0.3l-1.9,1.9h-2.7c-0.2,0-0.4,0.2-0.4,0.4v2.7l-1.9,1.9c-0.1,0.1-0.1,0.2-0.1,0.3
			c0,0.1,0,0.2,0.1,0.3l1.9,1.9v2.7c0,0.2,0.2,0.4,0.4,0.4h2.7l1.9,1.9c0.1,0.1,0.2,0.1,0.3,0.1c0.1,0,0.2,0,0.3-0.1l1.9-1.9h2.7
			c0.2,0,0.4-0.2,0.4-0.4v-2.7l1.9-1.9l0.3,0.2v1.8c0,0.2,0.1,0.3,0.2,0.4c0.1,0.1,0.3,0.1,0.4,0l1.6-0.9l1.6,0.9
			c0.1,0,0.1,0.1,0.2,0.1c0.1,0,0.2,0,0.2-0.1c0.1-0.1,0.2-0.2,0.2-0.4v-1.8l0.3-0.2l1.9,1.9v2.7c0,0.2,0.2,0.4,0.4,0.4h2.7l1.9,1.9
			c0.1,0.1,0.2,0.1,0.3,0.1c0.1,0,0.2,0,0.3-0.1l1.9-1.9h2.7c0.2,0,0.4-0.2,0.4-0.4v-2.7l1.9-1.9c0.1-0.1,0.1-0.2,0.1-0.3
			c0-0.1,0-0.2-0.1-0.3L135.6,24.8z M135.6,6.4l1,1l-1,1V6.4z M105.3,8.3l-1-1l1-1V8.3z M105.3,28l-1-1l1-1V28z M110.6,1.1l1,1h-1.9
			L110.6,1.1z M106.2,2.9h1.3l-1.3,1.3V2.9z M106.2,11.9v-1.3l1.3,1.3H106.2z M109.7,12.8h1.9l-0.4,0.4c-0.1,0-0.1,0.1-0.1,0.1
			l-0.4,0.4L109.7,12.8z M109,18.6l0.7-1.1c0.1-0.1,0.1-0.3,0-0.4l-0.7-1.1h1.3c0.2,0,0.3-0.1,0.4-0.2l0.7-1.1l0.7,1.1
			c0.1,0.1,0.2,0.2,0.4,0.2h1.3l-0.7,1.1c-0.1,0.1-0.1,0.3,0,0.4l0.7,1.1h-1.3c-0.2,0-0.3,0.1-0.4,0.2l-0.7,1.1l-0.7-1.1
			c-0.1-0.1-0.2-0.2-0.4-0.2H109z M114.1,17.2l1-1v1.9L114.1,17.2z M115.1,19.4v2.2h-2.2l-0.9-0.9l0.7-1.3h1.8
			c0.2,0,0.3-0.1,0.4-0.2L115.1,19.4z M114.9,15.2c-0.1-0.1-0.2-0.2-0.4-0.2h-1.8l-0.7-1.3l0.9-0.9h2.2V15L114.9,15.2z M110.6,20.7
			l1,1h-1.9L110.6,20.7z M106.2,22.6h1.3l-1.3,1.3V22.6z M106.2,31.5v-1.3l1.3,1.3H106.2z M110.6,33.3l-1-1h1.9L110.6,33.3z
			 M115.1,31.5h-1.3l1.3-1.3V31.5z M115.1,28.9l-2.6,2.6h-3.7l-2.6-2.6v-3.7l2.6-2.6h3.7l2.6,2.6V28.9z M115.1,23.9l-1.3-1.3h1.3
			V23.9z M115.1,11.9h-1.3l1.3-1.3V11.9z M115.1,9.2l-2.6,2.6h-3.7l-2.6-2.6V5.5l2.6-2.6h3.7l2.6,2.6V9.2z M115.1,4.3l-1.3-1.3h1.3
			V4.3z M118.8,7.5c0.1-0.1,0.2-0.2,0.2-0.4V5.8l1.1,0.7c0.1,0.1,0.3,0.1,0.4,0l1.1-0.7v1.3c0,0.2,0.1,0.3,0.2,0.4l1.1,0.7L122,8.8
			c-0.1,0.1-0.2,0.2-0.2,0.4v1.3l-1.1-0.7c-0.1,0-0.1-0.1-0.2-0.1s-0.2,0-0.2,0.1l-1.1,0.7V9.2c0-0.2-0.1-0.3-0.2-0.4l-1.1-0.7
			L118.8,7.5z M121.4,11.8h-1.9l1-1L121.4,11.8z M116,6.4l1,1l-0.4,0.4l0,0c-0.1,0-0.1,0.1-0.2,0.2L116,8.3V6.4z M116,9.6l0.9-0.9
			l1.3,0.7v1.8c0,0.2,0.1,0.3,0.2,0.4l-0.2,0.2H116V9.6z M116,12.7h1.3l-1.3,1.3V12.7z M116,21.7v-1.3l1.3,1.3H116z M118.2,22.6
			l0.2,0.2c-0.1,0.1-0.2,0.2-0.2,0.4v1.8l-1.3,0.7l-0.9-0.9v-2.2H118.2z M116,28v-1.9l1,1L116,28z M122,26.9
			c-0.1,0.1-0.2,0.2-0.2,0.4v1.3l-1.1-0.7c-0.1,0-0.1-0.1-0.2-0.1c-0.1,0-0.2,0-0.2,0.1l-1.1,0.7v-1.3c0-0.2-0.1-0.3-0.2-0.4
			l-1.1-0.7l1.1-0.7c0.1-0.1,0.2-0.2,0.2-0.4v-1.3l1.1,0.7c0.1,0.1,0.3,0.1,0.4,0l1.1-0.7v1.3c0,0.2,0.1,0.3,0.2,0.4l1.1,0.7
			L122,26.9z M119.5,22.6h1.9l-1,1L119.5,22.6z M124.9,28l-1-1l1-1V28z M124.9,24.8l-0.9,0.9l-1.3-0.8v-1.8c0-0.2-0.1-0.3-0.2-0.4
			l0.2-0.2h2.2V24.8z M124.9,21.7h-1.3l1.3-1.3V21.7z M124.9,19l-2.6,2.6h-3.7L116,19v-3.7l2.6-2.6h3.7l2.6,2.6V19z M124.9,14.1
			l-1.3-1.3h1.3V14.1z M124.9,11.8h-2.2l-0.2-0.2c0.1-0.1,0.2-0.2,0.2-0.4V9.4l1.3-0.7l0.9,0.9V11.8z M124.9,8.3l-1-1l1-1V8.3z
			 M131.2,21.7h-1.9l1-1L131.2,21.7z M131.8,15.8l-0.7,1.1c-0.1,0.1-0.1,0.3,0,0.4l0.7,1.1h-1.3c-0.2,0-0.3,0.1-0.4,0.2l-0.7,1.1
			l-0.7-1.1c-0.1-0.1-0.2-0.2-0.4-0.2h-1.3l0.7-1.1c0.1-0.1,0.1-0.3,0-0.4l-0.7-1.1h1.3c0.2,0,0.3-0.1,0.4-0.2l0.7-1.1l0.7,1.1
			c0.1,0.1,0.2,0.2,0.4,0.2H131.8z M130.2,13.7l-1-1h1.9L130.2,13.7z M134.7,11.9h-1.3l1.3-1.3V11.9z M134.7,2.9v1.3l-1.3-1.3H134.7
			z M130.2,1.1l1,1h-1.9L130.2,1.1z M125.8,2.9h1.3l-1.3,1.3V2.9z M125.8,5.5l2.6-2.6h3.7l2.6,2.6v3.7l-2.6,2.6h-3.7l-2.6-2.6V5.5z
			 M125.8,10.5l1.3,1.3h-1.3V10.5z M125.8,12.8h2.2l0.9,0.9l-0.7,1.3h-1.8c-0.2,0-0.3,0.1-0.4,0.2l-0.2-0.2V12.8z M125.8,16.2l1,1
			l-1,1V16.2z M125.8,19.4l0.2-0.2c0.1,0.1,0.2,0.2,0.4,0.2h1.8l0.8,1.3l-0.9,0.9h-2.2V19.4z M125.8,22.6h1.3l-1.3,1.3V22.6z
			 M125.8,31.5v-1.3l1.3,1.3H125.8z M130.2,33.3l-1-1h1.9L130.2,33.3z M134.7,31.5h-1.3l1.3-1.3V31.5z M134.7,28.9l-2.6,2.6h-3.7
			l-2.6-2.6v-3.7l2.6-2.6h3.7l2.6,2.6V28.9z M134.7,23.9l-1.3-1.3h1.3V23.9z M135.6,28v-1.9l1,1L135.6,28z"/>
		<path class="st1" d="M118.1,2.1h0.5c0.2,0.8,0.9,1.3,1.8,1.3c0.8,0,1.5-0.6,1.8-1.3h0.5c0.5,0,0.8-0.4,0.8-0.8V0h-0.9v1.2h-1.2
			l0,0.4c0,0.5-0.4,0.9-0.9,0.9s-0.9-0.4-0.9-0.9l0-0.4h-1.2V0h-0.9v1.3C117.2,1.8,117.6,2.1,118.1,2.1z"/>
		<path class="st1" d="M123.3,34.4v-1.3c0-0.5-0.4-0.8-0.8-0.8H122c-0.2-0.8-0.9-1.3-1.8-1.3c-0.8,0-1.5,0.6-1.8,1.3h-0.5
			c-0.5,0-0.8,0.4-0.8,0.8v1.3h0.9v-1.2h1.2l0-0.4c0-0.5,0.4-0.9,0.9-0.9s0.9,0.4,0.9,0.9l0,0.4h1.2v1.2H123.3z"/>
		<path class="st1" d="M105.4,19.4V19c0.8-0.2,1.3-0.9,1.3-1.8c0-0.8-0.6-1.5-1.3-1.8V15c0-0.5-0.4-0.8-0.8-0.8h-1.3h-1.3
			c-0.5,0-0.8,0.4-0.8,0.8v0.5c-0.8,0.2-1.3,0.9-1.3,1.8c0,0.8,0.6,1.5,1.3,1.8v0.5c0,0.5,0.4,0.8,0.8,0.8h1.3h1.3
			C105,20.3,105.4,19.9,105.4,19.4z M104.5,19.4h-1.2H102v-1.2l-0.4,0c-0.5,0-0.9-0.4-0.9-0.9c0-0.5,0.4-0.9,0.9-0.9l0.4,0v-1.2h1.2
			h1.2v1.2l0.4,0c0.5,0,0.9,0.4,0.9,0.9c0,0.5-0.4,0.9-0.9,0.9l-0.4,0V19.4z"/>
		<path class="st1" d="M135.5,15v0.5c-0.8,0.2-1.3,0.9-1.3,1.8c0,0.8,0.6,1.5,1.3,1.8v0.5c0,0.5,0.4,0.8,0.8,0.8h1.3v-0.9h-1.2v-1.2
			l-0.4,0c-0.5,0-0.9-0.4-0.9-0.9c0-0.5,0.4-0.9,0.9-0.9l0.4,0v-1.2h1.2v-0.9h-1.3C135.9,14.2,135.5,14.5,135.5,15z"/>
		<path class="st1" d="M135.6,39.6v-2.7c0-0.2-0.2-0.4-0.4-0.4h-2.7l-1.9-1.9c-0.1-0.1-0.2-0.1-0.3-0.1c-0.1,0-0.2,0-0.3,0.1
			l-1.9,1.9h-2.7c-0.2,0-0.4,0.2-0.4,0.4v2.7l-1.9,1.9l-0.3-0.2v-1.8c0-0.2-0.1-0.3-0.2-0.4c-0.1-0.1-0.3-0.1-0.4,0l-1.6,0.9
			l-1.6-0.9c-0.1-0.1-0.3-0.1-0.4,0c-0.1,0.1-0.2,0.2-0.2,0.4v1.8l-0.3,0.2l-1.8-1.8v-2.7c0-0.2-0.2-0.4-0.4-0.4h-2.7l-1.9-1.9
			c-0.1-0.1-0.2-0.1-0.3-0.1c-0.1,0-0.2,0-0.3,0.1l-1.9,1.9h-2.7c-0.2,0-0.4,0.2-0.4,0.4v2.7l-1.9,1.9c-0.1,0.1-0.1,0.2-0.1,0.3
			c0,0.1,0,0.2,0.1,0.3l1.9,1.9v2.7c0,0.2,0.2,0.4,0.4,0.4h2.7l1.9,1.9l-0.2,0.3h-1.8c-0.2,0-0.3,0.1-0.4,0.2
			c-0.1,0.1-0.1,0.3,0,0.4l0.9,1.6l-0.9,1.6c-0.1,0.1-0.1,0.3,0,0.4c0.1,0.1,0.2,0.2,0.4,0.2h1.8l0.2,0.3l-1.9,1.9h-2.7
			c-0.2,0-0.4,0.2-0.4,0.4v2.7l-1.9,1.9c-0.1,0.1-0.1,0.2-0.1,0.3c0,0.1,0,0.2,0.1,0.3l1.9,1.9v2.7c0,0.2,0.2,0.4,0.4,0.4h2.7
			l1.9,1.9c0.1,0.1,0.2,0.1,0.3,0.1c0.1,0,0.2,0,0.3-0.1l1.9-1.9h2.7c0.2,0,0.4-0.2,0.4-0.4v-2.7l1.9-1.9l0.3,0.2v1.8
			c0,0.2,0.1,0.3,0.2,0.4c0.1,0.1,0.3,0.1,0.4,0l1.6-0.9l1.6,0.9c0.1,0,0.1,0.1,0.2,0.1c0.1,0,0.2,0,0.2-0.1
			c0.1-0.1,0.2-0.2,0.2-0.4V62l0.3-0.2l1.9,1.9v2.7c0,0.2,0.2,0.4,0.4,0.4h2.7l1.9,1.9c0.1,0.1,0.2,0.1,0.3,0.1c0.1,0,0.2,0,0.3-0.1
			l1.9-1.9h2.7c0.2,0,0.4-0.2,0.4-0.4v-2.7l1.9-1.9c0.1-0.1,0.1-0.2,0.1-0.3c0-0.1,0-0.2-0.1-0.3l-1.9-1.9v-2.7
			c0-0.2-0.2-0.4-0.4-0.4h-2.7l-1.9-1.9l0.2-0.3h1.8c0.2,0,0.3-0.1,0.4-0.2c0.1-0.1,0.1-0.3,0-0.4l-0.9-1.6L133,50
			c0.1-0.1,0.1-0.3,0-0.4c-0.1-0.1-0.2-0.2-0.4-0.2h-1.8l-0.2-0.3l1.9-1.9h2.7c0.2,0,0.4-0.2,0.4-0.4V44l1.9-1.9
			c0.1-0.1,0.1-0.2,0.1-0.3c0-0.1,0-0.2-0.1-0.3L135.6,39.6z M105.3,42.8l-1-1l1-1V42.8z M105.3,62.4l-1-1l1-1V62.4z M110.6,35.5
			l1,1h-1.9L110.6,35.5z M106.2,37.3h1.3l-1.3,1.3V37.3z M106.2,46.3v-1.3l1.3,1.3H106.2z M109.7,47.2h1.9l-0.4,0.4
			c-0.1,0-0.1,0.1-0.1,0.1l-0.4,0.4L109.7,47.2z M109,53l0.7-1.1c0.1-0.1,0.1-0.3,0-0.4l-0.7-1.1h1.3c0.2,0,0.3-0.1,0.4-0.2l0.7-1.1
			L112,50c0.1,0.1,0.2,0.2,0.4,0.2h1.3l-0.7,1.1c-0.1,0.1-0.1,0.3,0,0.4l0.7,1.1h-1.3c-0.2,0-0.3,0.1-0.4,0.2l-0.7,1.1l-0.7-1.1
			c-0.1-0.1-0.2-0.2-0.4-0.2H109z M114.1,51.6l1-1v1.9L114.1,51.6z M115.1,53.8v2.2h-2.2l-0.9-0.9l0.7-1.3h1.8
			c0.2,0,0.3-0.1,0.4-0.2L115.1,53.8z M114.9,49.6c-0.1-0.1-0.2-0.2-0.4-0.2h-1.8l-0.7-1.3l0.9-0.9h2.2v2.2L114.9,49.6z M110.6,55.1
			l1,1h-1.9L110.6,55.1z M106.2,57h1.3l-1.3,1.3V57z M106.2,65.9v-1.3l1.3,1.3H106.2z M110.6,67.7l-1-1h1.9L110.6,67.7z M115.1,65.9
			h-1.3l1.3-1.3V65.9z M115.1,63.3l-2.6,2.6h-3.7l-2.6-2.6v-3.7l2.6-2.6h3.7l2.6,2.6V63.3z M115.1,58.3l-1.3-1.3h1.3V58.3z
			 M115.1,46.3h-1.3l1.3-1.3V46.3z M115.1,43.7l-2.6,2.6h-3.7l-2.6-2.6V40l2.6-2.6h3.7l2.6,2.6V43.7z M115.1,38.7l-1.3-1.3h1.3V38.7
			z M118.8,41.9c0.1-0.1,0.2-0.2,0.2-0.4v-1.3l1.1,0.7c0.1,0.1,0.3,0.1,0.4,0l1.1-0.7v1.3c0,0.2,0.1,0.3,0.2,0.4l1.1,0.7l-1.1,0.7
			c-0.1,0.1-0.2,0.2-0.2,0.4v1.3l-1.1-0.7c-0.1,0-0.1-0.1-0.2-0.1s-0.2,0-0.2,0.1l-1.1,0.7v-1.3c0-0.2-0.1-0.3-0.2-0.4l-1.1-0.7
			L118.8,41.9z M121.4,46.2h-1.9l1-1L121.4,46.2z M116,40.9l1,1l-0.4,0.4l0,0c-0.1,0-0.1,0.1-0.2,0.2l-0.4,0.4V40.9z M116,44
			l0.9-0.9l1.3,0.7v1.8c0,0.2,0.1,0.3,0.2,0.4l-0.2,0.2H116V44z M116,47.1h1.3l-1.3,1.3V47.1z M116,56.1v-1.3l1.3,1.3H116z
			 M118.2,57l0.2,0.2c-0.1,0.1-0.2,0.2-0.2,0.4v1.8l-1.3,0.7l-0.9-0.9V57H118.2z M116,62.4v-1.9l1,1L116,62.4z M122,61.3
			c-0.1,0.1-0.2,0.2-0.2,0.4V63l-1.1-0.7c-0.1,0-0.1-0.1-0.2-0.1c-0.1,0-0.2,0-0.2,0.1l-1.1,0.7v-1.3c0-0.2-0.1-0.3-0.2-0.4
			l-1.1-0.7l1.1-0.7c0.1-0.1,0.2-0.2,0.2-0.4v-1.3l1.1,0.7c0.1,0.1,0.3,0.1,0.4,0l1.1-0.7v1.3c0,0.2,0.1,0.3,0.2,0.4l1.1,0.7
			L122,61.3z M119.5,57h1.9l-1,1L119.5,57z M124.9,62.4l-1-1l1-1V62.4z M124.9,59.2l-0.9,0.9l-1.3-0.8v-1.8c0-0.2-0.1-0.3-0.2-0.4
			l0.2-0.2h2.2V59.2z M124.9,56.1h-1.3l1.3-1.3V56.1z M124.9,53.5l-2.6,2.6h-3.7l-2.6-2.6v-3.7l2.6-2.6h3.7l2.6,2.6V53.5z
			 M124.9,48.5l-1.3-1.3h1.3V48.5z M124.9,46.2h-2.2l-0.2-0.2c0.1-0.1,0.2-0.2,0.2-0.4v-1.8l1.3-0.7l0.9,0.9V46.2z M124.9,42.8l-1-1
			l1-1V42.8z M135.6,60.5l1,1l-1,1V60.5z M130.2,35.5l1,1h-1.9L130.2,35.5z M125.8,37.3h1.3l-1.3,1.3V37.3z M125.8,44.9l1.3,1.3
			h-1.3V44.9z M125.8,47.2h2.2l0.9,0.9l-0.7,1.3h-1.8c-0.2,0-0.3,0.1-0.4,0.2l-0.2-0.2V47.2z M125.8,50.7l1,1l-1,1V50.7z
			 M125.8,53.8l0.2-0.2c0.1,0.1,0.2,0.2,0.4,0.2h1.8l0.8,1.3l-0.9,0.9h-2.2V53.8z M125.8,57h1.3l-1.3,1.3V57z M125.8,65.9v-1.3
			l1.3,1.3H125.8z M130.2,67.7l-1-1h1.9L130.2,67.7z M134.7,65.9h-1.3l1.3-1.3V65.9z M134.7,57v1.3l-1.3-1.3H134.7z M134.7,59.6v3.7
			l-2.6,2.6h-3.7l-2.6-2.6v-3.7l2.6-2.6h3.7L134.7,59.6z M131.2,56.1h-1.9l1-1L131.2,56.1z M131.8,50.2l-0.7,1.1
			c-0.1,0.1-0.1,0.3,0,0.4l0.7,1.1h-1.3c-0.2,0-0.3,0.1-0.4,0.2l-0.7,1.1l-0.7-1.1c-0.1-0.1-0.2-0.2-0.4-0.2h-1.3l0.7-1.1
			c0.1-0.1,0.1-0.3,0-0.4l-0.7-1.1h1.3c0.2,0,0.3-0.1,0.4-0.2l0.7-1.1l0.7,1.1c0.1,0.1,0.2,0.2,0.4,0.2H131.8z M130.2,48.1l-1-1h1.9
			L130.2,48.1z M134.7,46.3h-1.3l1.3-1.3V46.3z M134.7,43.7l-2.6,2.6h-3.7l-2.6-2.6V40l2.6-2.6h3.7l2.6,2.6V43.7z M134.7,38.7
			l-1.3-1.3h1.3V38.7z M135.6,42.8v-1.9l1,1L135.6,42.8z"/>
		<path class="st1" d="M117.2,35.7c0,0.5,0.4,0.8,0.8,0.8h0.5c0.2,0.8,0.9,1.3,1.8,1.3c0.8,0,1.5-0.6,1.8-1.3h0.5
			c0.5,0,0.8-0.4,0.8-0.8v-1.3h-0.9v1.2h-1.2l0,0.4c0,0.5-0.4,0.9-0.9,0.9s-0.9-0.4-0.9-0.9l0-0.4h-1.2v-1.2h-0.9V35.7z"/>
		<path class="st1" d="M123.3,68.8v-1.3c0-0.5-0.4-0.8-0.8-0.8H122c-0.2-0.8-0.9-1.3-1.8-1.3c-0.8,0-1.5,0.6-1.8,1.3h-0.5
			c-0.5,0-0.8,0.4-0.8,0.8v1.3h0.9v-1.2h1.2l0-0.4c0-0.5,0.4-0.9,0.9-0.9s0.9,0.4,0.9,0.9l0,0.4h1.2v1.2H123.3z"/>
		<path class="st1" d="M105.4,53.8v-0.5c0.8-0.2,1.3-0.9,1.3-1.8c0-0.8-0.6-1.5-1.3-1.8v-0.5c0-0.5-0.4-0.8-0.8-0.8h-1.3h-1.3
			c-0.5,0-0.8,0.4-0.8,0.8v0.5c-0.8,0.2-1.3,0.9-1.3,1.8c0,0.8,0.6,1.5,1.3,1.8v0.5c0,0.5,0.4,0.8,0.8,0.8h1.3h1.3
			C105,54.7,105.4,54.3,105.4,53.8z M104.5,53.8h-1.2H102v-1.2l-0.4,0c-0.5,0-0.9-0.4-0.9-0.9c0-0.5,0.4-0.9,0.9-0.9l0.4,0v-1.2h1.2
			h1.2v1.2l0.4,0c0.5,0,0.9,0.4,0.9,0.9c0,0.5-0.4,0.9-0.9,0.9l-0.4,0V53.8z"/>
		<path class="st1" d="M135.5,49.4v0.5c-0.8,0.2-1.3,0.9-1.3,1.8c0,0.8,0.6,1.5,1.3,1.8v0.5c0,0.5,0.4,0.8,0.8,0.8h1.3v-0.9h-1.2
			v-1.2l-0.4,0c-0.5,0-0.9-0.4-0.9-0.9c0-0.5,0.4-0.9,0.9-0.9l0.4,0v-1.2h1.2v-0.9h-1.3C135.9,48.6,135.5,48.9,135.5,49.4z"/>
		<path class="st1" d="M101.2,24.8v-2.7c0-0.2-0.2-0.4-0.4-0.4h-2.7l-1.9-1.9l0.2-0.3h1.8c0.2,0,0.3-0.1,0.4-0.2
			c0.1-0.1,0.1-0.3,0-0.4l-0.9-1.6l0.9-1.6c0.1-0.1,0.1-0.3,0-0.4c-0.1-0.1-0.2-0.2-0.4-0.2h-1.8l-0.2-0.3l1.9-1.9h2.7
			c0.2,0,0.4-0.2,0.4-0.4V9.6l1.9-1.9c0.1-0.1,0.1-0.2,0.1-0.3c0-0.1,0-0.2-0.1-0.3l-1.9-1.9V2.5c0-0.2-0.2-0.4-0.4-0.4h-2.7
			l-1.9-1.9C96.1,0,96,0,95.8,0s-0.2,0-0.3,0.1L93.6,2h-2.7c-0.2,0-0.4,0.2-0.4,0.4v2.7L88.6,7l-0.3-0.2V5c0-0.2-0.1-0.3-0.2-0.4
			c-0.1-0.1-0.3-0.1-0.4,0L86,5.5l-1.6-0.9c-0.1-0.1-0.3-0.1-0.4,0c-0.1,0.1-0.2,0.2-0.2,0.4v1.8L83.4,7l-1.8-1.8V2.5
			c0-0.2-0.2-0.4-0.4-0.4h-2.7l-1.9-1.9C76.5,0,76.3,0,76.2,0c-0.1,0-0.2,0-0.3,0.1L74,2h-2.7c-0.2,0-0.4,0.2-0.4,0.4v2.7L69,7.1
			c-0.1,0.1-0.1,0.2-0.1,0.3c0,0.1,0,0.2,0.1,0.3l1.9,1.9v2.7c0,0.2,0.2,0.4,0.4,0.4H74l1.9,1.9l-0.2,0.3h-1.8
			c-0.2,0-0.3,0.1-0.4,0.2c-0.1,0.1-0.1,0.3,0,0.4l0.9,1.6l-0.9,1.6c-0.1,0.1-0.1,0.3,0,0.4c0.1,0.1,0.2,0.2,0.4,0.2h1.8l0.2,0.3
			L74,21.7h-2.7c-0.2,0-0.4,0.2-0.4,0.4v2.7L69,26.7c-0.1,0.1-0.1,0.2-0.1,0.3c0,0.1,0,0.2,0.1,0.3l1.9,1.9v2.7
			c0,0.2,0.2,0.4,0.4,0.4H74l1.9,1.9c0.1,0.1,0.2,0.1,0.3,0.1c0.1,0,0.2,0,0.3-0.1l1.9-1.9h2.7c0.2,0,0.4-0.2,0.4-0.4v-2.7l1.9-1.9
			l0.3,0.2v1.8c0,0.2,0.1,0.3,0.2,0.4c0.1,0.1,0.3,0.1,0.4,0l1.6-0.9l1.6,0.9c0.1,0,0.1,0.1,0.2,0.1s0.2,0,0.2-0.1
			c0.1-0.1,0.2-0.2,0.2-0.4v-1.8l0.3-0.2l1.9,1.9v2.7c0,0.2,0.2,0.4,0.4,0.4h2.7l1.9,1.9c0.1,0.1,0.2,0.1,0.3,0.1
			c0.1,0,0.2,0,0.3-0.1l1.9-1.9h2.7c0.2,0,0.4-0.2,0.4-0.4v-2.7l1.9-1.9c0.1-0.1,0.1-0.2,0.1-0.3c0-0.1,0-0.2-0.1-0.3L101.2,24.8z
			 M101.2,6.4l1,1l-1,1V6.4z M70.9,8.3l-1-1l1-1V8.3z M70.9,28l-1-1l1-1V28z M76.2,1.1l1,1h-1.9L76.2,1.1z M71.8,2.9h1.3l-1.3,1.3
			V2.9z M71.8,11.9v-1.3l1.3,1.3H71.8z M75.3,12.8h1.9l-0.4,0.4c-0.1,0-0.1,0.1-0.1,0.1l-0.4,0.4L75.3,12.8z M74.6,18.6l0.7-1.1
			c0.1-0.1,0.1-0.3,0-0.4l-0.7-1.1h1.3c0.2,0,0.3-0.1,0.4-0.2l0.7-1.1l0.7,1.1c0.1,0.1,0.2,0.2,0.4,0.2h1.3L78.7,17
			c-0.1,0.1-0.1,0.3,0,0.4l0.7,1.1H78c-0.2,0-0.3,0.1-0.4,0.2L77,19.9l-0.7-1.1c-0.1-0.1-0.2-0.2-0.4-0.2H74.6z M79.7,17.2l1-1v1.9
			L79.7,17.2z M80.7,19.4v2.2h-2.2l-0.9-0.9l0.7-1.3h1.8c0.2,0,0.3-0.1,0.4-0.2L80.7,19.4z M80.5,15.2c-0.1-0.1-0.2-0.2-0.4-0.2
			h-1.8l-0.7-1.3l0.9-0.9h2.2V15L80.5,15.2z M76.2,20.7l1,1h-1.9L76.2,20.7z M71.8,22.6h1.3l-1.3,1.3V22.6z M71.8,31.5v-1.3l1.3,1.3
			H71.8z M76.2,33.3l-1-1h1.9L76.2,33.3z M80.7,31.5h-1.3l1.3-1.3V31.5z M80.7,28.9l-2.6,2.6h-3.7l-2.6-2.6v-3.7l2.6-2.6h3.7
			l2.6,2.6V28.9z M80.7,23.9l-1.3-1.3h1.3V23.9z M80.7,11.9h-1.3l1.3-1.3V11.9z M80.7,9.2l-2.6,2.6h-3.7l-2.6-2.6V5.5l2.6-2.6h3.7
			l2.6,2.6V9.2z M80.7,4.3l-1.3-1.3h1.3V4.3z M84.4,7.5c0.1-0.1,0.2-0.2,0.2-0.4V5.8l1.1,0.7c0.1,0.1,0.3,0.1,0.4,0l1.1-0.7v1.3
			c0,0.2,0.1,0.3,0.2,0.4l1.1,0.7l-1.1,0.7c-0.1,0.1-0.2,0.2-0.2,0.4v1.3l-1.1-0.7c-0.1,0-0.1-0.1-0.2-0.1c-0.1,0-0.2,0-0.2,0.1
			l-1.1,0.7V9.2c0-0.2-0.1-0.3-0.2-0.4l-1.1-0.7L84.4,7.5z M87,11.8h-1.9l1-1L87,11.8z M81.6,6.4l1,1l-0.4,0.4l0,0
			c-0.1,0-0.1,0.1-0.2,0.2l-0.4,0.4V6.4z M81.6,9.6l0.9-0.9l1.3,0.7v1.8c0,0.2,0.1,0.3,0.2,0.4l-0.2,0.2h-2.2V9.6z M81.5,12.7h1.3
			l-1.3,1.3V12.7z M81.5,21.7v-1.3l1.3,1.3H81.5z M83.8,22.6l0.2,0.2c-0.1,0.1-0.2,0.2-0.2,0.4v1.8l-1.3,0.7l-0.9-0.9v-2.2H83.8z
			 M81.6,28v-1.9l1,1L81.6,28z M87.6,26.9c-0.1,0.1-0.2,0.2-0.2,0.4v1.3l-1.1-0.7c-0.1,0-0.1-0.1-0.2-0.1c-0.1,0-0.2,0-0.2,0.1
			l-1.1,0.7v-1.3c0-0.2-0.1-0.3-0.2-0.4l-1.1-0.7l1.1-0.7c0.1-0.1,0.2-0.2,0.2-0.4v-1.3l1.1,0.7c0.1,0.1,0.3,0.1,0.4,0l1.1-0.7v1.3
			c0,0.2,0.1,0.3,0.2,0.4l1.1,0.7L87.6,26.9z M85.1,22.6H87l-1,1L85.1,22.6z M90.5,28l-1-1l1-1V28z M90.5,24.8l-0.9,0.9l-1.3-0.8
			v-1.8c0-0.2-0.1-0.3-0.2-0.4l0.2-0.2h2.2V24.8z M90.5,21.7h-1.3l1.3-1.3V21.7z M90.5,19l-2.6,2.6h-3.7L81.5,19v-3.7l2.6-2.6h3.7
			l2.6,2.6V19z M90.5,14.1l-1.3-1.3h1.3V14.1z M90.5,11.8h-2.2L88,11.6c0.1-0.1,0.2-0.2,0.2-0.4V9.4l1.3-0.7l0.9,0.9V11.8z
			 M90.5,8.3l-1-1l1-1V8.3z M96.8,21.7h-1.9l1-1L96.8,21.7z M97.4,15.8L96.8,17c-0.1,0.1-0.1,0.3,0,0.4l0.7,1.1h-1.3
			c-0.2,0-0.3,0.1-0.4,0.2l-0.7,1.1l-0.7-1.1c-0.1-0.1-0.2-0.2-0.4-0.2h-1.3l0.7-1.1c0.1-0.1,0.1-0.3,0-0.4l-0.7-1.1H94
			c0.2,0,0.3-0.1,0.4-0.2l0.7-1.1l0.7,1.1c0.1,0.1,0.2,0.2,0.4,0.2H97.4z M95.8,13.7l-1-1h1.9L95.8,13.7z M100.3,11.9H99l1.3-1.3
			V11.9z M100.3,2.9v1.3L99,2.9H100.3z M95.8,1.1l1,1h-1.9L95.8,1.1z M91.4,2.9h1.3l-1.3,1.3V2.9z M91.4,5.5L94,2.9h3.7l2.6,2.6v3.7
			l-2.6,2.6H94l-2.6-2.6V5.5z M91.4,10.5l1.3,1.3h-1.3V10.5z M91.4,12.8h2.2l0.9,0.9l-0.7,1.3h-1.8c-0.2,0-0.3,0.1-0.4,0.2L91.4,15
			V12.8z M91.4,16.2l1,1l-1,1V16.2z M91.4,19.4l0.2-0.2c0.1,0.1,0.2,0.2,0.4,0.2h1.8l0.8,1.3l-0.9,0.9h-2.2V19.4z M91.4,22.6h1.3
			l-1.3,1.3V22.6z M91.4,31.5v-1.3l1.3,1.3H91.4z M95.8,33.3l-1-1h1.9L95.8,33.3z M100.3,31.5H99l1.3-1.3V31.5z M100.3,28.9
			l-2.6,2.6H94l-2.6-2.6v-3.7l2.6-2.6h3.7l2.6,2.6V28.9z M100.3,23.9L99,22.6h1.3V23.9z M101.2,28v-1.9l1,1L101.2,28z"/>
		<path class="st1" d="M83.7,2.1h0.5c0.2,0.8,0.9,1.3,1.8,1.3c0.8,0,1.5-0.6,1.8-1.3h0.5c0.5,0,0.8-0.4,0.8-0.8V0H88v1.2h-1.2l0,0.4
			c0,0.5-0.4,0.9-0.9,0.9c-0.5,0-0.9-0.4-0.9-0.9l0-0.4h-1.2V0h-0.9v1.3C82.8,1.8,83.2,2.1,83.7,2.1z"/>
		<path class="st1" d="M88.9,34.4v-1.3c0-0.5-0.4-0.8-0.8-0.8h-0.5c-0.2-0.8-0.9-1.3-1.8-1.3c-0.8,0-1.5,0.6-1.8,1.3h-0.5
			c-0.5,0-0.8,0.4-0.8,0.8v1.3h0.9v-1.2h1.2l0-0.4c0-0.5,0.4-0.9,0.9-0.9c0.5,0,0.9,0.4,0.9,0.9l0,0.4H88v1.2H88.9z"/>
		<path class="st1" d="M71,19.4V19c0.8-0.2,1.3-0.9,1.3-1.8c0-0.8-0.6-1.5-1.3-1.8V15c0-0.5-0.4-0.8-0.8-0.8h-1.3h-1.3
			c-0.5,0-0.8,0.4-0.8,0.8v0.5c-0.8,0.2-1.3,0.9-1.3,1.8c0,0.8,0.6,1.5,1.3,1.8v0.5c0,0.5,0.4,0.8,0.8,0.8h1.3h1.3
			C70.6,20.3,71,19.9,71,19.4z M70.1,19.4h-1.2h-1.2v-1.2l-0.4,0c-0.5,0-0.9-0.4-0.9-0.9c0-0.5,0.4-0.9,0.9-0.9l0.4,0v-1.2h1.2h1.2
			v1.2l0.4,0c0.5,0,0.9,0.4,0.9,0.9c0,0.5-0.4,0.9-0.9,0.9l-0.4,0V19.4z"/>
		<path class="st1" d="M101.2,59.2v-2.7c0-0.2-0.2-0.4-0.4-0.4h-2.7l-1.9-1.9l0.2-0.3h1.8c0.2,0,0.3-0.1,0.4-0.2
			c0.1-0.1,0.1-0.3,0-0.4l-0.9-1.6l0.9-1.6c0.1-0.1,0.1-0.3,0-0.4c-0.1-0.1-0.2-0.2-0.4-0.2h-1.8L96.2,49l1.9-1.9h2.7
			c0.2,0,0.4-0.2,0.4-0.4V44l1.9-1.9c0.1-0.1,0.1-0.2,0.1-0.3c0-0.1,0-0.2-0.1-0.3l-1.9-1.9v-2.7c0-0.2-0.2-0.4-0.4-0.4h-2.7
			l-1.9-1.9c-0.1-0.1-0.2-0.1-0.3-0.1s-0.2,0-0.3,0.1l-1.9,1.9h-2.7c-0.2,0-0.4,0.2-0.4,0.4v2.7l-1.9,1.9l-0.3-0.2v-1.8
			c0-0.2-0.1-0.3-0.2-0.4c-0.1-0.1-0.3-0.1-0.4,0L86,39.9L84.4,39C84.3,39,84.1,39,84,39c-0.1,0.1-0.2,0.2-0.2,0.4v1.8l-0.3,0.2
			l-1.8-1.8v-2.7c0-0.2-0.2-0.4-0.4-0.4h-2.7l-1.9-1.9c-0.1-0.1-0.2-0.1-0.3-0.1c-0.1,0-0.2,0-0.3,0.1L74,36.4h-2.7
			c-0.2,0-0.4,0.2-0.4,0.4v2.7L69,41.5c-0.1,0.1-0.1,0.2-0.1,0.3c0,0.1,0,0.2,0.1,0.3l1.9,1.9v2.7c0,0.2,0.2,0.4,0.4,0.4H74l1.9,1.9
			l-0.2,0.3h-1.8c-0.2,0-0.3,0.1-0.4,0.2c-0.1,0.1-0.1,0.3,0,0.4l0.9,1.6l-0.9,1.6c-0.1,0.1-0.1,0.3,0,0.4c0.1,0.1,0.2,0.2,0.4,0.2
			h1.8l0.2,0.3L74,56.1h-2.7c-0.2,0-0.4,0.2-0.4,0.4v2.7L69,61.1c-0.1,0.1-0.1,0.2-0.1,0.3c0,0.1,0,0.2,0.1,0.3l1.9,1.9v2.7
			c0,0.2,0.2,0.4,0.4,0.4H74l1.9,1.9c0.1,0.1,0.2,0.1,0.3,0.1c0.1,0,0.2,0,0.3-0.1l1.9-1.9h2.7c0.2,0,0.4-0.2,0.4-0.4v-2.7l1.9-1.9
			l0.3,0.2v1.8c0,0.2,0.1,0.3,0.2,0.4c0.1,0.1,0.3,0.1,0.4,0l1.6-0.9l1.6,0.9c0.1,0,0.1,0.1,0.2,0.1s0.2,0,0.2-0.1
			c0.1-0.1,0.2-0.2,0.2-0.4V62l0.3-0.2l1.9,1.9v2.7c0,0.2,0.2,0.4,0.4,0.4h2.7l1.9,1.9c0.1,0.1,0.2,0.1,0.3,0.1c0.1,0,0.2,0,0.3-0.1
			l1.9-1.9h2.7c0.2,0,0.4-0.2,0.4-0.4v-2.7l1.9-1.9c0.1-0.1,0.1-0.2,0.1-0.3c0-0.1,0-0.2-0.1-0.3L101.2,59.2z M101.2,40.9l1,1l-1,1
			V40.9z M70.9,42.8l-1-1l1-1V42.8z M70.9,62.4l-1-1l1-1V62.4z M76.2,35.5l1,1h-1.9L76.2,35.5z M71.8,37.3h1.3l-1.3,1.3V37.3z
			 M71.8,46.3v-1.3l1.3,1.3H71.8z M75.3,47.2h1.9l-0.4,0.4c-0.1,0-0.1,0.1-0.1,0.1l-0.4,0.4L75.3,47.2z M74.6,53l0.7-1.1
			c0.1-0.1,0.1-0.3,0-0.4l-0.7-1.1h1.3c0.2,0,0.3-0.1,0.4-0.2l0.7-1.1l0.7,1.1c0.1,0.1,0.2,0.2,0.4,0.2h1.3l-0.7,1.1
			c-0.1,0.1-0.1,0.3,0,0.4l0.7,1.1H78c-0.2,0-0.3,0.1-0.4,0.2L77,54.3l-0.7-1.1C76.2,53,76.1,53,75.9,53H74.6z M79.7,51.6l1-1v1.9
			L79.7,51.6z M80.7,53.8v2.2h-2.2l-0.9-0.9l0.7-1.3h1.8c0.2,0,0.3-0.1,0.4-0.2L80.7,53.8z M80.5,49.6c-0.1-0.1-0.2-0.2-0.4-0.2
			h-1.8l-0.7-1.3l0.9-0.9h2.2v2.2L80.5,49.6z M76.2,55.1l1,1h-1.9L76.2,55.1z M71.8,57h1.3l-1.3,1.3V57z M71.8,65.9v-1.3l1.3,1.3
			H71.8z M76.2,67.7l-1-1h1.9L76.2,67.7z M80.7,65.9h-1.3l1.3-1.3V65.9z M80.7,63.3l-2.6,2.6h-3.7l-2.6-2.6v-3.7l2.6-2.6h3.7
			l2.6,2.6V63.3z M80.7,58.3L79.3,57h1.3V58.3z M80.7,46.3h-1.3l1.3-1.3V46.3z M80.7,43.7l-2.6,2.6h-3.7l-2.6-2.6V40l2.6-2.6h3.7
			l2.6,2.6V43.7z M80.7,38.7l-1.3-1.3h1.3V38.7z M84.4,41.9c0.1-0.1,0.2-0.2,0.2-0.4v-1.3l1.1,0.7c0.1,0.1,0.3,0.1,0.4,0l1.1-0.7
			v1.3c0,0.2,0.1,0.3,0.2,0.4l1.1,0.7l-1.1,0.7c-0.1,0.1-0.2,0.2-0.2,0.4v1.3l-1.1-0.7c-0.1,0-0.1-0.1-0.2-0.1c-0.1,0-0.2,0-0.2,0.1
			l-1.1,0.7v-1.3c0-0.2-0.1-0.3-0.2-0.4l-1.1-0.7L84.4,41.9z M87,46.2h-1.9l1-1L87,46.2z M81.6,40.9l1,1l-0.4,0.4l0,0
			c-0.1,0-0.1,0.1-0.2,0.2l-0.4,0.4V40.9z M81.6,44l0.9-0.9l1.3,0.7v1.8c0,0.2,0.1,0.3,0.2,0.4l-0.2,0.2h-2.2V44z M81.5,47.1h1.3
			l-1.3,1.3V47.1z M81.5,56.1v-1.3l1.3,1.3H81.5z M83.8,57l0.2,0.2c-0.1,0.1-0.2,0.2-0.2,0.4v1.8l-1.3,0.7l-0.9-0.9V57H83.8z
			 M81.6,62.4v-1.9l1,1L81.6,62.4z M87.6,61.3c-0.1,0.1-0.2,0.2-0.2,0.4V63l-1.1-0.7c-0.1,0-0.1-0.1-0.2-0.1c-0.1,0-0.2,0-0.2,0.1
			L84.7,63v-1.3c0-0.2-0.1-0.3-0.2-0.4l-1.1-0.7l1.1-0.7c0.1-0.1,0.2-0.2,0.2-0.4v-1.3l1.1,0.7c0.1,0.1,0.3,0.1,0.4,0l1.1-0.7v1.3
			c0,0.2,0.1,0.3,0.2,0.4l1.1,0.7L87.6,61.3z M85.1,57H87l-1,1L85.1,57z M90.5,62.4l-1-1l1-1V62.4z M90.5,59.2l-0.9,0.9l-1.3-0.8
			v-1.8c0-0.2-0.1-0.3-0.2-0.4l0.2-0.2h2.2V59.2z M90.5,56.1h-1.3l1.3-1.3V56.1z M90.5,53.5l-2.6,2.6h-3.7l-2.6-2.6v-3.7l2.6-2.6
			h3.7l2.6,2.6V53.5z M90.5,48.5l-1.3-1.3h1.3V48.5z M90.5,46.2h-2.2L88,46.1c0.1-0.1,0.2-0.2,0.2-0.4v-1.8l1.3-0.7l0.9,0.9V46.2z
			 M90.5,42.8l-1-1l1-1V42.8z M96.8,56.1h-1.9l1-1L96.8,56.1z M97.4,50.2l-0.7,1.1c-0.1,0.1-0.1,0.3,0,0.4l0.7,1.1h-1.3
			c-0.2,0-0.3,0.1-0.4,0.2l-0.7,1.1l-0.7-1.1C94.3,53,94.2,53,94,53h-1.3l0.7-1.1c0.1-0.1,0.1-0.3,0-0.4l-0.7-1.1H94
			c0.2,0,0.3-0.1,0.4-0.2l0.7-1.1l0.7,1.1c0.1,0.1,0.2,0.2,0.4,0.2H97.4z M95.8,48.1l-1-1h1.9L95.8,48.1z M100.3,46.3H99l1.3-1.3
			V46.3z M100.3,37.3v1.3L99,37.3H100.3z M95.8,35.5l1,1h-1.9L95.8,35.5z M91.4,37.3h1.3l-1.3,1.3V37.3z M91.4,40l2.6-2.6h3.7
			l2.6,2.6v3.7l-2.6,2.6H94l-2.6-2.6V40z M91.4,44.9l1.3,1.3h-1.3V44.9z M91.4,47.2h2.2l0.9,0.9l-0.7,1.3h-1.8
			c-0.2,0-0.3,0.1-0.4,0.2l-0.2-0.2V47.2z M91.4,50.7l1,1l-1,1V50.7z M91.4,53.8l0.2-0.2c0.1,0.1,0.2,0.2,0.4,0.2h1.8l0.8,1.3
			l-0.9,0.9h-2.2V53.8z M91.4,57h1.3l-1.3,1.3V57z M91.4,65.9v-1.3l1.3,1.3H91.4z M95.8,67.7l-1-1h1.9L95.8,67.7z M100.3,65.9H99
			l1.3-1.3V65.9z M100.3,63.3l-2.6,2.6H94l-2.6-2.6v-3.7L94,57h3.7l2.6,2.6V63.3z M100.3,58.3L99,57h1.3V58.3z M101.2,62.4v-1.9l1,1
			L101.2,62.4z"/>
		<path class="st1" d="M82.8,35.7c0,0.5,0.4,0.8,0.8,0.8h0.5c0.2,0.8,0.9,1.3,1.8,1.3c0.8,0,1.5-0.6,1.8-1.3h0.5
			c0.5,0,0.8-0.4,0.8-0.8v-1.3H88v1.2h-1.2l0,0.4c0,0.5-0.4,0.9-0.9,0.9c-0.5,0-0.9-0.4-0.9-0.9l0-0.4h-1.2v-1.2h-0.9V35.7z"/>
		<path class="st1" d="M88.9,68.8v-1.3c0-0.5-0.4-0.8-0.8-0.8h-0.5c-0.2-0.8-0.9-1.3-1.8-1.3c-0.8,0-1.5,0.6-1.8,1.3h-0.5
			c-0.5,0-0.8,0.4-0.8,0.8v1.3h0.9v-1.2h1.2l0-0.4c0-0.5,0.4-0.9,0.9-0.9c0.5,0,0.9,0.4,0.9,0.9l0,0.4H88v1.2H88.9z"/>
		<path class="st1" d="M71,53.8v-0.5c0.8-0.2,1.3-0.9,1.3-1.8c0-0.8-0.6-1.5-1.3-1.8v-0.5c0-0.5-0.4-0.8-0.8-0.8h-1.3h-1.3
			c-0.5,0-0.8,0.4-0.8,0.8v0.5c-0.8,0.2-1.3,0.9-1.3,1.8c0,0.8,0.6,1.5,1.3,1.8v0.5c0,0.5,0.4,0.8,0.8,0.8h1.3h1.3
			C70.6,54.7,71,54.3,71,53.8z M70.1,53.8h-1.2h-1.2v-1.2l-0.4,0c-0.5,0-0.9-0.4-0.9-0.9c0-0.5,0.4-0.9,0.9-0.9l0.4,0v-1.2h1.2h1.2
			v1.2l0.4,0c0.5,0,0.9,0.4,0.9,0.9c0,0.5-0.4,0.9-0.9,0.9l-0.4,0V53.8z"/>
		<path class="st1" d="M66.8,93.6v-2.7c0-0.2-0.2-0.4-0.4-0.4h-2.7l-1.9-1.9l0.2-0.3h1.8c0.2,0,0.3-0.1,0.4-0.2
			c0.1-0.1,0.1-0.3,0-0.4L63.3,86l0.9-1.6c0.1-0.1,0.1-0.3,0-0.4c-0.1-0.1-0.2-0.2-0.4-0.2H62l-0.2-0.3l1.9-1.9h2.7
			c0.2,0,0.4-0.2,0.4-0.4v-2.7l1.9-1.9c0.1-0.1,0.1-0.2,0.1-0.3s0-0.2-0.1-0.3L66.8,74v-2.7c0-0.2-0.2-0.4-0.4-0.4h-2.7L61.7,69
			c-0.1-0.1-0.2-0.1-0.3-0.1c-0.1,0-0.2,0-0.3,0.1l-1.9,1.9h-2.7c-0.2,0-0.4,0.2-0.4,0.4V74l-1.9,1.9l-0.3-0.2v-1.8
			c0-0.2-0.1-0.3-0.2-0.4c-0.1-0.1-0.3-0.1-0.4,0l-1.6,0.9L50,73.4c-0.1-0.1-0.3-0.1-0.4,0c-0.1,0.1-0.2,0.2-0.2,0.4v1.8L49,75.8
			L47.2,74v-2.7c0-0.2-0.2-0.4-0.4-0.4H44L42.1,69c-0.1-0.1-0.2-0.1-0.3-0.1c-0.1,0-0.2,0-0.3,0.1l-1.9,1.9h-2.7
			c-0.2,0-0.4,0.2-0.4,0.4V74l-1.9,1.9c-0.1,0.1-0.1,0.2-0.1,0.3s0,0.2,0.1,0.3l1.9,1.9v2.7c0,0.2,0.2,0.4,0.4,0.4h2.7l1.9,1.9
			l-0.2,0.3h-1.8c-0.2,0-0.3,0.1-0.4,0.2c-0.1,0.1-0.1,0.3,0,0.4l0.9,1.6L39,87.6C39,87.7,39,87.9,39,88c0.1,0.1,0.2,0.2,0.4,0.2
			h1.8l0.2,0.3l-1.9,1.9h-2.7c-0.2,0-0.4,0.2-0.4,0.4v2.7l-1.9,1.9c-0.1,0.1-0.1,0.2-0.1,0.3s0,0.2,0.1,0.3l1.9,1.9v2.7
			c0,0.2,0.2,0.4,0.4,0.4h2.7l1.9,1.9c0.1,0.1,0.2,0.1,0.3,0.1c0.1,0,0.2,0,0.3-0.1l1.9-1.9h2.7c0.2,0,0.4-0.2,0.4-0.4v-2.7l1.9-1.9
			l0.3,0.2v1.8c0,0.2,0.1,0.3,0.2,0.4c0.1,0.1,0.3,0.1,0.4,0l1.6-0.9l1.6,0.9c0.1,0,0.1,0.1,0.2,0.1c0.1,0,0.2,0,0.2-0.1
			c0.1-0.1,0.2-0.2,0.2-0.4v-1.8l0.3-0.2l1.9,1.9v2.7c0,0.2,0.2,0.4,0.4,0.4h2.7l1.9,1.9c0.1,0.1,0.2,0.1,0.3,0.1
			c0.1,0,0.2,0,0.3-0.1l1.9-1.9h2.7c0.2,0,0.4-0.2,0.4-0.4v-2.7l1.9-1.9c0.1-0.1,0.1-0.2,0.1-0.3s0-0.2-0.1-0.3L66.8,93.6z
			 M66.8,75.3l1,1l-1,1V75.3z M36.4,77.2l-1-1l1-1V77.2z M36.4,96.8l-1-1l1-1V96.8z M41.8,69.9l1,1h-1.9L41.8,69.9z M37.3,71.8h1.3
			l-1.3,1.3V71.8z M37.3,80.7v-1.3l1.3,1.3H37.3z M40.9,81.6h1.9L42.3,82c-0.1,0-0.1,0.1-0.1,0.1l-0.4,0.4L40.9,81.6z M40.2,87.4
			l0.7-1.1c0.1-0.1,0.1-0.3,0-0.4l-0.7-1.1h1.3c0.2,0,0.3-0.1,0.4-0.2l0.7-1.1l0.7,1.1c0.1,0.1,0.2,0.2,0.4,0.2h1.3l-0.7,1.1
			c-0.1,0.1-0.1,0.3,0,0.4l0.7,1.1h-1.3c-0.2,0-0.3,0.1-0.4,0.2l-0.7,1.1l-0.7-1.1c-0.1-0.1-0.2-0.2-0.4-0.2H40.2z M45.3,86l1-1V87
			L45.3,86z M46.2,88.2v2.2H44l-0.9-0.9l0.7-1.3h1.8c0.2,0,0.3-0.1,0.4-0.2L46.2,88.2z M46.1,84c-0.1-0.1-0.2-0.2-0.4-0.2h-1.8
			l-0.7-1.3l0.9-0.9h2.2v2.2L46.1,84z M41.8,89.5l1,1h-1.9L41.8,89.5z M37.3,91.4h1.3l-1.3,1.3V91.4z M37.3,100.3V99l1.3,1.3H37.3z
			 M41.8,102.1l-1-1h1.9L41.8,102.1z M46.3,100.3h-1.3l1.3-1.3V100.3z M46.3,97.7l-2.6,2.6H40l-2.6-2.6V94l2.6-2.6h3.7l2.6,2.6V97.7
			z M46.3,92.7l-1.3-1.3h1.3V92.7z M46.3,80.7h-1.3l1.3-1.3V80.7z M46.3,78.1l-2.6,2.6H40l-2.6-2.6v-3.7l2.6-2.6h3.7l2.6,2.6V78.1z
			 M46.3,73.1l-1.3-1.3h1.3V73.1z M50,76.3c0.1-0.1,0.2-0.2,0.2-0.4v-1.3l1.1,0.7c0.1,0.1,0.3,0.1,0.4,0l1.1-0.7v1.3
			c0,0.2,0.1,0.3,0.2,0.4l1.1,0.7l-1.1,0.7C53,77.7,53,77.8,53,78v1.3l-1.1-0.7c-0.1,0-0.1-0.1-0.2-0.1c-0.1,0-0.2,0-0.2,0.1
			l-1.1,0.7V78c0-0.2-0.1-0.3-0.2-0.4L48.9,77L50,76.3z M52.6,80.7h-1.9l1-1L52.6,80.7z M47.2,75.3l1,1l-0.4,0.4l0,0
			c-0.1,0-0.1,0.1-0.2,0.2l-0.4,0.4V75.3z M47.2,78.4l0.9-0.9l1.3,0.7v1.8c0,0.2,0.1,0.3,0.2,0.4l-0.2,0.2h-2.2V78.4z M47.1,81.5
			h1.3l-1.3,1.3V81.5z M47.1,90.5v-1.3l1.3,1.3H47.1z M49.4,91.4l0.2,0.2c-0.1,0.1-0.2,0.2-0.2,0.4v1.8l-1.3,0.7l-0.9-0.9v-2.2H49.4
			z M47.2,96.8v-1.9l1,1L47.2,96.8z M53.2,95.7C53,95.8,53,96,53,96.1v1.3l-1.1-0.7c-0.1,0-0.1-0.1-0.2-0.1c-0.1,0-0.2,0-0.2,0.1
			l-1.1,0.7v-1.3c0-0.2-0.1-0.3-0.2-0.4l-1.1-0.7l1.1-0.7c0.1-0.1,0.2-0.2,0.2-0.4v-1.3l1.1,0.7c0.1,0.1,0.3,0.1,0.4,0l1.1-0.7V94
			c0,0.2,0.1,0.3,0.2,0.4l1.1,0.7L53.2,95.7z M50.7,91.4h1.9l-1,1L50.7,91.4z M56.1,96.8l-1-1l1-1V96.8z M56.1,93.6l-0.9,0.9
			l-1.3-0.8v-1.8c0-0.2-0.1-0.3-0.2-0.4l0.2-0.2h2.2V93.6z M56.1,90.5h-1.3l1.3-1.3V90.5z M56.1,87.9l-2.6,2.6h-3.7l-2.6-2.6v-3.7
			l2.6-2.6h3.7l2.6,2.6V87.9z M56.1,82.9l-1.3-1.3h1.3V82.9z M56.1,80.7h-2.2l-0.2-0.2c0.1-0.1,0.2-0.2,0.2-0.4v-1.8l1.3-0.7
			l0.9,0.9V80.7z M56.1,77.2l-1-1l1-1V77.2z M62.4,90.5h-1.9l1-1L62.4,90.5z M63,84.7l-0.7,1.1c-0.1,0.1-0.1,0.3,0,0.4l0.7,1.1h-1.3
			c-0.2,0-0.3,0.1-0.4,0.2l-0.7,1.1L60,87.6c-0.1-0.1-0.2-0.2-0.4-0.2h-1.3l0.7-1.1c0.1-0.1,0.1-0.3,0-0.4l-0.7-1.1h1.3
			c0.2,0,0.3-0.1,0.4-0.2l0.7-1.1l0.7,1.1c0.1,0.1,0.2,0.2,0.4,0.2H63z M61.4,82.5l-1-1h1.9L61.4,82.5z M65.9,80.7h-1.3l1.3-1.3
			V80.7z M65.9,71.8v1.3l-1.3-1.3H65.9z M61.4,69.9l1,1h-1.9L61.4,69.9z M57,71.8h1.3L57,73.1V71.8z M57,74.4l2.6-2.6h3.7l2.6,2.6
			v3.7l-2.6,2.6h-3.7L57,78.1V74.4z M57,79.3l1.3,1.3H57V79.3z M57,81.6h2.2l0.9,0.9l-0.7,1.3h-1.8c-0.2,0-0.3,0.1-0.4,0.2L57,83.8
			V81.6z M57,85.1l1,1l-1,1V85.1z M57,88.2l0.2-0.2c0.1,0.1,0.2,0.2,0.4,0.2h1.8l0.8,1.3l-0.9,0.9H57V88.2z M57,91.4h1.3L57,92.7
			V91.4z M57,100.3V99l1.3,1.3H57z M61.4,102.1l-1-1h1.9L61.4,102.1z M65.9,100.3h-1.3l1.3-1.3V100.3z M65.9,97.7l-2.6,2.6h-3.7
			L57,97.7V94l2.6-2.6h3.7l2.6,2.6V97.7z M65.9,92.7l-1.3-1.3h1.3V92.7z M66.8,96.8v-1.9l1,1L66.8,96.8z"/>
		<path class="st1" d="M48.4,70.1c0,0.5,0.4,0.8,0.8,0.8h0.5c0.2,0.8,0.9,1.3,1.8,1.3c0.8,0,1.5-0.6,1.8-1.3h0.5
			c0.5,0,0.8-0.4,0.8-0.8v-1.3h-0.9v1.2h-1.2l0,0.4c0,0.5-0.4,0.9-0.9,0.9c-0.5,0-0.9-0.4-0.9-0.9l0-0.4h-1.2v-1.2h-0.9V70.1z"/>
		<path class="st1" d="M54.5,103.2v-1.3c0-0.5-0.4-0.8-0.8-0.8h-0.5c-0.2-0.8-0.9-1.3-1.8-1.3c-0.8,0-1.5,0.6-1.8,1.3h-0.5
			c-0.5,0-0.8,0.4-0.8,0.8v1.3h0.9V102h1.2l0-0.4c0-0.5,0.4-0.9,0.9-0.9c0.5,0,0.9,0.4,0.9,0.9l0,0.4h1.2v1.2H54.5z"/>
		<path class="st1" d="M36.6,88.2v-0.5c0.8-0.2,1.3-0.9,1.3-1.8c0-0.8-0.6-1.5-1.3-1.8v-0.5c0-0.5-0.4-0.8-0.8-0.8h-1.3h-1.3
			c-0.5,0-0.8,0.4-0.8,0.8v0.5C31.5,84.5,31,85.2,31,86c0,0.8,0.6,1.5,1.3,1.8v0.5c0,0.5,0.4,0.8,0.8,0.8h1.3h1.3
			C36.2,89.1,36.6,88.7,36.6,88.2z M35.7,88.2h-1.2h-1.2V87l-0.4,0c-0.5,0-0.9-0.4-0.9-0.9c0-0.5,0.4-0.9,0.9-0.9l0.4,0v-1.2h1.2
			h1.2v1.2l0.4,0c0.5,0,0.9,0.4,0.9,0.9c0,0.5-0.4,0.9-0.9,0.9l-0.4,0V88.2z"/>
		<path class="st1" d="M66.8,128v-2.7c0-0.2-0.2-0.4-0.4-0.4h-2.7l-1.9-1.9l0.2-0.3h1.8c0.2,0,0.3-0.1,0.4-0.2
			c0.1-0.1,0.1-0.3,0-0.4l-0.9-1.6l0.9-1.6c0.1-0.1,0.1-0.3,0-0.4c-0.1-0.1-0.2-0.2-0.4-0.2H62l-0.2-0.3l1.9-1.9h2.7
			c0.2,0,0.4-0.2,0.4-0.4v-2.7l1.9-1.9c0.1-0.1,0.1-0.2,0.1-0.3c0-0.1,0-0.2-0.1-0.3l-1.9-1.9v-2.7c0-0.2-0.2-0.4-0.4-0.4h-2.7
			l-1.9-1.9c-0.1-0.1-0.2-0.1-0.3-0.1c-0.1,0-0.2,0-0.3,0.1l-1.9,1.9h-2.7c-0.2,0-0.4,0.2-0.4,0.4v2.7l-1.9,1.9l-0.3-0.2v-1.8
			c0-0.2-0.1-0.3-0.2-0.4c-0.1-0.1-0.3-0.1-0.4,0l-1.6,0.9l-1.6-0.9c-0.1-0.1-0.3-0.1-0.4,0c-0.1,0.1-0.2,0.2-0.2,0.4v1.8l-0.3,0.2
			l-1.8-1.8v-2.7c0-0.2-0.2-0.4-0.4-0.4H44l-1.9-1.9c-0.1-0.1-0.2-0.1-0.3-0.1c-0.1,0-0.2,0-0.3,0.1l-1.9,1.9h-2.7
			c-0.2,0-0.4,0.2-0.4,0.4v2.7l-1.9,1.9c-0.1,0.1-0.1,0.2-0.1,0.3c0,0.1,0,0.2,0.1,0.3l1.9,1.9v2.7c0,0.2,0.2,0.4,0.4,0.4h2.7
			l1.9,1.9l-0.2,0.3h-1.8c-0.2,0-0.3,0.1-0.4,0.2c-0.1,0.1-0.1,0.3,0,0.4l0.9,1.6L39,122c-0.1,0.1-0.1,0.3,0,0.4
			c0.1,0.1,0.2,0.2,0.4,0.2h1.8l0.2,0.3l-1.9,1.9h-2.7c-0.2,0-0.4,0.2-0.4,0.4v2.7l-1.9,1.9c-0.1,0.1-0.1,0.2-0.1,0.3
			c0,0.1,0,0.2,0.1,0.3l1.9,1.9v2.7c0,0.2,0.2,0.4,0.4,0.4h2.7l1.9,1.9c0.1,0.1,0.2,0.1,0.3,0.1c0.1,0,0.2,0,0.3-0.1l1.9-1.9h2.7
			c0.2,0,0.4-0.2,0.4-0.4v-2.7l1.9-1.9l0.3,0.2v1.8c0,0.2,0.1,0.3,0.2,0.4c0.1,0.1,0.3,0.1,0.4,0l1.6-0.9l1.6,0.9
			c0.1,0,0.1,0.1,0.2,0.1c0.1,0,0.2,0,0.2-0.1c0.1-0.1,0.2-0.2,0.2-0.4v-1.8l0.3-0.2l1.9,1.9v2.7c0,0.2,0.2,0.4,0.4,0.4h2.7l1.9,1.9
			c0.1,0.1,0.2,0.1,0.3,0.1c0.1,0,0.2,0,0.3-0.1l1.9-1.9h2.7c0.2,0,0.4-0.2,0.4-0.4v-2.7l1.9-1.9c0.1-0.1,0.1-0.2,0.1-0.3
			c0-0.1,0-0.2-0.1-0.3L66.8,128z M66.8,109.7l1,1l-1,1V109.7z M36.4,111.6l-1-1l1-1V111.6z M36.4,131.2l-1-1l1-1V131.2z
			 M41.8,104.3l1,1h-1.9L41.8,104.3z M37.3,106.2h1.3l-1.3,1.3V106.2z M37.3,115.1v-1.3l1.3,1.3H37.3z M40.9,116h1.9l-0.4,0.4
			c-0.1,0-0.1,0.1-0.1,0.1l-0.4,0.4L40.9,116z M40.2,121.8l0.7-1.1c0.1-0.1,0.1-0.3,0-0.4l-0.7-1.1h1.3c0.2,0,0.3-0.1,0.4-0.2
			l0.7-1.1l0.7,1.1c0.1,0.1,0.2,0.2,0.4,0.2h1.3l-0.7,1.1c-0.1,0.1-0.1,0.3,0,0.4l0.7,1.1h-1.3c-0.2,0-0.3,0.1-0.4,0.2l-0.7,1.1
			l-0.7-1.1c-0.1-0.1-0.2-0.2-0.4-0.2H40.2z M45.3,120.4l1-1v1.9L45.3,120.4z M46.2,122.6v2.2H44l-0.9-0.9l0.7-1.3h1.8
			c0.2,0,0.3-0.1,0.4-0.2L46.2,122.6z M46.1,118.4c-0.1-0.1-0.2-0.2-0.4-0.2h-1.8l-0.7-1.3L44,116h2.2v2.2L46.1,118.4z M41.8,123.9
			l1,1h-1.9L41.8,123.9z M37.3,125.8h1.3l-1.3,1.3V125.8z M37.3,134.7v-1.3l1.3,1.3H37.3z M41.8,136.6l-1-1h1.9L41.8,136.6z
			 M46.3,134.7h-1.3l1.3-1.3V134.7z M46.3,132.1l-2.6,2.6H40l-2.6-2.6v-3.7l2.6-2.6h3.7l2.6,2.6V132.1z M46.3,127.1l-1.3-1.3h1.3
			V127.1z M46.3,115.1h-1.3l1.3-1.3V115.1z M46.3,112.5l-2.6,2.6H40l-2.6-2.6v-3.7l2.6-2.6h3.7l2.6,2.6V112.5z M46.3,107.5l-1.3-1.3
			h1.3V107.5z M50,110.7c0.1-0.1,0.2-0.2,0.2-0.4V109l1.1,0.7c0.1,0.1,0.3,0.1,0.4,0L53,109v1.3c0,0.2,0.1,0.3,0.2,0.4l1.1,0.7
			l-1.1,0.7c-0.1,0.1-0.2,0.2-0.2,0.4v1.3l-1.1-0.7c-0.1,0-0.1-0.1-0.2-0.1c-0.1,0-0.2,0-0.2,0.1l-1.1,0.7v-1.3
			c0-0.2-0.1-0.3-0.2-0.4l-1.1-0.7L50,110.7z M52.6,115.1h-1.9l1-1L52.6,115.1z M47.2,109.7l1,1l-0.4,0.4l0,0
			c-0.1,0-0.1,0.1-0.2,0.2l-0.4,0.4V109.7z M47.2,112.8l0.9-0.9l1.3,0.7v1.8c0,0.2,0.1,0.3,0.2,0.4l-0.2,0.2h-2.2V112.8z M47.1,116
			h1.3l-1.3,1.3V116z M47.1,124.9v-1.3l1.3,1.3H47.1z M49.4,125.8l0.2,0.2c-0.1,0.1-0.2,0.2-0.2,0.4v1.8l-1.3,0.7l-0.9-0.9v-2.2
			H49.4z M47.2,131.2v-1.9l1,1L47.2,131.2z M53.2,130.1c-0.1,0.1-0.2,0.2-0.2,0.4v1.3l-1.1-0.7c-0.1,0-0.1-0.1-0.2-0.1
			c-0.1,0-0.2,0-0.2,0.1l-1.1,0.7v-1.3c0-0.2-0.1-0.3-0.2-0.4l-1.1-0.7l1.1-0.7c0.1-0.1,0.2-0.2,0.2-0.4v-1.3l1.1,0.7
			c0.1,0.1,0.3,0.1,0.4,0l1.1-0.7v1.3c0,0.2,0.1,0.3,0.2,0.4l1.1,0.7L53.2,130.1z M50.7,125.8h1.9l-1,1L50.7,125.8z M56.1,131.2
			l-1-1l1-1V131.2z M56.1,128l-0.9,0.9l-1.3-0.8v-1.8c0-0.2-0.1-0.3-0.2-0.4l0.2-0.2h2.2V128z M56.1,124.9h-1.3l1.3-1.3V124.9z
			 M56.1,122.3l-2.6,2.6h-3.7l-2.6-2.6v-3.7l2.6-2.6h3.7l2.6,2.6V122.3z M56.1,117.3l-1.3-1.3h1.3V117.3z M56.1,115.1h-2.2l-0.2-0.2
			c0.1-0.1,0.2-0.2,0.2-0.4v-1.8l1.3-0.7l0.9,0.9V115.1z M56.1,111.6l-1-1l1-1V111.6z M62.4,124.9h-1.9l1-1L62.4,124.9z M63,119.1
			l-0.7,1.1c-0.1,0.1-0.1,0.3,0,0.4l0.7,1.1h-1.3c-0.2,0-0.3,0.1-0.4,0.2l-0.7,1.1L60,122c-0.1-0.1-0.2-0.2-0.4-0.2h-1.3l0.7-1.1
			c0.1-0.1,0.1-0.3,0-0.4l-0.7-1.1h1.3c0.2,0,0.3-0.1,0.4-0.2l0.7-1.1l0.7,1.1c0.1,0.1,0.2,0.2,0.4,0.2H63z M61.4,116.9l-1-1h1.9
			L61.4,116.9z M65.9,115.1h-1.3l1.3-1.3V115.1z M65.9,106.2v1.3l-1.3-1.3H65.9z M61.4,104.3l1,1h-1.9L61.4,104.3z M57,106.2h1.3
			l-1.3,1.3V106.2z M57,108.8l2.6-2.6h3.7l2.6,2.6v3.7l-2.6,2.6h-3.7l-2.6-2.6V108.8z M57,113.7l1.3,1.3H57V113.7z M57,116h2.2
			l0.9,0.9l-0.7,1.3h-1.8c-0.2,0-0.3,0.1-0.4,0.2l-0.2-0.2V116z M57,119.5l1,1l-1,1V119.5z M57,122.6l0.2-0.2
			c0.1,0.1,0.2,0.2,0.4,0.2h1.8l0.8,1.3l-0.9,0.9H57V122.6z M57,125.8h1.3l-1.3,1.3V125.8z M57,134.7v-1.3l1.3,1.3H57z M61.4,136.6
			l-1-1h1.9L61.4,136.6z M65.9,134.7h-1.3l1.3-1.3V134.7z M65.9,132.1l-2.6,2.6h-3.7l-2.6-2.6v-3.7l2.6-2.6h3.7l2.6,2.6V132.1z
			 M65.9,127.1l-1.3-1.3h1.3V127.1z M66.8,131.2v-1.9l1,1L66.8,131.2z"/>
		<path class="st1" d="M48.4,104.5c0,0.5,0.4,0.8,0.8,0.8h0.5c0.2,0.8,0.9,1.3,1.8,1.3c0.8,0,1.5-0.6,1.8-1.3h0.5
			c0.5,0,0.8-0.4,0.8-0.8v-1.3h-0.9v1.2h-1.2l0,0.4c0,0.5-0.4,0.9-0.9,0.9c-0.5,0-0.9-0.4-0.9-0.9l0-0.4h-1.2v-1.2h-0.9V104.5z"/>
		<path class="st1" d="M53.7,135.5h-0.5c-0.2-0.8-0.9-1.3-1.8-1.3c-0.8,0-1.5,0.6-1.8,1.3h-0.5c-0.5,0-0.8,0.4-0.8,0.8v1.3h0.9v-1.2
			h1.2l0-0.4c0-0.5,0.4-0.9,0.9-0.9c0.5,0,0.9,0.4,0.9,0.9l0,0.4h1.2v1.2h0.9v-1.3C54.5,135.9,54.1,135.5,53.7,135.5z"/>
		<path class="st1" d="M36.6,122.7v-0.5c0.8-0.2,1.3-0.9,1.3-1.8c0-0.8-0.6-1.5-1.3-1.8v-0.5c0-0.5-0.4-0.8-0.8-0.8h-1.3h-1.3
			c-0.5,0-0.8,0.4-0.8,0.8v0.5c-0.8,0.2-1.3,0.9-1.3,1.8c0,0.8,0.6,1.5,1.3,1.8v0.5c0,0.5,0.4,0.8,0.8,0.8h1.3h1.3
			C36.2,123.5,36.6,123.1,36.6,122.7z M35.7,122.6h-1.2h-1.2v-1.2l-0.4,0c-0.5,0-0.9-0.4-0.9-0.9c0-0.5,0.4-0.9,0.9-0.9l0.4,0v-1.2
			h1.2h1.2v1.2l0.4,0c0.5,0,0.9,0.4,0.9,0.9c0,0.5-0.4,0.9-0.9,0.9l-0.4,0V122.6z"/>
		<path class="st1" d="M32.4,93.6v-2.7c0-0.2-0.2-0.4-0.4-0.4h-2.7l-1.9-1.9l0.2-0.3h1.8c0.2,0,0.3-0.1,0.4-0.2
			c0.1-0.1,0.1-0.3,0-0.4L28.9,86l0.9-1.6c0.1-0.1,0.1-0.3,0-0.4c-0.1-0.1-0.2-0.2-0.4-0.2h-1.8l-0.2-0.3l1.9-1.9h2.7
			c0.2,0,0.4-0.2,0.4-0.4v-2.7l1.9-1.9c0.1-0.1,0.1-0.2,0.1-0.3s0-0.2-0.1-0.3L32.4,74v-2.7c0-0.2-0.2-0.4-0.4-0.4h-2.7L27.3,69
			c-0.1-0.1-0.2-0.1-0.3-0.1c-0.1,0-0.2,0-0.3,0.1l-1.9,1.9h-2.7c-0.2,0-0.4,0.2-0.4,0.4V74l-1.9,1.9l-0.3-0.2v-1.8
			c0-0.2-0.1-0.3-0.2-0.4c-0.1-0.1-0.3-0.1-0.4,0l-1.6,0.9l-1.6-0.9c-0.1-0.1-0.3-0.1-0.4,0c-0.1,0.1-0.2,0.2-0.2,0.4v1.8l-0.3,0.2
			L12.8,74v-2.7c0-0.2-0.2-0.4-0.4-0.4H9.6L7.7,69c-0.1-0.1-0.2-0.1-0.3-0.1c-0.1,0-0.2,0-0.3,0.1l-1.9,1.9H2.5
			c-0.2,0-0.4,0.2-0.4,0.4V74l-1.9,1.9C0,76,0,76.1,0,76.2s0,0.2,0.1,0.3L2,78.4v2.7c0,0.2,0.2,0.4,0.4,0.4h2.7L7,83.4l-0.2,0.3H5
			c-0.2,0-0.3,0.1-0.4,0.2c-0.1,0.1-0.1,0.3,0,0.4L5.5,86l-0.9,1.6c-0.1,0.1-0.1,0.3,0,0.4c0.1,0.1,0.2,0.2,0.4,0.2h1.8L7,88.6
			l-1.9,1.9H2.5c-0.2,0-0.4,0.2-0.4,0.4v2.7l-1.9,1.9C0,95.6,0,95.7,0,95.8s0,0.2,0.1,0.3L2,98.1v2.7c0,0.2,0.2,0.4,0.4,0.4h2.7
			l1.9,1.9c0.1,0.1,0.2,0.1,0.3,0.1c0.1,0,0.2,0,0.3-0.1l1.9-1.9h2.7c0.2,0,0.4-0.2,0.4-0.4v-2.7l1.9-1.9l0.3,0.2v1.8
			c0,0.2,0.1,0.3,0.2,0.4c0.1,0.1,0.3,0.1,0.4,0l1.6-0.9l1.6,0.9c0.1,0,0.1,0.1,0.2,0.1c0.1,0,0.2,0,0.2-0.1
			c0.1-0.1,0.2-0.2,0.2-0.4v-1.8l0.3-0.2l1.9,1.9v2.7c0,0.2,0.2,0.4,0.4,0.4h2.7l1.9,1.9c0.1,0.1,0.2,0.1,0.3,0.1
			c0.1,0,0.2,0,0.3-0.1l1.9-1.9h2.7c0.2,0,0.4-0.2,0.4-0.4v-2.7l1.9-1.9c0.1-0.1,0.1-0.2,0.1-0.3s0-0.2-0.1-0.3L32.4,93.6z
			 M32.4,75.3l1,1l-1,1V75.3z M2,77.2l-1-1l1-1V77.2z M2,96.8l-1-1l1-1V96.8z M7.4,69.9l1,1H6.4L7.4,69.9z M2.9,71.8h1.3l-1.3,1.3
			V71.8z M2.9,80.7v-1.3l1.3,1.3H2.9z M6.4,81.6h1.9L7.9,82c-0.1,0-0.1,0.1-0.1,0.1l-0.4,0.4L6.4,81.6z M5.8,87.4l0.7-1.1
			c0.1-0.1,0.1-0.3,0-0.4l-0.7-1.1h1.3c0.2,0,0.3-0.1,0.4-0.2l0.7-1.1l0.7,1.1c0.1,0.1,0.2,0.2,0.4,0.2h1.3l-0.7,1.1
			c-0.1,0.1-0.1,0.3,0,0.4l0.7,1.1H9.2c-0.2,0-0.3,0.1-0.4,0.2l-0.7,1.1l-0.7-1.1c-0.1-0.1-0.2-0.2-0.4-0.2H5.8z M10.9,86l1-1V87
			L10.9,86z M11.8,88.2v2.2H9.6l-0.9-0.9l0.7-1.3h1.8c0.2,0,0.3-0.1,0.4-0.2L11.8,88.2z M11.6,84c-0.1-0.1-0.2-0.2-0.4-0.2H9.4
			l-0.7-1.3l0.9-0.9h2.2v2.2L11.6,84z M7.4,89.5l1,1H6.4L7.4,89.5z M2.9,91.4h1.3l-1.3,1.3V91.4z M2.9,100.3V99l1.3,1.3H2.9z
			 M7.4,102.1l-1-1h1.9L7.4,102.1z M11.9,100.3h-1.3l1.3-1.3V100.3z M11.9,97.7l-2.6,2.6H5.5l-2.6-2.6V94l2.6-2.6h3.7l2.6,2.6V97.7z
			 M11.9,92.7l-1.3-1.3h1.3V92.7z M11.9,80.7h-1.3l1.3-1.3V80.7z M11.9,78.1l-2.6,2.6H5.5l-2.6-2.6v-3.7l2.6-2.6h3.7l2.6,2.6V78.1z
			 M11.9,73.1l-1.3-1.3h1.3V73.1z M15.6,76.3c0.1-0.1,0.2-0.2,0.2-0.4v-1.3l1.1,0.7c0.1,0.1,0.3,0.1,0.4,0l1.1-0.7v1.3
			c0,0.2,0.1,0.3,0.2,0.4l1.1,0.7l-1.1,0.7c-0.1,0.1-0.2,0.2-0.2,0.4v1.3l-1.1-0.7c-0.1,0-0.1-0.1-0.2-0.1c-0.1,0-0.2,0-0.2,0.1
			l-1.1,0.7V78c0-0.2-0.1-0.3-0.2-0.4L14.5,77L15.6,76.3z M18.1,80.7h-1.9l1-1L18.1,80.7z M12.8,75.3l1,1l-0.4,0.4l0,0
			c-0.1,0-0.1,0.1-0.2,0.2l-0.4,0.4V75.3z M12.8,78.4l0.9-0.9l1.3,0.7v1.8c0,0.2,0.1,0.3,0.2,0.4L15,80.7h-2.2V78.4z M12.7,81.5h1.3
			l-1.3,1.3V81.5z M12.7,90.5v-1.3l1.3,1.3H12.7z M15,91.4l0.2,0.2c-0.1,0.1-0.2,0.2-0.2,0.4v1.8l-1.3,0.7l-0.9-0.9v-2.2H15z
			 M12.8,96.8v-1.9l1,1L12.8,96.8z M18.8,95.7c-0.1,0.1-0.2,0.2-0.2,0.4v1.3l-1.1-0.7c-0.1,0-0.1-0.1-0.2-0.1c-0.1,0-0.2,0-0.2,0.1
			l-1.1,0.7v-1.3c0-0.2-0.1-0.3-0.2-0.4l-1.1-0.7l1.1-0.7c0.1-0.1,0.2-0.2,0.2-0.4v-1.3l1.1,0.7c0.1,0.1,0.3,0.1,0.4,0l1.1-0.7V94
			c0,0.2,0.1,0.3,0.2,0.4l1.1,0.7L18.8,95.7z M16.2,91.4h1.9l-1,1L16.2,91.4z M21.7,96.8l-1-1l1-1V96.8z M21.7,93.6l-0.9,0.9
			l-1.3-0.8v-1.8c0-0.2-0.1-0.3-0.2-0.4l0.2-0.2h2.2V93.6z M21.7,90.5h-1.3l1.3-1.3V90.5z M21.7,87.9L19,90.5h-3.7l-2.6-2.6v-3.7
			l2.6-2.6H19l2.6,2.6V87.9z M21.7,82.9l-1.3-1.3h1.3V82.9z M21.7,80.7h-2.2l-0.2-0.2c0.1-0.1,0.2-0.2,0.2-0.4v-1.8l1.3-0.7l0.9,0.9
			V80.7z M21.7,77.2l-1-1l1-1V77.2z M28,90.5h-1.9l1-1L28,90.5z M28.6,84.7l-0.7,1.1c-0.1,0.1-0.1,0.3,0,0.4l0.7,1.1h-1.3
			c-0.2,0-0.3,0.1-0.4,0.2l-0.7,1.1l-0.7-1.1c-0.1-0.1-0.2-0.2-0.4-0.2h-1.3l0.7-1.1c0.1-0.1,0.1-0.3,0-0.4l-0.7-1.1h1.3
			c0.2,0,0.3-0.1,0.4-0.2l0.7-1.1l0.7,1.1c0.1,0.1,0.2,0.2,0.4,0.2H28.6z M27,82.5l-1-1H28L27,82.5z M31.5,80.7h-1.3l1.3-1.3V80.7z
			 M31.5,71.8v1.3l-1.3-1.3H31.5z M27,69.9l1,1h-1.9L27,69.9z M22.6,71.8h1.3l-1.3,1.3V71.8z M22.6,74.4l2.6-2.6h3.7l2.6,2.6v3.7
			l-2.6,2.6h-3.7l-2.6-2.6V74.4z M22.6,79.3l1.3,1.3h-1.3V79.3z M22.6,81.6h2.2l0.9,0.9l-0.7,1.3h-1.8c-0.2,0-0.3,0.1-0.4,0.2
			l-0.2-0.2V81.6z M22.6,85.1l1,1l-1,1V85.1z M22.6,88.2l0.2-0.2c0.1,0.1,0.2,0.2,0.4,0.2h1.8l0.8,1.3l-0.9,0.9h-2.2V88.2z
			 M22.6,91.4h1.3l-1.3,1.3V91.4z M22.6,100.3V99l1.3,1.3H22.6z M27,102.1l-1-1H28L27,102.1z M31.5,100.3h-1.3l1.3-1.3V100.3z
			 M31.5,97.7l-2.6,2.6h-3.7l-2.6-2.6V94l2.6-2.6h3.7l2.6,2.6V97.7z M31.5,92.7l-1.3-1.3h1.3V92.7z M32.4,96.8v-1.9l1,1L32.4,96.8z"
			/>
		<path class="st1" d="M14,70.1c0,0.5,0.4,0.8,0.8,0.8h0.5c0.2,0.8,0.9,1.3,1.8,1.3c0.8,0,1.5-0.6,1.8-1.3h0.5
			c0.5,0,0.8-0.4,0.8-0.8v-1.3h-0.9v1.2H18l0,0.4c0,0.5-0.4,0.9-0.9,0.9c-0.5,0-0.9-0.4-0.9-0.9l0-0.4h-1.2v-1.2H14V70.1z"/>
		<path class="st1" d="M20.1,103.2v-1.3c0-0.5-0.4-0.8-0.8-0.8h-0.5c-0.2-0.8-0.9-1.3-1.8-1.3c-0.8,0-1.5,0.6-1.8,1.3h-0.5
			c-0.5,0-0.8,0.4-0.8,0.8v1.3h0.9V102h1.2l0-0.4c0-0.5,0.4-0.9,0.9-0.9c0.5,0,0.9,0.4,0.9,0.9l0,0.4h1.2v1.2H20.1z"/>
		<path class="st1" d="M2.1,88.2v-0.5c0.8-0.2,1.3-0.9,1.3-1.8c0-0.8-0.6-1.5-1.3-1.8v-0.5c0-0.5-0.4-0.8-0.8-0.8H0v0.9h1.2v1.2
			l0.4,0c0.5,0,0.9,0.4,0.9,0.9c0,0.5-0.4,0.9-0.9,0.9l-0.4,0v1.2H0v0.9h1.3C1.8,89.1,2.1,88.7,2.1,88.2z"/>
		<path class="st1" d="M32.4,128v-2.7c0-0.2-0.2-0.4-0.4-0.4h-2.7l-1.9-1.9l0.2-0.3h1.8c0.2,0,0.3-0.1,0.4-0.2
			c0.1-0.1,0.1-0.3,0-0.4l-0.9-1.6l0.9-1.6c0.1-0.1,0.1-0.3,0-0.4c-0.1-0.1-0.2-0.2-0.4-0.2h-1.8l-0.2-0.3l1.9-1.9h2.7
			c0.2,0,0.4-0.2,0.4-0.4v-2.7l1.9-1.9c0.1-0.1,0.1-0.2,0.1-0.3c0-0.1,0-0.2-0.1-0.3l-1.9-1.9v-2.7c0-0.2-0.2-0.4-0.4-0.4h-2.7
			l-1.9-1.9c-0.1-0.1-0.2-0.1-0.3-0.1c-0.1,0-0.2,0-0.3,0.1l-1.9,1.9h-2.7c-0.2,0-0.4,0.2-0.4,0.4v2.7l-1.9,1.9l-0.3-0.2v-1.8
			c0-0.2-0.1-0.3-0.2-0.4c-0.1-0.1-0.3-0.1-0.4,0l-1.6,0.9l-1.6-0.9c-0.1-0.1-0.3-0.1-0.4,0c-0.1,0.1-0.2,0.2-0.2,0.4v1.8l-0.3,0.2
			l-1.8-1.8v-2.7c0-0.2-0.2-0.4-0.4-0.4H9.6l-1.9-1.9c-0.1-0.1-0.2-0.1-0.3-0.1c-0.1,0-0.2,0-0.3,0.1l-1.9,1.9H2.5
			c-0.2,0-0.4,0.2-0.4,0.4v2.7l-1.9,1.9C0,110.4,0,110.5,0,110.6c0,0.1,0,0.2,0.1,0.3l1.9,1.9v2.7c0,0.2,0.2,0.4,0.4,0.4h2.7
			l1.9,1.9l-0.2,0.3H5c-0.2,0-0.3,0.1-0.4,0.2c-0.1,0.1-0.1,0.3,0,0.4l0.9,1.6L4.6,122c-0.1,0.1-0.1,0.3,0,0.4
			c0.1,0.1,0.2,0.2,0.4,0.2h1.8L7,123l-1.9,1.9H2.5c-0.2,0-0.4,0.2-0.4,0.4v2.7l-1.9,1.9C0,130,0,130.1,0,130.2c0,0.1,0,0.2,0.1,0.3
			l1.9,1.9v2.7c0,0.2,0.2,0.4,0.4,0.4h2.7l1.9,1.9c0.1,0.1,0.2,0.1,0.3,0.1c0.1,0,0.2,0,0.3-0.1l1.9-1.9h2.7c0.2,0,0.4-0.2,0.4-0.4
			v-2.7l1.9-1.9l0.3,0.2v1.8c0,0.2,0.1,0.3,0.2,0.4c0.1,0.1,0.3,0.1,0.4,0l1.6-0.9l1.6,0.9c0.1,0,0.1,0.1,0.2,0.1
			c0.1,0,0.2,0,0.2-0.1c0.1-0.1,0.2-0.2,0.2-0.4v-1.8l0.3-0.2l1.9,1.9v2.7c0,0.2,0.2,0.4,0.4,0.4h2.7l1.9,1.9
			c0.1,0.1,0.2,0.1,0.3,0.1c0.1,0,0.2,0,0.3-0.1l1.9-1.9h2.7c0.2,0,0.4-0.2,0.4-0.4v-2.7l1.9-1.9c0.1-0.1,0.1-0.2,0.1-0.3
			c0-0.1,0-0.2-0.1-0.3L32.4,128z M32.4,109.7l1,1l-1,1V109.7z M2,111.6l-1-1l1-1V111.6z M2,131.2l-1-1l1-1V131.2z M7.4,104.3l1,1
			H6.4L7.4,104.3z M2.9,106.2h1.3l-1.3,1.3V106.2z M2.9,115.1v-1.3l1.3,1.3H2.9z M6.4,116h1.9l-0.4,0.4c-0.1,0-0.1,0.1-0.1,0.1
			l-0.4,0.4L6.4,116z M5.8,121.8l0.7-1.1c0.1-0.1,0.1-0.3,0-0.4l-0.7-1.1h1.3c0.2,0,0.3-0.1,0.4-0.2l0.7-1.1l0.7,1.1
			c0.1,0.1,0.2,0.2,0.4,0.2h1.3l-0.7,1.1c-0.1,0.1-0.1,0.3,0,0.4l0.7,1.1H9.2c-0.2,0-0.3,0.1-0.4,0.2l-0.7,1.1L7.5,122
			c-0.1-0.1-0.2-0.2-0.4-0.2H5.8z M10.9,120.4l1-1v1.9L10.9,120.4z M11.8,122.6v2.2H9.6L8.7,124l0.7-1.3h1.8c0.2,0,0.3-0.1,0.4-0.2
			L11.8,122.6z M11.6,118.4c-0.1-0.1-0.2-0.2-0.4-0.2H9.4l-0.7-1.3l0.9-0.9h2.2v2.2L11.6,118.4z M7.4,123.9l1,1H6.4L7.4,123.9z
			 M2.9,125.8h1.3l-1.3,1.3V125.8z M2.9,134.7v-1.3l1.3,1.3H2.9z M7.4,136.6l-1-1h1.9L7.4,136.6z M11.9,134.7h-1.3l1.3-1.3V134.7z
			 M11.9,132.1l-2.6,2.6H5.5l-2.6-2.6v-3.7l2.6-2.6h3.7l2.6,2.6V132.1z M11.9,127.1l-1.3-1.3h1.3V127.1z M11.9,115.1h-1.3l1.3-1.3
			V115.1z M11.9,112.5l-2.6,2.6H5.5l-2.6-2.6v-3.7l2.6-2.6h3.7l2.6,2.6V112.5z M11.9,107.5l-1.3-1.3h1.3V107.5z M15.6,110.7
			c0.1-0.1,0.2-0.2,0.2-0.4V109l1.1,0.7c0.1,0.1,0.3,0.1,0.4,0l1.1-0.7v1.3c0,0.2,0.1,0.3,0.2,0.4l1.1,0.7l-1.1,0.7
			c-0.1,0.1-0.2,0.2-0.2,0.4v1.3l-1.1-0.7c-0.1,0-0.1-0.1-0.2-0.1c-0.1,0-0.2,0-0.2,0.1l-1.1,0.7v-1.3c0-0.2-0.1-0.3-0.2-0.4
			l-1.1-0.7L15.6,110.7z M18.1,115.1h-1.9l1-1L18.1,115.1z M12.8,109.7l1,1l-0.4,0.4l0,0c-0.1,0-0.1,0.1-0.2,0.2l-0.4,0.4V109.7z
			 M12.8,112.8l0.9-0.9l1.3,0.7v1.8c0,0.2,0.1,0.3,0.2,0.4l-0.2,0.2h-2.2V112.8z M12.7,116h1.3l-1.3,1.3V116z M12.7,124.9v-1.3
			l1.3,1.3H12.7z M15,125.8l0.2,0.2c-0.1,0.1-0.2,0.2-0.2,0.4v1.8l-1.3,0.7l-0.9-0.9v-2.2H15z M12.8,131.2v-1.9l1,1L12.8,131.2z
			 M18.8,130.1c-0.1,0.1-0.2,0.2-0.2,0.4v1.3l-1.1-0.7c-0.1,0-0.1-0.1-0.2-0.1c-0.1,0-0.2,0-0.2,0.1l-1.1,0.7v-1.3
			c0-0.2-0.1-0.3-0.2-0.4l-1.1-0.7l1.1-0.7c0.1-0.1,0.2-0.2,0.2-0.4v-1.3l1.1,0.7c0.1,0.1,0.3,0.1,0.4,0l1.1-0.7v1.3
			c0,0.2,0.1,0.3,0.2,0.4l1.1,0.7L18.8,130.1z M16.2,125.8h1.9l-1,1L16.2,125.8z M21.7,131.2l-1-1l1-1V131.2z M21.7,128l-0.9,0.9
			l-1.3-0.8v-1.8c0-0.2-0.1-0.3-0.2-0.4l0.2-0.2h2.2V128z M21.7,124.9h-1.3l1.3-1.3V124.9z M21.7,122.3l-2.6,2.6h-3.7l-2.6-2.6v-3.7
			l2.6-2.6H19l2.6,2.6V122.3z M21.7,117.3l-1.3-1.3h1.3V117.3z M21.7,115.1h-2.2l-0.2-0.2c0.1-0.1,0.2-0.2,0.2-0.4v-1.8l1.3-0.7
			l0.9,0.9V115.1z M21.7,111.6l-1-1l1-1V111.6z M28,124.9h-1.9l1-1L28,124.9z M28.6,119.1l-0.7,1.1c-0.1,0.1-0.1,0.3,0,0.4l0.7,1.1
			h-1.3c-0.2,0-0.3,0.1-0.4,0.2l-0.7,1.1l-0.7-1.1c-0.1-0.1-0.2-0.2-0.4-0.2h-1.3l0.7-1.1c0.1-0.1,0.1-0.3,0-0.4l-0.7-1.1h1.3
			c0.2,0,0.3-0.1,0.4-0.2l0.7-1.1l0.7,1.1c0.1,0.1,0.2,0.2,0.4,0.2H28.6z M27,116.9l-1-1H28L27,116.9z M31.5,115.1h-1.3l1.3-1.3
			V115.1z M31.5,106.2v1.3l-1.3-1.3H31.5z M27,104.3l1,1h-1.9L27,104.3z M22.6,106.2h1.3l-1.3,1.3V106.2z M22.6,108.8l2.6-2.6h3.7
			l2.6,2.6v3.7l-2.6,2.6h-3.7l-2.6-2.6V108.8z M22.6,113.7l1.3,1.3h-1.3V113.7z M22.6,116h2.2l0.9,0.9l-0.7,1.3h-1.8
			c-0.2,0-0.3,0.1-0.4,0.2l-0.2-0.2V116z M22.6,119.5l1,1l-1,1V119.5z M22.6,122.6l0.2-0.2c0.1,0.1,0.2,0.2,0.4,0.2h1.8l0.8,1.3
			l-0.9,0.9h-2.2V122.6z M22.6,125.8h1.3l-1.3,1.3V125.8z M22.6,134.7v-1.3l1.3,1.3H22.6z M27,136.6l-1-1H28L27,136.6z M31.5,134.7
			h-1.3l1.3-1.3V134.7z M31.5,132.1l-2.6,2.6h-3.7l-2.6-2.6v-3.7l2.6-2.6h3.7l2.6,2.6V132.1z M31.5,127.1l-1.3-1.3h1.3V127.1z
			 M32.4,131.2v-1.9l1,1L32.4,131.2z"/>
		<path class="st1" d="M14,104.5c0,0.5,0.4,0.8,0.8,0.8h0.5c0.2,0.8,0.9,1.3,1.8,1.3c0.8,0,1.5-0.6,1.8-1.3h0.5
			c0.5,0,0.8-0.4,0.8-0.8v-1.3h-0.9v1.2H18l0,0.4c0,0.5-0.4,0.9-0.9,0.9c-0.5,0-0.9-0.4-0.9-0.9l0-0.4h-1.2v-1.2H14V104.5z"/>
		<path class="st1" d="M19.3,135.5h-0.5c-0.2-0.8-0.9-1.3-1.8-1.3c-0.8,0-1.5,0.6-1.8,1.3h-0.5c-0.5,0-0.8,0.4-0.8,0.8v1.3h0.9v-1.2
			h1.2l0-0.4c0-0.5,0.4-0.9,0.9-0.9c0.5,0,0.9,0.4,0.9,0.9l0,0.4h1.2v1.2h0.9v-1.3C20.1,135.9,19.7,135.5,19.3,135.5z"/>
		<path class="st1" d="M2.1,122.7v-0.5c0.8-0.2,1.3-0.9,1.3-1.8c0-0.8-0.6-1.5-1.3-1.8v-0.5c0-0.5-0.4-0.8-0.8-0.8H0v0.9h1.2v1.2
			l0.4,0c0.5,0,0.9,0.4,0.9,0.9c0,0.5-0.4,0.9-0.9,0.9l-0.4,0v1.2H0v0.9h1.3C1.8,123.5,2.1,123.1,2.1,122.7z"/>
		<path class="st1" d="M135.6,74v-2.7c0-0.2-0.2-0.4-0.4-0.4h-2.7l-1.9-1.9c-0.1-0.1-0.2-0.1-0.3-0.1c-0.1,0-0.2,0-0.3,0.1l-1.9,1.9
			h-2.7c-0.2,0-0.4,0.2-0.4,0.4V74l-1.9,1.9l-0.3-0.2v-1.8c0-0.2-0.1-0.3-0.2-0.4c-0.1-0.1-0.3-0.1-0.4,0l-1.6,0.9l-1.6-0.9
			c-0.1-0.1-0.3-0.1-0.4,0c-0.1,0.1-0.2,0.2-0.2,0.4v1.8l-0.3,0.2L116,74v-2.7c0-0.2-0.2-0.4-0.4-0.4h-2.7l-1.9-1.9
			c-0.1-0.1-0.2-0.1-0.3-0.1c-0.1,0-0.2,0-0.3,0.1l-1.9,1.9h-2.7c-0.2,0-0.4,0.2-0.4,0.4V74l-1.9,1.9c-0.1,0.1-0.1,0.2-0.1,0.3
			s0,0.2,0.1,0.3l1.9,1.9v2.7c0,0.2,0.2,0.4,0.4,0.4h2.7l1.9,1.9l-0.2,0.3h-1.8c-0.2,0-0.3,0.1-0.4,0.2c-0.1,0.1-0.1,0.3,0,0.4
			l0.9,1.6l-0.9,1.6c-0.1,0.1-0.1,0.3,0,0.4c0.1,0.1,0.2,0.2,0.4,0.2h1.8l0.2,0.3l-1.9,1.9h-2.7c-0.2,0-0.4,0.2-0.4,0.4v2.7
			l-1.9,1.9c-0.1,0.1-0.1,0.2-0.1,0.3s0,0.2,0.1,0.3l1.9,1.9v2.7c0,0.2,0.2,0.4,0.4,0.4h2.7l1.9,1.9c0.1,0.1,0.2,0.1,0.3,0.1
			c0.1,0,0.2,0,0.3-0.1l1.9-1.9h2.7c0.2,0,0.4-0.2,0.4-0.4v-2.7l1.9-1.9l0.3,0.2v1.8c0,0.2,0.1,0.3,0.2,0.4c0.1,0.1,0.3,0.1,0.4,0
			l1.6-0.9l1.6,0.9c0.1,0,0.1,0.1,0.2,0.1c0.1,0,0.2,0,0.2-0.1c0.1-0.1,0.2-0.2,0.2-0.4v-1.8l0.3-0.2l1.9,1.9v2.7
			c0,0.2,0.2,0.4,0.4,0.4h2.7l1.9,1.9c0.1,0.1,0.2,0.1,0.3,0.1c0.1,0,0.2,0,0.3-0.1l1.9-1.9h2.7c0.2,0,0.4-0.2,0.4-0.4v-2.7l1.9-1.9
			c0.1-0.1,0.1-0.2,0.1-0.3s0-0.2-0.1-0.3l-1.9-1.9v-2.7c0-0.2-0.2-0.4-0.4-0.4h-2.7l-1.9-1.9l0.2-0.3h1.8c0.2,0,0.3-0.1,0.4-0.2
			c0.1-0.1,0.1-0.3,0-0.4l-0.9-1.6l0.9-1.6c0.1-0.1,0.1-0.3,0-0.4s-0.2-0.2-0.4-0.2h-1.8l-0.2-0.3l1.9-1.9h2.7
			c0.2,0,0.4-0.2,0.4-0.4v-2.7l1.9-1.9c0.1-0.1,0.1-0.2,0.1-0.3s0-0.2-0.1-0.3L135.6,74z M105.3,77.2l-1-1l1-1V77.2z M105.3,96.8
			l-1-1l1-1V96.8z M110.6,69.9l1,1h-1.9L110.6,69.9z M106.2,71.8h1.3l-1.3,1.3V71.8z M106.2,80.7v-1.3l1.3,1.3H106.2z M109.7,81.6
			h1.9l-0.4,0.4c-0.1,0-0.1,0.1-0.1,0.1l-0.4,0.4L109.7,81.6z M109,87.4l0.7-1.1c0.1-0.1,0.1-0.3,0-0.4l-0.7-1.1h1.3
			c0.2,0,0.3-0.1,0.4-0.2l0.7-1.1l0.7,1.1c0.1,0.1,0.2,0.2,0.4,0.2h1.3l-0.7,1.1c-0.1,0.1-0.1,0.3,0,0.4l0.7,1.1h-1.3
			c-0.2,0-0.3,0.1-0.4,0.2l-0.7,1.1l-0.7-1.1c-0.1-0.1-0.2-0.2-0.4-0.2H109z M114.1,86l1-1V87L114.1,86z M115.1,88.2v2.2h-2.2
			l-0.9-0.9l0.7-1.3h1.8c0.2,0,0.3-0.1,0.4-0.2L115.1,88.2z M114.9,84c-0.1-0.1-0.2-0.2-0.4-0.2h-1.8l-0.7-1.3l0.9-0.9h2.2v2.2
			L114.9,84z M110.6,89.5l1,1h-1.9L110.6,89.5z M106.2,91.4h1.3l-1.3,1.3V91.4z M106.2,100.3V99l1.3,1.3H106.2z M110.6,102.1l-1-1
			h1.9L110.6,102.1z M115.1,100.3h-1.3l1.3-1.3V100.3z M115.1,97.7l-2.6,2.6h-3.7l-2.6-2.6V94l2.6-2.6h3.7l2.6,2.6V97.7z
			 M115.1,92.7l-1.3-1.3h1.3V92.7z M115.1,80.7h-1.3l1.3-1.3V80.7z M115.1,78.1l-2.6,2.6h-3.7l-2.6-2.6v-3.7l2.6-2.6h3.7l2.6,2.6
			V78.1z M115.1,73.1l-1.3-1.3h1.3V73.1z M118.8,76.3c0.1-0.1,0.2-0.2,0.2-0.4v-1.3l1.1,0.7c0.1,0.1,0.3,0.1,0.4,0l1.1-0.7v1.3
			c0,0.2,0.1,0.3,0.2,0.4l1.1,0.7l-1.1,0.7c-0.1,0.1-0.2,0.2-0.2,0.4v1.3l-1.1-0.7c-0.1,0-0.1-0.1-0.2-0.1s-0.2,0-0.2,0.1l-1.1,0.7
			V78c0-0.2-0.1-0.3-0.2-0.4l-1.1-0.7L118.8,76.3z M121.4,80.7h-1.9l1-1L121.4,80.7z M116,75.3l1,1l-0.4,0.4l0,0
			c-0.1,0-0.1,0.1-0.2,0.2l-0.4,0.4V75.3z M116,78.4l0.9-0.9l1.3,0.7v1.8c0,0.2,0.1,0.3,0.2,0.4l-0.2,0.2H116V78.4z M116,81.5h1.3
			l-1.3,1.3V81.5z M116,90.5v-1.3l1.3,1.3H116z M118.2,91.4l0.2,0.2c-0.1,0.1-0.2,0.2-0.2,0.4v1.8l-1.3,0.7l-0.9-0.9v-2.2H118.2z
			 M116,96.8v-1.9l1,1L116,96.8z M122,95.7c-0.1,0.1-0.2,0.2-0.2,0.4v1.3l-1.1-0.7c-0.1,0-0.1-0.1-0.2-0.1c-0.1,0-0.2,0-0.2,0.1
			l-1.1,0.7v-1.3c0-0.2-0.1-0.3-0.2-0.4l-1.1-0.7l1.1-0.7c0.1-0.1,0.2-0.2,0.2-0.4v-1.3l1.1,0.7c0.1,0.1,0.3,0.1,0.4,0l1.1-0.7V94
			c0,0.2,0.1,0.3,0.2,0.4l1.1,0.7L122,95.7z M119.5,91.4h1.9l-1,1L119.5,91.4z M124.9,96.8l-1-1l1-1V96.8z M124.9,93.6l-0.9,0.9
			l-1.3-0.8v-1.8c0-0.2-0.1-0.3-0.2-0.4l0.2-0.2h2.2V93.6z M124.9,90.5h-1.3l1.3-1.3V90.5z M124.9,87.9l-2.6,2.6h-3.7l-2.6-2.6v-3.7
			l2.6-2.6h3.7l2.6,2.6V87.9z M124.9,82.9l-1.3-1.3h1.3V82.9z M124.9,80.7h-2.2l-0.2-0.2c0.1-0.1,0.2-0.2,0.2-0.4v-1.8l1.3-0.7
			l0.9,0.9V80.7z M124.9,77.2l-1-1l1-1V77.2z M135.6,94.9l1,1l-1,1V94.9z M130.2,69.9l1,1h-1.9L130.2,69.9z M125.8,71.8h1.3
			l-1.3,1.3V71.8z M125.8,79.3l1.3,1.3h-1.3V79.3z M125.8,81.6h2.2l0.9,0.9l-0.7,1.3h-1.8c-0.2,0-0.3,0.1-0.4,0.2l-0.2-0.2V81.6z
			 M125.8,85.1l1,1l-1,1V85.1z M125.8,88.2L126,88c0.1,0.1,0.2,0.2,0.4,0.2h1.8l0.8,1.3l-0.9,0.9h-2.2V88.2z M125.8,91.4h1.3
			l-1.3,1.3V91.4z M125.8,100.3V99l1.3,1.3H125.8z M130.2,102.1l-1-1h1.9L130.2,102.1z M134.7,100.3h-1.3l1.3-1.3V100.3z
			 M134.7,91.4v1.3l-1.3-1.3H134.7z M134.7,94v3.7l-2.6,2.6h-3.7l-2.6-2.6V94l2.6-2.6h3.7L134.7,94z M131.2,90.5h-1.9l1-1
			L131.2,90.5z M131.8,84.7l-0.7,1.1c-0.1,0.1-0.1,0.3,0,0.4l0.7,1.1h-1.3c-0.2,0-0.3,0.1-0.4,0.2l-0.7,1.1l-0.7-1.1
			c-0.1-0.1-0.2-0.2-0.4-0.2h-1.3l0.7-1.1c0.1-0.1,0.1-0.3,0-0.4l-0.7-1.1h1.3c0.2,0,0.3-0.1,0.4-0.2l0.7-1.1l0.7,1.1
			c0.1,0.1,0.2,0.2,0.4,0.2H131.8z M130.2,82.5l-1-1h1.9L130.2,82.5z M134.7,80.7h-1.3l1.3-1.3V80.7z M134.7,78.1l-2.6,2.6h-3.7
			l-2.6-2.6v-3.7l2.6-2.6h3.7l2.6,2.6V78.1z M134.7,73.1l-1.3-1.3h1.3V73.1z M135.6,77.2v-1.9l1,1L135.6,77.2z"/>
		<path class="st1" d="M117.2,70.1c0,0.5,0.4,0.8,0.8,0.8h0.5c0.2,0.8,0.9,1.3,1.8,1.3c0.8,0,1.5-0.6,1.8-1.3h0.5
			c0.5,0,0.8-0.4,0.8-0.8v-1.3h-0.9v1.2h-1.2l0,0.4c0,0.5-0.4,0.9-0.9,0.9s-0.9-0.4-0.9-0.9l0-0.4h-1.2v-1.2h-0.9V70.1z"/>
		<path class="st1" d="M123.3,103.2v-1.3c0-0.5-0.4-0.8-0.8-0.8H122c-0.2-0.8-0.9-1.3-1.8-1.3c-0.8,0-1.5,0.6-1.8,1.3h-0.5
			c-0.5,0-0.8,0.4-0.8,0.8v1.3h0.9V102h1.2l0-0.4c0-0.5,0.4-0.9,0.9-0.9s0.9,0.4,0.9,0.9l0,0.4h1.2v1.2H123.3z"/>
		<path class="st1" d="M105.4,88.2v-0.5c0.8-0.2,1.3-0.9,1.3-1.8c0-0.8-0.6-1.5-1.3-1.8v-0.5c0-0.5-0.4-0.8-0.8-0.8h-1.3h-1.3
			c-0.5,0-0.8,0.4-0.8,0.8v0.5c-0.8,0.2-1.3,0.9-1.3,1.8c0,0.8,0.6,1.5,1.3,1.8v0.5c0,0.5,0.4,0.8,0.8,0.8h1.3h1.3
			C105,89.1,105.4,88.7,105.4,88.2z M104.5,88.2h-1.2H102V87l-0.4,0c-0.5,0-0.9-0.4-0.9-0.9c0-0.5,0.4-0.9,0.9-0.9l0.4,0v-1.2h1.2
			h1.2v1.2l0.4,0c0.5,0,0.9,0.4,0.9,0.9c0,0.5-0.4,0.9-0.9,0.9l-0.4,0V88.2z"/>
		<path class="st1" d="M135.5,83.8v0.5c-0.8,0.2-1.3,0.9-1.3,1.8c0,0.8,0.6,1.5,1.3,1.8v0.5c0,0.5,0.4,0.8,0.8,0.8h1.3v-0.9h-1.2V87
			l-0.4,0c-0.5,0-0.9-0.4-0.9-0.9c0-0.5,0.4-0.9,0.9-0.9l0.4,0v-1.2h1.2V83h-1.3C135.9,83,135.5,83.4,135.5,83.8z"/>
		<path class="st1" d="M135.6,108.4v-2.7c0-0.2-0.2-0.4-0.4-0.4h-2.7l-1.9-1.9c-0.1-0.1-0.2-0.1-0.3-0.1c-0.1,0-0.2,0-0.3,0.1
			l-1.9,1.9h-2.7c-0.2,0-0.4,0.2-0.4,0.4v2.7l-1.9,1.9l-0.3-0.2v-1.8c0-0.2-0.1-0.3-0.2-0.4c-0.1-0.1-0.3-0.1-0.4,0l-1.6,0.9
			l-1.6-0.9c-0.1-0.1-0.3-0.1-0.4,0c-0.1,0.1-0.2,0.2-0.2,0.4v1.8l-0.3,0.2l-1.8-1.8v-2.7c0-0.2-0.2-0.4-0.4-0.4h-2.7l-1.9-1.9
			c-0.1-0.1-0.2-0.1-0.3-0.1c-0.1,0-0.2,0-0.3,0.1l-1.9,1.9h-2.7c-0.2,0-0.4,0.2-0.4,0.4v2.7l-1.9,1.9c-0.1,0.1-0.1,0.2-0.1,0.3
			c0,0.1,0,0.2,0.1,0.3l1.9,1.9v2.7c0,0.2,0.2,0.4,0.4,0.4h2.7l1.9,1.9l-0.2,0.3h-1.8c-0.2,0-0.3,0.1-0.4,0.2
			c-0.1,0.1-0.1,0.3,0,0.4l0.9,1.6l-0.9,1.6c-0.1,0.1-0.1,0.3,0,0.4c0.1,0.1,0.2,0.2,0.4,0.2h1.8l0.2,0.3l-1.9,1.9h-2.7
			c-0.2,0-0.4,0.2-0.4,0.4v2.7l-1.9,1.9c-0.1,0.1-0.1,0.2-0.1,0.3c0,0.1,0,0.2,0.1,0.3l1.9,1.9v2.7c0,0.2,0.2,0.4,0.4,0.4h2.7
			l1.9,1.9c0.1,0.1,0.2,0.1,0.3,0.1c0.1,0,0.2,0,0.3-0.1l1.9-1.9h2.7c0.2,0,0.4-0.2,0.4-0.4v-2.7l1.9-1.9l0.3,0.2v1.8
			c0,0.2,0.1,0.3,0.2,0.4c0.1,0.1,0.3,0.1,0.4,0l1.6-0.9l1.6,0.9c0.1,0,0.1,0.1,0.2,0.1c0.1,0,0.2,0,0.2-0.1
			c0.1-0.1,0.2-0.2,0.2-0.4v-1.8l0.3-0.2l1.9,1.9v2.7c0,0.2,0.2,0.4,0.4,0.4h2.7l1.9,1.9c0.1,0.1,0.2,0.1,0.3,0.1
			c0.1,0,0.2,0,0.3-0.1l1.9-1.9h2.7c0.2,0,0.4-0.2,0.4-0.4v-2.7l1.9-1.9c0.1-0.1,0.1-0.2,0.1-0.3c0-0.1,0-0.2-0.1-0.3l-1.9-1.9v-2.7
			c0-0.2-0.2-0.4-0.4-0.4h-2.7l-1.9-1.9l0.2-0.3h1.8c0.2,0,0.3-0.1,0.4-0.2c0.1-0.1,0.1-0.3,0-0.4l-0.9-1.6l0.9-1.6
			c0.1-0.1,0.1-0.3,0-0.4c-0.1-0.1-0.2-0.2-0.4-0.2h-1.8l-0.2-0.3l1.9-1.9h2.7c0.2,0,0.4-0.2,0.4-0.4v-2.7l1.9-1.9
			c0.1-0.1,0.1-0.2,0.1-0.3c0-0.1,0-0.2-0.1-0.3L135.6,108.4z M105.3,111.6l-1-1l1-1V111.6z M105.3,131.2l-1-1l1-1V131.2z
			 M110.6,104.3l1,1h-1.9L110.6,104.3z M106.2,106.2h1.3l-1.3,1.3V106.2z M106.2,115.1v-1.3l1.3,1.3H106.2z M109.7,116h1.9l-0.4,0.4
			c-0.1,0-0.1,0.1-0.1,0.1l-0.4,0.4L109.7,116z M109,121.8l0.7-1.1c0.1-0.1,0.1-0.3,0-0.4l-0.7-1.1h1.3c0.2,0,0.3-0.1,0.4-0.2
			l0.7-1.1l0.7,1.1c0.1,0.1,0.2,0.2,0.4,0.2h1.3l-0.7,1.1c-0.1,0.1-0.1,0.3,0,0.4l0.7,1.1h-1.3c-0.2,0-0.3,0.1-0.4,0.2l-0.7,1.1
			l-0.7-1.1c-0.1-0.1-0.2-0.2-0.4-0.2H109z M114.1,120.4l1-1v1.9L114.1,120.4z M115.1,122.6v2.2h-2.2l-0.9-0.9l0.7-1.3h1.8
			c0.2,0,0.3-0.1,0.4-0.2L115.1,122.6z M114.9,118.4c-0.1-0.1-0.2-0.2-0.4-0.2h-1.8l-0.7-1.3l0.9-0.9h2.2v2.2L114.9,118.4z
			 M110.6,123.9l1,1h-1.9L110.6,123.9z M106.2,125.8h1.3l-1.3,1.3V125.8z M106.2,134.7v-1.3l1.3,1.3H106.2z M110.6,136.6l-1-1h1.9
			L110.6,136.6z M115.1,134.7h-1.3l1.3-1.3V134.7z M115.1,132.1l-2.6,2.6h-3.7l-2.6-2.6v-3.7l2.6-2.6h3.7l2.6,2.6V132.1z
			 M115.1,127.1l-1.3-1.3h1.3V127.1z M115.1,115.1h-1.3l1.3-1.3V115.1z M115.1,112.5l-2.6,2.6h-3.7l-2.6-2.6v-3.7l2.6-2.6h3.7
			l2.6,2.6V112.5z M115.1,107.5l-1.3-1.3h1.3V107.5z M118.8,110.7c0.1-0.1,0.2-0.2,0.2-0.4V109l1.1,0.7c0.1,0.1,0.3,0.1,0.4,0
			l1.1-0.7v1.3c0,0.2,0.1,0.3,0.2,0.4l1.1,0.7L122,112c-0.1,0.1-0.2,0.2-0.2,0.4v1.3l-1.1-0.7c-0.1,0-0.1-0.1-0.2-0.1
			s-0.2,0-0.2,0.1l-1.1,0.7v-1.3c0-0.2-0.1-0.3-0.2-0.4l-1.1-0.7L118.8,110.7z M121.4,115.1h-1.9l1-1L121.4,115.1z M116,109.7l1,1
			l-0.4,0.4l0,0c-0.1,0-0.1,0.1-0.2,0.2l-0.4,0.4V109.7z M116,112.8l0.9-0.9l1.3,0.7v1.8c0,0.2,0.1,0.3,0.2,0.4l-0.2,0.2H116V112.8z
			 M116,116h1.3l-1.3,1.3V116z M116,124.9v-1.3l1.3,1.3H116z M118.2,125.8l0.2,0.2c-0.1,0.1-0.2,0.2-0.2,0.4v1.8l-1.3,0.7L116,128
			v-2.2H118.2z M116,131.2v-1.9l1,1L116,131.2z M122,130.1c-0.1,0.1-0.2,0.2-0.2,0.4v1.3l-1.1-0.7c-0.1,0-0.1-0.1-0.2-0.1
			c-0.1,0-0.2,0-0.2,0.1l-1.1,0.7v-1.3c0-0.2-0.1-0.3-0.2-0.4l-1.1-0.7l1.1-0.7c0.1-0.1,0.2-0.2,0.2-0.4v-1.3l1.1,0.7
			c0.1,0.1,0.3,0.1,0.4,0l1.1-0.7v1.3c0,0.2,0.1,0.3,0.2,0.4l1.1,0.7L122,130.1z M119.5,125.8h1.9l-1,1L119.5,125.8z M124.9,131.2
			l-1-1l1-1V131.2z M124.9,128l-0.9,0.9l-1.3-0.8v-1.8c0-0.2-0.1-0.3-0.2-0.4l0.2-0.2h2.2V128z M124.9,124.9h-1.3l1.3-1.3V124.9z
			 M124.9,122.3l-2.6,2.6h-3.7l-2.6-2.6v-3.7l2.6-2.6h3.7l2.6,2.6V122.3z M124.9,117.3l-1.3-1.3h1.3V117.3z M124.9,115.1h-2.2
			l-0.2-0.2c0.1-0.1,0.2-0.2,0.2-0.4v-1.8l1.3-0.7l0.9,0.9V115.1z M124.9,111.6l-1-1l1-1V111.6z M135.6,129.3l1,1l-1,1V129.3z
			 M130.2,104.3l1,1h-1.9L130.2,104.3z M125.8,106.2h1.3l-1.3,1.3V106.2z M125.8,113.7l1.3,1.3h-1.3V113.7z M125.8,116h2.2l0.9,0.9
			l-0.7,1.3h-1.8c-0.2,0-0.3,0.1-0.4,0.2l-0.2-0.2V116z M125.8,119.5l1,1l-1,1V119.5z M125.8,122.6l0.2-0.2c0.1,0.1,0.2,0.2,0.4,0.2
			h1.8l0.8,1.3l-0.9,0.9h-2.2V122.6z M125.8,125.8h1.3l-1.3,1.3V125.8z M125.8,134.7v-1.3l1.3,1.3H125.8z M130.2,136.6l-1-1h1.9
			L130.2,136.6z M134.7,134.7h-1.3l1.3-1.3V134.7z M134.7,125.8v1.3l-1.3-1.3H134.7z M134.7,128.4v3.7l-2.6,2.6h-3.7l-2.6-2.6v-3.7
			l2.6-2.6h3.7L134.7,128.4z M131.2,124.9h-1.9l1-1L131.2,124.9z M131.8,119.1l-0.7,1.1c-0.1,0.1-0.1,0.3,0,0.4l0.7,1.1h-1.3
			c-0.2,0-0.3,0.1-0.4,0.2l-0.7,1.1l-0.7-1.1c-0.1-0.1-0.2-0.2-0.4-0.2h-1.3l0.7-1.1c0.1-0.1,0.1-0.3,0-0.4l-0.7-1.1h1.3
			c0.2,0,0.3-0.1,0.4-0.2l0.7-1.1l0.7,1.1c0.1,0.1,0.2,0.2,0.4,0.2H131.8z M130.2,116.9l-1-1h1.9L130.2,116.9z M134.7,115.1h-1.3
			l1.3-1.3V115.1z M134.7,112.5l-2.6,2.6h-3.7l-2.6-2.6v-3.7l2.6-2.6h3.7l2.6,2.6V112.5z M134.7,107.5l-1.3-1.3h1.3V107.5z
			 M135.6,111.6v-1.9l1,1L135.6,111.6z"/>
		<path class="st1" d="M117.2,104.5c0,0.5,0.4,0.8,0.8,0.8h0.5c0.2,0.8,0.9,1.3,1.8,1.3c0.8,0,1.5-0.6,1.8-1.3h0.5
			c0.5,0,0.8-0.4,0.8-0.8v-1.3h-0.9v1.2h-1.2l0,0.4c0,0.5-0.4,0.9-0.9,0.9s-0.9-0.4-0.9-0.9l0-0.4h-1.2v-1.2h-0.9V104.5z"/>
		<path class="st1" d="M122.5,135.5H122c-0.2-0.8-0.9-1.3-1.8-1.3c-0.8,0-1.5,0.6-1.8,1.3h-0.5c-0.5,0-0.8,0.4-0.8,0.8v1.3h0.9v-1.2
			h1.2l0-0.4c0-0.5,0.4-0.9,0.9-0.9s0.9,0.4,0.9,0.9l0,0.4h1.2v1.2h0.9v-1.3C123.3,135.9,123,135.5,122.5,135.5z"/>
		<path class="st1" d="M105.4,122.7v-0.5c0.8-0.2,1.3-0.9,1.3-1.8c0-0.8-0.6-1.5-1.3-1.8v-0.5c0-0.5-0.4-0.8-0.8-0.8h-1.3h-1.3
			c-0.5,0-0.8,0.4-0.8,0.8v0.5c-0.8,0.2-1.3,0.9-1.3,1.8c0,0.8,0.6,1.5,1.3,1.8v0.5c0,0.5,0.4,0.8,0.8,0.8h1.3h1.3
			C105,123.5,105.4,123.1,105.4,122.7z M104.5,122.6h-1.2H102v-1.2l-0.4,0c-0.5,0-0.9-0.4-0.9-0.9c0-0.5,0.4-0.9,0.9-0.9l0.4,0v-1.2
			h1.2h1.2v1.2l0.4,0c0.5,0,0.9,0.4,0.9,0.9c0,0.5-0.4,0.9-0.9,0.9l-0.4,0V122.6z"/>
		<path class="st1" d="M135.5,118.2v0.5c-0.8,0.2-1.3,0.9-1.3,1.8c0,0.8,0.6,1.5,1.3,1.8v0.5c0,0.5,0.4,0.8,0.8,0.8h1.3v-0.9h-1.2
			v-1.2l-0.4,0c-0.5,0-0.9-0.4-0.9-0.9c0-0.5,0.4-0.9,0.9-0.9l0.4,0v-1.2h1.2v-0.9h-1.3C135.9,117.4,135.5,117.8,135.5,118.2z"/>
		<path class="st1" d="M101.2,93.6v-2.7c0-0.2-0.2-0.4-0.4-0.4h-2.7l-1.9-1.9l0.2-0.3h1.8c0.2,0,0.3-0.1,0.4-0.2
			c0.1-0.1,0.1-0.3,0-0.4L97.7,86l0.9-1.6c0.1-0.1,0.1-0.3,0-0.4c-0.1-0.1-0.2-0.2-0.4-0.2h-1.8l-0.2-0.3l1.9-1.9h2.7
			c0.2,0,0.4-0.2,0.4-0.4v-2.7l1.9-1.9c0.1-0.1,0.1-0.2,0.1-0.3s0-0.2-0.1-0.3l-1.9-1.9v-2.7c0-0.2-0.2-0.4-0.4-0.4h-2.7L96.2,69
			c-0.1-0.1-0.2-0.1-0.3-0.1s-0.2,0-0.3,0.1l-1.9,1.9h-2.7c-0.2,0-0.4,0.2-0.4,0.4V74l-1.9,1.9l-0.3-0.2v-1.8c0-0.2-0.1-0.3-0.2-0.4
			c-0.1-0.1-0.3-0.1-0.4,0L86,74.4l-1.6-0.9c-0.1-0.1-0.3-0.1-0.4,0c-0.1,0.1-0.2,0.2-0.2,0.4v1.8l-0.3,0.2L81.6,74v-2.7
			c0-0.2-0.2-0.4-0.4-0.4h-2.7L76.5,69c-0.1-0.1-0.2-0.1-0.3-0.1c-0.1,0-0.2,0-0.3,0.1L74,70.9h-2.7c-0.2,0-0.4,0.2-0.4,0.4V74
			L69,75.9c-0.1,0.1-0.1,0.2-0.1,0.3s0,0.2,0.1,0.3l1.9,1.9v2.7c0,0.2,0.2,0.4,0.4,0.4H74l1.9,1.9l-0.2,0.3h-1.8
			c-0.2,0-0.3,0.1-0.4,0.2c-0.1,0.1-0.1,0.3,0,0.4l0.9,1.6l-0.9,1.6c-0.1,0.1-0.1,0.3,0,0.4c0.1,0.1,0.2,0.2,0.4,0.2h1.8l0.2,0.3
			L74,90.5h-2.7c-0.2,0-0.4,0.2-0.4,0.4v2.7L69,95.5c-0.1,0.1-0.1,0.2-0.1,0.3s0,0.2,0.1,0.3l1.9,1.9v2.7c0,0.2,0.2,0.4,0.4,0.4H74
			l1.9,1.9c0.1,0.1,0.2,0.1,0.3,0.1c0.1,0,0.2,0,0.3-0.1l1.9-1.9h2.7c0.2,0,0.4-0.2,0.4-0.4v-2.7l1.9-1.9l0.3,0.2v1.8
			c0,0.2,0.1,0.3,0.2,0.4c0.1,0.1,0.3,0.1,0.4,0l1.6-0.9l1.6,0.9c0.1,0,0.1,0.1,0.2,0.1s0.2,0,0.2-0.1c0.1-0.1,0.2-0.2,0.2-0.4v-1.8
			l0.3-0.2l1.9,1.9v2.7c0,0.2,0.2,0.4,0.4,0.4h2.7l1.9,1.9c0.1,0.1,0.2,0.1,0.3,0.1c0.1,0,0.2,0,0.3-0.1l1.9-1.9h2.7
			c0.2,0,0.4-0.2,0.4-0.4v-2.7l1.9-1.9c0.1-0.1,0.1-0.2,0.1-0.3s0-0.2-0.1-0.3L101.2,93.6z M101.2,75.3l1,1l-1,1V75.3z M70.9,77.2
			l-1-1l1-1V77.2z M70.9,96.8l-1-1l1-1V96.8z M76.2,69.9l1,1h-1.9L76.2,69.9z M71.8,71.8h1.3l-1.3,1.3V71.8z M71.8,80.7v-1.3
			l1.3,1.3H71.8z M75.3,81.6h1.9L76.7,82c-0.1,0-0.1,0.1-0.1,0.1l-0.4,0.4L75.3,81.6z M74.6,87.4l0.7-1.1c0.1-0.1,0.1-0.3,0-0.4
			l-0.7-1.1h1.3c0.2,0,0.3-0.1,0.4-0.2l0.7-1.1l0.7,1.1c0.1,0.1,0.2,0.2,0.4,0.2h1.3l-0.7,1.1c-0.1,0.1-0.1,0.3,0,0.4l0.7,1.1H78
			c-0.2,0-0.3,0.1-0.4,0.2L77,88.7l-0.7-1.1c-0.1-0.1-0.2-0.2-0.4-0.2H74.6z M79.7,86l1-1V87L79.7,86z M80.7,88.2v2.2h-2.2l-0.9-0.9
			l0.7-1.3h1.8c0.2,0,0.3-0.1,0.4-0.2L80.7,88.2z M80.5,84c-0.1-0.1-0.2-0.2-0.4-0.2h-1.8l-0.7-1.3l0.9-0.9h2.2v2.2L80.5,84z
			 M76.2,89.5l1,1h-1.9L76.2,89.5z M71.8,91.4h1.3l-1.3,1.3V91.4z M71.8,100.3V99l1.3,1.3H71.8z M76.2,102.1l-1-1h1.9L76.2,102.1z
			 M80.7,100.3h-1.3l1.3-1.3V100.3z M80.7,97.7l-2.6,2.6h-3.7l-2.6-2.6V94l2.6-2.6h3.7l2.6,2.6V97.7z M80.7,92.7l-1.3-1.3h1.3V92.7z
			 M80.7,80.7h-1.3l1.3-1.3V80.7z M80.7,78.1l-2.6,2.6h-3.7l-2.6-2.6v-3.7l2.6-2.6h3.7l2.6,2.6V78.1z M80.7,73.1l-1.3-1.3h1.3V73.1z
			 M84.4,76.3c0.1-0.1,0.2-0.2,0.2-0.4v-1.3l1.1,0.7c0.1,0.1,0.3,0.1,0.4,0l1.1-0.7v1.3c0,0.2,0.1,0.3,0.2,0.4l1.1,0.7l-1.1,0.7
			c-0.1,0.1-0.2,0.2-0.2,0.4v1.3l-1.1-0.7c-0.1,0-0.1-0.1-0.2-0.1c-0.1,0-0.2,0-0.2,0.1l-1.1,0.7V78c0-0.2-0.1-0.3-0.2-0.4L83.3,77
			L84.4,76.3z M87,80.7h-1.9l1-1L87,80.7z M81.6,75.3l1,1l-0.4,0.4l0,0c-0.1,0-0.1,0.1-0.2,0.2l-0.4,0.4V75.3z M81.6,78.4l0.9-0.9
			l1.3,0.7v1.8c0,0.2,0.1,0.3,0.2,0.4l-0.2,0.2h-2.2V78.4z M81.5,81.5h1.3l-1.3,1.3V81.5z M81.5,90.5v-1.3l1.3,1.3H81.5z M83.8,91.4
			l0.2,0.2c-0.1,0.1-0.2,0.2-0.2,0.4v1.8l-1.3,0.7l-0.9-0.9v-2.2H83.8z M81.6,96.8v-1.9l1,1L81.6,96.8z M87.6,95.7
			c-0.1,0.1-0.2,0.2-0.2,0.4v1.3l-1.1-0.7c-0.1,0-0.1-0.1-0.2-0.1c-0.1,0-0.2,0-0.2,0.1l-1.1,0.7v-1.3c0-0.2-0.1-0.3-0.2-0.4
			l-1.1-0.7l1.1-0.7c0.1-0.1,0.2-0.2,0.2-0.4v-1.3l1.1,0.7c0.1,0.1,0.3,0.1,0.4,0l1.1-0.7V94c0,0.2,0.1,0.3,0.2,0.4l1.1,0.7
			L87.6,95.7z M85.1,91.4H87l-1,1L85.1,91.4z M90.5,96.8l-1-1l1-1V96.8z M90.5,93.6l-0.9,0.9l-1.3-0.8v-1.8c0-0.2-0.1-0.3-0.2-0.4
			l0.2-0.2h2.2V93.6z M90.5,90.5h-1.3l1.3-1.3V90.5z M90.5,87.9l-2.6,2.6h-3.7l-2.6-2.6v-3.7l2.6-2.6h3.7l2.6,2.6V87.9z M90.5,82.9
			l-1.3-1.3h1.3V82.9z M90.5,80.7h-2.2L88,80.5c0.1-0.1,0.2-0.2,0.2-0.4v-1.8l1.3-0.7l0.9,0.9V80.7z M90.5,77.2l-1-1l1-1V77.2z
			 M96.8,90.5h-1.9l1-1L96.8,90.5z M97.4,84.7l-0.7,1.1c-0.1,0.1-0.1,0.3,0,0.4l0.7,1.1h-1.3c-0.2,0-0.3,0.1-0.4,0.2l-0.7,1.1
			l-0.7-1.1c-0.1-0.1-0.2-0.2-0.4-0.2h-1.3l0.7-1.1c0.1-0.1,0.1-0.3,0-0.4l-0.7-1.1H94c0.2,0,0.3-0.1,0.4-0.2l0.7-1.1l0.7,1.1
			c0.1,0.1,0.2,0.2,0.4,0.2H97.4z M95.8,82.5l-1-1h1.9L95.8,82.5z M100.3,80.7H99l1.3-1.3V80.7z M100.3,71.8v1.3L99,71.8H100.3z
			 M95.8,69.9l1,1h-1.9L95.8,69.9z M91.4,71.8h1.3l-1.3,1.3V71.8z M91.4,74.4l2.6-2.6h3.7l2.6,2.6v3.7l-2.6,2.6H94l-2.6-2.6V74.4z
			 M91.4,79.3l1.3,1.3h-1.3V79.3z M91.4,81.6h2.2l0.9,0.9l-0.7,1.3h-1.8c-0.2,0-0.3,0.1-0.4,0.2l-0.2-0.2V81.6z M91.4,85.1l1,1l-1,1
			V85.1z M91.4,88.2l0.2-0.2c0.1,0.1,0.2,0.2,0.4,0.2h1.8l0.8,1.3l-0.9,0.9h-2.2V88.2z M91.4,91.4h1.3l-1.3,1.3V91.4z M91.4,100.3
			V99l1.3,1.3H91.4z M95.8,102.1l-1-1h1.9L95.8,102.1z M100.3,100.3H99l1.3-1.3V100.3z M100.3,97.7l-2.6,2.6H94l-2.6-2.6V94l2.6-2.6
			h3.7l2.6,2.6V97.7z M100.3,92.7L99,91.4h1.3V92.7z M101.2,96.8v-1.9l1,1L101.2,96.8z"/>
		<path class="st1" d="M82.8,70.1c0,0.5,0.4,0.8,0.8,0.8h0.5c0.2,0.8,0.9,1.3,1.8,1.3c0.8,0,1.5-0.6,1.8-1.3h0.5
			c0.5,0,0.8-0.4,0.8-0.8v-1.3H88v1.2h-1.2l0,0.4c0,0.5-0.4,0.9-0.9,0.9c-0.5,0-0.9-0.4-0.9-0.9l0-0.4h-1.2v-1.2h-0.9V70.1z"/>
		<path class="st1" d="M88.9,103.2v-1.3c0-0.5-0.4-0.8-0.8-0.8h-0.5c-0.2-0.8-0.9-1.3-1.8-1.3c-0.8,0-1.5,0.6-1.8,1.3h-0.5
			c-0.5,0-0.8,0.4-0.8,0.8v1.3h0.9V102h1.2l0-0.4c0-0.5,0.4-0.9,0.9-0.9c0.5,0,0.9,0.4,0.9,0.9l0,0.4H88v1.2H88.9z"/>
		<path class="st1" d="M71,88.2v-0.5c0.8-0.2,1.3-0.9,1.3-1.8c0-0.8-0.6-1.5-1.3-1.8v-0.5c0-0.5-0.4-0.8-0.8-0.8h-1.3h-1.3
			c-0.5,0-0.8,0.4-0.8,0.8v0.5c-0.8,0.2-1.3,0.9-1.3,1.8c0,0.8,0.6,1.5,1.3,1.8v0.5c0,0.5,0.4,0.8,0.8,0.8h1.3h1.3
			C70.6,89.1,71,88.7,71,88.2z M70.1,88.2h-1.2h-1.2V87l-0.4,0c-0.5,0-0.9-0.4-0.9-0.9c0-0.5,0.4-0.9,0.9-0.9l0.4,0v-1.2h1.2h1.2
			v1.2l0.4,0c0.5,0,0.9,0.4,0.9,0.9c0,0.5-0.4,0.9-0.9,0.9l-0.4,0V88.2z"/>
		<path class="st1" d="M101.2,128v-2.7c0-0.2-0.2-0.4-0.4-0.4h-2.7l-1.9-1.9l0.2-0.3h1.8c0.2,0,0.3-0.1,0.4-0.2
			c0.1-0.1,0.1-0.3,0-0.4l-0.9-1.6l0.9-1.6c0.1-0.1,0.1-0.3,0-0.4c-0.1-0.1-0.2-0.2-0.4-0.2h-1.8l-0.2-0.3l1.9-1.9h2.7
			c0.2,0,0.4-0.2,0.4-0.4v-2.7l1.9-1.9c0.1-0.1,0.1-0.2,0.1-0.3c0-0.1,0-0.2-0.1-0.3l-1.9-1.9v-2.7c0-0.2-0.2-0.4-0.4-0.4h-2.7
			l-1.9-1.9c-0.1-0.1-0.2-0.1-0.3-0.1s-0.2,0-0.3,0.1l-1.9,1.9h-2.7c-0.2,0-0.4,0.2-0.4,0.4v2.7l-1.9,1.9l-0.3-0.2v-1.8
			c0-0.2-0.1-0.3-0.2-0.4c-0.1-0.1-0.3-0.1-0.4,0l-1.6,0.9l-1.6-0.9c-0.1-0.1-0.3-0.1-0.4,0c-0.1,0.1-0.2,0.2-0.2,0.4v1.8l-0.3,0.2
			l-1.8-1.8v-2.7c0-0.2-0.2-0.4-0.4-0.4h-2.7l-1.9-1.9c-0.1-0.1-0.2-0.1-0.3-0.1c-0.1,0-0.2,0-0.3,0.1l-1.9,1.9h-2.7
			c-0.2,0-0.4,0.2-0.4,0.4v2.7l-1.9,1.9c-0.1,0.1-0.1,0.2-0.1,0.3c0,0.1,0,0.2,0.1,0.3l1.9,1.9v2.7c0,0.2,0.2,0.4,0.4,0.4H74
			l1.9,1.9l-0.2,0.3h-1.8c-0.2,0-0.3,0.1-0.4,0.2c-0.1,0.1-0.1,0.3,0,0.4l0.9,1.6l-0.9,1.6c-0.1,0.1-0.1,0.3,0,0.4
			c0.1,0.1,0.2,0.2,0.4,0.2h1.8l0.2,0.3l-1.9,1.9h-2.7c-0.2,0-0.4,0.2-0.4,0.4v2.7l-1.9,1.9c-0.1,0.1-0.1,0.2-0.1,0.3
			c0,0.1,0,0.2,0.1,0.3l1.9,1.9v2.7c0,0.2,0.2,0.4,0.4,0.4H74l1.9,1.9c0.1,0.1,0.2,0.1,0.3,0.1c0.1,0,0.2,0,0.3-0.1l1.9-1.9h2.7
			c0.2,0,0.4-0.2,0.4-0.4v-2.7l1.9-1.9l0.3,0.2v1.8c0,0.2,0.1,0.3,0.2,0.4c0.1,0.1,0.3,0.1,0.4,0l1.6-0.9l1.6,0.9
			c0.1,0,0.1,0.1,0.2,0.1s0.2,0,0.2-0.1c0.1-0.1,0.2-0.2,0.2-0.4v-1.8l0.3-0.2l1.9,1.9v2.7c0,0.2,0.2,0.4,0.4,0.4h2.7l1.9,1.9
			c0.1,0.1,0.2,0.1,0.3,0.1c0.1,0,0.2,0,0.3-0.1l1.9-1.9h2.7c0.2,0,0.4-0.2,0.4-0.4v-2.7l1.9-1.9c0.1-0.1,0.1-0.2,0.1-0.3
			c0-0.1,0-0.2-0.1-0.3L101.2,128z M101.2,109.7l1,1l-1,1V109.7z M70.9,111.6l-1-1l1-1V111.6z M70.9,131.2l-1-1l1-1V131.2z
			 M76.2,104.3l1,1h-1.9L76.2,104.3z M71.8,106.2h1.3l-1.3,1.3V106.2z M71.8,115.1v-1.3l1.3,1.3H71.8z M75.3,116h1.9l-0.4,0.4
			c-0.1,0-0.1,0.1-0.1,0.1l-0.4,0.4L75.3,116z M74.6,121.8l0.7-1.1c0.1-0.1,0.1-0.3,0-0.4l-0.7-1.1h1.3c0.2,0,0.3-0.1,0.4-0.2
			l0.7-1.1l0.7,1.1c0.1,0.1,0.2,0.2,0.4,0.2h1.3l-0.7,1.1c-0.1,0.1-0.1,0.3,0,0.4l0.7,1.1H78c-0.2,0-0.3,0.1-0.4,0.2l-0.7,1.1
			l-0.7-1.1c-0.1-0.1-0.2-0.2-0.4-0.2H74.6z M79.7,120.4l1-1v1.9L79.7,120.4z M80.7,122.6v2.2h-2.2l-0.9-0.9l0.7-1.3h1.8
			c0.2,0,0.3-0.1,0.4-0.2L80.7,122.6z M80.5,118.4c-0.1-0.1-0.2-0.2-0.4-0.2h-1.8l-0.7-1.3l0.9-0.9h2.2v2.2L80.5,118.4z M76.2,123.9
			l1,1h-1.9L76.2,123.9z M71.8,125.8h1.3l-1.3,1.3V125.8z M71.8,134.7v-1.3l1.3,1.3H71.8z M76.2,136.6l-1-1h1.9L76.2,136.6z
			 M80.7,134.7h-1.3l1.3-1.3V134.7z M80.7,132.1l-2.6,2.6h-3.7l-2.6-2.6v-3.7l2.6-2.6h3.7l2.6,2.6V132.1z M80.7,127.1l-1.3-1.3h1.3
			V127.1z M80.7,115.1h-1.3l1.3-1.3V115.1z M80.7,112.5l-2.6,2.6h-3.7l-2.6-2.6v-3.7l2.6-2.6h3.7l2.6,2.6V112.5z M80.7,107.5
			l-1.3-1.3h1.3V107.5z M84.4,110.7c0.1-0.1,0.2-0.2,0.2-0.4V109l1.1,0.7c0.1,0.1,0.3,0.1,0.4,0l1.1-0.7v1.3c0,0.2,0.1,0.3,0.2,0.4
			l1.1,0.7l-1.1,0.7c-0.1,0.1-0.2,0.2-0.2,0.4v1.3l-1.1-0.7c-0.1,0-0.1-0.1-0.2-0.1c-0.1,0-0.2,0-0.2,0.1l-1.1,0.7v-1.3
			c0-0.2-0.1-0.3-0.2-0.4l-1.1-0.7L84.4,110.7z M87,115.1h-1.9l1-1L87,115.1z M81.6,109.7l1,1l-0.4,0.4l0,0c-0.1,0-0.1,0.1-0.2,0.2
			l-0.4,0.4V109.7z M81.6,112.8l0.9-0.9l1.3,0.7v1.8c0,0.2,0.1,0.3,0.2,0.4l-0.2,0.2h-2.2V112.8z M81.5,116h1.3l-1.3,1.3V116z
			 M81.5,124.9v-1.3l1.3,1.3H81.5z M83.8,125.8L84,126c-0.1,0.1-0.2,0.2-0.2,0.4v1.8l-1.3,0.7l-0.9-0.9v-2.2H83.8z M81.6,131.2v-1.9
			l1,1L81.6,131.2z M87.6,130.1c-0.1,0.1-0.2,0.2-0.2,0.4v1.3l-1.1-0.7c-0.1,0-0.1-0.1-0.2-0.1c-0.1,0-0.2,0-0.2,0.1l-1.1,0.7v-1.3
			c0-0.2-0.1-0.3-0.2-0.4l-1.1-0.7l1.1-0.7c0.1-0.1,0.2-0.2,0.2-0.4v-1.3l1.1,0.7c0.1,0.1,0.3,0.1,0.4,0l1.1-0.7v1.3
			c0,0.2,0.1,0.3,0.2,0.4l1.1,0.7L87.6,130.1z M85.1,125.8H87l-1,1L85.1,125.8z M90.5,131.2l-1-1l1-1V131.2z M90.5,128l-0.9,0.9
			l-1.3-0.8v-1.8c0-0.2-0.1-0.3-0.2-0.4l0.2-0.2h2.2V128z M90.5,124.9h-1.3l1.3-1.3V124.9z M90.5,122.3l-2.6,2.6h-3.7l-2.6-2.6v-3.7
			l2.6-2.6h3.7l2.6,2.6V122.3z M90.5,117.3l-1.3-1.3h1.3V117.3z M90.5,115.1h-2.2l-0.2-0.2c0.1-0.1,0.2-0.2,0.2-0.4v-1.8l1.3-0.7
			l0.9,0.9V115.1z M90.5,111.6l-1-1l1-1V111.6z M96.8,124.9h-1.9l1-1L96.8,124.9z M97.4,119.1l-0.7,1.1c-0.1,0.1-0.1,0.3,0,0.4
			l0.7,1.1h-1.3c-0.2,0-0.3,0.1-0.4,0.2l-0.7,1.1l-0.7-1.1c-0.1-0.1-0.2-0.2-0.4-0.2h-1.3l0.7-1.1c0.1-0.1,0.1-0.3,0-0.4l-0.7-1.1
			H94c0.2,0,0.3-0.1,0.4-0.2l0.7-1.1l0.7,1.1c0.1,0.1,0.2,0.2,0.4,0.2H97.4z M95.8,116.9l-1-1h1.9L95.8,116.9z M100.3,115.1H99
			l1.3-1.3V115.1z M100.3,106.2v1.3l-1.3-1.3H100.3z M95.8,104.3l1,1h-1.9L95.8,104.3z M91.4,106.2h1.3l-1.3,1.3V106.2z M91.4,108.8
			l2.6-2.6h3.7l2.6,2.6v3.7l-2.6,2.6H94l-2.6-2.6V108.8z M91.4,113.7l1.3,1.3h-1.3V113.7z M91.4,116h2.2l0.9,0.9l-0.7,1.3h-1.8
			c-0.2,0-0.3,0.1-0.4,0.2l-0.2-0.2V116z M91.4,119.5l1,1l-1,1V119.5z M91.4,122.6l0.2-0.2c0.1,0.1,0.2,0.2,0.4,0.2h1.8l0.8,1.3
			l-0.9,0.9h-2.2V122.6z M91.4,125.8h1.3l-1.3,1.3V125.8z M91.4,134.7v-1.3l1.3,1.3H91.4z M95.8,136.6l-1-1h1.9L95.8,136.6z
			 M100.3,134.7H99l1.3-1.3V134.7z M100.3,132.1l-2.6,2.6H94l-2.6-2.6v-3.7l2.6-2.6h3.7l2.6,2.6V132.1z M100.3,127.1l-1.3-1.3h1.3
			V127.1z M101.2,131.2v-1.9l1,1L101.2,131.2z"/>
		<path class="st1" d="M82.8,104.5c0,0.5,0.4,0.8,0.8,0.8h0.5c0.2,0.8,0.9,1.3,1.8,1.3c0.8,0,1.5-0.6,1.8-1.3h0.5
			c0.5,0,0.8-0.4,0.8-0.8v-1.3H88v1.2h-1.2l0,0.4c0,0.5-0.4,0.9-0.9,0.9c-0.5,0-0.9-0.4-0.9-0.9l0-0.4h-1.2v-1.2h-0.9V104.5z"/>
		<path class="st1" d="M88.1,135.5h-0.5c-0.2-0.8-0.9-1.3-1.8-1.3c-0.8,0-1.5,0.6-1.8,1.3h-0.5c-0.5,0-0.8,0.4-0.8,0.8v1.3h0.9v-1.2
			h1.2l0-0.4c0-0.5,0.4-0.9,0.9-0.9c0.5,0,0.9,0.4,0.9,0.9l0,0.4H88v1.2h0.9v-1.3C88.9,135.9,88.6,135.5,88.1,135.5z"/>
		<path class="st1" d="M71,122.7v-0.5c0.8-0.2,1.3-0.9,1.3-1.8c0-0.8-0.6-1.5-1.3-1.8v-0.5c0-0.5-0.4-0.8-0.8-0.8h-1.3h-1.3
			c-0.5,0-0.8,0.4-0.8,0.8v0.5c-0.8,0.2-1.3,0.9-1.3,1.8c0,0.8,0.6,1.5,1.3,1.8v0.5c0,0.5,0.4,0.8,0.8,0.8h1.3h1.3
			C70.6,123.5,71,123.1,71,122.7z M70.1,122.6h-1.2h-1.2v-1.2l-0.4,0c-0.5,0-0.9-0.4-0.9-0.9c0-0.5,0.4-0.9,0.9-0.9l0.4,0v-1.2h1.2
			h1.2v1.2l0.4,0c0.5,0,0.9,0.4,0.9,0.9c0,0.5-0.4,0.9-0.9,0.9l-0.4,0V122.6z"/>
	</g>
	<path class="st2" d="M-39.2,62.6V27.2c0-4.2-2.8-7.6-6.3-7.6s-6.3,3.4-6.3,7.6v3.2v32.1c0-4.2,2.8-7.6,6.3-7.6
		S-39.2,58.3-39.2,62.6s-2.9,7.6-6.3,7.6h-54.1V54.7"/>
	<path class="st1" d="M-110,27.6h50.7c1.9,0,3.5,1.3,3.5,2.8v26.2c0,1.6-1.5,2.8-3.5,2.8H-110c-1.9,0-3.5-1.3-3.5-2.8V30.5
		C-113.5,28.9-111.9,27.6-110,27.6z"/>
</g>
</svg>
