<?xml version="1.0" encoding="utf-8"?>
<!-- Generator: Adobe Illustrator 25.3.0, SVG Export Plug-In . SVG Version: 6.00 Build 0)  -->
<svg version="1.1" id="Layer_1" xmlns="http://www.w3.org/2000/svg" xmlns:xlink="http://www.w3.org/1999/xlink" x="0px" y="0px"
	 viewBox="0 0 101.6 117.4" style="enable-background:new 0 0 101.6 117.4;" xml:space="preserve">
<style type="text/css">
	.st0{opacity:0.37;clip-path:url(#SVGID_2_);}
	.st1{fill:url(#SVGID_3_);}
</style>
<g id="Layer_8">
</g>
<g>
	<g>
		<defs>
			<path id="SVGID_1_" d="M84,117.2v0.2h3.7l-2.4-0.7V115l0.9-1.5l3.2,0.8l2.4,2.4l-2.5,0.7h5l0,0l1-0.3c0,0,0.1,0,0.1-0.1v-0.1
				l-0.3-1l1,0.3l0,0c0.1,0,0.1,0,0.2-0.1l0.3-1l0.7,0.7h0.1h0.1l0.7-0.7l0.3,1c0,0,0,0.1,0.1,0.1h0.1l0,0l1-0.3l-0.3,1v0.1l0.1,0.1
				l1,0.3l0,0h1.1v-1.1l0,0l-0.7-0.2l0.2-0.7l0.5-0.1V114h-0.1l0.1-0.4v-4.9l-0.4,1.4l-2.4,2.4l-0.9-3.2l0.8-3.2h1.7l1,0.6v-1.9
				h-0.7l-2.3-1.3l2.3-1.3h0.7v-1.9l-1,0.6h-1.7L98,97.8l0.9-3.2l2.4,2.4l0.4,1.5v-4.9l-0.1-0.5h0.1v-1.3l-0.5-0.1L101,91l0.7-0.2
				l0,0V89l-0.1-0.1l0.1-0.1V87l0,0l-0.7-0.2l0.2-0.7l0.5-0.1v-1.3h-0.1l0.1-0.4v-4.9l-0.4,1.4l-2.4,2.4L98,80l0.8-3.2h1.7l1,0.6
				v-1.9h-0.7l-2.3-1.3l2.3-1.3h0.7V71l-1,0.6h-1.7L98,68.5l0.9-3.2l2.4,2.4l0.4,1.5v-4.9l-0.1-0.4h0.1v-1.3l-0.5-0.1l-0.2-0.7
				l0.7-0.2l0,0v-1.8l-0.1-0.1l0.1-0.1v-1.8l0,0l-0.7-0.2l0.2-0.7l0.5-0.1v-1.3h-0.1l0.1-0.4v-4.9l-0.4,1.4l-2.4,2.4L98,50.6
				l0.8-3.2h1.7l1,0.6v-1.9h-0.7l-2.3-1.3l2.3-1.3h0.7v-1.9l-1,0.6h-1.7L98,39.1l0.9-3.2l2.4,2.4l0.4,1.5v-4.9l-0.1-0.5h0.1v-1.3
				l-0.5-0.1l-0.2-0.7l0.7-0.2l0,0v-1.8l-0.1-0.1l0.1-0.1v-1.8l0,0l-0.7-0.2l0.2-0.7l0.5-0.1V26h-0.1l0.1-0.4v-4.9l-0.4,1.4
				l-2.4,2.4L98,21.3l0.8-3.2h1.7l1,0.6v-1.9h-0.7l-2.3-1.3l2.3-1.3h0.7v-1.9l-1,0.6h-1.7L98,9.7l0.9-3.2l2.4,2.4l0.4,1.5V5.5
				L101.6,5h0.1V3.7l-0.5-0.1L101,2.9l0.7-0.2l0,0V1l-0.1-0.1l0.1-0.1v-1.9l0,0L101-1.2l0.2-0.7l0.5-0.1v-1.3h-0.1l0.1-0.4v-4.9
				l-0.4,1.4l-2.4,2.4L98-8l0.8-3.2h1.7l1,0.6v-1.9h-0.7l-0.5-0.3h-2.5l0.5,0.3h-0.4c-0.1,0-0.1,0-0.2,0.1l-0.5,1.9l-0.5-1.9
				c0-0.1-0.1-0.1-0.2-0.1h-0.4l0.5-0.3h-2.5l-0.5,0.3h-2.7l0.2-0.3h-1.5l-0.2,0.3h-1.5l0.1-0.3h-5.6l1.7,0.5v1.7l-0.9,1.5L80-9.9
				l-2.4-2.4l1.8-0.5h-4.9l-0.3,0.1c0,0-0.1,0-0.1,0.1v0.1l0.3,1l-1-0.3l0,0c-0.1,0-0.1,0-0.2,0.1l-0.3,1l-0.7-0.7h-0.1H72l-0.7,0.7
				l-0.3-1c0-0.1-0.1-0.1-0.2-0.1l0,0l-1,0.3l0.3-1v-0.1L70-12.7l-0.3-0.1h-4.9l1.8,0.5L64-9.9l-3.2,0.8l-0.9-1.5v-1.7l1.7-0.5h-5.6
				l-0.2,0.3h-1.5L54-12.8h-1.5l0.2,0.3H50l-0.5-0.3H47l0.5,0.3h-0.4c-0.1,0-0.1,0-0.2,0.1l-0.5,1.9l-0.5-1.9c0-0.1-0.1-0.1-0.2-0.1
				h-0.4l0.5-0.3h-2.5l-0.4,0.3h-2.7l0.2-0.3h-1.5l-0.2,0.3h-1.5L37-12.8h-5.6l1.7,0.5v1.7l-0.8,1.5l-3.2-0.8l-2.4-2.4l1.8-0.5h-4.9
				l-0.3,0.1c0,0-0.1,0-0.1,0.1v0.1l0.3,1l-1-0.3l0,0h-0.1l-0.1,0.1l-0.3,1l-0.7-0.7h-0.1h-0.1l-0.7,0.7l-0.3-1
				c0-0.1-0.1-0.1-0.2-0.1l0,0l-1,0.3l0.3-1c0-0.1,0-0.2-0.1-0.2l-0.3-0.1h-4.9l1.7,0.5l-2.4,2.4L9.9-9.1L9-10.6v-1.7l1.7-0.5H5.2
				L5-12.5H3.5l-0.2-0.3H1.8L2-12.5h-2.7l-0.5-0.3h-2.5l0.5,0.3h-0.4c-0.1,0-0.1,0-0.2,0.1l-0.5,1.9l-0.5-1.9c0-0.1-0.1-0.1-0.2-0.1
				h-0.4l0.5-0.3h-2.5l-0.5,0.3h-2.7l0.2-0.3h-1.5l-0.2,0.3h-1.5l-0.2-0.3h-5.6l1.7,0.5v1.7l-0.7,1.5l-3.2-0.8l-2.4-2.4l1.8-0.5
				h-4.9l-0.3,0.1c0,0-0.1,0-0.1,0.1v0.1l0.3,1l-1-0.3l0,0c-0.1,0-0.1,0-0.1,0.1v4.9l0.2-1.3l2.4,2.4l0.8,3.2l-1.5,0.9h-1.7
				l-0.4-1.5v7.9l0.4-1.3h1.7l1.5,0.9l-0.8,3.2l-2.4,2.2l-0.4-1.4v4.9c0,0,0,0.1,0.1,0.1h0.1l0,0l1-0.3l-0.3,1v0.1l0.1,0.1l1,0.3
				l-0.7,0.7v0.1v0.1l0.8,0.7l-1,0.3c-0.1,0-0.1,0.1-0.1,0.2l0.3,1l-1-0.3l0,0c-0.1,0-0.1,0-0.1,0.1v4.9L-28,21l2.4,2.4l0.8,3.2
				l-1.5,0.9H-28l-0.4-1.3v7.9l0.4-1.3h1.7l1.5,0.9l-0.8,3.2l-2.4,2.4l-0.4-1.4v4.9c0,0,0,0.1,0.1,0.1h0.1l0,0l1-0.3l-0.3,1v0.1
				l0.1,0.1l1,0.3l-0.7,0.7c-0.1,0.1-0.1,0.2,0,0.2l0.7,0.7l-1,0.3c-0.1,0-0.1,0.1-0.1,0.2l0.3,1l-1-0.3l0,0h-0.1c0,0-0.1,0-0.1,0.1
				v4.9l0.4-1.4l2.4,2.4l0.8,3.2l-1.5,0.9H-28l-0.4-1.3v7.9l0.4-1.3h1.7l1.5,0.9l-0.8,3.2l-2.4,2.4l-0.4-1.4v4.9
				c0,0.1,0.1,0.1,0.1,0.1l0,0l1-0.3l-0.3,1v0.1l0.1,0.1l1,0.3l-0.7,0.7c-0.1,0.1-0.1,0.2,0,0.2l0.7,0.7l-1,0.3
				c-0.1,0-0.1,0.1-0.1,0.2l0.3,1l-1-0.3l0,0c-0.1,0-0.1,0-0.1,0.1v4.9l0.4-1.4l2.4,2.4l0.8,3.2l-1.5,0.9H-28l-0.4-1.3v7.9l0.4-1.3
				h1.7l1.5,0.9l-0.8,3.2l-2.4,2.4l-0.4-1.4v4.9c0,0,0,0.1,0.1,0.1h0.1l0,0l1-0.3l-0.3,1v0.1l0.1,0.1l1,0.3l-0.8,0.8v0.1v0.1
				l0.8,0.7l-1,0.3c-0.1,0-0.1,0.1-0.1,0.2l0.3,1l-1-0.3l0,0c-0.1,0-0.1,0-0.1,0.1v4.9l0.4-1.4l2.4,2.4l0.8,3.2l-1.5,0.9h-1.7
				l-0.4-1.3v3.1h1.6l0.8-0.5h2.7l-0.3,0.5h1.5l0.3-0.5h1.5l0.3,0.5h2.4l0.1-0.2v0.2h3.7l-2.4-0.7v-1.7l0.9-1.5l3.2,0.8l2.4,2.4
				L-12,118h5l0,0l1-0.3c0,0,0.1,0,0.1-0.1v-0.1l-0.3-1l1,0.3l0,0h0.1l0.1-0.1l0.3-1l0.8,0.8h0.1h0.1l0.7-0.7l0.3,1
				c0,0.1,0.1,0.1,0.2,0.1l0,0l1-0.3l-0.3,1c0,0.1,0,0.2,0.1,0.2l1,0.3l0,0h5l-2.5-0.7l2.4-2.4l3.2-0.8l0.9,1.5v1.7l-2.4,0.7h3.7
				v-0.2l0.1,0.2h2.4l0.3-0.5h1.5l0.3,0.5h1.5l-0.3-0.5h2.7l0.8,0.5h2l-0.8-0.5h0.4c0.1,0,0.1,0,0.2-0.1l0.5-1.9l0.5,1.9
				c0,0.1,0.1,0.1,0.2,0.1h0.4l-0.8,0.5h2.4l0.8-0.5h2.7l-0.3,0.5h1.5l0.3-0.5h1.5l0.3,0.5h2.4l0.1-0.2v0.2h3.7l-2.5-0.7v-1.7
				l0.9-1.5l3.2,0.8l2.4,2.4l-2.5,0.7h5l0,0l1-0.3c0.1,0,0.1-0.1,0.1-0.2l-0.3-1l1,0.3l0,0h0.1l0.1-0.1l0.3-1l0.8,0.8h0.1h0.1
				l0.7-0.8l0.3,1c0,0.1,0.1,0.1,0.2,0.1l0,0l1-0.3l-0.3,1c0,0.1,0,0.2,0.1,0.2l1,0.3l0,0h5l-2.5-0.7l2.4-2.4l3.2-0.8l0.9,1.5v1.7
				l-2.4,0.7h3.7v-0.2l0.1,0.2h2.4l0.3-0.5h1.5l0.3,0.5H66l-0.3-0.5h2.7l0.8,0.5h2.5l-0.8-0.5h0.4c0.1,0,0.1,0,0.2-0.1l0.5-1.9
				l0.5,1.9c0,0.1,0.1,0.1,0.2,0.1h0.4l-0.8,0.5h2.5l0.8-0.5h2.7l-0.3,0.5h1.5l0.3-0.5h1.5l0.3,0.5H84L84,117.2z M100.6,112.6
				l-0.5,1.8l-0.7,0.2l-0.2-0.7L100.6,112.6z M-26.9,11.7l-0.7,0.2l-0.2-0.7l1.3-1.3L-26.9,11.7z M-27.8,19.8l0.2-0.7l0.7,0.2
				l0.5,1.8L-27.8,19.8z M-26.9,41l-0.7,0.2l-0.2-0.7l1.3-1.3L-26.9,41z M-27.8,49.1l0.2-0.7l0.7,0.2l0.5,1.8L-27.8,49.1z
				 M-26.9,70.5l-0.7,0.2l-0.2-0.7l1.3-1.3L-26.9,70.5z M-27.8,78.5l0.2-0.7l0.7,0.2l0.5,1.8L-27.8,78.5z M-26.9,99.8l-0.7,0.2
				l-0.2-0.7l1.3-1.3L-26.9,99.8z M-27.8,107.8l0.2-0.7l0.7,0.2l0.5,1.8L-27.8,107.8z M84,110.5l-1,0.6l0.2-0.3c0-0.1,0-0.1,0-0.2
				l-1.4-1.4l1.9,0.5l0,0c0.1,0,0.1,0,0.1-0.1l0.2-0.3L84,110.5z M84,106.8l-0.9,1.5l-3.2-0.8l-2.4-2.4l3.2-0.9l3.2,0.8L84,106.8z
				 M73.5,97.9l-0.9-3.2l0.8-3.2h1.7l1.5,0.9l-0.8,3.2L73.5,97.9z M75.2,98l-0.5,1.8L74,100l-0.2-0.7L75.2,98z M72,92.2l-0.5-1.9
				c0-0.1-0.1-0.1-0.2-0.1l0,0h-0.4l1-0.6l1,0.6h-0.4c-0.1,0-0.1,0-0.2,0.1L72,92.2z M72.5,98.9L72,99.4l-0.5-0.5l0.5-1.8L72.5,98.9
				z M68.1,95.5l-0.8-3.2l1.5-0.9h1.7l0.8,3.2l-0.9,3.2L68.1,95.5z M70.1,99.3l-0.2,0.7l-0.7-0.2L68.8,98L70.1,99.3z M22.7,97.9
				l-0.9-3.2l0.8-3.2h1.7l1.5,0.9L25,95.6L22.7,97.9z M24.4,98l-0.5,1.8l-0.7,0.2L23,99.3L24.4,98z M21.1,92.2l-0.5-1.9
				c0-0.1-0.1-0.1-0.2-0.1l0,0H20l1-0.6l1,0.6h-0.4c-0.1,0-0.1,0-0.2,0.1L21.1,92.2z M21.6,98.9l-0.5,0.5l-0.5-0.5l0.5-1.8
				L21.6,98.9z M17.3,95.5l-0.8-3.2l1.5-0.9h1.7l0.8,3.2l-0.9,3.2L17.3,95.5z M19.2,99.3L19,100l-0.7-0.2L17.9,98L19.2,99.3z
				 M-23.9,102l2.4-2.4l3.2-0.8l0.9,1.5v1.7l-3.2,0.8L-23.9,102z M-23.2,103.6l-1.8,0.5l-0.5-0.5l0.5-0.5L-23.2,103.6z M-23.5,91.7
				l-0.3-0.2h1.2l0.6,1l-0.3-0.2h-0.1h-0.1l-1.4,1.4l0.5-1.9C-23.4,91.8-23.5,91.7-23.5,91.7z M-22.7,88.9l0.8-1.3h1.5l0.8,1.3
				l-0.8,1.3h-1.5L-22.7,88.9z M-23.4,85.9l-0.5-1.9l1.4,1.4h0.1h0.1l0.3-0.2l-0.6,1h-1.2l0.3-0.2C-23.5,86.1-23.4,86-23.4,85.9z
				 M-23.5,62.3l-0.3-0.2h1.2l0.6,1l-0.3-0.2h-0.1h-0.1l-1.4,1.4l0.5-1.9C-23.4,62.4-23.5,62.3-23.5,62.3z M-22.7,59.5l0.8-1.3h1.5
				l0.8,1.3l-0.8,1.3h-1.5L-22.7,59.5z M-23.4,56.5l-0.5-1.9l1.4,1.4h0.1h0.1l0.3-0.2l-0.6,1h-1.2l0.3-0.2
				C-23.5,56.7-23.4,56.6-23.4,56.5z M-23.5,33l-0.3-0.2h1.2l0.6,1l-0.3-0.2h-0.1h-0.1l-1.4,1.4l0.5-1.9C-23.4,33.1-23.5,33-23.5,33
				z M-22.7,30.2l0.8-1.3h1.5l0.8,1.3l-0.8,1.3h-1.5L-22.7,30.2z M-23.4,27.2l-0.5-1.9l1.4,1.4h0.1h0.1l0.3-0.2l-0.6,1h-1.2l0.3-0.2
				C-23.5,27.3-23.4,27.3-23.4,27.2z M-23.5,3.6l-0.3-0.2h1.2l0.6,1l-0.3-0.2h-0.1h-0.1l-1.4,1.4l0.5-1.9
				C-23.4,3.7-23.5,3.7-23.5,3.6z M-22.7,0.9l0.8-1.3h1.5l0.8,1.3l-0.8,1.3h-1.5L-22.7,0.9z M-23.4-2.1L-23.9-4l1.4,1.4h0.1h0.1
				l0.3-0.2l-0.6,1h-1.2l0.3-0.2C-23.5-2-23.4-2-23.4-2.1z M-19.8,3.5L-19.8,3.5C-19.8,3.5-19.7,3.5-19.8,3.5c0.1,0,0.2,0,0.2-0.1
				V3.3l0.7-1.2l1.3,2.3v2.7l-2.3-1.3l-1.3-2.3L-19.8,3.5z M-5.8,6.5l0.9,3.2l-0.8,3.2h-1.7L-8.9,12l0.8-3.1L-5.8,6.5z M-7.5,6.4
				L-7,4.6l0.7-0.2l0.2,0.7L-7.5,6.4z M-4.2,12.2l0.5,1.9c0,0.1,0.1,0.1,0.2,0.1h0.4l-1,0.6l-1-0.6h0.4c0.1,0,0.1,0,0.2-0.1
				L-4.2,12.2z M-4.7,5.5L-4.2,5l0.5,0.5l-0.5,1.8L-4.7,5.5z M-0.4,8.9l0.8,3.2L-1,12.9h-1.7l-0.8-3.2l0.9-3.2L-0.4,8.9z M-2.3,5.1
				l0.2-0.7l0.7,0.2l0.5,1.8L-2.3,5.1z M45,6.5l0.9,3.2L45,12.9h-1.7L41.8,12l0.8-3.1L45,6.5z M43.3,6.4l0.5-1.8l0.7-0.2l0.2,0.7
				L43.3,6.4z M46.5,12.2l0.5,1.9c0,0.1,0.1,0.1,0.2,0.1h0.4l-1,0.6l-1-0.6H46c0.1,0,0.1,0,0.2-0.1L46.5,12.2z M46,5.5L46.5,5
				L47,5.5l-0.5,1.8L46,5.5z M50.4,8.9l0.8,3.2l-1.5,0.8H48l-0.8-3.2l0.9-3.2L50.4,8.9z M48.4,5.1l0.2-0.7l0.7,0.2l0.5,1.8L48.4,5.1
				z M95.8,6.5l0.9,3.2l-0.8,3.2h-1.7L92.7,12l0.8-3.1L95.8,6.5z M94.1,6.4l0.5-1.8l0.7-0.2l0.2,0.7L94.1,6.4z M93.5,22.1l-0.8-3.2
				l1.5-0.9h1.7l0.8,3.2l-0.9,3.2L93.5,22.1z M95.5,25.9l-0.2,0.7l-0.7-0.2l-0.5-1.8L95.5,25.9z M95.8,35.8l0.9,3.2l-0.8,3.2h-1.7
				l-1.5-0.9l0.8-3.2L95.8,35.8z M94.1,35.7l0.5-1.8l0.7-0.2l0.2,0.7L94.1,35.7z M93.5,51.4l-0.8-3.2l1.5-0.9h1.7l0.8,3.2l-0.9,3.2
				L93.5,51.4z M95.5,55.2l-0.2,0.7l-0.7-0.2l-0.5-1.8L95.5,55.2z M95.8,65.1l0.9,3.2l-0.8,3.2h-1.7l-1.5-0.9l0.8-3.2L95.8,65.1z
				 M94.1,65.1l0.5-1.8l0.7-0.2l0.2,0.7L94.1,65.1z M93.5,80.9l-0.8-3.2l1.5-0.9h1.7l0.8,3.2l-0.9,3.2L93.5,80.9z M95.5,84.6
				l-0.2,0.7l-0.7-0.2l-0.5-1.8L95.5,84.6z M95.8,94.6l0.9,3.2l-0.8,3.2h-1.7l-1.5-0.9l0.8-3.2L95.8,94.6z M94.1,94.5l0.5-1.8
				l0.7-0.2l0.2,0.7L94.1,94.5z M64.6,98.5l-2.3-2.3l0.9-1.5l1.5-0.9l2.3,2.3l0.9,3.2L64.6,98.5z M68.2,100.8l0.2,0.7l-0.7,0.2
				l-1.3-1.3L68.2,100.8z M52.7,100.6l-0.5-1.9l1.4,1.4h0.1h0.1l0.3-0.2l-0.6,1h-1.2l0.3-0.2C52.7,100.7,52.7,100.6,52.7,100.6z
				 M53.8,98.6l-2.3-2.3L50.7,93l3.2,0.9l2.3,2.3l-0.9,1.5L53.8,98.6z M48.7,90c-0.1,0-0.1,0.1-0.1,0.2l0.3,1l-1-0.3l0,0h-0.1
				L47.7,91l-0.3,1l-0.8-0.8h-0.1h-0.1l-0.7,0.7l-0.3-1c0,0,0-0.1-0.1-0.1h-0.1l0,0l-1,0.3l0.3-1c0-0.1,0-0.2-0.1-0.2l-1-0.3
				l0.7-0.7v-0.1v-0.1L43.3,88l1-0.3c0.1,0,0.1-0.1,0.1-0.2l-0.3-1l1,0.3l0,0h0.1l0.1-0.1l0.3-1l0.8,0.8h0.1h0.1l0.7-0.7l0.3,1
				c0,0,0,0.1,0.1,0.1h0.1l0,0l1-0.3l-0.3,1c0,0.1,0,0.2,0.1,0.2l1,0.3l-0.7,0.7c-0.1,0.1-0.1,0.2,0,0.2l0.7,0.7L48.7,90z
				 M49.7,94.5l-1.3-1.3l0.2-0.7l0.7,0.2L49.7,94.5z M47,93.5l-0.5,1.8L46,93.5l0.5-0.5L47,93.5z M44.6,93.1l-1.3,1.3l0.5-1.8
				l0.7-0.2L44.6,93.1z M40.4,100.8l0.3,0.2h-1.2l-0.6-1l0.3,0.2h0.1h0.1l1.4-1.4l-0.5,1.9C40.3,100.6,40.4,100.7,40.4,100.8z
				 M39.2,98.6l-1.5-0.9l-0.9-1.5l2.3-2.3l3.2-0.9l-0.9,3.2L39.2,98.6z M35.3,96.1l0.2,0.3l-1-0.6v-1.2l0.2,0.3
				c0,0.1,0.1,0.1,0.1,0.1l0,0l1.9-0.5l-1.4,1.4C35.3,96,35.3,96.1,35.3,96.1z M35.3,93.6l-0.9-1.5v-1.7l3.2-0.8l3.2,0.9l-2.4,2.4
				L35.3,93.6z M32.3,96.3L32.2,96l1,0.6v1.2L33,97.5c0-0.1-0.1-0.1-0.1-0.1l0,0L31,97.9l1.4-1.4C32.4,96.5,32.4,96.4,32.3,96.3z
				 M30.9,93.8l-1.3-2.3H31l0,0l0,0c0.1,0,0.1,0,0.1-0.1v-0.1l0.7-1.2l1.3,2.3v2.7L30.9,93.8z M13.8,98.5l-2.3-2.3l0.9-1.5l1.5-0.9
				l2.3,2.3l0.9,3.2L13.8,98.5z M17.4,100.8l0.2,0.7l-0.7,0.2l-1.3-1.3L17.4,100.8z M3.1,98.6l-2.3-2.3L-0.1,93l3.2,0.9l2.3,2.3
				l-0.9,1.5L3.1,98.6z M3.3,99.9l-0.6,1H1.5l0.3-0.2l0.1-0.1l0.9-0.5c0,0,0,0,0.1,0H3L3.3,99.9z M-1.8,89l0.7,0.7l-1,0.3
				c0,0-0.1,0-0.1,0.1v0.1l0.3,1l-1-0.3l0,0C-3,91-3.1,91-3.1,91.1l-0.3,1l-0.7-0.7h-0.1h-0.1l-0.8,0.7l-0.3-1c0,0,0-0.1-0.1-0.1
				h-0.1l0,0l-1,0.3l0.3-1c0-0.1,0-0.2-0.1-0.2l-1-0.3l0.7-0.7V89v-0.1L-7.5,88l1-0.3c0,0,0.1,0,0.1-0.1v-0.1l-0.3-1l1,0.3l0,0h0.1
				l0.1-0.1l0.3-1l0.8,0.8h0.1h0.1l0.7-0.7l0.3,1c0,0.1,0.1,0.1,0.2,0.1l0,0l1-0.3l-0.3,1v0.1l0.1,0.1l1,0.3L-2,88.9V89
				C-1.8,88.9-1.8,89-1.8,89z M-1,94.5l-1.3-1.3l0.2-0.7l0.7,0.2L-1,94.5z M-3.8,93.5l-0.5,1.8l-0.5-1.8l0.5-0.5L-3.8,93.5z
				 M-6.1,93.1l-1.3,1.3l0.5-1.8l0.7-0.2L-6.1,93.1z M-10.3,100.8l0.3,0.2h-1.2l-0.6-1l0.3,0.2h0.1h0.1l1.4-1.4l-0.5,1.9
				C-10.4,100.6-10.4,100.7-10.3,100.8z M-11.6,98.6l-1.5-0.9l-0.9-1.5l2.3-2.3l3.2-0.9l-0.9,3.2L-11.6,98.6z M-15.5,96.1l0.2,0.3
				l-1-0.6v-1.2l0.2,0.4c0,0.1,0.1,0.1,0.1,0.1l0,0l1.9-0.5l-1.4,1.4V96.1z M-15.4,93.6l-0.9-1.5v-1.7l3.2-0.8l3.2,0.9l-2.4,2.4
				L-15.4,93.6z M-18.4,67l-0.2-0.3l1,0.6v1.2l-0.2-0.3c0-0.1-0.1-0.1-0.1-0.1l0,0l-1.9,0.5l1.4-1.4C-18.4,67.1-18.4,67.1-18.4,67z
				 M-17.6,60.1v0.4l-0.6-1l0.6-1v0.4c0,0.1,0,0.1,0.1,0.2l1.9,0.5l-1.9,0.5C-17.5,60-17.6,60.1-17.6,60.1z M-18.4,51.9l-1.4-1.4
				l1.9,0.5l0,0c0.1,0,0.1,0,0.1-0.1l0.2-0.3v1.2l-1,0.6l0.2-0.3C-18.4,52-18.4,51.9-18.4,51.9z M-17.6,31.2l-0.6-1l0.6-1v0.4
				c0,0.1,0,0.1,0.1,0.2l1.9,0.5l-1.9,0.5c-0.1,0-0.1,0.1-0.1,0.2V31.2z M-18.4,22.5l-1.4-1.4l1.9,0.5l0,0c0.1,0,0.1,0,0.1-0.1
				l0.2-0.3v1.2l-1,0.6l0.2-0.3C-18.4,22.7-18.4,22.6-18.4,22.5z M-8.4,5l-0.9,3.2l-2.3,2.3l-1.5-0.8L-14,8.2l2.3-2.3L-8.4,5z
				 M-9.8,4.1l1.3-1.3l0.7,0.1L-8,3.6L-9.8,4.1z M3.1,5.9l2.3,2.3L4.6,9.7l-1.5,0.9L0.8,8.2L-0.1,5L3.1,5.9z M-0.5,3.6l-0.1-0.7
				l0.7-0.2L1.4,4L-0.5,3.6z M6.9,7.9L5.6,6.5L7.5,7l0,0c0.1,0,0.1,0,0.1-0.1l0.2-0.3v1.2l-1,0.6L7,8.1C7,8,7,7.9,6.9,7.9z M7.8,9.3
				V12l-1.3,2.3l-0.7-1.2V13l-0.1-0.1c0,0,0,0-0.1,0l0,0H4.2l1.3-2.3L7.8,9.3z M15,3.8l0.5,1.9l-1.4-1.4H14h-0.1l-0.3,0.2l0.6-1h1.2
				l-0.3,0.2C15,3.7,14.9,3.7,15,3.8z M13.8,5.8l2.3,2.3l0.9,3.2l-3.2-0.9l-2.3-2.3l0.9-1.5L13.8,5.8z M17.4,12.8l0.2,0.7l-0.7,0.1
				l-1.3-1.3L17.4,12.8z M18.9,14.4C19,14.4,19,14.3,18.9,14.4c0.1-0.1,0.1-0.2,0.1-0.2l-0.3-1l1,0.3l0,0h0.1l0.1-0.1l0.3-1l0.7,0.7
				H21h0.1l0.7-0.7l0.3,1c0,0,0,0.1,0.1,0.1h0.1l0,0l1-0.3l-0.3,1v0.1l0.1,0.1l1,0.3l-0.8,0.8c-0.1,0.1-0.1,0.2,0,0.2l0.7,0.7
				l-1,0.3c0,0-0.1,0-0.1,0.1v0.1l0.3,1l-1-0.3l0,0h-0.1L22,17.7l-0.3,1l-0.8-0.8h-0.1h-0.1L20,18.6l-0.3-1c0-0.1-0.1-0.1-0.2-0.1
				l0,0l-1,0.3l0.3-1c0-0.1,0-0.2-0.1-0.2l-1-0.3l0.7-0.7v-0.1v-0.1l-0.5-0.8L18.9,14.4z M17.9,9.9l1.3,1.3l-0.1,0.7l-0.7-0.2
				L17.9,9.9z M20.6,10.9l0.5-1.8l0.5,1.8l-0.5,0.5L20.6,10.9z M23,11.2l1.3-1.3l-0.4,1.8l-0.7,0.2L23,11.2z M27.2,3.6l-0.3-0.2h1.2
				l0.6,1l-0.3-0.2h-0.1h-0.1l-1.4,1.4l0.5-1.9C27.3,3.7,27.3,3.7,27.2,3.6z M28.5,5.8L30,6.7l0.9,1.5l-2.3,2.3l-3.2,0.9l0.9-3.2
				L28.5,5.8z M32.3,8.3l-0.1-0.4l1,0.6v1.2L33,9.4c0-0.1-0.1-0.1-0.1-0.1l0,0L31,9.8l1.4-1.4C32.4,8.4,32.4,8.3,32.3,8.3z
				 M32.3,10.8l0.9,1.5V14L30,14.8l-3.2-0.9l2.4-2.4L32.3,10.8z M65.8,3.8l0.5,1.9l-1.4-1.4h-0.1h-0.1l-0.3,0.2l0.6-1h1.2l-0.3,0.2
				C65.8,3.7,65.8,3.7,65.8,3.8z M64.7,5.8L67,8.1l0.9,3.2l-3.2-0.9l-2.3-2.3l0.9-1.5L64.7,5.8z M68.2,12.8l0.2,0.7l-0.7,0.2
				l-1.3-1.3L68.2,12.8z M69.8,14.4C69.8,14.4,69.9,14.3,69.8,14.4c0.1-0.1,0.1-0.2,0.1-0.2l-0.3-1l1,0.3l0,0h0.1l0.1-0.1l0.3-1
				l0.7,0.7h0.1H72l0.7-0.7l0.3,1c0,0,0,0.1,0.1,0.1h0.1l0,0l1-0.3l-0.3,1c0,0.1,0,0.2,0.1,0.2l1,0.3l-0.7,0.7
				c-0.1,0.1-0.1,0.2,0,0.2l0.7,0.7l-1,0.3c0,0-0.1,0-0.1,0.1v0.1l0.3,1l-1-0.3l0,0c-0.1,0-0.1,0-0.2,0.1l-0.3,1L72,17.9h-0.1h-0.1
				l-0.7,0.7l-0.3-1c0-0.1-0.1-0.1-0.2-0.1l0,0l-1,0.3l0.3-1v-0.1l-0.1-0.1l-1-0.3l0.7-0.7v-0.1v-0.1l-0.7-0.7L69.8,14.4z M68.8,9.9
				l1.3,1.3l-0.2,0.7l-0.7-0.2L68.8,9.9z M71.5,10.9L72,9.1l0.5,1.8L72,11.4L71.5,10.9z M73.9,11.2l1.3-1.3l-0.5,1.8l-0.6,0.2
				L73.9,11.2z M78.1,3.6l-0.3-0.2H79l0.6,1l-0.3-0.2h-0.1h-0.1l-1.4,1.4l0.5-1.9C78.2,3.7,78.1,3.7,78.1,3.6z M79.3,5.8l1.5,0.9
				l0.9,1.5l-2.3,2.3l-3.2,0.9L77,8.1L79.3,5.8z M83.2,8.3L83,7.9l1,0.6v1.2l-0.2-0.3l-0.1-0.1l0,0l-1.9,0.5l1.4-1.4
				C83.2,8.4,83.2,8.3,83.2,8.3z M83.2,10.8l0.9,1.5V14l-3.2,0.9L77.7,14l2.4-2.4L83.2,10.8z M93.2,5l-0.9,3.2L90,10.5l-1.5-0.9
				l-0.9-1.5L90,5.9L93.2,5z M91.8,4.1l1.3-1.3l0.7,0.1l-0.2,0.7L91.8,4.1z M91.3,12.7l0.3,0.2h-1.2l-0.6-1l0.3,0.2h0.1h0.1l1.4-1.4
				l-0.5,1.9C91.2,12.6,91.2,12.7,91.3,12.7z M90.4,15.5l-0.8,1.3h-1.5l-0.8-1.3l0.8-1.3h1.5L90.4,15.5z M91.2,18.5l0.5,1.9L90.3,19
				h-0.1h-0.1l-0.3,0.2l0.6-1h1.2l-0.3,0.2C91.2,18.3,91.2,18.4,91.2,18.5z M91.3,42l0.3,0.2h-1.2l-0.6-1l0.3,0.2h0.1h0.1l1.4-1.4
				l-0.5,1.9C91.2,41.9,91.2,42,91.3,42z M91.2,47.8l0.5,1.9l-1.4-1.4h-0.1h-0.1l-0.3,0.2l0.6-1h1.2l-0.3,0.2
				C91.2,47.6,91.2,47.7,91.2,47.8z M91.3,71.4l0.3,0.2h-1.2l-0.6-1l0.3,0.2h0.1h0.1l1.4-1.4l-0.5,1.9
				C91.2,71.3,91.2,71.4,91.3,71.4z M91.2,77.2l0.5,1.9l-1.4-1.4h-0.1h-0.1l-0.3,0.2l0.6-1h1.2L91.3,77
				C91.2,77.1,91.2,77.1,91.2,77.2z M91.3,100.8l0.3,0.2h-1.2l-0.6-1l0.3,0.2h0.1h0.1l1.4-1.4l-0.5,1.9
				C91.2,100.6,91.2,100.7,91.3,100.8z M90,98.6l-1.5-0.9l-0.9-1.5l2.3-2.3l3.2-0.9l-0.9,3.2L90,98.6z M86.1,96.1l0.2,0.3l-1-0.6
				v-1.2l0.2,0.3c0,0.1,0.1,0.1,0.1,0.1l0,0l1.9-0.5l-1.4,1.4C86.1,96,86.1,96.1,86.1,96.1z M86.2,93.6l-0.9-1.5v-1.7l3.2-0.8
				l3.2,0.9l-2.4,2.4L86.2,93.6z M91.8,92.1l1.3-1.3l0.7,0.2l-0.2,0.7L91.8,92.1z M92.7,89.4l-1.8-0.5l1.8-0.5l0.5,0.5L92.7,89.4z
				 M88.5,88.2l-3.2-0.8v-1.7l0.9-1.5l3.2,0.8l2.4,2.4L88.5,88.2z M83.2,96.3L83,96l1,0.6v1.2l-0.2-0.3l-0.1-0.1l0,0l-1.9,0.5
				l1.4-1.4C83.2,96.5,83.2,96.4,83.2,96.3z M81.7,93.8l-1.3-2.3h1.4l0,0l0,0c0.1,0,0.1,0,0.1-0.1v-0.1l0.7-1.2l1.3,2.3v2.7
				L81.7,93.8z M78.1,91.7l-0.3-0.2H79l0.6,1l-0.3-0.2h-0.1h-0.1l-1.4,1.4l0.5-1.9C78.2,91.8,78.1,91.7,78.1,91.7z M78.9,88.9
				l0.8-1.3h1.5l0.8,1.3l-0.8,1.3h-1.5L78.9,88.9z M78.2,85.9L77.7,84l1.4,1.4h0.1h0.1l0.3-0.2l-0.6,1h-1.2l0.3-0.2
				C78.1,86.1,78.2,86,78.2,85.9z M74.2,75.4C74.1,75.4,74.1,75.4,74.2,75.4c-0.1,0.1-0.1,0.2-0.1,0.2l0.3,1l-1-0.3l0,0
				c-0.1,0-0.1,0-0.2,0.1l-0.3,1l-0.7-0.7h-0.1H72l-0.7,0.7l-0.3-1c0-0.1-0.1-0.1-0.2-0.1l0,0l-1,0.3l0.3-1c0-0.1,0-0.2-0.1-0.2
				l-1-0.3l0.7-0.7v-0.1v-0.1L69,73.5l1-0.3c0,0,0.1,0,0.1-0.1V73l-0.3-1l1,0.3l0,0h0.1l0.1-0.1l0.3-1l0.7,0.7h0.1h0.1l0.7-0.7
				l0.3,1c0,0,0,0.1,0.1,0.1h0.1l0,0l1-0.3l-0.3,1v0.1l0.1,0.1l1,0.3l-0.7,0.7v0.1v0.1l0.8,0.7L74.2,75.4z M75.2,79.8l-1.3-1.3
				l0.2-0.7l0.7,0.2L75.2,79.8z M72.5,78.9L72,80.7l-0.5-1.8l0.5-0.5L72.5,78.9z M65.9,86.1l0.3,0.2H65l-0.6-1l0.3,0.2h0.1h0.1
				l1.4-1.4L65.8,86C65.8,86,65.8,86.1,65.9,86.1z M65.8,91.9l0.5,1.9l-1.4-1.4h-0.1h-0.1l-0.3,0.2l0.6-1h1.2l-0.3,0.2
				C65.8,91.7,65.8,91.8,65.8,91.9z M64.3,90.2h-1.5L62,88.9l0.8-1.3h1.5l0.8,1.3L64.3,90.2z M64.7,83.9L63.2,83l-0.9-1.5l2.3-2.3
				l3.2-0.9L67,81.6L64.7,83.9z M66.4,77.5l1.3-1.3l0.7,0.2L68.2,77L66.4,77.5z M57.8,81.7l-0.2-0.3l1,0.6v1.2l-0.2-0.3
				c0-0.1-0.1-0.1-0.1-0.1l0,0l-1.9,0.5l1.4-1.4C57.8,81.8,57.9,81.7,57.8,81.7z M56.3,79.1l-1.4-2.3h1.4h0.1l0,0h0.1
				c0,0,0,0,0.1-0.1c0,0,0,0,0-0.1l0.7-1.2l1.3,2.3v2.7L56.3,79.1z M46.5,77.5L46,75.6c0-0.1-0.1-0.1-0.2-0.1l0,0h-0.4l1-0.6l1,0.6
				H47c-0.1,0-0.1,0-0.2,0.1L46.5,77.5z M47,84.3l-0.5,0.5L46,84.3l0.5-1.8L47,84.3z M42.3,87l-1.4-1.3l1.8,0.5l0.2,0.7L42.3,87z
				 M42.4,88.9l-0.5,0.5l-1.8-0.5l1.8-0.5L42.4,88.9z M39.1,83.9l-2.3-2.3l0.9-1.5l1.5-0.9l2.3,2.3l0.9,3.2L39.1,83.9z M27.2,91.7
				l-0.3-0.2h1.2l0.6,1l-0.3-0.2h-0.1h-0.1l-1.4,1.4l0.5-1.9C27.3,91.8,27.3,91.7,27.2,91.7z M28.1,88.9l0.8-1.3h1.5l0.8,1.3
				l-0.8,1.3h-1.5L28.1,88.9z M27.3,85.9L26.8,84l1.4,1.4h0.1h0.1l0.3-0.2l-0.6,1h-1.2l0.3-0.2C27.3,86.1,27.3,86,27.3,85.9z
				 M28.5,83.9l-2.3-2.3l-0.9-3.2l3.2,0.9l2.3,2.3l-0.9,1.5L28.5,83.9z M24.9,77l-0.2-0.7l0.7-0.2l1.3,1.3L24.9,77z M23.6,74.3
				l0.7,0.7l-1,0.3c-0.1,0-0.1,0.1-0.1,0.2l0.3,1l-1-0.3l0,0c-0.1,0-0.1,0-0.2,0.1l-0.3,1l-0.7-0.7h-0.1h-0.1l-0.7,0.7l-0.3-1
				c0,0,0-0.1-0.1-0.1h-0.1l0,0l-1,0.3l0.3-1c0-0.1,0-0.2-0.1-0.2l-1-0.3l0.7-0.7v-0.1v-0.1l-0.9-0.7l1-0.3c0.1,0,0.1-0.1,0.1-0.2
				l-0.3-1l1,0.3l0,0c0.1,0,0.1,0,0.2-0.1l0.3-1l0.7,0.7H21h0.1l0.7-0.7l0.3,1c0,0.1,0.1,0.1,0.2,0.1l0,0l1-0.3l-0.3,1V73l0.1,0.1
				l1,0.3l-0.8,0.8C23.5,74.2,23.5,74.3,23.6,74.3z M24.4,79.8l-1.3-1.3l0.2-0.7l0.6,0.2L24.4,79.8z M21.6,78.9l-0.5,1.8l-0.5-1.8
				l0.5-0.5L21.6,78.9z M19.2,78.5l-1.3,1.3l0.5-1.8l0.7-0.2L19.2,78.5z M15,86.1l0.3,0.2h-1.2l-0.6-1l0.3,0.2h0.1H14l1.4-1.4
				L14.9,86C14.9,86,15,86.1,15,86.1z M15,91.9l0.5,1.9l-1.4-1.4H14h-0.1l-0.3,0.2l0.6-1h1.2l-0.3,0.2C15,91.7,14.9,91.8,15,91.9z
				 M13.5,90.2H12l-0.8-1.3l0.8-1.3h1.5l0.8,1.3L13.5,90.2z M13.8,83.9L12.3,83l-0.9-1.5l2.3-2.3l3.2-0.9L16,81.5L13.8,83.9z
				 M15.6,77.5l1.3-1.3l0.7,0.2L17.4,77L15.6,77.5z M7,81.7l-0.2-0.3l1,0.6v1.2l-0.2-0.3c0-0.1-0.1-0.1-0.1-0.1l0,0l-1.9,0.5
				l1.3-1.4C7,81.8,7,81.7,7,81.7z M5.5,79.1l-1.3-2.3h1.4c0,0,0,0,0.1,0l0,0c0.1,0,0.1,0,0.1-0.1c0,0,0,0,0-0.1l0.7-1.2l1.3,2.3
				v2.7L5.5,79.1z M0,87l-0.7-0.2l0.2-0.7l1.8-0.5L0,87z M2.2,88.9l-1.8,0.5l-0.5-0.5l0.5-0.5L2.2,88.9z M-0.1,84.7l0.9-3.2l2.3-2.3
				l1.5,0.9l0.9,1.5l-2.3,2.3L-0.1,84.7z M-4.2,77.5l-0.5-1.9c0-0.1-0.1-0.1-0.2-0.1l0,0h-0.4l1-0.6l1,0.6h-0.4
				c-0.1,0-0.1,0-0.2,0.1L-4.2,77.5z M-3.8,84.3l-0.5,0.5l-0.5-0.5l0.5-1.8L-3.8,84.3z M-8.5,87l-1.3-1.3l1.8,0.5l0.2,0.7L-8.5,87z
				 M-8.4,88.9l-0.5,0.5l-1.8-0.5l1.8-0.5L-8.4,88.9z M-11.6,83.9l-2.3-2.3l0.9-1.5l1.5-0.9l2.3,2.3l0.9,3.2L-11.6,83.9z
				 M-10.4,18.5l0.5,1.9l-1.4-1.4h-0.1h-0.1l-0.3,0.2l0.6-1h1.2l-0.3,0.2C-10.4,18.3-10.4,18.4-10.4,18.5z M-11.6,20.5l2.3,2.3
				l0.9,3.2l-3.2-0.9l-2.3-2.3l0.9-1.5L-11.6,20.5z M-6.4,29L-6.4,29c0.1-0.1,0.1-0.2,0.1-0.2l-0.3-1l1,0.3l0,0h0.1l0.1-0.1l0.3-1
				l0.8,0.8h0.1h0.1l0.7-0.7l0.3,1c0,0,0,0.1,0.1,0.1h0.1l0,0l1-0.3l-0.3,1V29l0.1,0.1l1,0.3l-0.8,0.8v0.1v0.1l0.7,0.7l-1,0.3
				c0,0-0.1,0-0.1,0.1v0.1l0.3,1l-1-0.3l0,0h-0.1l-0.1,0.1l-0.3,1l-0.6-0.8h-0.1h-0.1l-0.8,0.8l-0.3-1c0-0.1-0.1-0.1-0.2-0.1l0,0
				l-1,0.3l0.3-1v-0.1l-0.1-0.1l-1-0.3l0.7-0.7v-0.1v-0.1l-0.7-0.7L-6.4,29z M-7.5,24.6l1.4,1.3l-0.2,0.7L-7,26.4L-7.5,24.6z
				 M-4.7,25.5l0.5-1.8l0.5,1.8L-4.2,26L-4.7,25.5z M-2.3,25.9l1.3-1.3l-0.5,1.8l-0.7,0.2L-2.3,25.9z M1.9,18.3l-0.3-0.2h1.2l0.6,1
				L3,18.9H2.9H2.8l-1.4,1.4l0.5-1.8C1.9,18.4,1.9,18.3,1.9,18.3z M1.9,12.5l-0.5-1.9L2.8,12h0.1H3l0.3-0.1l-0.6,1H1.5l0.4-0.2
				C1.9,12.7,1.9,12.6,1.9,12.5z M3.4,14.2h1.5l0.8,1.3l-0.8,1.3H3.4l-0.8-1.3L3.4,14.2z M3.1,20.5l1.5,0.9l0.9,1.5l-2.3,2.3
				L-0.1,26l0.9-3.2L3.1,20.5z M1.3,26.9L0,28.2L-0.7,28l0.2-0.7L1.3,26.9z M9.9,22.7l0.2,0.3l-1-0.6v-1.2l0.2,0.3
				c0,0.1,0.1,0.1,0.1,0.1l0,0l1.9-0.5l-1.4,1.4C9.9,22.6,9.9,22.7,9.9,22.7z M11.4,25.3l1.3,2.3h-1.4c0,0,0,0-0.1,0l0,0
				c0,0-0.1,0-0.1,0.1c0,0,0,0,0,0.1l-0.7,1.1l-1.3-2.3v-2.7L11.4,25.3z M17,19.7l-0.9,3.2l-2.3,2.3l-1.5-0.9l-0.9-1.5l2.3-2.3
				L17,19.7z M15.6,18.7l1.3-1.3l0.7,0.2l-0.2,0.7L15.6,18.7z M21.1,26.8l0.5,1.9c0,0.1,0.1,0.1,0.2,0.1h0.4l-1,0.6l-1-0.6h0.4
				c0.1,0,0.1,0,0.2-0.1L21.1,26.8z M20.6,20.1l0.5-0.5l0.5,0.5l-0.5,1.8L20.6,20.1z M21.1,30.9l1,0.6h-0.4c-0.1,0-0.1,0-0.2,0.1
				L21,33.5l-0.5-1.9c0-0.1-0.1-0.1-0.2-0.1l0,0h-0.4L21.1,30.9z M25.4,17.4l1.3,1.3l-1.8-0.5l-0.2-0.7L25.4,17.4z M25.3,15.5
				l0.5-0.5l1.8,0.5L25.8,16L25.3,15.5z M28.5,20.5l2.3,2.3l-0.9,1.5l-1.5,0.9l-2.3-2.3l-0.9-3.2L28.5,20.5z M32.3,22.5l-1.4-1.4
				l1.9,0.5l0,0c0.1,0,0.1,0,0.1-0.1l0.2-0.3v1.2l-1,0.6l0.2-0.3C32.4,22.7,32.4,22.6,32.3,22.5z M33.2,23.9v2.7l-1.3,2.3l-0.7-1.2
				c0,0,0,0,0-0.1c0,0,0-0.1-0.1-0.1H31c0,0,0,0-0.1,0h-1.4l1.3-2.3L33.2,23.9z M40.3,18.5l0.5,1.9L39.4,19h-0.1h-0.1l-0.3,0.2
				l0.6-1h1.2l-0.3,0.2C40.4,18.3,40.3,18.4,40.3,18.5z M39.2,20.5l2.3,2.3l0.9,3.2l-3.2-0.9l-2.3-2.3l0.9-1.5L39.2,20.5z M44.3,29
				C44.4,29,44.4,29,44.3,29c0.1-0.1,0.1-0.2,0.1-0.2l-0.3-1l1,0.3l0,0h0.1l0.1-0.1l0.3-1l0.8,0.8h0.1h0.1l0.7-0.8l0.3,1
				c0,0,0,0.1,0.1,0.1h0.1l0,0l1-0.3l-0.3,1v0.1l0.1,0.1l1,0.3L48.9,30v0.1v0.1l0.8,0.7l-1,0.3c0,0-0.1,0-0.1,0.1v0.1l0.3,1l-1-0.3
				l0,0h-0.1l-0.1,0.1l-0.3,1l-0.8-0.8h-0.1h-0.1l-0.7,0.7l-0.3-1c0-0.1-0.1-0.1-0.2-0.1l0,0l-1,0.3l0.3-1v-0.1l-0.1-0.1l-1-0.3
				l0.7-0.7V30v-0.1l-0.8-0.7L44.3,29z M43.3,24.6l1.3,1.3l-0.2,0.7l-0.7-0.2L43.3,24.6z M46,25.5l0.5-1.8l0.5,1.8L46.5,26L46,25.5z
				 M48.4,25.9l1.3-1.3l-0.5,1.8l-0.7,0.2L48.4,25.9z M52.6,18.3l-0.3-0.2h1.2l0.6,1l-0.4-0.2h-0.1h-0.1l-1.4,1.4l0.5-1.9
				C52.7,18.4,52.7,18.3,52.6,18.3z M52.7,12.5l-0.5-1.9l1.4,1.4h0.1h0.1l0.3-0.2l-0.6,1h-1.2l0.3-0.2
				C52.7,12.7,52.7,12.6,52.7,12.5z M54.2,14.2h1.5l0.8,1.3l-0.8,1.3h-1.5l-0.8-1.3L54.2,14.2z M53.8,20.5l1.5,0.9l0.9,1.5l-2.3,2.2
				L50.7,26l0.9-3.2L53.8,20.5z M52.1,26.9l-1.3,1.3L50.1,28l0.2-0.7L52.1,26.9z M60.8,22.7L61,23l-1-0.6v-1.2l0.2,0.3l0.1,0.1l0,0
				l1.9-0.5l-1.4,1.4C60.7,22.6,60.7,22.7,60.8,22.7z M62.2,25.3l1.3,2.3h-1.4l0,0c-0.1,0-0.1,0-0.1,0.1c0,0,0,0,0,0.1l-0.7,1.1
				L60,26.6v-2.7L62.2,25.3z M72,26.8l0.5,1.9c0,0.1,0.1,0.1,0.2,0.1h0.4l-1,0.6l-1-0.6h0.4c0.1,0,0.1,0,0.2-0.1L72,26.8z
				 M71.5,20.1l0.5-0.5l0.5,0.5L72,21.9L71.5,20.1z M72,30.9l1,0.6h-0.4c-0.1,0-0.1,0-0.2,0.1L72,33.5l-0.5-1.9
				c0-0.1-0.1-0.1-0.2-0.1l0,0h-0.4L72,30.9z M83.2,22.5l-1.4-1.4l1.9,0.5l0,0c0.1,0,0.1,0,0.1-0.1l0.2-0.3v1.2L83,23l0.2-0.3
				C83.2,22.7,83.2,22.6,83.2,22.5z M84,23.9v2.7l-1.3,2.3L82,27.7c0,0,0,0,0-0.1c0,0,0-0.1-0.1-0.1h-0.1c0,0,0,0-0.1,0h-1.4
				l1.3-2.3L84,23.9z M86.1,37.4l0.2,0.3l-1-0.6v-1.2l0.2,0.3c0,0.1,0.1,0.1,0.1,0.1l0,0l1.9-0.5l-1.4,1.4
				C86.1,37.2,86.1,37.3,86.1,37.4z M87.6,39.9l1.3,2.3h-1.4l0,0l0,0c-0.1,0-0.1,0-0.1,0.1v0.1l-0.7,1.2l-1.3-2.3v-2.7L87.6,39.9z
				 M86.2,52.4l1.4,1.4l-1.9-0.5l0,0c-0.1,0-0.1,0-0.1,0.1l-0.2,0.3v-1.2l1-0.6l-0.2,0.3C86.1,52.3,86.1,52.4,86.2,52.4z M85.3,51
				v-2.7l1.3-2.3l0.7,1.2c0,0,0,0,0,0.1c0,0,0,0.1,0.1,0.1h0.1c0,0,0,0,0.1,0H89l-1.3,2.3L85.3,51z M85.3,44.2v-0.4l0.6,1l-0.6,1
				v-0.4c0-0.1,0-0.1-0.1-0.2l-1.9-0.5l1.9-0.5C85.3,44.3,85.3,44.2,85.3,44.2z M87.3,71.7C87.3,71.7,87.3,71.8,87.3,71.7L86.6,73
				l-1.3-2.3V68l2.3,1.3l1.3,2.3h-1.4l0,0l0,0C87.4,71.6,87.4,71.7,87.3,71.7z M87.5,76.8h1.4l-1.3,2.3l-2.3,1.3v-2.7l1.3-2.3
				l0.7,1.2C87.4,76.8,87.4,76.8,87.5,76.8z M86.1,66.8l0.2,0.3l-1-0.6v-1.2l0.2,0.3c0,0.1,0.1,0.1,0.1,0.1l0,0l1.9-0.5l-1.4,1.4
				C86.1,66.7,86.1,66.7,86.1,66.8z M86.2,64.2l-0.9-1.5V61l3.2-0.8l3.2,0.9l-2.4,2.4L86.2,64.2z M84.2,60c-0.1,0-0.1,0.1-0.1,0.2
				v0.4l-0.6-1l0.6-1V59c0,0.1,0,0.1,0.1,0.2l1.9,0.5L84.2,60z M77.6,72.7l2.4-2.4l3.2-0.8L84,71v1.7l-3.2,0.8L77.6,72.7z
				 M78.4,74.2l-1.8,0.5l-0.5-0.5l0.5-0.5L78.4,74.2z M72,62.8l-0.5-1.9c0-0.1-0.1-0.1-0.2-0.1l0,0h-0.4l1-0.6l1,0.6h-0.4
				c-0.1,0-0.1,0-0.2,0.1L72,62.8z M72.5,69.6L72,70.1l-0.5-0.5l0.5-1.8L72.5,69.6z M64.6,69.2l-2.3-2.3l0.9-1.5l1.5-0.9l2.3,2.3
				l0.9,3.2L64.6,69.2z M68.2,71.5l0.2,0.7l-0.7,0.2L66.4,71L68.2,71.5z M65.9,27.4l0.3,0.2H65l-0.6-1l0.3,0.2h0.1h0.1l1.4-1.4
				l-0.5,1.9C65.8,27.3,65.8,27.3,65.9,27.4z M65.1,30.2l-0.8,1.3h-1.5L62,30.2l0.8-1.3h1.5L65.1,30.2z M65.8,33.1l0.5,1.9l-1.4-1.4
				h-0.1h-0.1l-0.3,0.2l0.6-1h1.2L65.9,33C65.8,33,65.8,33.1,65.8,33.1z M64.7,35.1l2.3,2.3l0.9,3.2l-3.2-0.9l-2.3-2.3l0.9-1.5
				L64.7,35.1z M68.2,42.1l0.2,0.7l-0.7,0.1l-1.3-1.3L68.2,42.1z M65.9,56.7l0.3,0.2H65l-0.6-1l0.3,0.2h0.1h0.1l1.4-1.4l-0.5,1.9
				C65.8,56.6,65.8,56.7,65.9,56.7z M65.8,62.4l0.5,1.9l-1.4-1.4h-0.1h-0.1l-0.3,0.2l0.6-1h1.2l-0.3,0.2
				C65.8,62.3,65.8,62.4,65.8,62.4z M64.3,60.8h-1.5L62,59.5l0.8-1.3h1.5l0.8,1.3L64.3,60.8z M64.7,54.5l-1.5-0.9l-0.9-1.5l2.3-2.3
				l3.2-0.9L67,52.2L64.7,54.5z M66.4,48l1.3-1.3l0.7,0.2l-0.2,0.7L66.4,48z M67.3,44.3l0.5,0.5l-0.5,0.5l-1.8-0.5L67.3,44.3z
				 M66.3,46.3L64,48.7l-3.2,0.8L59.9,48v-1.7l3.2-0.8L66.3,46.3z M60.1,50.9c0,0.1,0.1,0.1,0.1,0.1l0,0l1.9-0.5l-1.3,1.4
				c-0.1,0.1-0.1,0.1,0,0.2l0.2,0.3l-1-0.6v-1.2L60.1,50.9z M62.2,54.6l1.3,2.3h-1.4l0,0c-0.1,0-0.1,0-0.1,0.1c0,0,0,0,0,0.1
				l-0.7,1.2l-1.4-2.4v-2.7L62.2,54.6z M61.9,61.9C61.9,61.9,61.9,62,61.9,61.9c0,0.1,0.1,0.2,0.2,0.2l0,0l0,0h1.4l-1.3,2.3
				l-2.3,1.3V63l1.3-2.3L61.9,61.9z M65.8,60.8l0.7-1.2l0,0c0,0,0,0,0-0.1v-0.1l0,0l-0.7-1.2h2.7l2.3,1.3l-2.3,1.3H65.8z M70.5,56.9
				h-1.7L67.3,56l0.8-3.2l2.4-2.4l0.9,3.2L70.5,56.9z M69.8,43.7C69.8,43.7,69.9,43.6,69.8,43.7c0.1-0.1,0.1-0.2,0.1-0.2l-0.3-1
				l1,0.3l0,0c0.1,0,0.1,0,0.2-0.1l0.3-1l0.7,0.7h0.1H72l0.7-0.7l0.3,1c0,0,0,0.1,0.1,0.1h0.1l0,0l1-0.3l-0.3,1v0.1l0.1,0.1l1,0.3
				l-0.7,0.7c-0.1,0.1-0.1,0.2,0,0.2l0.7,0.7l-1,0.3c0,0-0.1,0-0.1,0.1v0.1l0.3,1l-1-0.3l0,0c-0.1,0-0.1,0-0.2,0.1l-0.3,1L72,47.2
				h-0.1h-0.1l-0.7,0.7l-0.3-1c0,0,0-0.1-0.1-0.1h-0.1l0,0l-1,0.3l0.3-1V46l-0.1-0.1l-1-0.3l0.7-0.7c0.1-0.1,0.1-0.2,0-0.2L68.8,44
				L69.8,43.7z M68.8,39.2l1.3,1.3l-0.2,0.7L69.2,41L68.8,39.2z M71.5,40.2l0.5-1.8l0.5,1.8L72,40.7L71.5,40.2z M73.9,40.6l1.3-1.3
				l-0.5,1.8L74,41.3L73.9,40.6z M75.2,50.4l-1.3-1.3l0.2-0.7l0.7,0.2L75.2,50.4z M72.5,49.5L72,51.3l-0.5-1.8L72,49L72.5,49.5z
				 M70.1,49.1l-1.3,1.3l0.5-1.8l0.7-0.2L70.1,49.1z M72,58.7l-1-0.6h0.4c0.1,0,0.1,0,0.2-0.1l0.5-1.9l0.5,1.9
				c0,0.1,0.1,0.1,0.2,0.1h0.4L72,58.7z M72.6,53.7l0.9-3.2l2.4,2.4l0.8,3.2l-1.5,0.8h-1.7L72.6,53.7z M78.1,33l-0.3-0.2H79l0.6,1
				l-0.3-0.2h-0.1h-0.1L77.7,35l0.5-1.9C78.2,33.1,78.1,33,78.1,33z M78.2,27.2l-0.5-1.9l1.4,1.4h0.1h0.1l0.3-0.2l-0.6,1h-1.2
				l0.3-0.2C78.1,27.3,78.2,27.3,78.2,27.2z M79.7,28.8h1.5l0.8,1.3l-0.8,1.3h-1.5l-0.8-1.3L79.7,28.8z M79.3,35.1l1.5,0.9l0.9,1.5
				l-2.3,2.3l-3.2,0.9l0.9-3.2L79.3,35.1z M83.2,37.6L83,37.3l1,0.6v1.2l-0.2-0.3l-0.1-0.1l0,0l-1.9,0.5l1.4-1.4
				C83.2,37.7,83.2,37.7,83.2,37.6z M83.2,40.1l0.9,1.5v1.7l-3.2,0.8l-3.2-0.9l2.3-2.3L83.2,40.1z M78.1,62.3l-0.3-0.2H79l0.6,1
				l-0.4-0.2h-0.1H79l-1.4,1.4l0.5-1.9C78.2,62.4,78.1,62.3,78.1,62.3z M78.9,59.5l0.8-1.3h1.5l0.8,1.3l-0.8,1.3h-1.5L78.9,59.5z
				 M78.2,56.5l-0.5-1.9l1.4,1.4h0.1h0.1l0.3-0.2L79,56.9h-1.2l0.3-0.2C78.1,56.7,78.2,56.6,78.2,56.5z M76.2,46.7l1.3,1.3l-1.8-0.5
				l-0.1-0.6L76.2,46.7z M76.1,44.8l0.5-0.5l1.8,0.5l-1.8,0.5L76.1,44.8z M79.4,49.8l2.3,2.3l-0.9,1.5l-1.5,0.9L77,52.2L76.1,49
				L79.4,49.8z M81.9,56.9L81.9,56.9c-0.1,0-0.1,0-0.2,0h-1.4l1.3-2.3l2.3-1.3V56l-1.3,2.3L82,57C82,57,82,57,81.9,56.9
				C82,56.9,82,56.9,81.9,56.9z M83,52.4l0.2-0.3c0-0.1,0-0.1,0-0.2l-1.4-1.4l1.9,0.5l0,0c0.1,0,0.1,0,0.1-0.1l0.2-0.3v1.2L83,52.4z
				 M83.2,49.5L80,48.7l-2.4-2.4l3.2-0.9l3.2,0.8v1.7L83.2,49.5z M77.6,41.6l-1.4,1.3l-0.7-0.2l0.2-0.7L77.6,41.6z M75.6,58.1h2.7
				l-0.7,1.2l0,0c0,0,0,0,0,0.1v0.1l0,0l0.7,1.2h-2.7l-2.3-1.3L75.6,58.1z M79.3,64.4l1.5,0.9l0.9,1.5l-2.3,2.3l-3.2,0.9l0.9-3.2
				L79.3,64.4z M83.2,67L83,66.7l1,0.6v1.2l-0.2-0.3c0-0.1-0.1-0.1-0.1-0.1l0,0l-1.9,0.5l1.4-1.4C83.2,67.1,83.2,67.1,83.2,67z
				 M81.7,64.4l-1.3-2.3h1.4l0,0l0,0c0.1,0,0.1,0,0.1-0.1v-0.1l0.7-1.2l1.3,2.3v2.7L81.7,64.4z M81.7,35.1l-1.3-2.3h1.4l0,0l0,0
				c0.1,0,0.1,0,0.1-0.1v-0.1l0.7-1.2l1.3,2.3v2.7L81.7,35.1z M80.8,24.3l-1.5,0.9L77,22.9l-0.9-3.2l3.2,0.9l2.3,2.3L80.8,24.3z
				 M78.2,28.8L77.5,30l0,0c0,0,0,0,0,0.1v0.1l0,0l0.7,1.2h-2.7l-2.3-1.3l2.3-1.3L78.2,28.8z M73.5,32.8h1.7l1.5,0.9l-0.8,3.2
				l-2.4,2.4l-0.9-3.4L73.5,32.8z M71.3,35.9l-0.9,3.2L68,36.7l-0.8-3.2l1.5-0.9h1.7L71.3,35.9z M68.4,31.5h-2.7l0.7-1.2l0,0l0,0
				v-0.1l0,0L65.7,29h2.7l2.3,1.3L68.4,31.5z M64.7,25.2l-1.5-0.9l-0.9-1.5l2.3-2.3l3.2-0.9L67,22.9L64.7,25.2z M61.3,31.4l0.7,1.2
				v0.1l0.1,0.1l0,0l0,0h1.4l-1.3,2.3l-2.3,1.3v-2.7L61.3,31.4z M61,37.3l-0.2,0.3c0,0.1,0,0.1,0,0.2l1.4,1.4l-1.9-0.5l0,0
				c-0.1,0-0.1,0-0.1,0.1L60,39.1v-1.2L61,37.3z M60.8,40.1l3.2,0.8l2.4,2.4l-3.2,0.9L60,43.4v-1.7L60.8,40.1z M60.6,44.8l-1.9,0.5
				c-0.1,0-0.1,0.1-0.1,0.2v0.4l-0.6-1l0.6-1v0.4c0,0.1,0,0.1,0.1,0.2L60.6,44.8z M52.6,77l-0.3-0.2h1.2l0.6,1l-0.3-0.2h-0.1h-0.1
				L52.2,79l0.5-1.9C52.7,77.1,52.7,77.1,52.6,77z M53.4,74.2l0.8-1.3h1.5l0.8,1.3l-0.8,1.3h-1.5L53.4,74.2z M52.7,71.3l-0.5-1.9
				l1.4,1.4h0.1h0.1l0.3-0.2l-0.6,1h-1.2l0.3-0.2C52.7,71.4,52.7,71.3,52.7,71.3z M53.8,69.3L51.5,67l-0.9-3.2l3.2,0.9l2.3,2.3
				l-0.9,1.5L53.8,69.3z M48.7,60.6c-0.1,0-0.1,0.1-0.1,0.2l0.3,1l-1-0.3l0,0h-0.1l-0.1,0.1l-0.3,1l-0.8-0.7h-0.1h-0.1l-0.7,0.7
				l-0.3-1c0-0.1-0.1-0.1-0.2-0.1l0,0l-1,0.3l0.3-1c0-0.1,0-0.2-0.1-0.2l-1-0.3l0.7-0.7v-0.1v-0.1l-0.7-0.7l1-0.3
				c0.1,0,0.1-0.1,0.1-0.2l-0.3-1l1,0.3l0,0h0.1l0.1-0.1l0.3-1l0.7,0.7h0.1h0.1l0.7-0.8l0.3,1c0,0,0,0.1,0.1,0.1h0.1l0,0l1-0.3
				l-0.3,1c0,0.1,0,0.2,0.1,0.2l1,0.3l-0.7,0.7v0.1v0.1l0.8,0.7L48.7,60.6z M49.7,65.1l-1.3-1.3l0.2-0.7l0.7,0.2L49.7,65.1z
				 M47,64.1L46.5,66L46,64.1l0.5-0.5L47,64.1z M44.6,63.7L43.3,65l0.5-1.8l0.7-0.2L44.6,63.7z M40.4,71.4l0.3,0.2h-1.2l-0.6-1
				l0.3,0.2h0.1h0.1l1.4-1.4l-0.5,1.9C40.3,71.3,40.4,71.4,40.4,71.4z M40.3,77.2l0.5,1.9l-1.4-1.4h-0.1h-0.1l-0.3,0.2l0.6-1h1.2
				L40.4,77C40.4,77.1,40.3,77.1,40.3,77.2z M38.8,75.6h-1.5l-0.8-1.3l0.8-1.3h1.5l0.8,1.3L38.8,75.6z M39.2,69.3l-1.5-0.9l-0.9-1.5
				l2.3-2.3l3.2-0.9l-0.9,3.2L39.2,69.3z M35.3,66.8l0.2,0.3l-1-0.6v-1.2l0.2,0.3c0,0.1,0.1,0.1,0.1,0.1l0,0l1.9-0.5l-1.4,1.4
				C35.3,66.7,35.3,66.7,35.3,66.8z M35.3,64.2l-0.9-1.5V61l3.2-0.8l3.2,0.9l-2.4,2.4L35.3,64.2z M42.3,57.6l-1.4-1.3l1.8,0.5
				l0.2,0.7L42.3,57.6z M42.4,59.5L41.9,60l-1.8-0.5l1.8-0.5L42.4,59.5z M39.1,54.5l-2.3-2.3l0.9-1.5l1.5-0.9l2.3,2.3l0.9,3.2
				L39.1,54.5z M40.3,47.8l0.5,1.9l-1.4-1.4h-0.1h-0.1l-0.3,0.2l0.6-1h1.2l-0.3,0.2C40.4,47.6,40.3,47.7,40.3,47.8z M40.3,46.1
				l0.7-1.2l0,0c0,0,0,0,0-0.1v-0.1l0,0l-0.7-1.2H43l2.3,1.3l-2.4,1.3H40.3z M40.4,42l0.3,0.2h-1.2l-0.6-1l0.3,0.2h0.1h0.1l1.4-1.4
				l-0.5,1.9C40.3,41.9,40.4,42,40.4,42z M39.2,39.8l-1.5-0.9l-0.9-1.5l2.3-2.3l3.2-0.9l-0.9,3.2L39.2,39.8z M39.6,44.8l-0.8,1.3
				h-1.5l-0.8-1.3l0.8-1.3h1.5L39.6,44.8z M36.6,47.4H38l-1.3,2.3L34.4,51v-2.7l1.3-2.3l0.7,1.2C36.5,47.4,36.6,47.4,36.6,47.4z
				 M35.5,51.9l-0.2,0.3c0,0.1,0,0.1,0,0.2l1.4,1.4l-1.9-0.5l0,0c-0.1,0-0.1,0-0.1,0.1l-0.2,0.3v-1.2L35.5,51.9z M34.5,56.2l0.9-1.5
				l3.2,0.8l2.4,2.4l-3.2,0.9L34.6,58L34.5,56.2z M40.9,62.7l1.3-1.3l0.7,0.2l-0.2,0.7L40.9,62.7z M42.6,51.4l-0.8-3.2l1.5-0.9H45
				l0.8,3.2l-0.9,3.2L42.6,51.4z M46.5,41.5l0.5,1.9c0,0.1,0.1,0.1,0.2,0.1h0.4l-1,0.6l-1-0.6H46c0.1,0,0.1,0,0.2-0.1L46.5,41.5z
				 M46,34.8l0.5-0.5l0.5,0.5l-0.5,1.8L46,34.8z M46.5,45.5l1,0.6h-0.4c-0.1,0-0.1,0-0.2,0.1l-0.5,1.9l-0.5-1.9
				c0-0.1-0.1-0.1-0.2-0.1l0,0h-0.4L46.5,45.5z M47,54.8l-0.5,0.5L46,54.8l0.5-1.8L47,54.8z M44.6,55.2l-0.2,0.7l-0.7-0.2l-0.4-1.8
				L44.6,55.2z M48.4,55.2l1.3-1.3l-0.5,1.8l-0.6,0.2L48.4,55.2z M48,53.8l-0.9-3.2l0.8-3.2h1.7l1.5,0.9l-0.8,3.2L48,53.8z
				 M57.8,52.2l-0.2-0.3l1,0.6v1.2l-0.2-0.3c0-0.1-0.1-0.1-0.1-0.1l0,0l-1.9,0.5l1.4-1.4C57.8,52.4,57.9,52.3,57.8,52.2z M56.3,49.7
				l-1.4-2.3h1.3h0.1h0.1c0,0,0,0,0.1-0.1c0,0,0,0,0-0.1l0.7-1.2l1.3,2.3V51L56.3,49.7z M50.8,57.6l-0.7-0.2l0.2-0.7l1.8-0.5
				L50.8,57.6z M53,59.5L51.2,60l-0.5-0.5l0.5-0.5L53,59.5z M50.7,55.3l0.9-3.2l2.3-2.3l1.5,0.9l0.9,1.5l-2.4,2.3L50.7,55.3z
				 M52.6,47.6l-0.3-0.2h1.2l0.6,1l-0.3-0.2h-0.1h-0.1l-1.4,1.4l0.5-1.9C52.7,47.7,52.7,47.6,52.6,47.6z M52.7,41.8l-0.5-1.9
				l1.4,1.4h0.1h0.1l0.3-0.2l-0.6,1h-1.2l0.3-0.2C52.7,42,52.7,41.9,52.7,41.8z M54.2,43.5h1.5l0.8,1.3l-0.8,1.3h-1.5l-0.8-1.3
				L54.2,43.5z M56.6,42.4C56.6,42.3,56.5,42.3,56.6,42.4c0-0.1-0.1-0.2-0.2-0.2l0,0l0,0H55l1.3-2.3l2.3-1.3v2.7l-1.3,2.3L56.6,42.4
				z M55.3,39l-1.5,0.9l-2.3-2.3l-0.9-3.2l3.2,0.9l2.3,2.3L55.3,39z M52.7,43.5L52,44.7l0,0l0,0v0.1l0,0l0.7,1.2H50l-2.3-1.3
				l2.3-1.3L52.7,43.5z M50.8,61.4l1.3,1.3l-1.8-0.5l-0.2-0.7L50.8,61.4z M54.5,63.4L52.1,61l3.2-0.9l3.2,0.8v1.7l-0.9,1.5
				L54.5,63.4z M52.2,58l2.4-2.4l3.2-0.8l0.9,1.5V58l-3.2,0.8L52.2,58z M57.5,37.7l0.2-0.3c0-0.1,0-0.1,0-0.2l-1.4-1.4l1.9,0.5l0,0
				c0.1,0,0.1,0,0.1-0.1l0.2-0.3v1.2L57.5,37.7z M58.7,33.4l-0.9,1.5l-3.2-0.8l-2.4-2.4l3.2-0.9l3.2,0.8L58.7,33.4z M51.1,30.6
				l-0.5-0.5l0.5-0.5l1.8,0.5L51.1,30.6z M50.8,32.1l1.3,1.3l-1.8-0.5l-0.2-0.7L50.8,32.1z M50.4,38.2l0.8,3.2l-1.5,0.9H48l-0.8-3.2
				l0.9-3.2L50.4,38.2z M48.4,34.4l0.2-0.7l0.7,0.2l0.5,1.8L48.4,34.4z M44.6,34.4l-1.3,1.3l0.5-1.8l0.7-0.2L44.6,34.4z M45,35.8
				l0.9,3.2l-0.8,3.2h-1.7l-1.5-0.9l0.8-3.2L45,35.8z M42.7,32.9l-1.8,0.5l1.3-1.3l0.7,0.2L42.7,32.9z M40.1,30.2l1.8-0.5l0.5,0.5
				l-0.5,0.4L40.1,30.2z M42.3,28.3l-1.4-1.4l1.8,0.5l0.2,0.7L42.3,28.3z M38.5,26.3l2.4,2.4l-3.2,0.9l-3.2-0.8v-1.7l0.9-1.5
				L38.5,26.3z M40.8,31.7l-2.4,2.4l-3.1,0.8l-0.9-1.5v-1.7l3.2-0.8L40.8,31.7z M35.3,37.4l0.2,0.3l-1-0.6v-1.2l0.2,0.3
				c0,0.1,0.1,0.1,0.1,0.1l0,0l1.9-0.5l-1.4,1.4C35.3,37.2,35.3,37.3,35.3,37.4z M36.8,39.9l1.3,2.3h-1.4l0,0l0,0
				c-0.1,0-0.1,0-0.1,0.1v0.1l-0.7,1.2l-1.3-2.3v-2.7L36.8,39.9z M34.5,44.2v-0.4l0.6,1l-0.6,1v-0.4c0-0.1,0-0.1-0.1-0.2l-1.9-0.5
				l1.9-0.5C34.4,44.3,34.5,44.2,34.5,44.2z M32.3,67l-0.2-0.3l1,0.6v1.2l-0.2-0.3c0-0.1-0.1-0.1-0.1-0.1l0,0l-1.9,0.5l1.4-1.4
				C32.4,67.1,32.4,67.1,32.3,67z M30.9,64.4l-1.3-2.3H31l0,0l0,0c0.1,0,0.1,0,0.1-0.1v-0.1l0.7-1.2l1.3,2.3v2.7L30.9,64.4z
				 M25.3,70.1l0.9-3.2l2.3-2.3l1.5,0.9l0.9,1.5l-2.3,2.3L25.3,70.1z M26.7,71l-1.3,1.3l-0.7-0.2l0.2-0.7L26.7,71z M21.1,62.8
				l-0.5-1.9c0-0.1-0.1-0.1-0.2-0.1l0,0H20l1-0.6l1,0.6h-0.4c-0.1,0-0.1,0-0.2,0.1L21.1,62.8z M21.6,69.6l-0.5,0.5l-0.5-0.5l0.5-1.8
				L21.6,69.6z M13.8,69.2l-2.3-2.3l0.9-1.5l1.5-0.9l2.3,2.3l0.9,3.2L13.8,69.2z M17.4,71.5l0.2,0.7l-0.7,0.1L15.6,71L17.4,71.5z
				 M15,27.4l0.3,0.2h-1.2l-0.6-1l0.3,0.2h0.1H14l1.4-1.4l-0.5,1.9C14.9,27.3,15,27.3,15,27.4z M14.2,30.2l-0.8,1.3h-1.5l-0.8-1.3
				l0.8-1.3h1.5L14.2,30.2z M15,33.1l0.5,1.9l-1.4-1.4H14h-0.1l-0.3,0.2l0.6-1h1.2L15,32.9C15,33,14.9,33.1,15,33.1z M13.8,35.1
				l2.3,2.3l0.9,3.2l-3.2-0.9l-2.3-2.3l0.9-1.5L13.8,35.1z M17.4,42.1l0.2,0.7l-0.7,0.1l-1.3-1.3L17.4,42.1z M15,56.7l0.3,0.2h-1.2
				l-0.6-1l0.3,0.2h0.1H14l1.4-1.4l-0.5,1.9C14.9,56.6,15,56.7,15,56.7z M15,62.4l0.5,1.9l-1.4-1.4H14h-0.1l-0.3,0.2l0.6-1h1.2
				l-0.3,0.2C15,62.3,14.9,62.4,15,62.4z M13.5,60.8H12l-0.8-1.3l0.8-1.3h1.5l0.8,1.3L13.5,60.8z M13.8,54.5l-1.5-0.9l-0.9-1.5
				l2.3-2.3l3.2-0.9L16,52.1L13.8,54.5z M15.6,48l1.3-1.3l0.7,0.2l-0.2,0.7L15.6,48z M16.5,44.3l0.5,0.5l-0.5,0.5l-1.8-0.5
				L16.5,44.3z M15.5,46.3l-2.4,2.4l-3.2,0.8L9,48v-1.7l3.2-0.8L15.5,46.3z M9.3,50.9C9.3,51,9.4,51,9.4,51l0,0l1.9-0.5l-1.4,1.4
				c0,0,0,0.1,0,0.2l0.2,0.3l-1-0.6v-1.2L9.3,50.9z M11.4,54.6l1.3,2.3h-1.4c0,0,0,0-0.1,0l0,0c0,0-0.1,0-0.1,0.1c0,0,0,0,0,0.1
				l-0.7,1.2l-1.3-2.4v-2.7L11.4,54.6z M10.4,60.7l0.7,1.2V62l0.1,0.1c0,0,0,0,0.1,0l0,0h1.4l-1.3,2.3l-2.3,1.3V63L10.4,60.7z
				 M14.9,60.8l0.7-1.2l0,0c0,0,0,0,0-0.1v-0.1l0,0l-0.7-1.3h2.7l2.3,1.3l-2.3,1.3L14.9,60.8z M19.6,56.9h-1.7L16.4,56l0.8-3.2
				l2.4-2.4l0.9,3.2L19.6,56.9z M18.9,43.7C19,43.7,19,43.6,18.9,43.7c0.1-0.1,0.1-0.2,0.1-0.2l-0.3-1l1,0.3l0,0h0.1l0.1-0.1l0.3-1
				l0.7,0.7H21h0.1l0.7-0.7l0.3,1c0,0,0,0.1,0.1,0.1h0.1l0,0l1-0.3l-0.3,1v0.1l0.1,0.1l1,0.3l-0.8,0.8v0.1V45l0.7,0.7L23,46
				c0,0-0.1,0-0.1,0.1v0.1l0.3,1l-1-0.3l0,0h-0.1L22,47l-0.3,1L21,47.3h-0.1h-0.1L20.1,48l-0.3-1c0,0,0-0.1-0.1-0.1h-0.1l0,0l-1,0.3
				l0.3-1v-0.1L18.8,46l-1-0.3l0.7-0.7v-0.1v-0.1L17.9,44L18.9,43.7z M17.9,39.2l1.3,1.3L19,41.2L18.3,41L17.9,39.2z M20.6,40.2
				l0.5-1.8l0.5,1.8l-0.5,0.5L20.6,40.2z M23,40.6l1.3-1.3L23.9,41l-0.7,0.2L23,40.6z M24.4,50.4l-1.3-1.3l0.2-0.7l0.7,0.2
				L24.4,50.4z M21.6,49.5l-0.5,1.8l-0.5-1.8l0.5-0.5L21.6,49.5z M19.2,49.1l-1.3,1.3l0.5-1.8l0.7-0.2L19.2,49.1z M21.1,58.7l-1-0.6
				h0.4c0.1,0,0.1,0,0.2-0.1l0.5-1.9l0.5,1.9c0,0.1,0.1,0.1,0.2,0.1h0.4L21.1,58.7z M21.8,53.7l0.9-3.2l2.4,2.4l0.8,3.2l-1.5,0.8
				h-1.7L21.8,53.7z M27.2,32.9l-0.3-0.1h1.2l0.6,1l-0.3-0.2h-0.1h-0.1L26.8,35l0.5-1.9C27.3,33.1,27.3,33,27.2,32.9z M27.3,27.2
				l-0.5-1.9l1.4,1.4h0.1h0.1l0.3-0.2l-0.6,1h-1.2l0.3-0.2C27.3,27.3,27.3,27.3,27.3,27.2z M28.8,28.8h1.5l0.8,1.3l-0.8,1.3h-1.5
				L28,30.1L28.8,28.8z M28.5,35.1L30,36l0.9,1.5l-2.3,2.3l-3.2,0.9l0.9-3.2L28.5,35.1z M32.3,37.6l-0.2-0.3l1,0.6v1.2l-0.2-0.3
				c0-0.1-0.1-0.1-0.1-0.1l0,0l-1.9,0.5l1.4-1.4C32.4,37.7,32.4,37.6,32.3,37.6z M32.3,40.1l0.9,1.5v1.7L30,44.1l-3.2-0.9l2.4-2.4
				L32.3,40.1z M27.2,62.3l-0.3-0.2h1.2l0.6,1l-0.3-0.2h-0.1h-0.1l-1.4,1.4l0.5-1.9C27.3,62.4,27.3,62.3,27.2,62.3z M28.1,59.5
				l0.8-1.3h1.5l0.8,1.3l-0.8,1.3h-1.5L28.1,59.5z M27.3,56.5l-0.5-1.9l1.4,1.4h0.1h0.1l0.3-0.2l-0.6,1l-1.2,0.1l0.3-0.2
				C27.3,56.7,27.3,56.6,27.3,56.5z M28.5,54.5l-2.3-2.3L25.3,49l3.2,0.9l2.3,2.3l-0.9,1.5L28.5,54.5z M25.4,46.7l1.3,1.3l-1.8-0.4
				l-0.2-0.7L25.4,46.7z M25.3,44.8l0.5-0.5l1.8,0.5l-1.8,0.5L25.3,44.8z M29.2,48.7l-2.4-2.4l3.2-0.9l3.2,0.8v1.7l-0.9,1.5
				L29.2,48.7z M26.7,41.6l-1.3,1.3l-0.7-0.2l0.2-0.7L26.7,41.6z M24.7,58.1h2.7l-0.7,1.2l0,0c0,0,0,0,0,0.1v0.1l0,0l0.7,1.2h-2.7
				l-2.3-1.3L24.7,58.1z M31.9,58.2L31.2,57c0,0,0,0,0-0.1c0,0,0-0.1-0.1-0.1H31c0,0,0,0-0.1,0h-1.4l1.3-2.3l2.3-1.3v2.7L31.9,58.2z
				 M32.2,52.4l0.2-0.3c0-0.1,0-0.1,0-0.2L31,50.5l1.9,0.5l0,0c0.1,0,0.1,0,0.1-0.1l0.2-0.3v1.2L32.2,52.4z M30.9,35.1l-1.3-2.3H31
				l0,0l0,0c0.1,0,0.1,0,0.1-0.1v-0.1l0.7-1.2l1.3,2.3v2.7L30.9,35.1z M27.4,28.8L26.7,30l0,0l0,0v0.1l0,0l0.7,1.2h-2.7L22.4,30
				l2.3-1.3L27.4,28.8z M22.6,32.8h1.7l1.5,0.9L25,36.9l-2.4,2.4l-0.8-3.4L22.6,32.8z M20.5,35.9l-0.9,3.2l-2.4-2.4l-0.8-3.2
				l1.5-0.9h1.7L20.5,35.9z M17.6,31.5h-2.7l0.7-1.2l0,0c0,0,0,0,0-0.1v-0.1l0,0l-0.7-1.3h2.7l2.3,1.3L17.6,31.5z M10.4,31.4
				l0.7,1.2v0.1l0.1,0.1c0,0,0,0,0.1,0l0,0h1.4l-1.3,2.3l-2.3,1.3v-2.7L10.4,31.4z M10.1,37.3l-0.2,0.3c0,0.1,0,0.1,0,0.2l1.4,1.4
				l-1.9-0.5l0,0c-0.1,0-0.1,0-0.1,0.1l-0.2,0.3v-1.2L10.1,37.3z M9.9,40.1l3.2,0.8l2.4,2.4l-3.2,0.9l-3.2-0.8v-1.7L9.9,40.1z
				 M9.8,44.8l-1.9,0.5c-0.1,0-0.1,0.1-0.1,0.2v0.4l-0.6-1l0.6-1v0.4c0,0.1,0,0.1,0.1,0.2L9.8,44.8z M1.9,77l-0.3-0.2h1.2l0.6,1
				l-0.3-0.2H3H2.9L1.5,79l0.4-1.8C1.9,77.1,1.9,77.1,1.9,77z M2.7,74.2l0.8-1.3H5l0.8,1.3L5,75.5H3.5L2.7,74.2z M1.9,71.3l-0.5-1.9
				l1.4,1.4h0.1H3l0.3-0.2l-0.6,1H1.5l0.4-0.2V71.3z M3.1,69.3L0.8,67l-0.9-3.3l3.2,0.9l2.3,2.3l-0.9,1.5L3.1,69.3z M-0.5,62.2
				l-0.2-0.7L0,61.3l1.3,1.3L-0.5,62.2z M-1.8,59.6l0.7,0.7l-1,0.3c0,0-0.1,0-0.1,0.1v0.1l0.3,1l-1-0.3l0,0H-3l-0.1,0.1l-0.3,1
				l-0.7-0.7h-0.1h-0.1l-0.8,0.8l-0.3-1c0-0.1-0.1-0.1-0.2-0.1l0,0l-1,0.3l0.3-1c0-0.1,0-0.2-0.1-0.2l-1-0.3l0.7-0.7v-0.1v-0.1
				l-0.7-0.7l1-0.3c0.1,0,0.1-0.1,0.1-0.2l-0.3-1l1,0.3l0,0h0.1l0.1-0.1l0.3-1l0.8,0.8h0.1h0.1l0.7-0.7l0.3,1c0,0.1,0.1,0.1,0.2,0.1
				l0,0l1-0.3l-0.3,1v0.1l0.1,0.1l1,0.3l-0.8,0.8v0.1L-1.8,59.6z M-1,65.1l-1.3-1.3l0.2-0.7l0.7,0.2L-1,65.1z M-3.8,64.1L-4.2,66
				l-0.5-1.8l0.5-0.5L-3.8,64.1z M-6.1,63.7L-7.4,65l0.5-1.8l0.7-0.2L-6.1,63.7z M-10.3,71.4l0.3,0.2h-1.2l-0.6-1l0.3,0.2h0.1h0.1
				l1.4-1.4l-0.5,1.9C-10.4,71.3-10.4,71.4-10.3,71.4z M-10.4,77.2l0.5,1.9l-1.4-1.4h-0.1h-0.1l-0.3,0.2l0.6-1h1.2l-0.3,0.2
				C-10.4,77.1-10.4,77.1-10.4,77.2z M-11.9,75.6h-1.5l-0.8-1.3l0.8-1.3h1.5l0.8,1.3L-11.9,75.6z M-11.6,69.3l-1.5-0.9l-0.9-1.5
				l2.3-2.3l3.2-0.9l-0.9,3.2L-11.6,69.3z M-9.8,62.7l1.3-1.3l0.7,0.2L-8,62.3L-9.8,62.7z M-8.5,32.1l0.7,0.2L-8,32.9l-1.8,0.5
				L-8.5,32.1z M-10.7,30.2l1.8-0.5l0.5,0.5l-0.5,0.5L-10.7,30.2z M-8.4,34.3l-0.9,3.2l-2.3,2.3l-1.5-0.9l-0.9-1.5l2.3-2.3
				L-8.4,34.3z M-10.4,47.8l0.5,1.9l-1.4-1.4h-0.1h-0.1l-0.3,0.2l0.6-1h1.2l-0.3,0.2C-10.4,47.6-10.4,47.7-10.4,47.8z M-10.5,46.2
				l0.7-1.2l0,0l0,0v-0.1l0,0l-0.7-1.2h2.7l2.3,1.3l-2.3,1.3L-10.5,46.2z M-10.3,42l0.3,0.2h-1.2l-0.6-1l0.3,0.2h0.1h0.1l1.4-1.4
				l-0.5,1.9C-10.4,41.9-10.4,42-10.3,42z M-11.2,44.8l-0.8,1.3h-1.5l-0.8-1.3l0.8-1.3h1.5L-11.2,44.8z M-11.6,49.8l2.3,2.3l0.9,3.2
				l-3.2-0.9l-2.3-2.3l0.9-1.5L-11.6,49.8z M-8,56.7l0.2,0.7l-0.7,0.2l-1.3-1.3L-8,56.7z M-8.9,59l0.5,0.5L-8.9,60l-1.8-0.5L-8.9,59
				z M-8.1,51.4l-0.8-3.2l1.5-0.9h1.7l0.8,3.2l-0.9,3.2L-8.1,51.4z M-4.2,41.5l0.5,1.9c0,0.1,0.1,0.1,0.2,0.1h0.4l-1,0.6l-1-0.6h0.4
				c0.1,0,0.1,0,0.2-0.1L-4.2,41.5z M-4.7,34.8l0.5-0.5l0.5,0.5l-0.5,1.8L-4.7,34.8z M-4.3,45.5l1,0.6h-0.4c-0.1,0-0.1,0-0.2,0.1
				l-0.5,1.9l-0.5-1.9c0-0.1-0.1-0.1-0.2-0.1l0,0h-0.4L-4.3,45.5z M-3.8,54.8l-0.5,0.5l-0.5-0.5l0.5-1.8L-3.8,54.8z M-6.1,55.2
				l-0.2,0.7L-7,55.7l-0.5-1.8L-6.1,55.2z M-2.4,55.2l1.3-1.3l-0.5,1.8l-0.6,0.2L-2.4,55.2z M-2.7,53.8l-0.9-3.2l0.8-3.2h1.7
				l1.5,0.9l-0.8,3.2L-2.7,53.8z M6.9,37.2l-1.4-1.4l1.9,0.5l0,0c0.1,0,0.1,0,0.1-0.1l0.3-0.3v1.2l-1,0.6L7,37.4
				C7,37.3,7,37.2,6.9,37.2z M7.8,38.6v2.7l-1.3,2.3l-0.7-1.2v-0.1l-0.1-0.1c0,0,0,0-0.1,0l0,0H4.2l1.3-2.3L7.8,38.6z M7,52.2
				l-0.2-0.3l1,0.6v1.2l-0.2-0.3c0-0.1-0.1-0.1-0.1-0.1l0,0l-1.9,0.5l1.3-1.4C7,52.4,7,52.3,7,52.2z M5.5,49.7l-1.3-2.3h1.4
				c0,0,0,0,0.1,0l0,0c0.1,0,0.1,0,0.1-0.1c0,0,0,0,0-0.1L6.5,46l1.3,2.3V51L5.5,49.7z M-0.1,55.3l0.9-3.2l2.3-2.3l1.5,0.9l0.9,1.5
				l-2.3,2.3L-0.1,55.3z M1.3,56.3L0,57.6l-0.7-0.2l0.2-0.7L1.3,56.3z M1.9,47.6l-0.3-0.2h1.2l0.6,1l-0.3-0.2H3H2.9l-1.4,1.4
				l0.4-1.8C1.9,47.7,1.9,47.6,1.9,47.6z M1.9,41.8l-0.5-1.9l1.4,1.4h0.1H3l0.3-0.2l-0.6,1H1.5L1.9,42C1.9,42,1.9,41.9,1.9,41.8z
				 M3.4,43.5h1.5l0.8,1.3l-0.8,1.3H3.4l-0.8-1.3L3.4,43.5z M4.6,39l-1.5,0.9l-2.3-2.3l-0.9-3.3l3.2,0.9l2.3,2.3L4.6,39z M2,43.5
				l-0.7,1.2l0,0c0,0,0,0,0,0.1v0.1l0,0L2,46.1h-2.7L-3,44.8l2.3-1.3H2z M0.4,60l-0.5-0.5L0.4,59l1.8,0.5L0.4,60z M1.4,58l2.4-2.4
				L7,54.8l0.9,1.5V58l-3.2,0.8L1.4,58z M7.8,33.4L7,34.9l-3.2-0.8l-2.4-2.4l3.2-0.9l3.2,0.8L7.8,33.4z M0.4,30.6l-0.5-0.4l0.5-0.5
				l1.8,0.5L0.4,30.6z M0,32.1l1.3,1.3l-1.8-0.5l-0.2-0.7L0,32.1z M-0.4,38.2l0.8,3.2l-1.5,0.9h-1.7l-0.8-3.2l0.9-3.2L-0.4,38.2z
				 M-2.3,34.4l0.2-0.7l0.7,0.2l0.5,1.8L-2.3,34.4z M-6.1,34.4l-1.3,1.3l0.5-1.8l0.7-0.2L-6.1,34.4z M-5.8,35.8l0.9,3.2l-0.8,3.2
				h-1.7l-1.5-0.9l0.8-3.2L-5.8,35.8z M-8.5,28.3l-1.3-1.4l1.8,0.5l0.2,0.7L-8.5,28.3z M-12.3,26.3l2.4,2.4l-3.2,0.9l-3.2-0.8v-1.7
				l0.9-1.5L-12.3,26.3z M-9.9,31.7l-2.4,2.4l-3.2,0.8l-0.9-1.5v-1.7l3.2-0.8L-9.9,31.7z M-15.5,37.4l0.2,0.3l-1-0.6v-1.2l0.2,0.3
				c0,0.1,0.1,0.1,0.1,0.1l0,0l1.9-0.5l-1.4,1.4C-15.5,37.2-15.5,37.3-15.5,37.4z M-14,39.9l1.3,2.3h-1.4l0,0l0,0
				c-0.1,0-0.1,0-0.1,0.1v0.1l-0.7,1.2l-1.3-2.3v-2.7L-14,39.9z M-15,46.1l0.7,1.2c0,0,0,0,0,0.1c0,0,0,0.1,0.1,0.1h0.1
				c0,0,0,0,0.1,0h1.4l-1.3,2.3l-2.3,1.3v-2.7L-15,46.1z M-15.3,51.9l-0.2,0.3c0,0.1,0,0.1,0,0.2l1.4,1.4l-1.9-0.5l0,0
				c-0.1,0-0.1,0-0.1,0.1l-0.2,0.3v-1.2L-15.3,51.9z M-16.3,56.2l0.9-1.5l3.2,0.8l2.4,2.4l-3.2,0.9l-3.2-0.8L-16.3,56.2z M-9.9,61
				l-2.4,2.4l-3.2,0.8l-0.9-1.5V61l3.2-0.8L-9.9,61z M-15.5,66.8l0.2,0.3l-1-0.6v-1.2l0.2,0.3c0,0.1,0.1,0.1,0.1,0.1l0,0l1.9-0.5
				l-1.4,1.4C-15.5,66.7-15.5,66.7-15.5,66.8z M-14,69.3l1.3,2.3h-1.4l0,0l0,0c-0.1,0-0.1,0-0.1,0.1v0.1l-0.7,1.2l-1.3-2.3V68
				L-14,69.3z M-15,75.5l0.7,1.2c0,0,0,0,0,0.1c0,0,0,0.1,0.1,0.1h0.1c0,0,0,0,0.1,0h1.4l-1.3,2.3l-2.3,1.3v-2.7L-15,75.5z
				 M-10.5,75.6l0.7-1.2l0,0c0,0,0,0,0-0.1v-0.1l0,0l-0.7-1.2h2.7l2.3,1.3l-2.3,1.3L-10.5,75.6z M-5.7,71.6h-1.7l-1.5-0.9l0.8-3.2
				l2.4-2.4l0.9,3.2L-5.7,71.6z M-4.2,73.5l-1-0.6h0.4c0.1,0,0.1,0,0.2-0.1l0.5-1.9l0.5,1.9c0,0.1,0.1,0.1,0.2,0.1H-3L-4.2,73.5z
				 M-3.6,68.5l0.9-3.2l2.4,2.4l0.8,3.2L-1,71.8h-1.7L-3.6,68.5z M-0.7,72.9H2l-0.7,1.2l0,0c0,0,0,0,0,0.1v0.1l0,0L2,75.5h-2.7
				L-3,74.2L-0.7,72.9z M6.5,73l-0.7-1.2v-0.1l-0.1-0.1c0,0,0,0-0.1,0l0,0H4.2l1.3-2.3L7.8,68v2.7L6.5,73z M6.8,67.1L7,66.8
				c0-0.1,0-0.1,0-0.2l-1.4-1.4l1.9,0.5l0,0c0.1,0,0.1,0,0.1-0.1l0.2-0.3v1.2L6.8,67.1z M7.8,62.7l-0.9,1.5l-3.2-0.8L1.3,61l3.2-0.9
				l3.2,0.8L7.8,62.7z M7.1,59.5L9,59c0.1,0,0.1-0.1,0.1-0.2v-0.4l0.6,1l-0.6,1V60c0-0.1,0-0.1-0.1-0.2L7.1,59.5z M10.1,66.7L9.9,67
				c0,0.1,0,0.1,0,0.2l1.4,1.4l-1.9-0.5l0,0c-0.1,0-0.1,0-0.1,0.1l-0.2,0.3v-1.2L10.1,66.7z M9.1,71l0.9-1.5l3.2,0.8l2.4,2.4
				l-3.2,0.9l-3.2-0.8L9.1,71z M16.5,73.7l0.5,0.5l-0.5,0.5l-1.8-0.5L16.5,73.7z M17.3,66.2l-0.9-3.2l1.5-0.9h1.7l0.8,3.2l-0.9,3.2
				L17.3,66.2z M19.2,70L19,70.7l-0.7-0.2l-0.4-1.8L19.2,70z M23,70l1.3-1.3l-0.4,1.8l-0.7,0.2L23,70z M22.7,68.6l-0.9-3.2l0.8-3.2
				h1.7l1.6,0.8l-0.8,3.2L22.7,68.6z M25.8,74.7l-0.5-0.5l0.5-0.5l1.8,0.5L25.8,74.7z M26.8,72.7l2.4-2.4l3.2-0.8l0.9,1.5v1.7
				l-3.2,0.8L26.8,72.7z M33.2,60.1v0.4l-0.6-1l0.6-1v0.4c0,0.1,0,0.1,0.1,0.2l1.9,0.5l-1.9,0.5C33.2,60,33.2,60.1,33.2,60.1z
				 M36.8,69.3l1.3,2.3h-1.4l0,0l0,0c-0.1,0-0.1,0-0.1,0.1v0.1L35.8,73l-1.3-2.3V68L36.8,69.3z M35.8,75.5l0.7,1.2c0,0,0,0,0,0.1
				c0,0,0,0.1,0.1,0.1h0.1c0,0,0,0,0.1,0h1.4l-1.3,2.3l-2.3,1.3v-2.7L35.8,75.5z M40.3,75.6l0.7-1.2l0,0l0,0v-0.1l0,0l-0.7-1.2h2.6
				l2.3,1.3l-2.3,1.2H40.3z M45,71.6h-1.7l-1.5-0.9l0.8-3.2L45,65l0.9,3.2L45,71.6z M46.5,73.5l-1-0.6h0.4c0.1,0,0.1,0,0.2-0.1
				l0.5-1.9l0.5,1.9c0,0.1,0.1,0.1,0.2,0.1h0.4L46.5,73.5z M47.2,68.5l0.9-3.2l2.4,2.4l0.8,3.2l-1.5,0.9h-1.7L47.2,68.5z M50.1,72.9
				h2.7l-0.7,1.2l0,0c0,0,0,0,0,0.1v0.1l0,0l0.7,1.2h-2.7l-2.3-1.3L50.1,72.9z M53.8,79.2l1.5,0.9l0.9,1.5l-2.3,2.3l-3.2,0.9
				l0.9-3.2L53.8,79.2z M57.2,73l-0.7-1.2v-0.1l-0.1-0.1l0,0l0,0H55l1.3-2.3l2.3-1.3v2.7L57.2,73z M57.5,67.1l0.2-0.3
				c0-0.1,0-0.1,0-0.2l-1.4-1.4l1.9,0.5l0,0c0.1,0,0.1,0,0.1-0.1l0.2-0.3v1.2L57.5,67.1z M58,59.5l1.9-0.5c0.1,0,0.1-0.1,0.1-0.2
				v-0.4l0.6,1l-0.6,1V60c0-0.1,0-0.1-0.1-0.2L58,59.5z M61,66.7L60.8,67c0,0.1,0,0.1,0,0.2l1.4,1.4l-1.9-0.5l0,0
				c-0.1,0-0.1,0-0.1,0.1L60,68.5v-1.2L61,66.7z M59.9,71l0.9-1.5l3.2,0.8l2.4,2.4l-3.2,0.9L60,72.8L59.9,71z M67.3,73.8l0.5,0.5
				l-0.5,0.5l-1.8-0.5L67.3,73.8z M68.1,66.2l-0.8-3.2l1.5-0.9h1.7l0.8,3.2l-0.9,3.2L68.1,66.2z M70.1,70l-0.2,0.7l-0.7-0.2
				l-0.5-1.8L70.1,70z M70.1,78.5l-1.3,1.3l0.5-1.8l0.7-0.2L70.1,78.5z M73.9,70l1.3-1.3l-0.5,1.8L74,70.7L73.9,70z M73.5,68.6
				l-0.9-3.2l0.8-3.2h1.7l1.5,0.9l-0.8,3.2L73.5,68.6z M75.7,71.5l1.8-0.5l-1.3,1.3l-0.7-0.2L75.7,71.5z M76.2,76.1l1.3,1.3L75.8,77
				l-0.2-0.7L76.2,76.1z M79.4,79.2l2.3,2.3L80.8,83l-1.5,0.9L77,81.6l-0.9-3.2L79.4,79.2z M82,86.4L82,86.4c0-0.1-0.1-0.1-0.1-0.1
				h-0.1c0,0,0,0-0.1,0h-1.4l1.3-2.3l2.3-1.3v2.7l-1.3,2.3L82,86.4z M83,81.8l0.2-0.3c0-0.1,0-0.1,0-0.2l-1.4-1.4l1.9,0.5l0,0
				c0.1,0,0.1,0,0.1-0.1L84,80v1.2L83,81.8z M83.2,79L80,78.1l-2.4-2.4l3.2-0.9l3.2,0.8v1.7L83.2,79z M83.3,74.2l1.9-0.5
				c0.1,0,0.1-0.1,0.1-0.2v-0.4l0.6,1l-0.6,1v-0.4c0-0.1,0-0.1-0.1-0.2L83.3,74.2z M86.3,81.3l-0.2,0.3c0,0.1,0,0.1,0,0.2l1.4,1.4
				l-1.9-0.5l0,0c-0.1,0-0.1,0-0.1,0.1l-0.2,0.3v-1.2L86.3,81.3z M90,83.9l-2.3-2.3l0.9-1.5l1.5-0.9l2.3,2.3l0.9,3.2L90,83.9z
				 M89.7,75.6h-1.5l-0.8-1.3l0.8-1.3h1.5l0.8,1.3L89.7,75.6z M90,69.3l-1.5-0.9l-0.9-1.5l2.3-2.3l3.2-0.9l-0.9,3.2L90,69.3z
				 M91.8,62.7l1.3-1.3l0.7,0.2l-0.2,0.7L91.8,62.7z M92.7,60l-1.8-0.5l1.8-0.5l0.5,0.5L92.7,60z M88.5,58.8L85.3,58v-1.7l0.9-1.5
				l3.2,0.8l2.4,2.4L88.5,58.8z M90,54.5l-2.3-2.3l0.9-1.5l1.5-0.9l2.3,2.3l0.9,3.2L90,54.5z M89.7,46.1h-1.5l-0.8-1.3l0.8-1.3h1.5
				l0.8,1.3L89.7,46.1z M90,39.9L88.5,39l-0.9-1.5l2.3-2.3l3.2-0.9l-0.9,3.2L90,39.9z M89.3,34l-3.1,0.9l-0.9-1.5v-1.7l3.2-0.8
				l3.2,0.9L89.3,34z M85.3,28.7V27l0.9-1.5l3.2,0.8l2.4,2.4l-3.2,0.9L85.3,28.7z M90.9,30.2l1.8-0.5l0.5,0.5l-0.5,0.5L90.9,30.2z
				 M93.1,28.3l-1.3-1.4l1.8,0.5l0.2,0.7L93.1,28.3z M90,25.1l-2.3-2.3l0.9-1.5l1.5-0.9l2.3,2.3l0.9,3.2L90,25.1z M87.5,18.1h1.4
				l-1.3,2.3l-2.3,1.3V19l1.3-2.3l0.7,1.2C87.4,18.1,87.4,18.1,87.5,18.1z M86.3,22.6l-0.2,0.3c0,0.1,0,0.1,0,0.2l1.4,1.4L85.6,24
				l0,0c-0.1,0-0.1,0-0.1,0.1l-0.2,0.3v-1.2L86.3,22.6z M86,30.2l-1.9,0.5c-0.1,0-0.1,0.1-0.1,0.2v0.4l-0.6-1l0.6-1v0.4
				c0,0.1,0,0.1,0.1,0.2L86,30.2z M84,18.7l-0.9,1.5L80,19.4L77.6,17l3.2-0.9l3.2,0.8L84,18.7z M76.6,16l-0.5-0.5l0.5-0.5l1.8,0.5
				L76.6,16z M77.6,12.3l-1.3,1.3l-0.7-0.2l0.2-0.7L77.6,12.3z M76.2,17.4l1.3,1.3l-1.8-0.5l-0.2-0.7L76.2,17.4z M75.9,23.5l0.8,3.2
				l-1.5,0.9h-1.7l-0.8-3.2l0.9-3.2L75.9,23.5z M73.9,19.8l0.2-0.7l0.7,0.2l0.5,1.8L73.9,19.8z M70.1,19.8l-1.3,1.3l0.5-1.8l0.7-0.2
				L70.1,19.8z M70.5,21.2l0.9,3.2l-0.8,3.2h-1.7l-1.5-0.9l0.8-3.2L70.5,21.2z M68.2,18.2l-1.8,0.5l1.3-1.3l0.7,0.2L68.2,18.2z
				 M67.3,15l0.5,0.5L67.3,16l-1.8-0.5L67.3,15z M66.3,17L64,19.4l-3.2,0.8l-0.9-1.5V17l3.2-0.8L66.3,17z M59.9,29.5v-0.4l0.6,1
				l-0.6,1v-0.4c0-0.1,0-0.1-0.1-0.2L58,30.2l1.9-0.5C59.9,29.6,59.9,29.6,59.9,29.5z M55.4,29.5l-3.2-0.9l2.4-2.4l3.2-0.8l0.9,1.5
				v1.7L55.4,29.5z M58.5,24.1c0-0.1-0.1-0.1-0.1-0.1l0,0l-1.9,0.5l1.4-1.4c0.1-0.1,0.1-0.1,0-0.2l-0.2-0.3l1,0.6v1.2L58.5,24.1z
				 M56.3,20.4l-1.4-2.3h1.4c0,0,0,0,0.1,0h0.1V18l0.7-1.2l1.3,2.3v2.7L56.3,20.4z M56.6,13.1C56.6,13,56.5,13,56.6,13.1
				c0-0.1-0.1-0.2-0.2-0.2l0,0l0,0h-1.5l1.3-2.3l2.3-1.3V12l-1.3,2.3L56.6,13.1z M55.3,9.7l-1.5,0.9l-2.3-2.3l-0.9-3.2l3.3,0.8
				l2.3,2.3L55.3,9.7z M52.7,14.2L52,15.4l0,0c0,0,0,0,0,0.1v0.1l0,0l0.7,1.2H50l-2.3-1.3l2.3-1.3L52.7,14.2z M48,18.1h1.7l1.5,0.9
				l-0.8,3.2L48,24.6l-0.9-3.2L48,18.1z M47.2,16.8c-0.1,0-0.1,0-0.2,0.1l-0.5,1.9L46,16.9c0-0.1-0.1-0.1-0.2-0.1l0,0h-0.4l1-0.6
				l1,0.6H47.2z M45.9,21.3L45,24.5l-2.4-2.4l-0.8-3.2l1.5-0.9H45L45.9,21.3z M42.9,16.8h-2.7l0.7-1.2l0,0c0,0,0,0,0-0.1v-0.1l0,0
				l-0.7-1.2h2.7l2.3,1.3L42.9,16.8z M40.4,12.7l0.3,0.2h-1.2l-0.6-1l0.3,0.2h0.1h0.1l1.4-1.4l-0.5,1.9
				C40.3,12.6,40.4,12.7,40.4,12.7z M39.2,10.5l-1.5-0.9l-0.9-1.5l2.3-2.2L42.3,5l-0.9,3.2L39.2,10.5z M39.6,15.5l-0.8,1.3h-1.5
				l-0.8-1.3l0.8-1.3h1.5L39.6,15.5z M36.6,18.1L36.6,18.1c0.1,0,0.1,0,0.2,0h1.4l-1.3,2.3l-2.3,1.3V19l1.3-2.3l0.7,1.2
				C36.5,18,36.5,18,36.6,18.1C36.5,18,36.5,18.1,36.6,18.1z M35.5,22.6l-0.2,0.3c0,0.1,0,0.1,0,0.2l1.4,1.4L34.8,24l0,0
				c-0.1,0-0.1,0-0.1,0.1l-0.2,0.3v-1.2L35.5,22.6z M35.2,30.2l-1.9,0.5c-0.1,0-0.1,0.1-0.1,0.2v0.4l-0.6-1l0.6-1v0.4
				c0,0.1,0,0.1,0.1,0.2L35.2,30.2z M33.2,18.7l-0.9,1.5l-3.2-0.8L26.7,17l3.2-0.9l3.2,0.8L33.2,18.7z M26.7,12.3l-1.3,1.3l-0.7-0.2
				l0.2-0.7L26.7,12.3z M25,23.5l0.8,3.2l-1.5,0.9h-1.7l-0.8-3.2l0.9-3.2L25,23.5z M23,19.8l0.2-0.7l0.7,0.2l0.5,1.8L23,19.8z
				 M19.2,19.8l-1.3,1.3l0.5-1.8l0.7-0.2L19.2,19.8z M19.6,21.2l0.9,3.2l-0.8,3.2H18l-1.5-0.9l0.8-3.2L19.6,21.2z M16.5,15l0.5,0.5
				L16.5,16l-1.8-0.5L16.5,15z M15.5,17l-2.4,2.4l-3.2,0.8L9,18.7V17l3.2-0.8L15.5,17z M9.1,29.5v-0.4l0.6,1l-0.6,1v-0.4
				c0-0.1,0-0.1-0.1-0.2L7.1,30L9,29.5C9,29.6,9.1,29.6,9.1,29.5z M4.7,29.5l-3.2-0.9l2.4-2.4l3.2-0.8l0.7,1.5v1.7L4.7,29.5z
				 M7.6,24.1C7.6,24,7.5,24,7.5,24l0,0l-1.9,0.5l1.3-1.4C7,23,7,23,6.9,22.9l-0.2-0.3l1,0.6v1.2L7.6,24.1z M5.5,20.4l-1.3-2.3h1.4
				c0,0,0,0,0.1,0l0,0c0,0,0.1,0,0.1-0.1c0,0,0,0,0-0.1l0.7-1.2L7.8,19v2.7L5.5,20.4z M2,14.2l-0.7,1.2l0,0c0,0,0,0,0,0.1v0.1l0,0
				L2,16.8h-2.7L-3,15.5l2.3-1.3L2,14.2z M-2.7,18.1H-1L0.5,19l-0.8,3.2l-2.4,2.4l-0.9-3.2L-2.7,18.1z M-3.6,16.8
				c-0.1,0-0.1,0-0.2,0.1l-0.5,1.9l-0.5-1.9c0-0.1-0.1-0.1-0.2-0.1l0,0h-0.4l1-0.6l1,0.6H-3.6z M-4.9,21.3l-0.9,3.2l-2.3-2.4
				l-0.8-3.2l1.5-0.9h1.7L-4.9,21.3z M-7.8,16.8h-2.7l0.7-1.2l0,0c0,0,0,0,0-0.1v-0.1l0,0l-0.7-1.2h2.7l2.3,1.3L-7.8,16.8z
				 M-10.3,12.7l0.3,0.2h-1.2l-0.6-1l0.3,0.2h0.1h0.1l1.4-1.4l-0.5,1.9C-10.4,12.6-10.4,12.7-10.3,12.7z M-11.2,15.5l-0.8,1.3h-1.5
				l-0.8-1.3l0.8-1.3h1.5L-11.2,15.5z M-14.1,18.1h1.4l-1.3,2.3l-2.3,1.3V19l1.3-2.3l0.7,1.2C-14.2,18.1-14.2,18.1-14.1,18.1z
				 M-15.3,22.6l-0.2,0.3c0,0.1,0,0.1,0,0.2l1.4,1.4L-16,24l0,0c-0.1,0-0.1,0-0.1,0.1l-0.2,0.3v-1.2L-15.3,22.6z M-16.4,44.3
				c0.1,0,0.1-0.1,0.1-0.2v-0.4l0.6,1l-0.6,1v-0.4c0-0.1,0-0.1-0.1-0.2l-1.9-0.5L-16.4,44.3z M-16.4,73.7c0.1,0,0.1-0.1,0.1-0.2
				v-0.4l0.6,1l-0.6,1v-0.4c0-0.1,0-0.1-0.1-0.2l-1.9-0.5L-16.4,73.7z M-15.3,81.3l-0.2,0.3c0,0.1,0,0.1,0,0.2l1.4,1.4l-1.9-0.5l0,0
				c-0.1,0-0.1,0-0.1,0.1l-0.2,0.3v-1.2L-15.3,81.3z M-16.3,85.7l0.9-1.5l3.2,0.8l2.4,2.4l-3.2,0.9l-3.2-0.8L-16.3,85.7z M-9.8,92.1
				l1.3-1.3l0.7,0.2L-8,91.7L-9.8,92.1z M-8.1,80.9l-0.8-3.2l1.5-0.9h1.7l0.8,3.2l-0.9,3.2L-8.1,80.9z M-6.1,84.6l-0.2,0.7L-7,85.1
				l-0.5-1.8L-6.1,84.6z M-2.4,84.6l1.3-1.3l-0.5,1.8l-0.7,0.2L-2.4,84.6z M-2.7,83.2L-3.6,80l0.8-3.2h1.7l1.5,0.9l-0.8,3.2
				L-2.7,83.2z M0,90.8l1.3,1.3l-1.8-0.5L-0.6,91L0,90.8z M3.8,92.8l-2.4-2.4l3.2-0.9l3.2,0.8V92l-0.9,1.5L3.8,92.8z M1.4,87.4
				L3.8,85L7,84.2l0.9,1.5v1.7l-3.2,0.8L1.4,87.4z M7.8,74.9v0.4l-0.6-1l0.6-1v0.4c0,0.1,0,0.1,0.1,0.2l1.9,0.5l-1.9,0.3
				C7.9,74.8,7.8,74.8,7.8,74.9z M12.2,74.9l3.2,0.9L13,78.2L9.9,79L9,77.5v-1.7L12.2,74.9z M9.3,80.3c0,0.1,0.1,0.1,0.1,0.1l0,0
				l1.9-0.5l-1.4,1.4c-0.1,0.1-0.1,0.1,0,0.2l0.2,0.3l-1-0.6V80L9.3,80.3z M11.4,84l1.3,2.3h-1.4c0,0,0,0-0.1,0l0,0
				c0,0-0.1,0-0.1,0.1c0,0,0,0,0,0.1l-0.7,1.2l-1.3-2.3v-2.7L11.4,84z M10.4,90.2l0.7,1.2v0.1l0.1,0.1l0,0l0,0h1.4l-1.3,2.3L9,95.2
				v-2.7L10.4,90.2z M14.9,90.2l0.7-1.2l0,0c0,0,0,0,0-0.1v-0.1l0,0l-0.7-1.2h2.7l2.3,1.3l-2.3,1.3L14.9,90.2z M19.6,86.3h-1.7
				l-1.5-0.9l0.8-3.2l2.4-2.4l0.9,3.2L19.6,86.3z M20.5,87.6c0.1,0,0.1,0,0.2-0.1l0.5-1.9l0.5,1.9c0,0.1,0.1,0.1,0.2,0.1h0.4l-1,0.6
				l-1-0.6H20.5z M21.8,83.1l0.9-3.2l2.4,2.4l0.8,3.2l-1.5,0.9h-1.7L21.8,83.1z M24.7,87.6h2.7l-0.7,1.2l0,0l0,0v0.1l0,0l0.7,1.2
				h-2.7l-2.3-1.3L24.7,87.6z M28.5,93.9l1.5,0.9l0.9,1.5l-2.3,2.3l-3.2,0.9l0.9-3.2L28.5,93.9z M31.9,87.6l-0.7-1.2c0,0,0,0,0-0.1
				c0,0,0-0.1-0.1-0.1H31c0,0,0,0-0.1,0h-1.4l1.4-2.2l2.3-1.3v2.7L31.9,87.6z M32.2,81.8l0.2-0.3c0-0.1,0-0.1,0-0.2L31,79.9l1.9,0.5
				l0,0c0.1,0,0.1,0,0.1-0.1l0.2-0.3v1.2L32.2,81.8z M33.2,77.5L32.3,79l-3.2-0.8l-2.4-2.4l3.2-0.9l3.2,0.8L33.2,77.5z M32.5,74.2
				l1.9-0.5c0.1,0,0.1-0.1,0.1-0.2v-0.4l0.6,1l-0.6,1v-0.4c0-0.1,0-0.1-0.1-0.2L32.5,74.2z M35.5,81.3l-0.2,0.3c0,0.1,0,0.1,0,0.2
				l1.4,1.4l-1.9-0.5l0,0c-0.1,0-0.1,0-0.1,0.1l-0.2,0.3v-1.2L35.5,81.3z M34.5,85.7l0.9-1.5l3.2,0.8l2.4,2.4l-3.2,0.9l-3.2-0.8
				L34.5,85.7z M40.9,92.1l1.3-1.3l0.7,0.2l-0.2,0.7L40.9,92.1z M42.6,80.9l-0.8-3.2l1.5-0.9H45l0.9,3.2L45,83.2L42.6,80.9z
				 M44.6,84.6l-0.2,0.7l-0.7-0.2l-0.5-1.8L44.6,84.6z M48.4,84.6l1.3-1.3l-0.5,1.8l-0.7,0.2L48.4,84.6z M48,83.2L47.2,80l0.8-3.2
				h1.7l1.5,0.9l-0.8,3.2L48,83.2z M50.3,86.2l1.8-0.5L50.8,87l-0.7-0.2L50.3,86.2z M53,88.9l-1.8,0.5l-0.5-0.5l0.5-0.5L53,88.9z
				 M50.8,90.8l1.3,1.3l-1.8-0.5L50.1,91L50.8,90.8z M54.5,92.8l-2.4-2.4l3.2-0.9l3.2,0.8V92l-0.9,1.5L54.5,92.8z M52.2,87.4
				l2.4-2.4l3.2-0.8l0.9,1.5v1.7l-3.2,0.8L52.2,87.4z M58.7,74.9v0.4l-0.6-1l0.6-1v0.4c0,0.1,0,0.1,0.1,0.2l1.9,0.5l-1.9,0.5
				C58.7,74.8,58.7,74.8,58.7,74.9z M63.1,74.9l3.2,0.9L64,78.1L60.8,79l-0.9-1.5v-1.7L63.1,74.9z M60.1,80.3c0,0.1,0.1,0.1,0.1,0.1
				l0,0l1.9-0.5l-1.4,1.4c-0.1,0.1-0.1,0.1,0,0.2l0.2,0.3l-1-0.6V80L60.1,80.3z M62.2,84l1.3,2.3h-1.4l0,0c-0.1,0-0.1,0-0.1,0.1
				c0,0,0,0,0,0.1l-0.7,1.2L60,85.4v-2.7L62.2,84z M61.9,91.3C61.9,91.4,61.9,91.4,61.9,91.3c0,0.1,0.1,0.2,0.2,0.2l0,0l0,0h1.4
				l-1.3,2.3l-2.3,1.3v-2.7l1.3-2.3L61.9,91.3z M65.8,90.2l0.7-1.2l0,0c0,0,0,0,0-0.1v-0.1l0,0l-0.7-1.2h2.7l2.3,1.3l-2.3,1.3
				L65.8,90.2z M70.5,86.3h-1.7l-1.5-0.9l0.8-3.2l2.4-2.4l0.9,3.2L70.5,86.3z M71.3,87.6c0.1,0,0.1,0,0.2-0.1l0.5-1.9l0.5,1.9
				c0,0.1,0.1,0.1,0.2,0.1h0.4l-1,0.6l-1-0.6H71.3z M72.6,83.1l0.9-3.2l2.4,2.4l0.8,3.2l-1.5,0.9h-1.7L72.6,83.1z M75.6,87.6h2.7
				l-0.7,1.2l0,0c0,0,0,0,0,0.1V89l0,0l0.7,1.2h-2.7l-2.3-1.3L75.6,87.6z M79.3,93.9l1.5,0.9l0.9,1.5l-2.3,2.3l-3.2,0.9l0.9-3.2
				L79.3,93.9z M80,99.7l3.2-0.8l0.9,1.5v1.7l-3.2,0.8l-3.2-0.9L80,99.7z M84,89.5v0.4l-0.6-1l0.6-1v0.4c0,0.1,0,0.1,0.1,0.2L86,89
				l-1.9,0.5C84.1,89.4,84,89.5,84,89.5z M87.6,98.6l1.3,2.3h-1.4l0,0l0,0c-0.1,0-0.1,0-0.1,0.1v0.1l-0.7,1.2l-1.3-2.3v-2.7
				L87.6,98.6z M88.1,102.2h1.5l0.8,1.3l-0.8,1.3h-1.5l-0.8-1.3L88.1,102.2z M90.4,106.1h1.2l-0.3,0.2c-0.1,0-0.1,0.1-0.1,0.2
				l0.5,1.9l-1.4-1.4h-0.1h-0.1l-0.3,0.2L90.4,106.1z M91.1,104.9l0.7-1.2l0,0c0,0,0,0,0-0.1v-0.1l0,0l-0.7-1.2h2.7l2.3,1.3
				l-2.3,1.3L91.1,104.9z M93.1,87l-1.3-1.3l1.8,0.5l0.2,0.7L93.1,87z M93.8,75.6h-2.7l0.7-1.2l0,0c0,0,0,0,0-0.1v-0.1l0,0L91.1,73
				h2.7l2.3,1.3L93.8,75.6z M93.1,57.6l-1.3-1.3l1.8,0.5l0.2,0.7L93.1,57.6z M93.8,46.1h-2.7l0.7-1.2l0,0c0,0,0,0,0-0.1v-0.1l0,0
				l-0.7-1.2h2.7l2.3,1.3L93.8,46.1z M93.6,32.9l-1.8,0.5l1.3-1.3l0.7,0.2L93.6,32.9z M93.8,16.8h-2.7l0.7-1.2l0,0l0,0v-0.1l0,0
				l-0.7-1.2h2.7l2.3,1.3L93.8,16.8z M93.1-1l-1.3-1.3l1.8,0.5l0.2,0.7L93.1-1z M92.7,0.4l0.5,0.5l-0.5,0.5l-1.8-0.5L92.7,0.4z
				 M88.5,0.2l-3.2-0.8v-1.7l0.9-1.5L89.4-3l2.4,2.4L88.5,0.2z M91.7,2.4l-2.4,2.4l-3.2,0.8l-0.9-1.5V2.4l3.2-0.8L91.7,2.4z
				 M86.1,8.1l0.2,0.3l-1-0.6V6.6l0.2,0.3C85.5,7,85.6,7,85.6,7l0,0l1.9-0.5l-1.3,1.4C86.1,7.9,86.1,8,86.1,8.1z M87.6,10.6l1.3,2.3
				h-1.4l0,0l0,0c-0.1,0-0.1,0-0.1,0.1v0.1l-0.7,1.2l-1.4-2.4V9.2L87.6,10.6z M85.3,14.8v-0.4l0.6,1l-0.6,1V16c0-0.1,0-0.1-0.1-0.2
				l-1.9-0.5l1.9-0.5C85.3,15,85.3,14.9,85.3,14.8z M81.7,5.8l-1.3-2.3h1.4l0,0l0,0c0.1,0,0.1,0,0.1-0.1V3.3l0.7-1.2L84,4.4v2.7
				L81.7,5.8z M81.2,2.2h-1.5l-0.8-1.3l0.8-1.3h1.5L82,0.8L81.2,2.2z M79-1.8h-1.2L78.1-2c0.1,0,0.1-0.1,0.1-0.2l-0.5-1.9L79-2.6
				h0.1h0.1l0.3-0.2L79-1.8z M78.2-0.5l-0.7,1.2l0,0c0,0,0,0,0,0.1v0.1l0,0l0.7,1.2h-2.7l-2.3-1.2l2.3-1.3L78.2-0.5z M73.5,3.4h1.7
				l1.5,0.9l-0.8,3.2l-2.4,2.4l-0.9-3.2L73.5,3.4z M72.6,2.2c-0.1,0-0.1,0-0.2,0.1L72,4.2l-0.5-1.9c0-0.1-0.1-0.1-0.2-0.1l0,0h-0.4
				l1-0.6l1,0.6L72.6,2.2z M71.3,6.6l-0.9,3.2L68,7.4l-0.8-3.2l1.5-0.9h1.7L71.3,6.6z M68.4,2.2h-2.7L66.4,1l0,0c0,0,0,0,0-0.1V0.8
				l0,0l-0.7-1.2h2.7l2.3,1.3L68.4,2.2z M65.9-1.9l0.3,0.2H65l-0.6-1l0.3,0.2h0.1h0.1l1.4-1.4l-0.5,1.8C65.8-2.1,65.8-2,65.9-1.9z
				 M65.1,0.8l-0.8,1.3h-1.5L62,0.9l0.8-1.3h1.5L65.1,0.8z M62.1,3.4C62.1,3.5,62.1,3.5,62.1,3.4C62.1,3.5,62.2,3.5,62.1,3.4h1.5
				l-1.3,2.3L60,7V4.3L61.3,2L62,3.2v0.1C62,3.4,62,3.4,62.1,3.4z M61,7.9l-0.2,0.3c0,0.1,0,0.1,0,0.2l1.4,1.4l-1.9-0.5l0,0
				c-0.1,0-0.1,0-0.1,0.1L60,9.7V8.5L61,7.9z M60.8,10.8l3.2,0.8l2.4,2.4l-3.2,0.9L60,14.1v-1.7L60.8,10.8z M60.6,15.5L58.7,16
				c-0.1,0-0.1,0.1-0.1,0.2v0.4l-0.6-1l0.6-1V15c0,0.1,0,0.1,0.1,0.2L60.6,15.5z M57.5,8.4l0.2-0.3c0-0.1,0-0.1,0-0.2l-1.4-1.4
				L58.3,7l0,0c0.1,0,0.1,0,0.1-0.1l0.2-0.3v1.2L57.5,8.4z M58.7,4.1l-0.9,1.5l-3.2-0.8l-2.4-2.4l3.2-0.9l3.2,0.8L58.7,4.1z
				 M51.1,1.3l-0.5-0.5l0.5-0.5l1.8,0.5L51.1,1.3z M50.8-1.1l-0.7-0.2L50.3-2l1.8-0.5L50.8-1.1z M50.8,2.7L52.1,4l-1.8-0.5l-0.2-0.6
				L50.8,2.7z M42.7,3.6l-1.8,0.5l1.3-1.3l0.7,0.1L42.7,3.6z M41.9,0.4l0.5,0.5l-0.5,0.4l-1.8-0.5L41.9,0.4z M40.9-2.4l1.8,0.5
				l0.2,0.7L42.2-1L40.9-2.4z M37.6,0.2l-3.2-0.8v-1.7l0.9-1.5L38.5-3l2.4,2.4L37.6,0.2z M40.8,2.4l-2.4,2.4l-3.2,0.8l-0.9-1.5V2.4
				l3.2-0.8L40.8,2.4z M35.3,8.1l0.2,0.3l-1-0.6V6.6l0.1,0.3C34.6,7,34.7,7,34.7,7l0,0l1.9-0.5l-1.3,1.4C35.3,7.9,35.3,8,35.3,8.1z
				 M36.8,10.6l1.3,2.3h-1.4l0,0l0,0c-0.1,0-0.1,0-0.1,0.1v0.1l-0.7,1.2l-1.4-2.4V9.2L36.8,10.6z M34.5,14.8v-0.4l0.6,1l-0.6,1V16
				c0-0.1,0-0.1-0.1-0.2l-1.9-0.5l1.9-0.5C34.4,15,34.5,14.9,34.5,14.8z M30.9,5.8l-1.3-2.3H31l0,0l0,0c0.1,0,0.1,0,0.1-0.1V3.3
				l0.8-1.2l1.3,2.3v2.7L30.9,5.8z M30.4,2.2h-1.5l-0.8-1.3l0.8-1.3h1.5l0.8,1.3L30.4,2.2z M28.1-1.8h-1.2L27.2-2
				c0.1,0,0.1-0.1,0.1-0.2l-0.5-1.9l1.4,1.4h0.1h0.1l0.3-0.2L28.1-1.8z M27.4-0.5l-0.7,1.2l0,0c0,0,0,0,0,0.1v0.1l0,0l0.7,1.2h-2.7
				l-2.3-1.2l2.3-1.3L27.4-0.5z M22.6,3.4h1.7l1.6,0.9l-0.8,3.2l-2.4,2.4l-0.9-3.2L22.6,3.4z M21.8,2.2c-0.1,0-0.1,0-0.2,0.1
				l-0.5,1.9l-0.5-1.9c0-0.1-0.1-0.1-0.2-0.1l0,0H20l1-0.6l1,0.6L21.8,2.2z M20.5,6.6l-0.9,3.2l-2.4-2.4l-0.8-3.2l1.5-0.8h1.7
				L20.5,6.6z M17.6,2.2h-2.7L15.6,1l0,0c0,0,0,0,0-0.1V0.8l0,0l-0.7-1.3h2.7l2.3,1.3L17.6,2.2z M15-1.9l0.3,0.2h-1.2l-0.6-1
				l0.4,0.1H14h0.1L15.5-4L15-2.1C14.9-2.1,15-2,15-1.9z M14.2,0.8l-0.8,1.3h-1.5l-0.8-1.2l0.8-1.4h1.5L14.2,0.8z M11.2,3.4
				C11.2,3.5,11.3,3.5,11.2,3.4C11.3,3.5,11.3,3.5,11.2,3.4h1.5l-1.3,2.3L9.1,7.1V4.4l1.3-2.3l0.7,1.2v0.1H11.2z M10.1,7.9L9.9,8.3
				c0,0.1,0,0.1,0,0.2l1.4,1.4L9.4,9.3l0,0c-0.1,0-0.1,0-0.1,0.1L9.1,9.7V8.5L10.1,7.9z M9.9,10.8l3.2,0.8l2.4,2.4l-3.2,0.9
				l-3.2-0.8v-1.7L9.9,10.8z M9.8,15.5L7.9,16c-0.1,0-0.1,0.1-0.1,0.2v0.4l-0.6-1l0.6-1V15c0,0.1,0,0.1,0.1,0.2L9.8,15.5z M7.8,4.1
				L7,5.6L3.8,4.7L1.4,2.4l3.2-0.9l3.2,0.8L7.8,4.1z M0.4,1.3l-0.5-0.5l0.5-0.5l1.8,0.5L0.4,1.3z M0-1.1l-0.7-0.2L-0.5-2l1.8-0.5
				L0-1.1z M-8.5-1l-1.3-1.3L-8-1.8l0.2,0.7L-8.5-1z M-8.9,0.4l0.5,0.5l-0.5,0.5l-1.8-0.5L-8.9,0.4z M-13.1,0.2l-3.2-0.8v-1.7
				l0.9-1.5l3.2,0.8l2.4,2.4L-13.1,0.2z M-9.9,2.4l-2.4,2.4l-3.2,0.8l-0.9-1.5V2.4l3.2-0.8L-9.9,2.4z M-15.5,8.1l0.2,0.3l-1-0.6V6.6
				l0.2,0.3C-16.1,7-16,7-16,7l0,0l1.9-0.5l-1.3,1.4C-15.5,7.9-15.5,8-15.5,8.1z M-14,10.6l1.3,2.3h-1.4l0,0l0,0
				c-0.1,0-0.1,0-0.1,0.1v0.1l-0.7,1.2l-1.3-2.3V9.3L-14,10.6z M-16.3,14.9v-0.4l0.6,1l-0.6,1v-0.4c0-0.1,0-0.1-0.1-0.2l-1.9-0.5
				l1.9-0.5C-16.3,15-16.3,14.9-16.3,14.9z M-18.4,8.3l-0.2-0.4l1,0.6v1.2l-0.2-0.3c0-0.1-0.1-0.1-0.1-0.1l0,0l-1.9,0.5l1.4-1.4
				C-18.4,8.4-18.4,8.3-18.4,8.3z M-18.4,10.8l0.9,1.5V14l-3.2,0.8l-3.2-0.9l2.4-2.4L-18.4,10.8z M-23.2,15.5L-25,16l-0.5-0.5
				L-25,15L-23.2,15.5z M-20.7,16.2l3.2,0.8v1.7l-0.9,1.5l-3.2-0.8L-24,17L-20.7,16.2z M-17.6,23.9v2.7l-1.3,2.3l-0.7-1.2
				c0,0,0,0,0-0.1c0,0,0-0.1-0.1-0.1h-0.1c0,0,0,0-0.1,0h-1.4l1.3-2.3L-17.6,23.9z M-19.8,32.8L-19.8,32.8
				C-19.8,32.8-19.7,32.8-19.8,32.8c0.1,0,0.2,0,0.2-0.1v-0.1l0.7-1.2l1.3,2.3v2.7l-2.3-1.3l-1.3-2.3L-19.8,32.8z M-18.4,37.6
				l-0.2-0.3l1,0.6v1.2l-0.2-0.3c0-0.1-0.1-0.1-0.1-0.1l0,0l-1.9,0.5l1.4-1.4C-18.4,37.7-18.4,37.7-18.4,37.6z M-18.4,40.1l0.9,1.5
				v1.7l-3.2,0.8l-3.2-0.9l2.4-2.4L-18.4,40.1z M-23.2,44.8l-1.8,0.5l-0.5-0.5l0.5-0.5L-23.2,44.8z M-20.7,45.5l3.2,0.8V48l-0.9,1.5
				l-3.2-0.8l-2.4-2.4L-20.7,45.5z M-17.6,53.3V56l-1.3,2.3l-0.7-1.2c0,0,0,0,0-0.1c0,0,0-0.1-0.1-0.1h-0.1c0,0,0,0-0.1,0h-1.4
				l1.3-2.3L-17.6,53.3z M-19.8,62.1L-19.8,62.1C-19.8,62.1-19.7,62.1-19.8,62.1c0.1,0,0.2,0,0.2-0.1v-0.1l0.7-1.2l1.3,2.3v2.7
				l-2.3-1.3l-1.3-2.3H-19.8z M-18.4,69.5l0.9,1.5v1.7l-3.2,0.8l-3.2-0.9l2.4-2.4L-18.4,69.5z M-23.2,74.2l-1.8,0.5l-0.5-0.5
				l0.5-0.5L-23.2,74.2z M-20.7,74.9l3.2,0.8v1.7l-0.9,1.5l-3.2-0.8l-2.4-2.4L-20.7,74.9z M-18.4,81.3l-1.4-1.4l1.9,0.5l0,0
				c0.1,0,0.1,0,0.1-0.1l0.2-0.3v1.2l-1,0.6l0.2-0.3C-18.4,81.4-18.4,81.3-18.4,81.3z M-17.6,82.7v2.7l-1.3,2.3l-0.7-1.2
				c0,0,0,0,0-0.1c0,0,0-0.1-0.1-0.1h-0.1c0,0,0,0-0.1,0h-1.4L-20,84L-17.6,82.7z M-19.8,91.5L-19.8,91.5
				C-19.8,91.5-19.7,91.5-19.8,91.5c0.1,0,0.2,0,0.2-0.1v-0.1l0.7-1.2l1.3,2.3v2.7l-2.3-1.3l-1.3-2.3H-19.8z M-18.4,96.3l-0.2-0.3
				l1,0.6v1.2l-0.2-0.3c0-0.1-0.1-0.1-0.1-0.1l0,0l-1.9,0.5l1.4-1.4C-18.4,96.5-18.4,96.4-18.4,96.3z M-17.6,89.5v0.4l-0.6-1l0.6-1
				v0.4c0,0.1,0,0.1,0.1,0.2l1.9,0.5l-1.9,0.5C-17.5,89.4-17.6,89.5-17.6,89.5z M-14,98.6l1.3,2.3h-1.4l0,0l0,0
				c-0.1,0-0.1,0-0.1,0.1v0.1l-0.7,1.2l-1.3-2.3v-2.7L-14,98.6z M-13.5,102.2h1.5l0.8,1.3l-0.8,1.3h-1.5l-0.8-1.3L-13.5,102.2z
				 M-11.2,106.1h1.2l-0.3,0.2c-0.1,0-0.1,0.1-0.1,0.2l0.5,1.9l-1.4-1.4h-0.1h-0.1l-0.3,0.2L-11.2,106.1z M-10.5,104.9l0.7-1.2l0,0
				c0,0,0,0,0-0.1v-0.1l0,0l-0.7-1.2h2.7l2.3,1.3l-2.3,1.3L-10.5,104.9z M-5.7,100.9h-1.7l-1.5-0.9l0.8-3.2l2.4-2.4l0.9,3.2
				L-5.7,100.9z M-4.9,102.2c0.1,0,0.1,0,0.2-0.1l0.5-1.9l0.5,1.9c0,0.1,0.1,0.1,0.2,0.1h0.4l-1,0.6l-1-0.6H-4.9z M-3.6,97.8
				l0.9-3.2l2.4,2.4l0.8,3.2l-1.5,0.9h-1.7L-3.6,97.8z M-0.7,102.2H2l-0.7,1.2l0,0c0,0,0,0,0,0.1v0.1l0,0l0.7,1.2h-2.7l-2.3-1.3
				L-0.7,102.2z M1.9,106.3l-0.3-0.2h1.2l0.6,1L3,107H2.9H2.8l-1.4,1.4l0.5-1.9C1.9,106.4,1.9,106.4,1.9,106.3z M2.7,103.6l0.8-1.3
				H5l0.8,1.3L5,104.9H3.5L2.7,103.6z M5.7,100.9C5.6,100.9,5.6,100.9,5.7,100.9C5.6,100.9,5.6,100.9,5.7,100.9H4.2l1.3-2.3l2.3-1.3
				v2.7l-1.3,2.3l-0.7-1.2V101C5.8,101,5.7,101,5.7,100.9z M6.8,96.4L7,96.1C7,96,7,96,7,95.9l-1.4-1.4L7.5,95l0,0
				c0.1,0,0.1,0,0.1-0.1l0.2-0.3v1.2L6.8,96.4z M7.1,88.9L9,88.4c0.1,0,0.1-0.1,0.1-0.2v-0.4l0.6,1l-0.6,1v-0.4c0-0.1,0-0.1-0.1-0.2
				L7.1,88.9z M10.1,96l-0.2,0.3c0,0.1,0,0.1,0,0.2l1.4,1.4l-1.9-0.5l0,0c-0.1,0-0.1,0-0.1,0.1l-0.2,0.3v-1.2L10.1,96z M9.1,100.3
				l0.9-1.5l3.2,0.8l2.4,2.4l-3.2,0.9L9.1,102V100.3z M16.5,103.1l0.5,0.5l-0.5,0.5l-1.8-0.5L16.5,103.1z M16.9,105.4l0.7,0.2
				l-0.2,0.7l-1.8,0.5L16.9,105.4z M24.9,100.8l1.8-0.5l-1.3,1.3l-0.7-0.2L24.9,100.8z M25.8,104l-0.5-0.5l0.5-0.5l1.8,0.5L25.8,104
				z M26.7,106.8l-1.8-0.5l-0.2-0.7l0.7-0.2L26.7,106.8z M26.8,102l2.4-2.4l3.2-0.8l0.9,1.5v1.7l-3.2,0.8L26.8,102z M33.2,89.5v0.4
				l-0.6-1l0.6-1v0.4c0,0.1,0,0.1,0.1,0.2l1.9,0.5l-1.9,0.5C33.2,89.4,33.2,89.5,33.2,89.5z M36.8,98.6l1.3,2.3h-1.4l0,0l0,0
				c-0.1,0-0.1,0-0.1,0.1v0.1l-0.7,1.2l-1.3-2.3v-2.7L36.8,98.6z M37.3,102.2h1.5l0.8,1.3l-0.8,1.3h-1.5l-0.8-1.3L37.3,102.2z
				 M39.5,106.1h1.2l-0.3,0.2c-0.1,0-0.1,0.1-0.1,0.2l0.5,1.9l-1.4-1.4h-0.1h-0.1l-0.3,0.2L39.5,106.1z M40.3,104.9l0.7-1.2l0,0
				c0,0,0,0,0-0.1v-0.1l0,0l-0.7-1.2H43l2.3,1.3l-2.3,1.3L40.3,104.9z M45,100.9h-1.7l-1.5-0.9l0.8-3.2l2.4-2.4l0.9,3.2L45,100.9z
				 M45.9,102.2c0.1,0,0.1,0,0.2-0.1l0.5-1.9l0.5,1.9c0,0.1,0.1,0.1,0.2,0.1h0.4l-1,0.6l-1-0.6H45.9z M47.2,97.8l0.9-3.2l2.4,2.4
				l0.8,3.2l-1.5,0.9h-1.7L47.2,97.8z M50.1,102.2h2.7l-0.7,1.2l0,0c0,0,0,0,0,0.1v0.1l0,0l0.7,1.2h-2.7l-2.3-1.3L50.1,102.2z
				 M52.6,106.3l-0.3-0.2h1.2l0.6,1l-0.3-0.2h-0.1h-0.1l-1.4,1.4l0.5-1.9C52.7,106.4,52.7,106.4,52.6,106.3z M53.4,103.6l0.8-1.3
				h1.5l0.8,1.3l-0.8,1.3h-1.5L53.4,103.6z M56.4,100.9L56.4,100.9C56.4,100.9,56.3,100.9,56.4,100.9h-1.5l1.3-2.3l2.3-1.3v2.7
				l-1.3,2.3l-0.7-1.2V101C56.5,101,56.5,100.9,56.4,100.9z M57.5,96.4l0.2-0.3c0-0.1,0-0.1,0-0.2l-1.4-1.4l1.9,0.5l0,0
				c0.1,0,0.1,0,0.1-0.1l0.2-0.3v1.2L57.5,96.4z M58,88.9l1.9-0.5c0.1,0,0.1-0.1,0.1-0.2v-0.4l0.6,1l-0.6,1v-0.4
				c0-0.1,0-0.1-0.1-0.2L58,88.9z M61,96l-0.2,0.3c0,0.1,0,0.1,0,0.2l1.4,1.4l-1.9-0.5l0,0c-0.1,0-0.1,0-0.1,0.1L60,97.8v-1.2L61,96
				z M59.9,100.3l0.9-1.5l3.2,0.8l2.4,2.4l-3.2,0.9l-3.2-0.8L59.9,100.3z M67.3,103.1l0.5,0.5l-0.5,0.5l-1.8-0.5L67.3,103.1z
				 M67.7,105.4l0.7,0.2l-0.2,0.7l-1.8,0.5L67.7,105.4z M75.7,100.8l1.8-0.5l-1.3,1.3l-0.7-0.2L75.7,100.8z M76.6,104l-0.5-0.5
				l0.5-0.5l1.8,0.5L76.6,104z M77.6,106.8l-1.8-0.5l-0.2-0.7l0.7-0.2L77.6,106.8z M85.2,104.1l-1.9-0.5l1.9-0.5
				c0.1,0,0.1-0.1,0.1-0.2v-0.4l0.6,1l-0.6,1v-0.4C85.3,104.1,85.3,104.1,85.2,104.1z M85.7,112C85.7,112,85.6,112,85.7,112
				c-0.1,0-0.2,0-0.2,0.1l-0.2,0.3v-1.2l1-0.6l-0.2,0.3c0,0.1,0,0.1,0,0.2l1.4,1.4L85.7,112z M85.3,109.8v-2.7l1.3-2.3l0.7,1.2
				c0,0,0,0,0,0.1c0,0,0,0.1,0.1,0.1h0.1c0,0,0,0,0.1,0H89l-1.3,2.3L85.3,109.8z M90,113.2l-2.3-2.3l0.9-1.5l1.5-0.9l2.3,2.3
				l0.9,3.2L90,113.2z M93.1,116.3l-1.3-1.3l1.8,0.5l0.2,0.7L93.1,116.3z M95.3,114.6l-0.7-0.2l-0.5-1.8l1.3,1.3L95.3,114.6z
				 M95.8,112.5l-2.4-2.4l-0.8-3.2l1.5-0.9h1.7l0.8,3.2L95.8,112.5z M97.4,114.1l-0.5-0.5l0.5-1.8l0.5,1.8L97.4,114.1z M98,104.9
				c-0.1,0-0.1,0-0.2,0.1l-0.5,1.9l-0.5-1.9c0-0.1-0.1-0.1-0.2-0.1l0,0h-0.4l1-0.6l1,0.6H98z M98,102.2h0.4l-1,0.6l-1-0.6h0.4
				c0.1,0,0.1,0,0.2-0.1l0.5-1.9l0.5,1.9C97.9,102.2,97.9,102.2,98,102.2z M96.9,93.5l0.5-0.5l0.5,0.5l-0.5,1.8L96.9,93.5z
				 M99.3,93.1l0.2-0.7l0.7,0.2l0.5,1.8L99.3,93.1z M100.6,83.3l-0.5,1.8l-0.7,0.2l-0.2-0.7L100.6,83.3z M98.2,85.7l0.3,1
				c0,0.1,0.1,0.1,0.2,0.1l0,0l1-0.3l-0.3,1v0.1l0.1,0.1l1,0.3l-0.8,0.8v0.1V89l0.8,0.7l-1,0.3c-0.1,0-0.1,0.1-0.1,0.2l0.3,1l-1-0.3
				l0,0h-0.1L98.5,91l-0.3,1l-0.8-0.8h-0.1h-0.1l-0.7,0.7l-0.3-1c0-0.1-0.1-0.1-0.2-0.1l0,0l-1,0.3l0.3-1c0-0.1,0-0.2-0.1-0.2
				l-1-0.3l0.7-0.7c0.1-0.1,0.1-0.2,0-0.2L94.1,88l1-0.3c0,0,0.1,0,0.1-0.1v-0.1l-0.3-1l1,0.3l0,0H96l0.1-0.1l0.3-1l0.7,0.7h0.1h0.1
				L98.2,85.7z M96.9,84.3l0.5-1.8l0.5,1.8l-0.5,0.5L96.9,84.3z M98,75.6c-0.1,0-0.1,0-0.2,0.1l-0.5,1.9l-0.5-1.9
				c0-0.1-0.1-0.1-0.2-0.1l0,0h-0.4l1-0.6l1,0.6H98z M98,72.9h0.4l-1,0.6l-1-0.6h0.4c0.1,0,0.1,0,0.2-0.1l0.5-1.9l0.5,1.9
				C97.9,72.9,97.9,72.9,98,72.9z M96.9,64.1l0.5-0.5l0.5,0.5L97.4,66L96.9,64.1z M99.3,63.7l0.2-0.7l0.7,0.2l0.5,1.8L99.3,63.7z
				 M100.6,53.9l-0.5,1.8l-0.7,0.2l-0.2-0.7L100.6,53.9z M98.2,56.3l0.3,1c0,0.1,0.1,0.1,0.2,0.1l0,0l1-0.3l-0.3,1v0.1l0.1,0.1
				l1,0.3l-0.8,0.8c-0.1,0.1-0.1,0.2,0,0.2l0.7,0.7l-1,0.3c0,0-0.1,0-0.1,0.1v0.1l0.3,1l-1-0.3l0,0h-0.1l-0.1,0.1l-0.3,1l-0.6-0.7
				h-0.1h-0.1l-0.7,0.7l-0.3-1c0,0,0-0.1-0.1-0.1h-0.1l0,0l-1,0.3l0.3-1c0-0.1,0-0.2-0.1-0.2l-1-0.3l0.7-0.7c0.1-0.1,0.1-0.2,0-0.2
				l-0.7-0.7l1-0.3c0,0,0.1,0,0.1-0.1v-0.1l-0.3-1l1,0.3l0,0c0.1,0,0.1,0,0.2-0.1l0.3-1l0.7,0.7h0.1h0.1L98.2,56.3z M96.9,54.8
				l0.5-1.8l0.5,1.8l-0.5,0.5L96.9,54.8z M98,46.1c-0.1,0-0.1,0-0.2,0.1l-0.5,1.9l-0.5-1.9c0-0.1-0.1-0.1-0.2-0.1l0,0h-0.4l1-0.6
				l1,0.6H98z M98,43.5h0.4l-1,0.6l-1-0.6h0.4c0.1,0,0.1,0,0.2-0.1l0.5-1.9l0.5,1.9C97.9,43.4,97.9,43.5,98,43.5z M96.9,34.8
				l0.5-0.5l0.5,0.5l-0.5,1.8L96.9,34.8z M99.3,34.4l0.2-0.7l0.7,0.2l0.5,1.8L99.3,34.4z M100.6,24.6l-0.5,1.8l-0.7,0.2l-0.1-0.7
				L100.6,24.6z M98.2,26.9l0.3,1c0,0,0,0.1,0.1,0.1h0.1l0,0l1-0.3l-0.3,1v0.1l0.1,0.1l1,0.3l-0.7,0.7c-0.1,0.1-0.1,0.2,0,0.2
				l0.7,0.7l-1,0.3c0,0-0.1,0-0.1,0.1v0.1l0.3,1l-1-0.3l0,0h-0.1l-0.1,0.1l-0.3,1l-0.8-0.8h-0.1h-0.1L96.5,33l-0.3-1
				c0-0.1-0.1-0.1-0.2-0.1l0,0l-1,0.3l0.3-1c0-0.1,0-0.2-0.1-0.2l-1-0.3l0.7-0.7c0.1-0.1,0.1-0.2,0-0.2l-0.7-0.7l1-0.3
				c0,0,0.1,0,0.1-0.1v-0.1l-0.3-1l1,0.3l0,0c0.1,0,0.1,0,0.2-0.1l0.3-1l0.7,0.7h0.1h0.1L98.2,26.9z M96.9,25.5l0.5-1.8l0.5,1.8
				L97.4,26L96.9,25.5z M98,16.8c-0.1,0-0.1,0-0.2,0.1l-0.5,1.9l-0.5-1.9c0-0.1-0.1-0.1-0.2-0.1l0,0h-0.4l1-0.6l1,0.6H98z M98,14.2
				h0.4l-1,0.6l-1-0.6h0.4c0.1,0,0.1,0,0.2-0.1l0.5-1.9l0.5,1.9C97.9,14.1,97.9,14.2,98,14.2z M96.9,5.5L97.4,5l0.5,0.5l-0.5,1.8
				L96.9,5.5z M99.3,5.1l0.2-0.7l0.7,0.2l0.5,1.8L99.3,5.1z M100.6-4.7l-0.5,1.8l-0.7,0.2l-0.2-0.7L100.6-4.7z M97.4-5.6l0.5,1.8
				l-0.5,0.5l-0.5-0.5L97.4-5.6z M97.2-1.6h0.1h0.1l0.7-0.7l0.3,1c0,0,0,0.1,0.1,0.1h0.1l0,0l1-0.3l-0.3,1v0.1l0.1,0.1l1,0.3
				l-0.8,0.8v0.1V1l0.7,0.7l-1,0.3c0,0-0.1,0-0.1,0.1v0.1l0.3,1l-1-0.3l0,0h-0.1L98.3,3L98,4l-0.8-0.8h-0.1H97l-0.7,0.7l-0.3-1
				c0-0.1-0.1-0.1-0.2-0.1l0,0l-1,0.3l0.3-1c0-0.1,0-0.2-0.1-0.2l-1-0.3l0.7-0.7c0.3,0,0.3-0.1,0.2-0.2L94.2,0l1-0.3
				c0,0,0.1,0,0.1-0.1v-0.1l-0.3-1l1,0.3l0,0c0.1,0,0.1,0,0.2-0.1l0.3-1L97.2-1.6z M94.1-4.7l1.3,1.3l-0.2,0.7l-0.7-0.2L94.1-4.7z
				 M94.1-11.2h1.7l0.9,3.1l-0.9,3.2l-2.4-2.4l-0.8-3.2L94.1-11.2z M90.4-11.2h1.2L91.3-11c-0.1,0-0.1,0.1-0.1,0.2l0.5,1.9l-1.4-1.4
				h-0.1h-0.1l-0.3,0.2L90.4-11.2z M90-8.8l2.3,2.3l0.9,3.2L90-4.2l-2.3-2.3L88.6-8L90-8.8z M86.6-12.5l0.7,1.2c0,0,0,0,0,0.1
				c0,0,0,0.1,0.1,0.1h0.1c0,0,0,0,0.1,0H89l-1.3,2.3l-2.3,1.3v-2.7L86.6-12.5z M86.3-6.7l-0.2,0.3c0,0.1,0,0.1,0,0.2l1.4,1.4
				l-1.9-0.5l0,0c-0.1,0-0.1,0-0.1,0.1l-0.2,0.3v-1.2L86.3-6.7z M84.2,0.3L86,0.8l-1.9,0.5C84,1.3,84,1.4,84,1.5v0.4l-0.6-1l0.6-1
				v0.4C84,0.3,84.1,0.3,84.2,0.3z M83.7-7.6L83.7-7.6c0.1,0,0.2,0,0.2-0.1L84-8v1.2l-1,0.6l0.2-0.3c0-0.1,0-0.1,0-0.2l-1.4-1.4
				L83.7-7.6z M84-5.4v2.7l-1.3,2.3L82-1.6c0,0,0,0,0-0.1c0,0,0-0.1-0.1-0.1h-0.1c0,0,0,0-0.1,0h-1.4l1.4-2.3L84-5.4z M79.4-8.8
				l2.3,2.3L80.8-5l-1.5,0.9L77-6.4l-0.9-3.2L79.4-8.8z M76.2-11.9l1.3,1.3l-1.7-0.5l-0.2-0.7L76.2-11.9z M74.1-10.2l0.7,0.2
				l0.5,1.8L74-9.5L74.1-10.2z M73.5-8.1l2.4,2.4l0.8,3.2l-1.5,0.9h-1.7l-0.8-3.2L73.5-8.1z M72-9.7l0.5,0.5L72-7.4l-0.5-1.8L72-9.7
				z M71.5-0.6L72-2.5l0.5,1.9c0,0.1,0.1,0.1,0.2,0.1h0.4l-1,0.6l-1-0.6h0.4C71.4-0.5,71.5-0.5,71.5-0.6z M71.3-4.9l-0.8,3.2h-1.7
				l-1.5-0.9l0.8-3.2l2.4-2.3L71.3-4.9z M69.2-10l0.7-0.2l0.2,0.7l-1.3,1.3L69.2-10z M67.7-11.9l0.7,0.2l-0.2,0.6l-1.8,0.5
				L67.7-11.9z M64.6-8.8l3.2-0.9L67-6.4l-2.3,2.3L63.2-5l-0.9-1.5L64.6-8.8z M63.6-1.8h-1.4l0,0c-0.1,0-0.1,0-0.1,0.1
				c0,0,0,0,0,0.1l-0.7,1.2l-1.3-2.3v-2.7l2.1,1.3L63.6-1.8z M60.1-7.7l0.1,0.1l0,0l2-0.5l-1.4,1.4c-0.1,0.1-0.1,0.1,0,0.2L61-6.2
				l-1-0.6V-8L60.1-7.7z M59.9,0.2v-0.4l0.6,1l-0.6,1V1.4c0-0.1,0-0.1-0.1-0.2L58,0.8l1.9-0.5C59.9,0.3,59.9,0.3,59.9,0.2z
				 M58.7-0.7l-3.2,0.8l-3.2-0.9l2.4-2.4L57.9-4l0.9,1.5L58.7-0.7z M58.7-4.9l-0.2-0.3c0-0.1-0.1-0.1-0.1-0.1l0,0l-1.9,0.5l1.4-1.4
				c0.1-0.1,0.1-0.1,0-0.2l-0.2-0.3l1,0.6V-4.9z M56.3-11.2C56.3-11.2,56.4-11.2,56.3-11.2c0.1,0,0.2,0,0.2,0v-0.1l0.7-1.2l1.3,2.3
				v2.7l-2.3-1.3l-1.3-2.4H56.3z M52.6-11l-0.3-0.2h1.2l0.6,1l-0.3-0.2h-0.1h-0.1L52.2-9l0.5-1.9C52.7-10.9,52.7-11,52.6-11z
				 M53.8-8.8l1.5,0.9l0.9,1.5l-2.3,2.2l-3.2,0.9l0.9-3.2L53.8-8.8z M48-11.2h1.7l1.5,0.9l-0.8,3.2L48-4.7l-0.9-3.2L48-11.2z
				 M49.7-4.7l-0.5,1.8l-0.7,0.2l-0.2-0.7L49.7-4.7z M46.5-5.6L47-3.8l-0.5,0.5L46-3.8L46.5-5.6z M46.4-1.6h0.1h0.1l0.7-0.7l0.3,1
				c0,0,0,0.1,0.1,0.1h0.1l0,0l1-0.3l-0.3,1v0.1l0.1,0.1l1,0.3l-0.7,0.7v0.1v0.1l0.8,0.7l-1,0.3c0,0-0.1,0-0.1,0.1v0.1l0.3,1l-1-0.3
				l0,0h-0.1l-0.1,0.1l-0.3,1l-0.8-0.8h-0.1h-0.1l-0.7,0.7l-0.3-1c0-0.1-0.1-0.1-0.2-0.1l0,0l-1,0.3l0.3-1V1.9l-0.1-0.1l-1-0.3
				l0.7-0.7V0.7V0.6l-0.7-0.7l1-0.3c0.1,0,0.1-0.1,0.1-0.2l-0.3-1l1,0.3l0,0h0.1l0.1-0.1l0.3-1L46.4-1.6z M43.3-4.7l1.3,1.3
				l-0.2,0.7l-0.7-0.2L43.3-4.7z M43.3-11.2H45l0.9,3.1L45-4.9l-2.4-2.4l-0.8-3.2L43.3-11.2z M39.5-11.2h1.2L40.4-11
				c-0.1,0-0.1,0.1-0.1,0.2l0.5,1.9l-1.4-1.4h-0.1h-0.1l-0.3,0.2L39.5-11.2z M39.2-8.8l2.3,2.3l0.9,3.2l-3.2-0.9l-2.3-2.3L37.8-8
				L39.2-8.8z M35.8-12.5l0.7,1.2c0,0,0,0,0,0.1c0,0,0,0.1,0.1,0.1h0.1c0,0,0,0,0.1,0h1.4l-1.3,2.3l-2.3,1.3v-2.7L35.8-12.5z
				 M35.5-6.7l-0.2,0.3c0,0.1,0,0.1,0,0.2l1.4,1.4l-1.9-0.5l0,0c-0.1,0-0.1,0-0.1,0.1l-0.2,0.3v-1.2L35.5-6.7z M33.3,0.3l1.9,0.5
				l-1.9,0.5c-0.1,0-0.1,0.1-0.1,0.2v0.4l-0.6-1l0.6-1v0.4C33.2,0.3,33.2,0.3,33.3,0.3z M32.8-7.6L32.8-7.6c0.1,0,0.2,0,0.2-0.1
				L33.2-8v1.2l-1,0.6l0.2-0.3c0-0.1,0-0.1,0-0.2L31-8.1L32.8-7.6z M33.2-5.4v2.7l-1.3,2.3l-0.7-1.2c0,0,0,0,0-0.1
				c0,0,0-0.1-0.1-0.1H31c0,0,0,0-0.1,0h-1.4l1.4-2.3L33.2-5.4z M28.5-8.8l2.3,2.3L29.9-5l-1.4,0.9l-2.3-2.3l-0.9-3.2L28.5-8.8z
				 M25.4-11.9l1.3,1.3l-1.8-0.5l-0.2-0.7L25.4-11.9z M23.2-10.2l0.7,0.2l0.5,1.8l-1.3-1.3L23.2-10.2z M22.7-8.1l2.4,2.4l0.8,3.1
				l-1.5,0.9h-1.7l-0.8-3.2L22.7-8.1z M21.1-9.7l0.5,0.5l-0.5,1.8l-0.5-1.8L21.1-9.7z M20.6-0.6l0.5-1.9l0.5,1.9
				c0,0.1,0.1,0.1,0.2,0.1h0.4l-1,0.6l-1-0.6h0.4C20.6-0.5,20.6-0.5,20.6-0.6z M20.5-4.9l-0.8,3.2H18l-1.5-0.9l0.8-3.2l2.3-2.3
				L20.5-4.9z M18.4-10l0.7-0.2l0.2,0.7l-1.4,1.3L18.4-10z M16.9-11.9l0.7,0.2l-0.2,0.6l-1.8,0.5L16.9-11.9z M13.8-8.8L17-9.7
				l-0.9,3.2l-2.3,2.4L12.3-5l-0.9-1.5L13.8-8.8z M12.7-1.8h-1.4c0,0,0,0-0.1,0l0,0c0,0-0.1,0-0.1,0.1c0,0,0,0,0,0.1l-0.7,1.2
				L9.1-2.7v-2.7l2.3,1.3L12.7-1.8z M9.3-7.7c0,0.1,0.1,0.1,0.1,0.1l0,0l1.9-0.5L9.9-6.8c0,0.1,0,0.2,0,0.2l0.2,0.3l-1-0.6v-1.2
				L9.3-7.7z M9.1,0.2v-0.4l0.6,1L9.1,1.9V1.5c0-0.1,0-0.1-0.1-0.2L7.1,0.8L9,0.3C9,0.3,9.1,0.3,9.1,0.2z M7.8-0.7L4.7,0.2L1.4-0.7
				l2.4-2.4L7-3.9l0.9,1.5L7.8-0.7z M7.8-4.9L7.6-5.2c0-0.1-0.1-0.1-0.1-0.1l0,0L5.6-4.8l1.3-1.4C7-6.3,7-6.3,6.9-6.4L6.8-6.7l1,0.6
				V-4.9z M5.6-11.2L5.6-11.2L5.6-11.2c0.1,0,0.2,0,0.2-0.1c0,0,0,0,0-0.1l0.7-1.2l1.3,2.3v2.7L5.5-8.9l-1.3-2.3H5.6z M1.9-11
				l-0.3-0.2h1.2l0.6,1l-0.3-0.2H3H2.9L1.4-9l0.5-1.8C1.9-10.9,1.9-11,1.9-11z M3.1-8.8l1.5,0.9l0.9,1.5L3.1-4.2l-3.2,0.9l0.9-3.2
				L3.1-8.8z M-2.7-11.2H-1l1.5,0.9l-0.8,3.2l-2.4,2.4l-0.9-3.2L-2.7-11.2z M-1-4.7l-0.5,1.8l-0.7,0.2l-0.2-0.7L-1-4.7z M-4.2-5.6
				l0.5,1.8l-0.5,0.5l-0.5-0.5L-4.2-5.6z M-4.4-1.6h0.1h0.1l0.7-0.7l0.3,1c0,0,0,0.1,0.1,0.1H-3l0,0l1-0.3l-0.3,1v0.1l0.1,0.1l1,0.3
				l-0.7,0.7v0.1v0.1l0.8,0.7l-1,0.3c0,0-0.1,0-0.1,0.1v0.1l0.3,1l-1-0.3l0,0H-3C-3.1,3-3.1,3-3.1,3l-0.3,1l-0.7-0.7h-0.1h-0.1
				l-0.8,0.8l-0.3-1c0-0.1-0.1-0.2-0.1-0.2l0,0l-1,0.3l0.3-1V2.1L-6.3,2l-1-0.3L-6.6,1V0.9V0.8l-0.8-0.7l1-0.3c0,0,0.1,0,0.1-0.1
				v-0.1l-0.3-1l1,0.3l0,0h0.1l0.1-0.1l0.3-1L-4.4-1.6z M-7.5-4.7l1.4,1.3l-0.2,0.7L-7-2.9L-7.5-4.7z M-7.5-11.2h1.7l0.9,3.1
				l-0.9,3.2l-2.3-2.3l-0.8-3.2L-7.5-11.2z M-11.2-11.2h1.2l-0.3,0.2c-0.1,0-0.1,0.1-0.1,0.2l0.5,1.9l-1.4-1.4h-0.1h-0.1l-0.3,0.2
				L-11.2-11.2z M-11.6-8.8l2.3,2.3l0.9,3.2l-3.2-0.9l-2.3-2.3L-13-8L-11.6-8.8z M-15-12.5l0.7,1.2c0,0.1,0.1,0.1,0.1,0.1h1.4
				l-1.3,2.3l-2.3,1.3v-2.7L-15-12.5z M-15.3-6.7l-0.2,0.3c0,0.1,0,0.1,0,0.2l1.4,1.4L-16-5.3l0,0c-0.1,0-0.1,0-0.1,0.1l-0.2,0.3
				v-1.2L-15.3-6.7z M-17.4,0.3l1.9,0.5l-1.9,0.5c-0.1,0-0.1,0.1-0.1,0.2v0.4l-0.6-1l0.6-1v0.4C-17.6,0.3-17.5,0.3-17.4,0.3z
				 M-17.9-7.6L-17.9-7.6c0.1,0,0.2,0,0.2-0.1l0.2-0.3v1.2l-1,0.6l0.2-0.3c0-0.1,0-0.1,0-0.2l-1.5-1.4L-17.9-7.6z M-17.6-5.4v2.7
				l-1.3,2.3l-0.7-1.2c0,0,0,0,0-0.1c0,0,0-0.1-0.1-0.1h-0.1c0,0,0,0-0.1,0h-1.4l1.3-2.3L-17.6-5.4z M-27.8-9.5l0.2-0.7l0.7,0.2
				l0.5,1.8L-27.8-9.5z M-25.8-11.1l-0.2-0.7l0.7-0.2l1.3,1.3L-25.8-11.1z M-25.5-9.7l3.2,0.9l2.3,2.3L-20.9-5l-1.4,0.9l-2.3-2.3
				L-25.5-9.7z M-26.1,2.2l-2.3-1.3l2.3-1.3h2.7l-0.7,1.1l0,0c0,0,0,0,0,0.1v0.1l0,0l0.7,1.2L-26.1,2.2z M-24.6,8.1l2.3-2.3l1.5,0.9
				l0.9,1.5l-2.3,2.3l-3.2,0.9L-24.6,8.1z M-25.8,12.8l1.8-0.5l-1.3,1.3l-0.7-0.2L-25.8,12.8z M-25.8,18.2l-0.2-0.7l0.7-0.2l1.3,1.3
				L-25.8,18.2z M-25.5,19.7l3.2,0.9l2.3,2.3l-0.9,1.5l-1.5,0.9l-2.3-2.3L-25.5,19.7z M-26.1,31.5l-2.3-1.3l2.3-1.3h2.7l-0.7,1.2
				l0,0c0,0,0,0,0,0.1v0.1l0,0l0.7,1.2L-26.1,31.5z M-24.6,37.4l2.3-2.3l1.5,0.9l0.9,1.5l-2.3,2.3l-3.2,0.9L-24.6,37.4z M-25.8,42.1
				l1.8-0.5l-1.3,1.3l-0.7-0.2L-25.8,42.1z M-25.8,47.6l-0.2-0.7l0.7-0.2L-24,48L-25.8,47.6z M-25.5,49l3.2,0.9l2.3,2.3l-0.9,1.5
				l-1.5,0.9l-2.3-2.3L-25.5,49z M-26.1,60.8l-2.3-1.3l2.3-1.3h2.7l-0.7,1.2l0,0c0,0,0,0,0,0.1v0.1l0,0l0.7,1.2H-26.1z M-24.6,66.9
				l2.3-2.3l1.5,0.9l0.9,1.5l-2.3,2.3l-3.2,0.9L-24.6,66.9z M-25.9,71.5l1.8-0.5l-1.3,1.3l-0.7-0.2L-25.9,71.5z M-25.8,77l-0.2-0.7
				l0.7-0.2l1.3,1.3L-25.8,77z M-25.5,78.4l3.2,0.9l2.3,2.3l-0.9,1.5l-1.5,0.9l-2.3-2.3L-25.5,78.4z M-26.1,90.2l-2.3-1.3l2.3-1.3
				h2.7l-0.7,1.2l0,0c0,0,0,0,0,0.1V89l0,0l0.7,1.2L-26.1,90.2z M-24.6,96.2l2.3-2.3l1.5,0.9l0.9,1.5l-2.3,2.3l-3.2,0.9L-24.6,96.2z
				 M-25.9,100.8l1.8-0.5l-1.3,1.3l-0.7-0.2L-25.9,100.8z M-25.8,106.3l-0.2-0.7l0.7-0.2l1.3,1.3L-25.8,106.3z M-22.6,115.6h-1.2
				l0.3-0.2c0.1,0,0.1-0.1,0.1-0.2l-0.5-1.9l1.4,1.4h0.1h0.1l0.3-0.2L-22.6,115.6z M-22.3,113.2l-2.3-2.3l-0.9-3.2l3.2,0.9l2.3,2.3
				l-0.9,1.5L-22.3,113.2z M-18.9,116.9l-0.7-1.2c0,0,0,0,0-0.1c0,0,0-0.1-0.1-0.1h-0.1c0,0,0,0-0.1,0h-1.4l1.3-2.3l2.3-1.3v2.7
				L-18.9,116.9z M-17.6,110.5l-1,0.6l0.2-0.3c0-0.1,0-0.1,0-0.2l-1.4-1.4l1.9,0.5l0,0c0.1,0,0.1,0,0.1-0.1l0.2-0.3L-17.6,110.5z
				 M-17.6,106.8l-0.9,1.5l-3.2-0.8l-2.4-2.4l3.2-0.9l3.2,0.8L-17.6,106.8z M-16.4,104.1l-1.9-0.5l1.9-0.5c0.1,0,0.1-0.1,0.1-0.2
				v-0.4l0.6,1l-0.6,1v-0.4C-16.3,104.1-16.3,104.1-16.4,104.1z M-15.9,112C-15.9,112-16,112-15.9,112c-0.1,0-0.2,0-0.2,0.1
				l-0.2,0.3v-1.2l1-0.6l-0.2,0.3c0,0.1,0,0.1,0,0.2l1.4,1.4L-15.9,112z M-16.3,109.8v-2.7l1.3-2.3l0.7,1.2c0,0,0,0,0,0.1
				c0,0,0,0.1,0.1,0.1h0.1c0,0,0,0,0.1,0h1.4l-1.3,2.3L-16.3,109.8z M-11.6,113.2l-2.3-2.3l0.9-1.5l1.5-0.9l2.3,2.3l0.9,3.2
				L-11.6,113.2z M-8.5,116.3l-1.3-1.3l1.8,0.5l0.2,0.7L-8.5,116.3z M-6.3,114.6l-0.7-0.2l-0.5-1.8l1.3,1.3L-6.3,114.6z M-5.8,112.5
				l-2.4-2.4l-0.8-3.2l1.5-0.9h1.7l0.8,3.2L-5.8,112.5z M-4.2,114.1l-0.5-0.5l0.5-1.8l0.5,1.8L-4.2,114.1z M-3.7,105l-0.5,1.9
				l-0.5-1.9c0-0.1-0.1-0.1-0.2-0.1l0,0h-0.4l1-0.6l1,0.6h-0.4C-3.7,104.9-3.7,104.9-3.7,105z M-3.6,109.3l0.8-3.2h1.7l1.5,0.9
				l-0.8,3.2l-2.4,2.4L-3.6,109.3z M-1.5,114.4l-0.7,0.2l-0.2-0.7l1.3-1.3L-1.5,114.4z M0,116.3l-0.7-0.2l0.2-0.7l1.8-0.5L0,116.3z
				 M3.1,113.2l-3.2,0.9l0.9-3.2l2.3-2.3l1.5,0.9l0.9,1.5L3.1,113.2z M4.2,106.1h1.4c0,0,0,0,0.1,0l0,0c0,0,0.1,0,0.1-0.1
				c0,0,0,0,0-0.1l0.7-1.2l1.3,2.3v2.7l-2.3-1.3L4.2,106.1z M7.6,112.1c0-0.1-0.1-0.1-0.1-0.1l0,0l-1.9,0.5l1.4-1.4
				c0.1-0.1,0.1-0.1,0-0.2l-0.2-0.3l1,0.6v1.2L7.6,112.1z M7.8,104.2v0.4l-0.6-1l0.6-1v0.4c0,0.1,0,0.1,0.1,0.2l1.9,0.5L7.9,104
				C7.9,104.1,7.8,104.1,7.8,104.2z M9.1,105.1l3.2-0.8l3.2,0.9l-2.4,2.4l-3.2,0.8L9,106.9L9.1,105.1z M9.1,109.3l0.2,0.3
				c0,0.1,0.1,0.1,0.1,0.1l0,0l1.9-0.5l-1.4,1.4c-0.1,0.1-0.1,0.1,0,0.2l0.2,0.3l-1-0.6V109.3z M11.3,115.6L11.3,115.6
				C11.3,115.6,11.2,115.6,11.3,115.6c-0.1,0-0.2,0-0.2,0.1c0,0,0,0,0,0.1l-0.7,1.2l-1.3-2.3V112l2.3,1.3l1.3,2.3H11.3z M15,115.4
				l0.3,0.2h-1.2l-0.6-1l0.3,0.2h0.1H14l1.4-1.4l-0.5,1.9C14.9,115.3,15,115.4,15,115.4z M13.8,113.2l-1.5-0.9l-0.9-1.5l2.3-2.3
				l3.2-0.9l-0.9,3.2L13.8,113.2z M19.6,115.6h-1.7l-1.5-0.9l0.8-3.2l2.4-2.4l0.9,3.2L19.6,115.6z M17.9,109.1l0.5-1.8l0.7-0.2
				l0.2,0.7L17.9,109.1z M21.1,110l-0.5-1.8l0.5-0.5l0.5,0.5L21.1,110z M21.2,106h-0.1H21l-0.7,0.7l-0.3-1c0,0,0-0.1-0.1-0.1h-0.1
				l0,0l-1,0.3l0.3-1v-0.1l-0.1-0.1l-1-0.3l0.7-0.7v-0.1v-0.1l-0.8-0.7l1-0.3c0,0,0.1,0,0.1-0.1v-0.1l-0.3-1l1,0.3l0,0
				c0.1,0,0.1,0,0.2-0.1l0.3-1l0.7,0.7H21h0.1l0.7-0.7l0.3,1c0,0.1,0.1,0.1,0.2,0.1l0,0l1-0.3l-0.3,1c0,0.1,0,0.2,0.1,0.2l1,0.3
				l-0.7,0.7c-0.1,0.1-0.1,0.2,0,0.2l0.7,0.7l-1,0.3c-0.1,0-0.1,0.1-0.1,0.2l0.3,1l-1-0.3l0,0c-0.1,0-0.1,0-0.2,0.1l-0.3,1L21.2,106
				z M24.4,109.1l-1.3-1.3l0.2-0.7l0.7,0.2L24.4,109.1z M24.4,115.6h-1.7l-0.8-3.2l0.9-3.2l2.4,2.4l0.8,3.2L24.4,115.6z M28.1,115.6
				h-1.2l0.3-0.2c0.1,0,0.1-0.1,0.1-0.2l-0.5-1.9l1.4,1.4h0.1h0.1l0.3-0.2L28.1,115.6z M28.5,113.2l-2.3-2.3l-0.9-3.2l3.2,0.9
				l2.3,2.3l-0.9,1.5L28.5,113.2z M31.9,116.9l-0.7-1.2c0,0,0,0,0-0.1c0,0,0-0.1-0.1-0.1H31c0,0,0,0-0.1,0h-1.4l1.3-2.3l2.3-1.3v2.7
				L31.9,116.9z M32.2,111.1l0.2-0.3c0-0.1,0-0.1,0-0.2l-1.4-1.4l1.9,0.5l0,0c0.1,0,0.1,0,0.1-0.1l0.2-0.3v1.2L32.2,111.1z
				 M33.2,106.8l-0.9,1.5l-3.2-0.8l-2.4-2.4l3.2-0.9l3.2,0.8L33.2,106.8z M34.3,104l-1.9-0.5l1.9-0.5c0.1,0,0.1-0.1,0.1-0.2v-0.4
				l0.6,1l-0.6,1V104C34.5,104.1,34.4,104.1,34.3,104z M34.8,112L34.8,112c-0.1,0-0.2,0-0.2,0.1l-0.2,0.3v-1.2l1-0.6l-0.2,0.3
				c0,0.1,0,0.1,0,0.2l1.4,1.4L34.8,112z M34.5,109.8v-2.7l1.3-2.3l0.7,1.2c0,0,0,0,0,0.1c0,0,0,0.1,0.1,0.1h0.1c0,0,0,0,0.1,0h1.4
				l-1.3,2.3L34.5,109.8z M39.1,113.2l-2.3-2.3l0.9-1.5l1.5-0.9l2.3,2.3l0.9,3.2L39.1,113.2z M42.3,116.3l-1.4-1.3l1.8,0.5l0.2,0.7
				L42.3,116.3z M44.4,114.6l-0.7-0.2l-0.5-1.8l1.3,1.3L44.4,114.6z M45,112.5l-2.4-2.4l-0.8-3.2l1.5-0.9H45l0.8,3.2L45,112.5z
				 M46.5,114.1l-0.5-0.5l0.5-1.8l0.5,1.8L46.5,114.1z M47,105l-0.5,1.9L46,105c0-0.1-0.1-0.1-0.2-0.1l0,0h-0.4l1-0.6l1,0.6H47
				C47.1,104.9,47,104.9,47,105z M47.2,109.3l0.8-3.2h1.7l1.5,0.9l-0.8,3.2l-2.4,2.4L47.2,109.3z M49.2,114.4l-0.7,0.2l-0.2-0.7
				l1.3-1.3L49.2,114.4z M50.8,116.3l-0.7-0.2l0.2-0.7l1.8-0.5L50.8,116.3z M53.9,113.2l-3.2,0.9l0.9-3.2l2.3-2.3l1.5,0.9l0.9,1.5
				L53.9,113.2z M54.9,106.1h1.4c0,0,0,0,0.1,0h0.1l0.1-0.1l0.7-1.2l1.3,2.3v2.7l-2.3-1.3L54.9,106.1z M58.5,112.1
				c0-0.1-0.1-0.1-0.1-0.1l0,0l-1.9,0.5l1.4-1.4c0.1-0.1,0.1-0.1,0-0.2l-0.2-0.3l1,0.6v1.2L58.5,112.1z M58.7,104.2v0.4l-0.6-1
				l0.6-1v0.4c0,0.1,0,0.1,0.1,0.2l1.9,0.5l-1.9,0.5C58.7,104.1,58.7,104.1,58.7,104.2z M59.9,105.1l3.2-0.8l3.2,0.9l-2.4,2.4
				l-3.2,0.8l-0.9-1.5L59.9,105.1z M59.9,109.3l0.2,0.3c0,0.1,0.1,0.1,0.1,0.1l0,0l1.9-0.5l-1.4,1.4c-0.1,0.1-0.1,0.1,0,0.2l0.2,0.3
				l-1-0.6V109.3z M62.2,115.6L62.2,115.6L62.2,115.6c-0.1,0-0.2,0-0.2,0h-0.1l-0.1,0.1l-0.7,1.2l-1.3-2.3v-2.7l2.3,1.3l1.3,2.3
				L62.2,115.6z M65.9,115.4l0.3,0.2H65l-0.6-1l0.3,0.2h0.1h0.1l1.4-1.4l-0.5,1.9C65.8,115.3,65.8,115.4,65.9,115.4z M64.7,113.2
				l-1.5-0.9l-0.9-1.5l2.3-2.3l3.2-0.9l-0.9,3.2L64.7,113.2z M70.5,115.6h-1.7l-1.5-0.9l0.8-3.2l2.4-2.4l0.9,3.2L70.5,115.6z
				 M68.8,109.1l0.5-1.8l0.7-0.2l0.2,0.7L68.8,109.1z M72,110l-0.5-1.8l0.5-0.5l0.5,0.5L72,110z M72.1,106H72h-0.1l-0.7,0.7l-0.3-1
				c0,0,0-0.1-0.1-0.1h-0.1l0,0l-1,0.3l0.3-1v-0.1l-0.1-0.1l-1-0.3l0.7-0.7v-0.1v-0.1l-0.7-0.7l1-0.3c0.1,0,0.1-0.1,0.1-0.2l-0.3-1
				l1,0.3l0,0c0.1,0,0.1,0,0.2-0.1l0.3-1l0.7,0.7H72h0.1l0.7-0.7l0.3,1c0,0.1,0.1,0.1,0.2,0.1l0,0l1-0.3l-0.3,1c0,0.1,0,0.2,0.1,0.2
				l1,0.3l-0.7,0.7c-0.1,0.1-0.1,0.2,0,0.2l0.7,0.7l-1,0.3c0,0-0.1,0-0.1,0.1v0.1l0.3,1l-1-0.3l0,0h-0.1l-0.1,0.1l-0.3,1L72.1,106z
				 M75.2,109.1l-1.3-1.3l0.2-0.7l0.7,0.2L75.2,109.1z M75.2,115.6h-1.7l-0.8-3.2l0.9-3.2l2.4,2.4l0.8,3.2L75.2,115.6z M79,115.6
				h-1.2l0.3-0.2c0.1,0,0.1-0.1,0.1-0.2l-0.5-1.9l1.4,1.4h0.1h0.1l0.3-0.2L79,115.6z M79.3,113.2l-2.3-2.3l-0.9-3.2l3.2,0.9l2.3,2.3
				l-0.9,1.5L79.3,113.2z M82,115.7C82,115.7,82,115.6,82,115.7c-0.1-0.1-0.1-0.1-0.2-0.1c0,0,0,0-0.1,0h-1.4l1.3-2.3L84,112v2.7
				l-1.3,2.3L82,115.7L82,115.7z"/>
		</defs>
		<clipPath id="SVGID_2_">
			<use xlink:href="#SVGID_1_"  style="overflow:visible;"/>
		</clipPath>
		<g class="st0">
			<g>
				<linearGradient id="SVGID_3_" gradientUnits="userSpaceOnUse" x1="-1.803396e-02" y1="58.693" x2="101.6018" y2="58.693">
					<stop  offset="2.770450e-07" style="stop-color:#d5d8ee;stop-opacity:0"/>
					<stop  offset="1" style="stop-color:#d5d8ee"/>
				</linearGradient>
				<rect x="0" y="0" class="st1" width="101.6" height="117.4"/>
			</g>
		</g>
	</g>
</g>
<g id="Layer_7">
</g>
</svg>
