<?xml version="1.0" encoding="utf-8"?>
<!-- Generator: Adobe Illustrator 25.3.0, SVG Export Plug-In . SVG Version: 6.00 Build 0)  -->
<svg version="1.1" id="Layer_1" xmlns="http://www.w3.org/2000/svg" xmlns:xlink="http://www.w3.org/1999/xlink" x="0px" y="0px"
	 viewBox="0 0 3512.8 1600" style="enable-background:new 0 0 3512.8 1600;" xml:space="preserve">
<style type="text/css">
	.st0{fill:#F8F7FA;}
	.st1{fill:#F1F4F9;}
</style>
<rect y="0" class="st0" width="3512.8" height="1600"/>
<circle class="st1" cx="1513.8" cy="1452.3" r="271.7"/>
<circle class="st1" cx="-73.3" cy="364.7" r="271.7"/>
<circle class="st1" cx="3399.1" cy="309.6" r="271.7"/>
<path class="st1" d="M1665.3,177.6L1243.8,405c-74.7,40.3-167.8,12.4-208.1-62.3L919,126.3C881,55.9,907.3-32,977.7-69.9
	l518.3-279.5c54-29.1,121.5-9,150.6,45.1L1751.4-110C1807.1-6.8,1768.5,122,1665.3,177.6z"/>
<path class="st1" d="M-330.1,1688.7l459.2,136.1c81.3,24.1,166.8-22.3,190.9-103.6l69.9-235.8c22.7-76.7-21-157.3-97.7-180
	L-272.3,1138c-58.9-17.4-120.7,16.1-138.2,75l-62.8,211.8C-506.6,1537.2-442.5,1655.4-330.1,1688.7z"/>
<path class="st1" d="M3297.5,1688.7l459.2,136.1c81.3,24.1,166.8-22.3,190.9-103.6l69.9-235.8c22.7-76.7-21-157.3-97.7-180
	L3355.2,1138c-58.9-17.4-120.7,16.1-138.2,75l-62.8,211.8C3121,1537.2,3185.1,1655.4,3297.5,1688.7z"/>
</svg>
