<?xml version="1.0" encoding="utf-8"?>
<!-- Generator: Adobe Illustrator 25.3.0, SVG Export Plug-In . SVG Version: 6.00 Build 0)  -->
<svg version="1.1" id="Layer_1" xmlns="http://www.w3.org/2000/svg" xmlns:xlink="http://www.w3.org/1999/xlink" x="0px" y="0px"
	 viewBox="0 0 1751.4 1932.6" style="enable-background:new 0 0 1751.4 1932.6;" xml:space="preserve">
<style type="text/css">
	.st0{opacity:2.000000e-02;}
	.st1{fill:#221E59;}
	.st2{opacity:1.000000e-02;}
	.st3{fill:#F3F4F9;}
	.st4{opacity:1.000000e-02;fill:#221E59;enable-background:new    ;}
	.st5{opacity:3.000000e-02;fill:#221E59;enable-background:new    ;}
	.st6{fill:#FBEAC6;}
	.st7{fill:#F45967;}
	.st8{fill:#DAA84D;}
</style>
<g class="st0">
	<path class="st1" d="M341.1,1960.3c-37.6,0-75.1,0-112.7,0c-235.2-127.6-201-413.8-147-627.2c29.2-145.9,54-292.5,76.1-439.4
		c52-336.6,81.7-675.7,114.3-1014.4c112.6,0,1479.4-22,1479.4-22s0,534.1,0,801.1l0.1,1302.1L341.1,1960.3z"/>
</g>
<g class="st2">
	<path class="st1" d="M341.1,1960.3c-37.6,0-75.1,0-112.7,0c-235.2-127.6-201-413.8-147-627.2c29.2-145.9,54-292.5,76.1-439.4
		c52-336.6,81.7-675.7,114.3-1014.4c112.6,0,1479.4-22,1479.4-22s0,534.1,0,801.1l0.1,1302.1L341.1,1960.3z"/>
</g>
<path class="st3" d="M1751.3,658.3c0,0-337.5-103.1-719.2,4.3s-395.3,432.7-732.6,777.1c-145.9,148.9-81.8,346.5,38,522.7
	c251.2-2,1413.9-2,1413.9-2L1751.3,658.3z"/>
<path class="st4" d="M1751.3,658.3c0,0-337.5-103.1-719.2,4.3s-395.3,432.7-732.6,777.1c-145.9,148.9-81.8,346.5,38,522.7
	c251.2-2,1413.9-2,1413.9-2L1751.3,658.3z"/>
<path class="st5" d="M478.2,1960.3c9.4-29.6,18.4-59.4,29.1-88.7c12.4-33.9,25.9-67.5,41.1-100.4c21.7-46.7,46.3-92,74.8-135.3
	c11.9-18.1,24.5-35.7,38.8-52.3c11-12.8,22.2-25.5,34.7-37c50.2-46.2,109.1-76.4,179-86.2c23-3.2,46.1-4.9,69.3-3.8
	c25.8,1.2,51.3,4.5,76.7,9.2c37.7,7,75.5,13.6,113.1,21.1c62.5,12.3,125.1,24.6,187.6,37.3c55.5,11.3,110.9,23.4,166.3,34.9
	c64.7,13.5,129.4,27.4,193.9,41.8c23.3,5.2,46.2,12.1,68.7,19.7c0,111.4,0,222.8,0.1,334.1c0,4.3-0.5,5.7-5.8,5.7
	C1323.2,1960.3,900.7,1960.3,478.2,1960.3z"/>
<path class="st6" d="M1751.3-524.8c-9.8,6.2-17.9,14.5-26.9,21.8c-55.7,45-115.2,84-180.4,114.1c-53.8,24.7-109.9,42.3-168.5,51.3
	c-20.4,3.1-40.9,5.1-61.5,6.1c-22.7,1.1-45.3,0.9-68-0.5c-26.1-1.6-52-5.5-77.8-9.1c-24.4-3.4-48.8-6.9-73.2-10.4
	c-27.9-4.1-55.7-8.1-83.5-12.5c-35.5-5.5-70.9-11.3-106.3-17.1c-34.9-5.8-69.7-11.6-104.5-17.8c-45.7-8.1-91.3-16.4-136.9-25
	c-73.1-13.9-146.2-27.5-218.7-43.8c-35.9-8.1-70.5-19.8-104-35c-5.9-3-11.8-5.9-17.7-9C278-536,240-567.8,215.4-613.6
	c510.3,0,1020.6,0,1531-0.1c4.2,0,5.1,0.9,5.1,5C1751.2-580.7,1751.3-552.8,1751.3-524.8z"/>
<g>
	<path class="st7" d="M1462.1,659.9L1462.1,659.9C1462.1,659.9,1462.2,659.9,1462.1,659.9L1462.1,659.9z"/>
	<path class="st7" d="M1461,657.7L1461,657.7L1461,657.7L1461,657.7z"/>
	<path class="st7" d="M1483.7,599.7C1483.7,599.7,1483.6,599.7,1483.7,599.7C1483.6,599.7,1483.6,599.8,1483.7,599.7L1483.7,599.7z"
		/>
	<path class="st7" d="M1459.8,655.5L1459.8,655.5C1459.8,655.5,1459.9,655.5,1459.8,655.5L1459.8,655.5z"/>
	<path class="st7" d="M1443.6,624.8L1443.6,624.8L1443.6,624.8L1443.6,624.8z"/>
	<path class="st7" d="M1444.7,627L1444.7,627C1444.7,627,1444.8,627,1444.7,627L1444.7,627z"/>
	<path class="st7" d="M1447.1,631.4C1447.1,631.4,1447,631.4,1447.1,631.4L1447.1,631.4L1447.1,631.4z"/>
	<path class="st7" d="M1449.4,614L1449.4,614L1449.4,614L1449.4,614z"/>
	<path class="st7" d="M1442.4,622.6L1442.4,622.6L1442.4,622.6L1442.4,622.6z"/>
	<path class="st7" d="M1448.2,633.5C1448.2,633.6,1448.2,633.6,1448.2,633.5C1448.2,633.6,1448.2,633.6,1448.2,633.5L1448.2,633.5z"
		/>
	<path class="st7" d="M1445.9,629.2L1445.9,629.2L1445.9,629.2L1445.9,629.2z"/>
	<path class="st7" d="M1454,644.5L1454,644.5C1454,644.5,1454.1,644.6,1454,644.5L1454,644.5z"/>
	<path class="st7" d="M1455.2,646.7L1455.2,646.7L1455.2,646.7L1455.2,646.7z"/>
	<path class="st7" d="M1449.4,635.7C1449.4,635.8,1449.4,635.8,1449.4,635.7C1449.4,635.8,1449.4,635.8,1449.4,635.7L1449.4,635.7z"
		/>
	<path class="st7" d="M1458.7,653.3L1458.7,653.3L1458.7,653.3L1458.7,653.3z"/>
	<path class="st7" d="M1457.5,651.1L1457.5,651.1L1457.5,651.1L1457.5,651.1z"/>
	<path class="st7" d="M1452.9,642.3L1452.9,642.3C1452.9,642.4,1452.9,642.4,1452.9,642.3L1452.9,642.3z"/>
	<path class="st7" d="M1450.5,637.9C1450.5,637.9,1450.5,638,1450.5,637.9C1450.6,638,1450.6,638,1450.5,637.9L1450.5,637.9z"/>
	<path class="st7" d="M1451.7,640.1C1451.7,640.1,1451.7,640.2,1451.7,640.1C1451.7,640.2,1451.7,640.2,1451.7,640.1L1451.7,640.1z"
		/>
	<path class="st7" d="M1465.6,666.4C1465.6,666.4,1465.6,666.5,1465.6,666.4C1465.6,666.5,1465.6,666.5,1465.6,666.4L1465.6,666.4z"
		/>
	<path class="st7" d="M1468,671.4C1468,671.4,1467.9,671.4,1468,671.4L1468,671.4L1468,671.4z"/>
	<path class="st7" d="M1466.8,668.6C1466.8,668.6,1466.8,668.7,1466.8,668.6C1466.8,668.7,1466.8,668.7,1466.8,668.6L1466.8,668.6z"
		/>
	<path class="st7" d="M1469.2,674.1L1469.2,674.1L1469.2,674.1L1469.2,674.1z"/>
	<path class="st7" d="M1470.3,676.3L1470.3,676.3C1470.3,676.3,1470.4,676.3,1470.3,676.3L1470.3,676.3z"/>
	<path class="st7" d="M1471.5,678.5L1471.5,678.5L1471.5,678.5L1471.5,678.5z"/>
	<path class="st7" d="M1472.6,680.6C1472.7,680.7,1472.7,680.7,1472.6,680.6C1472.7,680.7,1472.7,680.7,1472.6,680.6L1472.6,680.6z"
		/>
</g>
<g>
	<g>
		<g>
			<path class="st1" d="M713.2-166.1h26.7v11.9h-41.1v-54.6H739v11.9h-25.8V-166.1z M712.2-187.7H736v11.5h-23.8
				C712.2-176.1,712.2-187.7,712.2-187.7z"/>
			<path class="st1" d="M749.7-154.2v-54.6h24.2c5.7,0,10.7,1.1,14.9,3.4c4.3,2.2,7.7,5.4,10,9.5c2.4,4,3.6,8.9,3.6,14.5
				s-1.2,10.4-3.6,14.4c-2.4,4.1-5.8,7.3-10,9.5c-4.3,2.2-9.2,3.4-14.9,3.4L749.7-154.2L749.7-154.2z M764.2-166.5h9.2
				c2.9,0,5.4-0.6,7.7-1.7c2.1-1.2,3.9-2.9,5-5.1c1.2-2.3,1.8-5,1.8-8c0-3.2-0.6-5.8-1.8-8.1c-1.2-2.2-2.9-3.9-5-5.1
				c-2.2-1.2-4.7-1.7-7.7-1.7h-9.2V-166.5z"/>
			<path class="st1" d="M835.6-153.1c-7.6,0-13.5-2.2-17.7-6.6c-4.3-4.4-6.4-10.7-6.4-18.8v-30.3H826v29.8c0,4.7,0.9,8,2.6,10.1
				c1.7,2.1,4.1,3.1,7.1,3.1s5.4-1,7.1-3.1s2.5-5.4,2.5-10.1v-29.8h14.3v30.3c0,8.1-2.1,14.4-6.4,18.8
				C849-155.3,843.1-153.1,835.6-153.1z"/>
			<path class="st1" d="M871.1-154.2v-54.6H883l21.2,37.2H898l20.6-37.2h11.9l0.2,54.6h-13.3l-0.2-33h2.3L904-159.6h-6.5l-15.9-27.6
				h2.8v33L871.1-154.2L871.1-154.2z"/>
			<path class="st1" d="M936.5-154.2l22.6-54.6h14.3l22.6,54.6h-15.1l-17.7-47h5.7l-17.7,47L936.5-154.2L936.5-154.2z M948.9-164.9
				l3.7-11.4h25l3.7,11.4H948.9z"/>
			<path class="st1" d="M1019.9-153.1c-4.2,0-8.2-0.6-12.1-1.7c-3.9-1.1-7-2.5-9.5-4.3l4.7-11.4c2.3,1.6,5,2.8,8,3.9
				c3,1,6,1.5,9,1.5c2,0,3.6-0.2,4.8-0.6c1.2-0.4,2.1-0.9,2.7-1.6c0.6-0.6,0.9-1.4,0.9-2.3c0-1.3-0.6-2.2-1.6-3
				c-1.1-0.7-2.4-1.3-4.2-1.8c-1.7-0.5-3.6-0.9-5.7-1.4c-2.1-0.5-4.2-1.1-6.2-1.8c-2.1-0.7-3.9-1.7-5.7-2.8
				c-1.7-1.2-3.1-2.7-4.2-4.6c-1.1-1.9-1.6-4.3-1.6-7.2c0-3.3,0.9-6.2,2.5-8.9s4.2-4.8,7.6-6.4c3.4-1.6,7.6-2.4,12.5-2.4
				c3.4,0,6.6,0.4,9.9,1.2c3.2,0.8,6.2,2,8.7,3.6l-4.5,11.4c-2.4-1.4-4.8-2.4-7.3-3.2c-2.4-0.7-4.7-1-6.9-1c-2,0-3.6,0.2-4.8,0.6
				c-1.2,0.5-2.1,1-2.6,1.7c-0.6,0.7-0.8,1.6-0.8,2.5c0,1.2,0.6,2.1,1.6,2.8s2.4,1.3,4.2,1.7c1.7,0.5,3.6,0.9,5.7,1.3
				c2.1,0.5,4.2,1,6.2,1.7s3.9,1.7,5.7,2.8s3.1,2.7,4.1,4.6s1.6,4.3,1.6,7.1c0,3.2-0.9,6.1-2.5,8.8s-4.2,4.8-7.5,6.5
				C1029.1-154,1024.9-153.1,1019.9-153.1z"/>
			<path class="st1" d="M1061.9-154.2v-42.4h-15.7v-12.2h45.8v12.2h-15.7v42.4L1061.9-154.2L1061.9-154.2z"/>
			<path class="st1" d="M1113.5-166.1h26.7v11.9h-41v-54.6h40.2v11.9h-25.8L1113.5-166.1L1113.5-166.1L1113.5-166.1z M1112.4-187.7
				h23.8v11.5h-23.8V-187.7z"/>
			<path class="st1" d="M1150.1-154.2v-54.6h23.4c4.7,0,8.7,0.8,12.1,2.4c3.4,1.6,6,3.9,7.9,7c1.8,3.1,2.8,6.6,2.8,10.8
				c0,4.1-0.9,7.7-2.8,10.7c-1.8,3-4.5,5.3-7.9,6.9s-7.4,2.4-12.1,2.4h-15.4l6.5-6.5v21L1150.1-154.2L1150.1-154.2z M1164.5-173.5
				l-6.5-7.1h14.5c3,0,5.3-0.7,6.8-2.1c1.5-1.4,2.2-3.4,2.2-5.8c0-2.5-0.7-4.5-2.2-5.9s-3.7-2.1-6.8-2.1H1158l6.5-7.1V-173.5z
				 M1181.7-154.2l-12.7-19.9h15.4l12.8,19.9H1181.7z"/>
		</g>
	</g>
	<g>
		<path class="st8" d="M1018.1-234.5H877.8c-0.4,0-0.6-0.3-0.6-0.6v-16.1c0-0.4,0.3-0.6,0.6-0.6h140.4c0.4,0,0.6,0.3,0.6,0.6v16.1
			C1018.9-234.8,1018.6-234.5,1018.1-234.5z"/>
		<g>
			<circle class="st1" cx="947.9" cy="-307.6" r="14.8"/>
			<g>
				<g>
					<path class="st1" d="M958.3-324L958.3-324c0.1-15.3,8.3-27.8,8.3-27.8c-13.4-10-17.7-36.4-17.7-36.4l0,0v32.4
						c2.4,0.5,4.2,2.9,3.6,5.5c-0.3,1.8-1.8,3.4-3.6,3.9c-3.1,0.6-5.8-1.7-5.8-4.6c0-2.3,1.6-4.2,3.8-4.6v-32.5l0,0
						c0,0-4.3,26.4-17.7,36.4c0,0,8.3,12.4,8.3,27.8h0.1c3-1.5,6.5-2.5,10.4-2.5S955.3-325.6,958.3-324z"/>
				</g>
			</g>
		</g>
		<g>
			<g>
				<g>
					<path class="st8" d="M1042.8-321l-34.8,9.5c-0.8,0.2-0.8,1.2,0,1.4c4.2,1.1,11.3,3.6,8.9,8.6c-3.2,6.9-7.3,5.9-12.5,20.9
						c-0.1,0.2-0.3,0.4-0.5,0.4c-2.6,0.3-17.1,1.5-40-12.2c-0.3-0.2-0.8-0.1-1,0.2l-9.4,15.2c-0.2,0.3-0.1,0.6,0.1,1
						c2.7,2.3,17.9,13.3,64.9,16.5c0.4,0,0.9-0.3,0.8-0.8c-0.3-3.4,0.4-17.9,24.3-59.7C1044-320.6,1043.4-321.2,1042.8-321z"/>
				</g>
				<path class="st8" d="M853.2-321l34.8,9.5c0.8,0.2,0.8,1.2,0,1.4c-4.2,1.1-11.3,3.6-8.9,8.6c3.2,6.9,7.3,5.9,12.5,20.9
					c0.1,0.2,0.3,0.4,0.5,0.4c2.6,0.3,17.1,1.5,40-12.2c0.3-0.2,0.8-0.1,1,0.2l9.4,15.2c0.2,0.3,0.1,0.6-0.1,1
					c-2.7,2.3-17.9,13.3-64.9,16.5c-0.4,0-0.9-0.3-0.8-0.8c0.3-3.4-0.4-17.9-24.3-59.7C852-320.6,852.6-321.2,853.2-321z"/>
			</g>
		</g>
	</g>
</g>
</svg>
