<?xml version="1.0" encoding="UTF-8"?>
<svg id="Layer_1" xmlns="http://www.w3.org/2000/svg" version="1.1" viewBox="0 0 1751.4 1932.6">
  <!-- Generator: Adobe Illustrator 30.1.0, SVG Export Plug-In . SVG Version: 2.1.1 Build 136)  -->
  <defs>
    <style>
      .st0, .st1 {
        fill: #1c1c2f;
      }

      .st1 {
        opacity: .6;
      }

      .st2 {
        fill: #221e59;
      }

      .st3 {
        fill: #f45967;
      }

      .st4 {
        fill: #f3f4f9;
      }

      .st4, .st5 {
        display: none;
      }

      .st6 {
        fill: #1c1c31;
      }

      .st5 {
        opacity: .02;
      }

      .st7 {
        opacity: .5;
      }
    </style>
  </defs>
  <g class="st5">
    <path class="st2" d="M341.1,1960.3h-112.7C-6.8,1832.7,27.4,1546.5,81.4,1333.1c29.2-145.9,54-292.5,76.1-439.4,52-336.6,81.7-675.7,114.3-1014.4,112.6,0,1479.4-22,1479.4-22v801.1l.1,1302.1-1410.2-.2Z"/>
  </g>
  <g class="st7">
    <path class="st0" d="M341.1,1960.3h-112.7C-6.8,1832.7,27.4,1546.5,81.4,1333.1c29.2-145.9,54-292.5,76.1-439.4,52-336.6,81.7-675.7,114.3-1014.4,112.6,0,1479.4-22,1479.4-22v801.1l.1,1302.1-1410.2-.2Z"/>
  </g>
  <path class="st4" d="M1751.3,658.3s-337.5-103.1-719.2,4.3-395.3,432.7-732.6,777.1c-145.9,148.9-81.8,346.5,38,522.7,251.2-2,1413.9-2,1413.9-2l-.1-1302.1Z"/>
  <path class="st1" d="M1751.3,658.3s-337.5-103.1-719.2,4.3-395.3,432.7-732.6,777.1c-145.9,148.9-81.8,346.5,38,522.7,251.2-2,1413.9-2,1413.9-2l-.1-1302.1Z"/>
  <path class="st6" d="M478.2,1960.3c9.4-29.6,18.4-59.4,29.1-88.7,12.4-33.9,25.9-67.5,41.1-100.4,21.7-46.7,46.3-92,74.8-135.3,11.9-18.1,24.5-35.7,38.8-52.3,11-12.8,22.2-25.5,34.7-37,50.2-46.2,109.1-76.4,179-86.2,23-3.2,46.1-4.9,69.3-3.8,25.8,1.2,51.3,4.5,76.7,9.2,37.7,7,75.5,13.6,113.1,21.1,62.5,12.3,125.1,24.6,187.6,37.3,55.5,11.3,110.9,23.4,166.3,34.9,64.7,13.5,129.4,27.4,193.9,41.8,23.3,5.2,46.2,12.1,68.7,19.7,0,111.4,0,222.8.1,334.1,0,4.3-.5,5.7-5.8,5.7-422.4-.1-844.9-.1-1267.4-.1Z"/>
  <g>
    <path class="st3" d="M1462.1,659.9h0s.1,0,0,0h0Z"/>
    <path class="st3" d="M1461,657.7h0Z"/>
    <path class="st3" d="M1483.7,599.7s-.1,0,0,0c-.1,0-.1.1,0,0h0Z"/>
    <path class="st3" d="M1459.8,655.5h0s.1,0,0,0h0Z"/>
    <path class="st3" d="M1443.6,624.8h0Z"/>
    <path class="st3" d="M1444.7,627h0s.1,0,0,0h0Z"/>
    <path class="st3" d="M1447.1,631.4s-.1,0,0,0h0Z"/>
    <path class="st3" d="M1449.4,614h0Z"/>
    <path class="st3" d="M1442.4,622.6h0Z"/>
    <path class="st3" d="M1448.2,633.5q0,.1,0,0,0,.1,0,0h0Z"/>
    <path class="st3" d="M1445.9,629.2h0Z"/>
    <path class="st3" d="M1454,644.5h0s.1.1,0,0h0Z"/>
    <path class="st3" d="M1455.2,646.7h0Z"/>
    <path class="st3" d="M1449.4,635.7q0,.1,0,0,0,.1,0,0h0Z"/>
    <path class="st3" d="M1458.7,653.3h0Z"/>
    <path class="st3" d="M1457.5,651.1h0Z"/>
    <path class="st3" d="M1452.9,642.3h0q0,.1,0,0h0Z"/>
    <path class="st3" d="M1450.5,637.9s0,.1,0,0q.1.1,0,0h0Z"/>
    <path class="st3" d="M1451.7,640.1s0,.1,0,0q0,.1,0,0h0Z"/>
    <path class="st3" d="M1465.6,666.4s0,.1,0,0q0,.1,0,0h0Z"/>
    <path class="st3" d="M1468,671.4s-.1,0,0,0h0Z"/>
    <path class="st3" d="M1466.8,668.6s0,.1,0,0q0,.1,0,0h0Z"/>
    <path class="st3" d="M1469.2,674.1h0Z"/>
    <path class="st3" d="M1470.3,676.3h0s.1,0,0,0h0Z"/>
    <path class="st3" d="M1471.5,678.5h0Z"/>
    <path class="st3" d="M1472.6,680.6q.1.1,0,0,.1.1,0,0h0Z"/>
  </g>
</svg>