<?xml version="1.0" encoding="utf-8"?>
<!-- Generator: Adobe Illustrator 25.3.0, SVG Export Plug-In . SVG Version: 6.00 Build 0)  -->
<svg version="1.1" id="Layer_1" xmlns="http://www.w3.org/2000/svg" xmlns:xlink="http://www.w3.org/1999/xlink" x="0px" y="0px"
	 viewBox="0 0 512 512" style="enable-background:new 0 0 512 512;" xml:space="preserve">
<style type="text/css">
	.st0{fill:url(#SVGID_1_);}
	.st1{fill:#12165B;}
	.st2{fill:#10145B;}
	.st3{fill:#232053;}
</style>
<g>
	<g>
		<linearGradient id="SVGID_1_" gradientUnits="userSpaceOnUse" x1="19.515" y1="223.9962" x2="492.4748" y2="223.9962">
			<stop  offset="0" style="stop-color:#D2A153"/>
			<stop  offset="1" style="stop-color:#DAC37B"/>
		</linearGradient>
		<path class="st0" d="M31.6,191.8c1.4,0.6,2.4,1.8,3.6,2.8c3.5,3,7,6,10.5,9.1c2.3,2,4.6,4.2,7,6.2c2.7,2.2,5.3,4.7,8,6.9
			c1.2,1,2.3,2,3.4,3c2.8,2.5,5.8,3.1,9.3,2c2.4-0.8,4.9-1.1,7.3-1.7c3.7-0.9,7.5-1.4,11.2-2.3c2.1-0.5,4.3-0.7,6.5-1.1
			c3.1-0.5,6.3-0.9,9.4-1.3c3.3-0.4,6.6-0.7,9.9-1c10.3-0.8,20.6-1.5,31-1c6.4,0.3,12.9,0.7,19.3,1.4c4.1,0.4,8.2,0.9,12.3,1.5
			c3.4,0.5,6.8,0.9,10.1,1.9c1.9,0.5,4,0.8,6,1.2c4.4,1,8.8,2.1,13.2,3.4c4.2,1.3,8.6,2.4,12.7,3.9c5.2,1.9,10.4,3.8,15.5,6
			c5.2,2.2,10.2,4.8,15.4,7c2,0.9,3.9,0.9,5.9,0c4.5-2.1,8.9-4.3,13.5-6.2c4.1-1.7,8.1-3.5,12.3-5c4.9-1.7,9.8-3.5,14.8-5
			c4.8-1.4,9.6-2.8,14.4-3.9c2.3-0.5,4.6-0.8,6.9-1.4c3.4-0.9,6.8-1.4,10.2-1.9c3.8-0.6,7.7-0.9,11.6-1.5c5.5-0.7,11-0.8,16.5-1.3
			c5.4-0.5,10.8-0.3,16.1-0.2c7.3,0.2,14.6,0.7,21.9,1.4c4.4,0.4,8.9,0.9,13.3,1.5c3.6,0.5,7.3,1,10.9,1.9c2.5,0.6,5,1,7.5,1.5
			c3.4,0.7,6.7,1.4,10,2.2c1,0.3,2.1,0.6,3.1,0.7c1.9,0.1,3.5-0.7,4.9-1.7c1.6-1.1,3-2.4,4.4-3.8c2.5-2.3,5.2-4.6,7.8-6.8
			c6.9-6,13.8-11.9,20.7-17.9c0.3-0.2,0.6-0.4,0.9-0.6c0.8,1.2,2.2,1.3,3.4,1.8c2.8,1.1,5.5,2.2,8.2,3.4c0.1,0.4,0,0.5-0.1,0.7
			c-4.1,3.6-8.2,7.1-12.3,10.6c-2.7,2.4-5.5,4.8-8.2,7.1c-5.7,5-11.5,10-17.2,14.9c-2.2,1.9-4.5,3.9-6.6,5.9
			c-2.5,2.4-5.4,2.7-8.5,1.9c-3-0.7-6-1.3-9-2.1c-3.9-1-7.9-1.6-11.8-2.3c-3.4-0.6-6.8-1.1-10.2-1.5c-2.2-0.3-4.4-0.4-6.5-1
			c-1.6-0.4-3.2-0.3-4.9-0.5c-6.7-0.6-13.5-0.9-20.2-1.1c-3.6-0.1-7.2-0.2-10.7-0.1c-5.6,0.1-11.2,0.3-16.7,0.7
			c-3.1,0.2-6.1,0.4-9.1,0.9c-4,0.7-8,1.2-11.9,1.9c-4.1,0.7-8.1,1.4-12.2,2.3c-3.1,0.7-6.1,1.6-9.2,2.3c-3,0.7-6,1.5-9,2.5
			c-4.2,1.5-8.5,2.7-12.7,4.3c-3.9,1.5-7.8,2.9-11.6,4.6c-3.6,1.6-7.2,3-10.7,5c-1.6,0.9-3.4,1.8-5.2,2.3c-2,0.6-4.1,0.1-5.9-0.9
			c-2.4-1.2-4.7-2.5-7.1-3.5c-3.6-1.5-7-3.3-10.6-4.6c-2.6-1-5.2-2-7.8-3c-2.2-0.9-4.4-1.5-6.6-2.3c-2.5-0.9-5.1-1.8-7.7-2.5
			c-4.7-1.4-9.5-2.4-14.2-3.7c-4.6-1.2-9.3-2-13.9-2.8c-3.4-0.6-6.8-1-10.1-1.5c-8.2-1.3-16.5-1.7-24.7-1.9
			c-3.4-0.1-6.9-0.2-10.3-0.1c-6,0.2-12.1,0.3-18.1,0.7c-3.3,0.2-6.7,0.4-9.9,0.9c-4.3,0.8-8.6,1.1-12.9,1.8c-3.1,0.5-6.3,1-9.4,1.5
			c-3.3,0.5-6.6,1.4-9.8,2.2c-2.2,0.5-4.5,1.1-6.7,1.6c-2.8,0.5-5.3,0.1-7.6-1.9c-4.5-4.1-9.1-8-13.7-12c-3.8-3.3-7.6-6.5-11.3-9.8
			c-5.2-4.5-10.5-9.1-15.7-13.6c-1.4-1.2-2.7-2.4-4.1-3.7c1.1-1.1,2.5-1.3,3.7-1.9c2.3-1,4.7-1.9,7.1-2.8
			C30.8,192.3,31.2,192,31.6,191.8z"/>
		<g>
			<path class="st1" d="M31.6,191.8c-0.6-0.7-1.2-1.4-1.9-1.9c-2.8-2.1-5.2-4.7-8-6.8c-0.8-0.6-1.5-1.3-2.3-2.1c1.1-0.8,2-1.1,3-1.4
				c4.2-1.5,8.2-3.3,12.4-4.6c3.5-1,6.8-2.3,10.3-3.3c3.7-1,7.4-1.8,11.1-2.8c4-1,8-1.7,12-2.5c4.3-0.8,8.7-1.3,13-1.9
				c6.5-0.9,13.1-1.4,19.7-1.8c7.7-0.4,15.5-0.4,23.2-0.2c5.9,0.1,11.8,0.4,17.6,1.1c4.6,0.5,9.2,1,13.8,1.8
				c3.1,0.5,6.2,0.9,9.2,1.5c2.9,0.6,5.8,1,8.7,1.9c2.1,0.6,4.3,1,6.4,1.5c3.4,0.9,6.8,1.6,10.1,2.8c2,0.8,4.2,1.3,6.3,1.9
				c2.8,0.8,5.5,1.9,8.2,2.9c2.8,1.1,5.6,2,8.3,3.4c3.7,1.8,7.6,3.3,11.2,5.5c1.5,0.9,3.2,1.6,4.7,2.5c4.2,2.4,8.3,5.1,12.3,7.8
				c3,2.1,5.8,4.2,8.6,6.5c1.3,1,2.6,2.1,3.9,3.1c1.9,1.4,3.3,1.5,5.3,0c3.2-2.5,6.4-5.2,9.7-7.6c3.3-2.4,6.6-4.7,10.1-6.8
				c2.6-1.5,5.1-3.1,7.8-4.5c3.5-1.8,7-3.6,10.5-5.3c5.5-2.7,11.3-4.7,17-6.9c2.3-0.9,4.7-1.4,7-2.2c3.6-1.3,7.2-2.1,10.8-3.1
				c2-0.5,4-0.8,6-1.4c3.6-1,7.3-1.7,11.1-2.3c4.8-0.8,9.7-1.6,14.6-2.1c3.2-0.3,6.3-0.9,9.4-1.2c6.8-0.6,13.7-0.9,20.6-1
				c9.2-0.1,18.3,0.2,27.5,0.9c5.3,0.4,10.5,1.1,15.7,1.8c5.8,0.8,11.5,1.7,17.2,3.1c5.2,1.3,10.4,2.4,15.5,4
				c4.8,1.5,9.6,3,14.3,4.8c2.9,1.1,5.8,2.3,8.6,3.4c0.2,0.1,0.4,0.1,0.5,0.5c-0.7,1.1-1.8,2-2.9,2.9c-3,2.5-6.1,5.1-9,7.8
				c-0.3,0.2-0.6,0.4-0.9,0.6c-6.9,6-13.8,11.9-20.7,17.9c-2.6,2.3-5.3,4.5-7.8,6.8c-1.4,1.3-2.9,2.6-4.4,3.8
				c-1.5,1.1-3.1,1.9-4.9,1.7c-1.1-0.1-2.1-0.4-3.1-0.7c-3.3-0.9-6.7-1.6-10-2.2c-2.5-0.5-5.1-0.8-7.5-1.5
				c-3.6-0.9-7.2-1.3-10.9-1.9c-4.4-0.6-8.8-1.1-13.3-1.5c-7.3-0.6-14.6-1.2-21.9-1.4c-5.4-0.1-10.8-0.3-16.1,0.2
				c-5.5,0.5-11,0.6-16.5,1.3c-3.9,0.5-7.7,0.9-11.6,1.5c-3.4,0.5-6.8,1.1-10.2,1.9c-2.3,0.6-4.6,0.9-6.9,1.4
				c-4.9,1.1-9.7,2.5-14.4,3.9c-5,1.5-9.9,3.2-14.8,5c-4.2,1.5-8.2,3.3-12.3,5c-4.6,1.9-9,4.1-13.5,6.2c-2,0.9-3.9,0.9-5.9,0
				c-5.2-2.2-10.2-4.8-15.4-7c-5.1-2.2-10.3-4.1-15.5-6c-4.2-1.6-8.5-2.6-12.7-3.9c-4.3-1.3-8.7-2.4-13.2-3.4c-2-0.4-4-0.7-6-1.2
				c-3.3-0.9-6.7-1.3-10.1-1.9c-4.1-0.6-8.2-1.1-12.3-1.5c-6.4-0.6-12.9-1.1-19.3-1.4c-10.4-0.4-20.7,0.3-31,1
				c-3.3,0.2-6.6,0.6-9.9,1c-3.1,0.4-6.3,0.9-9.4,1.3c-2.2,0.3-4.4,0.5-6.5,1.1c-3.7,0.9-7.5,1.4-11.2,2.3c-2.4,0.6-4.9,1-7.3,1.7
				c-3.5,1.1-6.5,0.5-9.3-2c-1.1-1-2.2-2.1-3.4-3c-2.7-2.2-5.2-4.7-8-6.9c-2.4-2-4.6-4.1-7-6.2c-3.5-3-7-6.1-10.5-9.1
				C34,193.6,33,192.4,31.6,191.8z"/>
			<path class="st2" d="M468.7,159c-7.7-1.7-14.9-3.1-22.2-4.1c-39.1-5.3-78-4.5-116.4,5.8c-22.9,6.2-44.2,15.8-63.6,29.6
				c-1.2,0.9-1.2,0.9-2.9,0.9c9-10.4,19.6-19.1,31.4-26.4c20-12.5,41.7-20.4,64.7-25c20.3-4.1,40.8-5.6,61.5-4.8
				c9,0.3,18,0.8,27,2.1c7,1,11.8,4.9,15.5,10.5C465.8,151,467.3,154.7,468.7,159z"/>
			<path class="st2" d="M247.6,190.1c-1.5,0.3-2.1-0.4-2.7-0.9c-24.5-16.9-51.6-27.3-80.7-32.7c-39-7.2-77.8-6.1-116.6,1.8
				c-1,0.2-1.9,0.8-3.1,0.2c1.9-6.1,4.5-11.8,9.3-16.3c2.9-2.7,6.3-4.4,10.4-5c17.1-2.3,34.3-2.8,51.6-2c25.9,1.3,51.1,6,75.2,15.8
				c19.1,7.8,36.5,18.3,51.4,32.6C244.1,185.6,246.4,187.3,247.6,190.1z"/>
		</g>
	</g>
	<g>
		<path class="st3" d="M339.8,369.5c2.2-4.2,4-7.8,5.8-11.3c1.1-0.3,2-0.2,3.1,0c0,6.1,0,12.2,0,18.4c-0.9,0.5-1.9,0.3-3.2,0.1
			c-0.5-3.2,0-6.5-0.3-10.2c-1.7,2.3-2.6,4.5-3.7,6.6c-0.4,0.8-0.6,1.8-1.8,1.8c-1.2,0-1.3-1.1-1.7-1.9c-1.1-2-2.2-4.1-3.7-6
			c0,3.1,0,6.3,0,9.3c-1.2,0.8-2.2,0.5-3.4,0.3c0-6.1,0-12.2,0-18.3c0.9-0.6,1.9-0.3,3-0.1C335.7,361.7,337.6,365.4,339.8,369.5z"/>
		<path class="st3" d="M22.4,358.2c1.1-0.3,2-0.3,3.1,0c1.9,3.6,3.8,7.2,5.9,11.3c2.1-4,4-7.7,5.8-11.3c1-0.3,1.9-0.3,3,0
			c0,6,0,12.1,0,18.3c-0.8,0.7-1.9,0-3.2,0.3c0-3.6,0-7,0-10.3c-0.2,0-0.3-0.1-0.5-0.1c-1.1,2-2.1,4.1-3.2,6.1
			c-0.5,0.9-0.5,2.3-2,2.3c-1.4,0-1.5-1.5-2-2.3c-1.1-1.8-2-3.7-3.5-5.5c0,3.1,0,6.3,0,9.3c-1.2,0.7-2.3,0.6-3.4,0.3
			C22.4,370.4,22.4,364.4,22.4,358.2z"/>
		<path class="st3" d="M421.8,376.6c0-6.3,0-12.4,0-18.3c2.1-0.8,3.3-0.1,4.2,1.8c1.4,3,3,6,4.8,9.4c2.1-4,4-7.6,5.8-11.2
			c0.9-0.5,1.8-0.2,2.9-0.2c0,6.2,0,12.3,0,18.5c-0.9,0.3-1.9,0.1-3.1,0.2c0-3.5,0-6.8,0-10.6c-2.6,2.9-2.8,6.9-6.2,9.1
			c-1.7-3.1-3.1-5.8-4.6-8.5c-0.1,0-0.3,0.1-0.4,0.1c0,3.1,0,6.2,0,9.3C424.2,377,423.1,376.6,421.8,376.6z"/>
		<path class="st3" d="M363.6,358.2c1.5-0.3,2.5-0.4,3.7,0c0,6.1,0,12.1,0,18.2c-2,0.9-3.3,0.1-4.5-1.7c-1.9-2.9-3.9-5.6-6.2-8.9
			c-0.6,3.8,0,7.2-0.4,10.5c-1.1,0.6-2.2,0.3-3.5,0.3c0-6.2,0-12.3,0-18.5c1.9-0.7,3.2-0.1,4.3,1.6c1.9,2.9,4,5.7,6.5,8.4
			C363.6,365,363.6,361.7,363.6,358.2z"/>
		<path class="st3" d="M162.6,376.6c0-6.3,0-12.3,0-18.6c3,0,5.9-0.2,8.8,0.1c4.5,0.5,7.3,4.4,7.2,9.4c-0.1,5.1-2.9,8.7-7.6,9.1
			C168.4,376.8,165.7,376.6,162.6,376.6z M166.3,373c2.9,0.3,5.8,0.7,7.6-2.2c1.3-2,1.2-5.7-0.3-7.5c-2.1-2.5-4.8-1.7-7.4-1.6
			C166.3,365.7,166.3,369.3,166.3,373z"/>
		<path class="st3" d="M470.2,368.5c0-3.5,0-6.8,0-10.2c1.2-0.6,2.3-0.3,3.5-0.2c0,6.1,0,12.1,0,18.3c-1.7,0.7-3,0.3-4.2-1.5
			c-1.9-3-4.1-5.9-6.7-8.7c0,3.4,0,6.8,0,10.1c-1.3,0.5-2.4,0.4-3.6,0.1c0-6,0-12.1,0-18.2c1.9-0.8,3.2-0.3,4.3,1.5
			c1.5,2.5,3.3,4.8,5,7.2C468.9,367.4,469.1,368.2,470.2,368.5z"/>
		<path class="st3" d="M277.9,366.4c0,3.3,0,6.6,0,9.9c-1.3,0.7-2.4,0.5-3.7,0.2c0-6.1,0-12.1,0-18.2c2-0.8,3.3-0.2,4.4,1.6
			c1.9,2.9,4,5.7,6,8.6c0.2-0.1,0.4-0.1,0.6-0.2c0-3.4,0-6.7,0-10c1.3-0.4,2.3-0.3,3.5-0.1c0,6.1,0,12.2,0,18.3
			c-1.8,0.7-3.1,0.2-4.1-1.5c-1.9-3-4.1-5.9-6.2-8.8C278.3,366.2,278.1,366.3,277.9,366.4z"/>
		<path class="st3" d="M271.3,368c0,6.3-6.1,10.9-12,8.4c-3.5-1.5-5.2-4.4-5.5-8.1c-0.3-4.1,1-7.6,4.8-9.7c3-1.7,6.2-1.4,9,0.6
			C270.2,361.2,271.3,364,271.3,368z M257.5,367.2c0,1,0.1,2,0.5,2.9c0.9,2.1,2.5,3.2,4.6,3.2c2.1-0.1,3.8-1.3,4.4-3.4
			c0.3-0.9,0.5-2,0.5-2.9c-0.1-3.2-2.4-5.7-5.1-5.7C259.7,361.3,257.6,363.9,257.5,367.2z"/>
		<path class="st3" d="M124.1,358c2.4,0,4.6,0,6.8,0c2.8,0,5.3,0.9,6.3,3.7c1.1,2.9,0.9,5.7-1.4,8.1c-0.3,0.3-0.6,0.6-1.1,1.1
			c1,1.8,2,3.6,3.1,5.4c-1.3,0.9-2.5,0.2-3.6,0.4c-1.1-1.8-2.1-3.4-3-5c-1.2-0.2-2.2-0.2-3.5,0c0,1.6,0,3.1,0,4.6
			c-1.3,0.7-2.4,0.3-3.5,0.3C124.1,370.3,124.1,364.2,124.1,358z M127.7,361.5c-0.1,2.3-0.2,4.2,0.1,6.5c2.1-0.3,4.2,0.8,5.7-1.3
			c0.8-1.2,0.9-2.7,0-3.9C132,361,129.9,361.4,127.7,361.5z"/>
		<path class="st3" d="M103.4,367.3c0-6.6,5-10.9,11-9.4c4.5,1.1,7.3,6,6.4,11.2c-0.9,5.1-4.6,8.3-9.4,8
			C106.8,376.7,103.4,372.6,103.4,367.3z M117.3,367.2c-0.1-3.3-2.4-6-5.2-5.9c-2.8,0.1-5.1,2.8-5,6.1c0,3.5,2.3,6,5.3,5.9
			C115.2,373.2,117.3,370.6,117.3,367.2z"/>
		<path class="st3" d="M77.3,370.9c1.1,1.9,2.1,3.6,3.2,5.4c-3.2,1-3.2,1-6.8-4.5c-1-0.3-2.1-0.2-3.4,0c0,1.5,0,3,0,4.5
			c-1.3,0.7-2.4,0.4-3.7,0.3c0-6.1,0-12.2,0-18.5c2.9,0,5.9-0.4,8.8,0.1c4.7,0.8,6.7,6.9,3.7,10.8C78.6,369.7,78,370.2,77.3,370.9z
			 M70.3,361.5c-0.1,2.1-0.3,4.1,0.1,6.2c4.6,0.5,6-0.1,6.2-2.8C76.8,362.2,75.2,361.3,70.3,361.5z"/>
		<path class="st3" d="M403.1,360.6c-0.6,1.1-1.2,1.8-2.1,2.6c-1.5-0.9-3-2.3-5.1-1.8c-1.2,0.2-2.2,0.7-3.1,1.7
			c-1.7,2-1.8,6-0.3,8.2c1.5,2.1,3.5,2.6,6.6,1.4c0.6-1.6,0-3.4,0.4-5.2c0.9-0.7,2-0.2,3.4-0.4c0,2.5,0,4.7,0,6.9
			c0,1.1-1,1.5-1.7,1.9c-5.5,3.1-11.7,0.4-13.3-5.8c-1.5-6,1.8-11.6,7.4-12.4C398.3,357.3,400.9,358.2,403.1,360.6z"/>
		<path class="st3" d="M221.1,358.1c1.5-0.2,2.5-0.2,3.9,0c2.3,5.9,4.6,12,7,18.2c-1.3,0.6-2.4,0.4-3.5,0.3c-1-1.1-0.9-2.6-1.9-3.8
			c-2.3,0-4.6,0-7,0c-1,1-0.9,2.5-1.8,3.7c-1,0.2-2.2,0.3-3.6-0.1C216.5,370.3,218.8,364.2,221.1,358.1z M223.1,362.5
			c-1.1,2.4-1.9,4.4-2.4,6.8c1.6,0,3.1,0.2,4.8-0.2C224.7,366.9,223.9,364.9,223.1,362.5z"/>
		<path class="st3" d="M295.9,372.8c-0.5,1.3-1,2.5-1.5,3.7c-1.2,0.2-2.3,0.3-3.7-0.1c2.4-6.2,4.7-12.3,7-18.3
			c1.4-0.4,2.5-0.3,3.9,0c2.3,6,4.6,12,7,18.2c-1.3,0.5-2.5,0.3-3.7,0.2c-0.5-1.3-1-2.5-1.6-3.8
			C300.8,372.8,298.5,372.8,295.9,372.8z M299.7,362.4c-1,2.6-2,4.6-2.3,6.9c1.6,0.1,3,0.3,4.5-0.1
			C301.5,367,300.6,365.1,299.7,362.4z"/>
		<path class="st3" d="M181.2,358.3c1.5-0.5,2.5-0.2,3.9-0.2c0,3.3,0,6.3,0,9.4c0,1.2,0,2.4,0.4,3.5c0.5,1.5,1.5,2.4,3.2,2.4
			c1.7,0,2.7-0.9,3.2-2.4c0.5-1.4,0.3-2.9,0.3-4.3c0-2.7,0-5.4,0-8.2c1.2-0.5,2.2-0.3,3.6-0.2c-0.1,4.5,0.5,9-0.3,13.5
			c-0.6,3.4-3.2,5.3-6.6,5.4c-3.6,0.1-6.2-1.7-7.1-5.1C180.7,367.5,181.6,362.9,181.2,358.3z"/>
		<path class="st3" d="M387.2,376.6c-1.6,0-2.5,0-3.6,0c-1.1-0.9-0.9-2.5-1.9-3.8c-2.2-0.3-4.7-0.1-7.2-0.1
			c-0.5,1.3-1.1,2.5-1.6,3.8c-1.1,0-2.2,0-3.7,0c2.4-6.3,4.7-12.4,7-18.4c1.4-0.3,2.5-0.3,3.9,0
			C382.4,364.2,384.7,370.2,387.2,376.6z M378.2,362.5c-1.1,2.4-2,4.4-2.4,6.8c1.6,0,3.1,0,4.8,0C379.8,367,379.1,364.9,378.2,362.5
			z"/>
		<path class="st3" d="M63,359.2c-0.2,1.2-0.4,2.1-1.1,3.1c-1.5-0.5-3-1.4-4.8-1.1c-1.2,0.1-2.2,0.4-2.5,1.7
			c-0.3,1.4,0.8,1.9,1.9,2.2c1,0.3,2.1,0.6,3.1,1c3.3,1.1,4.5,2.7,4.2,5.7c-0.2,2.6-2.3,4.8-5.1,5.2c-2.9,0.4-5.6-0.1-8-2.1
			c0.2-1.1,0.4-2.1,1.3-3c1.4,0.5,2.6,1.3,4,1.5c0.9,0.1,1.8,0.1,2.7-0.1c0.8-0.2,1.3-0.7,1.4-1.5c0.1-0.9-0.2-1.6-1.1-1.9
			c-1.5-0.5-2.9-0.9-4.4-1.5c-2.7-1-4-2.9-3.7-5.4c0.2-2.6,1.9-4.5,4.5-5.2C58,357.2,60.5,357.7,63,359.2z"/>
		<path class="st3" d="M455.5,361.4c-2.6,0-5.2,0-8,0c0,1.4,0,2.7,0,4.1c2.4,0,4.7,0,7,0c0.7,1.1,0.3,2.1,0.4,3.2
			c-2.4,0.6-4.8,0.1-7.2,0.4c-0.7,1.2-0.1,2.6-0.4,4.1c3,0,5.8,0,8.5,0c0.5,1.2,0.3,2.2,0.2,3.3c-4,0-8.1,0-12.3,0
			c0-6.1,0-12.1,0-18.3c3.9,0,7.7,0,11.7,0C456,359.1,455.9,360.1,455.5,361.4z"/>
		<path class="st3" d="M418.3,358.1c0.2,1.1,0.3,2-0.1,3.1c-2.5,0.5-5.2,0-7.9,0.3c-0.5,1.3-0.3,2.5-0.2,3.8c2.4,0.6,4.7,0,7.1,0.4
			c0.4,1,0.3,1.9,0,3.2c-2.3,0-4.6,0-7,0c-0.3,1.5-0.2,2.7-0.1,4.1c2.8,0.5,5.6-0.1,8.3,0.3c0.5,1,0.3,2,0.1,3.2c-4,0-7.9,0-12.1,0
			c0-6,0-12.1,0-18.4C410.4,358.1,414.2,358.1,418.3,358.1z"/>
		<path class="st3" d="M151,361.7c0,1.4,0,2.4,0,3.6c2.4,0.6,4.8,0,7.1,0.4c0.5,0.9,0.2,1.9,0.2,3c-2.4,0.6-4.8-0.1-7.2,0.4
			c-0.3,1.4-0.2,2.6-0.1,4c2.9,0,5.6,0,8.3,0c0.7,1.2,0.3,2.3,0.3,3.4c-4.1,0-8,0-12.1,0c0-6.1,0-12.2,0-18.4c3.9,0,7.8,0,11.6,0
			c0.6,1,0.2,2,0.2,3C156.5,361.8,153.8,361,151,361.7z"/>
		<path class="st3" d="M214,360.9c-0.8,0.9-1.3,1.8-2.2,2.3c-3.4-2.4-5.9-2.4-7.9-0.1c-1.9,2.2-1.8,6.4,0.1,8.6
			c1.9,2.2,4.5,2.1,7.8-0.3c0.9,0.6,1.5,1.4,2.1,2.3c-3.8,4.8-10.5,4.5-13.7-0.7c-3.3-5.5-1.2-14.3,6-15.2
			C209.4,357.3,211.9,358.2,214,360.9z"/>
		<path class="st3" d="M90.1,358.1c4,0,7.8,0,11.8,0c0.3,1.1,0.3,2.1,0,3.4c-2.6,0-5.2,0-7.8,0c-0.7,1.6-0.2,3-0.4,4.5
			c2.4,0.8,4.8,0,7.1,0.5c0.5,1,0.4,2.1,0.1,3.4c-2.3,0-4.6,0-7.2,0c0,2.4,0,4.5,0,6.6c-1.4,0.5-2.4,0.3-3.6,0.2
			C90.1,370.4,90.1,364.4,90.1,358.1z"/>
		<path class="st3" d="M231.1,358.1c4.8,0,9.2,0,13.6,0c0.7,1,0.4,2,0.2,3.1c-1.4,0.7-3,0-4.8,0.6c0,4.8,0,9.8,0,14.7
			c-1.5,0.5-2.6,0.3-4,0.2c0-5.1,0-9.9,0-14.9c-1.7-0.6-3.3-0.1-4.7-0.4C230.9,360.3,231.2,359.3,231.1,358.1z"/>
		<path class="st3" d="M484.8,361.7c0,4.9,0,9.8,0,14.7c-1.4,0.3-2.5,0.3-3.8,0c0-4.9,0-9.8,0-14.6c-1.6-0.9-3.2-0.1-4.9-0.7
			c-0.4-0.9-0.2-1.9-0.1-3.1c4.6,0,9.1,0,13.7,0c0.4,1,0.3,2,0.1,3C488.3,361.8,486.7,361.1,484.8,361.7z"/>
		<path class="st3" d="M313.9,373.2c2.9,0,5.5,0,8,0c0.3,1.2,0.2,2.1,0.1,3.3c-3.9,0-7.6,0-11.6,0c0-6.1,0-12.2,0-18.3
			c1.2-0.3,2.2-0.4,3.5,0.1C313.9,363.1,313.9,368,313.9,373.2z"/>
		<path class="st3" d="M250.8,376.5c-1.2,0.4-2.2,0.3-3.5,0.1c0-6.1,0-12.2,0-18.4c1.1-0.3,2.2-0.3,3.5-0.1
			C250.8,364.2,250.8,370.3,250.8,376.5z"/>
		<path class="st3" d="M47.7,376.7c-1.2,0.1-2.3,0.1-3.4-0.1c0-6.2,0-12.2,0-18.3c1.1-0.5,2.2-0.1,3.4-0.3
			C47.7,364.2,47.7,370.3,47.7,376.7z"/>
	</g>
	<g>
		<path class="st3" d="M80.9,325.7c-4.4,3.8-12.1,3.9-16.1,0.2c-2,2.6-4.9,2.6-7.8,2.5c-3.6-0.1-7.1-0.1-10.7,0
			c-3.3,0.1-5.9-0.7-7-4.3c-3.4,2.1-6.8,2.3-10.4,1.5c-1.9-0.5-3.6-1.3-4.9-2.8c-3.5-4.1-3.6-8.8-2-13.6c1.4-4.4,4.9-6.4,9.3-6.8
			c2.4-0.2,4.9,0,7,0c1.2-1,0.4-2.1,1-3c1.9-0.5,3.9-0.2,5.9-0.2c0.9,0.8,0.6,1.6,0.6,2.4c0,5.5,0,10.9,0,16.4
			c0,3.9,0.5,4.4,4.4,4.4c1.6,0,3.3,0,4.9,0c3,0,3.6-0.6,3.7-3.7c0-4.2,0-8.4,0-12.6c0-0.7,0-1.4,0-2.3c2.2-0.8,4.3-0.4,6.5-0.3
			c0.8,1.7,0.3,3.5,0.4,5.2c0.1,3.1,0,6.2,0,9.3c0,0.8-0.1,1.7,0.4,2.4c2,3,5.2,2,8,2.1c2.1,0.1,3-1.4,3.5-3.2
			c0.4-1.4,0.3-2.9,0.3-4.3c0.1-4.5,1.2-8.6,5.5-10.9c4.6-2.4,9.5-2.4,14.1,0.1c3.3,1.8,4.7,5,5,8.6c0.2,1.7,0.1,3.5,0.2,5.2
			c0.2,3.3,1.5,4.5,4.8,4.5c1.4,0,2.7,0,4.1,0c2.5,0,3.2-0.6,3.4-3.2c0.2-2.9,0.1-5.8,0.1-8.7c0-2.2,0-4.3,0-6.7
			c2.2-0.8,4.4-0.4,6.8-0.3c0,4.5,0,8.8,0,13.2c0,4.6,1.1,5.7,5.8,5.7c6,0,6,0,6-5.9c0-8.6,0-17.3,0-25.9c0-0.9,0-1.8,0-2.8
			c2.3-0.6,4.4-0.3,6.5-0.2c0.8,1,0.5,2.1,0.5,3c0,9.1,0,18.2,0,27.3c0,2.7,0.8,4.1,3.1,4.3c4.8,0.5,9.6,0.5,14.3-0.1
			c0.5-1.4-0.2-2.3-0.7-3.2c-1.1-2.2-2.9-3.9-5-5.4c-2.2-1.6-3.2-4.3-2.4-6.8c0.3-0.9,1.1-1.4,1.9-1.8c6.2-2.8,12.7-3.5,19.1-1.3
			c5,1.7,7,6.7,5.1,11.8c-1,2.7-2.9,4.7-5.2,7c4.9,0,9.4,0.1,13.8,0c2.1,0,2.4-1.7,2.4-3.3c0-4.4,0-8.7,0-13.1c0-0.6,0-1.3,0-2.1
			c2.1-1,4.3-0.4,6.3-0.4c0.9,0.6,0.6,1.4,0.6,2.1c0,4.1,0,8.2,0,12.3c0,3,1.3,4.5,4.2,4.5c7.9,0.1,7.6,0.8,7.6-6.8
			c0-8.3,0-16.6,0-24.8c0-1-0.2-2,0.4-3.1c2.1-0.3,4.2-0.3,6.2,0c0.4,0.7,0.3,1.4,0.3,2c0,10.5,0,20.9,0,31.4c0,0.9-0.1,1.8-0.3,2.7
			c-0.6,3.2-2.5,4.7-5.7,4.8c-2.5,0.1-5.1,0-7.7,0c-2.3,0-4.3-0.5-6-2.6c-2.1,2.6-5,2.7-7.9,2.6c-4.7-0.1-9.5-0.2-14.2,0
			c-2.9,0.1-5.6-1.7-8.1-1.4c-2.7,0.3-5.4,1.4-8.3,1.3c-2.8-0.1-5.6-0.1-8.5,0c-2.6,0.1-4.9-0.4-6.6-2.4c-4.4,3.5-14.6,3.5-18.9,0
			c-4.2,3.6-16.3,3.4-21.3-0.4c-2.6,2.4-5.9,3.4-9.4,3.3C86.8,329,83.6,328.3,80.9,325.7z M84.7,316.3c0,0.2,0.1,0.9,0.3,1.6
			c0.6,3.4,2.2,4.8,5.5,4.8c3,0,4.6-1.5,5.3-4.7c0.4-1.9,0.3-3.8-0.2-5.6c-0.9-3-3.1-4.4-6.2-3.8C86.1,309.2,84.6,311.5,84.7,316.3z
			 M39,308.5c-2.1,0-3.9-0.1-5.7,0c-4,0.4-5.5,2.3-5.4,6.3c0.1,2.9,1.6,4.7,4.3,5c3.4,0.4,5.4-0.8,6.3-3.7
			C39.4,313.7,38.9,311.3,39,308.5z M157.2,309.8c3.9,2.7,6,6.3,7.4,10.5c2.5-1.5,4.1-3.4,4.9-5.9c0.9-2.8-0.3-4.9-3.1-5.5
			C163.5,308.2,160.6,308.4,157.2,309.8z"/>
		<path class="st3" d="M452.6,325.1c-2,2.8-4.8,3.4-7.8,3.4c-5.5,0-11,0.4-16.4-0.1c-5.2-0.4-10.3,0.4-15.4,0.1
			c-1.8-0.1-3.7,0-5.4-1.4c-0.8,4.5-0.3,9.3-4.6,12.1c-2.1,1.4-5.1,1.8-9,1.1c-0.6-0.9-0.3-1.9-0.3-2.9c0-0.9-0.2-1.8,0.2-2.6
			c0.2-0.1,0.3-0.3,0.5-0.3c4.8-0.3,5.9-1.4,5.9-6.4c0-7.3,0-14.5,0-21.8c0-0.9-0.3-1.8,0.4-2.8c1.9-0.4,4-0.1,5.8-0.1
			c0.9,0.8,0.7,1.7,0.7,2.5c0,4.1,0,8.2,0,12.3c0,1.6,0.4,2.9,1.9,3.6c2.5,1.1,5.2,0.8,7.8,0.4c1.7-0.3,1.9-2.3,1.9-3.9
			c0-4,0.1-8,0.1-12c0-0.9,0-1.8,0-2.8c2.2-0.7,4.2-0.4,6.1-0.3c0.9,0.5,0.4,1.5,1,2c0.3-0.1,0.6,0,0.8-0.1c5.1-2.1,10.4-3.4,16-2.5
			c7,1.1,10.8,5.1,11.4,12.1c0,0.3,0,0.5,0,0.8c0.2,6.1,2.5,8,8.6,6.8c1.9-0.4,3.1-2,3.2-4.5c0.2-2.2,0-4.3,0.5-6.5
			c1-4.8,3.8-7.7,8.6-8.7c2.3-0.5,4.5-0.5,6.8,0c4.3,0.8,7.2,3.3,8.4,7.6c1,3.7,1.1,7.4,0,11c-1.2,4-3.8,6.5-7.9,7.4
			c-4.7,0.9-9.2,0.6-13.3-2.8c-2.2,2.5-5.1,2.8-8.3,2.8C457.5,328.5,454.5,328.2,452.6,325.1z M425.7,322.4c4.9,0,9.5,0,14.2,0
			c6.3,0,7.3-1,6.9-7.3c0-0.4,0-0.7-0.1-1.1c-0.5-2.8-2.2-4.6-5-5.1c-5.7-1.1-10.9,0.5-15.9,3C425.7,315.4,425.7,318.7,425.7,322.4z
			 M473,315.7c0,0.5,0,0.9,0,1.4c0.2,3.9,1.9,5.7,5.4,5.7c3.5,0,5.3-1.8,5.6-5.6c0.1-1.6,0.2-3.2-0.4-4.8c-0.8-2.5-2.7-3.9-5.3-3.9
			c-2.5,0-4.2,1.3-5,3.8C473,313.3,473,314.5,473,315.7z"/>
		<path class="st3" d="M362.1,287.5c0,5.9,0,11.7,0,17.4c0,4.3,0,8.6,0,12.8c0,3.3,1.3,4.6,4.6,4.6c0.2,0,0.4,0,0.5,0
			c3.9,0,4.3-0.3,4.3-4.1c0-9.2,0-18.4,0-27.6c0-1-0.2-2,0.4-3.1c2-0.4,4.1-0.3,6.2,0c0.5,0.8,0.3,1.5,0.3,2.3c0,10.5,0,20.9,0,31.4
			c0,4.5-2.1,7.7-7.3,7.3c-1.4-0.1-2.7,0-4.1,0c-3.1,0-3.5-0.2-5.9-2.5c-1.9,2.2-4.4,2.5-7.1,2.5c-7.7-0.1-15.5,0-23.2,0
			c-0.9,0-1.8,0.2-2.8-0.3c-0.3-1.8-0.3-3.7,0.1-5.8c3.6,0,7.2,0,11.1,0c0-8.9,0-17.5,0-26.2c2.4-0.5,4.5-0.4,6.8,0
			c0,8.7,0,17.3,0,26c2.4,0.5,4.6,0.2,6.7,0.2c1.4,0,2.1-0.9,2.2-2.3c0.1-1.4,0.2-2.9,0.2-4.4c0-8.4,0-16.7,0-25.1c0-1,0-2,0-3.2
			C357.6,287.3,359.6,287.3,362.1,287.5z"/>
		<path class="st3" d="M243.2,315.8c0-0.8-0.1-1.6,0-2.4c0.6-7.1,5-11,12.3-11.1c7.4-0.1,11.9,3.8,12.6,11.1c0.1,1,0.1,2,0.1,3
			c-0.1,10.5-9.8,16.1-19.2,11.2C244.2,325.1,243.2,320.7,243.2,315.8z M261.2,315.5c0.1-1.1-0.1-2.5-0.6-3.9
			c-0.6-1.5-1.7-2.5-3.4-2.9c-3.3-0.8-5.9,0.6-6.8,3.7c-1.4,4.6,0.1,9.1,3.3,10.1c0.3,0.1,0.7,0.2,1.1,0.2
			C259,323.3,261.2,320.9,261.2,315.5z"/>
		<path class="st3" d="M299.4,328.5c0-2.2,0-3.9,0-5.5c0.6-0.8,1.4-0.6,2.1-0.6c3.5,0,6.9,0,10.4,0c3-0.1,3.9-0.9,4.1-3.9
			c0.1-1.7,0.1-3.5,0-5.2c-0.2-2.8-1.5-4-4.2-4.6c-1.7-0.3-3.4-0.3-5.2-0.3c-1.4,0-2.9,0-4.4,0c-0.3-2.1-0.2-3.9-0.1-5.5
			c0.5-0.7,1.2-0.7,1.8-0.6c3.6,0.1,7.3-0.3,10.9,0.3c4.8,0.8,7.6,3.8,8,8.6c0.3,3.3,0.2,6.5,0,9.8c-0.4,5.1-3,7.5-8.1,7.5
			C309.6,328.5,304.6,328.5,299.4,328.5z"/>
		<path class="st3" d="M218.8,287.3c1.9,0,3.5,0,5.1,0c0.5,0,0.9,0,1.4,0.5c0,13.3,0,26.8,0,40.5c-2.2,0.3-4.3,0.2-6.5,0.1
			C218.8,314.8,218.8,301.3,218.8,287.3z"/>
		<path class="st3" d="M269,340.6c0-2.1,0-3.9,0-5.6c0.5-0.7,1.1-0.6,1.6-0.6c3.8-0.2,5-1.4,5-5.2c0-7.6,0-15.3,0-22.9
			c0-0.9-0.3-1.8,0.4-2.8c1.9-0.3,4-0.2,5.9,0c0.8,0.8,0.6,1.6,0.6,2.4c0,7.7,0,15.5,0,23.2c0,1.1-0.1,2.2-0.2,3.3
			c-0.7,5.1-3.8,8-8.9,8.3C272.1,340.7,270.7,340.6,269,340.6z"/>
		<path class="st3" d="M294.4,328.3c-2.2,0.4-4.2,0.2-6.5,0.1c0-13.6,0-27.1,0-40.7c2.1-0.6,4.2-0.3,6.5-0.2
			C294.4,301.2,294.4,314.7,294.4,328.3z"/>
		<path class="st3" d="M349.1,335.2c-0.6,0.9-1.2,1.5-2,1.9c-0.7,0-1.1-0.7-1.7-0.9c-1.3-0.5-2.5-0.6-3.5,0.4c-1,1-1,2.2-0.6,3.3
			c0.4,1.2,1.2,2.1,2.8,2.1c1.7,0,3.4-0.2,5.1,0.2c0.4,1,0.4,1.8,0,2.9c-4.4,0-8.8,0-13.2,0c-0.5-0.9-0.3-1.8-0.2-2.6
			c0.4-0.8,1.5-0.1,1.9-0.9c-0.8-4.6,0-6.9,3-8.4C343.5,331.9,346.9,332.7,349.1,335.2z"/>
		<path class="st3" d="M190.3,297.4c-2.2,0-4.1,0-6.1,0c-0.5-2.1-0.4-4.1-0.1-6.2c2.1-0.4,4-0.4,6.1-0.1
			C190.5,293.2,190.2,295.1,190.3,297.4z"/>
		<path class="st3" d="M255.1,297.4c-2.2,0.1-4.2,0.2-6.2-0.1c-0.3-2.1-0.3-4,0-6.1c2.1-0.6,4.1-0.4,6.2-0.1
			C255.3,293.2,255.2,295.1,255.1,297.4z"/>
		<path class="st3" d="M33.2,288.4c0.4,2.4,0.2,4.3,0.2,6.4c-2.1,0.5-4,0.2-6.2,0.2c-0.4-2.1-0.2-4.2-0.1-6.3
			C29.1,288.1,31.1,288.6,33.2,288.4z"/>
		<path class="st3" d="M41.2,294.9c-2.2,0-4.2,0-6.3,0c0-2.1,0-4.1,0-6.2c2-0.6,4-0.4,6.1-0.1C41.4,290.7,41.2,292.7,41.2,294.9z"/>
		<path class="st3" d="M256.7,297.4c-0.4-2.2-0.3-4.1-0.2-6.1c2.1-0.6,4.1-0.3,6.3-0.2c0.3,2.2,0.2,4.1,0.1,6.2
			C260.8,297.7,258.8,297.4,256.7,297.4z"/>
		<path class="st3" d="M125.2,339.9c-2.1,0.4-4,0.3-6.1,0.1c-0.4-2-0.2-4-0.1-6.1c2-0.8,4-0.2,6-0.4
			C125.6,335.7,125.4,337.8,125.2,339.9z"/>
		<path class="st3" d="M61.2,333.6c0.2,2.4,0.2,4.4,0,6.4c-2.1,0-4,0-6.1,0c-0.4-2-0.1-4.1-0.2-6.1C57.1,333.2,59,333.6,61.2,333.6z
			"/>
		<path class="st3" d="M111.3,339.9c-0.4-2-0.1-4-0.2-6c2.1-0.5,4.1-0.4,6.1-0.2c0.4,2.1,0.3,4.1,0,6.3
			C115.3,340.1,113.3,340.2,111.3,339.9z"/>
		<path class="st3" d="M191.8,297.3c0-2.1,0-4,0-6.1c2-0.5,3.9-0.3,6-0.1c0.6,2,0.1,4,0.3,6C196,297.7,194,297.5,191.8,297.3z"/>
		<path class="st3" d="M62.8,339.9c0-2.1,0-4.1,0-6.1c2.1-0.4,4.1-0.5,6.3,0c0,2.1,0,4,0,6.1C66.9,339.9,65,339.9,62.8,339.9z"/>
	</g>
</g>
</svg>
