<?xml version="1.0" encoding="utf-8"?>
<!-- Generator: Adobe Illustrator 25.3.0, SVG Export Plug-In . SVG Version: 6.00 Build 0)  -->
<svg version="1.1" id="Layer_1" xmlns="http://www.w3.org/2000/svg" xmlns:xlink="http://www.w3.org/1999/xlink" x="0px" y="0px"
	 viewBox="0 0 800 289.8" style="enable-background:new 0 0 800 289.8;" xml:space="preserve">
<style type="text/css">
	.st0{fill:#221E59;}
	.st1{fill:#DAA84D;}
	.st2{fill:#FFFEF4;}
	.st3{fill:#BFD4FF;}
	.st4{fill:#EEF6EC;}
	.st5{fill:#A8262A;}
	.st6{fill:#C12328;}
	.st7{fill:none;stroke:#CDA349;stroke-width:2;stroke-linecap:round;stroke-linejoin:round;stroke-miterlimit:10;}
	.st8{fill:none;stroke:#CDA349;stroke-linecap:round;stroke-linejoin:round;stroke-miterlimit:10;}
	.st9{fill:#CDA349;}
</style>
<g>
	<g>
		<path class="st0" d="M103.8,246.2h33.9v15.1H85.6v-69.2h50.9v15.1h-32.7V246.2z M102.5,218.9h30.1v14.6h-30.1
			C102.5,233.5,102.5,218.9,102.5,218.9z"/>
		<path class="st0" d="M150.1,261.3v-69.2h30.7c7.2,0,13.5,1.4,18.9,4.3c5.4,2.8,9.7,6.8,12.7,12c3.1,5.1,4.6,11.3,4.6,18.4
			s-1.5,13.2-4.6,18.3c-3.1,5.2-7.3,9.2-12.7,12s-11.7,4.3-18.9,4.3L150.1,261.3L150.1,261.3z M168.5,245.7h11.6
			c3.7,0,6.9-0.7,9.7-2.2c2.7-1.5,4.9-3.7,6.4-6.5c1.5-2.9,2.3-6.3,2.3-10.2c0-4-0.8-7.4-2.3-10.3c-1.5-2.8-3.7-5-6.4-6.5
			c-2.8-1.5-6-2.2-9.7-2.2h-11.6V245.7z"/>
		<path class="st0" d="M258.9,262.7c-9.6,0-17.1-2.8-22.4-8.4c-5.4-5.6-8.1-13.5-8.1-23.8v-38.4h18.4v37.8c0,5.9,1.1,10.2,3.3,12.8
			s5.2,3.9,9,3.9s6.8-1.3,9-3.9s3.2-6.8,3.2-12.8v-37.8h18.1v38.4c0,10.3-2.7,18.2-8.1,23.8C275.9,259.9,268.4,262.7,258.9,262.7z"
			/>
		<path class="st0" d="M304,261.3v-69.2h15.1l26.9,47.1h-8l26.1-47.1h15.1l0.2,69.2h-16.9l-0.2-41.8h2.9l-19.6,35h-8.2l-20.1-35h3.5
			v41.8H304z"/>
		<path class="st0" d="M386.8,261.3l28.6-69.2h18.1l28.7,69.2h-19.1l-22.4-59.6h7.2l-22.4,59.6H386.8L386.8,261.3z M402.5,247.8
			l4.7-14.4h31.7l4.7,14.4H402.5z"/>
		<path class="st0" d="M492.5,262.7c-5.3,0-10.4-0.7-15.3-2.1s-8.9-3.2-12-5.5l6-14.4c2.9,2,6.3,3.6,10.1,4.9
			c3.8,1.3,7.6,1.9,11.4,1.9c2.5,0,4.6-0.2,6.1-0.7s2.7-1.2,3.4-2c0.7-0.8,1.1-1.8,1.1-2.9c0-1.6-0.7-2.8-2-3.8
			c-1.4-0.9-3.1-1.7-5.3-2.3c-2.2-0.6-4.6-1.2-7.2-1.8s-5.3-1.4-7.9-2.3s-5-2.1-7.2-3.6s-3.9-3.4-5.3-5.8s-2-5.5-2-9.1
			c0-4.2,1.1-7.9,3.2-11.3c2.1-3.4,5.3-6.1,9.6-8.1c4.3-2,9.6-3.1,15.9-3.1c4.3,0,8.4,0.5,12.6,1.5c4.1,1,7.8,2.5,11,4.5l-5.7,14.5
			c-3.1-1.8-6.1-3.1-9.2-4c-3-0.9-6-1.3-8.8-1.3c-2.5,0-4.6,0.3-6.1,0.8c-1.5,0.6-2.7,1.3-3.3,2.2c-0.7,0.9-1,2-1,3.2
			c0,1.5,0.7,2.7,2,3.6s3.1,1.6,5.3,2.2c2.2,0.6,4.6,1.1,7.2,1.7s5.3,1.3,7.9,2.2s5,2.1,7.2,3.6s3.9,3.4,5.2,5.8s2,5.4,2,9
			c0,4-1.1,7.7-3.2,11.1c-2.1,3.4-5.3,6.1-9.5,8.2C504.2,261.6,498.9,262.7,492.5,262.7z"/>
		<path class="st0" d="M545.7,261.3v-53.7h-19.9v-15.5h58.1v15.5H564v53.7H545.7z"/>
		<path class="st0" d="M611.1,246.2H645v15.1h-52v-69.2h50.9v15.1h-32.7v39H611.1L611.1,246.2z M609.8,218.9h30.1v14.6h-30.1V218.9z
			"/>
		<path class="st0" d="M657.5,261.3v-69.2h29.7c5.9,0,11,1,15.3,3.1c4.3,2,7.6,5,10,8.9c2.3,3.9,3.5,8.4,3.5,13.7
			c0,5.2-1.2,9.7-3.5,13.5s-5.7,6.7-10,8.7s-9.4,3-15.3,3h-19.5l8.2-8.2v26.6h-18.4V261.3z M675.8,236.8l-8.2-9H686
			c3.8,0,6.7-0.9,8.6-2.7s2.8-4.3,2.8-7.4c0-3.2-0.9-5.7-2.8-7.5c-1.9-1.8-4.7-2.7-8.6-2.7h-18.4l8.2-9V236.8z M697.6,261.3
			l-16.1-25.2H701l16.2,25.2H697.6z"/>
	</g>
</g>
<g>
	<path class="st1" d="M466.5,170.8h-131c-0.4,0-0.6-0.3-0.6-0.6v-15c0-0.4,0.3-0.6,0.6-0.6h131c0.4,0,0.6,0.3,0.6,0.6v15
		C467.2,170.5,466.9,170.8,466.5,170.8z"/>
	<g>
		<circle class="st0" cx="401" cy="102.6" r="13.8"/>
		<g>
			<g>
				<path class="st0" d="M410.7,87.3L410.7,87.3c0.1-14.3,7.7-25.9,7.7-25.9c-12.5-9.3-16.5-34-16.5-34l0,0v30.2
					c2.2,0.5,3.9,2.7,3.4,5.1c-0.3,1.7-1.7,3.2-3.4,3.6c-2.9,0.6-5.4-1.6-5.4-4.3c0-2.1,1.5-3.9,3.5-4.3V27.4l0,0
					c0,0-4,24.6-16.5,34c0,0,7.7,11.6,7.7,25.9h0.1c2.8-1.4,6.1-2.3,9.7-2.3S407.9,85.8,410.7,87.3z"/>
			</g>
		</g>
	</g>
	<g>
		<g>
			<g>
				<path class="st1" d="M489.5,90.1L457,99c-0.7,0.2-0.7,1.1,0,1.3c3.9,1,10.5,3.4,8.3,8c-3,6.4-6.8,5.5-11.7,19.5
					c-0.1,0.2-0.3,0.4-0.5,0.4c-2.4,0.3-16,1.4-37.3-11.4c-0.3-0.2-0.7-0.1-0.9,0.2l-8.8,14.2c-0.2,0.3-0.1,0.6,0.1,0.9
					c2.5,2.1,16.7,12.4,60.6,15.4c0.4,0,0.8-0.3,0.7-0.7c-0.3-3.2,0.4-16.7,22.7-55.7C490.6,90.5,490.1,89.9,489.5,90.1z"/>
			</g>
			<path class="st1" d="M312.6,90.1l32.5,8.9c0.7,0.2,0.7,1.1,0,1.3c-3.9,1-10.5,3.4-8.3,8c3,6.4,6.8,5.5,11.7,19.5
				c0.1,0.2,0.3,0.4,0.5,0.4c2.4,0.3,16,1.4,37.3-11.4c0.3-0.2,0.7-0.1,0.9,0.2l8.8,14.2c0.2,0.3,0.1,0.6-0.1,0.9
				c-2.5,2.1-16.7,12.4-60.6,15.4c-0.4,0-0.8-0.3-0.7-0.7c0.3-3.2-0.4-16.7-22.7-55.7C311.5,90.5,312,89.9,312.6,90.1z"/>
		</g>
	</g>
</g>
<path class="st1" d="M334.9,171v-16.8c0-0.4,0.3-0.8,0.8-0.8h130.7c0.4,0,0.8,0.3,0.8,0.8V171c0,0.4-0.3,0.8-0.8,0.8H335.7
	C335.2,171.8,334.9,171.4,334.9,171z"/>
<g>
	<g>
		<path class="st2" d="M80.5,188.9c0.1,0,0.1,0,0.2-0.1c4.2-1.5,11.9-4.7,16-6.8c7.9-3.7,22-6.7,31.2-2.6c5.8,2.6,9.6,7.9,8.9,17.6
			c-12.5-5.3-29.1-3.1-42.5,0.3c-3.8,0.8-10.2,2.9-14.1,5.2c-0.7,0.4-1.4,0.8-1.9,1.3C75.9,199.3,76.3,191.7,80.5,188.9z"/>
	</g>
	<g>
		<path class="st2" d="M74.9,228.4c-0.2,0-0.4,0-0.6,0c-4.3-0.3-7.5-4.2-7.2-8.6c0.3-3.9,3.4-7.1,7.2-7.4c0.2,0,0.4,0,0.7,0
			c0.2,0,0.3,0,0.5,0c1.2,0.1,2.3,0.4,3.3,1.1c2.6,1.6,4.1,4.4,3.9,7.5C82.3,225.2,78.9,228.4,74.9,228.4z"/>
		<path class="st3" d="M74.9,212.9c0.1,0,0.3,0,0.4,0c1.1,0.1,2.2,0.4,3.1,1c2.3,1.4,3.8,4.1,3.6,7c-0.3,3.9-3.5,7-7.3,7
			c-0.2,0-0.4,0-0.5,0c-4-0.3-7-3.9-6.7-8c0.3-3.8,3.2-6.6,6.7-6.9C74.5,212.9,74.7,212.9,74.9,212.9 M74.9,211.9
			c-0.2,0-0.5,0-0.7,0c-4.1,0.3-7.3,3.7-7.6,7.8c-0.3,4.7,3.1,8.7,7.7,9.1c0.2,0,0.4,0,0.6,0c4.3,0,7.9-3.5,8.3-7.9
			c0.2-3.3-1.3-6.3-4.1-8c-1.1-0.7-2.3-1-3.5-1.1C75.3,211.9,75.1,211.9,74.9,211.9L74.9,211.9z"/>
	</g>
	<g>
		<path class="st2" d="M78.1,203.9c-2.5-4.7-2.1-12.4,2.2-15.2l0,0l0.2-0.1c4.2-1.5,11.9-4.7,16-6.8c4.8-2.2,12.8-4.6,20.7-4.6
			c4.2,0,7.8,0.7,10.7,2c6.7,3,9.7,9,9.1,17.9l0,0.3l-0.3-0.1c-4.9-2.1-10.9-3.1-17.8-3.1c-7.2,0-15.5,1.2-24.5,3.4
			c-4,0.9-10.3,3-14,5.2c-0.7,0.4-1.3,0.8-1.8,1.3l-0.2,0.2L78.1,203.9z"/>
		<path class="st3" d="M117.2,177.5c3.8,0,7.5,0.6,10.6,2c5.8,2.6,9.6,7.9,8.9,17.6c-5.4-2.3-11.5-3.2-17.9-3.2
			c-8.4,0-17,1.5-24.6,3.4c-3.8,0.8-10.2,2.9-14.1,5.2c-0.7,0.4-1.4,0.8-1.9,1.3c-2.4-4.5-2.1-12.1,2.1-14.9c0.1,0,0.1,0,0.2-0.1
			c4.2-1.5,11.9-4.7,16-6.8C101.9,179.6,109.8,177.5,117.2,177.5 M117.2,177L117.2,177c-8,0-16,2.4-20.8,4.6
			c-4.1,2.1-11.7,5.3-16,6.8l-0.1,0l-0.1,0l-0.1,0l-0.1,0c-4.4,2.9-4.9,10.7-2.3,15.5l0.3,0.5l0.5-0.4c0.5-0.4,1.1-0.8,1.8-1.2
			c3.7-2.2,10-4.3,13.9-5.1c9.1-2.3,17.3-3.4,24.5-3.4c6.8,0,12.8,1.1,17.7,3.1l0.6,0.3l0-0.7c0.6-9-2.5-15.1-9.2-18.1
			C125,177.6,121.4,177,117.2,177L117.2,177z"/>
	</g>
	<g>
		<path class="st4" d="M81,193.4c2.4-2.1,7.4-3.2,10.4-4.8c5.3-2.4,10.7-4.4,16.1-6.4c9-3.3,24.2-0.9,25.2,7.7
			c-0.7,3-7.1,1.3-10.9,1.2c-5.7-0.3-11.8,0.3-17.6,1.2c-6,1-14.2,4-19.9,6C81.9,199,78.3,196,81,193.4z"/>
	</g>
	<path class="st4" d="M73.9,213.4c0.3,0,0.6,0,0.9,0c0.9,0.1,1.7,0.3,2.4,0.8c1.8,1.1,3,3.2,2.8,5.5c-0.2,3.2-3,5.7-6.1,5.4
		c-3.1-0.2-5.5-3.1-5.3-6.3C68.8,215.9,71.1,213.6,73.9,213.4z"/>
	<path class="st5" d="M82.2,188.3c-0.6,0.2-1.1,0.4-1.6,0.6c-0.1,0-0.1,0-0.2,0.1c-0.5,0.3-0.9,0.7-1.3,1.2c0.7-2.9,1.7-6.2,3.4-8.1
		C81.9,184,81.9,186.1,82.2,188.3z"/>
	<path class="st5" d="M104.9,161.8c-1.9,0-3.8,0.7-5.4,1.7c-6.4,3.9-13.7,8.3-20.8,11.2c-2.1,0.9-4.2,1.6-6.3,2.2
		c5.1-2.6,11.9-6.3,15.6-9.1c3.8-2.8,8.2-6.1,12.6-7.5c13.3-3.9,20.8,8.6,27.3,19c-2.1-0.9-4.5-1.5-7-1.8
		C118.9,170.8,112.1,161.6,104.9,161.8z"/>
	<path class="st6" d="M69.4,178.5c0.9-0.4,1.9-0.9,3-1.5c2.2-0.6,4.2-1.4,6.3-2.2c7.1-2.9,14.4-7.3,20.8-11.2c1.6-1,3.5-1.7,5.4-1.7
		c7.2-0.2,14,9,15.9,15.8c-8.3-0.9-18,1.6-24.1,4.4c-3.6,1.8-10.1,4.6-14.4,6.2c-0.3-2.2-0.3-4.3,0.3-6.3c-1.7,1.9-2.8,5.2-3.4,8.1
		c-2.9,3.3-2.9,9.7-0.8,13.7c0.5-0.4,1.1-0.9,1.9-1.3c-0.1,3.6-0.4,7.4-1.7,11.4c-0.9-0.6-2-0.9-3.1-1c-0.4,0-0.7,0-1.1,0
		c-0.4-2.9-1.3-6.3-2.5-8.4C67.2,196.2,58.2,187,69.4,178.5z M75.3,206.6c0.4,1.4,0.5,2.9,0.4,4.4c0.4-2.1,0.5-3,0.3-5.1
		c-0.7-7.6-7.6-14.2-7.3-21.7C62.8,191.4,73.8,199.6,75.3,206.6z"/>
	<g>
		<path class="st5" d="M68.7,184.2c-0.3,7.4,6.6,14,7.3,21.7c0.2,2.1,0.1,3-0.3,5.1c0.1-1.5,0-3-0.4-4.4
			C73.8,199.6,62.8,191.4,68.7,184.2z"/>
	</g>
</g>
<g>
	<g>
		<polygon class="st7" points="639.9,74.8 641.3,73.8 640,70.7 638.6,73.9 		"/>
		<polygon class="st7" points="636.3,76.9 636.2,75.2 632.8,74.8 634.8,77.6 		"/>
		<polygon class="st7" points="643.5,76.9 645.1,77.6 647.1,74.9 643.7,75.2 		"/>
		<polygon class="st7" points="639.9,83.1 638.5,84.1 639.9,87.2 641.3,84.1 		"/>
		<polygon class="st7" points="643.5,81 643.7,82.8 647,83.1 645,80.4 		"/>
		<polygon class="st7" points="636.3,81 634.8,80.3 632.8,83.1 636.2,82.7 		"/>
	</g>
	<polygon class="st7" points="639.9,67.2 651.7,58.5 650.1,73.1 663.5,79 650.1,84.9 651.7,99.4 639.9,90.8 628.1,99.4 629.7,84.9 
		616.3,79 629.7,73.1 628.1,58.5 	"/>
	<g>
		<line class="st7" x1="639.9" y1="79" x2="639.9" y2="102.6"/>
		<line class="st7" x1="660.4" y1="90.8" x2="639.9" y2="79"/>
		<line class="st7" x1="639.9" y1="79" x2="639.9" y2="55.4"/>
		<line class="st7" x1="660.4" y1="67.2" x2="639.9" y2="79"/>
		<line class="st7" x1="639.9" y1="79" x2="619.5" y2="90.8"/>
		<line class="st7" x1="619.5" y1="67.2" x2="639.9" y2="79"/>
	</g>
	<polyline class="st7" points="636.6,53.6 639.9,55.5 643.2,53.6 	"/>
	<polyline class="st7" points="636.6,58.3 639.9,60.2 643.3,58.3 	"/>
	<polyline class="st7" points="660.2,63.4 660.2,67.3 663.5,69.1 	"/>
	<polyline class="st7" points="656.1,65.8 656.1,69.7 659.5,71.6 	"/>
	<polyline class="st7" points="619.6,63.4 619.6,67.3 616.3,69.1 	"/>
	<polyline class="st7" points="623.7,65.8 623.7,69.7 620.3,71.6 	"/>
	<polyline class="st7" points="660.2,94.5 660.2,90.6 663.5,88.8 	"/>
	<polyline class="st7" points="656.1,92.1 656.1,88.2 659.5,86.3 	"/>
	<polyline class="st7" points="619.6,94.5 619.6,90.6 616.3,88.8 	"/>
	<polyline class="st7" points="623.7,92.1 623.7,88.2 620.3,86.3 	"/>
	<polyline class="st7" points="643.2,104 639.9,102.1 636.6,104 	"/>
	<polyline class="st7" points="643.3,99.3 639.9,97.4 636.6,99.3 	"/>
</g>
<g>
	<g>
		<polygon class="st8" points="162.2,81.8 163.1,81.1 162.2,78.9 161.3,81.1 		"/>
		<polygon class="st8" points="159.8,83.2 159.6,82 157.3,81.7 158.7,83.6 		"/>
		<polygon class="st8" points="164.6,83.2 165.7,83.6 167.1,81.8 164.7,82 		"/>
		<polygon class="st8" points="162.2,87.4 161.2,88.1 162.2,90.2 163.1,88.1 		"/>
		<polygon class="st8" points="164.6,86 164.8,87.1 167,87.4 165.7,85.5 		"/>
		<polygon class="st8" points="159.8,86 158.7,85.5 157.3,87.4 159.6,87.1 		"/>
	</g>
	<polygon class="st8" points="162.2,76.5 170.2,70.6 169.2,80.5 178.3,84.6 169.2,88.6 170.2,98.5 162.2,92.6 154.1,98.5 
		155.2,88.6 146.1,84.6 155.2,80.5 154.1,70.6 	"/>
	<g>
		<line class="st8" x1="162.2" y1="84.6" x2="162.2" y2="100.7"/>
		<line class="st8" x1="176.1" y1="92.6" x2="162.2" y2="84.6"/>
		<line class="st8" x1="162.2" y1="84.6" x2="162.2" y2="68.5"/>
		<line class="st8" x1="176.1" y1="76.5" x2="162.2" y2="84.6"/>
		<line class="st8" x1="162.2" y1="84.6" x2="148.2" y2="92.6"/>
		<line class="st8" x1="148.2" y1="76.5" x2="162.2" y2="84.6"/>
	</g>
	<polyline class="st8" points="159.9,67.3 162.2,68.6 164.5,67.3 	"/>
	<polyline class="st8" points="159.9,70.5 162.2,71.8 164.5,70.5 	"/>
	<polyline class="st8" points="176,74 176,76.6 178.3,77.9 	"/>
	<polyline class="st8" points="173.2,75.6 173.3,78.2 175.5,79.5 	"/>
	<polyline class="st8" points="148.4,74 148.3,76.6 146.1,77.9 	"/>
	<polyline class="st8" points="151.1,75.6 151.1,78.2 148.8,79.5 	"/>
	<polyline class="st8" points="176,95.1 176,92.5 178.3,91.2 	"/>
	<polyline class="st8" points="173.2,93.5 173.3,90.9 175.5,89.6 	"/>
	<polyline class="st8" points="148.4,95.1 148.3,92.5 146.1,91.2 	"/>
	<polyline class="st8" points="151.1,93.5 151.1,90.9 148.8,89.6 	"/>
	<polyline class="st8" points="164.5,101.6 162.2,100.3 159.9,101.6 	"/>
	<polyline class="st8" points="164.5,98.4 162.2,97.1 159.9,98.4 	"/>
</g>
<path class="st9" d="M660.7,169.6l-9.3-4l9.3-4c1-0.4,1.4-1.6,0.9-2.6c-0.5-0.9-1.8-1.2-2.7-0.6l-8.1,6.1l1.2-10.1
	c0.1-1.1-0.7-2-1.8-2c-1.1,0-1.9,1-1.8,2l1.2,10.1l-8.1-6.1c-0.9-0.7-2.1-0.4-2.7,0.6c-0.5,0.9-0.1,2.2,0.9,2.6l9.3,4l-9.3,4
	c-1,0.4-1.4,1.6-0.9,2.6c0.5,0.9,1.8,1.2,2.7,0.6l8.1-6.1l-1.2,10.1c-0.1,1.1,0.7,2,1.8,2c1.1,0,1.9-1,1.8-2l-1.2-10.1l8.1,6.1
	c0.9,0.7,2.1,0.4,2.7-0.6C662.1,171.2,661.7,170,660.7,169.6z"/>
<path class="st9" d="M620.8,288.6c-1,1-2.6,1-3.6,0c-1-1-1-2.6,0-3.6c1-1,2.6-1,3.6,0C621.8,286,621.8,287.6,620.8,288.6z"/>
<path class="st9" d="M744.7,160.7c-0.5-0.6-0.5-1.6,0.2-2.2c0.6-0.5,1.6-0.5,2.2,0.2c0.5,0.6,0.5,1.6-0.2,2.2
	C746.2,161.4,745.2,161.3,744.7,160.7z"/>
<path class="st9" d="M344.4,48c0,1-0.8,1.8-1.8,1.9c-1,0-1.8-0.8-1.9-1.8s0.8-1.8,1.8-1.9C343.5,46.2,344.3,47,344.4,48z"/>
<path class="st9" d="M153.4,134.3c-0.7-0.7-0.7-1.8-0.1-2.6c0.7-0.7,1.8-0.7,2.6-0.1c0.7,0.7,0.7,1.8,0.1,2.6
	C155.3,134.9,154.1,135,153.4,134.3z"/>
<path class="st9" d="M530.8,165.6c0-1.4,1.1-2.6,2.6-2.6c1.4,0,2.6,1.1,2.6,2.6c0,1.4-1.1,2.6-2.6,2.6
	C532,168.2,530.8,167,530.8,165.6z"/>
<path class="st9" d="M247.2,137.4c0.5-0.7,1.4-0.8,2.1-0.4c0.7,0.5,0.8,1.4,0.4,2.1c-0.5,0.7-1.4,0.8-2.1,0.4
	C246.9,139.1,246.7,138.1,247.2,137.4z"/>
<path class="st9" d="M556.5,9.1c0.5-0.7,1.4-0.8,2.1-0.4s0.8,1.4,0.4,2.1c-0.5,0.7-1.4,0.8-2.1,0.4C556.2,10.8,556,9.8,556.5,9.1z"
	/>
<path class="st9" d="M217.4,101.9c1.1,0.9,1.3,2.5,0.4,3.6c-0.9,1.1-2.5,1.3-3.6,0.4c-1.1-0.9-1.3-2.5-0.4-3.6
	C214.7,101.2,216.3,101,217.4,101.9z"/>
<path class="st9" d="M397.3,12.1c-0.1,1-1,1.7-2,1.5c-1-0.1-1.7-1-1.5-2c0.1-1,1-1.7,2-1.5C396.7,10.2,397.4,11.1,397.3,12.1z"/>
<ellipse transform="matrix(0.2777 -0.9607 0.9607 0.2777 18.1262 136.869)" class="st9" cx="100.1" cy="56.4" rx="1.8" ry="1.8"/>
<path class="st9" d="M552.2,108.8c-0.8,0.6-1.9,0.4-2.5-0.4c-0.6-0.8-0.4-1.9,0.4-2.5c0.8-0.6,1.9-0.4,2.5,0.4
	C553.1,107.1,553,108.2,552.2,108.8z"/>
<path class="st9" d="M699.6,115.5c0.5-0.7,1.4-0.8,2.1-0.4c0.7,0.5,0.8,1.4,0.4,2.1c-0.5,0.7-1.4,0.8-2.1,0.4
	S699.1,116.2,699.6,115.5z"/>
<path class="st9" d="M467.6,86c0.5-0.7,1.4-0.8,2.1-0.4s0.8,1.4,0.4,2.1c-0.5,0.7-1.4,0.8-2.1,0.4C467.2,87.6,467.1,86.7,467.6,86z"
	/>
<path class="st9" d="M703.5,51.9c-1.2-0.8-1.4-2.4-0.6-3.6c0.8-1.2,2.4-1.4,3.6-0.6c1.2,0.8,1.4,2.4,0.6,3.6
	C706.3,52.5,704.7,52.8,703.5,51.9z"/>
<path class="st9" d="M53.7,138.9c-1.2-0.8-1.4-2.4-0.6-3.6c0.8-1.2,2.4-1.4,3.6-0.6c1.2,0.8,1.4,2.4,0.6,3.6
	C56.5,139.4,54.9,139.7,53.7,138.9z"/>
<path class="st9" d="M553.2,148.8c-0.7-0.7-0.7-1.8-0.1-2.6c0.7-0.7,1.8-0.7,2.6-0.1c0.7,0.7,0.7,1.8,0.1,2.6
	C555.1,149.4,553.9,149.5,553.2,148.8z"/>
<path class="st9" d="M528.8,64.5c-1.2-1.6-0.9-3.8,0.7-5c1.6-1.2,3.8-0.9,5,0.7c1.2,1.6,0.9,3.8-0.7,5
	C532.2,66.3,529.9,66,528.8,64.5z"/>
<path class="st9" d="M576,134.8c1.1,0.9,1.3,2.5,0.4,3.6c-0.9,1.1-2.5,1.3-3.6,0.4c-1.1-0.9-1.3-2.5-0.4-3.6
	C573.3,134.1,574.9,133.9,576,134.8z"/>
<path class="st9" d="M285.5,74.8c1,0,1.8,0.9,1.8,1.9c0,1-0.9,1.8-1.9,1.8c-1,0-1.8-0.9-1.8-1.9C283.7,75.5,284.5,74.7,285.5,74.8z"
	/>
<path class="st9" d="M206.5,36.2c0.7,0.7,0.6,1.9-0.1,2.6c-0.7,0.7-1.9,0.6-2.6-0.1c-0.7-0.7-0.6-1.9,0.1-2.6
	C204.6,35.4,205.8,35.4,206.5,36.2z"/>
<path class="st9" d="M799.5,156.9c0.7,0.7,0.6,1.9-0.1,2.6c-0.7,0.7-1.9,0.6-2.6-0.1c-0.7-0.7-0.6-1.9,0.1-2.6
	C797.7,156.1,798.8,156.2,799.5,156.9z"/>
<path class="st9" d="M217.8,271.4c-0.7-0.4-1-1.3-0.6-2.1c0.4-0.7,1.3-1,2.1-0.6c0.7,0.4,1,1.3,0.6,2.1
	C219.4,271.6,218.5,271.8,217.8,271.4z"/>
<path class="st9" d="M13.2,201.1c-1.4,1.3-3.7,1.3-5-0.1c-1.3-1.4-1.3-3.7,0.1-5c1.4-1.3,3.7-1.3,5,0.1
	C14.7,197.5,14.6,199.7,13.2,201.1z"/>
</svg>
