<?xml version="1.0" encoding="utf-8"?>
<!-- Generator: Adobe Illustrator 25.3.0, SVG Export Plug-In . SVG Version: 6.00 Build 0)  -->
<svg version="1.1" id="Layer_1" xmlns="http://www.w3.org/2000/svg" xmlns:xlink="http://www.w3.org/1999/xlink" x="0px" y="0px"
	 viewBox="0 0 800 289.8" style="enable-background:new 0 0 800 289.8;" xml:space="preserve">
<style type="text/css">
	.st0{fill:#1A1964;}
	.st1{fill:#DAA84D;}
	.st2{fill:#F7D381;}
</style>
<g>
	<g>
		<path class="st0" d="M103.8,219.2h33.9v15.1H85.6v-69.2h50.9v15.1h-32.7V219.2z M102.5,191.9h30.1v14.6h-30.1
			C102.5,206.5,102.5,191.9,102.5,191.9z"/>
		<path class="st0" d="M150.1,234.3v-69.2h30.7c7.2,0,13.5,1.4,18.9,4.3c5.4,2.8,9.7,6.8,12.7,12c3.1,5.1,4.6,11.3,4.6,18.4
			s-1.5,13.2-4.6,18.3c-3.1,5.2-7.3,9.2-12.7,12s-11.7,4.3-18.9,4.3L150.1,234.3L150.1,234.3z M168.5,218.7h11.6
			c3.7,0,6.9-0.7,9.7-2.2c2.7-1.5,4.9-3.7,6.4-6.5c1.5-2.9,2.3-6.3,2.3-10.2c0-4-0.8-7.4-2.3-10.3c-1.5-2.8-3.7-5-6.4-6.5
			c-2.8-1.5-6-2.2-9.7-2.2h-11.6V218.7z"/>
		<path class="st0" d="M258.9,235.7c-9.6,0-17.1-2.8-22.4-8.4c-5.4-5.6-8.1-13.5-8.1-23.8v-38.4h18.4v37.8c0,5.9,1.1,10.2,3.3,12.8
			s5.2,3.9,9,3.9s6.8-1.3,9-3.9s3.2-6.8,3.2-12.8v-37.8h18.1v38.4c0,10.3-2.7,18.2-8.1,23.8S268.4,235.7,258.9,235.7z"/>
		<path class="st0" d="M304,234.3v-69.2h15.1l26.9,47.1h-8l26.1-47.1h15.1l0.2,69.2h-16.9l-0.2-41.8h2.9l-19.6,35h-8.2l-20.1-35h3.5
			v41.8H304z"/>
		<path class="st0" d="M386.8,234.3l28.6-69.2h18.1l28.7,69.2h-19.1l-22.4-59.6h7.2l-22.4,59.6L386.8,234.3L386.8,234.3z
			 M402.5,220.8l4.7-14.4h31.7l4.7,14.4H402.5z"/>
		<path class="st0" d="M492.5,235.7c-5.3,0-10.4-0.7-15.3-2.1s-8.9-3.2-12-5.5l6-14.4c2.9,2,6.3,3.6,10.1,4.9
			c3.8,1.3,7.6,1.9,11.4,1.9c2.5,0,4.6-0.2,6.1-0.7s2.7-1.2,3.4-2c0.7-0.8,1.1-1.8,1.1-2.9c0-1.6-0.7-2.8-2-3.8
			c-1.4-0.9-3.1-1.7-5.3-2.3c-2.2-0.6-4.6-1.2-7.2-1.8s-5.3-1.4-7.9-2.3s-5-2.1-7.2-3.6s-3.9-3.4-5.3-5.8s-2-5.5-2-9.1
			c0-4.2,1.1-7.9,3.2-11.3c2.1-3.4,5.3-6.1,9.6-8.1c4.3-2,9.6-3.1,15.9-3.1c4.3,0,8.4,0.5,12.6,1.5c4.1,1,7.8,2.5,11,4.5l-5.7,14.5
			c-3.1-1.8-6.1-3.1-9.2-4c-3-0.9-6-1.3-8.8-1.3c-2.5,0-4.6,0.3-6.1,0.8c-1.5,0.6-2.7,1.3-3.3,2.2c-0.7,0.9-1,2-1,3.2
			c0,1.5,0.7,2.7,2,3.6s3.1,1.6,5.3,2.2c2.2,0.6,4.6,1.1,7.2,1.7s5.3,1.3,7.9,2.2s5,2.1,7.2,3.6s3.9,3.4,5.2,5.8s2,5.4,2,9
			c0,4-1.1,7.7-3.2,11.1c-2.1,3.4-5.3,6.1-9.5,8.2C504.2,234.6,498.9,235.7,492.5,235.7z"/>
		<path class="st0" d="M545.7,234.3v-53.7h-19.9v-15.5h58.1v15.5H564v53.7H545.7z"/>
		<path class="st0" d="M611.1,219.2H645v15.1h-52v-69.2h50.9v15.1h-32.7v39L611.1,219.2L611.1,219.2z M609.8,191.9h30.1v14.6h-30.1
			V191.9z"/>
		<path class="st0" d="M657.5,234.3v-69.2h29.7c5.9,0,11,1,15.3,3.1c4.3,2,7.6,5,10,8.9c2.3,3.9,3.5,8.4,3.5,13.7
			c0,5.2-1.2,9.7-3.5,13.5s-5.7,6.7-10,8.7s-9.4,3-15.3,3h-19.5l8.2-8.2v26.6h-18.4V234.3z M675.8,209.8l-8.2-9H686
			c3.8,0,6.7-0.9,8.6-2.7s2.8-4.3,2.8-7.4c0-3.2-0.9-5.7-2.8-7.5c-1.9-1.8-4.7-2.7-8.6-2.7h-18.4l8.2-9V209.8z M697.6,234.3
			l-16.1-25.2H701l16.2,25.2H697.6z"/>
	</g>
</g>
<g>
	<path class="st1" d="M466.5,143.8h-131c-0.4,0-0.6-0.3-0.6-0.6v-15c0-0.4,0.3-0.6,0.6-0.6h131c0.4,0,0.6,0.3,0.6,0.6v15
		C467.2,143.5,466.9,143.8,466.5,143.8z"/>
	<g>
		<circle class="st0" cx="401" cy="75.6" r="13.8"/>
		<g>
			<g>
				<path class="st0" d="M410.7,60.3L410.7,60.3c0.1-14.3,7.7-25.9,7.7-25.9c-12.5-9.3-16.5-34-16.5-34l0,0v30.2
					c2.2,0.5,3.9,2.7,3.4,5.1c-0.3,1.7-1.7,3.2-3.4,3.6c-2.9,0.6-5.4-1.6-5.4-4.3c0-2.1,1.5-3.9,3.5-4.3V0.4l0,0c0,0-4,24.6-16.5,34
					c0,0,7.7,11.6,7.7,25.9h0.1c2.8-1.4,6.1-2.3,9.7-2.3S407.9,58.8,410.7,60.3z"/>
			</g>
		</g>
	</g>
	<g>
		<g>
			<g>
				<path class="st2" d="M489.5,63.1L457,72c-0.7,0.2-0.7,1.1,0,1.3c3.9,1,10.5,3.4,8.3,8c-3,6.4-6.8,5.5-11.7,19.5
					c-0.1,0.2-0.3,0.4-0.5,0.4c-2.4,0.3-16,1.4-37.3-11.4c-0.3-0.2-0.7-0.1-0.9,0.2l-8.8,14.2c-0.2,0.3-0.1,0.6,0.1,0.9
					c2.5,2.1,16.7,12.4,60.6,15.4c0.4,0,0.8-0.3,0.7-0.7c-0.3-3.2,0.4-16.7,22.7-55.7C490.6,63.5,490.1,62.9,489.5,63.1z"/>
			</g>
			<path class="st2" d="M312.6,63.1l32.5,8.9c0.7,0.2,0.7,1.1,0,1.3c-3.9,1-10.5,3.4-8.3,8c3,6.4,6.8,5.5,11.7,19.5
				c0.1,0.2,0.3,0.4,0.5,0.4c2.4,0.3,16,1.4,37.3-11.4c0.3-0.2,0.7-0.1,0.9,0.2l8.8,14.2c0.2,0.3,0.1,0.6-0.1,0.9
				c-2.5,2.1-16.7,12.4-60.6,15.4c-0.4,0-0.8-0.3-0.7-0.7c0.3-3.2-0.4-16.7-22.7-55.7C311.5,63.5,312,62.9,312.6,63.1z"/>
		</g>
	</g>
</g>
<path class="st2" d="M334.9,144v-16.8c0-0.4,0.3-0.8,0.8-0.8h130.7c0.4,0,0.8,0.3,0.8,0.8V144c0,0.4-0.3,0.8-0.8,0.8H335.7
	C335.2,144.8,334.9,144.4,334.9,144z"/>
</svg>
