<?xml version="1.0" encoding="utf-8"?>
<!-- Generator: Adobe Illustrator 25.3.0, SVG Export Plug-In . SVG Version: 6.00 Build 0)  -->
<svg version="1.1" id="Layer_1" xmlns="http://www.w3.org/2000/svg" xmlns:xlink="http://www.w3.org/1999/xlink" x="0px" y="0px"
	 viewBox="0 0 800 323.7" style="enable-background:new 0 0 800 323.7;" xml:space="preserve">
<style type="text/css">
	.st0{opacity:0.31;}
	.st1{fill:#FFFFFF;}
	.st2{fill:#043057;}
	.st3{fill:#DAA84D;}
	.st4{fill:#221E59;}
	.st5{opacity:0.79;}
	.st6{fill:#EA39A5;}
	.st7{fill:#2DA9FC;}
	.st8{fill:#9C40D3;}
	.st9{fill:#5F2A3F;}
	.st10{fill:#E7DBCB;}
	.st11{fill:#DFB56E;}
	.st12{fill:#E7DBCB;stroke:#AA7700;stroke-width:0.5;stroke-miterlimit:10;}
	.st13{fill:none;stroke:#DAA84D;stroke-width:2;stroke-miterlimit:10;}
</style>
<g class="st0">
	<path class="st1" d="M669.8,314.5c-2.9,0-5.7-0.5-8.1-1.5c-4.1-1.7-7.3-4.9-8.9-8.5c-0.7,0.1-1.3,0.2-2,0.2c-4.5,0-9.2-3.3-11.4-8
		c-2.6-5.7-2-12.8,1.6-17.9c-3.1-2.9-4.5-7.4-3.4-11.4s4.2-7.2,8.1-8.3c-0.1-0.3-0.1-0.6-0.1-0.9c-0.2-3.9,2.4-10.4,10.2-11.2
		c0.2,0,0.4,0,0.6,0c1.5,0,3.1,0.3,4.6,0.9c2.3-5.1,7.3-8.9,12.5-9.2c0.2,0,0.5,0,0.7,0c5.2,0,9.9,3.4,11.5,7.9
		c2-1.8,4.8-2.9,7.7-2.9c1.7,0,3.4,0.4,4.9,1.2c4.2,2.2,6.6,7.1,5.9,11.7c2.5,0.8,6.9,4.3,7.2,4.6c2.4,2.5,3.8,6.2,4.2,11.1
		c0.3,2.3,0.3,5.7-1.1,9c-1,2.4-2.8,4.4-5,5.5c1.2,1.1,2.1,2.7,2.5,4.5c0.8,3.2,0.1,6.8-1.7,9.4c-2.8,3.9-7.5,6.3-14.1,7.3
		c-1.4,0.2-2.7,0.3-4,0.3c-3,0-5.5-0.6-7.5-1.7c-0.4,2.1-1.7,3.8-3,4.9c-1.7,1.3-3.9,2.3-6.8,2.8
		C673.1,314.3,671.4,314.5,669.8,314.5z"/>
	<path class="st2" d="M674.3,239.6c5.1,0,10.3,3.8,10.9,9c1.9-2.6,5.1-4,8.2-4c1.5,0,3.1,0.3,4.4,1.1c4.2,2.2,6.4,7.5,5,12l0,0l0,0
		c0.1-0.2,0.2-0.3,0.5-0.3c1.6,0,6.7,3.9,7.3,4.4c2.6,2.7,3.6,6.9,3.9,10.5c0.3,2.8,0.1,5.9-1,8.5s-3.4,4.9-6.2,5.6
		c4.6,2.4,5,9.4,2.1,13.5c-3.1,4.3-8.3,6.1-13.4,6.9c-1.3,0.2-2.5,0.3-3.8,0.3c-3.1,0-6.2-0.7-8.5-2.6c0.3,2.3-1,4.6-2.7,6
		s-4,2.2-6.3,2.6c-1.6,0.3-3.2,0.5-4.9,0.5c-2.6,0-5.3-0.4-7.7-1.4c-3.9-1.6-7.3-4.8-8.6-8.8c-0.9,0.3-1.7,0.4-2.6,0.4
		c-4.3,0-8.6-3.3-10.5-7.4c-2.6-5.7-1.7-12.8,2.1-17.7c-3.3-2.5-4.9-7-3.8-11c1.1-4,4.6-7.3,8.7-7.9l0,0l0,0l0,0
		c-1.5,0-1.4-10.8,8.7-11.8c0.2,0,0.3,0,0.5,0c1.8,0,3.7,0.5,5.2,1.2c1.9-5.1,6.7-9.2,12-9.5C673.9,239.6,674.1,239.6,674.3,239.6
		 M674.3,237.6L674.3,237.6c-0.2,0-0.5,0-0.7,0c-5.4,0.3-10.4,3.8-13,8.9c-1.4-0.4-2.8-0.7-4.1-0.7c-0.2,0-0.4,0-0.6,0l0,0l0,0
		c-8.5,0.8-11.4,7.9-11.2,12.2c0,0.1,0,0.1,0,0.2c-3.8,1.4-6.8,4.6-7.9,8.7c-1.1,4.2,0.1,8.7,3.1,11.8c-3.4,5.4-3.9,12.5-1.2,18.2
		c2.4,5.1,7.4,8.6,12.3,8.6c0.5,0,0.9,0,1.4-0.1c1.7,3.6,5,6.7,9.1,8.3c2.5,1.1,5.4,1.6,8.5,1.6c1.7,0,3.5-0.2,5.2-0.5
		c3.1-0.6,5.4-1.6,7.2-3c1.2-1,2.4-2.5,3.1-4.2c2,0.9,4.3,1.3,6.9,1.3c1.3,0,2.7-0.1,4.1-0.3c6.9-1,11.8-3.6,14.7-7.7
		c2-2.8,2.7-6.7,1.9-10.2c-0.4-1.5-1-2.9-1.9-4c1.9-1.2,3.4-3.1,4.4-5.3c1.4-3.4,1.4-7.1,1.1-9.5c-0.5-5.1-2-9-4.5-11.6
		c-0.1-0.1-3.9-3.3-6.8-4.5c0.4-4.8-2.1-9.8-6.5-12c-1.6-0.8-3.4-1.3-5.3-1.3c-2.6,0-5.2,0.8-7.3,2.3
		C684.1,240.6,679.4,237.6,674.3,237.6L674.3,237.6L674.3,237.6z"/>
</g>
<g class="st0">
	<path class="st1" d="M164.5,148.4c-4.2,0-8.1-0.7-11.7-2.2c-6.1-2.4-10.9-7.2-13-12.7c-1,0.2-2,0.4-3,0.4
		c-6.6,0-13.4-4.8-16.5-11.7c-3.9-8.4-2.9-18.8,2.5-26.3c-4.5-4.1-6.7-10.9-5.1-16.9c1.6-5.7,6.3-10.5,12-12c-0.1-0.5-0.2-1-0.2-1.6
		c-0.2-5.7,3.6-15.2,14.8-16.3c0.4,0,0.6,0,0.8,0c2.4,0,4.8,0.5,6.8,1.4c3.3-7.5,10.6-12.9,18.2-13.5c0.4,0,0.7,0,1.2,0
		c7.6,0,14.7,5.1,16.7,11.8c3-2.7,7.2-4.4,11.5-4.4c2.5,0,4.9,0.6,7.1,1.7c6.1,3.1,9.6,10.4,8.4,17.2c3.6,0.8,10.3,6.3,10.8,6.8
		c3.3,3.5,5.4,8.7,6.1,16c0.2,3.8,0.2,8.7-1.6,13.1c-1.6,3.7-4.3,6.6-7.6,8c1.9,1.7,3.3,4.1,3.9,6.9c1.1,4.5,0.1,9.7-2.5,13.4
		c-3.9,5.6-10.9,9.2-20.6,10.6c-1.9,0.2-3.8,0.4-5.5,0.4c-4.7,0-8.6-1-11.6-2.7c-0.5,2.7-2,5.5-4.4,7.5c-2.5,1.9-5.6,3.2-9.8,4.2
		C169.4,148.2,167,148.4,164.5,148.4z"/>
	<path class="st2" d="M171.2,38.5c7.6,0,15.2,5.6,16,13.1c2.7-3.7,7.4-5.9,12.1-5.9c2.3,0,4.5,0.5,6.6,1.6c6.2,3.2,9.4,11,7.3,17.7
		l0,0l0,0c0.1-0.4,0.4-0.5,0.7-0.5c2.4,0,9.9,5.7,10.8,6.6c3.8,4.1,5.3,9.9,5.9,15.3c0.2,4.3,0.1,8.7-1.6,12.5
		c-1.7,3.8-5,7.2-9.1,8.1c6.7,3.6,7.4,13.6,3,20s-12.3,9-19.7,10c-1.8,0.2-3.6,0.4-5.4,0.4c-4.7,0-9.2-1-12.8-3.8
		c0.2,3.3-1.6,6.6-4.2,8.8c-2.6,2-6,3.2-9.2,3.8c-2.3,0.5-4.7,0.7-7.1,0.7c-3.8,0-7.6-0.7-11.2-2.2c-5.9-2.4-10.8-7.1-12.7-13
		c-1.2,0.4-2.5,0.6-3.7,0.6c-6.5,0-12.7-4.9-15.4-11c-3.8-8.2-2.6-18.8,3-25.9c-4.8-3.7-7.2-10.4-5.6-16.3s6.8-10.6,12.9-11.5l0,0
		c-2.2,0-2-16,12.8-17.4c0.2,0,0.5,0,0.7,0c2.6,0,5.3,0.7,7.4,1.9c2.7-7.4,9.8-13.4,17.7-14C170.5,38.5,170.8,38.5,171.2,38.5
		 M171.2,36.1L171.2,36.1c-0.4,0-0.8,0-1.2,0c-7.8,0.6-15.1,5.7-18.8,13.1c-1.9-0.7-4.1-1.1-6.2-1.1c-0.2,0-0.6,0-0.8,0l0,0l0,0
		c-12.2,1.1-16.3,11.4-15.9,17.4c0,0.2,0,0.5,0,0.7c-5.6,1.9-10.3,6.7-11.8,12.5c-1.6,6.1,0.4,12.8,4.8,17.3c-5.1,7.8-6,18.2-2,26.6
		c3.3,7.3,10.6,12.3,17.6,12.3c0.7,0,1.6-0.1,2.3-0.1c2.4,5.4,7.3,9.9,13.3,12.4c3.7,1.6,7.9,2.3,12.2,2.3c2.5,0,5-0.2,7.5-0.8
		c4.4-1,7.6-2.3,10.3-4.3l0,0l0,0c2.2-1.9,3.7-4.2,4.5-6.7c3,1.4,6.6,2.2,10.9,2.2c1.8,0,3.7-0.1,5.7-0.4c10-1.4,17.2-5.3,21.4-11.1
		c2.9-3.9,3.8-9.4,2.7-14.3c-0.6-2.5-1.7-4.5-3.1-6.3c2.9-1.7,5.3-4.5,6.7-7.9c2-4.7,1.9-9.8,1.7-13.6l0,0l0,0
		c-0.8-7.5-2.9-13-6.5-16.7c-0.1-0.1-6.1-5.1-10.3-6.8c0.8-6.9-2.9-14.2-9.2-17.4c-2.3-1.2-4.9-1.8-7.6-1.8c-4.1,0-7.9,1.3-10.9,3.6
		C185.6,40.8,178.7,36.1,171.2,36.1L171.2,36.1z"/>
</g>
<g>
	<path class="st3" d="M672.8,208c5,0.5,6.6-1.6,7.1-3.5c0.2-0.7,0.1-1.3,0-2c1.5-0.6,2.8-1.8,3.2-3.4c0.2-0.7,0.1-1.4,0-2.1
		c1-0.5,1.8-1.4,2-2.6c0.7-2.6-1-4.2-2.6-5.7l-1.3,1.3l0,0c1.6,1.6,2.5,2.5,2.1,4.1c-0.1,0.6-0.5,1-1.1,1.3c-1-1.7-2.6-3.2-4.1-3.5
		c-0.1,0-1.9-0.5-3,0.3c-0.5,0.3-0.7,0.9-0.7,1.4c-0.1,1.7,1.4,3.1,4,3.8c0.9,0.3,1.9,0.3,2.8,0.1c0.1,0.4,0.1,0.8,0,1.1
		c-0.3,1-1.1,1.7-2.2,2.1c-0.7-1.3-2-2.2-3.5-2.6c-1-0.3-3.2-0.9-3.9,1c-0.2,0.5-0.1,1.1,0.1,1.6c0.6,1.1,2.2,1.7,3.4,2
		c0.9,0.2,1.8,0.3,2.8,0.1c0.1,0.4,0.1,0.7,0,1.1c-0.1,0.7-0.7,2.6-5.2,2.2L672.8,208z M677.4,201.3c-0.5,0-1.1,0-1.6-0.1
		c-1.3-0.3-2.1-0.8-2.3-1.1c0-0.1-0.1-0.1,0-0.2c0.1-0.1,0.4-0.2,1.8,0.1C676.1,200.2,676.8,200.6,677.4,201.3z M680.7,195.9
		c-0.5,0.1-1.1,0-1.6-0.1c-1.3-0.3-2.7-1.1-2.7-2c0-0.1,0-0.1,0-0.1c0.3-0.2,1.1-0.2,1.6-0.1C678.7,193.8,679.9,194.8,680.7,195.9z"
		/>
</g>
<rect x="676.6" y="197.9" class="st3" width="2.2" height="54.7"/>
<g>
	<g>
		<path class="st4" d="M108.7,216h33.4v14.9H90.8v-68.1h50.1v14.9h-32.2V216z M107.4,189.1H137v14.4h-29.6V189.1z"/>
		<path class="st4" d="M154.3,230.9v-68.1h30.2c7.1,0,13.3,1.4,18.6,4.2s9.6,6.7,12.5,11.8c3.1,5,4.5,11.1,4.5,18.1s-1.5,13-4.5,18
			c-3.1,5.1-7.2,9.1-12.5,11.8c-5.3,2.8-11.5,4.2-18.6,4.2H154.3L154.3,230.9z M172.4,215.5h11.4c3.6,0,6.8-0.7,9.6-2.2
			c2.7-1.5,4.8-3.6,6.3-6.4c1.5-2.9,2.3-6.2,2.3-10c0-3.9-0.8-7.3-2.3-10.1s-3.6-4.9-6.3-6.4c-2.8-1.5-5.9-2.2-9.6-2.2h-11.4V215.5z
			"/>
		<path class="st4" d="M261.4,232.3c-9.5,0-16.8-2.8-22.1-8.3s-8-13.3-8-23.4v-37.8h18.1V200c0,5.8,1.1,10,3.2,12.6
			c2.2,2.6,5.1,3.8,8.9,3.8s6.7-1.3,8.9-3.8c2.2-2.6,3.2-6.7,3.2-12.6v-37.2h17.8v37.8c0,10.1-2.7,17.9-8,23.4
			S270.8,232.3,261.4,232.3z"/>
		<path class="st4" d="M305.8,230.9v-68.1h14.9l26.5,46.4h-7.9l25.7-46.4h14.9l0.2,68.1h-16.6l-0.2-41.2h2.9l-19.3,34.5h-8.1
			L319,189.7h3.4v41.2H305.8z"/>
		<path class="st4" d="M387.3,230.9l28.2-68.1h17.8l28.3,68.1h-18.8l-22.1-58.7h7.1l-22.1,58.7H387.3L387.3,230.9z M402.8,217.6
			l4.6-14.2h31.2l4.6,14.2H402.8z"/>
		<path class="st4" d="M491.4,232.3c-5.2,0-10.2-0.7-15.1-2.1s-8.8-3.2-11.8-5.4l5.9-14.2c2.9,2,6.2,3.5,9.9,4.8
			c3.7,1.3,7.5,1.9,11.2,1.9c2.5,0,4.5-0.2,6-0.7s2.7-1.2,3.3-2c0.7-0.8,1.1-1.8,1.1-2.9c0-1.6-0.7-2.8-2-3.7
			c-1.4-0.9-3.1-1.7-5.2-2.3c-2.2-0.6-4.5-1.2-7.1-1.8s-5.2-1.4-7.8-2.3c-2.6-0.9-4.9-2.1-7.1-3.5c-2.2-1.5-3.8-3.3-5.2-5.7
			s-2-5.4-2-9c0-4.1,1.1-7.8,3.2-11.1s5.2-6,9.5-8c4.2-2,9.5-3.1,15.7-3.1c4.2,0,8.3,0.5,12.4,1.5c4,1,7.7,2.5,10.8,4.4l-5.6,14.3
			c-3.1-1.8-6-3.1-9.1-3.9c-3-0.9-5.9-1.3-8.7-1.3c-2.5,0-4.5,0.3-6,0.8c-1.5,0.6-2.7,1.3-3.2,2.2c-0.7,0.9-1,2-1,3.2
			c0,1.5,0.7,2.7,2,3.5c1.3,0.9,3.1,1.6,5.2,2.2c2.2,0.6,4.5,1.1,7.1,1.7s5.2,1.3,7.8,2.2c2.6,0.9,4.9,2.1,7.1,3.5
			c2.2,1.5,3.8,3.3,5.1,5.7s2,5.3,2,8.9c0,3.9-1.1,7.6-3.2,10.9c-2.1,3.3-5.2,6-9.4,8.1C502.9,231.2,497.7,232.3,491.4,232.3z"/>
		<path class="st4" d="M543.8,230.9V178h-19.6v-15.3h57.2V178h-19.6v52.9H543.8z"/>
		<path class="st4" d="M608.2,216h33.4v14.9h-51.2v-68.1h50.1v14.9h-32.2L608.2,216L608.2,216L608.2,216z M606.9,189.1h29.6v14.4
			h-29.6V189.1z"/>
		<path class="st4" d="M653.9,230.9v-68.1h29.2c5.8,0,10.8,1,15.1,3.1c4.2,2,7.5,4.9,9.8,8.8c2.3,3.8,3.4,8.3,3.4,13.5
			c0,5.1-1.2,9.6-3.4,13.3c-2.3,3.7-5.6,6.6-9.8,8.6s-9.3,3-15.1,3h-19.2l8.1-8.1v26L653.9,230.9L653.9,230.9z M671.9,206.8
			l-8.1-8.9h18.1c3.7,0,6.6-0.9,8.5-2.7s2.8-4.2,2.8-7.3c0-3.2-0.9-5.6-2.8-7.4c-1.9-1.8-4.6-2.7-8.5-2.7h-18.1l8.1-8.9V206.8z
			 M693.3,230.9l-15.9-24.8h19.2l16,24.8H693.3z"/>
	</g>
</g>
<g>
	<path class="st3" d="M465.8,141.8h-129c-0.4,0-0.6-0.3-0.6-0.6v-14.8c0-0.4,0.3-0.6,0.6-0.6h129c0.4,0,0.6,0.3,0.6,0.6v14.8
		C466.5,141.5,466.2,141.8,465.8,141.8z"/>
	<g>
		<circle class="st4" cx="401.3" cy="74.6" r="13.6"/>
		<g>
			<g>
				<path class="st4" d="M410.9,59.6L410.9,59.6c0.1-14.1,7.6-25.5,7.6-25.5c-12.3-9.2-16.2-33.5-16.2-33.5l0,0v29.7
					c2.2,0.5,3.8,2.7,3.3,5c-0.3,1.7-1.7,3.2-3.3,3.5c-2.9,0.6-5.3-1.6-5.3-4.2c0-2.1,1.5-3.8,3.4-4.2V0.6l0,0
					c0,0-3.9,24.2-16.2,33.5c0,0,7.6,11.4,7.6,25.5h0.1c2.8-1.4,6-2.3,9.6-2.3S408.1,58.1,410.9,59.6z"/>
			</g>
		</g>
	</g>
	<g>
		<g>
			<g>
				<path class="st3" d="M488.4,62.3l-32,8.8c-0.7,0.2-0.7,1.1,0,1.3c3.8,1,10.3,3.3,8.2,7.9c-3,6.3-6.7,5.4-11.5,19.2
					c-0.1,0.2-0.3,0.4-0.5,0.4c-2.4,0.3-15.8,1.4-36.7-11.2c-0.3-0.2-0.7-0.1-0.9,0.2l-8.7,14c-0.2,0.3-0.1,0.6,0.1,0.9
					c2.5,2.1,16.4,12.2,59.7,15.2c0.4,0,0.8-0.3,0.7-0.7c-0.3-3.2,0.4-16.4,22.3-54.8C489.5,62.7,489,62.1,488.4,62.3z"/>
			</g>
			<path class="st3" d="M314.3,62.3l32,8.8c0.7,0.2,0.7,1.1,0,1.3c-3.8,1-10.3,3.3-8.2,7.9c3,6.3,6.7,5.4,11.5,19.2
				c0.1,0.2,0.3,0.4,0.5,0.4c2.4,0.3,15.8,1.4,36.7-11.2c0.3-0.2,0.7-0.1,0.9,0.2l8.7,14c0.2,0.3,0.1,0.6-0.1,0.9
				c-2.5,2.1-16.4,12.2-59.7,15.2c-0.4,0-0.8-0.3-0.7-0.7c0.3-3.2-0.4-16.4-22.3-54.8C313.2,62.7,313.7,62.1,314.3,62.3z"/>
		</g>
	</g>
</g>
<path class="st3" d="M336.2,142v-16.5c0-0.4,0.3-0.8,0.8-0.8h128.7c0.4,0,0.8,0.3,0.8,0.8V142c0,0.4-0.3,0.8-0.8,0.8H337
	C336.5,142.8,336.2,142.4,336.2,142z"/>
<path class="st1" d="M271.9,63.5c0,0.9-0.7,1.7-1.7,1.7c-0.9,0-1.7-0.7-1.7-1.7c0-0.9,0.7-1.7,1.7-1.7
	C271.1,61.9,271.9,62.6,271.9,63.5z"/>
<g class="st5">
	<g>
		<g>
			<g>
				<g>
					<path class="st6" d="M66.1,31.6c-0.4-2.9-1.4-11.5-1.4-12.6c0-1.4,0.6-2.5,1.4-2.5l0,0l0,0c0.8,0,1.4,1.1,1.4,2.5
						C67.5,20.1,66.5,28.7,66.1,31.6z"/>
				</g>
			</g>
			<g>
				<g>
					<path class="st6" d="M66.1,53.9c-0.8,0-1.5-1.1-1.5-2.4s1.5-13.2,1.5-13.2s1.5,11.8,1.5,13.2S66.9,53.9,66.1,53.9z"/>
				</g>
			</g>
			<g>
				<g>
					<path class="st6" d="M64.1,37c0,0-7.6,9.7-8.5,10.7s-2.2,1.3-2.7,0.7c-0.6-0.6-0.3-1.8,0.7-2.8C54.5,44.7,64.1,37,64.1,37z"/>
					<path class="st6" d="M68.1,37c0,0,7.6,9.7,8.5,10.7s2.2,1.3,2.7,0.7c0.6-0.6,0.3-1.8-0.7-2.8C77.7,44.7,68.1,37,68.1,37z"/>
				</g>
			</g>
			<g>
				<g>
					<path class="st6" d="M63.4,35.1c0,0-12.2,1.5-13.6,1.6s-2.5-0.6-2.5-1.4c0-0.8,1.1-1.4,2.4-1.5C51.2,33.8,63.4,35.1,63.4,35.1z
						"/>
					<path class="st6" d="M68.8,35.1c0,0,12.2,1.5,13.6,1.6c1.4,0,2.5-0.6,2.5-1.4c0-0.8-1.1-1.4-2.4-1.5
						C81,33.8,68.8,35.1,68.8,35.1z"/>
				</g>
			</g>
			<g>
				<g>
					<path class="st6" d="M64.3,33.3c0,0-9.7-7.6-10.7-8.5s-1.3-2.2-0.7-2.7c0.6-0.6,1.8-0.3,2.8,0.7C56.6,23.7,64.3,33.3,64.3,33.3
						z"/>
					<path class="st6" d="M67.9,33.3c0,0,9.7-7.6,10.7-8.5s1.3-2.2,0.7-2.7c-0.6-0.6-1.8-0.3-2.8,0.7C75.6,23.7,67.9,33.3,67.9,33.3
						z"/>
				</g>
			</g>
		</g>
	</g>
	<circle class="st6" cx="80.5" cy="28.8" r="1.7"/>
	<circle class="st6" cx="59.6" cy="52.3" r="1.7"/>
	<circle class="st6" cx="43.5" cy="42.9" r="1.7"/>
	<circle class="st6" cx="87" cy="27.2" r="1.2"/>
	<circle class="st6" cx="80" cy="55.1" r="1.2"/>
	<circle class="st6" cx="49.4" cy="57.8" r="1.2"/>
</g>
<g class="st5">
	<g>
		<g>
			<g>
				<g>
					<path class="st3" d="M534.5,15.9c0.3-2.2,1.1-8.5,1.1-9.3c0-1-0.5-1.8-1-1.8l0,0l0,0c-0.6,0-1.1,0.8-1,1.8
						C533.5,7.3,534.2,13.7,534.5,15.9z"/>
				</g>
			</g>
			<g>
				<g>
					<path class="st3" d="M534.5,32.4c0.6,0,1.1-0.8,1.1-1.8s-1.1-9.8-1.1-9.8s-1.1,8.7-1.1,9.8C533.4,31.6,533.9,32.4,534.5,32.4z"
						/>
				</g>
			</g>
			<g>
				<g>
					<path class="st3" d="M536,19.8c0,0,5.6,7.2,6.3,7.9c0.7,0.7,1.6,1,2,0.6s0.2-1.3-0.5-2C543.1,25.6,536,19.8,536,19.8z"/>
					<path class="st3" d="M533,19.8c0,0-5.6,7.2-6.3,7.9c-0.7,0.7-1.6,1-2,0.6s-0.2-1.3,0.5-2C525.9,25.6,533,19.8,533,19.8z"/>
				</g>
			</g>
			<g>
				<g>
					<path class="st3" d="M536.5,18.4c0,0,9.1,1.1,10.1,1.1s1.8-0.5,1.8-1c0-0.6-0.8-1.1-1.8-1.1S536.5,18.4,536.5,18.4z"/>
					<path class="st3" d="M532.5,18.4c0,0-9.1,1.1-10.1,1.1s-1.8-0.5-1.8-1c0-0.6,0.8-1.1,1.8-1.1C523.5,17.4,532.5,18.4,532.5,18.4
						z"/>
				</g>
			</g>
			<g>
				<g>
					<path class="st3" d="M535.8,17.1c0,0,7.2-5.6,7.9-6.3s1-1.6,0.6-2s-1.3-0.2-2,0.5S535.8,17.1,535.8,17.1z"/>
					<path class="st3" d="M533.2,17.1c0,0-7.2-5.6-7.9-6.3s-1-1.6-0.6-2s1.3-0.2,2,0.5C527.5,10,533.2,17.1,533.2,17.1z"/>
				</g>
			</g>
		</g>
	</g>
	<circle class="st3" cx="523.9" cy="13.8" r="1.3"/>
	<circle class="st3" cx="539.3" cy="31.1" r="1.3"/>
	<circle class="st3" cx="551.3" cy="24.2" r="1.3"/>
	<circle class="st3" cx="519.1" cy="12.5" r="0.9"/>
	<circle class="st3" cx="524.2" cy="33.2" r="0.9"/>
	<circle class="st3" cx="546.9" cy="35.2" r="0.9"/>
</g>
<g class="st5">
	<g>
		<g>
			<g>
				<g>
					<path class="st3" d="M371.9,265.7c0.4-2.9,1.4-11.3,1.4-12.4c0-1.3-0.6-2.4-1.4-2.4l0,0l0,0c-0.8,0-1.4,1.1-1.4,2.4
						C370.5,254.3,371.6,262.8,371.9,265.7z"/>
				</g>
			</g>
			<g>
				<g>
					<path class="st3" d="M371.9,287.6c0.8,0,1.4-1.1,1.5-2.4c0-1.3-1.5-13-1.5-13s-1.5,11.6-1.5,13
						C370.5,286.6,371.1,287.6,371.9,287.6z"/>
				</g>
			</g>
			<g>
				<g>
					<path class="st3" d="M373.9,271c0,0,7.4,9.6,8.4,10.5c0.9,1,2.1,1.3,2.7,0.7c0.6-0.5,0.2-1.8-0.7-2.7
						C383.4,278.6,373.9,271,373.9,271z"/>
					<path class="st3" d="M370,271c0,0-7.4,9.6-8.4,10.5c-0.9,1-2.1,1.3-2.7,0.7c-0.6-0.5-0.2-1.8,0.7-2.7
						C360.5,278.6,370,271,370,271z"/>
				</g>
			</g>
			<g>
				<g>
					<path class="st3" d="M374.6,269.1c0,0,12,1.5,13.4,1.5c1.3,0,2.4-0.6,2.4-1.4s-1.1-1.4-2.4-1.4
						C386.6,267.8,374.6,269.1,374.6,269.1z"/>
					<path class="st3" d="M369.3,269.1c0,0-12,1.5-13.4,1.5c-1.3,0-2.4-0.6-2.4-1.4s1.1-1.4,2.4-1.4S369.3,269.1,369.3,269.1z"/>
				</g>
			</g>
			<g>
				<g>
					<path class="st3" d="M373.7,267.3c0,0,9.6-7.4,10.5-8.4c1-0.9,1.3-2.1,0.7-2.7c-0.5-0.6-1.8-0.2-2.7,0.7
						C381.3,257.8,373.7,267.3,373.7,267.3z"/>
					<path class="st3" d="M370.2,267.3c0,0-9.6-7.4-10.5-8.4c-1-0.9-1.3-2.1-0.7-2.7c0.5-0.6,1.8-0.2,2.7,0.7
						C362.6,257.8,370.2,267.3,370.2,267.3z"/>
				</g>
			</g>
		</g>
	</g>
	<circle class="st3" cx="357.8" cy="262.9" r="1.7"/>
	<circle class="st3" cx="378.3" cy="286" r="1.7"/>
	<circle class="st3" cx="394.2" cy="276.7" r="1.7"/>
	<circle class="st3" cx="351.4" cy="261.3" r="1.2"/>
	<circle class="st3" cx="358.2" cy="288.8" r="1.2"/>
	<circle class="st3" cx="388.4" cy="291.4" r="1.2"/>
</g>
<g class="st5">
	<path class="st3" d="M721.4,144.2c7.6,0.7,10-2.5,10.8-5.3c0.3-1,0.2-2,0-3c2.3-0.9,4.2-2.7,4.9-5.1c0.3-1.1,0.2-2.1,0-3.2
		c1.5-0.8,2.7-2.1,3.1-3.9c1-3.9-1.5-6.4-3.9-8.7l-1.9,1.9l0,0c2.4,2.4,3.8,3.8,3.2,6.2c-0.2,0.9-0.8,1.5-1.6,2
		c-1.5-2.6-4-4.8-6.2-5.3c-0.1,0-2.9-0.7-4.6,0.5c-0.7,0.5-1.1,1.3-1.1,2.2c-0.1,2.6,2.1,4.7,6.1,5.7c1.4,0.4,2.9,0.4,4.3,0.2
		c0.1,0.6,0.1,1.2,0,1.7c-0.4,1.5-1.7,2.6-3.3,3.2c-1.1-1.9-3-3.4-5.3-4c-1.5-0.4-4.9-1.3-5.9,1.5c-0.3,0.8-0.2,1.7,0.2,2.4
		c0.9,1.7,3.3,2.6,5.1,3.1c1.4,0.3,2.8,0.4,4.3,0.2c0.1,0.6,0.1,1.1,0,1.7c-0.2,1-1,3.9-7.9,3.3L721.4,144.2z M728.4,134
		c-0.8,0-1.6,0-2.4-0.2c-2-0.5-3.2-1.2-3.5-1.7c0-0.1-0.1-0.2,0-0.3s0.6-0.3,2.7,0.2C726.5,132.3,727.6,133,728.4,134z M733.4,125.8
		c-0.8,0.1-1.7,0-2.5-0.2c-2-0.5-4.1-1.6-4.1-3.1c0-0.1,0-0.1,0-0.1c0.4-0.3,1.7-0.3,2.4-0.1C730.5,122.7,732.2,124.1,733.4,125.8z"
		/>
</g>
<path class="st7" d="M697.2,16.1l-6.2-1.9c0,0-0.6,2.6,1.3,6.3c3.4,1.7,6.7,0.5,6.7,0.5L697.2,16.1z"/>
<path class="st6" d="M777.4,301.1l-6.2-1.9c0,0-0.6,2.6,1.3,6.3c3.4,1.7,6.7,0.5,6.7,0.5L777.4,301.1z"/>
<path class="st6" d="M775.2,39.1l4.4,3.3c0,0-1.5,1.7-5,2.3c-2.9-1.5-3.7-4.4-3.7-4.4L775.2,39.1z"/>
<path class="st8" d="M677,71l-4.5,4.7c0,0,2.8,0.5,5.3,2.5c3.1-2.3,4.3-6.6,4.3-6.6L677,71z"/>
<g class="st5">
	<path class="st3" d="M178.1,282.1c7.6-0.7,10,2.5,10.8,5.3c0.3,1,0.2,2,0,3c2.3,0.9,4.2,2.7,4.9,5.1c0.3,1.1,0.2,2.1,0,3.2
		c1.5,0.8,2.7,2.1,3.1,3.9c1,3.9-1.5,6.4-3.9,8.7l-1.9-1.9l0,0c2.4-2.4,3.8-3.8,3.2-6.2c-0.2-0.9-0.8-1.5-1.6-2
		c-1.5,2.6-4,4.8-6.2,5.3c-0.1,0-2.9,0.7-4.6-0.5c-0.7-0.5-1.1-1.3-1.1-2.2c-0.1-2.6,2.1-4.7,6.1-5.7c1.4-0.4,2.9-0.4,4.3-0.2
		c0.1-0.6,0.1-1.2,0-1.7c-0.4-1.5-1.7-2.6-3.3-3.2c-1.1,1.9-3,3.4-5.3,4c-1.5,0.4-4.9,1.3-5.9-1.5c-0.3-0.8-0.2-1.7,0.2-2.4
		c0.9-1.7,3.3-2.6,5.1-3.1c1.4-0.3,2.8-0.4,4.3-0.2c0.1-0.6,0.1-1.1,0-1.7c-0.2-1-1-3.9-7.9-3.3L178.1,282.1z M185.1,292.3
		c-0.8,0-1.6,0-2.4,0.2c-2,0.5-3.2,1.2-3.5,1.7c0,0.1-0.1,0.2,0,0.3c0.1,0.1,0.6,0.3,2.7-0.2C183.2,294,184.3,293.2,185.1,292.3z
		 M190.1,300.4c-0.8-0.1-1.7,0-2.5,0.2c-2,0.5-4.1,1.6-4.1,3.1c0,0.1,0,0.1,0,0.1c0.4,0.3,1.7,0.3,2.4,0.1
		C187.2,303.6,188.9,302.2,190.1,300.4z"/>
</g>
<path class="st6" d="M562.2,286.3l-6.2,1.9c0,0-0.6-2.6,1.3-6.3c3.4-1.7,6.7-0.5,6.7-0.5L562.2,286.3z"/>
<path class="st7" d="M474.4,269.5l-1.5-5.3c0,0,2.2-0.4,5.4,1.3c1.4,3,0.2,5.7,0.2,5.7L474.4,269.5z"/>
<path class="st8" d="M249.1,297.8l-4.5-4.7c0,0,2.8-0.5,5.3-2.5c3.1,2.3,4.3,6.6,4.3,6.6L249.1,297.8z"/>
<path class="st7" d="M38.6,269.4l1.5,5.3c0,0-2.2,0.4-5.4-1.3c-1.4-3-0.2-5.7-0.2-5.7L38.6,269.4z"/>
<path class="st7" d="M755.3,228.7l4.5,4.7c0,0-2.8,0.5-5.3,2.5c-3.1-2.3-4.3-6.6-4.3-6.6L755.3,228.7z"/>
<path class="st3" d="M148.3,44.2l-6.2,1.9c0,0-0.6-2.6,1.3-6.3c3.4-1.7,6.7-0.5,6.7-0.5L148.3,44.2z"/>
<path class="st8" d="M5.7,135.1l-4.5-4.7c0,0,2.8-0.5,5.3-2.5c3.1,2.3,4.3,6.6,4.3,6.6L5.7,135.1z"/>
<path class="st7" d="M162.4,97.8l4.5-4.7c0,0-2.8-0.5-5.3-2.5c-3.1,2.3-4.3,6.6-4.3,6.6L162.4,97.8z"/>
<g>
	<g>
		<path class="st9" d="M162.9,135.6c-1.1-0.7-2.4-0.7-3.5-0.7c-1.4,0.1-2.7,0.6-3.8,1.6c-4.3,3.8-0.2,14.2,0.6,18.9
			c0.2,1.9,0.8,4.1,2.3,5.1c1.1,0.8,2.5,1.1,3.8,1c0.7,0,1.4-0.1,1.9-0.4c1.6-0.8,1.9-3,2-4.8C166.5,151.5,167.9,138.5,162.9,135.6z
			 M189.8,132.1c-1.1-1.1-2.5-1.7-3.8-1.8c-1.2-0.1-2.5,0-3.5,0.7c-5,3.5-3.6,18.6-3.3,24.5c0.1,2.3,0.6,4.8,2,5.9
			c0.6,0.4,1.2,0.4,1.9,0.4c1.4,0,2.7-0.1,3.8-1.2c1.4-1.4,1.9-3.7,2.3-6.1C190,148.7,194,136.6,189.8,132.1z"/>
		<path class="st1" d="M143.2,52.7c-14.9,1.4-14.9,17.7-12.7,17.4c-6.1,0.8-11.4,5.6-12.9,11.5c-1.6,6,0.8,12.5,5.6,16.3
			c-5.6,7.2-6.9,17.7-3,25.9c3.3,7.2,11.6,12.9,19.2,10.4c1.9,6,6.9,10.6,12.7,13c5.7,2.4,12.3,2.6,18.4,1.4
			c3.3-0.7,6.7-1.8,9.2-3.8c2.6-2.3,4.4-5.5,4.2-8.8c4.8,4.1,11.8,4.3,18,3.5c7.4-1.1,15.3-3.8,19.7-10c4.4-6.2,3.6-16.3-3-20
			c4.2-1,7.4-4.3,9.1-8.1c1.7-3.8,1.8-8.2,1.6-12.5c-0.6-5.4-1.9-11.4-5.9-15.3c-1-1-10.8-8.5-11.5-6.1c2-6.7-1.1-14.5-7.3-17.7
			c-6.2-3.2-14.5-1.2-18.6,4.3c-1-7.9-9.1-13.6-17.1-13.1c-7.9,0.6-14.9,6.5-17.7,14C148.9,53.2,146.1,52.6,143.2,52.7z"/>
		<path class="st10" d="M153.6,87.7c-3.5,5.3-9.7,7.3-13.9,4.7c-4.2-2.7-4.7-9.2-1.2-14.5c3.5-5.3,9.7-7.3,13.9-4.7
			C156.5,76,157.1,82.6,153.6,87.7z"/>
		<g>
			<path class="st11" d="M151.8,85.7c-1.9,3-5.5,4.3-8,2.6c-2.4-1.6-2.7-5.3-0.7-8.5c1.9-3,5.5-4.3,8-2.6
				C153.5,78.9,153.7,82.7,151.8,85.7z"/>
		</g>
		<path class="st10" d="M191.1,87.7c3.5,5.3,9.7,7.3,13.9,4.7c4.2-2.7,4.7-9.2,1.2-14.5c-3.5-5.3-9.7-7.3-13.9-4.7
			C188.4,76,187.7,82.6,191.1,87.7z"/>
		<g>
			<path class="st11" d="M193,85.8c1.9,3,5.5,4.3,8,2.7c2.5-1.6,2.7-5.4,0.8-8.5c-1.9-3.1-5.5-4.3-8-2.7
				C191.4,78.9,191,82.7,193,85.8z"/>
		</g>
		<g>
			<ellipse class="st12" cx="172.6" cy="98.7" rx="24.1" ry="26.9"/>
		</g>
		<path class="st9" d="M160.2,67.6c-0.6-1.7-1.2-3.3-2-4.8c-0.7-1.4-1.9-2.9-3.5-2.9s-2.7,1.2-3,2.7c-0.4,1.4,0,2.9,0.2,4.4
			c0.4,1.7,0.7,3.5,1.1,5.1c0.1,1,0.1,2.4,1.2,2.6c0.7,0.1,1.9-0.1,2.6-0.2c1-0.1,1.8-0.2,2.7-0.6c0.6-0.1,1.2-0.4,1.4-1
			c0.1-0.2,0-0.7,0-1C160.9,70.5,160.8,69,160.2,67.6z M193.5,62.6c-0.4-1.4-1.6-2.7-3-2.7c-1.6,0-2.6,1.6-3.5,2.9
			c-0.8,1.6-1.6,3.2-2,4.8c-0.4,1.6-0.7,2.9-0.8,4.4c0,0.2-0.1,0.7,0,1c0.1,0.6,0.8,0.8,1.4,1c1,0.2,1.8,0.4,2.7,0.6
			c0.7,0.1,1.9,0.4,2.6,0.2c1.1-0.2,1.1-1.7,1.2-2.6c0.4-1.7,0.7-3.5,1.1-5.1C193.5,65.5,193.9,64.1,193.5,62.6z"/>
		<path class="st1" d="M152.6,91.2c0.8,0.6,1.8,0.8,2.7,1c1.2,0.1,2.6,0.1,3.8-0.2c1-0.4,1.8-1.1,2.9-1.2c0.8,2.5,3.2,4.5,5.9,5.1
			c2.3,0.6,5-0.1,6.8-1.7c0.2-0.2,0.6-0.7,0.8-0.7c0.2,0,1.1,0.8,1.6,1c1.1,0.4,2.4,0.6,3.6,0.7c1.9,0,3.7-0.1,5.5-1
			c1.7-0.8,3-2.5,3.2-4.3c1.2,1.7,3.6,2.4,5.5,1.8s3.6-2.2,4.5-4.1c1-1.9,1.2-4.1,1.4-6.1c0.2-6-2-11.5-7.3-14.7
			c-3.3-2-7.3-2.9-11.2-3c-5-0.2-9.9,0.6-14.8,2.2c-2,0.7-4.3,1-6.3,1.8c-2.3,0.8-4.3,1.9-6.1,3.3c-3.3,2.5-6,6.1-6.5,10
			c-0.4,2.4,0,5,1.2,7.1C150.3,89.4,151.2,90.6,152.6,91.2z"/>
		<g>
			<path class="st9" d="M165.4,96.6c-0.2-0.1-0.6-0.2-0.7-0.2c-0.1,0-0.4,0-0.6,0.1c-1.2,0.4-2.3,1.2-2.4,2.6
				c-0.1,1.1,0.1,2.2,1,2.9c0.7,0.7,2,1,2.9,0.2c0.7-0.6,1-1.6,1.1-2.5c0-0.7,0-1.6-0.2-2.2C166.3,97.3,165.9,96.9,165.4,96.6z
				 M185.7,101.3c0.6-2.2-1-6.2-3.6-4.5c-2.7,1.7-1.6,6,1.4,6.3c0.2,0,0.4,0,0.7,0c0.6-0.1,1-0.7,1.2-1.1
				C185.6,101.6,185.7,101.5,185.7,101.3z M182.4,99.2L182.4,99.2c-0.1-0.1,0-0.2,0-0.4C182.4,99,182.4,99.1,182.4,99.2z
				 M181.1,112.7v-0.2c-0.4,0.1-0.2,0-0.4,0.4c0,0,0,0.1,0,0.2c-1.4,1.7-3.6,2.9-6.7,2.7c-2.9-0.1-5.6-1.7-6.3-3.5
				c0,0.1,0,0.4,0,0.7c0.6,2.4,3.2,4.2,6.5,4.3c0,0.2,0.1,0.6,0.1,0.7c0.1,2-0.1,4.3-0.4,6.3c0,0.2,0.1,0.8,0.1,1
				c1.2-2.4,0.8-5.5,0.7-8c0.8,0,1.8-0.1,2.7-0.4c2.4-0.7,3.5-1.8,3.7-3.2l0,0l0,0l0,0c0,0,0,0,0,0.1v-0.1c0,0,0,0,0-0.1
				C181.1,113.5,181.1,113.1,181.1,112.7z"/>
		</g>
	</g>
</g>
<g>
	<g>
		<g>
			<path class="st9" d="M670.4,305.3c-0.8-0.4-1.5-0.5-2.4-0.4c-1,0.1-1.9,0.4-2.6,1.1c-2.9,2.6-0.1,9.6,0.4,12.9
				c0.2,1.3,0.5,2.7,1.5,3.5c0.8,0.5,1.7,0.8,2.6,0.7c0.4,0,0.9-0.1,1.3-0.3c1.1-0.5,1.3-2.1,1.4-3.3
				C672.8,316,673.8,307.3,670.4,305.3z M688.7,302.8c-0.8-0.8-1.6-1.1-2.6-1.2c-0.8-0.1-1.6,0-2.4,0.5c-3.4,2.4-2.4,12.7-2.2,16.6
				c0.1,1.5,0.3,3.3,1.4,3.9c0.4,0.2,0.9,0.3,1.3,0.3c0.9,0,1.9-0.1,2.6-0.8c1-1,1.3-2.6,1.5-4.1
				C688.8,314.1,691.6,305.8,688.7,302.8z"/>
			<path class="st1" d="M657,248.9c-10.1,1-10.1,12-8.6,11.8c-4.1,0.5-7.6,3.8-8.7,7.9s0.5,8.5,3.8,11c-3.8,4.9-4.7,12-2.1,17.7
				c2.3,4.9,8,8.7,13.1,7c1.3,4,4.7,7.2,8.6,8.8s8.4,1.7,12.5,1c2.3-0.4,4.6-1.2,6.3-2.6s3.1-3.7,2.7-6c3.3,2.7,8.1,2.9,12.3,2.3
				c5.1-0.8,10.4-2.6,13.4-6.9c2.9-4.1,2.5-11.1-2.1-13.5c2.8-0.7,5.1-2.9,6.2-5.6c1.1-2.6,1.3-5.7,1-8.5c-0.3-3.6-1.3-7.7-3.9-10.5
				c-0.7-0.7-7.3-5.7-7.7-4.1c1.4-4.5-0.8-9.8-5-12c-4.1-2.2-9.8-0.9-12.7,2.9c-0.7-5.3-6.2-9.3-11.6-8.9c-5.3,0.3-10.1,4.4-12,9.5
				C661,249.3,658.9,248.8,657,248.9z"/>
			
				<ellipse transform="matrix(0.5459 -0.8378 0.8378 0.5459 67.4871 677.6299)" class="st10" cx="658.9" cy="276.6" rx="7.7" ry="6.1"/>
			<g>
				<path class="st11" d="M662.8,278.3c-1.3,2.1-3.8,2.8-5.5,1.9c-1.6-1.1-1.9-3.6-0.5-5.7s3.8-2.8,5.5-1.9
					C664,273.8,664.2,276.3,662.8,278.3z"/>
			</g>
			
				<ellipse transform="matrix(0.8378 -0.5459 0.5459 0.8378 -38.307 424.0762)" class="st10" cx="694.7" cy="276.5" rx="6.1" ry="7.7"/>
			<g>
				<path class="st11" d="M690.9,278.3c1.3,2.1,3.8,2.9,5.5,1.9c1.6-1.1,1.9-3.6,0.5-5.7c-1.3-2.1-3.8-2.9-5.5-1.9
					S689.5,276.3,690.9,278.3z"/>
			</g>
			<g>
				<ellipse class="st10" cx="677" cy="280.2" rx="16.4" ry="18.3"/>
			</g>
			<path class="st1" d="M665.2,272.9c2.6,1.2,5.7,0.8,8.2-0.7c0.1,1.6,1.3,3.1,2.8,3.6c1.5,0.7,3.2,0.5,4.8,0.1c1.4-0.3,2.7-1,3.7-2
				s1.5-2.6,1.1-3.9c1.4,2.3,4.8,2.8,7.1,1.5c2.3-1.4,3.4-4.4,2.8-7c-0.4-2.6-2.3-4.9-4.6-6.2c-2.3-1.4-5-2-7.6-2.1
				c-6.2-0.3-12.2,1.9-17.5,5.1C661.7,264,659.4,270.2,665.2,272.9z"/>
			<g>
				<path class="st9" d="M672.1,278.8c-0.2-0.1-0.2-0.2-0.4-0.2c-0.1,0-0.2,0-0.4,0.1c-0.3,0.1-0.5,0.3-0.8,0.4
					c-0.5,0.4-0.8,1.3-0.8,2.1c0,0.1,0,0.3,0,0.5c0.2,0.9,0.4,0.3,0.8,0.1c0.2-0.2,0.4-0.3,0.7-0.5c0.1-0.1,0.2-0.1,0.3-0.2v0.1
					c0,0.2,0,0.5,0.1,0.7c0,0.1,0,0.3,0.1,0.3h0.1c0.1,0.1,0.1,0.2,0.2,0.3v-0.2c0-0.3,0-0.7,0-1c0,0,0-0.1,0-0.2s0-0.3,0-0.4
					s0-0.2,0-0.3C672.2,279.9,672.2,278.8,672.1,278.8z M685.9,281.9c0-0.3,0-0.5,0-0.9c0-0.3,0-0.5,0-0.9c0-0.1,0-0.2-0.1-0.3
					c-0.2-0.3-0.3-0.7-0.7-1c-0.1-0.1-0.2-0.2-0.4-0.3c-0.2-0.1-0.3-0.1-0.5-0.1c0,0,0,0.3,0,0.7c-0.1,0.1-0.2,0.2-0.3,0.3
					c-0.1,0.1-0.2,0.2-0.2,0.3c-0.1,0.2-0.1,0.3-0.1,0.5c0,0.3,0,0.5,0,0.9c0,0.2,0.1,0.4,0.2,0.5c0.1,0,0.1,0,0.2,0
					c0,0.1,0,0.1,0.1,0.2c0,0,0-0.1,0-0.2c0.3,0,0.4-0.3,0.4-0.7c0-0.2,0-0.5,0-0.8c0.5,0.5,1.1,1.1,1.4,1.9
					C685.9,282.3,685.9,281.8,685.9,281.9z M683.7,280.6C683.7,280.5,683.7,280.5,683.7,280.6c-0.1-0.1,0-0.2,0-0.3
					C683.7,280.4,683.7,280.5,683.7,280.6z M681.2,289.7v-0.1c-0.2,0.1-0.1,0-0.2,0.3c0,0,0,0.1,0,0.2c-0.7,1.1-1.6,2-3.1,1.9
					c-1.3-0.1-2.6-1.1-2.9-2.4c0,0.1,0,0.3,0,0.4c0.3,1.5,1.5,2.8,2.9,2.9c0,0.2,0,0.4,0,0.4c0,1.4-0.1,2.9-0.2,4.4
					c0,0.1,0.1,0.5,0,0.7c0.5-1.6,0.3-3.7,0.3-5.5c0.4,0,0.9-0.1,1.3-0.2c1.1-0.4,1.5-1.2,1.6-2.2l0,0l0,0l0,0c0,0,0,0,0,0.1v-0.1
					l0,0C681.2,290.2,681.2,289.9,681.2,289.7z"/>
				<path class="st10" d="M647.7,280.5c-4.7,1.1-4.9,7.4-3.9,11.1c0.8,3.3,2.4,6,5.9,6.9c3.1,0.8,6.4,0,7.9-3.1
					c1.7-3.7-0.7-8.8-5-8.9c-4.5-0.1-7.1,5.2-3.9,8.6c2,2.2,4.9,1.2,5-1.6c0.1-1.4-1.4-6.2-3.2-3.9c-0.1,0.1,0,1.3,0,1.3
					c0.2,0,0.4,0,0.5-0.2c0.1-0.1-0.1-1,0-1c-0.2,0.1-0.4,0.1-0.5,0c0,0.4,0,0.9,0,1.3c1.7-2,4.6,3.2,1.2,4.1
					c-2.2,0.7-4.4-1.9-3.9-3.9c1-4.7,8.8-4.1,10,0.2c1.7,6.2-6.4,7.9-10.4,5.2c-2.9-2-4.4-7.2-3.6-10.5c0.7-2.4,2.1-3.9,4.1-5.2
					C647.8,281,647.7,280.5,647.7,280.5L647.7,280.5z"/>
				<path class="st10" d="M647.5,276.8c-1.3-0.7-2.3-1.6-3.1-2.9c-0.2-0.4-0.4-1-0.7-1.4c-0.4-1.2-0.8-3.5-0.4-4.7
					c0.7-2.2,3.5-3.3,5.6-2.6c2.7,0.9,4,5.1,0.5,5.9c-1.3,0.3-3.7-0.8-2.8-2.6c0.4-1,1.9-1.2,2.7-1c0,0,0.1-0.8,0-0.9
					c-2.9-1-4.1,3.3-1.9,4.8c3.3,2.2,5.1-2.6,3.9-5c-2.1-4.3-8.1-1.9-8.4,2.2c-0.2,3.3,1.2,7.4,4.4,8.6
					C647.5,277.1,647.6,276.8,647.5,276.8L647.5,276.8z"/>
				<path class="st10" d="M651.4,260.2c-0.2-2.1-0.2-4.5,1.7-5.7c0.8-0.5,1.7-0.8,2.6-0.5c2.6,0.5,3.7,4.1,1.1,5.5
					c-0.9,0.4-2,0.4-2.7-0.2c-1-0.7-1.1-2.1,0.1-2.6c0.5-0.3,1.9-0.2,2.2,0.5s-0.3,1.2-0.9,1.1c-0.7-0.1-0.3-0.4-0.2-0.1
					c0-0.2,0.1-0.5,0-0.9v-0.1l0,0c-0.5,0-0.5,0.8-0.4,1.1c0.3,1.4,1.7,0.8,1.9-0.4c0.1-0.8,0-1.5-0.8-2c-1.3-0.8-2.5,0.3-2.6,1.7
					c0,0.7,0,1.4,0.4,2.1c1.2,1.6,3.7,1,4.6-0.5c1.2-2,0.2-4.8-2-5.5c-2-0.5-3.9,0.8-4.6,2.5c-0.5,1.4-0.3,2.9-0.2,4.4
					C651.4,260.3,651.4,260.2,651.4,260.2L651.4,260.2z"/>
				<path class="st10" d="M652.6,261.5c2.6,4.6,9.5,3.6,10.4-1.6c0.2-1,0.1-2.1,0-3.1c-0.4-2.9-2-4-4.8-4.6c0,0.2,0,0.4,0,0.7
					c0.3-0.1,0.5-0.2,0.9-0.3V252c-0.3,0-0.5,0-0.9,0.1v0.7c2,0.4,3.8,1,4.5,3.1c0.8,2.4,0.2,5.2-1.9,6.8c-2.7,2.1-6.2,1.1-8.2-1.4
					C652.6,261.3,652.6,261.4,652.6,261.5L652.6,261.5z"/>
				<path class="st10" d="M660,255c0.8,0.8,1.3,1.5,1.3,2.6c0.1,1.2-0.5,1.7-1.1,2.7v0.3c1,0,1.2-2.1,1.2-2.8
					C661.4,256.7,661.1,255.4,660,255C660,254.9,660,255,660,255L660,255z"/>
				<path class="st10" d="M662.1,252.6c1.2,1.6,1.9,3.1,2,5.1c0.1,2.2-0.5,3.4-1.6,5.1c0,0.1,0,0.4,0,0.4c2.9-2.4,2.2-8.6-0.3-10.9
					C662.1,252.4,662,252.5,662.1,252.6L662.1,252.6z"/>
				<path class="st10" d="M648.6,282.6c-1.4,1.1-2.6,2.7-2.8,4.6c-0.1,0.7-0.1,1.5,0.4,2c0,0,0-0.3,0-0.4c-1.1-2,1.1-4.5,2.5-5.7
					C648.7,282.9,648.6,282.7,648.6,282.6L648.6,282.6z"/>
				<path class="st10" d="M656.1,287.2c3.5,2.2,5.3,7,2.4,10.5c-0.9,1.1-2.1,1.9-3.4,2.3c-1.5,0.5-2.8,0.1-4.4,0.2v0.2
					c3.9,2.4,9.1-2.1,9.4-6c0.2-3.1-1.1-6.1-4-7.4C656.1,287,656,287.2,656.1,287.2L656.1,287.2z"/>
				<path class="st10" d="M660.2,306.7c-2.4-2.9-1.4-7.5,2.6-8.2c3.2-0.4,7.1,3.4,4.8,6.4c-0.8,1.1-2.2,1.7-3.6,1.4
					c-1.7-0.3-3.3-2.2-2.2-4c0.7-1.1,2.5-1.9,3.5-0.5c0.7,0.9,0,2.3-1.1,1.9s0.1-1.7,0.2-1c0-0.2,0-0.4,0-0.5c0,0.1-0.1,0.2-0.2,0.2
					c0,0,0,0.3,0,0.4c0.4,0.1,0.2-0.5,0.2-0.8l0,0c-0.9-0.3-1.1,1-0.9,1.5c0.4,1.6,2.2,0.9,2.3-0.4c0.1-1.2-0.7-2.3-1.9-2.4
					c-1.7-0.2-2.6,1.5-2.6,2.9c-0.1,4.6,6.4,4.6,7,0.1c0.4-3.4-2.9-6.5-6.3-5.5c-3.8,1.2-4.4,6.1-1.9,8.7
					C660.2,306.9,660.4,306.7,660.2,306.7L660.2,306.7z"/>
				<path class="st10" d="M671.2,302.8c2.3-1.3,5.5-0.9,7.3,1.1c2.5,2.7,0.8,7.3-2.8,8c-1.5,0.3-3.2-0.2-4.1-1.3
					c-1.4-1.7-0.7-4,1.3-4.7c1.2-0.4,3.4,0.2,3.5,1.7c0.1,1-0.7,2.4-1.7,2.2c-1-0.1-1.1-1.4,0.1-1.3v-0.8c-1-0.1-1.4,0.8-1.3,1.7
					c0.4,2,2.7,1.1,3.1-0.4c0.7-2.8-2.4-5.3-4.8-3.2c-2.1,2-0.9,5.9,1.7,6.7c3.7,1.2,6.4-2.2,6.4-5.6c-0.1-4.5-4.9-6.9-8.6-4.5
					C671,302.5,671.2,302.8,671.2,302.8L671.2,302.8z"/>
				<path class="st10" d="M668.1,307c-0.5,0.5-0.7,1.4-0.5,2.2s0.7,2.7,1.7,2.5v-0.3c-0.5-0.5-1.1-0.8-1.4-1.4
					c-0.4-0.9-0.3-1.9,0.2-2.6C668.1,307.3,668,307.1,668.1,307L668.1,307z"/>
				<path class="st10" d="M664.6,308.7c-0.2,0.7-0.2,1.4,0,2.1c0.3,1.1,1.5,2.2,2.7,1.6v-0.3c-0.7-0.1-1.3-0.2-1.9-0.5
					c-0.8-0.5-1.1-1.5-0.8-2.4C664.6,308.9,664.5,308.8,664.6,308.7L664.6,308.7z"/>
				<path class="st10" d="M680.9,300.9c1.2,1.2,1.6,2.8,1.2,4.5c0,0.2,0.1,0.4,0,0.7c0.1-0.1,0.1-0.3,0.2-0.4v-0.3
					c-0.1,0-0.1,0.1-0.2,0.1c0,0.2,0,0.4,0,0.7c0.8-1.7,0.2-4.1-1.2-5.5C680.9,300.7,680.8,300.9,680.9,300.9L680.9,300.9z"/>
				<path class="st10" d="M683.4,300.8c0.3,0.7,0.5,1.4,0.4,2.2c-0.1,0.4-0.2,0.9-0.4,1.3v0.4c0.5-0.3,0.5-1.5,0.4-2.2
					c0-0.8-0.1-1.4-0.5-2.1C683.4,300.7,683.4,300.8,683.4,300.8L683.4,300.8z"/>
				<path class="st10" d="M687.6,298.5c-2,1.4,0.8,5.5,2.1,6.3c3.5,2.3,6.3-1.9,6.1-5c-0.1-1.7-1-3.1-2.9-2.9
					c-1.9,0.1-3.3,1.5-3.4,3.4c0,1.2,0.2,2.5,1.4,3.1c1.5,0.7,2.7-0.5,2.7-2c0-0.4,0-0.9-0.1-1.2c-0.3-0.9-1.5-1.5-2.2-0.7
					c-0.3,0.4-0.3,1.9,0.2,2.1V301c-0.9-1.4,3.1-1.1,1.6,0.8c-0.7,0.9-1.9,0.9-2.7,0.3c-2.9-2,2-5.7,4.3-3.7
					c2.5,2.1-0.7,6.1-3.3,6.2c-1.1,0-2.1-0.4-2.7-1.2c-1-1-2.5-3.6-1.2-4.7C687.6,298.6,687.6,298.5,687.6,298.5L687.6,298.5z"/>
				<path class="st10" d="M690.9,294.2c0.2-1.1,1.5-0.9,2.2-0.4c0.9,0.4,1.3,1.1,2.1,1.6c0,0,0-0.2,0-0.3c-0.5-1.2-3.8-3.6-4.4-1.1
					C690.9,294.1,690.9,294.2,690.9,294.2L690.9,294.2z"/>
				<path class="st10" d="M692.1,291.1c0.9,0.3,1.6,0.8,2.3,1.5c0.3,0.3,0.5,0.9,0.8,1.3c0.1,0.2,0.1,1,0.4,0.9l0,0v-0.1
					c0-0.1,0-0.4,0-0.4h-0.1v0.3c0.1,0,0.1,0,0.1,0.1c0-0.1,0-0.3,0-0.4c-0.3,0-0.2-0.3-0.3-0.5c-0.1-0.4-0.3-0.9-0.7-1.3
					C693.9,291.6,693.1,291.2,692.1,291.1C692.1,291,692.1,291.1,692.1,291.1L692.1,291.1z"/>
				<path class="st10" d="M697,304.2c5.1,1.5,10.5-4.3,10-9.2c-0.2-2.6-1.3-5.6-4.3-6.2c-3.1-0.7-5.7,1.6-5.9,4.6
					c-0.1,1.2,0.1,2.5,0.8,3.5c1.7,2.6,5.2,1.7,5.9-1.2c0.2-1.1,0.1-2.5-0.5-3.4c-1.5-2-4.4-0.9-4.4,1.5c0,1.9,2.6,3.2,3.4,1
					c0.2-0.7-0.3-3.3-1.1-2.3c-0.1,0.1,0,0.5,0,0.7c0,0.1,0.1,0.1,0.1,0.2c-0.1-0.2,0.1-0.4,0-0.7c0-0.1-0.1-0.1-0.1-0.2
					c0,0.2,0,0.4,0,0.7c0.5-0.7,1.2,1.3,0.3,1.9c-0.5,0.3-1.9,0.2-2.2-0.4c-0.7-1.3,0.4-2.6,1.7-2.6c0.9,0,1.6,0.3,2.2,1
					c1.1,1.3,0.3,3.6-1.1,4.5c-0.8,0.4-1.6,0.5-2.4,0.2c-2.7-1-2.9-4.7-1.2-6.8c1.2-1.4,3.2-2,4.9-1.4c2.7,0.8,3.6,3.4,3.7,6
					c0.1,5-5.2,8.5-9.8,8.3C697,303.9,697,304.2,697,304.2L697,304.2z"/>
				<path class="st10" d="M707,291.9c1,1.4,1.2,2.9,1,4.7c0,0.1,0,0.3,0,0.3c0.5-1.9-0.1-4.1-1.1-5.7
					C707.2,291.4,707,291.7,707,291.9L707,291.9z"/>
				<path class="st10" d="M702.6,265.2c3.5-0.2,6,3.1,7.3,5.9c1,2.3,1.6,5.7-0.3,7.5c-1,1-2.4,1.3-3.7,0.7c-2.8-1.3-4.1-7.4-0.1-7.6
					c2.3-0.1,2.6,4,0.5,4.1c-1.9,0.1-1.4-2,0.2-1.3c-0.1,0,0.1-0.8,0-0.8c-1.5-1-2.2,1-1.7,2.2c1,2.5,3.3,0.2,3.4-1.5
					c0.1-1.6-0.7-4-2.7-3.7c-2.2,0.4-2.6,3.1-2.5,4.8c0.1,1.9,0.9,3.7,2.6,4.7c3.2,1.7,5.2-1.5,5.3-4.3c0.2-4.6-2.8-11.9-8.3-11.1
					C702.6,264.9,702.6,265.2,702.6,265.2L702.6,265.2z"/>
				<path class="st10" d="M703.4,268.8c-1.1,0.2-1.7,1-2,2.1c-0.1,0.5-0.1,1.4,0.2,1.9c-0.1-0.1,0-0.3,0-0.4
					c-0.4-1.3,0.5-2.7,1.9-3.2C703.6,269.2,703.4,268.8,703.4,268.8L703.4,268.8z"/>
				<path class="st10" d="M699.6,268.8c-0.2,0.2-0.2,0.5-0.2,0.8c0,0.1,0,0.9,0.2,0.8v-0.2c-0.1-0.2-0.2-0.3-0.2-0.5
					s0.1-0.4,0.2-0.7C699.7,269.1,699.6,268.8,699.6,268.8L699.6,268.8z"/>
				<path class="st10" d="M703.7,282.6c0,0.7,0.1,1.3,0.3,1.9c0.3,0.7,1.6,2,2.4,1.3v-0.4c-0.3-0.3-0.5-0.3-1-0.4
					c-0.3-0.1-0.5-0.2-0.8-0.4c-0.5-0.4-1-1-1-1.7C703.7,282.7,703.7,282.5,703.7,282.6L703.7,282.6z"/>
				<path class="st10" d="M701.5,285c0.4,1.1,1.2,2.2,2.4,2.6c0.8,0.3,1.6,0.1,1.6-0.8c0-0.1,0-0.2,0-0.3c-0.2,0.7-1.4,0.4-1.9,0.2
					c-0.9-0.4-1.6-1.1-2.2-2C701.5,284.8,701.5,284.9,701.5,285L701.5,285z"/>
				<path class="st10" d="M688.4,255.2c0.2-2.5,4.4-5.7,6.8-4.5c2.7,1.3,3.9,6.2,0.8,7.6c-2.1,0.9-6-1.2-3.8-3.5
					c0.7-0.8,1.9-1.1,2.8-0.5c2,1-0.4,3.2-0.9,2c0,0.3,0,0.5,0,0.9c0-0.1,0.1-0.1,0.2-0.1c0-0.2,0-0.3,0-0.5c0,0,0,0.1-0.1,0.1v0.3
					c0,0,0,0,0.1,0c0,0,0-0.4,0-0.5s-0.1-0.2-0.2-0.2c0,0,0,0.8,0,0.9c0.4,1.4,2-0.5,2-1.4c0.1-1.2-0.5-2.5-2-2.6
					c-3.4-0.2-3.4,4.6-1.2,5.9c2,1.3,4.6,0,5.1-2.2c0.2-0.9,0.1-2-0.1-2.8c-0.5-2.4-2.4-4.9-5.1-3.8c-2,0.9-4.3,2.5-4.4,4.8
					C688.4,255.1,688.4,255.2,688.4,255.2L688.4,255.2z"/>
				<path class="st10" d="M680,247.7c-1.2-2.1-2.8-4.8-5.6-4.6c-2.3,0.2-4.6,2.3-5,4.5c-0.7,2.7,1.2,7.7,4.7,6.4
					c2.6-1,2.1-7.2-1.1-6.9c-1.4,0.1-2,1.5-1.7,2.7c0.1,1.1,2.1,2.9,2.5,1.3c0-0.1-0.1-0.4,0-0.4c-0.9,1.2-3.5-1-1.6-2.4
					c0.9-0.7,2.2-0.3,2.8,0.4c1.6,1.7,0.4,4.8-1.9,4.6c-1.3-0.1-2.4-1-3.1-2.1c-2-3.2,1-6.8,4.1-7.3
					C676.8,243.4,678.7,245.8,680,247.7C680,247.8,680.1,247.7,680,247.7L680,247.7z"/>
				<path class="st10" d="M681.2,246.2c3.9,5.9-1.9,12.7-8.2,10.1c0,0-0.1,0.4,0,0.5c0.2,0.1,0.4,0.2,0.7,0.3V257
					c-0.2-0.2-0.4-0.4-0.7-0.7c0,0.2,0,0.3,0,0.5c3.9,1.4,8.4-0.4,9.4-4.8c0.4-2.2,0.1-4.4-1.2-6.1
					C681.2,246,681.2,246.2,681.2,246.2L681.2,246.2z"/>
				<path class="st10" d="M679.9,250.1c0.2,1.2-0.2,2.5-1.1,3.4c-0.7,0.7-1.3,0.9-2.2,1.3v0.5c1.5,0,2.7-1.6,3.2-2.9
					C680,251.6,680,250.8,679.9,250.1C679.9,249.9,679.9,250,679.9,250.1L679.9,250.1z"/>
				<path class="st10" d="M683.3,250.5c0,0.7-0.2,1.4-0.5,2c-0.2,0.5-0.5,1-0.8,1.5v0.3c0.4,0.2,0.9-1.3,1-1.7
					c0.2-0.7,0.2-1.3,0.2-2C683.3,250.6,683.3,250.4,683.3,250.5L683.3,250.5z"/>
				<path class="st10" d="M699.8,256.5c0.1,0.9-0.1,1.7-0.7,2.4c-0.3,0.5-1,0.9-1.3,1.4v0.3c0.9,0.3,1.7-1.9,2-2.5
					c0.1-0.5,0.1-1.2,0-1.7C699.8,256.3,699.8,256.5,699.8,256.5L699.8,256.5z"/>
				<path class="st10" d="M702,257.9c0,0.7-0.4,1.3-0.9,1.7c-0.5,0.5-1.3,0.8-1.7,1.4v0.4c0.8,0.7,2-0.8,2.2-1.4
					C702,259.5,702.1,258.7,702,257.9C702,257.9,702,257.8,702,257.9L702,257.9z"/>
				<path class="st10" d="M666.4,265.7c-1.9,1.3-2.3,4.3-0.3,5.8c2.2,1.6,4.6-0.3,4.3-2.7c-0.3-2.7-4.4-2.4-4.3,0.3
					c0,0.9,0.7,2,1.7,1.3c0.5-0.4,0.5-1.2,0.3-1.7l0,0c-0.3,0.2-0.2,0.1-0.3,0.4c-0.1,0.2,0.1,0.4,0,0.5c0.2-0.4,0.1,0-0.3,0.2
					c-0.3,0.1-0.7,0.1-1-0.1c-0.8-0.5-0.3-1.4,0.3-1.9c1.1-0.8,3.2-0.2,3.4,1.2c0.2,2-2.2,2.9-3.7,2.3
					C664.1,270.2,664.5,267.3,666.4,265.7C666.4,265.9,666.2,265.7,666.4,265.7L666.4,265.7z"/>
				<path class="st10" d="M675.7,268.7c-0.8,1.4-0.7,3.5,0.3,4.8c1.6,2.3,5.6,1.7,5.8-1.3c0.1-2-1.6-4.4-3.7-2.7
					c-1.1,0.9-1.3,3.5,0.3,4c1.1,0.3,1.7-0.8,1.7-1.7c0-0.8-1.1-1.6-1.2-0.4v0.3c0.8-0.3,1.5,0.2,0.7,0.9c-0.7,0.5-1.4,0.2-2-0.3
					c-0.8-1,0.3-2.1,1.2-2.4c0.8-0.2,1.6,0.1,2.2,0.7c1.7,1.9-0.7,3.9-2.6,3.7c-2.6-0.2-3.8-2.9-2.7-5.2
					C675.8,269,675.7,268.8,675.7,268.7L675.7,268.7z"/>
				<path class="st10" d="M689.6,264.7c1.9,0.1,3.8,1.7,2.8,3.7c-0.7,1.4-2.4,2-3.8,1.4c-0.8-0.3-1.9-1.2-1.3-2.2
					c0.4-0.8,1.3-1.2,2.2-1.2c0.8,0,2.1,0.8,1.3,1.6c-0.4,0.5-2.1,0.8-2-0.3c0-0.1,0-0.7,0-0.5c-0.1,0.8-0.1,1.9,0.9,2.1
					c1.1,0.2,1.5-0.8,1.5-1.6c-0.1-2.9-4.3-2-4.1,0.7c0.2,3.1,4.6,3.1,5.6,0.4c0.8-2.1-0.5-4.6-2.9-4.3
					C689.6,264.5,689.6,264.7,689.6,264.7L689.6,264.7z"/>
				<path class="st10" d="M692.8,265.6c0.7,0.4,1.1,1.3,1,2.1c-0.1,0.7-0.5,1.1-0.9,1.5v0.4c0.9-0.1,1-1.6,1-2.3
					c0-0.9-0.3-1.6-1-2.1C692.8,265.4,692.6,265.6,692.8,265.6L692.8,265.6z"/>
				<path class="st10" d="M664.6,265.4c-0.9,0.5-1.2,1.3-1.3,2.3c0,0.4,0,1.9,0.4,1.9c0,0,0-0.2,0-0.3c-0.2-0.8-0.4-1.3-0.2-2.2
					c0.2-0.7,0.5-1.1,1.1-1.5C664.6,265.6,664.6,265.4,664.6,265.4L664.6,265.4z"/>
				<path class="st10" d="M662.8,265.7c-0.8,0.4-1,1.2-1,2.1c0,0.8,0.3,2.2,1.3,2.1v-0.3c-0.4-0.4-1.1-0.9-1.2-1.5
					c-0.2-0.8,0.3-1.4,0.9-1.9C662.9,266,662.8,265.7,662.8,265.7L662.8,265.7z"/>
				<path class="st10" d="M685,253.2c0,0.7-0.2,1.3-0.4,1.9c-0.2,0.5-0.5,0.9-0.8,1.4v0.3c0.5-0.2,0.9-1.2,1.1-1.7
					c0.1-0.5,0.2-1.1,0.2-1.6C685,253.4,685,253.1,685,253.2L685,253.2z"/>
				<path class="st10" d="M686.8,253.8c-0.1,0.5-0.3,1.1-0.7,1.5c-0.3,0.5-0.8,0.9-1,1.4v0.3c0.4,0.1,0.9-0.9,1.1-1.2
					c0.2-0.5,0.4-1.1,0.5-1.6C686.8,254.1,686.8,253.9,686.8,253.8L686.8,253.8z"/>
				<path class="st10" d="M665.9,252c-0.2,0.7-0.3,1.4-0.1,2.2c0.1,0.5,0.3,1.1,0.7,1.6c0.3,0.4,1.1,1.3,1.6,1.1c0,0,0-0.2,0-0.3
					c-0.4-0.5-1.2-0.8-1.6-1.3c-0.7-0.9-0.9-2.1-0.5-3.1C665.9,252.3,665.9,252.2,665.9,252L665.9,252z"/>
				<path class="st10" d="M667.4,252c-0.4,0.7-0.5,1.4-0.3,2.2c0.2,1.2,1.4,2.4,2.6,1.7v-0.2c-0.7-0.2-1.3-0.3-1.9-0.8
					c-0.9-0.7-1-1.7-0.4-2.7C667.4,252.3,667.3,252,667.4,252L667.4,252z"/>
				<path class="st10" d="M706.2,263.9c1.4,0.8,2.5,2,3.1,3.5c0-0.1,0-0.2,0-0.3c-0.5-1.5-1.5-2.6-3.1-3.4V263.9L706.2,263.9z"/>
			</g>
			<path class="st9" d="M671,260.3c-0.2-0.8-0.5-1.6-1-2.3c-0.3-0.7-0.9-1.4-1.6-1.4c-0.8,0-1.3,0.7-1.5,1.3c-0.2,0.7,0,1.4,0.1,2.2
				c0.2,0.9,0.3,1.6,0.5,2.5c0.1,0.4,0.1,1.2,0.7,1.3c0.3,0.1,0.9-0.1,1.3-0.1c0.4-0.1,0.9-0.1,1.3-0.3c0.3-0.1,0.5-0.2,0.7-0.4
				c0-0.1,0-0.3,0-0.4C671.3,261.8,671.3,261.1,671,260.3z M687.2,257.9c-0.2-0.7-0.8-1.3-1.5-1.3c-0.8,0-1.3,0.8-1.6,1.4
				c-0.4,0.8-0.8,1.5-1,2.3c-0.2,0.7-0.3,1.4-0.4,2.2c0,0.1,0,0.3,0,0.4c0.1,0.2,0.4,0.4,0.7,0.4c0.4,0.1,0.9,0.2,1.3,0.3
				c0.3,0.1,0.9,0.2,1.3,0.1c0.5-0.1,0.5-0.9,0.7-1.3c0.2-0.9,0.3-1.6,0.5-2.5C687.2,259.4,687.3,258.6,687.2,257.9z"/>
		</g>
	</g>
</g>
<path class="st13" d="M677.7,213.7v-1.2c0,0-3.9-14.1,5-15.7"/>
</svg>
