<?xml version="1.0" encoding="utf-8"?>
<!-- Generator: Adobe Illustrator 26.3.1, SVG Export Plug-In . SVG Version: 6.00 Build 0)  -->
<svg version="1.1" id="Layer_1" xmlns="http://www.w3.org/2000/svg" xmlns:xlink="http://www.w3.org/1999/xlink" x="0px" y="0px"
	 viewBox="0 0 800 323.7" style="enable-background:new 0 0 800 323.7;" xml:space="preserve">
<style type="text/css">
	.st0{fill:#51D2CE;}
	.st1{fill:#EA39A5;}
	.st2{fill:#221E59;}
	.st3{fill:#DAA84D;}
	.st4{fill:#FFFFFF;}
	.st5{fill:#632BFE;}
	.st6{fill:#2DA9FC;}
	.st7{fill:#9C40D3;}
	.st8{fill:none;stroke:#DAA84D;stroke-width:0.5;stroke-miterlimit:10;}
	.st9{fill:url(#SVGID_1_);}
	.st10{opacity:0.18;fill:#FFFFFF;}
	.st11{opacity:0.32;fill:#00B2C6;}
	.st12{opacity:0.4;fill:#FFFFFF;}
	.st13{fill:#00B2C6;}
	.st14{fill:url(#SVGID_00000134225537340142617580000014688592220073395646_);}
	.st15{opacity:0.63;fill:#E23F55;}
	.st16{fill:#E23F55;}
</style>
<g>
	<g>
		<g>
			<g>
				<path class="st0" d="M487,144.4c0.3-0.5,6.2-13.9,20.8-20.6c4.4-2,12.8-4,12.5-6.6c-0.1-0.7-1-1.2-2.4-1.4
					c-3.9-0.5-8.7,2.1-12.2,4.3C491,129.3,487.3,143.8,487,144.4z"/>
			</g>
		</g>
		<g>
			<g>
				<path class="st0" d="M527.8,111.4c0,0,8.5-13.5,9.2-15.1c0.8-1.6,0.6-3.2-0.3-3.7c-0.9-0.4-2.3,0.5-3,2.1
					C533,96.3,527.8,111.4,527.8,111.4z"/>
			</g>
		</g>
		<g>
			<g>
				<path class="st0" d="M525.2,111.4c0,0-3.6-15.6-4.2-17.2c-0.6-1.7-1.9-2.7-2.8-2.4c-1,0.3-1.3,2-0.7,3.6
					C518.1,97.1,525.2,111.4,525.2,111.4z"/>
			</g>
		</g>
		<g>
			<g>
				<path class="st0" d="M523.4,113.3c0,0-13.5-8.5-15.1-9.2c-1.6-0.8-3.2-0.6-3.7,0.3c-0.4,0.9,0.5,2.3,2.1,3
					C508.2,108.2,523.4,113.3,523.4,113.3z"/>
			</g>
		</g>
		<g>
			<g>
				<path class="st0" d="M525.3,117.8c0,0-8.5,13.5-9.2,15.1c-0.8,1.6-0.6,3.2,0.3,3.7c0.9,0.4,2.3-0.5,3-2.1
					C520.2,132.9,525.3,117.8,525.3,117.8z"/>
			</g>
		</g>
		<g>
			<g>
				<path class="st0" d="M527.9,117.8c0,0,3.6,15.6,4.2,17.2c0.6,1.7,1.9,2.7,2.8,2.4c1-0.3,1.3-2,0.7-3.6
					C535,132.1,527.9,117.8,527.9,117.8z"/>
			</g>
		</g>
		<g>
			<g>
				<path class="st0" d="M529.8,115.9c0,0,13.5,8.5,15.1,9.2c1.6,0.8,3.2,0.6,3.7-0.3c0.4-0.9-0.5-2.3-2.1-3
					C544.9,121,529.8,115.9,529.8,115.9z"/>
			</g>
		</g>
		<g>
			<g>
				<path class="st0" d="M529.7,113.3c0,0,15.6-3.6,17.2-4.2c1.7-0.6,2.7-1.9,2.4-2.8s-2-1.3-3.6-0.7
					C544.1,106.2,529.7,113.3,529.7,113.3z"/>
			</g>
		</g>
	</g>
	<circle class="st0" cx="526.1" cy="94.2" r="2"/>
	<circle class="st0" cx="503.6" cy="112.7" r="2"/>
	<circle class="st0" cx="496.5" cy="109.1" r="1.4"/>
	<path class="st0" d="M541.9,101.5c-0.5-1-1.7-1.4-2.7-0.9c-1,0.5-1.4,1.7-0.9,2.7c0.5,1,1.7,1.4,2.7,0.9S542.4,102.4,541.9,101.5z"
		/>
	<path class="st0" d="M552.8,96c-0.4-0.7-1.2-1-1.9-0.6c-0.7,0.4-1,1.2-0.6,1.9s1.2,1,1.9,0.6C552.9,97.6,553.2,96.7,552.8,96z"/>
	<circle class="st0" cx="521.8" cy="140" r="1.4"/>
	<circle class="st0" cx="539.2" cy="126.9" r="2"/>
	<circle class="st0" cx="549.8" cy="135.9" r="1.4"/>
</g>
<g>
	<g>
		<g>
			<g>
				<path class="st1" d="M315.4,144.4c-0.3-0.5-6.2-13.9-20.8-20.6c-4.4-2-12.8-4-12.5-6.6c0.1-0.7,1-1.2,2.4-1.4
					c3.9-0.5,8.7,2.1,12.2,4.3C311.4,129.3,315.1,143.8,315.4,144.4z"/>
			</g>
		</g>
		<g>
			<g>
				<path class="st1" d="M274.5,111.4c0,0-8.5-13.5-9.2-15.1c-0.8-1.6-0.6-3.2,0.3-3.7s2.3,0.5,3,2.1
					C269.4,96.3,274.5,111.4,274.5,111.4z"/>
			</g>
		</g>
		<g>
			<g>
				<path class="st1" d="M277.2,111.4c0,0,3.6-15.6,4.2-17.2c0.6-1.7,1.9-2.7,2.8-2.4c1,0.3,1.3,2,0.7,3.6
					C284.2,97.1,277.2,111.4,277.2,111.4z"/>
			</g>
		</g>
		<g>
			<g>
				<path class="st1" d="M279,113.3c0,0,13.5-8.5,15.1-9.2c1.6-0.8,3.2-0.6,3.7,0.3c0.4,0.9-0.5,2.3-2.1,3
					C294.1,108.2,279,113.3,279,113.3z"/>
			</g>
		</g>
		<g>
			<g>
				<path class="st1" d="M277.1,117.8c0,0,8.5,13.5,9.2,15.1c0.8,1.6,0.6,3.2-0.3,3.7c-0.9,0.4-2.3-0.5-3-2.1
					C282.2,132.9,277.1,117.8,277.1,117.8z"/>
			</g>
		</g>
		<g>
			<g>
				<path class="st1" d="M274.5,117.8c0,0-3.6,15.6-4.2,17.2c-0.6,1.7-1.9,2.7-2.8,2.4s-1.3-2-0.7-3.6
					C267.4,132.1,274.5,117.8,274.5,117.8z"/>
			</g>
		</g>
		<g>
			<g>
				<path class="st1" d="M272.6,115.9c0,0-13.5,8.5-15.1,9.2c-1.6,0.8-3.2,0.6-3.7-0.3c-0.4-0.9,0.5-2.3,2.1-3
					C257.5,121,272.6,115.9,272.6,115.9z"/>
			</g>
		</g>
		<g>
			<g>
				<path class="st1" d="M272.7,113.3c0,0-15.6-3.6-17.2-4.2c-1.7-0.6-2.7-1.9-2.4-2.8c0.3-1,2-1.3,3.6-0.7
					C258.3,106.2,272.7,113.3,272.7,113.3z"/>
			</g>
		</g>
	</g>
	<circle class="st1" cx="276.2" cy="94.2" r="2"/>
	<circle class="st1" cx="298.7" cy="112.7" r="2"/>
	<circle class="st1" cx="305.9" cy="109.1" r="1.4"/>
	<path class="st1" d="M260.5,101.5c0.5-1,1.7-1.4,2.7-0.9c1,0.5,1.4,1.7,0.9,2.7c-0.5,1-1.7,1.4-2.7,0.9
		C260.3,103.7,259.9,102.4,260.5,101.5z"/>
	<path class="st1" d="M249.6,96c0.4-0.7,1.2-1,1.9-0.6c0.7,0.4,1,1.2,0.6,1.9s-1.2,1-1.9,0.6C249.5,97.6,249.2,96.7,249.6,96z"/>
	<circle class="st1" cx="280.6" cy="140" r="1.4"/>
	<circle class="st1" cx="263.1" cy="126.9" r="2"/>
	<circle class="st1" cx="252.6" cy="135.9" r="1.4"/>
</g>
<g>
	<g>
		<path class="st2" d="M108.7,216h33.4v14.9H90.8v-68.1h50.1v14.9h-32.2V216z M107.4,189.1H137v14.4h-29.6V189.1z"/>
		<path class="st2" d="M154.3,230.9v-68.1h30.2c7.1,0,13.3,1.4,18.6,4.2s9.6,6.7,12.5,11.8c3.1,5,4.5,11.1,4.5,18.1s-1.5,13-4.5,18
			c-3.1,5.1-7.2,9.1-12.5,11.8c-5.3,2.8-11.5,4.2-18.6,4.2H154.3L154.3,230.9z M172.4,215.5h11.4c3.6,0,6.8-0.7,9.6-2.2
			c2.7-1.5,4.8-3.6,6.3-6.4c1.5-2.9,2.3-6.2,2.3-10c0-3.9-0.8-7.3-2.3-10.1s-3.6-4.9-6.3-6.4c-2.8-1.5-5.9-2.2-9.6-2.2h-11.4V215.5z
			"/>
		<path class="st2" d="M261.4,232.3c-9.5,0-16.8-2.8-22.1-8.3s-8-13.3-8-23.4v-37.8h18.1V200c0,5.8,1.1,10,3.2,12.6
			c2.2,2.6,5.1,3.8,8.9,3.8s6.7-1.3,8.9-3.8c2.2-2.6,3.2-6.7,3.2-12.6v-37.2h17.8v37.8c0,10.1-2.7,17.9-8,23.4
			S270.8,232.3,261.4,232.3z"/>
		<path class="st2" d="M305.8,230.9v-68.1h14.9l26.5,46.4h-7.9l25.7-46.4h14.9l0.2,68.1h-16.6l-0.2-41.2h2.9l-19.3,34.5h-8.1
			L319,189.7h3.4v41.2H305.8z"/>
		<path class="st2" d="M387.3,230.9l28.2-68.1h17.8l28.3,68.1h-18.8l-22.1-58.7h7.1l-22.1,58.7H387.3L387.3,230.9z M402.8,217.6
			l4.6-14.2h31.2l4.6,14.2H402.8z"/>
		<path class="st2" d="M491.4,232.3c-5.2,0-10.2-0.7-15.1-2.1s-8.8-3.2-11.8-5.4l5.9-14.2c2.9,2,6.2,3.5,9.9,4.8
			c3.7,1.3,7.5,1.9,11.2,1.9c2.5,0,4.5-0.2,6-0.7s2.7-1.2,3.3-2c0.7-0.8,1.1-1.8,1.1-2.9c0-1.6-0.7-2.8-2-3.7
			c-1.4-0.9-3.1-1.7-5.2-2.3c-2.2-0.6-4.5-1.2-7.1-1.8s-5.2-1.4-7.8-2.3c-2.6-0.9-4.9-2.1-7.1-3.5c-2.2-1.5-3.8-3.3-5.2-5.7
			s-2-5.4-2-9c0-4.1,1.1-7.8,3.2-11.1s5.2-6,9.5-8c4.2-2,9.5-3.1,15.7-3.1c4.2,0,8.3,0.5,12.4,1.5c4,1,7.7,2.5,10.8,4.4l-5.6,14.3
			c-3.1-1.8-6-3.1-9.1-3.9c-3-0.9-5.9-1.3-8.7-1.3c-2.5,0-4.5,0.3-6,0.8c-1.5,0.6-2.7,1.3-3.2,2.2c-0.7,0.9-1,2-1,3.2
			c0,1.5,0.7,2.7,2,3.5c1.3,0.9,3.1,1.6,5.2,2.2c2.2,0.6,4.5,1.1,7.1,1.7s5.2,1.3,7.8,2.2c2.6,0.9,4.9,2.1,7.1,3.5
			c2.2,1.5,3.8,3.3,5.1,5.7s2,5.3,2,8.9c0,3.9-1.1,7.6-3.2,10.9c-2.1,3.3-5.2,6-9.4,8.1C502.9,231.2,497.7,232.3,491.4,232.3z"/>
		<path class="st2" d="M543.8,230.9V178h-19.6v-15.3h57.2V178h-19.6v52.9H543.8z"/>
		<path class="st2" d="M608.2,216h33.4v14.9h-51.2v-68.1h50.1v14.9h-32.2L608.2,216L608.2,216L608.2,216z M606.9,189.1h29.6v14.4
			h-29.6V189.1z"/>
		<path class="st2" d="M653.9,230.9v-68.1h29.2c5.8,0,10.8,1,15.1,3.1c4.2,2,7.5,4.9,9.8,8.8c2.3,3.8,3.4,8.3,3.4,13.5
			c0,5.1-1.2,9.6-3.4,13.3c-2.3,3.7-5.6,6.6-9.8,8.6s-9.3,3-15.1,3h-19.2l8.1-8.1v26L653.9,230.9L653.9,230.9z M671.9,206.8
			l-8.1-8.9h18.1c3.7,0,6.6-0.9,8.5-2.7s2.8-4.2,2.8-7.3c0-3.2-0.9-5.6-2.8-7.4c-1.9-1.8-4.6-2.7-8.5-2.7h-18.1l8.1-8.9V206.8z
			 M693.3,230.9l-15.9-24.8h19.2l16,24.8H693.3z"/>
	</g>
</g>
<g>
	<path class="st3" d="M465.8,141.8h-129c-0.4,0-0.6-0.3-0.6-0.6v-14.8c0-0.4,0.3-0.6,0.6-0.6h129c0.4,0,0.6,0.3,0.6,0.6v14.8
		C466.5,141.5,466.2,141.8,465.8,141.8z"/>
	<g>
		<circle class="st2" cx="401.3" cy="74.6" r="13.6"/>
		<g>
			<g>
				<path class="st2" d="M410.9,59.6L410.9,59.6c0.1-14.1,7.6-25.5,7.6-25.5c-12.3-9.2-16.2-33.5-16.2-33.5l0,0v29.7
					c2.2,0.5,3.8,2.7,3.3,5c-0.3,1.7-1.7,3.2-3.3,3.5c-2.9,0.6-5.3-1.6-5.3-4.2c0-2.1,1.5-3.8,3.4-4.2V0.6l0,0
					c0,0-3.9,24.2-16.2,33.5c0,0,7.6,11.4,7.6,25.5h0.1c2.8-1.4,6-2.3,9.6-2.3S408.1,58.1,410.9,59.6z"/>
			</g>
		</g>
	</g>
	<g>
		<g>
			<g>
				<path class="st3" d="M488.4,62.3l-32,8.8c-0.7,0.2-0.7,1.1,0,1.3c3.8,1,10.3,3.3,8.2,7.9c-3,6.3-6.7,5.4-11.5,19.2
					c-0.1,0.2-0.3,0.4-0.5,0.4c-2.4,0.3-15.8,1.4-36.7-11.2c-0.3-0.2-0.7-0.1-0.9,0.2l-8.7,14c-0.2,0.3-0.1,0.6,0.1,0.9
					c2.5,2.1,16.4,12.2,59.7,15.2c0.4,0,0.8-0.3,0.7-0.7c-0.3-3.2,0.4-16.4,22.3-54.8C489.5,62.7,489,62.1,488.4,62.3z"/>
			</g>
			<path class="st3" d="M314.3,62.3l32,8.8c0.7,0.2,0.7,1.1,0,1.3c-3.8,1-10.3,3.3-8.2,7.9c3,6.3,6.7,5.4,11.5,19.2
				c0.1,0.2,0.3,0.4,0.5,0.4c2.4,0.3,15.8,1.4,36.7-11.2c0.3-0.2,0.7-0.1,0.9,0.2l8.7,14c0.2,0.3,0.1,0.6-0.1,0.9
				c-2.5,2.1-16.4,12.2-59.7,15.2c-0.4,0-0.8-0.3-0.7-0.7c0.3-3.2-0.4-16.4-22.3-54.8C313.2,62.7,313.7,62.1,314.3,62.3z"/>
		</g>
	</g>
</g>
<path class="st3" d="M336.2,142v-16.5c0-0.4,0.3-0.8,0.8-0.8h128.7c0.4,0,0.8,0.3,0.8,0.8V142c0,0.4-0.3,0.8-0.8,0.8H337
	C336.5,142.8,336.2,142.4,336.2,142z"/>
<path class="st4" d="M271.9,63.5c0,0.9-0.7,1.7-1.7,1.7c-0.9,0-1.7-0.7-1.7-1.7c0-0.9,0.7-1.7,1.7-1.7
	C271.1,61.9,271.9,62.6,271.9,63.5z"/>
<g>
	<g>
		<g>
			<g>
				<g>
					<path class="st5" d="M66.1,31.6c-0.4-2.9-1.4-11.5-1.4-12.6c0-1.4,0.6-2.5,1.4-2.5c0,0,0,0,0,0c0,0,0,0,0,0
						c0.8,0,1.4,1.1,1.4,2.5C67.5,20.1,66.5,28.7,66.1,31.6z"/>
				</g>
			</g>
			<g>
				<g>
					<path class="st5" d="M66.1,53.9c-0.8,0-1.5-1.1-1.5-2.4s1.5-13.2,1.5-13.2s1.5,11.8,1.5,13.2S66.9,53.9,66.1,53.9z"/>
				</g>
			</g>
			<g>
				<g>
					<path class="st5" d="M64.1,37c0,0-7.6,9.7-8.5,10.7c-0.9,1-2.2,1.3-2.7,0.7c-0.6-0.6-0.3-1.8,0.7-2.8
						C54.5,44.7,64.1,37,64.1,37z"/>
					<path class="st5" d="M68.1,37c0,0,7.6,9.7,8.5,10.7c0.9,1,2.2,1.3,2.7,0.7c0.6-0.6,0.3-1.8-0.7-2.8C77.7,44.7,68.1,37,68.1,37z
						"/>
				</g>
			</g>
			<g>
				<g>
					<path class="st5" d="M63.4,35.1c0,0-12.2,1.5-13.6,1.6s-2.5-0.6-2.5-1.4c0-0.8,1.1-1.4,2.4-1.5C51.2,33.8,63.4,35.1,63.4,35.1z
						"/>
					<path class="st5" d="M68.8,35.1c0,0,12.2,1.5,13.6,1.6c1.4,0,2.5-0.6,2.5-1.4c0-0.8-1.1-1.4-2.4-1.5
						C81,33.8,68.8,35.1,68.8,35.1z"/>
				</g>
			</g>
			<g>
				<g>
					<path class="st5" d="M64.3,33.3c0,0-9.7-7.6-10.7-8.5s-1.3-2.2-0.7-2.7c0.6-0.6,1.8-0.3,2.8,0.7C56.6,23.7,64.3,33.3,64.3,33.3
						z"/>
					<path class="st5" d="M67.9,33.3c0,0,9.7-7.6,10.7-8.5s1.3-2.2,0.7-2.7c-0.6-0.6-1.8-0.3-2.8,0.7C75.6,23.7,67.9,33.3,67.9,33.3
						z"/>
				</g>
			</g>
		</g>
	</g>
	<circle class="st5" cx="80.5" cy="28.8" r="1.7"/>
	<circle class="st5" cx="59.6" cy="52.3" r="1.7"/>
	<circle class="st5" cx="43.5" cy="42.9" r="1.7"/>
	<circle class="st5" cx="87" cy="27.2" r="1.2"/>
	<circle class="st5" cx="80" cy="55.1" r="1.2"/>
	<circle class="st5" cx="49.4" cy="57.8" r="1.2"/>
</g>
<g>
	<g>
		<g>
			<g>
				<g>
					<path class="st3" d="M534.5,15.9c0.3-2.2,1.1-8.5,1.1-9.3c0-1-0.5-1.8-1-1.8c0,0,0,0,0,0s0,0,0,0c-0.6,0-1.1,0.8-1,1.8
						C533.5,7.3,534.2,13.7,534.5,15.9z"/>
				</g>
			</g>
			<g>
				<g>
					<path class="st3" d="M534.5,32.4c0.6,0,1.1-0.8,1.1-1.8c0-1-1.1-9.8-1.1-9.8s-1.1,8.7-1.1,9.8
						C533.4,31.6,533.9,32.4,534.5,32.4z"/>
				</g>
			</g>
			<g>
				<g>
					<path class="st3" d="M536,19.8c0,0,5.6,7.2,6.3,7.9c0.7,0.7,1.6,1,2,0.6c0.4-0.4,0.2-1.3-0.5-2C543.1,25.6,536,19.8,536,19.8z"
						/>
					<path class="st3" d="M533,19.8c0,0-5.6,7.2-6.3,7.9c-0.7,0.7-1.6,1-2,0.6c-0.4-0.4-0.2-1.3,0.5-2C525.9,25.6,533,19.8,533,19.8
						z"/>
				</g>
			</g>
			<g>
				<g>
					<path class="st3" d="M536.5,18.4c0,0,9.1,1.1,10.1,1.1c1,0,1.8-0.5,1.8-1c0-0.6-0.8-1.1-1.8-1.1
						C545.6,17.4,536.5,18.4,536.5,18.4z"/>
					<path class="st3" d="M532.5,18.4c0,0-9.1,1.1-10.1,1.1s-1.8-0.5-1.8-1c0-0.6,0.8-1.1,1.8-1.1C523.5,17.4,532.5,18.4,532.5,18.4
						z"/>
				</g>
			</g>
			<g>
				<g>
					<path class="st3" d="M535.8,17.1c0,0,7.2-5.6,7.9-6.3c0.7-0.7,1-1.6,0.6-2c-0.4-0.4-1.3-0.2-2,0.5
						C541.6,10,535.8,17.1,535.8,17.1z"/>
					<path class="st3" d="M533.2,17.1c0,0-7.2-5.6-7.9-6.3c-0.7-0.7-1-1.6-0.6-2c0.4-0.4,1.3-0.2,2,0.5
						C527.5,10,533.2,17.1,533.2,17.1z"/>
				</g>
			</g>
		</g>
	</g>
	<circle class="st3" cx="523.9" cy="13.8" r="1.3"/>
	<circle class="st3" cx="539.3" cy="31.1" r="1.3"/>
	<circle class="st3" cx="551.3" cy="24.2" r="1.3"/>
	<circle class="st3" cx="519.1" cy="12.5" r="0.9"/>
	<circle class="st3" cx="524.2" cy="33.2" r="0.9"/>
	<circle class="st3" cx="546.9" cy="35.2" r="0.9"/>
</g>
<g>
	<g>
		<g>
			<g>
				<g>
					<path class="st3" d="M224.9,269.1c0.4-2.9,1.4-11.3,1.4-12.4c0-1.3-0.6-2.4-1.4-2.4c0,0,0,0,0,0c0,0,0,0,0,0
						c-0.8,0-1.4,1.1-1.4,2.4C223.5,257.7,224.6,266.2,224.9,269.1z"/>
				</g>
			</g>
			<g>
				<g>
					<path class="st3" d="M224.9,291c0.8,0,1.4-1.1,1.5-2.4c0-1.3-1.5-13-1.5-13s-1.5,11.6-1.5,13C223.5,290,224.1,291,224.9,291z"
						/>
				</g>
			</g>
			<g>
				<g>
					<path class="st3" d="M226.9,274.4c0,0,7.4,9.6,8.4,10.5c0.9,1,2.1,1.3,2.7,0.7c0.6-0.5,0.2-1.8-0.7-2.7
						C236.4,282,226.9,274.4,226.9,274.4z"/>
					<path class="st3" d="M223,274.4c0,0-7.4,9.6-8.4,10.5c-0.9,1-2.1,1.3-2.7,0.7c-0.6-0.5-0.2-1.8,0.7-2.7
						C213.5,282,223,274.4,223,274.4z"/>
				</g>
			</g>
			<g>
				<g>
					<path class="st3" d="M227.6,272.5c0,0,12,1.5,13.4,1.5c1.3,0,2.4-0.6,2.4-1.4c0-0.8-1.1-1.4-2.4-1.4
						C239.6,271.2,227.6,272.5,227.6,272.5z"/>
					<path class="st3" d="M222.3,272.5c0,0-12,1.5-13.4,1.5c-1.3,0-2.4-0.6-2.4-1.4s1.1-1.4,2.4-1.4
						C210.2,271.2,222.3,272.5,222.3,272.5z"/>
				</g>
			</g>
			<g>
				<g>
					<path class="st3" d="M226.7,270.7c0,0,9.6-7.4,10.5-8.4c1-0.9,1.3-2.1,0.7-2.7c-0.5-0.6-1.8-0.2-2.7,0.7
						C234.3,261.2,226.7,270.7,226.7,270.7z"/>
					<path class="st3" d="M223.2,270.7c0,0-9.6-7.4-10.5-8.4c-1-0.9-1.3-2.1-0.7-2.7c0.5-0.6,1.8-0.2,2.7,0.7
						C215.6,261.2,223.2,270.7,223.2,270.7z"/>
				</g>
			</g>
		</g>
	</g>
	<circle class="st3" cx="210.8" cy="266.3" r="1.7"/>
	<circle class="st3" cx="231.3" cy="289.4" r="1.7"/>
	<circle class="st3" cx="247.2" cy="280.1" r="1.7"/>
	<circle class="st3" cx="204.4" cy="264.7" r="1.2"/>
	<circle class="st3" cx="211.2" cy="292.2" r="1.2"/>
	<circle class="st3" cx="241.4" cy="294.8" r="1.2"/>
</g>
<g>
	<path class="st3" d="M721.4,144.2c7.6,0.7,10-2.5,10.8-5.3c0.3-1,0.2-2,0-3c2.3-0.9,4.2-2.7,4.9-5.1c0.3-1.1,0.2-2.1,0-3.2
		c1.5-0.8,2.7-2.1,3.1-3.9c1-3.9-1.5-6.4-3.9-8.7l-1.9,1.9l0,0c2.4,2.4,3.8,3.8,3.2,6.2c-0.2,0.9-0.8,1.5-1.6,2
		c-1.5-2.6-4-4.8-6.2-5.3c-0.1,0-2.9-0.7-4.6,0.5c-0.7,0.5-1.1,1.3-1.1,2.2c-0.1,2.6,2.1,4.7,6.1,5.7c1.4,0.4,2.9,0.4,4.3,0.2
		c0.1,0.6,0.1,1.2,0,1.7c-0.4,1.5-1.7,2.6-3.3,3.2c-1.1-1.9-3-3.4-5.3-4c-1.5-0.4-4.9-1.3-5.9,1.5c-0.3,0.8-0.2,1.7,0.2,2.4
		c0.9,1.7,3.3,2.6,5.1,3.1c1.4,0.3,2.8,0.4,4.3,0.2c0.1,0.6,0.1,1.1,0,1.7c-0.2,1-1,3.9-7.9,3.3L721.4,144.2z M728.4,134
		c-0.8,0-1.6,0-2.4-0.2c-2-0.5-3.2-1.2-3.5-1.7c0-0.1-0.1-0.2,0-0.3c0.1-0.1,0.6-0.3,2.7,0.2C726.5,132.3,727.6,133,728.4,134z
		 M733.4,125.8c-0.8,0.1-1.7,0-2.5-0.2c-2-0.5-4.1-1.6-4.1-3.1c0-0.1,0-0.1,0-0.1c0.4-0.3,1.7-0.3,2.4-0.1
		C730.5,122.7,732.2,124.1,733.4,125.8z"/>
</g>
<path class="st6" d="M697.2,16.1l-6.2-1.9c0,0-0.6,2.6,1.3,6.3c3.4,1.7,6.7,0.5,6.7,0.5L697.2,16.1z"/>
<path class="st1" d="M777.4,301.1l-6.2-1.9c0,0-0.6,2.6,1.3,6.3c3.4,1.7,6.7,0.5,6.7,0.5L777.4,301.1z"/>
<path class="st6" d="M753.4,112.5l-1.5,5.3c0,0,2.2,0.4,5.4-1.3c1.4-3,0.2-5.7,0.2-5.7L753.4,112.5z"/>
<path class="st1" d="M775.2,39.1l4.4,3.3c0,0-1.5,1.7-5,2.3c-2.9-1.5-3.7-4.4-3.7-4.4L775.2,39.1z"/>
<path class="st7" d="M729.8,194l-4.5,4.7c0,0,2.8,0.5,5.3,2.5c3.1-2.3,4.3-6.6,4.3-6.6L729.8,194z"/>
<path class="st7" d="M677,71l-4.5,4.7c0,0,2.8,0.5,5.3,2.5c3.1-2.3,4.3-6.6,4.3-6.6L677,71z"/>
<g>
	<path class="st3" d="M394.9,263c7.6-0.7,10,2.5,10.8,5.3c0.3,1,0.2,2,0,3c2.3,0.9,4.2,2.7,4.9,5.1c0.3,1.1,0.2,2.1,0,3.2
		c1.5,0.8,2.7,2.1,3.1,3.9c1,3.9-1.5,6.4-3.9,8.7l-1.9-1.9l0,0c2.4-2.4,3.8-3.8,3.2-6.2c-0.2-0.9-0.8-1.5-1.6-2
		c-1.5,2.6-4,4.8-6.2,5.3c-0.1,0-2.9,0.7-4.6-0.5c-0.7-0.5-1.1-1.3-1.1-2.2c-0.1-2.6,2.1-4.7,6.1-5.7c1.4-0.4,2.9-0.4,4.3-0.2
		c0.1-0.6,0.1-1.2,0-1.7c-0.4-1.5-1.7-2.6-3.3-3.2c-1.1,1.9-3,3.4-5.3,4c-1.5,0.4-4.9,1.3-5.9-1.5c-0.3-0.8-0.2-1.7,0.2-2.4
		c0.9-1.7,3.3-2.6,5.1-3.1c1.4-0.3,2.8-0.4,4.3-0.2c0.1-0.6,0.1-1.1,0-1.7c-0.2-1-1-3.9-7.9-3.3L394.9,263z M401.9,273.2
		c-0.8,0-1.6,0-2.4,0.2c-2,0.5-3.2,1.2-3.5,1.7c0,0.1-0.1,0.2,0,0.3c0.1,0.1,0.6,0.3,2.7-0.2C400,274.9,401.1,274.1,401.9,273.2z
		 M406.9,281.3c-0.8-0.1-1.7,0-2.5,0.2c-2,0.5-4.1,1.6-4.1,3.1c0,0.1,0,0.1,0,0.1c0.4,0.3,1.7,0.3,2.4,0.1
		C404,284.5,405.7,283.1,406.9,281.3z"/>
</g>
<path class="st1" d="M562.2,286.3l-6.2,1.9c0,0-0.6-2.6,1.3-6.3c3.4-1.7,6.7-0.5,6.7-0.5L562.2,286.3z"/>
<path class="st6" d="M474.4,269.5l-1.5-5.3c0,0,2.2-0.4,5.4,1.3c1.4,3,0.2,5.7,0.2,5.7L474.4,269.5z"/>
<path class="st7" d="M403.6,313.6l-4.5-4.7c0,0,2.8-0.5,5.3-2.5c3.1,2.3,4.3,6.6,4.3,6.6L403.6,313.6z"/>
<path class="st6" d="M38.6,269.4l1.5,5.3c0,0-2.2,0.4-5.4-1.3c-1.4-3-0.2-5.7-0.2-5.7L38.6,269.4z"/>
<path class="st7" d="M53.6,223.9l4.5,4.7c0,0-2.8,0.5-5.3,2.5c-3.1-2.3-4.3-6.6-4.3-6.6L53.6,223.9z"/>
<path class="st6" d="M755.3,228.7l4.5,4.7c0,0-2.8,0.5-5.3,2.5c-3.1-2.3-4.3-6.6-4.3-6.6L755.3,228.7z"/>
<path class="st3" d="M148.3,44.2l-6.2,1.9c0,0-0.6-2.6,1.3-6.3c3.4-1.7,6.7-0.5,6.7-0.5L148.3,44.2z"/>
<path class="st1" d="M116.4,284.2l4.4-3.3c0,0-1.5-1.7-5-2.3c-2.9,1.5-3.7,4.4-3.7,4.4L116.4,284.2z"/>
<path class="st7" d="M5.7,135.1l-4.5-4.7c0,0,2.8-0.5,5.3-2.5c3.1,2.3,4.3,6.6,4.3,6.6L5.7,135.1z"/>
<path class="st6" d="M162.4,97.8l4.5-4.7c0,0-2.8-0.5-5.3-2.5c-3.1,2.3-4.3,6.6-4.3,6.6L162.4,97.8z"/>
<g>
	<path class="st8" d="M88,143.1c1,0.2,1.7,1.2,1.9,2.3c0.2,1-0.1,2.1-0.2,3.1c-0.2,1-0.3,2.1,0.1,3.1c0.4,1,1.4,1.8,2.4,1.5"/>
	<g>
		
			<linearGradient id="SVGID_1_" gradientUnits="userSpaceOnUse" x1="139.8482" y1="114.2117" x2="129.534" y2="143.0532" gradientTransform="matrix(-1 0 0 1 216.375 0)">
			<stop  offset="0" style="stop-color:#51D2CE"/>
			<stop  offset="1" style="stop-color:#00A29D"/>
		</linearGradient>
		<path class="st9" d="M63.3,110.5L63.3,110.5c1.5-3.7,4.4-6.5,7.8-8l0,0c0.1,0,0.1,0,0.2-0.1c0.1,0,0.1-0.1,0.2-0.1l0,0
			c3.5-1.4,7.4-1.5,11.1,0l0,0c9.3,3.9,12.8,13.8,12.1,21.3c-0.8,8.4-5.7,15.6-7,17.4l0.1,0.2c0,0-0.1,0-0.2,0
			c-0.1,0.1-0.1,0.2-0.1,0.2l-0.1-0.2c-2.1-0.3-10.7-1.9-17.3-7.2C64.2,129.3,59.6,119.9,63.3,110.5z"/>
		<path class="st10" d="M76.1,113c1.2,2.9,2.1,6,2.5,9.1c0.5,4-1.3,6.5-5.3,7.1c0,0,0,0,0,0c-2.5,0.3-4.9-1-6.1-3.2
			c-2.3-4.2-3.2-9.3-1.2-14.5c1.2-2.9,3.4-5.2,6.3-6.4l0.1-0.1l0.2-0.1c0,0,0.1,0,0.1,0C74.1,107.7,75.1,110.2,76.1,113z"/>
		<path class="st11" d="M69.2,130.9c11.4,7.6,21.2,0.8,23.4-10c0.6-3.2,0.6-6.4-0.3-9.5c2.1,4,2.9,8.5,2.5,12.4
			c-0.8,8.4-5.7,15.6-7,17.4l0.1,0.2c0,0-0.1,0-0.2,0c-0.1,0.1-0.1,0.2-0.1,0.2l-0.1-0.2c-2.1-0.3-10.7-1.9-17.3-7.2
			c-2.4-2-4.6-4.7-6.1-7.9C65.4,128,67.2,129.6,69.2,130.9z"/>
		<path class="st12" d="M66.3,113.9c-0.8,0.2-1.6-0.6-1.3-1.4c0,0,0,0,0,0c1.3-3.6,4-6.7,7.4-7.9c0.1,0,0.3,0,0.4,0.1
			c0.2,0.2,0.3,0.5,0.1,0.7l0,0c-1.2,1.7-2,3.4-2.5,5.2c-0.5,1.7-1.9,3-3.6,3.3C66.7,113.8,66.5,113.8,66.3,113.9z"/>
		<path class="st12" d="M64.1,118.5c0.4,0.9,1.7,1.3,2.8,0.8c1.2-0.5,1.8-1.6,1.4-2.6c-0.4-0.9-1.7-1.3-2.8-0.8
			C64.3,116.4,63.7,117.6,64.1,118.5z"/>
		<path class="st13" d="M87.4,142.8c0-0.4,0.1-0.7,0.1-1.1c-0.3,0.1-0.5,0-0.6-0.1c-0.1-0.2,0.1-0.5,0.5-0.6
			c0.3-0.1,0.7-0.1,0.8,0.1c0.1,0.2-0.1,0.4-0.3,0.5c0.2,0.2,0.5,0.4,0.7,0.5c0.3,0.2,0.5,0.3,0.8,0.5c0.3,0.2,0.3,0.7-0.1,0.9
			l-1.4,0.6c-0.1,0-0.3,0.1-0.5-0.1C87.2,143.8,87.1,143.3,87.4,142.8z"/>
	</g>
</g>
<g>
	<path class="st8" d="M691.6,306.8c-1,0.2-1.7,1.3-1.8,2.3c-0.1,1,0.1,2.1,0.3,3.1c0.2,1,0.4,2.1,0,3.1c-0.4,1-1.4,1.8-2.4,1.6"/>
	<g>
		
			<linearGradient id="SVGID_00000106830538925046249790000016046447083058601646_" gradientUnits="userSpaceOnUse" x1="696.2106" y1="270.6939" x2="710.2106" y2="309.9439" gradientTransform="matrix(-1 0 0 1 1400.9756 0)">
			<stop  offset="0" style="stop-color:#E2455A"/>
			<stop  offset="0.4123" style="stop-color:#D73950"/>
			<stop  offset="1" style="stop-color:#C2213B"/>
		</linearGradient>
		<path style="fill:url(#SVGID_00000106830538925046249790000016046447083058601646_);" d="M715.3,273.4L715.3,273.4
			c-1.6-3.7-4.6-6.3-8-7.7l0,0c-0.1,0-0.1,0-0.2-0.1c-0.1,0-0.1-0.1-0.2-0.1l0,0c-3.5-1.3-7.5-1.2-11.1,0.4h0
			c-9.2,4.2-12.4,14.2-11.4,21.7c1,8.4,6.2,15.4,7.5,17.1l-0.1,0.2c0,0,0.1,0,0.2,0c0.1,0.1,0.2,0.2,0.2,0.2l0.1-0.2
			c2.1-0.4,10.7-2.2,17-7.7C714.9,292.2,719.3,282.6,715.3,273.4z"/>
		<path class="st10" d="M702.5,276.2c-1.1,2.9-1.9,6.1-2.2,9.2c-0.4,4,1.5,6.4,5.5,6.9c0,0,0,0,0,0c2.5,0.3,4.8-1.1,6-3.3
			c2.2-4.2,2.9-9.4,0.7-14.5c-1.3-2.8-3.6-5.1-6.5-6.2l-0.1-0.1l-0.2-0.1c0,0-0.1,0-0.1,0C704.4,270.9,703.5,273.5,702.5,276.2z"/>
		<path class="st15" d="M710,293.9c-11.1,7.9-21.1,1.4-23.6-9.3c-0.7-3.2-0.8-6.4,0-9.5c-2,4.1-2.6,8.6-2.1,12.5
			c1,8.4,6.2,15.4,7.5,17.1l-0.1,0.2c0,0,0.1,0,0.2,0c0.1,0.1,0.2,0.2,0.2,0.2l0.1-0.2c2.1-0.4,10.7-2.2,17-7.7
			c2.3-2,4.5-4.9,5.9-8.1C713.7,290.9,712,292.6,710,293.9z"/>
		<path class="st12" d="M712.4,276.9c0.8,0.1,1.5-0.7,1.2-1.5c0,0,0,0,0,0c-1.4-3.6-4.2-6.6-7.6-7.7c-0.1,0-0.3,0-0.4,0.1
			c-0.2,0.2-0.3,0.5-0.1,0.7l0,0c1.2,1.7,2.1,3.4,2.7,5.1c0.6,1.7,2,2.9,3.7,3.2C712,276.8,712.2,276.8,712.4,276.9z"/>
		<path class="st12" d="M714.7,281.4c-0.4,1-1.6,1.4-2.8,0.9c-1.2-0.4-1.8-1.6-1.4-2.5c0.4-1,1.6-1.4,2.8-0.9
			C714.4,279.3,715.1,280.5,714.7,281.4z"/>
		<path class="st16" d="M692.1,306.4c0-0.4-0.1-0.7-0.1-1.1c0.3,0.1,0.5,0,0.6-0.2c0.1-0.2-0.1-0.5-0.5-0.6
			c-0.3-0.1-0.7-0.1-0.8,0.1c-0.1,0.2,0.1,0.4,0.3,0.5c-0.2,0.2-0.4,0.4-0.7,0.6c-0.3,0.2-0.5,0.4-0.8,0.5c-0.3,0.2-0.2,0.7,0.1,0.9
			l1.4,0.5c0.1,0,0.3,0,0.5-0.1C692.4,307.4,692.5,306.9,692.1,306.4z"/>
	</g>
</g>
</svg>
