<?xml version="1.0" encoding="utf-8"?>
<!-- Generator: Adobe Illustrator 25.3.0, SVG Export Plug-In . SVG Version: 6.00 Build 0)  -->
<svg version="1.1" id="Layer_1" xmlns="http://www.w3.org/2000/svg" xmlns:xlink="http://www.w3.org/1999/xlink" x="0px" y="0px"
	 viewBox="0 0 800 323.7" style="enable-background:new 0 0 800 323.7;" xml:space="preserve">
<style type="text/css">
	.st0{fill:#221E59;}
	.st1{fill:#DAA84D;}
	.st2{fill:#F4B860;}
	.st3{fill:#FFFFFF;}
	.st4{fill:url(#SVGID_1_);}
	.st5{fill:url(#SVGID_2_);}
	.st6{fill:url(#SVGID_3_);}
	.st7{fill:url(#SVGID_4_);}
	.st8{fill:url(#SVGID_5_);}
	.st9{opacity:0.2;fill:url(#SVGID_6_);enable-background:new    ;}
	.st10{opacity:0.4;clip-path:url(#SVGID_8_);}
	.st11{fill:none;stroke:#984600;stroke-miterlimit:10;}
	.st12{clip-path:url(#SVGID_12_);fill:#F4B860;}
	.st13{clip-path:url(#SVGID_18_);fill:#1B3860;}
	.st14{clip-path:url(#SVGID_24_);fill:#DAA84D;}
</style>
<g>
	<g>
		<path class="st0" d="M108.7,216h33.4v14.9H90.8v-68.1h50.1v14.9h-32.2V216z M107.4,189.1H137v14.4h-29.6V189.1z"/>
		<path class="st0" d="M154.3,230.9v-68.1h30.2c7.1,0,13.3,1.4,18.6,4.2s9.6,6.7,12.5,11.8c3.1,5,4.5,11.1,4.5,18.1s-1.5,13-4.5,18
			c-3.1,5.1-7.2,9.1-12.5,11.8c-5.3,2.8-11.5,4.2-18.6,4.2H154.3L154.3,230.9z M172.4,215.5h11.4c3.6,0,6.8-0.7,9.6-2.2
			c2.7-1.5,4.8-3.6,6.3-6.4c1.5-2.9,2.3-6.2,2.3-10c0-3.9-0.8-7.3-2.3-10.1s-3.6-4.9-6.3-6.4c-2.8-1.5-5.9-2.2-9.6-2.2h-11.4V215.5z
			"/>
		<path class="st0" d="M261.4,232.3c-9.5,0-16.8-2.8-22.1-8.3s-8-13.3-8-23.4v-37.8h18.1V200c0,5.8,1.1,10,3.2,12.6
			c2.2,2.6,5.1,3.8,8.9,3.8s6.7-1.3,8.9-3.8c2.2-2.6,3.2-6.7,3.2-12.6v-37.2h17.8v37.8c0,10.1-2.7,17.9-8,23.4
			S270.8,232.3,261.4,232.3z"/>
		<path class="st0" d="M305.8,230.9v-68.1h14.9l26.5,46.4h-7.9l25.7-46.4h14.9l0.2,68.1h-16.6l-0.2-41.2h2.9l-19.3,34.5h-8.1
			L319,189.7h3.4v41.2H305.8z"/>
		<path class="st0" d="M387.3,230.9l28.2-68.1h17.8l28.3,68.1h-18.8l-22.1-58.7h7.1l-22.1,58.7H387.3L387.3,230.9z M402.8,217.6
			l4.6-14.2h31.2l4.6,14.2H402.8z"/>
		<path class="st0" d="M491.4,232.3c-5.2,0-10.2-0.7-15.1-2.1s-8.8-3.2-11.8-5.4l5.9-14.2c2.9,2,6.2,3.5,9.9,4.8
			c3.7,1.3,7.5,1.9,11.2,1.9c2.5,0,4.5-0.2,6-0.7s2.7-1.2,3.3-2c0.7-0.8,1.1-1.8,1.1-2.9c0-1.6-0.7-2.8-2-3.7
			c-1.4-0.9-3.1-1.7-5.2-2.3c-2.2-0.6-4.5-1.2-7.1-1.8s-5.2-1.4-7.8-2.3c-2.6-0.9-4.9-2.1-7.1-3.5c-2.2-1.5-3.8-3.3-5.2-5.7
			s-2-5.4-2-9c0-4.1,1.1-7.8,3.2-11.1s5.2-6,9.5-8c4.2-2,9.5-3.1,15.7-3.1c4.2,0,8.3,0.5,12.4,1.5c4,1,7.7,2.5,10.8,4.4l-5.6,14.3
			c-3.1-1.8-6-3.1-9.1-3.9c-3-0.9-5.9-1.3-8.7-1.3c-2.5,0-4.5,0.3-6,0.8c-1.5,0.6-2.7,1.3-3.2,2.2c-0.7,0.9-1,2-1,3.2
			c0,1.5,0.7,2.7,2,3.5c1.3,0.9,3.1,1.6,5.2,2.2c2.2,0.6,4.5,1.1,7.1,1.7s5.2,1.3,7.8,2.2c2.6,0.9,4.9,2.1,7.1,3.5
			c2.2,1.5,3.8,3.3,5.1,5.7s2,5.3,2,8.9c0,3.9-1.1,7.6-3.2,10.9c-2.1,3.3-5.2,6-9.4,8.1C502.9,231.2,497.7,232.3,491.4,232.3z"/>
		<path class="st0" d="M543.8,230.9V178h-19.6v-15.3h57.2V178h-19.6v52.9H543.8z"/>
		<path class="st0" d="M608.2,216h33.4v14.9h-51.2v-68.1h50.1v14.9h-32.2L608.2,216L608.2,216L608.2,216z M606.9,189.1h29.6v14.4
			h-29.6V189.1z"/>
		<path class="st0" d="M653.9,230.9v-68.1h29.2c5.8,0,10.8,1,15.1,3.1c4.2,2,7.5,4.9,9.8,8.8c2.3,3.8,3.4,8.3,3.4,13.5
			c0,5.1-1.2,9.6-3.4,13.3c-2.3,3.7-5.6,6.6-9.8,8.6s-9.3,3-15.1,3h-19.2l8.1-8.1v26L653.9,230.9L653.9,230.9z M671.9,206.8
			l-8.1-8.9h18.1c3.7,0,6.6-0.9,8.5-2.7s2.8-4.2,2.8-7.3c0-3.2-0.9-5.6-2.8-7.4c-1.9-1.8-4.6-2.7-8.5-2.7h-18.1l8.1-8.9V206.8z
			 M693.3,230.9l-15.9-24.8h19.2l16,24.8H693.3z"/>
	</g>
</g>
<g>
	<path class="st1" d="M465.8,141.8h-129c-0.4,0-0.6-0.3-0.6-0.6v-14.8c0-0.4,0.3-0.6,0.6-0.6h129c0.4,0,0.6,0.3,0.6,0.6v14.8
		C466.5,141.5,466.2,141.8,465.8,141.8z"/>
	<g>
		<circle class="st0" cx="401.3" cy="74.6" r="13.6"/>
		<g>
			<g>
				<path class="st0" d="M410.9,59.6L410.9,59.6c0.1-14.1,7.6-25.5,7.6-25.5c-12.3-9.2-16.2-33.5-16.2-33.5l0,0v29.7
					c2.2,0.5,3.8,2.7,3.3,5c-0.3,1.7-1.7,3.2-3.3,3.5c-2.9,0.6-5.3-1.6-5.3-4.2c0-2.1,1.5-3.8,3.4-4.2V0.6l0,0
					c0,0-3.9,24.2-16.2,33.5c0,0,7.6,11.4,7.6,25.5h0.1c2.8-1.4,6-2.3,9.6-2.3S408.1,58.1,410.9,59.6z"/>
			</g>
		</g>
	</g>
	<g>
		<g>
			<g>
				<path class="st1" d="M488.4,62.3l-32,8.8c-0.7,0.2-0.7,1.1,0,1.3c3.8,1,10.3,3.3,8.2,7.9c-3,6.3-6.7,5.4-11.5,19.2
					c-0.1,0.2-0.3,0.4-0.5,0.4c-2.4,0.3-15.8,1.4-36.7-11.2c-0.3-0.2-0.7-0.1-0.9,0.2l-8.7,14c-0.2,0.3-0.1,0.6,0.1,0.9
					c2.5,2.1,16.4,12.2,59.7,15.2c0.4,0,0.8-0.3,0.7-0.7c-0.3-3.2,0.4-16.4,22.3-54.8C489.5,62.7,489,62.1,488.4,62.3z"/>
			</g>
			<path class="st1" d="M314.3,62.3l32,8.8c0.7,0.2,0.7,1.1,0,1.3c-3.8,1-10.3,3.3-8.2,7.9c3,6.3,6.7,5.4,11.5,19.2
				c0.1,0.2,0.3,0.4,0.5,0.4c2.4,0.3,15.8,1.4,36.7-11.2c0.3-0.2,0.7-0.1,0.9,0.2l8.7,14c0.2,0.3,0.1,0.6-0.1,0.9
				c-2.5,2.1-16.4,12.2-59.7,15.2c-0.4,0-0.8-0.3-0.7-0.7c0.3-3.2-0.4-16.4-22.3-54.8C313.2,62.7,313.7,62.1,314.3,62.3z"/>
		</g>
	</g>
</g>
<path class="st1" d="M336.2,142v-16.5c0-0.4,0.3-0.8,0.8-0.8h128.7c0.4,0,0.8,0.3,0.8,0.8V142c0,0.4-0.3,0.8-0.8,0.8H337
	C336.5,142.8,336.2,142.4,336.2,142z"/>
<path class="st1" d="M118.8,54.6c-3.1,1.4-4.2,2.6-5.7,5.7c-1.4-3.1-2.6-4.2-5.7-5.7c3.1-1.4,4.2-2.6,5.7-5.7
	C114.5,52,115.7,53.1,118.8,54.6z"/>
<path class="st1" d="M769,128.1c-3.1,1.4-4.2,2.6-5.7,5.7c-1.4-3.1-2.6-4.2-5.7-5.7c3.1-1.4,4.2-2.6,5.7-5.7
	C764.7,125.5,765.9,126.7,769,128.1z"/>
<path class="st1" d="M525.5,264.6c-3.1,1.4-4.2,2.6-5.7,5.7c-1.4-3.1-2.6-4.2-5.7-5.7c3.1-1.4,4.2-2.6,5.7-5.7
	C521.2,262,522.4,263.2,525.5,264.6z"/>
<path class="st2" d="M23.9,268c-3.1,1.4-4.2,2.6-5.7,5.7c-1.4-3.1-2.6-4.2-5.7-5.7c3.1-1.4,4.2-2.6,5.7-5.7
	C19.6,265.4,20.8,266.6,23.9,268z"/>
<path class="st3" d="M271.9,63.5c0,0.9-0.7,1.7-1.7,1.7c-0.9,0-1.7-0.7-1.7-1.7c0-0.9,0.7-1.7,1.7-1.7
	C271.1,61.9,271.9,62.6,271.9,63.5z"/>
<linearGradient id="SVGID_1_" gradientUnits="userSpaceOnUse" x1="200.1882" y1="284.2" x2="207.7187" y2="284.2" gradientTransform="matrix(1 0 0 -1 0 326)">
	<stop  offset="1.491781e-07" style="stop-color:#221E59"/>
	<stop  offset="0.6158" style="stop-color:#221E59"/>
	<stop  offset="0.997" style="stop-color:#634B6D"/>
</linearGradient>
<polygon class="st4" points="204,38.2 205.1,40.6 207.7,41 205.8,42.8 206.3,45.4 204,44.2 201.6,45.4 202.1,42.8 200.2,41 
	202.8,40.6 "/>
<linearGradient id="SVGID_2_" gradientUnits="userSpaceOnUse" x1="354.9826" y1="64.9732" x2="362.5132" y2="64.9732" gradientTransform="matrix(1 0 0 -1 0 326)">
	<stop  offset="1.491781e-07" style="stop-color:#221E59"/>
	<stop  offset="0.6158" style="stop-color:#221E59"/>
	<stop  offset="0.997" style="stop-color:#634B6D"/>
</linearGradient>
<polygon class="st5" points="358.8,257.4 359.9,259.8 362.5,260.2 360.7,262 361.1,264.6 358.8,263.4 356.4,264.6 356.9,262 
	355,260.2 357.6,259.8 "/>
<polygon class="st1" points="549,10.9 550.2,13.2 552.8,13.6 550.9,15.4 551.4,18 549,16.8 546.7,18 547.1,15.4 545.3,13.6 
	547.9,13.2 "/>
<g>
	<g>
		
			<linearGradient id="SVGID_3_" gradientUnits="userSpaceOnUse" x1="142.2519" y1="478.2059" x2="192.4659" y2="379.003" gradientTransform="matrix(0.8275 0.5614 0.5614 -0.8275 -299.6819 332.6146)">
			<stop  offset="0" style="stop-color:#B9791C"/>
			<stop  offset="0.3016" style="stop-color:#DAA84D"/>
			<stop  offset="1" style="stop-color:#FFC167"/>
		</linearGradient>
		<path class="st6" d="M68.7,74.3C57,56,62.3,31.5,80.6,19.7c0.5-0.3,0.9-0.6,1.4-0.8c-8.5,0-17.2,2.3-24.9,7.3
			C35.8,39.8,29.6,68.3,43.3,89.6s42.2,27.5,63.5,13.8c6.7-4.3,11.9-10,15.4-16.5C104,97.8,80.3,92.4,68.7,74.3z"/>
		
			<linearGradient id="SVGID_4_" gradientUnits="userSpaceOnUse" x1="214.2326" y1="363.4083" x2="139.8832" y2="486.9936" gradientTransform="matrix(0.8275 0.5614 0.5614 -0.8275 -299.6819 332.6146)">
			<stop  offset="0" style="stop-color:#B9791C"/>
			<stop  offset="0.3407" style="stop-color:#DAA84D"/>
			<stop  offset="1" style="stop-color:#FFC167"/>
		</linearGradient>
		<path class="st7" d="M56.3,82.1c12.4,19.2,38,24.9,57.4,12.4c3.1-2,5.8-4.3,8.1-6.8c0.1-0.2,0.3-0.6,0.5-0.8
			C104,97.8,80.3,92.4,68.7,74.4C57,56,62.3,31.5,80.6,19.7c0.1-0.1,0.2-0.1,0.3-0.2c-4.3,1-8.4,2.9-12.2,5.3
			C49.5,37.2,43.9,62.9,56.3,82.1z"/>
		
			<radialGradient id="SVGID_5_" cx="143.6307" cy="468.6503" r="129.1701" gradientTransform="matrix(0.8275 0.5614 0.5614 -0.8275 -299.6819 332.6146)" gradientUnits="userSpaceOnUse">
			<stop  offset="0" style="stop-color:#FFC167"/>
			<stop  offset="1" style="stop-color:#000000"/>
		</radialGradient>
		<path class="st8" d="M57.5,81.7c-10.5-16.2-8.3-37,3.9-50.8c-13.1,13.5-15.8,34.8-5.1,51.3c8.8,13.6,24,20.3,38.9,18.9
			C80.6,101.8,66,94.9,57.5,81.7z"/>
		
			<linearGradient id="SVGID_6_" gradientUnits="userSpaceOnUse" x1="131.1033" y1="471.006" x2="180.5749" y2="373.2693" gradientTransform="matrix(0.8275 0.5614 0.5614 -0.8275 -299.6819 332.6146)">
			<stop  offset="0" style="stop-color:#B9791C"/>
			<stop  offset="0.3016" style="stop-color:#DD8000"/>
			<stop  offset="1" style="stop-color:#FFC167"/>
		</linearGradient>
		<path class="st9" d="M47.2,88.9C33.5,67.6,39.7,39.2,61,25.4c4.5-2.9,9.3-4.8,14.3-6.1c-6.2,0.9-12.4,3.1-18.1,6.8
			C35.9,39.8,29.7,68.3,43.4,89.6c10.8,16.8,30.8,24.2,49.2,19.8C75.2,112.1,57.2,104.6,47.2,88.9z"/>
	</g>
	<g>
		<g>
			<defs>
				<path id="SVGID_7_" d="M68.7,74.3C57,56,62.3,31.5,80.6,19.7c0.5-0.3,0.9-0.6,1.4-0.8c-8.5,0-17.2,2.3-24.9,7.3
					C35.8,39.8,29.6,68.3,43.3,89.6s42.2,27.5,63.5,13.8c6.7-4.3,11.9-10,15.4-16.5C104,97.8,80.3,92.4,68.7,74.3z"/>
			</defs>
			<clipPath id="SVGID_8_">
				<use xlink:href="#SVGID_7_"  style="overflow:visible;"/>
			</clipPath>
			<g class="st10">
				<path class="st11" d="M67.4,109.1c-0.7,0.5-1.3,1-2,1.5c-1.6,0.9-3.3,1.2-5.1,0.8c-3.1-0.7-5.3-2.5-7-5
					c-2.1-2.9-3.1-6.1-3.5-9.6c0-0.1,0-0.2,0-0.3c-1,0.3-2.1,0.6-3.1,0.9C44.4,98,42,98,39.8,97.1c-1.2-0.5-2.2-1.2-3.3-1.7
					c-0.7-0.3-1.4-0.7-2.2-0.8c-0.7-0.1-1.5,0.1-2.2,0.2c-0.1,0-0.3,0.2-0.5,0.3c-0.3,0.2-0.7,0.3-1.2,0.2c-0.3-0.2-0.8-0.9-0.7-1.4
					c0.1-0.5,0.3-0.7,0.8-0.8c1-0.2,1.6-1.2,2-2.1c0.6-1.2,0.5-2.5,0.6-3.8c0.2-3.1,1.5-5.6,3.7-7.7c0.8-0.8,1.7-1.5,2.8-2.3
					c0,0-0.1-0.1-0.2-0.2c-3.1-2.5-5.4-5.8-6.5-9.7c-0.6-2.1-0.7-4-0.1-6.1c0.8-3,2.8-4.8,5.8-5.4c0.1,0,0.2,0,0.3-0.1l0,0
					c-0.1-0.1-0.1-0.2-0.2-0.2c-2.3-2.3-2.9-5.3-1.6-8.3c1.2-2.8,3.1-4.7,5.5-6.2c2.6-1.6,5.5-2.5,8.8-2.8c0.1,0,0.1,0,0.2,0
					c0-0.1-0.1-0.2-0.1-0.3c-0.7-2-1.2-3.9-1.2-6c0-2.2,0.7-4.3,1.8-6.1c0.6-0.9,1.2-1.8,1.4-3c0.2-0.8,0-1.6-0.2-2.4
					c0-0.1-0.2-0.2-0.3-0.5c-0.2-0.3-0.5-0.8-0.2-1.2c0.2-0.5,0.7-0.7,1.3-0.7c0.3,0,0.8,0.3,0.9,0.8c0.2,1,1.2,1.6,2,2
					c1.2,0.6,2.5,0.5,3.8,0.6c3.1,0.2,5.8,1.5,7.8,3.8c0.8,0.8,1.5,1.7,2.3,2.6c0,0,0.1-0.1,0.2-0.2c2.4-3,5.5-5.2,9.2-6.3
					c2.2-0.7,4.3-0.8,6.5-0.2c3,0.8,5,2.6,5.5,5.8c0,0.1,0.1,0.2,0.1,0.5l0,0c0.3-0.3,0.7-0.7,1.2-0.9c1.7-1.4,3.8-1.7,6-1.4
					c2.8,0.6,4.8,2.2,6.6,4.4c2.3,3,3.6,6.5,3.9,10.1c0,0.1,0,0.2,0,0.3c0,0,0,0,0,0.1c0.1,0,0.3-0.1,0.5-0.1
					c2.1-0.7,4.1-1.3,6.3-1.2c2.2,0.1,4.1,0.9,6,2.1c0.8,0.5,1.6,0.9,2.5,1.2c0.8,0.2,1.6,0,2.4-0.1c0.1,0,0.3-0.2,0.5-0.3
					c0.3-0.3,0.9-0.3,1.2-0.2c0.5,0.3,0.7,0.8,0.7,1.3c0,0.5-0.3,0.7-0.8,0.8c-1,0.2-1.6,1.2-2,2c-0.6,1.2-0.5,2.5-0.6,3.8
					c-0.2,3.1-1.5,5.8-3.8,7.8c-0.8,0.8-1.7,1.5-2.6,2.3c0,0,0.1,0.1,0.2,0.2c3.2,2.6,5.5,6,6.6,10.1c0.5,2,0.6,3.9,0,5.8
					c-0.8,2.9-2.8,4.8-5.8,5.4c-0.1,0-0.2,0-0.5,0.1c0.1,0.1,0.2,0.2,0.3,0.3c2.2,2.3,2.8,5,1.7,7.9c-0.8,2.2-2.2,4-4,5.4
					c-3,2.3-6.5,3.5-10.1,3.9c-0.1,0-0.2,0-0.3,0c0.3,1,0.6,2.1,0.8,3.1c0.6,2.3,0.6,4.7-0.2,7c-0.5,1.2-1.2,2.2-1.7,3.3
					c-0.3,0.7-0.7,1.4-0.8,2.2c-0.1,0.7,0.1,1.5,0.2,2.2c0,0.1,0.2,0.2,0.3,0.5c0.3,0.3,0.5,0.7,0.2,1.2c-0.1,0.3-0.9,0.8-1.3,0.7
					c-0.5-0.1-0.7-0.3-0.8-0.8c-0.2-1-1.2-1.6-2.1-2c-1.2-0.6-2.5-0.5-3.8-0.6c-3.1-0.2-5.6-1.5-7.8-3.8c-0.8-0.8-1.5-1.7-2.3-2.6
					c-0.1,0.1-0.2,0.3-0.5,0.5c-2.6,3.1-5.9,5.3-9.9,6.3c-2,0.5-3.9,0.6-5.8,0c-2.9-0.9-4.8-2.8-5.4-5.8
					C67.4,109.3,67.4,109.2,67.4,109.1z M96.7,49.4C96.7,49.4,96.7,49.3,96.7,49.4c0-0.2,0-0.5,0.1-0.7c0-0.1,0-0.1,0-0.2
					c0.2-1.7-0.2-3.2-1-4.7c-0.5-0.8-0.9-1.6-1.4-2.4c-0.2-0.3-0.3-0.8-0.3-1.2c0-1.8-0.7-3.5-1.4-5c-0.5-1-1-2.1-1.6-3.1
					c-0.1-0.2-0.2-0.2-0.5-0.1c-0.8,0.5-1.5,0.8-2.3,1.3c-1.8,0.9-3.6,2.1-4.7,3.8c-0.2,0.3-0.6,0.6-0.8,0.7
					c-0.8,0.5-1.6,0.9-2.4,1.3c-2.6,1.3-4.1,3.2-4.4,6.2c0,0.7-0.2,1.3-0.5,1.8c-1,2-2.1,3.9-3,5.9c-0.2,0.5-0.7,0.7-1.3,0.7
					c-0.5,0-0.9-0.1-1.4-0.1c-1.7-0.2-3.5-0.3-5.2-0.6c-0.6-0.1-1.2-0.3-1.7-0.6c-0.8-0.5-1.7-0.8-2.6-1c-1.7-0.3-3.2,0.1-4.7,1
					c-0.8,0.5-1.6,0.9-2.4,1.3c-0.3,0.2-0.8,0.3-1.3,0.3c-1.7,0-3.2,0.6-4.7,1.3c-1.2,0.6-2.3,1.2-3.3,1.7c-0.2,0.1-0.2,0.3-0.1,0.6
					c0.5,0.7,0.8,1.5,1.3,2.2c1,1.8,2.1,3.6,3.8,4.8c0.3,0.2,0.6,0.6,0.7,0.8c0.5,0.8,0.9,1.6,1.3,2.4C52,70.5,54,72,57,72.1
					c0.7,0,1.3,0.2,1.7,0.5c2,1,3.9,2.1,5.9,3.1c0.5,0.2,0.7,0.7,0.7,1.3c0,0.5-0.1,0.9-0.1,1.5c-0.2,1.7-0.3,3.5-0.6,5.2
					c-0.1,0.6-0.3,1.2-0.6,1.6c-0.5,0.8-0.9,1.7-1,2.6c-0.3,1.7,0.1,3.2,1,4.7c0.5,0.8,0.9,1.6,1.3,2.4c0.2,0.3,0.3,0.8,0.3,1.3
					c0,1.7,0.6,3.2,1.3,4.7c0.6,1.2,1.2,2.3,1.7,3.5c0.1,0.2,0.3,0.2,0.6,0.1c0.7-0.5,1.4-0.8,2.2-1.2c1.8-1,3.6-2.1,4.8-3.8
					c0.2-0.3,0.6-0.6,0.8-0.7c0.8-0.5,1.6-0.9,2.4-1.3c2.6-1.3,4.3-3.2,4.4-6.2c0-0.7,0.2-1.3,0.5-1.8c1-2,2-3.8,3-5.8
					c0.2-0.6,0.7-0.7,1.3-0.7c0.5,0,0.9,0.1,1.4,0.1c1.7,0.2,3.5,0.3,5.2,0.6c0.6,0.1,1.2,0.3,1.7,0.6c0.8,0.5,1.7,0.9,2.6,1
					c1.7,0.3,3.2-0.1,4.7-1c0.8-0.5,1.6-0.9,2.4-1.3c0.3-0.2,0.8-0.3,1.3-0.3c1.7,0,3.2-0.6,4.7-1.3c1.2-0.6,2.3-1.2,3.5-1.7
					c0.2-0.1,0.2-0.2,0.1-0.5c-0.5-0.8-0.9-1.6-1.3-2.3c-0.9-1.7-2.1-3.5-3.7-4.7c-0.3-0.2-0.6-0.6-0.7-0.8
					c-0.5-0.8-0.9-1.6-1.3-2.4c-1.3-2.6-3.2-4.3-6.2-4.4c-0.7,0-1.3-0.2-1.8-0.5c-2-1-3.9-2-5.8-3C95,61,94.8,60.6,94.8,60
					c0.1-0.6,0.1-1.2,0.2-1.8c0.2-1.6,0.3-3.2,0.6-4.7c0.1-0.5,0.2-0.9,0.3-1.4C95.9,50.8,96.4,50.1,96.7,49.4z M74.8,42.3
					c0.1-0.3,0.2-0.7,0.3-1c0.9-1.7,2.3-3,4.1-3.7c0.6-0.2,1.3-0.6,1.8-0.8c-0.1-0.1-0.1-0.1-0.1-0.2c-0.1-0.1-0.3-0.3-0.5-0.5
					c-2.9-2.9-6.6-4.4-10.5-4.7c-1.8-0.2-3.7-0.1-5.5-0.1c-1.5,0-2.9-0.2-4.3-0.8c-0.2-0.1-0.5-0.2-0.7-0.3c0,1-0.3,2.1-0.8,2.9
					c-0.7,1.3-1.5,2.5-2.4,3.8c-1.7,2.4-3,5.1-3.7,8.1c-0.5,2.2-0.5,4.4,0.1,6.7c0,0,0,0.1,0.1,0.2c0.6-0.3,1.2-0.7,1.7-1
					c1.6-1,3.3-1.6,5.3-1.4c0.3,0,0.8,0.1,1.2,0.2C61,49.4,61,49.3,61,49.3c-1-1.7-1.3-3.6-0.7-5.5c0.3-1.3,0.8-2.3,1.6-3.3
					c0.3-0.5,0.5-0.9,0.5-1.5c0-0.5,0-0.9-0.1-1.4c0-0.6,0.2-0.9,0.7-1.2s0.9-0.2,1.3,0.1c0.3,0.2,0.7,0.6,1,0.8
					c0.5,0.3,1,0.6,1.6,0.6c1.4-0.1,2.6,0.2,3.9,0.7c1.3,0.5,2.4,1.3,3.1,2.4C74.3,41.3,74.5,41.8,74.8,42.3z M98.5,49.5
					c0.2-0.1,0.2-0.1,0.3-0.2c1.3-0.7,2.6-1.2,4-0.9c1.6,0.2,3.2,0.7,4.6,1.7c0.6,0.5,1.2,0.6,1.8,0.6c0.3,0,0.8,0,1.3-0.1
					c0.6-0.1,0.9,0.2,1.2,0.7c0.2,0.5,0.2,0.9-0.1,1.3c-0.2,0.3-0.6,0.7-0.8,1c-0.3,0.5-0.6,1-0.6,1.6c0,1.3-0.2,2.4-0.6,3.6
					c-0.6,2-1.8,3.3-3.7,4.3c-0.1,0-0.1,0.1-0.3,0.2c0.2,0.1,0.3,0.1,0.6,0.2c0.1,0,0.3,0.1,0.5,0.2c1.7,0.9,3,2.3,3.7,4.1
					c0.2,0.6,0.6,1.3,0.8,2c0.1-0.1,0.2-0.2,0.3-0.2c0.5-0.5,0.9-0.9,1.4-1.4c2.4-3,3.6-6.5,3.8-10.3c0.1-1.7,0-3.5,0-5.1
					c0-1.4,0.2-2.6,0.8-3.9c0.1-0.2,0.2-0.5,0.3-0.7c-1,0-2.1-0.3-2.9-0.8c-1.3-0.7-2.5-1.5-3.8-2.4c-2.2-1.5-4.5-2.8-7-3.5
					c-2-0.5-3.9-0.7-5.9-0.5c-0.7,0.1-1.3,0.2-2,0.3c0.7,1.4,1.7,2.4,2.1,3.9C98.8,46.5,98.9,48,98.5,49.5z M48.4,66.6
					c-0.6,0.6-1.2,1.2-1.6,1.7c-2.4,3-3.6,6.5-3.8,10.3c-0.1,1.7,0,3.5,0,5.1c0,1.4-0.2,2.6-0.8,3.9c-0.1,0.2-0.2,0.5-0.3,0.7
					c1,0,2.1,0.3,2.9,0.8c1.3,0.7,2.5,1.5,3.8,2.4c2.2,1.5,4.5,2.8,7.1,3.5c2.4,0.6,5,0.7,7.4,0.1c0.1,0,0.2-0.1,0.3-0.1
					c-0.3-0.6-0.7-1.2-1.2-1.7c-1-1.6-1.6-3.3-1.4-5.3c0-0.3,0.1-0.8,0.2-1.3c0,0.1,0,0.2-0.1,0.2c-1.7,1-3.6,1.3-5.5,0.7
					c-1.3-0.3-2.3-0.8-3.3-1.6c-0.5-0.3-0.9-0.5-1.5-0.5c-0.5,0-0.9,0-1.5,0.1c-0.5,0-0.8-0.2-1-0.7s-0.2-0.8,0.1-1.3
					c0.2-0.3,0.6-0.7,0.8-1c0.3-0.5,0.6-1,0.6-1.6c0-1.3,0.2-2.4,0.6-3.6c0.6-2,1.8-3.3,3.7-4.3c0.1,0,0.1-0.1,0.2-0.1
					c-0.3-0.1-0.7-0.2-1-0.3c-1.7-0.9-3-2.3-3.7-4.1C48.9,68,48.7,67.3,48.4,66.6z M100.1,106.1c0-1,0.3-2.1,0.8-2.9
					c0.7-1.3,1.5-2.5,2.4-3.8c1.2-1.7,2.3-3.5,3-5.5c0.8-2.3,1.3-4.7,0.9-7.1c-0.1-0.8-0.2-1.5-0.3-2.3c-0.7,0.5-1.3,0.8-1.7,1.2
					c-1.3,0.8-2.5,1.4-4,1.4c-0.8,0-1.6-0.1-2.4-0.1c0,0,0.1,0.1,0.1,0.2c0.7,1.3,1.2,2.6,0.9,4c-0.2,1.6-0.7,3.2-1.7,4.6
					c-0.5,0.6-0.6,1.2-0.6,1.8c0,0.3,0,0.8,0.1,1.3c0.1,0.6-0.2,0.9-0.6,1.2c-0.5,0.2-0.8,0.2-1.3-0.1c-0.3-0.2-0.7-0.6-1-0.8
					c-0.5-0.3-1-0.6-1.6-0.6c-1.3,0-2.4-0.2-3.6-0.6c-2-0.6-3.3-1.8-4.3-3.7c0-0.1-0.1-0.1-0.1-0.2c-0.1,0.3-0.2,0.7-0.3,1
					c-0.9,1.7-2.3,3-4.1,3.7c-0.6,0.2-1.3,0.6-2,0.8c0.2,0.2,0.5,0.5,0.6,0.7c2.9,2.9,6.6,4.4,10.5,4.7c1.8,0.2,3.7,0.1,5.5,0.1
					C96.7,105.1,98.5,105.2,100.1,106.1z M95.8,40c4.4-1.6,8.5-0.8,12.7,1.2c0-0.1,0-0.3,0-0.5c0-3-0.8-5.9-2.4-8.4
					c-1.2-2-2.6-3.7-4.7-4.8c-1.6-0.9-3.3-1.3-5.2-0.6c-1.6,0.6-2.5,1.8-3.3,3.2c-0.3,0.7-0.5,1.4,0,2c0.3,0.5,0.6,1,0.8,1.5
					C94.8,35.6,95.7,37.7,95.8,40z M77.3,100.3c-0.7,1-1.5,1.8-2.4,2.5c-1.2,0.8-2.4,1.5-3.8,2.2c-0.5,0.2-0.8,0.5-1.3,0.7
					c-0.2,0.1-0.3,0.3-0.3,0.6c-0.1,0.5-0.2,1-0.2,1.5c-0.1,3,1.4,5.2,4.3,6c1.4,0.3,2.8,0.3,4.1,0.1c4.5-0.8,7.9-3.2,10.6-7
					c0-0.1,0.1-0.2,0.1-0.3c-2.2-0.2-4.3-0.9-6.2-2C80.3,103.6,78.7,102.2,77.3,100.3z M63.9,96.2c-4.4,1.6-8.5,0.7-12.7-1.2
					c0,0.2,0,0.3,0,0.5c0,2.9,0.8,5.6,2.2,8.2c1.3,2.2,2.9,4.1,5.3,5.3c1.7,0.9,3.5,1,5.3,0.2c1.5-0.7,2.4-2.1,3.1-3.6
					c0.1-0.3,0.1-0.7,0-1c-0.2-0.6-0.6-1-0.8-1.6C64.9,100.9,63.9,98.7,63.9,96.2z M51.7,52.2c-1.6-4.4-0.8-8.5,1.2-12.7
					c-0.1,0-0.3,0-0.5,0c-3,0-5.9,0.8-8.4,2.4c-2,1.2-3.7,2.6-4.8,4.7c-0.9,1.6-1.3,3.3-0.6,5.2c0.6,1.6,1.8,2.5,3.2,3.3
					c0.7,0.3,1.4,0.5,2,0c0.5-0.3,1-0.6,1.5-0.8C47.3,53.1,49.3,52.2,51.7,52.2z M118.3,59.4c-0.8,4.5-2.4,8.5-6.1,11.2
					c0.7,0.7,1.4,1.3,2,2c0.9,1.2,1.6,2.3,2.3,3.7c0.2,0.6,0.6,1.2,0.9,1.7c0.2,0.5,0.7,0.7,1.2,0.7c0.3,0,0.8,0.1,1.2,0.1
					c3,0.1,5.2-1.4,5.9-4.3c0.3-1.4,0.3-2.8,0.1-4.1c-0.7-3.7-2.4-6.7-5.2-9.1C119.7,60.6,119,60,118.3,59.4z M106.8,96.8
					c0.2,0,0.3,0,0.5,0c3,0,5.8-0.8,8.3-2.3c2.1-1.2,3.8-2.8,5-4.8c0.9-1.6,1.3-3.3,0.6-5.1c-0.6-1.6-1.8-2.6-3.2-3.5
					c-0.7-0.3-1.4-0.3-2.1,0c-0.2,0.1-0.5,0.2-0.7,0.3c-1.3,0.6-2.4,1.3-3.7,1.8c-1.2,0.5-2.3,0.7-3.6,0.7c0.8,2.1,1,4.3,0.8,6.5
					C108.4,92.6,107.8,94.7,106.8,96.8z M47.7,65.5c-1-0.7-1.8-1.5-2.5-2.4c-0.8-1.2-1.5-2.4-2.2-3.8c-0.2-0.5-0.5-0.8-0.7-1.3
					c-0.1-0.2-0.3-0.3-0.6-0.3c-0.5-0.1-1-0.2-1.5-0.2c-3-0.1-5.2,1.4-6,4.3c-0.3,1.4-0.3,2.8-0.1,4.1c0.9,4.5,3.2,7.9,7,10.6
					c0.1,0,0.1,0.1,0.3,0.1c0.2-2.2,0.9-4.3,2-6.2C44.3,68.5,45.8,66.9,47.7,65.5z M82.3,35.8c0.7-0.7,1.3-1.4,2-2
					c1.2-0.9,2.3-1.6,3.7-2.3c0.6-0.3,1.2-0.7,1.8-0.9c0.2-0.1,0.5-0.3,0.6-0.7c0-0.5,0.1-0.9,0.1-1.4c0.1-3-1.4-5.2-4.3-6
					c-1.4-0.3-2.8-0.3-4-0.1c-4.5,0.9-8.1,3.3-10.6,7c0,0.1-0.1,0.1-0.1,0.2C75.7,30.5,79.6,32,82.3,35.8z M64.1,38.7
					c0,0.1,0,0.1,0,0.2c0,0.7-0.1,1.3-0.5,1.8c-0.7,1.2-1.3,2.2-1.6,3.5c-0.5,1.7-0.2,3.3,0.9,4.8c0.5,0.6,0.8,1.2,1.2,1.8
					c0.1,0.2,0.3,0.5,0.6,0.5c2.1,0.2,4.1,0.3,6.2,0.6c0.1,0,0.3-0.1,0.5-0.2c1-1.8,2.1-3.6,3-5.4c0.1-0.1,0.1-0.5,0-0.6
					c-0.3-0.8-0.7-1.5-1-2.3c-0.1-0.3-0.2-0.7-0.5-0.9c-1-1.8-2.9-2.4-4.8-2.8c-0.9-0.2-1.8-0.2-2.8-0.3
					C64.9,39.2,64.6,38.8,64.1,38.7z M109.3,52.5c-0.1,0-0.2,0-0.2,0c-0.7,0-1.3-0.1-1.8-0.5c-1.2-0.7-2.2-1.3-3.5-1.6
					c-1.7-0.5-3.3-0.2-4.8,0.9c-0.6,0.5-1.2,0.8-1.8,1.2c-0.2,0.1-0.5,0.3-0.5,0.6c-0.2,2.1-0.3,4.1-0.6,6.2c0,0.1,0.1,0.3,0.2,0.5
					c1.8,1,3.6,2.1,5.4,3c0.1,0.1,0.5,0.1,0.6,0c0.8-0.3,1.5-0.7,2.3-1c1-0.3,1.8-1,2.5-2c0.7-1.2,1.2-2.4,1.3-3.8
					C108.6,54.8,108.5,53.6,109.3,52.5z M95.4,97.6c0.2-0.7,0.3-1.4,0.7-2.1c0.6-1.2,1.3-2.2,1.6-3.5c0.5-1.7,0.2-3.3-0.9-4.7
					c-0.5-0.6-0.8-1.2-1.2-1.8C95.5,85.2,95.2,85,95,85c-2.1-0.2-4.1-0.3-6.1-0.6c-0.2,0-0.3,0-0.5,0.2c-1,1.8-2,3.6-3,5.4
					c-0.1,0.2-0.1,0.5,0,0.7c0.3,0.7,0.7,1.5,0.9,2.2c0.1,0.3,0.3,0.7,0.5,1c1,1.8,2.9,2.4,4.8,2.8C92.8,97,94.3,96.6,95.4,97.6z
					 M50.4,83.6c0.7,0.2,1.4,0.3,2.1,0.7c1.2,0.6,2.3,1.3,3.6,1.6c1.7,0.5,3.3,0.2,4.7-0.9c0.6-0.5,1.2-0.8,1.8-1.2
					c0.2-0.1,0.5-0.3,0.5-0.6c0.2-2.1,0.3-4.1,0.6-6.1c0-0.2-0.1-0.3-0.2-0.5c-1.8-1-3.6-2-5.4-3c-0.2-0.1-0.5-0.1-0.6-0.1
					c-0.8,0.3-1.7,0.7-2.5,1.2c-0.8,0.3-1.6,0.9-2.2,1.6c-0.8,1.2-1.3,2.5-1.4,3.9C51.1,81.4,51.1,82.7,50.4,83.6z M55.4,22
					c0,0.2-0.1,0.5-0.1,0.7c-0.3,1.3-0.8,2.4-1.5,3.6c-0.9,1.5-1.6,3.1-1.7,5c-0.1,2.2,0.3,4.3,1,6.3c0,0.1,0.1,0.3,0.2,0.5
					c0.1,0.2,0.2,0.2,0.5,0c0.9-1.4,1.8-2.6,2.8-4c0.8-1.3,1.4-2.5,1.4-4.1c0-0.3,0-0.7,0.1-1c0.1-0.7,0.8-1,1.4-0.7
					c0.5,0.2,0.8,0.5,1.3,0.7c0.8,0.6,1.6,0.9,2.5,0.9c2.1,0.1,4.1,0.1,6.2,0.1c0.2,0,0.3-0.1,0.2-0.3c-0.1-0.3-0.3-0.6-0.5-0.9
					c-0.9-0.9-1.7-2-2.6-2.8c-1.6-1.5-3.6-2.3-5.6-2.5C59,23,57.1,22.9,55.4,22z M125.9,43.6c-0.2,0-0.5-0.1-0.7-0.1
					c-1.3-0.3-2.4-0.8-3.5-1.5c-1.5-0.9-3.1-1.6-4.8-1.7c-2.2-0.1-4.3,0.3-6.3,1c-0.1,0-0.3,0.1-0.5,0.2c-0.2,0.1-0.2,0.2,0,0.5
					c1.4,0.9,2.6,1.8,3.9,2.8c1.3,0.8,2.6,1.4,4.1,1.4c0.3,0,0.7,0,1,0.1c0.7,0.1,1,0.8,0.7,1.4c-0.2,0.5-0.5,0.9-0.7,1.3
					c-0.5,0.8-0.8,1.6-0.9,2.5c-0.1,2.1-0.1,4.1-0.1,6.3c0,0.2,0.1,0.2,0.3,0.2c0.3-0.1,0.6-0.3,0.9-0.6c0.9-0.9,2-1.7,2.9-2.8
					c1.5-1.6,2.2-3.5,2.4-5.6c0.1-1.5,0.2-3.1,0.8-4.5C125.7,44.2,125.8,43.9,125.9,43.6z M33.7,92.6c0.2,0,0.5,0.1,0.7,0.1
					c1.3,0.3,2.4,0.8,3.5,1.5c1.5,0.9,3.1,1.6,4.8,1.7c2.2,0.1,4.3-0.3,6.3-1c0.1,0,0.3-0.1,0.5-0.2c0.2-0.1,0.2-0.2,0-0.3
					c-1.4-0.9-2.8-2-4.1-2.9c-1.2-0.8-2.5-1.3-3.9-1.3c-0.3,0-0.7,0-1.2-0.1c-0.7-0.1-1-0.8-0.7-1.4c0.2-0.5,0.5-0.8,0.7-1.2
					c0.6-0.8,0.9-1.7,0.9-2.6c0.1-2.1,0.1-4.1,0.1-6.2c0-0.2-0.1-0.2-0.3-0.2c-0.3,0.1-0.6,0.3-0.8,0.5c-0.8,0.7-1.6,1.4-2.4,2.2
					c-1.8,1.8-2.8,4-3,6.6C34.8,89.3,34.5,91,33.7,92.6z M104.3,114.2c0-0.2,0.1-0.5,0.1-0.7c0.3-1.3,0.8-2.4,1.5-3.5
					c0.9-1.5,1.6-3.1,1.7-4.8c0.1-2.2-0.3-4.3-1-6.3c0-0.1-0.1-0.3-0.2-0.5c-0.1-0.2-0.2-0.2-0.5,0c-0.9,1.4-1.8,2.6-2.8,3.9
					c-0.8,1.3-1.4,2.6-1.4,4.1c0,0.3,0,0.7-0.1,1c-0.1,0.7-0.8,1-1.4,0.7c-0.5-0.2-0.8-0.3-1.2-0.7c-0.9-0.6-1.8-0.9-3-1
					c-2-0.1-3.9,0-6,0c-0.2,0-0.2,0.1-0.2,0.3c0.1,0.3,0.3,0.6,0.6,0.9c0.9,0.9,1.7,2,2.8,2.9c1.6,1.5,3.5,2.2,5.6,2.4
					c1.5,0.1,3.1,0.2,4.5,0.8C103.8,113.9,104,114,104.3,114.2z"/>
				<path class="st11" d="M94,77.3c0.2,0.6,0.5,1,0.6,1.5c0.1,0.5,0.2,0.9,0.3,1.5c0.1,0.5-0.2,0.7-0.7,0.7c-0.3,0-0.8-0.1-1.2-0.2
					c-2.4-0.7-4.7-1.3-7.1-2c-0.3-0.1-0.5,0-0.7,0.3c-0.8,2.5-1.7,5.2-2.6,7.7c0,0.1-0.1,0.3-0.2,0.5c-0.2,0.3-0.5,0.3-0.8,0.1
					c-0.7-0.5-1.2-1.3-1.6-2c-0.1-0.1-0.2-0.3-0.3-0.5c-0.2,0.6-0.3,1.2-0.5,1.6c-0.7,2.1-2,3.8-3.8,5.1c-0.8,0.6-1.5,1.3-1.8,2.2
					c-0.2,0.5-0.6,1-0.8,1.5c-0.3,0.5-0.6,0.6-1.4,0.3c-0.5-0.1-0.6-0.5-0.6-0.9c0.1-0.8,0.2-1.6,0.2-2.3c0-0.5,0-0.8-0.1-1.3
					c-0.1-0.3-0.2-0.7-0.3-1c-0.9-2.4-0.7-4.8,0-7.3c0-0.1,0.1-0.3,0.2-0.6c-0.5,0.2-0.9,0.3-1.4,0.5c-0.6,0.1-1.2,0.3-1.7,0.3
					c-0.5,0.1-0.7-0.2-0.6-0.6c0-0.3,0.1-0.8,0.2-1.2c0.7-2.4,1.3-4.7,2-7.1c0.1-0.3,0-0.5-0.3-0.6c-2.6-0.8-5.2-1.7-7.7-2.6
					c-0.1,0-0.3-0.1-0.5-0.2c-0.3-0.2-0.3-0.6-0.1-0.9c0.5-0.7,1.3-1.2,2-1.6c0.1-0.1,0.2-0.2,0.5-0.3c-0.2,0-0.3-0.1-0.5-0.1
					c-1.3-0.3-2.4-0.8-3.5-1.5c-1-0.6-1.8-1.4-2.5-2.3c-0.2-0.3-0.5-0.7-0.7-0.9c-0.3-0.3-0.7-0.7-1.2-0.9c-0.7-0.3-1.4-0.7-2-1
					c-0.5-0.2-0.6-0.6-0.5-1.2c0.2-0.7,0.5-0.9,1-0.8c0.8,0.1,1.7,0.2,2.5,0.2c0.2,0,0.6,0,0.8-0.1c0.5-0.1,0.9-0.2,1.3-0.3
					c2.4-0.9,4.8-0.8,7.3,0c0.1,0,0.2,0.1,0.3,0.1c0,0,0,0,0.1,0c-0.2-0.5-0.3-0.9-0.6-1.5c-0.1-0.5-0.2-0.9-0.3-1.5
					c-0.1-0.5,0.2-0.7,0.7-0.7c0.3,0,0.8,0.1,1.2,0.2c2.4,0.7,4.7,1.3,7.1,2c0.3,0.1,0.5,0,0.7-0.3c0.8-2.5,1.7-5.2,2.6-7.7
					c0-0.1,0.1-0.3,0.2-0.5c0.2-0.3,0.5-0.3,0.8-0.1c0.7,0.5,1.2,1.3,1.6,2c0.1,0.1,0.2,0.3,0.3,0.5c0.2-0.6,0.3-1.2,0.5-1.6
					c0.7-2.1,2-3.8,3.8-5.1c0.8-0.6,1.5-1.3,1.8-2.2c0.2-0.5,0.6-1,0.8-1.5c0.3-0.5,0.6-0.6,1.4-0.3c0.5,0.1,0.6,0.5,0.6,0.9
					c-0.1,0.8-0.2,1.6-0.2,2.3c0,0.5,0,0.8,0.1,1.3c0.1,0.3,0.2,0.7,0.3,1c0.9,2.4,0.7,4.8,0,7.3c0,0.1-0.1,0.3-0.2,0.6
					c0.5-0.2,0.9-0.3,1.4-0.5c0.6-0.1,1.2-0.3,1.7-0.3c0.5-0.1,0.7,0.2,0.6,0.6c0,0.3-0.1,0.8-0.2,1.2c-0.7,2.4-1.3,4.7-2,7.1
					c-0.1,0.3,0,0.5,0.3,0.6c2.6,0.8,5.2,1.7,7.7,2.6c0.1,0,0.3,0.1,0.5,0.2c0.3,0.2,0.3,0.6,0.1,0.9c-0.5,0.7-1.3,1.2-2,1.6
					c-0.1,0.1-0.2,0.2-0.5,0.3c0.2,0,0.3,0.1,0.5,0.1c1.3,0.3,2.4,0.8,3.5,1.5c1,0.6,1.8,1.4,2.5,2.3c0.2,0.3,0.5,0.7,0.7,0.9
					c0.3,0.3,0.7,0.7,1.2,0.9c0.7,0.3,1.4,0.7,2,1c0.5,0.2,0.6,0.6,0.5,1.2c-0.2,0.7-0.5,0.9-1,0.8c-0.8-0.1-1.7-0.2-2.5-0.2
					c-0.2,0-0.6,0-0.8,0.1c-0.5,0.1-0.9,0.2-1.3,0.3c-2.4,0.9-4.8,0.8-7.3,0C94.3,77.4,94.1,77.4,94,77.3z M56.3,60.9
					c0.6,0.7,1.2,1.5,1.8,2.3c0.6,0.6,1,1.2,1.7,1.6c1.3,0.9,2.8,1.6,4.4,2c0.1,0,0.3,0,0.5-0.1c1-0.7,2.1-1.4,3.1-2
					c0.2-0.1,0.2-0.2,0.1-0.5c-0.5-1.2-0.9-2.3-1.5-3.5c-0.1-0.1-0.2-0.3-0.3-0.3c-0.7-0.2-1.3-0.3-2-0.5c-2.1-0.5-4-0.5-6,0.3
					C57.6,60.6,56.9,60.7,56.3,60.9z M103.4,75.3c-0.6-0.7-1.2-1.5-1.8-2.3c-0.6-0.6-1-1.2-1.7-1.6c-1.3-0.9-2.8-1.6-4.4-2
					c-0.1,0-0.3,0-0.5,0.1c-1,0.7-2.1,1.4-3.1,2c-0.2,0.1-0.2,0.2-0.1,0.5c0.5,1.2,0.9,2.3,1.5,3.5c0.1,0.1,0.2,0.3,0.5,0.3
					c0.8,0.2,1.7,0.5,2.5,0.6c1.7,0.3,3.5,0.2,5.1-0.5C101.9,75.7,102.7,75.6,103.4,75.3z M72.7,91.7c0.7-0.6,1.4-1.2,2.1-1.6
					c0.7-0.6,1.4-1.2,1.8-2c0.9-1.4,1.5-2.8,2-4.4c0-0.1,0-0.3-0.1-0.5c-0.7-1-1.4-2.1-2.1-3.1c-0.1-0.2-0.2-0.2-0.5-0.1
					c-1.2,0.5-2.3,0.9-3.3,1.4c-0.1,0.1-0.3,0.2-0.3,0.5c-0.2,0.8-0.5,1.7-0.6,2.5c-0.3,1.5-0.3,3.1,0.2,4.7
					C72.1,90,72.3,90.9,72.7,91.7z M87.1,44.6c-0.7,0.5-1.3,1-2.1,1.6c-0.7,0.6-1.4,1.2-1.8,2c-0.9,1.4-1.6,2.9-2,4.4
					c0,0.1,0,0.3,0.1,0.5c0.7,1,1.4,2.1,2.1,3.1c0.1,0.2,0.2,0.2,0.5,0.1c1.2-0.5,2.3-0.9,3.3-1.4c0.1-0.1,0.3-0.2,0.3-0.5
					c0.2-0.8,0.5-1.7,0.6-2.5c0.2-1.6,0.3-3.1-0.2-4.7C87.5,46.3,87.3,45.4,87.1,44.6z M92.9,79.4c-0.3-0.8-0.7-1.6-1-2.4
					c0-0.1-0.1-0.1-0.2-0.1c-1.4,0-2.6-0.2-3.9-0.7c-2.2-0.9-3.8-2.3-4.6-4.6c-0.1-0.3-0.3-0.7-0.5-1c-0.6-1-1.5-1.5-2.6-1.7
					c-0.1,0.6-0.2,1.2-0.2,1.8c0,0.9,0.5,1.6,1,2.3c0.8,1,1.3,2.3,1.4,3.6c0.1,2.3-0.5,4.4-1.8,6.2c0,0.1-0.1,0.2,0,0.2
					c0.5,0.7,0.9,1.5,1.4,2.3c0.1-0.1,0.1-0.2,0.1-0.3c0.7-2.3,1.4-4.5,2.1-6.8c0.3-1,0.7-1.2,1.6-0.9c2.3,0.7,4.6,1.4,6.8,2.1
					C92.6,79.2,92.7,79.2,92.9,79.4z M88.6,56.1c-0.1,1.4-0.2,2.8-0.7,4.1c-0.9,2.2-2.3,3.8-4.6,4.6c-0.3,0.1-0.8,0.3-1.2,0.5
					c-1,0.6-1.4,1.5-1.7,2.5c0.6,0.1,1.2,0.2,1.7,0.2c0.9,0,1.6-0.5,2.4-1c1.2-0.8,2.4-1.3,3.8-1.4c2.2-0.1,4.3,0.6,6.1,1.8
					c0.1,0,0.2,0.1,0.2,0c0.7-0.5,1.5-0.9,2.3-1.4C96.7,66,96.6,66,96.5,66c-2.3-0.7-4.5-1.4-6.8-2.1c-0.9-0.3-1.2-0.7-0.9-1.6
					c0.7-2.3,1.4-4.6,2.1-6.8c0-0.1,0.1-0.2,0.1-0.5C90.2,55.4,89.4,55.7,88.6,56.1z M79.2,68.3c-0.6-0.1-1.2-0.2-1.7-0.2
					c-0.9,0-1.6,0.5-2.3,1c-1,0.8-2.3,1.3-3.7,1.4c-2.3,0.1-4.4-0.6-6.2-1.8c-0.1,0-0.2-0.1-0.2,0c-0.7,0.5-1.5,0.9-2.3,1.4
					c0.2,0.1,0.3,0.1,0.5,0.1c2.3,0.7,4.5,1.4,6.8,2.1c0.9,0.3,1.2,0.7,0.9,1.6c-0.7,2.3-1.4,4.6-2.1,6.8c0,0.1-0.1,0.2-0.1,0.5
					c0.9-0.5,1.7-0.8,2.4-1c0.2-1.2,0.2-2.2,0.6-3.2c0.8-2.6,2.3-4.6,5.1-5.5C78.1,70.8,78.9,69.9,79.2,68.3z M79.6,67.5
					c0.1-0.6,0.2-1.2,0.2-1.8c0-0.9-0.5-1.6-1-2.3c-0.8-1-1.3-2.2-1.4-3.6c-0.2-2.3,0.5-4.4,1.7-6.3c0-0.1,0.1-0.2,0-0.2
					c-0.5-0.7-0.9-1.5-1.4-2.3c-0.1,0.2-0.1,0.3-0.1,0.5c-0.7,2.3-1.4,4.5-2.1,6.8c-0.3,0.9-0.7,1.2-1.6,0.9
					c-2.3-0.7-4.6-1.4-6.8-2.1c-0.1,0-0.2-0.1-0.5-0.1c0.3,0.9,0.7,1.6,1,2.4c0,0.1,0.2,0.1,0.2,0.1c1,0.1,2,0.1,3,0.3
					c2.6,0.8,4.6,2.3,5.5,5.1C77,66.2,78,67.1,79.6,67.5z M93.2,68.5c-0.5-0.2-0.8-0.5-1.2-0.6c-2.3-1.2-4.5-1.3-6.8,0.2
					c-0.6,0.3-1.3,0.6-2,0.9c0,0-0.1,0,0,0c0.3,0.7,0.8,1.3,1,2c0.9,2.2,2.5,3.3,4.7,3.9c0.7,0.1,1.4,0.2,2.2,0.2
					c-0.3-0.9-0.8-1.8-1.2-2.6c-0.6-1.4-0.5-1.6,0.7-2.4C91.6,69.7,92.4,69.1,93.2,68.5z M68.5,61c0,0.1,0.1,0.2,0.1,0.5
					c0.3,0.9,0.7,1.7,1.2,2.6c0.3,0.8,0.2,1.2-0.5,1.6c-0.8,0.6-1.6,1-2.4,1.6c-0.1,0.1-0.2,0.1-0.3,0.2c0.6,0.3,1,0.6,1.5,0.8
					c1.8,0.8,3.7,1,5.6,0.1c1-0.5,2-1,2.9-1.5c-0.2-0.3-0.5-0.7-0.7-1c-0.2-0.3-0.5-0.8-0.6-1.3C73.9,62.1,71,61,68.5,61z
					 M72.8,79.4c0.1-0.1,0.2-0.1,0.3-0.1c0.9-0.3,1.8-0.8,2.8-1.2c0.8-0.3,1-0.2,1.5,0.5c0.2,0.3,0.5,0.7,0.7,1
					c0.5,0.6,0.8,1.3,1.3,1.8c0.2-0.5,0.5-0.8,0.6-1.2c1.2-2.3,1.3-4.5-0.2-6.8c-0.3-0.6-0.6-1.3-0.9-2c0,0,0-0.1,0,0
					c-0.7,0.3-1.4,0.8-2.1,1.2C73.9,73.7,72.8,76.6,72.8,79.4z M80.3,54.8c-0.2,0.5-0.5,0.8-0.6,1.2c-1.2,2.3-1.3,4.5,0.2,6.8
					c0.3,0.6,0.6,1.3,0.9,2c0,0,0,0.1,0,0c0.7-0.3,1.3-0.8,2-1c2.2-0.9,3.5-2.5,3.9-4.7c0.1-0.7,0.2-1.4,0.2-2.2
					c-0.2,0.1-0.3,0.1-0.5,0.1c-0.9,0.3-1.7,0.7-2.6,1.2c-0.8,0.3-1.2,0.2-1.7-0.5c-0.2-0.3-0.5-0.6-0.6-0.9
					C81.1,56.1,80.7,55.4,80.3,54.8z"/>
				<path class="st11" d="M60.1,40.3c-0.2,0.8-1,1.3-1.7,1c-0.7-0.2-1.3-1.2-1-2s1-1.3,1.8-1C60,38.6,60.3,39.4,60.1,40.3z"/>
				<path class="st11" d="M68.6,33.4c0.8,0.2,1.3,1.2,1,2c-0.2,0.7-1,1.2-1.8,0.9c-0.8-0.2-1.4-1-1.2-1.7
					C66.9,33.6,67.8,33.2,68.6,33.4z"/>
				<path class="st11" d="M57.8,46.2c-0.2,0.8-0.8,1.2-1.6,0.9c-0.8-0.2-1.2-0.9-0.9-1.6c0.2-0.8,1-1.4,1.8-1.2
					C57.8,44.6,58.1,45.3,57.8,46.2z"/>
				<path class="st11" d="M73.9,37.7c-0.9-0.2-1.3-0.9-1-1.7c0.2-0.7,1.2-1.2,2-0.8c0.7,0.2,1,0.9,0.8,1.7
					C75.4,37.5,74.7,37.9,73.9,37.7z"/>
				<path class="st11" d="M114.5,56.9c-0.2,0.8-1.2,1.3-1.8,1c-0.7-0.2-1.2-1-0.9-1.8c0.2-0.8,1-1.4,1.7-1.2
					C114.3,55.2,114.7,56.1,114.5,56.9z"/>
				<path class="st11" d="M108.6,45.6c0.8,0.2,1.3,1.2,1,1.8c-0.2,0.7-1,1.2-2,0.8c-0.8-0.2-1.3-1-1-1.7
					C106.9,46,107.8,45.4,108.6,45.6z"/>
				<path class="st11" d="M110.3,62.3c0.2-0.9,0.9-1.3,1.6-1s1.2,1.2,0.8,2c-0.2,0.7-0.9,1-1.7,0.8
					C110.3,63.7,110.1,63.1,110.3,62.3z"/>
				<path class="st11" d="M101.7,46.2c-0.8-0.2-1.2-0.8-0.9-1.6c0.2-0.8,0.9-1.2,1.6-0.9c0.8,0.2,1.4,1,1.2,1.8
					C103.3,46.1,102.6,46.4,101.7,46.2z"/>
				<path class="st11" d="M45.1,79.4c0.2-0.8,1.2-1.3,2-1c0.7,0.2,1.2,1,0.9,1.8c-0.2,0.8-1,1.4-1.7,1.2
					C45.4,81,44.9,80.2,45.1,79.4z"/>
				<path class="st11" d="M51.1,90.5c-0.8-0.2-1.3-1.2-1-1.8c0.2-0.7,1-1.2,2-0.8c0.8,0.2,1.3,1,1,1.7
					C52.8,90.3,51.8,90.8,51.1,90.5z"/>
				<path class="st11" d="M49.4,73.9c-0.2,0.9-0.9,1.3-1.6,1.2c-0.7-0.2-1.2-1.2-0.8-2c0.2-0.7,0.9-1,1.7-0.8
					C49.3,72.6,49.6,73.1,49.4,73.9z"/>
				<path class="st11" d="M57.9,90.1c0.8,0.2,1.2,0.8,0.9,1.6s-0.9,1.2-1.6,0.9c-0.8-0.2-1.4-1-1.2-1.8C56.3,90.1,57,89.8,57.9,90.1
					z"/>
				<path class="st11" d="M102.3,96.9c-0.2,0.8-1.2,1.3-1.8,0.9c-0.7-0.2-1.2-1-0.8-2c0.2-0.8,1-1.3,1.7-1
					C102,95.1,102.5,96.1,102.3,96.9z"/>
				<path class="st11" d="M91.1,102.9c-0.8-0.2-1.3-1.2-1-2c0.2-0.7,1-1.2,1.8-0.9c0.8,0.2,1.4,1,1.2,1.7
					C92.7,102.6,91.8,103.1,91.1,102.9z"/>
				<path class="st11" d="M101.8,90c0.2-0.8,0.8-1.2,1.6-0.9c0.8,0.2,1.2,0.9,0.9,1.6c-0.2,0.8-1,1.3-1.8,1.2
					C101.8,91.6,101.6,90.9,101.8,90z"/>
				<path class="st11" d="M85.7,98.6c0.9,0.2,1.3,0.9,1.2,1.6c-0.2,0.7-1.2,1.2-2,0.8c-0.7-0.2-1-0.9-0.8-1.7
					C84.3,98.6,84.9,98.4,85.7,98.6z"/>
			</g>
		</g>
	</g>
</g>
<g>
	<g>
		<g>
			<defs>
				<polygon id="SVGID_9_" points="222.2,302.6 225.2,305 228.4,303 227,306.5 230,308.8 226.2,308.7 224.9,312.3 223.9,308.5 
					220.1,308.4 223.2,306.4 				"/>
			</defs>
			<use xlink:href="#SVGID_9_"  style="overflow:visible;fill:#F4B860;"/>
			<clipPath id="SVGID_10_">
				<use xlink:href="#SVGID_9_"  style="overflow:visible;"/>
			</clipPath>
		</g>
	</g>
	<g>
		<g>
			<defs>
				<polygon id="SVGID_11_" points="222.2,302.6 225.2,305 228.4,303 227,306.5 230,308.8 226.2,308.7 224.9,312.3 223.9,308.5 
					220.1,308.4 223.2,306.4 				"/>
			</defs>
			<use xlink:href="#SVGID_11_"  style="overflow:visible;fill:#F4B860;"/>
			<clipPath id="SVGID_12_">
				<use xlink:href="#SVGID_11_"  style="overflow:visible;"/>
			</clipPath>
			<rect x="220.1" y="302.6" class="st12" width="9.9" height="0.5"/>
			<rect x="220.1" y="303.2" class="st12" width="9.9" height="0.8"/>
			<rect x="220.1" y="303.9" class="st12" width="9.9" height="0.9"/>
			<rect x="220.1" y="304.8" class="st12" width="9.9" height="0.8"/>
			<rect x="220.1" y="305.6" class="st12" width="9.9" height="0.8"/>
			<rect x="220.1" y="306.4" class="st12" width="9.9" height="0.8"/>
			<rect x="220.1" y="307.1" class="st12" width="9.9" height="0.7"/>
			<rect x="220.1" y="307.8" class="st12" width="9.9" height="0.9"/>
			<rect x="220.1" y="308.7" class="st12" width="9.9" height="0.6"/>
			<rect x="220.1" y="309.4" class="st12" width="9.9" height="0.9"/>
			<rect x="220.1" y="310.3" class="st12" width="9.9" height="0.7"/>
			<rect x="220.1" y="311" class="st12" width="9.9" height="0.9"/>
			<rect x="220.1" y="311.9" class="st12" width="9.9" height="0.4"/>
		</g>
	</g>
	<g>
		<g>
			<defs>
				<polygon id="SVGID_13_" points="222.2,302.6 225.2,305 228.4,303 227,306.5 230,308.8 226.2,308.7 224.9,312.3 223.9,308.5 
					220.1,308.4 223.2,306.4 				"/>
			</defs>
			<use xlink:href="#SVGID_13_"  style="overflow:visible;fill:#F4B860;"/>
			<clipPath id="SVGID_14_">
				<use xlink:href="#SVGID_13_"  style="overflow:visible;"/>
			</clipPath>
		</g>
	</g>
</g>
<g>
	<g>
		<g>
			<defs>
				<polygon id="SVGID_15_" points="708.6,44.1 711.6,46.5 714.7,44.4 713.4,47.9 716.4,50.3 712.6,50.2 711.3,53.7 710.2,50 
					706.4,49.9 709.6,47.8 				"/>
			</defs>
			<clipPath id="SVGID_16_">
				<use xlink:href="#SVGID_15_"  style="overflow:visible;"/>
			</clipPath>
		</g>
	</g>
	<g>
		<g>
			<defs>
				<polygon id="SVGID_17_" points="708.6,44.1 711.6,46.5 714.7,44.4 713.4,47.9 716.4,50.3 712.6,50.2 711.3,53.7 710.2,50 
					706.4,49.9 709.6,47.8 				"/>
			</defs>
			<use xlink:href="#SVGID_17_"  style="overflow:visible;fill:#1B3860;"/>
			<clipPath id="SVGID_18_">
				<use xlink:href="#SVGID_17_"  style="overflow:visible;"/>
			</clipPath>
			<rect x="706.4" y="44.1" class="st13" width="10" height="0.6"/>
			<rect x="706.4" y="44.7" class="st13" width="10" height="0.7"/>
			<rect x="706.4" y="45.4" class="st13" width="10" height="0.8"/>
			<rect x="706.4" y="46.2" class="st13" width="10" height="0.8"/>
			<rect x="706.4" y="47" class="st13" width="10" height="0.7"/>
			<rect x="706.4" y="47.8" class="st13" width="10" height="0.8"/>
			<rect x="706.4" y="48.5" class="st13" width="10" height="0.9"/>
			<rect x="706.4" y="49.4" class="st13" width="10" height="0.8"/>
			<rect x="706.4" y="50.2" class="st13" width="10" height="0.7"/>
			<rect x="706.4" y="50.9" class="st13" width="10" height="0.8"/>
			<rect x="706.4" y="51.7" class="st13" width="10" height="0.8"/>
			<rect x="706.4" y="52.5" class="st13" width="10" height="0.8"/>
			<rect x="706.4" y="53.3" class="st13" width="10" height="0.4"/>
		</g>
	</g>
	<g>
		<g>
			<defs>
				<polygon id="SVGID_19_" points="708.6,44.1 711.6,46.5 714.7,44.4 713.4,47.9 716.4,50.3 712.6,50.2 711.3,53.7 710.2,50 
					706.4,49.9 709.6,47.8 				"/>
			</defs>
			<clipPath id="SVGID_20_">
				<use xlink:href="#SVGID_19_"  style="overflow:visible;"/>
			</clipPath>
		</g>
	</g>
</g>
<g>
	<g>
		<g>
			<defs>
				<polygon id="SVGID_21_" points="589.9,96.5 598.6,103.4 608.3,97.1 604,107.8 612.8,114.7 601.6,114.2 597.7,124.9 594.5,114 
					583.4,113.4 592.8,107.2 				"/>
			</defs>
			<use xlink:href="#SVGID_21_"  style="overflow:visible;fill:#DAA84D;"/>
			<clipPath id="SVGID_22_">
				<use xlink:href="#SVGID_21_"  style="overflow:visible;"/>
			</clipPath>
		</g>
	</g>
	<g>
		<g>
			<defs>
				<polygon id="SVGID_23_" points="589.9,96.5 598.6,103.4 608.3,97.1 604,107.8 612.8,114.7 601.6,114.2 597.7,124.9 594.5,114 
					583.4,113.4 592.8,107.2 				"/>
			</defs>
			<use xlink:href="#SVGID_23_"  style="overflow:visible;fill:#DAA84D;"/>
			<clipPath id="SVGID_24_">
				<use xlink:href="#SVGID_23_"  style="overflow:visible;"/>
			</clipPath>
			<rect x="583.4" y="96.5" class="st14" width="29.4" height="1.5"/>
			<rect x="583.4" y="98" class="st14" width="29.4" height="2.6"/>
			<rect x="583.4" y="100.5" class="st14" width="29.4" height="2"/>
			<rect x="583.4" y="102.6" class="st14" width="29.4" height="2.2"/>
			<rect x="583.4" y="104.8" class="st14" width="29.4" height="2.5"/>
			<rect x="583.4" y="107.2" class="st14" width="29.4" height="2.4"/>
			<rect x="583.4" y="109.7" class="st14" width="29.4" height="2.3"/>
			<rect x="583.4" y="111.9" class="st14" width="29.4" height="2.3"/>
			<rect x="583.4" y="114.2" class="st14" width="29.4" height="2.4"/>
			<rect x="583.4" y="116.7" class="st14" width="29.4" height="2.3"/>
			<rect x="583.4" y="119" class="st14" width="29.4" height="2.5"/>
			<rect x="583.4" y="121.4" class="st14" width="29.4" height="2.5"/>
			<rect x="583.4" y="124" class="st14" width="29.4" height="1"/>
		</g>
	</g>
	<g>
		<g>
			<defs>
				<polygon id="SVGID_25_" points="589.9,96.5 598.6,103.4 608.3,97.1 604,107.8 612.8,114.7 601.6,114.2 597.7,124.9 594.5,114 
					583.4,113.4 592.8,107.2 				"/>
			</defs>
			<use xlink:href="#SVGID_25_"  style="overflow:visible;fill:#DAA84D;"/>
			<clipPath id="SVGID_26_">
				<use xlink:href="#SVGID_25_"  style="overflow:visible;"/>
			</clipPath>
		</g>
	</g>
</g>
<g>
	<path class="st1" d="M716.8,313.3l2.2-1.1h-8.1h-8.1l2.2,1.1c0.7,0.3,0.8,1,0.2,1.5l-0.3,0.2c-0.8,0.6-1.2,1.3-1.2,2.2v0
		c0,0.9,0.5,1.7,1.5,2.3l5.7,3.6l5.7-3.6c0.9-0.6,1.5-1.4,1.5-2.3v0c0-0.8-0.4-1.6-1.2-2.2l-0.3-0.2
		C716,314.3,716.1,313.6,716.8,313.3z"/>
	<path class="st1" d="M721,307.4h-20.1c-0.4,0-0.6,0.4-0.4,0.8l1,2.5c0.1,0.2,0.3,0.3,0.4,0.3H720c0.2,0,0.4-0.1,0.4-0.3l1-2.5
		C721.6,307.9,721.3,307.4,721,307.4z"/>
	<path class="st1" d="M724.5,301.4h-27.2c-0.3,0-0.6,0.3-0.5,0.7l1.6,4.3c0.1,0.2,0.3,0.3,0.5,0.3h24.1c0.2,0,0.4-0.1,0.5-0.3
		l1.5-4.3C725.1,301.7,724.8,301.4,724.5,301.4z M720.4,304.6h-19.4c-0.3,0-0.6-0.2-0.6-0.6s0.3-0.6,0.6-0.6h19.4
		c0.3,0,0.6,0.3,0.6,0.6S720.8,304.6,720.4,304.6z"/>
	<path class="st1" d="M698,269c-0.4,0-0.8,0.3-0.8,0.8v1.8c0,0.4,0.3,0.8,0.8,0.8h25.8c0.4,0,0.8-0.3,0.8-0.8v-1.8
		c0-0.4-0.3-0.8-0.8-0.8H698z"/>
	<path class="st1" d="M698.2,267.9l0.1,0.1h25.2l0.1-0.1c1.7-1.2,2.7-2.9,2.7-4.6v-0.1c0-1.9-1.1-3.7-3.1-4.9l-11.9-7.5
		c0.2-0.1,0.3-0.3,0.3-0.6v-2.7c0-0.4-0.3-0.7-0.7-0.7c-0.4,0-0.7,0.3-0.7,0.7v2.7c0,0.2,0.1,0.4,0.3,0.6l-11.9,7.5
		c-2,1.3-3.1,3-3.1,4.9v0.1C695.5,265,696.5,266.7,698.2,267.9z"/>
	<polygon class="st1" points="694.6,273.3 693.6,273.7 694.6,273.7 	"/>
	<path class="st1" d="M725.4,273.4h-29.1c-1,0-1.8,0.8-1.8,1.8v23.3c0,1,0.8,1.8,1.8,1.8h29.1c1,0,1.8-0.8,1.8-1.8v-23.3
		C727.2,274.2,726.4,273.4,725.4,273.4z M702.5,297.7h-5.8v-11.1h5.8V297.7z M699.7,284.7h-2.9l0.8-0.9c0.3-0.3,0.3-0.8,0.1-1.2
		l-0.1-0.2c-0.3-0.5-0.4-1.1-0.4-1.8v0c0-0.7,0.2-1.4,0.5-1.9l2-3l2,3c0.3,0.5,0.5,1.2,0.5,1.9v0c0,0.7-0.2,1.3-0.4,1.8l-0.1,0.2
		c-0.2,0.4-0.2,0.9,0.1,1.2l0.8,0.9H699.7z M715.9,297.7h-10.2v-11.1h10.2V297.7z M710.8,284.7h-5.1l1.4-0.9
		c0.4-0.3,0.5-0.9,0.1-1.3l-0.2-0.2c-0.5-0.5-0.8-1.2-0.8-1.9v0c0-0.8,0.3-1.5,0.9-2l3.6-3.1l3.6,3.1c0.6,0.5,0.9,1.2,0.9,2v0
		c0,0.7-0.3,1.4-0.8,1.9l-0.2,0.2c-0.4,0.4-0.3,1,0.1,1.3l1.4,0.9H710.8z M725,297.7h-5.8v-11.1h5.8V297.7z M722.1,284.7h-2.9
		l0.8-0.9c0.3-0.3,0.3-0.8,0.1-1.2l-0.1-0.2c-0.3-0.5-0.4-1.1-0.4-1.8v0c0-0.7,0.2-1.4,0.5-1.9l2-3l2,3c0.3,0.5,0.5,1.2,0.5,1.9v0
		c0,0.7-0.2,1.3-0.4,1.8l-0.1,0.2c-0.2,0.4-0.2,0.9,0.1,1.2l0.8,0.9H722.1z"/>
	<path class="st1" d="M710.9,234.8c0.4,0,0.7-0.3,0.7-0.7v-2.7c0-0.4-0.3-0.7-0.7-0.7c-0.4,0-0.7,0.3-0.7,0.7v2.7
		C710.2,234.5,710.5,234.8,710.9,234.8z"/>
	<path class="st1" d="M710.9,240.1c0.4,0,0.7-0.3,0.7-0.7v-2.7c0-0.4-0.3-0.7-0.7-0.7c-0.4,0-0.7,0.3-0.7,0.7v2.7
		C710.2,239.8,710.5,240.1,710.9,240.1z"/>
	<path class="st1" d="M710.9,245.5c0.4,0,0.7-0.3,0.7-0.7v-2.7c0-0.4-0.3-0.7-0.7-0.7c-0.4,0-0.7,0.3-0.7,0.7v2.7
		C710.2,245.2,710.5,245.5,710.9,245.5z"/>
</g>
</svg>
