<?xml version="1.0" encoding="utf-8"?>
<!-- Generator: Adobe Illustrator 26.3.1, SVG Export Plug-In . SVG Version: 6.00 Build 0)  -->
<svg version="1.1" id="Layer_1" xmlns="http://www.w3.org/2000/svg" xmlns:xlink="http://www.w3.org/1999/xlink" x="0px" y="0px"
	 viewBox="0 0 800 323.7" style="enable-background:new 0 0 800 323.7;" xml:space="preserve">
<style type="text/css">
	.st0{fill:url(#SVGID_1_);}
	.st1{fill:url(#SVGID_00000026132575499987004790000000737130613408684425_);}
	.st2{fill:#221E59;}
	.st3{fill:#DAA84D;}
	.st4{fill:#F4B860;}
	.st5{fill:#FFFFFF;}
	.st6{fill:url(#SVGID_00000078741792024869536550000015547256878571791780_);}
	.st7{fill:url(#SVGID_00000124155469616568725950000015848517077734161801_);}
	.st8{fill:url(#SVGID_00000081635387202267438970000017624156023767123584_);}
	.st9{fill:url(#SVGID_00000161629242376621388420000011023170756781046152_);}
	
		.st10{opacity:0.42;clip-path:url(#SVGID_00000146472783854477024210000015823076535644130482_);fill:url(#SVGID_00000159440617973300507020000007727790705553265593_);}
	.st11{fill:url(#SVGID_00000049197675997837436520000011020273124464624260_);}
	.st12{fill:url(#SVGID_00000095341068814106164880000003671398677504834201_);}
	.st13{fill:url(#SVGID_00000173141903891583469090000012069749188033668779_);}
	.st14{fill:url(#SVGID_00000003800634142862353750000013482096361167350150_);}
	
		.st15{clip-path:url(#SVGID_00000045616398410738826650000005472673313239441566_);fill:url(#SVGID_00000036231158394519121350000008210544941120038576_);}
	.st16{fill:url(#SVGID_00000084497081316525401290000007872819846093911964_);}
	.st17{fill:url(#SVGID_00000036956425951462317660000003651874710560126382_);}
	
		.st18{opacity:0.43;clip-path:url(#SVGID_00000127757865645431733060000017853579972112560049_);fill:url(#SVGID_00000045604542379621842220000003519561989221526656_);}
	
		.st19{opacity:0.43;clip-path:url(#SVGID_00000053522667622673750090000002353896698887159736_);fill:url(#SVGID_00000036241362943829985420000002779251323123101583_);}
	.st20{fill:url(#SVGID_00000026157794782998156100000001257677433553450633_);}
	.st21{fill:url(#SVGID_00000070079065813667360640000012255407188476125062_);}
	.st22{fill:url(#SVGID_00000028309842338537970020000003348695484003992248_);}
	.st23{fill:url(#SVGID_00000116946974502211158800000010234441006195006351_);}
	.st24{fill:url(#SVGID_00000008131738236754049410000002828970850960236932_);}
	.st25{fill:url(#SVGID_00000085227948088765429420000014231090640973416325_);}
	.st26{opacity:0.2;fill:url(#SVGID_00000047061000401351120600000011668862572623562649_);}
	.st27{opacity:0.4;clip-path:url(#SVGID_00000014600548957982989700000007259026009240711808_);}
	.st28{fill:none;stroke:#984600;stroke-miterlimit:10;}
</style>
<linearGradient id="SVGID_1_" gradientUnits="userSpaceOnUse" x1="712.2103" y1="243.4736" x2="712.4631" y2="243.4736">
	<stop  offset="0" style="stop-color:#B9791C"/>
	<stop  offset="0.3016" style="stop-color:#EFB65E"/>
	<stop  offset="1" style="stop-color:#FFC167"/>
</linearGradient>
<rect x="712.2" y="230.8" class="st0" width="0.3" height="25.3"/>
<linearGradient id="SVGID_00000063616567868625332860000001253207072535734662_" gradientUnits="userSpaceOnUse" x1="748.7695" y1="243.4736" x2="749.0223" y2="243.4736" gradientTransform="matrix(-1 0 0 1 1461.4229 0)">
	<stop  offset="0" style="stop-color:#B9791C"/>
	<stop  offset="0.3016" style="stop-color:#EFB65E"/>
	<stop  offset="1" style="stop-color:#FFC167"/>
</linearGradient>
<polygon style="fill:url(#SVGID_00000063616567868625332860000001253207072535734662_);" points="712.4,256.1 712.7,256.1 
	712.7,230.8 712.4,230.8 "/>
<g>
	<g>
		<path class="st2" d="M108.7,216h33.4v14.9H90.8v-68.1h50.1v14.9h-32.2V216z M107.4,189.1h29.6v14.4h-29.6
			C107.4,203.5,107.4,189.1,107.4,189.1z"/>
		<path class="st2" d="M154.3,230.9v-68.1h30.2c7.1,0,13.3,1.4,18.6,4.2c5.3,2.8,9.6,6.7,12.5,11.8c3.1,5,4.5,11.1,4.5,18.1
			s-1.5,13-4.5,18c-3.1,5.1-7.2,9.1-12.5,11.8c-5.3,2.8-11.5,4.2-18.6,4.2L154.3,230.9L154.3,230.9z M172.4,215.5h11.4
			c3.6,0,6.8-0.7,9.6-2.2c2.7-1.5,4.8-3.6,6.3-6.4c1.5-2.9,2.3-6.2,2.3-10c0-3.9-0.8-7.3-2.3-10.1c-1.5-2.8-3.6-4.9-6.3-6.4
			c-2.8-1.5-5.9-2.2-9.6-2.2h-11.4V215.5z"/>
		<path class="st2" d="M261.4,232.3c-9.5,0-16.8-2.8-22.1-8.3c-5.3-5.5-8-13.3-8-23.4v-37.8h18.1V200c0,5.8,1.1,10,3.2,12.6
			c2.2,2.6,5.1,3.8,8.9,3.8s6.7-1.3,8.9-3.8c2.2-2.6,3.2-6.7,3.2-12.6v-37.2h17.8v37.8c0,10.1-2.7,17.9-8,23.4
			C278.1,229.5,270.8,232.3,261.4,232.3z"/>
		<path class="st2" d="M305.8,230.9v-68.1h14.9l26.5,46.4h-7.9l25.7-46.4h14.9l0.2,68.1h-16.6l-0.2-41.2h2.9l-19.3,34.5h-8.1
			l-19.8-34.5h3.4v41.2H305.8z"/>
		<path class="st2" d="M387.3,230.9l28.2-68.1h17.8l28.3,68.1h-18.8l-22.1-58.7h7.1l-22.1,58.7H387.3L387.3,230.9z M402.8,217.6
			l4.6-14.2h31.2l4.6,14.2H402.8z"/>
		<path class="st2" d="M491.4,232.3c-5.2,0-10.2-0.7-15.1-2.1s-8.8-3.2-11.8-5.4l5.9-14.2c2.9,2,6.2,3.5,9.9,4.8
			c3.7,1.3,7.5,1.9,11.2,1.9c2.5,0,4.5-0.2,6-0.7c1.5-0.5,2.7-1.2,3.3-2c0.7-0.8,1.1-1.8,1.1-2.9c0-1.6-0.7-2.8-2-3.7
			c-1.4-0.9-3.1-1.7-5.2-2.3c-2.2-0.6-4.5-1.2-7.1-1.8s-5.2-1.4-7.8-2.3c-2.6-0.9-4.9-2.1-7.1-3.5c-2.2-1.5-3.8-3.3-5.2-5.7
			s-2-5.4-2-9c0-4.1,1.1-7.8,3.2-11.1c2.1-3.3,5.2-6,9.5-8c4.2-2,9.5-3.1,15.7-3.1c4.2,0,8.3,0.5,12.4,1.5c4,1,7.7,2.5,10.8,4.4
			l-5.6,14.3c-3.1-1.8-6-3.1-9.1-3.9c-3-0.9-5.9-1.3-8.7-1.3c-2.5,0-4.5,0.3-6,0.8c-1.5,0.6-2.7,1.3-3.2,2.2c-0.7,0.9-1,2-1,3.2
			c0,1.5,0.7,2.7,2,3.5c1.3,0.9,3.1,1.6,5.2,2.2c2.2,0.6,4.5,1.1,7.1,1.7s5.2,1.3,7.8,2.2c2.6,0.9,4.9,2.1,7.1,3.5
			c2.2,1.5,3.8,3.3,5.1,5.7c1.3,2.4,2,5.3,2,8.9c0,3.9-1.1,7.6-3.2,10.9c-2.1,3.3-5.2,6-9.4,8.1
			C502.9,231.2,497.7,232.3,491.4,232.3z"/>
		<path class="st2" d="M543.8,230.9V178h-19.6v-15.3h57.2V178h-19.6v52.9H543.8z"/>
		<path class="st2" d="M608.2,216h33.4v14.9h-51.2v-68.1h50.1v14.9h-32.2L608.2,216L608.2,216L608.2,216z M606.9,189.1h29.6v14.4
			h-29.6V189.1z"/>
		<path class="st2" d="M653.9,230.9v-68.1h29.2c5.8,0,10.8,1,15.1,3.1c4.2,2,7.5,4.9,9.8,8.8c2.3,3.8,3.4,8.3,3.4,13.5
			c0,5.1-1.2,9.6-3.4,13.3c-2.3,3.7-5.6,6.6-9.8,8.6s-9.3,3-15.1,3h-19.2l8.1-8.1V231L653.9,230.9L653.9,230.9z M671.9,206.8
			l-8.1-8.9h18.1c3.7,0,6.6-0.9,8.5-2.7c1.9-1.8,2.8-4.2,2.8-7.3c0-3.2-0.9-5.6-2.8-7.4c-1.9-1.8-4.6-2.7-8.5-2.7h-18.1l8.1-8.9
			V206.8z M693.3,230.9l-15.9-24.8h19.2l16,24.8H693.3z"/>
	</g>
</g>
<g>
	<path class="st3" d="M465.8,141.8h-129c-0.4,0-0.6-0.3-0.6-0.6v-14.8c0-0.4,0.3-0.6,0.6-0.6h129c0.4,0,0.6,0.3,0.6,0.6v14.8
		C466.5,141.5,466.2,141.8,465.8,141.8z"/>
	<g>
		<circle class="st2" cx="401.3" cy="74.6" r="13.6"/>
		<g>
			<g>
				<path class="st2" d="M410.9,59.6L410.9,59.6c0.1-14.1,7.6-25.5,7.6-25.5c-12.3-9.2-16.2-33.5-16.2-33.5l0,0v29.7
					c2.2,0.5,3.8,2.7,3.3,5c-0.3,1.7-1.7,3.2-3.3,3.5c-2.9,0.6-5.3-1.6-5.3-4.2c0-2.1,1.5-3.8,3.4-4.2V0.6l0,0
					c0,0-3.9,24.2-16.2,33.5c0,0,7.6,11.4,7.6,25.5h0.1c2.8-1.4,6-2.3,9.6-2.3S408.1,58.1,410.9,59.6z"/>
			</g>
		</g>
	</g>
	<g>
		<g>
			<g>
				<path class="st3" d="M488.4,62.3l-32,8.8c-0.7,0.2-0.7,1.1,0,1.3c3.8,1,10.3,3.3,8.2,7.9c-3,6.3-6.7,5.4-11.5,19.2
					c-0.1,0.2-0.3,0.4-0.5,0.4c-2.4,0.3-15.8,1.4-36.7-11.2c-0.3-0.2-0.7-0.1-0.9,0.2l-8.7,14c-0.2,0.3-0.1,0.6,0.1,0.9
					c2.5,2.1,16.4,12.2,59.7,15.2c0.4,0,0.8-0.3,0.7-0.7c-0.3-3.2,0.4-16.4,22.3-54.8C489.5,62.7,489,62.1,488.4,62.3z"/>
			</g>
			<path class="st3" d="M314.3,62.3l32,8.8c0.7,0.2,0.7,1.1,0,1.3c-3.8,1-10.3,3.3-8.2,7.9c3,6.3,6.7,5.4,11.5,19.2
				c0.1,0.2,0.3,0.4,0.5,0.4c2.4,0.3,15.8,1.4,36.7-11.2c0.3-0.2,0.7-0.1,0.9,0.2l8.7,14c0.2,0.3,0.1,0.6-0.1,0.9
				c-2.5,2.1-16.4,12.2-59.7,15.2c-0.4,0-0.8-0.3-0.7-0.7c0.3-3.2-0.4-16.4-22.3-54.8C313.2,62.7,313.7,62.1,314.3,62.3z"/>
		</g>
	</g>
</g>
<path class="st3" d="M336.2,142v-16.5c0-0.4,0.3-0.8,0.8-0.8h128.7c0.4,0,0.8,0.3,0.8,0.8V142c0,0.4-0.3,0.8-0.8,0.8H337
	C336.5,142.8,336.2,142.4,336.2,142z"/>
<path class="st3" d="M47.4,35.8c-3.1,1.4-4.2,2.6-5.7,5.7c-1.4-3.1-2.6-4.2-5.7-5.7c3.1-1.4,4.2-2.6,5.7-5.7
	C43.1,33.2,44.3,34.3,47.4,35.8z"/>
<path class="st3" d="M769,128.1c-3.1,1.4-4.2,2.6-5.7,5.7c-1.4-3.1-2.6-4.2-5.7-5.7c3.1-1.4,4.2-2.6,5.7-5.7
	C764.7,125.5,765.9,126.7,769,128.1z"/>
<path class="st3" d="M669.5,70.9c-3.1,1.4-4.2,2.6-5.7,5.7c-1.4-3.1-2.6-4.2-5.7-5.7c3.1-1.4,4.2-2.6,5.7-5.7
	C665.2,68.3,666.4,69.4,669.5,70.9z"/>
<path class="st4" d="M263.1,65.2c-3.1,1.4-4.2,2.6-5.7,5.7c-1.4-3.1-2.6-4.2-5.7-5.7c3.1-1.4,4.2-2.6,5.7-5.7
	C258.8,62.6,260,63.7,263.1,65.2z"/>
<path class="st3" d="M496.7,300.3c-3.1,1.4-4.2,2.6-5.7,5.7c-1.4-3.1-2.6-4.2-5.7-5.7c3.1-1.4,4.2-2.6,5.7-5.7
	C492.4,297.7,493.6,298.9,496.7,300.3z"/>
<path class="st4" d="M41.7,277.9c-3.1,1.4-4.2,2.6-5.7,5.7c-1.4-3.1-2.6-4.2-5.7-5.7c3.1-1.4,4.2-2.6,5.7-5.7
	C37.4,275.3,38.6,276.5,41.7,277.9z"/>
<path class="st5" d="M271.9,63.5c0,0.9-0.7,1.7-1.7,1.7c-0.9,0-1.7-0.7-1.7-1.7c0-0.9,0.7-1.7,1.7-1.7
	C271.1,61.9,271.9,62.6,271.9,63.5z"/>
<linearGradient id="SVGID_00000043452267050573413010000008313542190400156303_" gradientUnits="userSpaceOnUse" x1="200.1882" y1="41.7972" x2="207.7187" y2="41.7972">
	<stop  offset="1.491781e-07" style="stop-color:#221E59"/>
	<stop  offset="0.6158" style="stop-color:#221E59"/>
	<stop  offset="0.997" style="stop-color:#634B6D"/>
</linearGradient>
<polygon style="fill:url(#SVGID_00000043452267050573413010000008313542190400156303_);" points="204,38.2 205.1,40.6 207.7,41 
	205.8,42.8 206.3,45.4 204,44.2 201.6,45.4 202.1,42.8 200.2,41 202.8,40.6 "/>
<linearGradient id="SVGID_00000145746210394952802510000007171155571871959731_" gradientUnits="userSpaceOnUse" x1="457.8046" y1="277.9284" x2="465.3351" y2="277.9284">
	<stop  offset="1.491781e-07" style="stop-color:#221E59"/>
	<stop  offset="0.6158" style="stop-color:#221E59"/>
	<stop  offset="0.997" style="stop-color:#634B6D"/>
</linearGradient>
<polygon style="fill:url(#SVGID_00000145746210394952802510000007171155571871959731_);" points="461.6,274.3 462.7,276.7 
	465.3,277.1 463.5,278.9 463.9,281.5 461.6,280.3 459.2,281.5 459.7,278.9 457.8,277.1 460.4,276.7 "/>
<linearGradient id="SVGID_00000132065454508527480370000000447343254370511799_" gradientUnits="userSpaceOnUse" x1="545.2593" y1="14.4486" x2="552.7899" y2="14.4486">
	<stop  offset="1.491781e-07" style="stop-color:#221E59"/>
	<stop  offset="0.6158" style="stop-color:#221E59"/>
	<stop  offset="0.997" style="stop-color:#634B6D"/>
</linearGradient>
<polygon style="fill:url(#SVGID_00000132065454508527480370000000447343254370511799_);" points="549,10.9 550.2,13.2 552.8,13.6 
	550.9,15.4 551.4,18 549,16.8 546.7,18 547.1,15.4 545.3,13.6 547.9,13.2 "/>
<g>
	
		<linearGradient id="SVGID_00000008864239053382392370000001313277692469853864_" gradientUnits="userSpaceOnUse" x1="704.3975" y1="312.2126" x2="732.4659" y2="340.281">
		<stop  offset="0" style="stop-color:#DAA84D"/>
		<stop  offset="0.3742" style="stop-color:#DAA84D"/>
		<stop  offset="1" style="stop-color:#FFC167"/>
	</linearGradient>
	<path style="fill:url(#SVGID_00000008864239053382392370000001313277692469853864_);" d="M729.9,321.7h-35.2v0
		c0-4.2,3.4-7.6,7.6-7.6h20C726.5,314.2,729.9,317.5,729.9,321.7L729.9,321.7z"/>
	<g>
		<defs>
			<path id="SVGID_00000124150369623829876530000000434533122118576028_" d="M729.9,321.7h-35.2v0c0-4.2,3.4-7.6,7.6-7.6h20
				C726.5,314.2,729.9,317.5,729.9,321.7L729.9,321.7z"/>
		</defs>
		<clipPath id="SVGID_00000032624826613215182900000005578879747613023635_">
			<use xlink:href="#SVGID_00000124150369623829876530000000434533122118576028_"  style="overflow:visible;"/>
		</clipPath>
		
			<radialGradient id="SVGID_00000124130619874650893800000000081810819507358130_" cx="703.9894" cy="-417.6451" r="8.7853" gradientTransform="matrix(2.5031 0 0 0.3898 -1049.8193 479.6156)" gradientUnits="userSpaceOnUse">
			<stop  offset="0" style="stop-color:#874D00"/>
			<stop  offset="6.985223e-02" style="stop-color:#96631F"/>
			<stop  offset="0.2143" style="stop-color:#B18C5A"/>
			<stop  offset="0.3588" style="stop-color:#C9AF8C"/>
			<stop  offset="0.4996" style="stop-color:#DCCCB5"/>
			<stop  offset="0.6364" style="stop-color:#EBE2D6"/>
			<stop  offset="0.7678" style="stop-color:#F6F2EC"/>
			<stop  offset="0.8916" style="stop-color:#FDFCFA"/>
			<stop  offset="1" style="stop-color:#FFFFFF"/>
		</radialGradient>
		
			<ellipse style="opacity:0.42;clip-path:url(#SVGID_00000032624826613215182900000005578879747613023635_);fill:url(#SVGID_00000124130619874650893800000000081810819507358130_);" cx="712.3" cy="316.8" rx="22" ry="3.4"/>
	</g>
	
		<linearGradient id="SVGID_00000020369065539430266360000005070302520306856100_" gradientUnits="userSpaceOnUse" x1="672.6007" y1="256.1249" x2="749.02" y2="332.5442">
		<stop  offset="0" style="stop-color:#DAA84D"/>
		<stop  offset="0.7123" style="stop-color:#F9BD63"/>
		<stop  offset="1" style="stop-color:#FFC167"/>
	</linearGradient>
	<path style="fill:url(#SVGID_00000020369065539430266360000005070302520306856100_);" d="M698.5,277v37.7h27.6V277H698.5z
		 M703.9,311.4h-4.5v-16.6h0.6c-0.2-0.8-0.5-3,0.5-4.2c1-1.3,1.1-2.9,1.1-3.4c0-0.1,0-0.1,0-0.1s0,0,0,0.1c0,0.5,0.1,2.1,1.1,3.4
		c1,1.2,0.6,3.4,0.5,4.2h0.6V311.4z M719.4,311.4h-14.1v-20.8h2c-0.5-1-1.6-3.8,1.5-5.3c3.2-1.6,3.6-3.7,3.6-4.3c0-0.1,0-0.2,0-0.2
		s0,0.1,0,0.2c0,0.6,0.3,2.7,3.6,4.3c3.1,1.5,2,4.3,1.5,5.3h2V311.4z M725.3,311.4h-4.5v-16.6h0.6c-0.2-0.8-0.5-3,0.5-4.2
		c1-1.3,1.1-2.9,1.1-3.4c0-0.1,0-0.1,0-0.1s0,0,0,0.1c0,0.5,0.1,2.1,1.1,3.4c1,1.2,0.6,3.4,0.5,4.2h0.6V311.4z"/>
	<path class="st3" d="M704.6,314.7h15.5V277h-15.5V314.7z M708.7,285.3c3.2-1.6,3.6-3.7,3.6-4.3c0-0.1,0-0.2,0-0.2s0,0.1,0,0.2
		c0,0.6,0.3,2.7,3.6,4.3c3.1,1.5,2,4.3,1.5,5.3h2v20.8h-14.1v-20.8h2C706.7,289.6,705.7,286.8,708.7,285.3z"/>
	
		<linearGradient id="SVGID_00000057839425850348954480000011755765813257266064_" gradientUnits="userSpaceOnUse" x1="712.3367" y1="242.9368" x2="712.3367" y2="283.425">
		<stop  offset="0" style="stop-color:#B9791C"/>
		<stop  offset="0.3016" style="stop-color:#D99D46"/>
		<stop  offset="1" style="stop-color:#FFC167"/>
	</linearGradient>
	<path style="fill:url(#SVGID_00000057839425850348954480000011755765813257266064_);" d="M720.2,261.6c-4.6-1.2-7.9-6.4-7.9-6.4
		s-3.3,5.2-7.9,6.4c-4.6,1.2-7.1,7.5-1.9,12.2h9.7h9.7C727.3,269.1,724.8,262.9,720.2,261.6z"/>
	
		<linearGradient id="SVGID_00000114045053889153403100000015545112211979745193_" gradientUnits="userSpaceOnUse" x1="712.3367" y1="273.827" x2="712.3367" y2="231.9262">
		<stop  offset="0" style="stop-color:#B9791C"/>
		<stop  offset="0.3016" style="stop-color:#EFB65E"/>
		<stop  offset="1" style="stop-color:#FFC167"/>
	</linearGradient>
	<path style="fill:url(#SVGID_00000114045053889153403100000015545112211979745193_);" d="M716.8,261.6c-2.6-1.2-4.5-6.4-4.5-6.4
		s-1.9,5.2-4.5,6.4c-2.6,1.2-4,7.5-1.1,12.2h5.5h5.5C720.8,269.1,719.4,262.9,716.8,261.6z"/>
	
		<linearGradient id="SVGID_00000116225741834957963700000005243277336162074019_" gradientUnits="userSpaceOnUse" x1="712.0883" y1="271.1364" x2="712.0883" y2="278.8301">
		<stop  offset="0" style="stop-color:#B9791C"/>
		<stop  offset="0.3016" style="stop-color:#DD8000"/>
		<stop  offset="1" style="stop-color:#FFC167"/>
	</linearGradient>
	<path style="fill:url(#SVGID_00000116225741834957963700000005243277336162074019_);" d="M725.9,277h-27.7l0,0c0-2,1.6-3.5,3.5-3.5
		h20.6C724.4,273.5,725.9,275.1,725.9,277L725.9,277z"/>
	<g>
		<defs>
			<path id="SVGID_00000101074242943456722140000009947336293465273520_" d="M725.9,277h-27.7l0,0c0-2,1.6-3.5,3.5-3.5h20.6
				C724.4,273.5,725.9,275.1,725.9,277L725.9,277z"/>
		</defs>
		<clipPath id="SVGID_00000020388928814251432210000001345024396663159949_">
			<use xlink:href="#SVGID_00000101074242943456722140000009947336293465273520_"  style="overflow:visible;"/>
		</clipPath>
		
			<radialGradient id="SVGID_00000132069209774163742300000009443434256366699420_" cx="703.9894" cy="-519.6599" r="8.7853" gradientTransform="matrix(2.5031 0 0 0.3898 -1049.8193 479.6156)" gradientUnits="userSpaceOnUse">
			<stop  offset="0" style="stop-color:#874D00"/>
			<stop  offset="0.202" style="stop-color:#A4783D"/>
			<stop  offset="0.4932" style="stop-color:#CAB18F"/>
			<stop  offset="0.7327" style="stop-color:#E7DBCC"/>
			<stop  offset="0.9077" style="stop-color:#F8F5F1"/>
			<stop  offset="1" style="stop-color:#FFFFFF"/>
		</radialGradient>
		
			<ellipse style="clip-path:url(#SVGID_00000020388928814251432210000001345024396663159949_);fill:url(#SVGID_00000132069209774163742300000009443434256366699420_);" cx="712.3" cy="277.1" rx="22" ry="3.4"/>
	</g>
	
		<linearGradient id="SVGID_00000017491125099242070430000013520310799950399131_" gradientUnits="userSpaceOnUse" x1="692.2327" y1="257.7726" x2="730.4184" y2="295.9584">
		<stop  offset="0" style="stop-color:#B9791C"/>
		<stop  offset="0.3016" style="stop-color:#DD8000"/>
		<stop  offset="1" style="stop-color:#FFC167"/>
	</linearGradient>
	<path style="fill:url(#SVGID_00000017491125099242070430000013520310799950399131_);" d="M727.1,278.6h-30c-0.5,0-0.9-0.4-0.9-0.9
		l0,0c0-0.5,0.4-0.9,0.9-0.9h30c0.5,0,0.9,0.4,0.9,0.9l0,0C728,278.1,727.6,278.6,727.1,278.6z"/>
	
		<linearGradient id="SVGID_00000029758145732196819540000005506860091836537480_" gradientUnits="userSpaceOnUse" x1="692.2326" y1="295.2032" x2="730.4184" y2="333.3889">
		<stop  offset="0" style="stop-color:#B9791C"/>
		<stop  offset="0.3016" style="stop-color:#DD8000"/>
		<stop  offset="1" style="stop-color:#FFC167"/>
	</linearGradient>
	<path style="fill:url(#SVGID_00000029758145732196819540000005506860091836537480_);" d="M727.1,316h-30c-0.5,0-0.9-0.4-0.9-0.9
		l0,0c0-0.5,0.4-0.9,0.9-0.9h30c0.5,0,0.9,0.4,0.9,0.9l0,0C728,315.6,727.6,316,727.1,316z"/>
	<g>
		<defs>
			<path id="SVGID_00000093874443431164343400000000689215486116766646_" d="M727.1,316h-30c-0.5,0-0.9-0.4-0.9-0.9l0,0
				c0-0.5,0.4-0.9,0.9-0.9h30c0.5,0,0.9,0.4,0.9,0.9l0,0C728,315.6,727.6,316,727.1,316z"/>
		</defs>
		<clipPath id="SVGID_00000155834809510335323780000006853437847903691910_">
			<use xlink:href="#SVGID_00000093874443431164343400000000689215486116766646_"  style="overflow:visible;"/>
		</clipPath>
		
			<radialGradient id="SVGID_00000136380715617116809030000011097734400645046150_" cx="703.9894" cy="-1078.799" r="8.7849" gradientTransform="matrix(2.5031 0 0 0.2612 -1049.8193 596.4747)" gradientUnits="userSpaceOnUse">
			<stop  offset="0" style="stop-color:#FFFFFF"/>
			<stop  offset="0.1178" style="stop-color:#C7C7C7"/>
			<stop  offset="0.2433" style="stop-color:#939393"/>
			<stop  offset="0.3709" style="stop-color:#666666"/>
			<stop  offset="0.4981" style="stop-color:#414141"/>
			<stop  offset="0.6249" style="stop-color:#252525"/>
			<stop  offset="0.751" style="stop-color:#101010"/>
			<stop  offset="0.8763" style="stop-color:#040404"/>
			<stop  offset="1" style="stop-color:#000000"/>
		</radialGradient>
		
			<ellipse style="opacity:0.43;clip-path:url(#SVGID_00000155834809510335323780000006853437847903691910_);fill:url(#SVGID_00000136380715617116809030000011097734400645046150_);" cx="712.3" cy="314.7" rx="22" ry="2.3"/>
	</g>
	<g>
		<defs>
			<path id="SVGID_00000148628633920232166780000003745856281284647575_" d="M727.1,278.6h-30c-0.5,0-0.9-0.4-0.9-0.9l0,0
				c0-0.5,0.4-0.9,0.9-0.9h30c0.5,0,0.9,0.4,0.9,0.9l0,0C728,278.1,727.6,278.6,727.1,278.6z"/>
		</defs>
		<clipPath id="SVGID_00000019659270597841825210000010369972109367375789_">
			<use xlink:href="#SVGID_00000148628633920232166780000003745856281284647575_"  style="overflow:visible;"/>
		</clipPath>
		
			<radialGradient id="SVGID_00000028305746279763909990000018186012433664315043_" cx="703.9894" cy="-1219.0024" r="8.7849" gradientTransform="matrix(2.5031 0 0 0.2612 -1049.8193 596.4747)" gradientUnits="userSpaceOnUse">
			<stop  offset="0" style="stop-color:#FFFFFF"/>
			<stop  offset="0.1178" style="stop-color:#C7C7C7"/>
			<stop  offset="0.2433" style="stop-color:#939393"/>
			<stop  offset="0.3709" style="stop-color:#666666"/>
			<stop  offset="0.4981" style="stop-color:#414141"/>
			<stop  offset="0.6249" style="stop-color:#252525"/>
			<stop  offset="0.751" style="stop-color:#101010"/>
			<stop  offset="0.8763" style="stop-color:#040404"/>
			<stop  offset="1" style="stop-color:#000000"/>
		</radialGradient>
		
			<ellipse style="opacity:0.43;clip-path:url(#SVGID_00000019659270597841825210000010369972109367375789_);fill:url(#SVGID_00000028305746279763909990000018186012433664315043_);" cx="712.3" cy="278.1" rx="22" ry="2.3"/>
	</g>
	
		<linearGradient id="SVGID_00000105401303417251620810000007019462343098112911_" gradientUnits="userSpaceOnUse" x1="665.046" y1="263.7397" x2="722.6279" y2="321.3217">
		<stop  offset="0" style="stop-color:#DD8000"/>
		<stop  offset="0.1369" style="stop-color:#DC8102"/>
		<stop  offset="1" style="stop-color:#CF923A"/>
	</linearGradient>
	<path style="fill:url(#SVGID_00000105401303417251620810000007019462343098112911_);" d="M703.9,311.4h-4.5v-16.6h0.6
		c-0.2-0.8-0.5-3,0.5-4.2c1-1.3,1.1-2.9,1.1-3.4c0-0.1,0-0.1,0-0.1s0,0,0,0.1c0,0.5,0.1,2.1,1.1,3.4c1,1.2,0.6,3.4,0.5,4.2h0.6
		V311.4z"/>
	
		<linearGradient id="SVGID_00000141435039541760032840000004464117672038227107_" gradientUnits="userSpaceOnUse" x1="675.7261" y1="253.0596" x2="733.308" y2="310.6416">
		<stop  offset="0" style="stop-color:#DD8000"/>
		<stop  offset="0.1369" style="stop-color:#DC8102"/>
		<stop  offset="1" style="stop-color:#CF923A"/>
	</linearGradient>
	<path style="fill:url(#SVGID_00000141435039541760032840000004464117672038227107_);" d="M725.3,311.4h-4.5v-16.6h0.6
		c-0.2-0.8-0.5-3,0.5-4.2c1-1.3,1.1-2.9,1.1-3.4c0-0.1,0-0.1,0-0.1s0,0,0,0.1c0,0.5,0.1,2.1,1.1,3.4c1,1.2,0.6,3.4,0.5,4.2h0.6
		V311.4z"/>
	
		<linearGradient id="SVGID_00000159441137281127163110000014094966362056716732_" gradientUnits="userSpaceOnUse" x1="670.7327" y1="258.0529" x2="728.3148" y2="315.635">
		<stop  offset="0.162" style="stop-color:#DD8000"/>
		<stop  offset="0.4609" style="stop-color:#DC8102"/>
		<stop  offset="1" style="stop-color:#CF923A"/>
	</linearGradient>
	<path style="fill:url(#SVGID_00000159441137281127163110000014094966362056716732_);" d="M708.7,285.3c3.2-1.6,3.6-3.7,3.6-4.3
		c0-0.1,0-0.2,0-0.2s0,0.1,0,0.2c0,0.6,0.3,2.7,3.6,4.3c3.1,1.5,2,4.3,1.5,5.3h2v20.8h-14.1v-20.8h2
		C706.7,289.6,705.7,286.8,708.7,285.3z"/>
</g>
<g>
	<g>
		
			<linearGradient id="SVGID_00000170966122640409020880000000950960627381172365_" gradientUnits="userSpaceOnUse" x1="77.667" y1="51.8466" x2="121.2528" y2="137.9549" gradientTransform="matrix(0.8275 0.5614 -0.5614 0.8275 56.0489 -57.3427)">
			<stop  offset="0" style="stop-color:#B9791C"/>
			<stop  offset="0.3016" style="stop-color:#DAA84D"/>
			<stop  offset="1" style="stop-color:#FFC167"/>
		</linearGradient>
		<path style="fill:url(#SVGID_00000170966122640409020880000000950960627381172365_);" d="M75.8,79.1C65.6,63.2,70.2,42,86.1,31.7
			c0.4-0.3,0.8-0.5,1.2-0.7c-7.4,0-14.9,2-21.6,6.3c-18.5,11.9-23.9,36.6-12,55.1c11.9,18.5,36.6,23.9,55.1,12
			c5.8-3.7,10.3-8.7,13.4-14.3C106.4,99.5,85.8,94.8,75.8,79.1z"/>
		
			<linearGradient id="SVGID_00000059282776033502359380000008129816957255570863_" gradientUnits="userSpaceOnUse" x1="140.1402" y1="151.4946" x2="75.6048" y2="44.2224" gradientTransform="matrix(0.8275 0.5614 -0.5614 0.8275 56.0489 -57.3427)">
			<stop  offset="0" style="stop-color:#B9791C"/>
			<stop  offset="0.3407" style="stop-color:#DAA84D"/>
			<stop  offset="1" style="stop-color:#FFC167"/>
		</linearGradient>
		<path style="fill:url(#SVGID_00000059282776033502359380000008129816957255570863_);" d="M65,85.9c10.8,16.7,33,21.6,49.8,10.8
			c2.7-1.7,5-3.7,7-5.9c0.1-0.2,0.3-0.5,0.4-0.7c-15.8,9.4-36.4,4.7-46.4-10.9C65.6,63.2,70.2,42,86.1,31.7c0.1-0.1,0.2-0.1,0.3-0.2
			c-3.7,0.9-7.3,2.5-10.6,4.6C59.1,46.9,54.2,69.2,65,85.9z"/>
		
			<radialGradient id="SVGID_00000051367047546989865290000011847788144660923555_" cx="78.8616" cy="60.142" r="112.1198" gradientTransform="matrix(0.8275 0.5614 -0.5614 0.8275 56.0489 -57.3427)" gradientUnits="userSpaceOnUse">
			<stop  offset="0" style="stop-color:#FFC167"/>
			<stop  offset="1" style="stop-color:#000000"/>
		</radialGradient>
		<path style="fill:url(#SVGID_00000051367047546989865290000011847788144660923555_);" d="M66,85.5c-9.1-14.1-7.2-32.1,3.4-44.1
			C58,53.1,55.7,71.6,65,85.9c7.6,11.8,20.8,17.6,33.8,16.4C86.1,103,73.4,97,66,85.5z"/>
		
			<linearGradient id="SVGID_00000137125774598327798840000016755996421671024264_" gradientUnits="userSpaceOnUse" x1="67.9176" y1="58.1328" x2="110.8591" y2="142.9684" gradientTransform="matrix(0.8275 0.5614 -0.5614 0.8275 56.0489 -57.3427)">
			<stop  offset="0" style="stop-color:#B9791C"/>
			<stop  offset="0.3016" style="stop-color:#DD8000"/>
			<stop  offset="1" style="stop-color:#FFC167"/>
		</linearGradient>
		<path style="opacity:0.2;fill:url(#SVGID_00000137125774598327798840000016755996421671024264_);" d="M57.1,91.8
			c-11.9-18.5-6.5-43.2,12-55.1c3.9-2.5,8.1-4.2,12.4-5.3c-5.4,0.8-10.8,2.7-15.7,5.9c-18.5,11.9-23.9,36.6-12,55.1
			c9.4,14.6,26.7,21,42.7,17.2C81.4,111.9,65.8,105.4,57.1,91.8z"/>
	</g>
	<g>
		<defs>
			<path id="SVGID_00000032606908145668823520000003305162752176330934_" d="M75.8,79.1C65.6,63.2,70.2,42,86.1,31.7
				c0.4-0.3,0.8-0.5,1.2-0.7c-7.4,0-14.9,2-21.6,6.3c-18.5,11.9-23.9,36.6-12,55.1c11.9,18.5,36.6,23.9,55.1,12
				c5.8-3.7,10.3-8.7,13.4-14.3C106.4,99.5,85.8,94.8,75.8,79.1z"/>
		</defs>
		<clipPath id="SVGID_00000000907985274593966130000010882821611026271133_">
			<use xlink:href="#SVGID_00000032606908145668823520000003305162752176330934_"  style="overflow:visible;"/>
		</clipPath>
		<g style="opacity:0.4;clip-path:url(#SVGID_00000000907985274593966130000010882821611026271133_);">
			<path class="st28" d="M74.6,109.3c-0.6,0.4-1.1,0.9-1.7,1.3c-1.4,0.8-2.9,1-4.4,0.7c-2.7-0.6-4.6-2.2-6.1-4.3
				c-1.8-2.5-2.7-5.3-3-8.3c0-0.1,0-0.2,0-0.3c-0.9,0.3-1.8,0.5-2.7,0.8c-2,0.5-4.1,0.5-6-0.3c-1-0.4-1.9-1-2.9-1.5
				c-0.6-0.3-1.2-0.6-1.9-0.7c-0.6-0.1-1.3,0.1-1.9,0.2c-0.1,0-0.3,0.2-0.4,0.3c-0.3,0.2-0.6,0.3-1,0.2c-0.3-0.2-0.7-0.8-0.6-1.2
				c0.1-0.4,0.3-0.6,0.7-0.7c0.9-0.2,1.4-1,1.7-1.8c0.5-1,0.4-2.2,0.5-3.3c0.2-2.7,1.3-4.9,3.2-6.7c0.7-0.7,1.5-1.3,2.4-2
				c0,0-0.1-0.1-0.2-0.2c-2.7-2.2-4.7-5-5.6-8.4c-0.5-1.8-0.6-3.5-0.1-5.3c0.7-2.6,2.4-4.2,5-4.7c0.1,0,0.2,0,0.3-0.1c0,0,0,0,0,0
				c-0.1-0.1-0.1-0.2-0.2-0.2c-2-2-2.5-4.6-1.4-7.2c1-2.4,2.7-4.1,4.8-5.4c2.3-1.4,4.8-2.2,7.6-2.4c0.1,0,0.1,0,0.2,0
				c0-0.1-0.1-0.2-0.1-0.3c-0.6-1.7-1-3.4-1-5.2c0-1.9,0.6-3.7,1.6-5.3c0.5-0.8,1-1.6,1.2-2.6c0.2-0.7,0-1.4-0.2-2.1
				c0-0.1-0.2-0.2-0.3-0.4c-0.2-0.3-0.4-0.7-0.2-1c0.2-0.4,0.6-0.6,1.1-0.6c0.3,0,0.7,0.3,0.8,0.7c0.2,0.9,1,1.4,1.7,1.7
				c1,0.5,2.2,0.4,3.3,0.5c2.7,0.2,5,1.3,6.8,3.3c0.7,0.7,1.3,1.5,2,2.3c0,0,0.1-0.1,0.2-0.2c2.1-2.6,4.8-4.5,8-5.5
				c1.9-0.6,3.7-0.7,5.6-0.2c2.6,0.7,4.3,2.3,4.8,5c0,0.1,0.1,0.2,0.1,0.4c0,0,0,0,0,0c0.3-0.3,0.6-0.6,1-0.8
				c1.5-1.2,3.3-1.5,5.2-1.2c2.4,0.5,4.2,1.9,5.7,3.8c2,2.6,3.1,5.6,3.4,8.8c0,0.1,0,0.2,0,0.3c0,0,0,0,0,0.1c0.1,0,0.3-0.1,0.4-0.1
				c1.8-0.6,3.6-1.1,5.5-1c1.9,0.1,3.6,0.8,5.2,1.8c0.7,0.4,1.4,0.8,2.2,1c0.7,0.2,1.4,0,2.1-0.1c0.1,0,0.3-0.2,0.4-0.3
				c0.3-0.3,0.8-0.3,1-0.2c0.4,0.3,0.6,0.7,0.6,1.1c0,0.4-0.3,0.6-0.7,0.7c-0.9,0.2-1.4,1-1.7,1.7c-0.5,1-0.4,2.2-0.5,3.3
				c-0.2,2.7-1.3,5-3.3,6.8c-0.7,0.7-1.5,1.3-2.3,2c0,0,0.1,0.1,0.2,0.2c2.8,2.3,4.8,5.2,5.7,8.8c0.4,1.7,0.5,3.4,0,5
				c-0.7,2.5-2.4,4.2-5,4.7c-0.1,0-0.2,0-0.4,0.1c0.1,0.1,0.2,0.2,0.3,0.3c1.9,2,2.4,4.3,1.5,6.9c-0.7,1.9-1.9,3.5-3.5,4.7
				c-2.6,2-5.6,3-8.8,3.4c-0.1,0-0.2,0-0.3,0c0.3,0.9,0.5,1.8,0.7,2.7c0.5,2,0.5,4.1-0.2,6.1c-0.4,1-1,1.9-1.5,2.9
				c-0.3,0.6-0.6,1.2-0.7,1.9c-0.1,0.6,0.1,1.3,0.2,1.9c0,0.1,0.2,0.2,0.3,0.4c0.3,0.3,0.4,0.6,0.2,1c-0.1,0.3-0.8,0.7-1.1,0.6
				c-0.4-0.1-0.6-0.3-0.7-0.7c-0.2-0.9-1-1.4-1.8-1.7c-1-0.5-2.2-0.4-3.3-0.5c-2.7-0.2-4.9-1.3-6.8-3.3c-0.7-0.7-1.3-1.5-2-2.3
				c-0.1,0.1-0.2,0.3-0.4,0.4c-2.3,2.7-5.1,4.6-8.6,5.5c-1.7,0.4-3.4,0.5-5,0c-2.5-0.8-4.2-2.4-4.7-5
				C74.6,109.5,74.6,109.4,74.6,109.3z M100.1,57.5C100.1,57.5,100.1,57.4,100.1,57.5c0-0.2,0-0.4,0.1-0.6c0-0.1,0-0.1,0-0.2
				c0.2-1.5-0.2-2.8-0.9-4.1c-0.4-0.7-0.8-1.4-1.2-2.1c-0.2-0.3-0.3-0.7-0.3-1c0-1.6-0.6-3-1.2-4.3c-0.4-0.9-0.9-1.8-1.4-2.7
				c-0.1-0.2-0.2-0.2-0.4-0.1c-0.7,0.4-1.3,0.7-2,1.1c-1.6,0.8-3.1,1.8-4.1,3.3c-0.2,0.3-0.5,0.5-0.7,0.6c-0.7,0.4-1.4,0.8-2.1,1.1
				c-2.3,1.1-3.6,2.8-3.8,5.4c0,0.6-0.2,1.1-0.4,1.6c-0.9,1.7-1.8,3.4-2.6,5.1c-0.2,0.4-0.6,0.6-1.1,0.6c-0.4,0-0.8-0.1-1.2-0.1
				c-1.5-0.2-3-0.3-4.5-0.5c-0.5-0.1-1-0.3-1.5-0.5c-0.7-0.4-1.5-0.7-2.3-0.9c-1.5-0.3-2.8,0.1-4.1,0.9c-0.7,0.4-1.4,0.8-2.1,1.1
				c-0.3,0.2-0.7,0.3-1.1,0.3c-1.5,0-2.8,0.5-4.1,1.1c-1,0.5-2,1-2.9,1.5c-0.2,0.1-0.2,0.3-0.1,0.5c0.4,0.6,0.7,1.3,1.1,1.9
				c0.9,1.6,1.8,3.1,3.3,4.2c0.3,0.2,0.5,0.5,0.6,0.7c0.4,0.7,0.8,1.4,1.1,2.1c1.1,2.3,2.8,3.6,5.4,3.7c0.6,0,1.1,0.2,1.5,0.4
				c1.7,0.9,3.4,1.8,5.1,2.7c0.4,0.2,0.6,0.6,0.6,1.1c0,0.4-0.1,0.8-0.1,1.3c-0.2,1.5-0.3,3-0.5,4.5c-0.1,0.5-0.3,1-0.5,1.4
				c-0.4,0.7-0.8,1.5-0.9,2.3c-0.3,1.5,0.1,2.8,0.9,4.1c0.4,0.7,0.8,1.4,1.1,2.1c0.2,0.3,0.3,0.7,0.3,1.1c0,1.5,0.5,2.8,1.1,4.1
				c0.5,1,1,2,1.5,3c0.1,0.2,0.3,0.2,0.5,0.1c0.6-0.4,1.2-0.7,1.9-1c1.6-0.9,3.1-1.8,4.2-3.3c0.2-0.3,0.5-0.5,0.7-0.6
				c0.7-0.4,1.4-0.8,2.1-1.1c2.3-1.1,3.7-2.8,3.8-5.4c0-0.6,0.2-1.1,0.4-1.6c0.9-1.7,1.7-3.3,2.6-5c0.2-0.5,0.6-0.6,1.1-0.6
				c0.4,0,0.8,0.1,1.2,0.1c1.5,0.2,3,0.3,4.5,0.5c0.5,0.1,1,0.3,1.5,0.5c0.7,0.4,1.5,0.8,2.3,0.9c1.5,0.3,2.8-0.1,4.1-0.9
				c0.7-0.4,1.4-0.8,2.1-1.1c0.3-0.2,0.7-0.3,1.1-0.3c1.5,0,2.8-0.5,4.1-1.1c1-0.5,2-1,3-1.5c0.2-0.1,0.2-0.2,0.1-0.4
				c-0.4-0.7-0.8-1.4-1.1-2c-0.8-1.5-1.8-3-3.2-4.1c-0.3-0.2-0.5-0.5-0.6-0.7c-0.4-0.7-0.8-1.4-1.1-2.1c-1.1-2.3-2.8-3.7-5.4-3.8
				c-0.6,0-1.1-0.2-1.6-0.4c-1.7-0.9-3.4-1.7-5-2.6c-0.4-0.2-0.6-0.6-0.6-1.1c0.1-0.5,0.1-1,0.2-1.6c0.2-1.4,0.3-2.8,0.5-4.1
				c0.1-0.4,0.2-0.8,0.3-1.2C99.4,58.7,99.8,58.1,100.1,57.5z M81.1,51.3c0.1-0.3,0.2-0.6,0.3-0.9c0.8-1.5,2-2.6,3.6-3.2
				c0.5-0.2,1.1-0.5,1.6-0.7c-0.1-0.1-0.1-0.1-0.1-0.2c-0.1-0.1-0.3-0.3-0.4-0.4c-2.5-2.5-5.7-3.8-9.1-4.1c-1.6-0.2-3.2-0.1-4.8-0.1
				c-1.3,0-2.5-0.2-3.7-0.7c-0.2-0.1-0.4-0.2-0.6-0.3c0,0.9-0.3,1.8-0.7,2.5c-0.6,1.1-1.3,2.2-2.1,3.3c-1.5,2.1-2.6,4.4-3.2,7
				c-0.4,1.9-0.4,3.8,0.1,5.8c0,0,0,0.1,0.1,0.2c0.5-0.3,1-0.6,1.5-0.9c1.4-0.9,2.9-1.4,4.6-1.2c0.3,0,0.7,0.1,1,0.2
				c-0.1-0.1-0.1-0.2-0.1-0.2c-0.9-1.5-1.1-3.1-0.6-4.8c0.3-1.1,0.7-2,1.4-2.9c0.3-0.4,0.4-0.8,0.4-1.3c0-0.4,0-0.8-0.1-1.2
				c0-0.5,0.2-0.8,0.6-1c0.4-0.2,0.8-0.2,1.1,0.1c0.3,0.2,0.6,0.5,0.9,0.7c0.4,0.3,0.9,0.5,1.4,0.5c1.2-0.1,2.3,0.2,3.4,0.6
				c1.1,0.4,2.1,1.1,2.7,2.1C80.6,50.5,80.8,50.9,81.1,51.3z M101.6,57.6c0.2-0.1,0.2-0.1,0.3-0.2c1.1-0.6,2.3-1,3.5-0.8
				c1.4,0.2,2.8,0.6,4,1.5c0.5,0.4,1,0.5,1.6,0.5c0.3,0,0.7,0,1.1-0.1c0.5-0.1,0.8,0.2,1,0.6c0.2,0.4,0.2,0.8-0.1,1.1
				c-0.2,0.3-0.5,0.6-0.7,0.9c-0.3,0.4-0.5,0.9-0.5,1.4c0,1.1-0.2,2.1-0.5,3.1c-0.5,1.7-1.6,2.9-3.2,3.7c-0.1,0-0.1,0.1-0.3,0.2
				c0.2,0.1,0.3,0.1,0.5,0.2c0.1,0,0.3,0.1,0.4,0.2c1.5,0.8,2.6,2,3.2,3.6c0.2,0.5,0.5,1.1,0.7,1.7c0.1-0.1,0.2-0.2,0.3-0.2
				c0.4-0.4,0.8-0.8,1.2-1.2c2.1-2.6,3.1-5.6,3.3-8.9c0.1-1.5,0-3,0-4.4c0-1.2,0.2-2.3,0.7-3.4c0.1-0.2,0.2-0.4,0.3-0.6
				c-0.9,0-1.8-0.3-2.5-0.7c-1.1-0.6-2.2-1.3-3.3-2.1c-1.9-1.3-3.9-2.4-6.1-3c-1.7-0.4-3.4-0.6-5.1-0.4c-0.6,0.1-1.1,0.2-1.7,0.3
				c0.6,1.2,1.5,2.1,1.8,3.4C101.9,55,102,56.3,101.6,57.6z M58.1,72.4c-0.5,0.5-1,1-1.4,1.5c-2.1,2.6-3.1,5.6-3.3,8.9
				c-0.1,1.5,0,3,0,4.4c0,1.2-0.2,2.3-0.7,3.4c-0.1,0.2-0.2,0.4-0.3,0.6c0.9,0,1.8,0.3,2.5,0.7c1.1,0.6,2.2,1.3,3.3,2.1
				c1.9,1.3,3.9,2.4,6.2,3c2.1,0.5,4.3,0.6,6.4,0.1c0.1,0,0.2-0.1,0.3-0.1c-0.3-0.5-0.6-1-1-1.5c-0.9-1.4-1.4-2.9-1.2-4.6
				c0-0.3,0.1-0.7,0.2-1.1C69.1,89.9,69.1,90,69,90c-1.5,0.9-3.1,1.1-4.8,0.6c-1.1-0.3-2-0.7-2.9-1.4c-0.4-0.3-0.8-0.4-1.3-0.4
				c-0.4,0-0.8,0-1.3,0.1c-0.4,0-0.7-0.2-0.9-0.6c-0.2-0.4-0.2-0.7,0.1-1.1c0.2-0.3,0.5-0.6,0.7-0.9c0.3-0.4,0.5-0.9,0.5-1.4
				c0-1.1,0.2-2.1,0.5-3.1c0.5-1.7,1.6-2.9,3.2-3.7c0.1,0,0.1-0.1,0.2-0.1c-0.3-0.1-0.6-0.2-0.9-0.3c-1.5-0.8-2.6-2-3.2-3.6
				C58.6,73.6,58.4,73,58.1,72.4z M103,106.7c0-0.9,0.3-1.8,0.7-2.5c0.6-1.1,1.3-2.2,2.1-3.3c1-1.5,2-3,2.6-4.8
				c0.7-2,1.1-4.1,0.8-6.2c-0.1-0.7-0.2-1.3-0.3-2c-0.6,0.4-1.1,0.7-1.5,1c-1.1,0.7-2.2,1.2-3.5,1.2c-0.7,0-1.4-0.1-2.1-0.1
				c0,0,0.1,0.1,0.1,0.2c0.6,1.1,1,2.3,0.8,3.5c-0.2,1.4-0.6,2.8-1.5,4c-0.4,0.5-0.5,1-0.5,1.6c0,0.3,0,0.7,0.1,1.1
				c0.1,0.5-0.2,0.8-0.5,1c-0.4,0.2-0.7,0.2-1.1-0.1c-0.3-0.2-0.6-0.5-0.9-0.7c-0.4-0.3-0.9-0.5-1.4-0.5c-1.1,0-2.1-0.2-3.1-0.5
				c-1.7-0.5-2.9-1.6-3.7-3.2c0-0.1-0.1-0.1-0.1-0.2c-0.1,0.3-0.2,0.6-0.3,0.9c-0.8,1.5-2,2.6-3.6,3.2c-0.5,0.2-1.1,0.5-1.7,0.7
				c0.2,0.2,0.4,0.4,0.5,0.6c2.5,2.5,5.7,3.8,9.1,4.1c1.6,0.2,3.2,0.1,4.8,0.1C100.1,105.8,101.6,105.9,103,106.7z M99.3,49.3
				c3.8-1.4,7.4-0.7,11,1c0-0.1,0-0.3,0-0.4c0-2.6-0.7-5.1-2.1-7.3c-1-1.7-2.3-3.2-4.1-4.2c-1.4-0.8-2.9-1.1-4.5-0.5
				c-1.4,0.5-2.2,1.6-2.9,2.8c-0.3,0.6-0.4,1.2,0,1.7c0.3,0.4,0.5,0.9,0.7,1.3C98.4,45.5,99.2,47.3,99.3,49.3z M83.2,101.7
				c-0.6,0.9-1.3,1.6-2.1,2.2c-1,0.7-2.1,1.3-3.3,1.9c-0.4,0.2-0.7,0.4-1.1,0.6c-0.2,0.1-0.3,0.3-0.3,0.5c-0.1,0.4-0.2,0.9-0.2,1.3
				c-0.1,2.6,1.2,4.5,3.7,5.2c1.2,0.3,2.4,0.3,3.6,0.1c3.9-0.7,6.9-2.8,9.2-6.1c0-0.1,0.1-0.2,0.1-0.3c-1.9-0.2-3.7-0.8-5.4-1.7
				C85.8,104.5,84.4,103.3,83.2,101.7z M71.6,98.1c-3.8,1.4-7.4,0.6-11-1c0,0.2,0,0.3,0,0.4c0,2.5,0.7,4.9,1.9,7.1
				c1.1,1.9,2.5,3.6,4.6,4.6c1.5,0.8,3,0.9,4.6,0.2c1.3-0.6,2.1-1.8,2.7-3.1c0.1-0.3,0.1-0.6,0-0.9c-0.2-0.5-0.5-0.9-0.7-1.4
				C72.5,102.2,71.6,100.3,71.6,98.1z M61,59.9c-1.4-3.8-0.7-7.4,1-11c-0.1,0-0.3,0-0.4,0c-2.6,0-5.1,0.7-7.3,2.1
				c-1.7,1-3.2,2.3-4.2,4.1c-0.8,1.4-1.1,2.9-0.5,4.5c0.5,1.4,1.6,2.2,2.8,2.9c0.6,0.3,1.2,0.4,1.7,0c0.4-0.3,0.9-0.5,1.3-0.7
				C57.2,60.7,58.9,59.9,61,59.9z M118.8,66.2c-0.7,3.9-2.1,7.4-5.3,9.7c0.6,0.6,1.2,1.1,1.7,1.7c0.8,1,1.4,2,2,3.2
				c0.2,0.5,0.5,1,0.8,1.5c0.2,0.4,0.6,0.6,1,0.6c0.3,0,0.7,0.1,1,0.1c2.6,0.1,4.5-1.2,5.1-3.7c0.3-1.2,0.3-2.4,0.1-3.6
				c-0.6-3.2-2.1-5.8-4.5-7.9C120,67.2,119.4,66.7,118.8,66.2z M108.8,98.6c0.2,0,0.3,0,0.4,0c2.6,0,5-0.7,7.2-2
				c1.8-1,3.3-2.4,4.3-4.2c0.8-1.4,1.1-2.9,0.5-4.4c-0.5-1.4-1.6-2.3-2.8-3c-0.6-0.3-1.2-0.3-1.8,0c-0.2,0.1-0.4,0.2-0.6,0.3
				c-1.1,0.5-2.1,1.1-3.2,1.6c-1,0.4-2,0.6-3.1,0.6c0.7,1.8,0.9,3.7,0.7,5.6C110.2,95,109.7,96.8,108.8,98.6z M57.5,71.5
				c-0.9-0.6-1.6-1.3-2.2-2.1c-0.7-1-1.3-2.1-1.9-3.3c-0.2-0.4-0.4-0.7-0.6-1.1c-0.1-0.2-0.3-0.3-0.5-0.3c-0.4-0.1-0.9-0.2-1.3-0.2
				c-2.6-0.1-4.5,1.2-5.2,3.7c-0.3,1.2-0.3,2.4-0.1,3.6c0.8,3.9,2.8,6.9,6.1,9.2c0.1,0,0.1,0.1,0.3,0.1c0.2-1.9,0.8-3.7,1.7-5.4
				C54.6,74.1,55.9,72.7,57.5,71.5z M87.6,45.7c0.6-0.6,1.1-1.2,1.7-1.7c1-0.8,2-1.4,3.2-2c0.5-0.3,1-0.6,1.6-0.8
				c0.2-0.1,0.4-0.3,0.5-0.6c0-0.4,0.1-0.8,0.1-1.2c0.1-2.6-1.2-4.5-3.7-5.2c-1.2-0.3-2.4-0.3-3.5-0.1c-3.9,0.8-7,2.9-9.2,6.1
				c0,0.1-0.1,0.1-0.1,0.2C81.8,41.1,85.2,42.4,87.6,45.7z M71.8,48.2c0,0.1,0,0.1,0,0.2c0,0.6-0.1,1.1-0.4,1.6
				c-0.6,1-1.1,1.9-1.4,3c-0.4,1.5-0.2,2.9,0.8,4.2c0.4,0.5,0.7,1,1,1.6c0.1,0.2,0.3,0.4,0.5,0.4c1.8,0.2,3.6,0.3,5.4,0.5
				c0.1,0,0.3-0.1,0.4-0.2c0.9-1.6,1.8-3.1,2.6-4.7c0.1-0.1,0.1-0.4,0-0.5c-0.3-0.7-0.6-1.3-0.9-2c-0.1-0.3-0.2-0.6-0.4-0.8
				c-0.9-1.6-2.5-2.1-4.2-2.4c-0.8-0.2-1.6-0.2-2.4-0.3C72.5,48.6,72.2,48.3,71.8,48.2z M111,60.2c-0.1,0-0.2,0-0.2,0
				c-0.6,0-1.1-0.1-1.6-0.4c-1-0.6-1.9-1.1-3-1.4c-1.5-0.4-2.9-0.2-4.2,0.8c-0.5,0.4-1,0.7-1.6,1c-0.2,0.1-0.4,0.3-0.4,0.5
				c-0.2,1.8-0.3,3.6-0.5,5.4c0,0.1,0.1,0.3,0.2,0.4c1.6,0.9,3.1,1.8,4.7,2.6c0.1,0.1,0.4,0.1,0.5,0c0.7-0.3,1.3-0.6,2-0.9
				c0.9-0.3,1.6-0.9,2.2-1.7c0.6-1,1-2.1,1.1-3.3C110.4,62.2,110.3,61.1,111,60.2z M98.9,99.3c0.2-0.6,0.3-1.2,0.6-1.8
				c0.5-1,1.1-1.9,1.4-3c0.4-1.5,0.2-2.9-0.8-4.1c-0.4-0.5-0.7-1-1-1.6c-0.1-0.2-0.3-0.4-0.5-0.4c-1.8-0.2-3.6-0.3-5.3-0.5
				c-0.2,0-0.3,0-0.4,0.2c-0.9,1.6-1.7,3.1-2.6,4.7c-0.1,0.2-0.1,0.4,0,0.6c0.3,0.6,0.6,1.3,0.8,1.9c0.1,0.3,0.3,0.6,0.4,0.9
				c0.9,1.6,2.5,2.1,4.2,2.4C96.7,98.8,98,98.5,98.9,99.3z M59.9,87.2c0.6,0.2,1.2,0.3,1.8,0.6c1,0.5,2,1.1,3.1,1.4
				c1.5,0.4,2.9,0.2,4.1-0.8c0.5-0.4,1-0.7,1.6-1c0.2-0.1,0.4-0.3,0.4-0.5c0.2-1.8,0.3-3.6,0.5-5.3c0-0.2-0.1-0.3-0.2-0.4
				c-1.6-0.9-3.1-1.7-4.7-2.6c-0.2-0.1-0.4-0.1-0.5-0.1c-0.7,0.3-1.5,0.6-2.2,1c-0.7,0.3-1.4,0.8-1.9,1.4c-0.7,1-1.1,2.2-1.2,3.4
				C60.5,85.3,60.5,86.4,59.9,87.2z M64.2,33.7c0,0.2-0.1,0.4-0.1,0.6c-0.3,1.1-0.7,2.1-1.3,3.1c-0.8,1.3-1.4,2.7-1.5,4.3
				c-0.1,1.9,0.3,3.7,0.9,5.5c0,0.1,0.1,0.3,0.2,0.4c0.1,0.2,0.2,0.2,0.4,0c0.8-1.2,1.6-2.3,2.4-3.5c0.7-1.1,1.2-2.2,1.2-3.6
				c0-0.3,0-0.6,0.1-0.9c0.1-0.6,0.7-0.9,1.2-0.6c0.4,0.2,0.7,0.4,1.1,0.6c0.7,0.5,1.4,0.8,2.2,0.8c1.8,0.1,3.6,0.1,5.4,0.1
				c0.2,0,0.3-0.1,0.2-0.3c-0.1-0.3-0.3-0.5-0.4-0.8c-0.8-0.8-1.5-1.7-2.3-2.4c-1.4-1.3-3.1-2-4.9-2.2
				C67.3,34.6,65.7,34.5,64.2,33.7z M125.4,52.5c-0.2,0-0.4-0.1-0.6-0.1c-1.1-0.3-2.1-0.7-3-1.3c-1.3-0.8-2.7-1.4-4.2-1.5
				c-1.9-0.1-3.7,0.3-5.5,0.9c-0.1,0-0.3,0.1-0.4,0.2c-0.2,0.1-0.2,0.2,0,0.4c1.2,0.8,2.3,1.6,3.4,2.4c1.1,0.7,2.3,1.2,3.6,1.2
				c0.3,0,0.6,0,0.9,0.1c0.6,0.1,0.9,0.7,0.6,1.2c-0.2,0.4-0.4,0.8-0.6,1.1c-0.4,0.7-0.7,1.4-0.8,2.2c-0.1,1.8-0.1,3.6-0.1,5.5
				c0,0.2,0.1,0.2,0.3,0.2c0.3-0.1,0.5-0.3,0.8-0.5c0.8-0.8,1.7-1.5,2.5-2.4c1.3-1.4,1.9-3,2.1-4.9c0.1-1.3,0.2-2.7,0.7-3.9
				C125.2,53,125.3,52.7,125.4,52.5z M45.4,95c0.2,0,0.4,0.1,0.6,0.1c1.1,0.3,2.1,0.7,3,1.3c1.3,0.8,2.7,1.4,4.2,1.5
				c1.9,0.1,3.7-0.3,5.5-0.9c0.1,0,0.3-0.1,0.4-0.2c0.2-0.1,0.2-0.2,0-0.3c-1.2-0.8-2.4-1.7-3.6-2.5c-1-0.7-2.2-1.1-3.4-1.1
				c-0.3,0-0.6,0-1-0.1c-0.6-0.1-0.9-0.7-0.6-1.2c0.2-0.4,0.4-0.7,0.6-1c0.5-0.7,0.8-1.5,0.8-2.3c0.1-1.8,0.1-3.6,0.1-5.4
				c0-0.2-0.1-0.2-0.3-0.2c-0.3,0.1-0.5,0.3-0.7,0.4c-0.7,0.6-1.4,1.2-2.1,1.9c-1.6,1.6-2.4,3.5-2.6,5.7
				C46.3,92.1,46.1,93.6,45.4,95z M106.7,113.7c0-0.2,0.1-0.4,0.1-0.6c0.3-1.1,0.7-2.1,1.3-3c0.8-1.3,1.4-2.7,1.5-4.2
				c0.1-1.9-0.3-3.7-0.9-5.5c0-0.1-0.1-0.3-0.2-0.4c-0.1-0.2-0.2-0.2-0.4,0c-0.8,1.2-1.6,2.3-2.4,3.4c-0.7,1.1-1.2,2.3-1.2,3.6
				c0,0.3,0,0.6-0.1,0.9c-0.1,0.6-0.7,0.9-1.2,0.6c-0.4-0.2-0.7-0.3-1-0.6c-0.8-0.5-1.6-0.8-2.6-0.9c-1.7-0.1-3.4,0-5.2,0
				c-0.2,0-0.2,0.1-0.2,0.3c0.1,0.3,0.3,0.5,0.5,0.8c0.8,0.8,1.5,1.7,2.4,2.5c1.4,1.3,3,1.9,4.9,2.1c1.3,0.1,2.7,0.2,3.9,0.7
				C106.2,113.5,106.4,113.6,106.7,113.7z"/>
			<path class="st28" d="M97.7,81.7c0.2,0.5,0.4,0.9,0.5,1.3c0.1,0.4,0.2,0.8,0.3,1.3c0.1,0.4-0.2,0.6-0.6,0.6c-0.3,0-0.7-0.1-1-0.2
				c-2.1-0.6-4.1-1.1-6.2-1.7c-0.3-0.1-0.4,0-0.6,0.3c-0.7,2.2-1.5,4.5-2.3,6.7c0,0.1-0.1,0.3-0.2,0.4c-0.2,0.3-0.4,0.3-0.7,0.1
				c-0.6-0.4-1-1.1-1.4-1.7c-0.1-0.1-0.2-0.3-0.3-0.4c-0.2,0.5-0.3,1-0.4,1.4c-0.6,1.8-1.7,3.3-3.3,4.4c-0.7,0.5-1.3,1.1-1.6,1.9
				c-0.2,0.4-0.5,0.9-0.7,1.3c-0.3,0.4-0.5,0.5-1.2,0.3c-0.4-0.1-0.5-0.4-0.5-0.8c0.1-0.7,0.2-1.4,0.2-2c0-0.4,0-0.7-0.1-1.1
				c-0.1-0.3-0.2-0.6-0.3-0.9c-0.8-2.1-0.6-4.2,0-6.3c0-0.1,0.1-0.3,0.2-0.5c-0.4,0.2-0.8,0.3-1.2,0.4c-0.5,0.1-1,0.3-1.5,0.3
				c-0.4,0.1-0.6-0.2-0.5-0.5c0-0.3,0.1-0.7,0.2-1c0.6-2.1,1.1-4.1,1.7-6.2c0.1-0.3,0-0.4-0.3-0.5c-2.3-0.7-4.5-1.5-6.7-2.3
				c-0.1,0-0.3-0.1-0.4-0.2c-0.3-0.2-0.3-0.5-0.1-0.8c0.4-0.6,1.1-1,1.7-1.4c0.1-0.1,0.2-0.2,0.4-0.3c-0.2,0-0.3-0.1-0.4-0.1
				c-1.1-0.3-2.1-0.7-3-1.3c-0.9-0.5-1.6-1.2-2.2-2c-0.2-0.3-0.4-0.6-0.6-0.8c-0.3-0.3-0.6-0.6-1-0.8c-0.6-0.3-1.2-0.6-1.7-0.9
				c-0.4-0.2-0.5-0.5-0.4-1c0.2-0.6,0.4-0.8,0.9-0.7c0.7,0.1,1.5,0.2,2.2,0.2c0.2,0,0.5,0,0.7-0.1c0.4-0.1,0.8-0.2,1.1-0.3
				c2.1-0.8,4.2-0.7,6.3,0c0.1,0,0.2,0.1,0.3,0.1c0,0,0,0,0.1,0c-0.2-0.4-0.3-0.8-0.5-1.3c-0.1-0.4-0.2-0.8-0.3-1.3
				c-0.1-0.4,0.2-0.6,0.6-0.6c0.3,0,0.7,0.1,1,0.2c2.1,0.6,4.1,1.1,6.2,1.7c0.3,0.1,0.4,0,0.6-0.3c0.7-2.2,1.5-4.5,2.3-6.7
				c0-0.1,0.1-0.3,0.2-0.4c0.2-0.3,0.4-0.3,0.7-0.1c0.6,0.4,1,1.1,1.4,1.7c0.1,0.1,0.2,0.3,0.3,0.4c0.2-0.5,0.3-1,0.4-1.4
				c0.6-1.8,1.7-3.3,3.3-4.4c0.7-0.5,1.3-1.1,1.6-1.9c0.2-0.4,0.5-0.9,0.7-1.3c0.3-0.4,0.5-0.5,1.2-0.3c0.4,0.1,0.5,0.4,0.5,0.8
				c-0.1,0.7-0.2,1.4-0.2,2c0,0.4,0,0.7,0.1,1.1c0.1,0.3,0.2,0.6,0.3,0.9c0.8,2.1,0.6,4.2,0,6.3c0,0.1-0.1,0.3-0.2,0.5
				c0.4-0.2,0.8-0.3,1.2-0.4c0.5-0.1,1-0.3,1.5-0.3c0.4-0.1,0.6,0.2,0.5,0.5c0,0.3-0.1,0.7-0.2,1c-0.6,2.1-1.1,4.1-1.7,6.2
				c-0.1,0.3,0,0.4,0.3,0.5c2.3,0.7,4.5,1.5,6.7,2.3c0.1,0,0.3,0.1,0.4,0.2c0.3,0.2,0.3,0.5,0.1,0.8c-0.4,0.6-1.1,1-1.7,1.4
				c-0.1,0.1-0.2,0.2-0.4,0.3c0.2,0,0.3,0.1,0.4,0.1c1.1,0.3,2.1,0.7,3,1.3c0.9,0.5,1.6,1.2,2.2,2c0.2,0.3,0.4,0.6,0.6,0.8
				c0.3,0.3,0.6,0.6,1,0.8c0.6,0.3,1.2,0.6,1.7,0.9c0.4,0.2,0.5,0.5,0.4,1c-0.2,0.6-0.4,0.8-0.9,0.7c-0.7-0.1-1.5-0.2-2.2-0.2
				c-0.2,0-0.5,0-0.7,0.1c-0.4,0.1-0.8,0.2-1.1,0.3c-2.1,0.8-4.2,0.7-6.3,0C98,81.8,97.8,81.8,97.7,81.7z M65,67.5
				c0.5,0.6,1,1.3,1.6,2c0.5,0.5,0.9,1,1.5,1.4c1.1,0.8,2.4,1.4,3.8,1.7c0.1,0,0.3,0,0.4-0.1c0.9-0.6,1.8-1.2,2.7-1.7
				c0.2-0.1,0.2-0.2,0.1-0.4c-0.4-1-0.8-2-1.3-3c-0.1-0.1-0.2-0.3-0.3-0.3c-0.6-0.2-1.1-0.3-1.7-0.4c-1.8-0.4-3.5-0.4-5.2,0.3
				C66.1,67.2,65.5,67.3,65,67.5z M105.9,80c-0.5-0.6-1-1.3-1.6-2c-0.5-0.5-0.9-1-1.5-1.4c-1.1-0.8-2.4-1.4-3.8-1.7
				c-0.1,0-0.3,0-0.4,0.1c-0.9,0.6-1.8,1.2-2.7,1.7c-0.2,0.1-0.2,0.2-0.1,0.4c0.4,1,0.8,2,1.3,3c0.1,0.1,0.2,0.3,0.4,0.3
				c0.7,0.2,1.5,0.4,2.2,0.5c1.5,0.3,3,0.2,4.4-0.4C104.6,80.3,105.3,80.2,105.9,80z M79.2,94.2c0.6-0.5,1.2-1,1.8-1.4
				c0.6-0.5,1.2-1,1.6-1.7c0.8-1.2,1.3-2.4,1.7-3.8c0-0.1,0-0.3-0.1-0.4c-0.6-0.9-1.2-1.8-1.8-2.7C82.3,84,82.2,84,82,84.1
				c-1,0.4-2,0.8-2.9,1.2c-0.1,0.1-0.3,0.2-0.3,0.4c-0.2,0.7-0.4,1.5-0.5,2.2C78,89.2,78,90.6,78.5,92
				C78.7,92.7,78.9,93.5,79.2,94.2z M91.7,53.3c-0.6,0.4-1.1,0.9-1.8,1.4c-0.6,0.5-1.2,1-1.6,1.7c-0.8,1.2-1.4,2.5-1.7,3.8
				c0,0.1,0,0.3,0.1,0.4c0.6,0.9,1.2,1.8,1.8,2.7c0.1,0.2,0.2,0.2,0.4,0.1c1-0.4,2-0.8,2.9-1.2c0.1-0.1,0.3-0.2,0.3-0.4
				c0.2-0.7,0.4-1.5,0.5-2.2c0.2-1.4,0.3-2.7-0.2-4.1C92.1,54.8,91.9,54,91.7,53.3z M96.8,83.5c-0.3-0.7-0.6-1.4-0.9-2.1
				c0-0.1-0.1-0.1-0.2-0.1c-1.2,0-2.3-0.2-3.4-0.6c-1.9-0.8-3.3-2-4-4c-0.1-0.3-0.3-0.6-0.4-0.9c-0.5-0.9-1.3-1.3-2.3-1.5
				c-0.1,0.5-0.2,1-0.2,1.6c0,0.8,0.4,1.4,0.9,2c0.7,0.9,1.1,2,1.2,3.1c0.1,2-0.4,3.8-1.6,5.4c0,0.1-0.1,0.2,0,0.2
				c0.4,0.6,0.8,1.3,1.2,2c0.1-0.1,0.1-0.2,0.1-0.3c0.6-2,1.2-3.9,1.8-5.9c0.3-0.9,0.6-1,1.4-0.8c2,0.6,4,1.2,5.9,1.8
				C96.5,83.4,96.6,83.4,96.8,83.5z M93,63.3c-0.1,1.2-0.2,2.4-0.6,3.6c-0.8,1.9-2,3.3-4,4c-0.3,0.1-0.7,0.3-1,0.4
				c-0.9,0.5-1.2,1.3-1.5,2.2c0.5,0.1,1,0.2,1.5,0.2c0.8,0,1.4-0.4,2.1-0.9c1-0.7,2.1-1.1,3.3-1.2c1.9-0.1,3.7,0.5,5.3,1.6
				c0.1,0,0.2,0.1,0.2,0c0.6-0.4,1.3-0.8,2-1.2c-0.2-0.1-0.3-0.1-0.4-0.1c-2-0.6-3.9-1.2-5.9-1.8c-0.8-0.3-1-0.6-0.8-1.4
				c0.6-2,1.2-4,1.8-5.9c0-0.1,0.1-0.2,0.1-0.4C94.4,62.7,93.7,63,93,63.3z M84.9,73.9c-0.5-0.1-1-0.2-1.5-0.2c-0.8,0-1.4,0.4-2,0.9
				c-0.9,0.7-2,1.1-3.2,1.2c-2,0.1-3.8-0.5-5.4-1.6c-0.1,0-0.2-0.1-0.2,0c-0.6,0.4-1.3,0.8-2,1.2c0.2,0.1,0.3,0.1,0.4,0.1
				c2,0.6,3.9,1.2,5.9,1.8c0.8,0.3,1,0.6,0.8,1.4c-0.6,2-1.2,4-1.8,5.9c0,0.1-0.1,0.2-0.1,0.4c0.8-0.4,1.5-0.7,2.1-0.9
				c0.2-1,0.2-1.9,0.5-2.8c0.7-2.3,2-4,4.4-4.8C83.9,76.1,84.6,75.3,84.9,73.9z M85.2,73.2c0.1-0.5,0.2-1,0.2-1.6
				c0-0.8-0.4-1.4-0.9-2c-0.7-0.9-1.1-1.9-1.2-3.1c-0.2-2,0.4-3.8,1.5-5.5c0-0.1,0.1-0.2,0-0.2c-0.4-0.6-0.8-1.3-1.2-2
				c-0.1,0.2-0.1,0.3-0.1,0.4c-0.6,2-1.2,3.9-1.8,5.9c-0.3,0.8-0.6,1-1.4,0.8c-2-0.6-4-1.2-5.9-1.8c-0.1,0-0.2-0.1-0.4-0.1
				c0.3,0.8,0.6,1.4,0.9,2.1c0,0.1,0.2,0.1,0.2,0.1c0.9,0.1,1.7,0.1,2.6,0.3c2.3,0.7,4,2,4.8,4.4C83,72.1,83.8,72.9,85.2,73.2z
				 M97,74.1c-0.4-0.2-0.7-0.4-1-0.5c-2-1-3.9-1.1-5.9,0.2c-0.5,0.3-1.1,0.5-1.7,0.8c0,0-0.1,0,0,0c0.3,0.6,0.7,1.1,0.9,1.7
				c0.8,1.9,2.2,2.9,4.1,3.4c0.6,0.1,1.2,0.2,1.9,0.2c-0.3-0.8-0.7-1.6-1-2.3c-0.5-1.2-0.4-1.4,0.6-2.1C95.6,75.1,96.3,74.6,97,74.1
				z M75.6,67.6c0,0.1,0.1,0.2,0.1,0.4c0.3,0.8,0.6,1.5,1,2.3c0.3,0.7,0.2,1-0.4,1.4c-0.7,0.5-1.4,0.9-2.1,1.4
				c-0.1,0.1-0.2,0.1-0.3,0.2c0.5,0.3,0.9,0.5,1.3,0.7c1.6,0.7,3.2,0.9,4.9,0.1c0.9-0.4,1.7-0.9,2.5-1.3c-0.2-0.3-0.4-0.6-0.6-0.9
				c-0.2-0.3-0.4-0.7-0.5-1.1C80.3,68.5,77.8,67.6,75.6,67.6z M79.3,83.5c0.1-0.1,0.2-0.1,0.3-0.1c0.8-0.3,1.6-0.7,2.4-1
				c0.7-0.3,0.9-0.2,1.3,0.4c0.2,0.3,0.4,0.6,0.6,0.9c0.4,0.5,0.7,1.1,1.1,1.6c0.2-0.4,0.4-0.7,0.5-1c1-2,1.1-3.9-0.2-5.9
				c-0.3-0.5-0.5-1.1-0.8-1.7c0,0,0-0.1,0,0c-0.6,0.3-1.2,0.7-1.8,1C80.3,78.6,79.3,81.1,79.3,83.5z M85.8,62.2
				c-0.2,0.4-0.4,0.7-0.5,1c-1,2-1.1,3.9,0.2,5.9c0.3,0.5,0.5,1.1,0.8,1.7c0,0,0,0.1,0,0c0.6-0.3,1.1-0.7,1.7-0.9
				c1.9-0.8,3-2.2,3.4-4.1c0.1-0.6,0.2-1.2,0.2-1.9c-0.2,0.1-0.3,0.1-0.4,0.1c-0.8,0.3-1.5,0.6-2.3,1c-0.7,0.3-1,0.2-1.5-0.4
				c-0.2-0.3-0.4-0.5-0.5-0.8C86.5,63.3,86.2,62.7,85.8,62.2z"/>
			<path class="st28" d="M68.3,49.6c-0.2,0.7-0.9,1.1-1.5,0.9c-0.6-0.2-1.1-1-0.9-1.7c0.2-0.7,0.9-1.1,1.6-0.9
				C68.2,48.1,68.5,48.8,68.3,49.6z"/>
			<path class="st28" d="M75.7,43.6c0.7,0.2,1.1,1,0.9,1.7c-0.2,0.6-0.9,1-1.6,0.8c-0.7-0.2-1.2-0.9-1-1.5
				C74.2,43.8,75,43.4,75.7,43.6z"/>
			<path class="st28" d="M66.3,54.7c-0.2,0.7-0.7,1-1.4,0.8c-0.7-0.2-1-0.8-0.8-1.4c0.2-0.7,0.9-1.2,1.6-1
				C66.3,53.3,66.6,53.9,66.3,54.7z"/>
			<path class="st28" d="M80.3,47.3c-0.8-0.2-1.1-0.8-0.9-1.5c0.2-0.6,1-1,1.7-0.7c0.6,0.2,0.9,0.8,0.7,1.5
				C81.6,47.2,81,47.5,80.3,47.3z"/>
			<path class="st28" d="M115.5,64c-0.2,0.7-1,1.1-1.6,0.9c-0.6-0.2-1-0.9-0.8-1.6c0.2-0.7,0.9-1.2,1.5-1
				C115.3,62.5,115.7,63.3,115.5,64z"/>
			<path class="st28" d="M110.4,54.2c0.7,0.2,1.1,1,0.9,1.6c-0.2,0.6-0.9,1-1.7,0.7c-0.7-0.2-1.1-0.9-0.9-1.5
				C108.9,54.5,109.7,54,110.4,54.2z"/>
			<path class="st28" d="M111.9,68.7c0.2-0.8,0.8-1.1,1.4-0.9c0.6,0.2,1,1,0.7,1.7c-0.2,0.6-0.8,0.9-1.5,0.7
				C111.9,69.9,111.7,69.4,111.9,68.7z"/>
			<path class="st28" d="M104.4,54.7c-0.7-0.2-1-0.7-0.8-1.4c0.2-0.7,0.8-1,1.4-0.8c0.7,0.2,1.2,0.9,1,1.6
				C105.8,54.6,105.2,54.9,104.4,54.7z"/>
			<path class="st28" d="M55.3,83.5c0.2-0.7,1-1.1,1.7-0.9c0.6,0.2,1,0.9,0.8,1.6c-0.2,0.7-0.9,1.2-1.5,1
				C55.5,84.9,55.1,84.2,55.3,83.5z"/>
			<path class="st28" d="M60.5,93.2c-0.7-0.2-1.1-1-0.9-1.6c0.2-0.6,0.9-1,1.7-0.7c0.7,0.2,1.1,0.9,0.9,1.5
				C62,93,61.1,93.4,60.5,93.2z"/>
			<path class="st28" d="M59,78.8c-0.2,0.8-0.8,1.1-1.4,1c-0.6-0.2-1-1-0.7-1.7c0.2-0.6,0.8-0.9,1.5-0.7
				C58.9,77.6,59.2,78.1,59,78.8z"/>
			<path class="st28" d="M66.4,92.8c0.7,0.2,1,0.7,0.8,1.4c-0.2,0.7-0.8,1-1.4,0.8c-0.7-0.2-1.2-0.9-1-1.6
				C65,92.8,65.6,92.6,66.4,92.8z"/>
			<path class="st28" d="M104.9,98.7c-0.2,0.7-1,1.1-1.6,0.8c-0.6-0.2-1-0.9-0.7-1.7c0.2-0.7,0.9-1.1,1.5-0.9
				C104.7,97.2,105.1,98,104.9,98.7z"/>
			<path class="st28" d="M95.2,103.9c-0.7-0.2-1.1-1-0.9-1.7c0.2-0.6,0.9-1,1.6-0.8c0.7,0.2,1.2,0.9,1,1.5
				C96.6,103.7,95.8,104.1,95.2,103.9z"/>
			<path class="st28" d="M104.5,92.7c0.2-0.7,0.7-1,1.4-0.8c0.7,0.2,1,0.8,0.8,1.4c-0.2,0.7-0.9,1.1-1.6,1
				C104.5,94.1,104.3,93.5,104.5,92.7z"/>
			<path class="st28" d="M90.5,100.2c0.8,0.2,1.1,0.8,1,1.4c-0.2,0.6-1,1-1.7,0.7c-0.6-0.2-0.9-0.8-0.7-1.5
				C89.3,100.2,89.8,100,90.5,100.2z"/>
		</g>
	</g>
</g>
</svg>
