<?xml version="1.0" encoding="utf-8"?>
<!-- Generator: Adobe Illustrator 25.3.0, SVG Export Plug-In . SVG Version: 6.00 Build 0)  -->
<svg version="1.1" id="Layer_1" xmlns="http://www.w3.org/2000/svg" xmlns:xlink="http://www.w3.org/1999/xlink" x="0px" y="0px"
	 viewBox="0 0 500 500" style="enable-background:new 0 0 500 500;" xml:space="preserve">
<style type="text/css">
	.st0{fill:#B9C1FF;}
	.st1{opacity:0.15;fill:#B9C1FF;enable-background:new    ;}
	.st2{opacity:0.5;fill:#B9C1FF;enable-background:new    ;}
	.st3{opacity:0.7;fill:#B9C1FF;enable-background:new    ;}
	.st4{fill:#FFFFFF;}
</style>
<g>
	<rect x="342.99" y="126.38" class="st0" width="2.08" height="13.18"/>
	<path class="st0" d="M345.07,115.66h-2c-0.02-15.99-12.98-28.94-28.97-28.95v-2C331.17,84.76,345,98.58,345.07,115.66z"/>
	<path class="st1" d="M123.72,97.14h178.31c15.14,0.04,27.4,12.31,27.45,27.45v18.29c-0.04,15.14-12.31,27.4-27.45,27.45H123.72
		L96.27,186.6v-62.11C96.36,109.39,108.61,97.18,123.72,97.14z"/>
	<rect x="128.69" y="123.35" class="st2" width="168.48" height="4.57"/>
	<rect x="128.69" y="139.56" class="st2" width="78.14" height="4.57"/>
	<rect x="219.03" y="139.56" class="st2" width="31.78" height="4.57"/>
	<path class="st3" d="M377.09,215.54H198.77c-15.14,0.04-27.4,12.31-27.45,27.45v18.29c0.03,15.15,12.3,27.42,27.45,27.45h178.31
		L404.53,305v-62.11C404.42,227.79,392.18,215.6,377.09,215.54z"/>
	<rect x="203.64" y="241.75" class="st4" width="168.48" height="4.57"/>
	<rect x="236.06" y="257.96" class="st4" width="136.06" height="4.57"/>
	<path class="st1" d="M122.91,333.94h69.38c15.14,0.05,27.39,12.31,27.45,27.45v18.31c-0.05,15.14-12.31,27.39-27.45,27.45h-69.38
		L95.47,423.4v-62.01C95.51,346.25,107.77,333.99,122.91,333.94z"/>
	<path class="st2" d="M136.82,370.55c0,4.43-3.59,8.01-8.01,8.01s-8.01-3.59-8.01-8.01c0-4.43,3.59-8.01,8.01-8.01
		C133.21,362.59,136.76,366.14,136.82,370.55z"/>
	<circle class="st2" cx="153.03" cy="364.06" r="8.11"/>
	<path class="st2" d="M185.44,380.26c0,4.43-3.59,8.01-8.01,8.01c-4.43,0-8.01-3.59-8.01-8.01c0-4.43,3.59-8.01,8.01-8.01
		C181.86,372.25,185.44,375.84,185.44,380.26z"/>
</g>
</svg>
