<?xml version="1.0" encoding="utf-8"?>
<!-- Generator: Adobe Illustrator 26.3.1, SVG Export Plug-In . SVG Version: 6.00 Build 0)  -->
<svg version="1.1" id="Layer_1" xmlns="http://www.w3.org/2000/svg" xmlns:xlink="http://www.w3.org/1999/xlink" x="0px" y="0px"
	 viewBox="0 0 355.6 383.4" style="enable-background:new 0 0 355.6 383.4;" xml:space="preserve">
<style type="text/css">
	.st0{fill:url(#SVGID_1_);}
	.st1{fill:#221F53;}
</style>
<g>
	<linearGradient id="SVGID_1_" gradientUnits="userSpaceOnUse" x1="31.4074" y1="84.197" x2="324.0657" y2="84.197">
		<stop  offset="0" style="stop-color:#CCA858"/>
		<stop  offset="0.3659" style="stop-color:#CCA858"/>
		<stop  offset="1" style="stop-color:#DFC78A"/>
	</linearGradient>
	<path class="st0" d="M185.2,0c19.4,4.2,38.8,8.4,58.2,12.7c23.3,5.2,46.6,10.4,69.8,15.7c6.9,1.6,10.8,6.1,10.9,12.4
		c0.2,6.5-3.4,11.5-10.1,13c-41.4,9.4-82.8,18.7-124.3,27.9c-11.3,2.5-22.6,0.6-33.8-1.9c-29.3-6.8-58.7-13.4-88.1-20
		c-5.3-1.2-5.5-1-5.5,4.4c0,15-0.8,30,0.3,44.9c0.8,10.8,4.1,21.5,6.2,32.2c0.6,3.3,1.6,6.6,1.6,9.9c0.2,9.3-7.5,17-16.7,17.1
		c-9.6,0.1-17.8-7.5-16.9-17.1c0.9-9.5,3.7-18.8,5.3-28.3c1.1-6.6,2-13.3,2.1-20c0.3-14.8,0.1-29.7,0.1-44.5c0-2.5-0.4-4.1-3.3-5
		c-6.6-2-9.8-6.6-9.6-13c0.2-6.2,3.9-10.5,10.8-12.1C70,22.3,97.8,16,125.6,9.8c14.9-3.3,29.7-6.5,44.6-9.8C175.2,0,180.2,0,185.2,0
		z"/>
	<path class="st1" d="M177.9,383.3c-46.7,0-93.5,0-140.2,0c-21.8,0-38.8-17.7-37.7-39.3c0.2-4.5,1.6-9.1,3-13.4
		c9.5-28.9,19-57.8,28.6-86.7c9.5-28.6,38-40.4,65.1-27.1c1.3,0.7,2.6,1.5,4.1,1.9c11,3.3,19.3,10.3,27.1,18.5
		c12.2,12.8,25,25.1,37.6,37.6c8.1,8.1,16.3,8,24.5-0.1c15.8-15.8,31.6-31.6,47.5-47.3c1.6-1.6,3.7-2.9,5.8-3.9
		c5.7-2.7,11.7-5.1,17.4-7.8c24.5-11.6,53.5,0.1,62.2,25.7c10.5,30.9,20.8,61.9,30.8,93c7.8,24.4-10.3,48.9-35.9,48.9
		C271.2,383.4,224.6,383.3,177.9,383.3C177.9,383.3,177.9,383.3,177.9,383.3z M280.8,296.5c5.7,0,11.5,0.1,17.2,0
		c5.9-0.1,9.9-3.6,10.1-8.8c0.3-5.6-3-10-9.1-10.2c-12.2-0.4-24.5-0.4-36.7,0c-6,0.2-9.5,4.6-9.2,10.1c0.3,5.3,4.1,8.8,10,8.9
		C269.1,296.6,274.9,296.5,280.8,296.5z"/>
	<path class="st1" d="M177.4,209.6c-48.7-0.1-90.2-36.8-96.3-85.2c-1.5-11.7-0.7-23.4,2.1-34.9c0.6-2.6,1.4-3.4,4-1.7
		c22.6,14.8,47.8,21.7,74.4,23.9c28.3,2.3,55.9-0.9,82.4-11.5c8.2-3.3,15.9-7.8,23.6-12.1c3.2-1.8,4-1.5,4.9,2
		c11.9,47.6-15.9,98.4-63.1,114c-10.2,3.4-21.1,4.6-31.7,6.8C177.6,210.4,177.5,210,177.4,209.6z"/>
</g>
</svg>
