<?xml version="1.0" encoding="utf-8"?>
<!-- Generator: Adobe Illustrator 25.3.0, SVG Export Plug-In . SVG Version: 6.00 Build 0)  -->
<svg version="1.1" id="Layer_1" xmlns="http://www.w3.org/2000/svg" xmlns:xlink="http://www.w3.org/1999/xlink" x="0px" y="0px"
	 viewBox="0 0 101.6 117.4" style="enable-background:new 0 0 101.6 117.4;" xml:space="preserve">
<style type="text/css">
	.st0{opacity:0.37;clip-path:url(#SVGID_2_);}
	.st1{fill:url(#SVGID_3_);}
</style>
<g id="Layer_8">
</g>
<g>
	<g>
		<g>
			<defs>
				<path id="SVGID_1_" d="M17.6,0.2V0h-3.7l2.4,0.7v1.7l-0.9,1.5l-3.2-0.8L9.8,0.7L12.3,0h-5l0,0l-1,0.3c0,0-0.1,0-0.1,0.1v0.1
					l0.3,1l-1-0.3l0,0c-0.1,0-0.1,0-0.2,0.1L5,2.3L4.3,1.6H4.2H4.1L3.4,2.3l-0.3-1c0,0,0-0.1-0.1-0.1H2.9l0,0l-1,0.3l0.3-1V0.4
					L2.1,0.3L1.1,0l0,0H0v1.1l0,0l0.7,0.2L0.5,2L0,2.1v1.3h0.1L0,3.8v4.9l0.4-1.4l2.4-2.4l0.9,3.2l-0.8,3.2H1.2l-1-0.6v1.9h0.7
					l2.3,1.3l-2.3,1.3H0.2v1.9l1-0.6h1.7l0.7,3.1l-0.9,3.2l-2.4-2.4l-0.4-1.5v4.9L0,24.3h-0.1v1.3l0.5,0.1l0.2,0.7l-0.7,0.2l0,0v1.8
					L0,28.5l-0.1,0.1v1.8l0,0l0.7,0.2l-0.2,0.7l-0.5,0.1v1.3H0l-0.1,0.4V38l0.4-1.4l2.4-2.4l0.9,3.2l-0.8,3.2H1.1l-1-0.6v1.9h0.7
					l2.3,1.3l-2.3,1.3H0.1v1.9l1-0.6h1.7l0.8,3.1l-0.9,3.2l-2.4-2.4l-0.4-1.5v4.9L0,53.5h-0.1v1.3l0.5,0.1l0.2,0.7l-0.7,0.2l0,0v1.8
					L0,57.7l-0.1,0.1v1.8l0,0l0.7,0.2l-0.2,0.7l-0.5,0.1v1.3H0l-0.1,0.4v4.9l0.4-1.4l2.4-2.4l0.9,3.4L2.8,70H1.1l-1-0.6v1.9h0.7
					l2.3,1.3l-2.3,1.3H0.1v1.9l1-0.6h1.7l0.8,3.1l-0.9,3.2l-2.4-2.4l-0.4-1.5v4.9L0,83h-0.1v1.3l0.5,0.1l0.2,0.7l-0.7,0.2l0,0v1.8
					L0,87.2l-0.1,0.1v1.8l0,0l0.7,0.2L0.4,90l-0.5,0.1v1.3H0l-0.1,0.4v4.9l0.4-1.4l2.4-2.4l0.9,3.2l-0.8,3.2H1.1l-1-0.6v1.9h0.7
					l2.3,1.3l-2.3,1.3H0.1v1.9l1-0.6h1.7l0.8,3.2l-0.9,3.2l-2.4-2.4l-0.4-1.5v4.9l0.1,0.5h-0.1v1.3l0.5,0.1l0.2,0.7l-0.7,0.2l0,0
					v1.7l0.1,0.1l-0.1,0.1v1.9l0,0l0.7,0.1l-0.2,0.7l-0.5,0.1v1.3H0l-0.1,0.4v4.9l0.4-1.4l2.4-2.4l0.9,3.2l-0.8,3.2H1.1l-1-0.6v1.9
					h0.7l0.5,0.3h2.5l-0.5-0.3h0.4c0.1,0,0.1,0,0.2-0.1l0.5-1.9l0.5,1.9c0,0.1,0.1,0.1,0.2,0.1h0.4L5,130.2h2.5l0.5-0.3h2.7
					l-0.2,0.3H12l0.2-0.3h1.5l-0.1,0.3h5.6l-1.7-0.5V128l0.9-1.5l3.2,0.8l2.4,2.4l-1.8,0.5h4.9l0.3-0.1c0,0,0.1,0,0.1-0.1v-0.1
					l-0.3-1l1,0.3l0,0c0.1,0,0.1,0,0.2-0.1l0.3-1l0.7,0.7h0.1h0.1l0.7-0.7l0.3,1c0,0.1,0.1,0.1,0.2,0.1l0,0l1-0.3l-0.3,1v0.1
					l0.1,0.1l0.3,0.1h4.9l-1.8-0.5l2.6-2.4l3.2-0.8l0.9,1.5v1.7l-1.7,0.5h5.6l0.2-0.3h1.5l0.3,0.3h1.5l-0.2-0.3h2.7l0.5,0.3h2.5
					l-0.5-0.3h0.4c0.1,0,0.1,0,0.2-0.1l0.5-1.9l0.5,1.9c0,0.1,0.1,0.1,0.2,0.1h0.4l-0.5,0.3h2.5l0.4-0.3h2.7l-0.2,0.3h1.5l0.2-0.3
					h1.5l0.2,0.3h5.6l-1.7-0.5V128l0.8-1.5l3.2,0.8l2.4,2.4l-1.8,0.5H78l0.3-0.1c0,0,0.1,0,0.1-0.1v-0.1l-0.3-1l1,0.3l0,0h0.1
					l0.1-0.1l0.3-1l0.7,0.7h0.1h0.1l0.7-0.7l0.3,1c0,0.1,0.1,0.1,0.2,0.1l0,0l1-0.3l-0.3,1c0,0.1,0,0.2,0.1,0.2l0.3,0.1h4.9
					l-1.7-0.5l2.4-2.4l3.3-0.8l0.9,1.5v1.7l-1.7,0.5h5.5l0.2-0.3h1.5l0.2,0.3h1.5l-0.2-0.3h2.7l0.5,0.3h2.5l-0.5-0.3h0.4
					c0.1,0,0.1,0,0.2-0.1l0.5-1.9l0.5,1.9c0,0.1,0.1,0.1,0.2,0.1h0.4l-0.5,0.3h2.5l0.5-0.3h2.7l-0.2,0.3h1.5l0.2-0.3h1.5l0.2,0.3
					h5.6l-1.7-0.5V128l0.7-1.5l3.2,0.8l2.4,2.4l-1.8,0.5h4.9l0.3-0.1c0,0,0.1,0,0.1-0.1v-0.1l-0.3-1l1,0.3l0,0c0.1,0,0.1,0,0.1-0.1
					v-4.9l-0.2,1.3l-2.4-2.4l-0.8-3.2l1.5-0.9h1.7l0.4,1.5v-7.9l-0.4,1.3H128l-1.5-0.9l0.8-3.2l2.4-2.2l0.4,1.4v-4.9
					c0,0,0-0.1-0.1-0.1h-0.1l0,0l-1,0.3l0.3-1v-0.1l-0.1-0.1l-1-0.3l0.7-0.7V102v-0.1l-0.8-0.7l1-0.3c0.1,0,0.1-0.1,0.1-0.2l-0.3-1
					l1,0.3l0,0c0.1,0,0.1,0,0.1-0.1V95l-0.3,1.4l-2.4-2.4l-0.8-3.2l1.5-0.9h1.7l0.4,1.3v-7.9l-0.4,1.3h-1.7l-1.5-0.9l0.8-3.2
					l2.4-2.4l0.4,1.4v-4.9c0,0,0-0.1-0.1-0.1h-0.1l0,0l-1,0.3l0.3-1v-0.1l-0.1-0.1l-1-0.3l0.7-0.7c0.1-0.1,0.1-0.2,0-0.2l-0.7-0.7
					l1-0.3c0.1,0,0.1-0.1,0.1-0.2l-0.3-1l1,0.3l0,0h0.1c0,0,0.1,0,0.1-0.1v-4.9l-0.4,1.4l-2.4-2.4l-0.8-3.2l1.5-0.9h1.7l0.4,1.3
					v-7.9l-0.4,1.3h-1.7l-1.5-0.9l0.8-3.2l2.4-2.4L130,50v-4.9c0-0.1-0.1-0.1-0.1-0.1l0,0l-1,0.3l0.3-1v-0.1l-0.1-0.1l-1-0.3
					l0.7-0.7c0.1-0.1,0.1-0.2,0-0.2l-0.7-0.7l1-0.3c0.1,0,0.1-0.1,0.1-0.2l-0.3-1l1,0.3l0,0c0.1,0,0.1,0,0.1-0.1V36l-0.4,1.4
					l-2.4-2.4l-0.8-3.2l1.5-0.9h1.7l0.4,1.3v-7.9l-0.4,1.3h-1.7l-1.5-0.9l0.8-3.2l2.4-2.4l0.4,1.4v-4.9c0,0,0-0.1-0.1-0.1h-0.1l0,0
					l-1,0.3l0.3-1v-0.1l-0.1-0.1l-1-0.3l0.8-0.8v-0.1v-0.1l-0.8-0.7l1-0.3c0.1,0,0.1-0.1,0.1-0.2l-0.3-1l1,0.3l0,0
					c0.1,0,0.1,0,0.1-0.1V6.4l-0.4,1.4l-2.4-2.4l-0.8-3.2l1.5-0.9h1.7l0.4,1.3v-3.1h-1.6L127.5,0h-2.7l0.3-0.5h-1.5L123.3,0h-1.5
					l-0.3-0.5h-2.4L119-0.3v-0.2h-3.7l2.4,0.7v1.7l-0.9,1.5l-3.2-0.8l-2.4-2.4l2.4-0.8h-5l0,0l-1,0.3c0,0-0.1,0-0.1,0.1v0.1l0.3,1
					l-1-0.3l0,0h-0.1l-0.1,0.1l-0.3,1l-0.8-0.8h-0.1h-0.1l-0.7,0.7l-0.3-1c0-0.1-0.1-0.1-0.2-0.1l0,0l-1,0.3l0.3-1
					c0-0.1,0-0.2-0.1-0.2l-1-0.3l0,0h-5L99.8,0l-2.4,2.4l-3.2,0.8l-0.9-1.5V0l2.4-0.7H92v0.2l-0.1-0.2h-2.4l-0.3,0.5h-1.5l-0.3-0.5
					h-1.5l0.3,0.5h-2.7l-0.8-0.5h-2l0.8,0.5h-0.4c-0.1,0-0.1,0-0.2,0.1l-0.5,1.9l-0.5-1.9c0-0.1-0.1-0.1-0.2-0.1h-0.4l0.8-0.5h-2.4
					l-0.8,0.5h-2.7l0.3-0.5H73l-0.3,0.5h-1.5l-0.3-0.5h-2.4l-0.1,0.2v-0.2h-3.7L67.2,0v1.7l-0.9,1.5l-3.2-0.8L60.7,0l2.5-0.7h-5l0,0
					l-1,0.3c-0.1,0-0.1,0.1-0.1,0.2l0.3,1l-1-0.3l0,0h-0.1l-0.1,0.1l-0.3,1l-0.8-0.8H55h-0.1l-0.7,0.8l-0.3-1c0-0.1-0.1-0.1-0.2-0.1
					l0,0l-1,0.3l0.3-1c0-0.1,0-0.2-0.1-0.2l-1-0.3l0,0h-5L49.4,0L47,2.4l-3.2,0.8l-0.9-1.5V0l2.4-0.7h-3.7v0.2l-0.1-0.2h-2.4
					l-0.3,0.5h-1.5L37-0.7h-1.4l0.3,0.5h-2.7l-0.8-0.5h-2.5l0.8,0.5h-0.4c-0.1,0-0.1,0-0.2,0.1l-0.5,1.9l-0.5-1.9
					c0-0.1-0.1-0.1-0.2-0.1h-0.4l0.8-0.5h-2.5L26-0.2h-2.7l0.3-0.5h-1.5l-0.3,0.5h-1.5L20-0.7h-2.4V0.2z M1,4.8L1.5,3l0.7-0.2
					l0.2,0.7L1,4.8z M128.5,105.7l0.7-0.2l0.2,0.7l-1.3,1.3L128.5,105.7z M129.4,97.6l-0.2,0.7l-0.7-0.2l-0.5-1.8L129.4,97.6z
					 M128.5,76.4l0.7-0.2l0.2,0.7l-1.3,1.3L128.5,76.4z M129.4,68.3l-0.2,0.7l-0.7-0.2L128,67L129.4,68.3z M128.5,46.9l0.7-0.2
					l0.2,0.7l-1.3,1.3L128.5,46.9z M129.4,38.9l-0.2,0.7l-0.7-0.2l-0.5-1.8L129.4,38.9z M128.5,17.6l0.7-0.2l0.2,0.7l-1.3,1.3
					L128.5,17.6z M129.4,9.6l-0.2,0.7l-0.7-0.2L128,8.3L129.4,9.6z M17.6,6.9l1-0.6l-0.2,0.3c0,0.1,0,0.1,0,0.2l1.4,1.4l-1.9-0.5
					l0,0c-0.1,0-0.1,0-0.1,0.1l-0.2,0.3L17.6,6.9z M17.6,10.6l0.9-1.5l3.2,0.8l2.4,2.4l-3.2,0.9l-3.2-0.8L17.6,10.6z M28.1,19.5
					l0.9,3.2l-0.8,3.2h-1.7L25,25l0.8-3.2L28.1,19.5z M26.4,19.4l0.5-1.8l0.7-0.2l0.2,0.7L26.4,19.4z M29.6,25.2l0.5,1.9
					c0,0.1,0.1,0.1,0.2,0.1l0,0h0.4l-1,0.6l-1-0.6h0.4c0.1,0,0.1,0,0.2-0.1L29.6,25.2z M29.1,18.5l0.5-0.5l0.5,0.5l-0.5,1.8
					L29.1,18.5z M33.5,21.9l0.8,3.2L32.8,26h-1.7l-0.8-3.2l0.9-3.2L33.5,21.9z M31.5,18.1l0.2-0.7l0.7,0.2l0.4,1.8L31.5,18.1z
					 M78.9,19.5l0.9,3.2L79,25.9h-1.7L75.8,25l0.8-3.2L78.9,19.5z M77.2,19.4l0.5-1.8l0.7-0.2l0.2,0.7L77.2,19.4z M80.5,25.2
					l0.5,1.9c0,0.1,0.1,0.1,0.2,0.1l0,0h0.4l-1,0.6l-1-0.6H80c0.1,0,0.1,0,0.2-0.1L80.5,25.2z M80,18.5l0.5-0.5l0.5,0.5l-0.5,1.8
					L80,18.5z M84.3,21.9l0.8,3.2L83.6,26h-1.7l-0.8-3.2l0.9-3.2L84.3,21.9z M82.4,18.1l0.2-0.7l0.7,0.2l0.4,1.8L82.4,18.1z
					 M125.5,15.4l-2.4,2.4l-3.2,0.8l-0.9-1.5v-1.7l3.2-0.8L125.5,15.4z M124.8,13.8l1.8-0.5l0.5,0.5l-0.5,0.5L124.8,13.8z
					 M125.1,25.7l0.3,0.2h-1.2l-0.6-1l0.3,0.2h0.1h0.1l1.4-1.4l-0.5,1.9C125,25.6,125.1,25.7,125.1,25.7z M124.3,28.5l-0.8,1.3H122
					l-0.8-1.3l0.8-1.3h1.5L124.3,28.5z M125,31.5l0.5,1.9l-1.4-1.4H124h-0.1l-0.3,0.2l0.6-1h1.2l-0.3,0.2
					C125.1,31.3,125,31.4,125,31.5z M125.1,55.1l0.3,0.2h-1.2l-0.6-1l0.3,0.2h0.1h0.1l1.4-1.4L125.1,55.1
					C125,55,125.1,55.1,125.1,55.1z M124.3,57.9l-0.8,1.3H122l-0.8-1.3l0.8-1.3h1.5L124.3,57.9z M125,60.9l0.5,1.9l-1.4-1.4H124
					h-0.1l-0.3,0.2l0.6-1h1.2l-0.3,0.2C125.1,60.7,125,60.8,125,60.9z M125.1,84.4l0.3,0.2h-1.2l-0.6-1l0.3,0.2h0.1h0.1l1.4-1.4
					L125.1,84.4C125,84.3,125.1,84.4,125.1,84.4z M124.3,87.2l-0.8,1.3H122l-0.8-1.3l0.8-1.3h1.5L124.3,87.2z M125,90.2l0.5,1.9
					l-1.4-1.4H124h-0.1l-0.3,0.2l0.6-1h1.2l-0.3,0.2C125.1,90.1,125,90.1,125,90.2z M125.1,113.8l0.3,0.2h-1.2l-0.6-1l0.3,0.2h0.1
					h0.1l1.4-1.4L125.1,113.8C125,113.7,125.1,113.7,125.1,113.8z M124.3,116.5l-0.8,1.3H122l-0.8-1.3l0.8-1.3h1.5L124.3,116.5z
					 M125,119.5l0.5,1.9l-1.4-1.4H124h-0.1l-0.3,0.2l0.6-1h1.2l-0.3,0.2C125.1,119.4,125,119.4,125,119.5z M121.4,113.9L121.4,113.9
					C121.4,113.9,121.3,113.9,121.4,113.9c-0.1,0-0.2,0-0.2,0.1v0.1l-0.7,1.2l-1.3-2.3v-2.7l2.3,1.3l1.3,2.3L121.4,113.9z
					 M107.4,110.9l-0.9-3.2l0.8-3.2h1.7l1.5,0.9l-0.8,3.1L107.4,110.9z M109.1,111l-0.5,1.8l-0.7,0.2l-0.2-0.7L109.1,111z
					 M105.8,105.2l-0.5-1.9c0-0.1-0.1-0.1-0.2-0.1h-0.4l1-0.6l1,0.6h-0.4c-0.1,0-0.1,0-0.2,0.1L105.8,105.2z M106.3,111.9l-0.5,0.5
					l-0.5-0.5l0.5-1.8L106.3,111.9z M102,108.5l-0.8-3.2l1.4-0.8h1.7l0.8,3.2l-0.9,3.2L102,108.5z M103.9,112.3l-0.2,0.7l-0.7-0.2
					l-0.5-1.8L103.9,112.3z M56.6,110.9l-0.9-3.2l0.9-3.2h1.7l1.5,0.9l-0.8,3.1L56.6,110.9z M58.3,111l-0.5,1.8l-0.7,0.2l-0.2-0.7
					L58.3,111z M55.1,105.2l-0.5-1.9c0-0.1-0.1-0.1-0.2-0.1H54l1-0.6l1,0.6h-0.4c-0.1,0-0.1,0-0.2,0.1L55.1,105.2z M55.6,111.9
					l-0.5,0.5l-0.5-0.5l0.5-1.8L55.6,111.9z M51.2,108.5l-0.8-3.2l1.5-0.8h1.7l0.8,3.2l-0.9,3.2L51.2,108.5z M53.2,112.3L53,113
					l-0.7-0.2l-0.5-1.8L53.2,112.3z M5.8,110.9l-0.9-3.2l0.8-3.2h1.7l1.5,0.9l-0.8,3.1L5.8,110.9z M7.5,111L7,112.8L6.3,113
					l-0.2-0.7L7.5,111z M8.1,95.3l0.8,3.2l-1.5,0.9H5.7l-0.8-3.2L5.8,93L8.1,95.3z M6.1,91.5l0.2-0.7L7,91l0.5,1.8L6.1,91.5z
					 M5.8,81.6l-0.9-3.2l0.8-3.2h1.7l1.5,0.9l-0.8,3.2L5.8,81.6z M7.5,81.7L7,83.5l-0.7,0.2L6.1,83L7.5,81.7z M8.1,66l0.8,3.2
					l-1.5,0.9H5.7l-0.8-3.2l0.9-3.2L8.1,66z M6.1,62.2l0.2-0.7L7,61.7l0.5,1.8L6.1,62.2z M5.8,52.3l-0.9-3.2l0.8-3.2h1.7l1.5,0.9
					L8.1,50L5.8,52.3z M7.5,52.3L7,54.1l-0.7,0.2l-0.2-0.7L7.5,52.3z M8.1,36.5l0.8,3.2l-1.5,0.9H5.7l-0.8-3.2l0.9-3.2L8.1,36.5z
					 M6.1,32.8l0.2-0.7L7,32.3l0.5,1.8L6.1,32.8z M5.8,22.8l-0.9-3.2l0.8-3.2h1.7l1.5,0.9l-0.8,3.2L5.8,22.8z M7.5,22.9L7,24.7
					l-0.7,0.2l-0.2-0.7L7.5,22.9z M37,18.9l2.3,2.3l-0.9,1.5l-1.5,0.9l-2.3-2.3l-0.9-3.2L37,18.9z M33.4,16.6l-0.2-0.7l0.7-0.2
					l1.3,1.3L33.4,16.6z M48.9,16.8l0.5,1.9L48,17.3h-0.1h-0.1l-0.3,0.2l0.6-1h1.2L49,16.7C48.9,16.7,48.9,16.8,48.9,16.8z
					 M47.8,18.8l2.3,2.3l0.8,3.3l-3.2-0.9l-2.3-2.3l0.9-1.5L47.8,18.8z M52.9,27.4c0.1,0,0.1-0.1,0.1-0.2l-0.3-1l1,0.3l0,0h0.1
					l0.1-0.1l0.3-1l0.8,0.8h0.1h0.1l0.7-0.7l0.3,1c0,0,0,0.1,0.1,0.1h0.1l0,0l1-0.3l-0.3,1c0,0.1,0,0.2,0.1,0.2l1,0.3l-0.7,0.7v0.1
					v0.1l0.8,0.7l-1,0.3c-0.1,0-0.1,0.1-0.1,0.2l0.3,1l-1-0.3l0,0h-0.1l-0.1,0.1l-0.3,1l-0.8-0.8h-0.1H55l-0.7,0.7l-0.3-1
					c0,0,0-0.1-0.1-0.1h-0.1l0,0l-1,0.3l0.3-1c0-0.1,0-0.2-0.1-0.2l-1-0.3l0.7-0.7c0.1-0.1,0.1-0.2,0-0.2L52,27.7L52.9,27.4z
					 M51.9,22.9l1.3,1.3L53,24.9l-0.7-0.2L51.9,22.9z M54.6,23.9l0.5-1.8l0.5,1.8l-0.5,0.5L54.6,23.9z M57,24.3l1.3-1.3l-0.5,1.8
					L57.1,25L57,24.3z M61.2,16.6l-0.3-0.2h1.2l0.6,1l-0.3-0.2h-0.1h-0.1l-1.4,1.4l0.5-1.9C61.3,16.8,61.2,16.7,61.2,16.6z
					 M62.4,18.8l1.5,0.9l0.9,1.5l-2.3,2.3l-3.2,0.9l0.9-3.2L62.4,18.8z M66.3,21.3L66.1,21l1,0.6v1.2l-0.2-0.3
					c0-0.1-0.1-0.1-0.1-0.1l0,0l-1.9,0.5l1.4-1.4C66.3,21.4,66.3,21.3,66.3,21.3z M66.3,23.8l0.9,1.5V27L64,27.8l-3.2-0.9l2.4-2.4
					L66.3,23.8z M69.3,21.1l0.1,0.3l-1-0.6v-1.2l0.2,0.3c0,0.1,0.1,0.1,0.1,0.1l0,0l1.9-0.5l-1.4,1.4C69.2,20.9,69.2,21,69.3,21.1z
					 M70.7,23.6l1.3,2.3h-1.4l0,0l0,0c-0.1,0-0.1,0-0.1,0.1v0.1l-0.7,1.2L68.5,25v-2.7L70.7,23.6z M87.8,18.9l2.3,2.3l-0.9,1.5
					l-1.5,0.9l-2.3-2.3l-0.9-3.2L87.8,18.9z M84.2,16.6L84,15.9l0.7-0.2L86,17L84.2,16.6z M98.5,18.8l2.3,2.3l0.9,3.3l-3.2-0.9
					l-2.3-2.3l0.9-1.5L98.5,18.8z M98.3,17.5l0.6-1h1.2l-0.3,0.2l-0.1,0.1l-0.9,0.5c0,0,0,0-0.1,0h-0.1L98.3,17.5z M103.4,28.4
					l-0.7-0.7l1-0.3c0,0,0.1,0,0.1-0.1v-0.1l-0.3-1l1,0.3l0,0c0.1-0.1,0.2-0.1,0.2-0.2l0.3-1l0.7,0.7h0.1h0.1l0.8-0.7l0.3,1
					c0,0,0,0.1,0.1,0.1h0.1l0,0l1-0.3l-0.3,1c0,0.1,0,0.2,0.1,0.2l1,0.3l-0.7,0.7v0.1v0.1l0.8,0.9l-1,0.3c0,0-0.1,0-0.1,0.1v0.1
					l0.3,1l-1-0.3l0,0h-0.1l-0.1,0.1l-0.3,1l-0.8-0.8h-0.1h-0.1l-0.7,0.7l-0.3-1c0-0.1-0.1-0.1-0.2-0.1l0,0l-1,0.3l0.3-1v-0.1
					l-0.1-0.1l-1-0.3l0.8-0.8v-0.1C103.4,28.5,103.4,28.4,103.4,28.4z M102.6,22.9l1.3,1.3l-0.2,0.7l-0.7-0.2L102.6,22.9z
					 M105.4,23.9l0.5-1.8l0.5,1.8l-0.5,0.5L105.4,23.9z M107.7,24.3L109,23l-0.5,1.8l-0.7,0.2L107.7,24.3z M111.9,16.6l-0.3-0.2h1.2
					l0.6,1l-0.3-0.2H113h-0.1l-1.4,1.4l0.5-1.9C112,16.8,112,16.7,111.9,16.6z M113.2,18.8l1.5,0.9l0.9,1.5l-2.3,2.3l-3.2,0.9
					l0.9-3.2L113.2,18.8z M117.1,21.3l-0.2-0.3l1,0.6v1.2l-0.2-0.4c0-0.1-0.1-0.1-0.1-0.1l0,0l-1.9,0.5L117.1,21.3
					C117.1,21.4,117.1,21.3,117.1,21.3z M117,23.8l0.9,1.5V27l-3.2,0.8l-3.2-0.9l2.4-2.4L117,23.8z M120,50.4l0.2,0.3l-1-0.6v-1.2
					l0.2,0.3c0,0.1,0.1,0.1,0.1,0.1l0,0l1.9-0.5l-1.4,1.4C120,50.3,120,50.3,120,50.4z M119.2,57.3v-0.4l0.6,1l-0.6,1v-0.4
					c0-0.1,0-0.1-0.1-0.2l-1.9-0.5l1.9-0.5C119.1,57.4,119.2,57.3,119.2,57.3z M120,65.5l1.4,1.4l-1.9-0.5l0,0c-0.1,0-0.1,0-0.1,0.1
					l-0.2,0.3v-1.2l1-0.6l-0.2,0.3C120,65.4,120,65.5,120,65.5z M119.2,86.2l0.6,1l-0.6,1v-0.4c0-0.1,0-0.1-0.1-0.2l-1.9-0.5
					l1.9-0.5c0.1,0,0.1-0.1,0.1-0.2V86.2z M120,94.9l1.4,1.4l-1.9-0.5l0,0c-0.1,0-0.1,0-0.1,0.1l-0.2,0.3V95l1-0.6l-0.2,0.3
					C120,94.7,120,94.8,120,94.9z M110,112.4l0.9-3.2l2.3-2.3l1.5,0.8l0.9,1.5l-2.3,2.3L110,112.4z M111.4,113.3l-1.3,1.3l-0.7-0.1
					l0.2-0.7L111.4,113.3z M98.5,111.5l-2.3-2.3l0.8-1.5l1.5-0.9l2.3,2.4l0.9,3.2L98.5,111.5z M102.1,113.8l0.1,0.7l-0.7,0.2
					l-1.3-1.3L102.1,113.8z M94.7,109.5l1.3,1.4l-1.9-0.5l0,0c-0.1,0-0.1,0-0.1,0.1l-0.2,0.3v-1.2l1-0.6l-0.2,0.3
					C94.6,109.4,94.6,109.5,94.7,109.5z M93.8,108.1v-2.7l1.3-2.3l0.7,1.2v0.1l0.1,0.1c0,0,0,0,0.1,0l0,0h1.4l-1.3,2.3L93.8,108.1z
					 M86.6,113.6l-0.5-1.9l1.4,1.4h0.1h0.1l0.3-0.2l-0.6,1h-1.2L86.6,113.6C86.6,113.7,86.7,113.7,86.6,113.6z M87.8,111.6l-2.3-2.3
					l-0.9-3.2l3.2,0.9l2.3,2.3l-0.9,1.5L87.8,111.6z M84.2,104.6l-0.2-0.7l0.7-0.1l1.3,1.3L84.2,104.6z M82.7,103
					C82.6,103,82.6,103.1,82.7,103c-0.1,0.1-0.1,0.2-0.1,0.2l0.3,1l-1-0.3l0,0h-0.1l-0.1,0.1l-0.3,1l-0.7-0.7h-0.1h-0.1l-0.7,0.7
					l-0.3-1c0,0,0-0.1-0.1-0.1h-0.1l0,0l-1,0.3l0.3-1v-0.1l-0.1-0.1l-1-0.3l0.8-0.8c0.1-0.1,0.1-0.2,0-0.2l-0.7-0.7l1-0.3
					c0,0,0.1,0,0.1-0.1v-0.1l-0.3-1l1,0.3l0,0h0.1l0.1-0.1l0.3-1l0.8,0.8h0.1h0.1l0.7-0.7l0.3,1c0,0.1,0.1,0.1,0.2,0.1l0,0l1-0.3
					l-0.3,1c0,0.1,0,0.2,0.1,0.2l1,0.3l-0.7,0.7v0.1v0.1l0.5,0.8L82.7,103z M83.7,107.5l-1.3-1.3l0.1-0.7l0.7,0.2L83.7,107.5z
					 M81,106.5l-0.5,1.8l-0.5-1.8l0.5-0.5L81,106.5z M78.6,106.2l-1.3,1.3l0.4-1.8l0.7-0.2L78.6,106.2z M74.4,113.8l0.3,0.2h-1.2
					l-0.6-1l0.3,0.2h0.1h0.1l1.4-1.4l-0.5,1.9C74.3,113.7,74.3,113.7,74.4,113.8z M73.1,111.6l-1.5-0.9l-0.9-1.5l2.3-2.3l3.2-0.9
					l-0.9,3.2L73.1,111.6z M69.3,109.1l0.1,0.4l-1-0.6v-1.2l0.2,0.3c0,0.1,0.1,0.1,0.1,0.1l0,0l1.9-0.5l-1.4,1.4
					C69.2,109,69.2,109.1,69.3,109.1z M69.3,106.6l-0.9-1.5v-1.7l3.2-0.8l3.2,0.9l-2.4,2.4L69.3,106.6z M35.8,113.6l-0.5-1.9
					l1.4,1.4h0.1h0.1l0.3-0.2l-0.6,1h-1.2L35.8,113.6C35.8,113.7,35.8,113.7,35.8,113.6z M36.9,111.6l-2.3-2.3l-0.9-3.2l3.2,0.9
					l2.3,2.3l-0.9,1.5L36.9,111.6z M33.4,104.6l-0.2-0.7l0.7-0.2l1.3,1.3L33.4,104.6z M31.8,103C31.8,103,31.7,103.1,31.8,103
					c-0.1,0.1-0.1,0.2-0.1,0.2l0.3,1l-1-0.3l0,0h-0.1l-0.1,0.1l-0.3,1l-0.7-0.7h-0.1h-0.1l-0.7,0.7l-0.3-1c0,0,0-0.1-0.1-0.1h-0.1
					l0,0l-1,0.3l0.3-1c0-0.1,0-0.2-0.1-0.2l-1-0.3l0.7-0.7c0.1-0.1,0.1-0.2,0-0.2l-0.7-0.7l1-0.3c0,0,0.1,0,0.1-0.1v-0.1l-0.3-1
					l1,0.3l0,0c0.1,0,0.1,0,0.2-0.1l0.3-1l0.7,0.7h0.1h0.1l0.7-0.7l0.3,1c0,0.1,0.1,0.1,0.2,0.1l0,0l1-0.3l-0.3,1v0.1l0.1,0.1l1,0.3
					l-0.7,0.7v0.1v0.1l0.7,0.7L31.8,103z M32.8,107.5l-1.3-1.3l0.2-0.7l0.7,0.2L32.8,107.5z M30.1,106.5l-0.5,1.8l-0.5-1.8l0.5-0.5
					L30.1,106.5z M27.7,106.2l-1.3,1.3l0.5-1.8l0.6-0.2L27.7,106.2z M23.5,113.8l0.3,0.2h-1.2l-0.6-1l0.3,0.2h0.1h0.1l1.4-1.4
					L23.5,113.8C23.4,113.7,23.5,113.7,23.5,113.8z M22.3,111.6l-1.5-0.9l-0.9-1.5l2.3-2.3l3.2-0.9l-0.8,3.3L22.3,111.6z
					 M18.4,109.1l0.2,0.4l-1-0.6v-1.2l0.2,0.3l0.1,0.1l0,0l1.9-0.5L18.4,109.1C18.4,109,18.4,109.1,18.4,109.1z M18.4,106.6
					l-0.9-1.5v-1.7l3.2-0.9l3.2,0.9l-2.4,2.4L18.4,106.6z M8.4,112.4l0.9-3.2l2.3-2.3l1.5,0.9l0.9,1.5l-2.4,2.2L8.4,112.4z
					 M9.8,113.3l-1.3,1.3l-0.7-0.1l0.2-0.7L9.8,113.3z M10.3,104.7l-0.3-0.2h1.2l0.6,1l-0.3-0.2h-0.1h-0.1l-1.4,1.4L10.3,104.7
					C10.4,104.8,10.4,104.7,10.3,104.7z M11.2,101.9l0.8-1.3h1.5l0.8,1.3l-0.8,1.3H12L11.2,101.9z M10.4,98.9L9.9,97l1.4,1.4h0.1
					h0.1l0.3-0.2l-0.6,1H10L10.4,98.9C10.4,99.1,10.4,99,10.4,98.9z M10.3,75.4L10,75.2h1.2l0.6,1L11.5,76h-0.1h-0.1l-1.4,1.4
					L10.3,75.4C10.4,75.5,10.4,75.4,10.3,75.4z M10.4,69.6l-0.5-1.9l1.4,1.4h0.1h0.1l0.3-0.2l-0.6,1H10L10.4,69.6
					C10.4,69.8,10.4,69.7,10.4,69.6z M10.3,46L10,45.8h1.2l0.6,1l-0.3-0.2h-0.1h-0.1L9.9,48l0.5-1.9C10.4,46.1,10.4,46,10.3,46z
					 M10.4,40.2l-0.5-1.9l1.4,1.4h0.1h0.1l0.3-0.2l-0.6,1H10l0.3-0.1C10.4,40.3,10.4,40.3,10.4,40.2z M10.3,16.6L10,16.4h1.2l0.6,1
					l-0.3-0.2h-0.1h-0.1l-1.4,1.4l0.5-1.9C10.4,16.8,10.4,16.7,10.3,16.6z M11.6,18.8l1.5,0.9l0.9,1.5l-2.3,2.3l-3.2,0.9l0.9-3.2
					L11.6,18.8z M15.5,21.3L15.3,21l1,0.6v1.2l-0.2-0.3c0-0.1-0.1-0.1-0.1-0.1l0,0l-1.9,0.5l1.4-1.4C15.5,21.4,15.5,21.3,15.5,21.3z
					 M15.4,23.8l0.9,1.5V27l-3.2,0.8l-3.2-0.9l2.4-2.4L15.4,23.8z M9.8,25.3l-1.3,1.3l-0.7-0.2L8,25.7L9.8,25.3z M8.9,28l1.8,0.5
					L8.9,29l-0.5-0.5L8.9,28z M13.1,29.2l3.2,0.8v1.7l-0.9,1.5l-3.2-0.8L9.8,30L13.1,29.2z M18.4,21.1l0.2,0.3l-1-0.6v-1.2l0.2,0.3
					l0.1,0.1l0,0l1.9-0.5l-1.4,1.4C18.4,20.9,18.4,21,18.4,21.1z M19.9,23.6l1.3,2.3h-1.4l0,0l0,0c-0.1,0-0.1,0-0.1,0.1v0.1L19,27.3
					L17.7,25v-2.7L19.9,23.6z M23.5,25.7l0.3,0.2h-1.2l-0.6-1l0.3,0.2h0.1h0.1l1.4-1.4l-0.5,1.9L23.5,25.7z M22.7,28.5l-0.8,1.3
					h-1.5l-0.8-1.3l0.8-1.3h1.5L22.7,28.5z M23.4,31.5l0.5,1.9L22.5,32h-0.1h-0.1L22,32.2l0.6-1h1.2l-0.3,0.2
					C23.5,31.3,23.4,31.4,23.4,31.5z M27.4,42C27.5,42,27.5,42,27.4,42c0.1-0.1,0.1-0.2,0.1-0.2l-0.3-1l1,0.3l0,0
					c0.1,0,0.1,0,0.2-0.1l0.3-1l0.7,0.7h0.1h0.1l0.7-0.7l0.3,1c0,0.1,0.1,0.1,0.2,0.1l0,0l1-0.3l-0.3,1c0,0.1,0,0.2,0.1,0.2l1,0.3
					L31.9,43v0.1v0.1l0.7,0.7l-1,0.3c0,0-0.1,0-0.1,0.1v0.1l0.3,1l-1-0.3l0,0h-0.1l-0.1,0.1l-0.3,1l-0.7-0.7h-0.1h-0.1l-0.7,0.7
					l-0.3-1c0,0,0-0.1-0.1-0.1h-0.1l0,0l-1,0.3l0.3-1v-0.1l-0.1-0.1l-1-0.3l0.7-0.7v-0.1V43l-0.8-0.7L27.4,42z M26.4,37.6l1.3,1.3
					l-0.2,0.7l-0.7-0.2L26.4,37.6z M29.1,38.5l0.5-1.8l0.5,1.8L29.6,39L29.1,38.5z M35.7,31.3l-0.3-0.2h1.2l0.6,1l-0.3-0.2h-0.1
					h-0.1l-1.4,1.4L35.7,31.3C35.8,31.4,35.8,31.3,35.7,31.3z M35.8,25.5l-0.5-1.9l1.4,1.4h0.1h0.1l0.3-0.2l-0.6,1h-1.2l0.3-0.2
					C35.8,25.7,35.8,25.6,35.8,25.5z M37.3,27.2h1.5l0.8,1.3l-0.8,1.3h-1.5l-0.8-1.3L37.3,27.2z M36.9,33.5l1.5,0.9l0.9,1.5L37,38.2
					l-3.2,0.9l0.8-3.3L36.9,33.5z M35.2,39.9l-1.3,1.3L33.2,41l0.2-0.6L35.2,39.9z M43.8,35.7L44,36l-1-0.6v-1.2l0.2,0.3
					c0,0.1,0.1,0.1,0.1,0.1l0,0l1.9-0.5l-1.4,1.4C43.8,35.6,43.7,35.7,43.8,35.7z M45.3,38.3l1.4,2.3h-1.4h-0.1l0,0h-0.1
					c0,0,0,0-0.1,0.1c0,0,0,0,0,0.1L44.3,42L43,39.7V37L45.3,38.3z M55.1,39.9l0.5,1.9c0,0.1,0.1,0.1,0.2,0.1l0,0h0.4l-1,0.6l-1-0.6
					h0.4c0.1,0,0.1,0,0.2-0.1L55.1,39.9z M54.6,33.1l0.5-0.5l0.5,0.5l-0.5,1.8L54.6,33.1z M59.3,30.4l1.4,1.3l-1.8-0.5l-0.2-0.7
					L59.3,30.4z M59.2,28.5l0.5-0.5l1.8,0.5L59.7,29L59.2,28.5z M62.5,33.5l2.3,2.3l-0.9,1.5l-1.5,0.9l-2.3-2.3l-0.9-3.2L62.5,33.5z
					 M74.4,25.7l0.3,0.2h-1.2l-0.6-1l0.3,0.2h0.1h0.1l1.4-1.4l-0.5,1.9C74.3,25.6,74.3,25.7,74.4,25.7z M73.5,28.5l-0.8,1.3h-1.5
					l-0.8-1.3l0.8-1.3h1.5L73.5,28.5z M74.3,31.5l0.5,1.9L73.4,32h-0.1h-0.1l-0.3,0.2l0.6-1h1.2l-0.3,0.2
					C74.3,31.3,74.3,31.4,74.3,31.5z M73.1,33.5l2.3,2.3l0.9,3.2l-3.2-0.9l-2.3-2.3l0.9-1.5L73.1,33.5z M76.7,40.4l0.2,0.7l-0.7,0.2
					L74.9,40L76.7,40.4z M78,43.1l-0.7-0.7l1-0.3c0.1,0,0.1-0.1,0.1-0.2l-0.3-1l1,0.3l0,0c0.1,0,0.1,0,0.2-0.1l0.3-1l0.7,0.7h0.1
					h0.1l0.7-0.7l0.3,1c0,0,0,0.1,0.1,0.1h0.1l0,0l1-0.3l-0.3,1c0,0.1,0,0.2,0.1,0.2l1,0.3l-0.7,0.7v0.1v0.1l0.9,0.7l-1,0.3
					c-0.1,0-0.1,0.1-0.1,0.2l0.3,1l-1-0.3l0,0c-0.1,0-0.1,0-0.2,0.1l-0.3,1l-0.7-0.7h-0.1h-0.1l-0.7,0.7l-0.3-1
					c0-0.1-0.1-0.1-0.2-0.1l0,0l-1,0.3l0.3-1v-0.1l-0.1-0.1l-1-0.3l0.8-0.8C78.1,43.2,78.1,43.1,78,43.1z M77.2,37.6l1.3,1.3
					l-0.2,0.7l-0.6-0.2L77.2,37.6z M80,38.5l0.5-1.8l0.5,1.8L80.5,39L80,38.5z M82.4,38.9l1.3-1.3l-0.5,1.8l-0.7,0.2L82.4,38.9z
					 M86.6,31.3l-0.3-0.2h1.2l0.6,1l-0.3-0.2h-0.1h-0.1l-1.4,1.4l0.5-1.9L86.6,31.3z M86.6,25.5l-0.5-1.9l1.4,1.4h0.1h0.1l0.3-0.2
					l-0.6,1h-1.2l0.3-0.2C86.6,25.7,86.7,25.6,86.6,25.5z M88.1,27.2h1.5l0.8,1.3l-0.8,1.3h-1.5l-0.8-1.3L88.1,27.2z M87.8,33.5
					l1.5,0.9l0.9,1.5l-2.3,2.3l-3.2,0.9l0.9-3.2L87.8,33.5z M86,39.9l-1.3,1.3L84,41l0.2-0.6L86,39.9z M94.6,35.7l0.2,0.3l-1-0.6
					v-1.2l0.2,0.3c0,0.1,0.1,0.1,0.1,0.1l0,0l1.9-0.5l-1.3,1.4C94.6,35.6,94.6,35.7,94.6,35.7z M96.1,38.3l1.3,2.3H96c0,0,0,0-0.1,0
					l0,0c-0.1,0-0.1,0-0.1,0.1c0,0,0,0,0,0.1L95.1,42l-1.3-2.3V37L96.1,38.3z M101.6,30.4l0.7,0.2l-0.2,0.7l-1.8,0.5L101.6,30.4z
					 M99.4,28.5l1.8-0.5l0.5,0.5l-0.5,0.5L99.4,28.5z M101.7,32.7l-0.9,3.2l-2.3,2.3L97,37.3l-0.9-1.5l2.3-2.3L101.7,32.7z
					 M105.8,39.9l0.5,1.9c0,0.1,0.1,0.1,0.2,0.1l0,0h0.4l-1,0.6l-1-0.6h0.4c0.1,0,0.1,0,0.2-0.1L105.8,39.9z M105.4,33.1l0.5-0.5
					l0.5,0.5l-0.5,1.8L105.4,33.1z M110.1,30.4l1.3,1.3l-1.8-0.5l-0.2-0.7L110.1,30.4z M110,28.5l0.5-0.5l1.8,0.5l-1.8,0.5L110,28.5
					z M113.2,33.5l2.3,2.3l-0.9,1.5l-1.5,0.9l-2.3-2.3l-0.9-3.2L113.2,33.5z M112,98.9l-0.5-1.9l1.4,1.4h0.1h0.1l0.3-0.2l-0.6,1
					h-1.2L112,98.9C112,99.1,112,99,112,98.9z M113.2,96.9l-2.3-2.3l-0.9-3.2l3.2,0.9l2.3,2.3l-0.9,1.5L113.2,96.9z M108,88.4
					L108,88.4c-0.1,0.1-0.1,0.2-0.1,0.2l0.3,1l-1-0.3l0,0h-0.1l-0.1,0.1l-0.3,1l-0.8-0.8h-0.1h-0.1l-0.7,0.7l-0.3-1
					c0,0,0-0.1-0.1-0.1h-0.1l0,0l-1,0.3l0.3-1v-0.1l-0.1-0.1l-1-0.3l0.8-0.8v-0.1V87l-0.7-0.7l1-0.3c0,0,0.1,0,0.1-0.1v-0.1l-0.3-1
					l1,0.3l0,0h0.1l0.1-0.1l0.3-1l0.6,0.8h0.1h0.1l0.8-0.8l0.3,1c0,0.1,0.1,0.1,0.2,0.1l0,0l1-0.3l-0.3,1v0.1L108,86l1,0.3l-0.7,0.7
					v0.1v0.1l0.7,0.7L108,88.4z M109.1,92.8l-1.4-1.3l0.2-0.7l0.7,0.2L109.1,92.8z M106.3,91.9l-0.5,1.8l-0.5-1.8l0.5-0.5
					L106.3,91.9z M103.9,91.5l-1.3,1.3l0.5-1.8l0.7-0.2L103.9,91.5z M99.7,99.1l0.3,0.2h-1.2l-0.6-1l0.4,0.2h0.1h0.1l1.4-1.4
					l-0.5,1.8C99.7,99,99.7,99.1,99.7,99.1z M99.7,104.9l0.5,1.9l-1.4-1.4h-0.1h-0.1l-0.3,0.1l0.6-1h1.2l-0.4,0.2
					C99.7,104.7,99.7,104.8,99.7,104.9z M98.2,103.2h-1.5l-0.8-1.3l0.8-1.3h1.5l0.8,1.3L98.2,103.2z M98.5,96.9L97,96l-0.9-1.5
					l2.3-2.3l3.3-0.8l-0.9,3.2L98.5,96.9z M100.3,90.5l1.3-1.3l0.7,0.2l-0.2,0.7L100.3,90.5z M91.7,94.7l-0.2-0.3l1,0.6v1.2
					l-0.2-0.3c0-0.1-0.1-0.1-0.1-0.1l0,0l-1.9,0.5l1.4-1.4C91.7,94.8,91.7,94.7,91.7,94.7z M90.2,92.1l-1.3-2.3h1.4c0,0,0,0,0.1,0
					l0,0c0,0,0.1,0,0.1-0.1c0,0,0,0,0-0.1l0.7-1.1l1.3,2.3v2.7L90.2,92.1z M84.6,97.7l0.9-3.2l2.3-2.3l1.5,0.9l0.9,1.5l-2.3,2.3
					L84.6,97.7z M86,98.7l-1.3,1.3L84,99.8l0.2-0.7L86,98.7z M80.5,90.6L80,88.7c0-0.1-0.1-0.1-0.2-0.1h-0.4l1-0.6l1,0.6H81
					c-0.1,0-0.1,0-0.2,0.1L80.5,90.6z M81,97.3l-0.5,0.5L80,97.3l0.5-1.8L81,97.3z M80.5,86.5l-1-0.6h0.4c0.1,0,0.1,0,0.2-0.1
					l0.5-1.9l0.5,1.9c0,0.1,0.1,0.1,0.2,0.1l0,0h0.4L80.5,86.5z M76.2,100l-1.3-1.3l1.8,0.5l0.2,0.7L76.2,100z M76.3,101.9l-0.5,0.5
					l-1.8-0.5l1.8-0.5L76.3,101.9z M73.1,96.9l-2.3-2.3l0.9-1.5l1.5-0.9l2.3,2.3l0.9,3.2L73.1,96.9z M69.3,94.9l1.4,1.4l-1.9-0.5
					l0,0c-0.1,0-0.1,0-0.1,0.1l-0.2,0.3V95l1-0.6l-0.2,0.3C69.2,94.7,69.2,94.8,69.3,94.9z M68.4,93.5v-2.7l1.3-2.3l0.7,1.2
					c0,0,0,0,0,0.1c0,0,0,0.1,0.1,0.1h0.1c0,0,0,0,0.1,0h1.4l-1.3,2.3L68.4,93.5z M61.3,98.9L60.8,97l1.4,1.4h0.1h0.1l0.3-0.2
					l-0.6,1h-1.2l0.3-0.2C61.2,99.1,61.3,99,61.3,98.9z M62.4,96.9l-2.3-2.3l-0.9-3.2l3.2,0.9l2.3,2.3l-0.9,1.5L62.4,96.9z
					 M57.3,88.4C57.2,88.4,57.2,88.4,57.3,88.4c-0.1,0.1-0.1,0.2-0.1,0.2l0.3,1l-1-0.3l0,0h-0.1l-0.1,0.1l-0.3,1l-0.8-0.8h-0.1H55
					l-0.7,0.8l-0.3-1c0,0,0-0.1-0.1-0.1h-0.1l0,0l-1,0.3l0.3-1v-0.1L53,88.4l-1-0.3l0.7-0.7v-0.1v-0.1l-0.8-0.7l1-0.3
					c0,0,0.1,0,0.1-0.1V86l-0.3-1l1,0.3l0,0h0.1l0.1-0.1l0.3-1L55,85h0.1h0.1l0.7-0.7l0.3,1c0,0.1,0.1,0.1,0.2,0.1l0,0l1-0.3l-0.3,1
					v0.1l0.1,0.1l1,0.3l-0.7,0.7v0.1v0.1l0.8,0.7L57.3,88.4z M58.3,92.8L57,91.5l0.2-0.7l0.7,0.2L58.3,92.8z M55.6,91.9l-0.5,1.8
					l-0.5-1.8l0.5-0.5L55.6,91.9z M53.2,91.5l-1.3,1.3l0.5-1.8l0.7-0.2L53.2,91.5z M49,99.1l0.3,0.2h-1.2l-0.6-1l0.4,0.2H48h0.1
					l1.4-1.4L49,99.1C48.9,99,48.9,99.1,49,99.1z M48.9,104.9l0.5,1.9l-1.4-1.4h-0.1h-0.1l-0.3,0.2l0.6-1h1.2l-0.3,0.2
					C48.9,104.7,48.9,104.8,48.9,104.9z M47.4,103.2h-1.5l-0.8-1.3l0.8-1.3h1.5l0.8,1.3L47.4,103.2z M47.8,96.9L46.3,96l-0.9-1.5
					l2.3-2.2l3.2-0.9L50,94.6L47.8,96.9z M49.5,90.5l1.3-1.3l0.7,0.2l-0.2,0.7L49.5,90.5z M40.8,94.7l-0.2-0.3l1,0.6v1.2l-0.2-0.3
					l-0.1-0.1l0,0l-1.9,0.5l1.4-1.4C40.9,94.8,40.9,94.7,40.8,94.7z M39.4,92.1l-1.3-2.3h1.4l0,0c0.1,0,0.1,0,0.1-0.1c0,0,0,0,0-0.1
					l0.7-1.1l1.3,2.3v2.7L39.4,92.1z M29.6,90.6l-0.5-1.9c0-0.1-0.1-0.1-0.2-0.1h-0.4l1-0.6l1,0.6h-0.4c-0.1,0-0.1,0-0.2,0.1
					L29.6,90.6z M30.1,97.3l-0.5,0.5l-0.5-0.5l0.5-1.8L30.1,97.3z M29.6,86.5l-1-0.6H29c0.1,0,0.1,0,0.2-0.1l0.4-1.9l0.5,1.9
					c0,0.1,0.1,0.1,0.2,0.1l0,0h0.4L29.6,86.5z M18.4,94.9l1.4,1.4l-1.9-0.5l0,0c-0.1,0-0.1,0-0.1,0.1l-0.2,0.3V95l1-0.6l-0.2,0.3
					C18.4,94.7,18.4,94.8,18.4,94.9z M17.6,93.5v-2.7l1.3-2.3l0.7,1.2c0,0,0,0,0,0.1c0,0,0,0.1,0.1,0.1h0.1c0,0,0,0,0.1,0h1.4
					L20,92.2L17.6,93.5z M15.5,80l-0.2-0.3l1,0.6v1.2l-0.2-0.3c0-0.1-0.1-0.1-0.1-0.1l0,0l-1.9,0.5l1.4-1.4
					C15.5,80.2,15.5,80.1,15.5,80z M14,77.5l-1.3-2.3h1.4l0,0l0,0c0.1,0,0.1,0,0.1-0.1V75l0.7-1.2l1.3,2.3v2.7L14,77.5z M15.4,65
					L14,63.6l1.9,0.5l0,0c0.1,0,0.1,0,0.1-0.1l0.2-0.3v1.2l-1,0.6l0.2-0.3C15.5,65.1,15.5,65,15.4,65z M16.3,66.4v2.7L15,71.4
					l-0.7-1.2c0,0,0,0,0-0.1c0,0,0-0.1-0.1-0.1h-0.1c0,0,0,0-0.1,0h-1.4l1.3-2.3L16.3,66.4z M16.3,73.2v0.4l-0.6-1l0.6-1V72
					c0,0.1,0,0.1,0.1,0.2l1.9,0.5L16.3,73.2C16.3,73.1,16.3,73.2,16.3,73.2z M14.3,45.7C14.3,45.7,14.3,45.6,14.3,45.7l0.7-1.3
					l1.3,2.3v2.7L14,48.1l-1.3-2.3h1.4l0,0l0,0C14.2,45.8,14.2,45.7,14.3,45.7z M14.1,40.6h-1.4l1.3-2.3l2.3-1.3v2.7L15,42l-0.7-1.2
					C14.2,40.6,14.2,40.6,14.1,40.6z M15.5,50.6l-0.2-0.3l1,0.6v1.2l-0.2-0.3c0-0.1-0.1-0.1-0.1-0.1l0,0l-1.9,0.5l1.4-1.4
					C15.5,50.7,15.5,50.7,15.5,50.6z M15.4,53.2l0.9,1.5v1.7l-3.2,0.8l-3.2-0.9l2.4-2.4L15.4,53.2z M17.4,57.4
					c0.1,0,0.1-0.1,0.1-0.2v-0.4l0.6,1l-0.6,1v-0.4c0-0.1,0-0.1-0.1-0.2l-1.9-0.5L17.4,57.4z M24,44.7l-2.4,2.4l-3.2,0.8l-0.8-1.5
					v-1.7l3.2-0.8L24,44.7z M23.2,43.2l1.8-0.5l0.5,0.5L25,43.7L23.2,43.2z M29.6,54.6l0.5,1.9c0,0.1,0.1,0.1,0.2,0.1l0,0h0.4
					l-1,0.6l-1-0.6h0.4c0.1,0,0.1,0,0.2-0.1L29.6,54.6z M29.1,47.8l0.5-0.5l0.5,0.5l-0.5,1.8L29.1,47.8z M37,48.2l2.3,2.3L38.4,52
					l-1.5,0.9l-2.3-2.3l-0.9-3.2L37,48.2z M33.4,45.9l-0.2-0.7l0.7-0.2l1.3,1.4L33.4,45.9z M35.7,90l-0.3-0.2h1.2l0.6,1l-0.3-0.2
					h-0.1h-0.1L35.3,92L35.7,90C35.8,90.1,35.8,90.1,35.7,90z M36.5,87.2l0.8-1.3h1.5l0.8,1.3l-0.8,1.3h-1.5L36.5,87.2z M35.8,84.3
					l-0.5-1.9l1.4,1.4h0.1h0.1l0.3-0.2l-0.6,1h-1.2L35.8,84.3C35.8,84.4,35.8,84.3,35.8,84.3z M36.9,82.3L34.6,80l-0.9-3.2l3.2,0.9
					l2.3,2.3l-0.9,1.5L36.9,82.3z M33.4,75.3l-0.2-0.7l0.7-0.1l1.3,1.3L33.4,75.3z M35.7,60.7l-0.3-0.2h1.2l0.6,1l-0.3-0.2h-0.1
					h-0.1l-1.4,1.4L35.7,60.7C35.8,60.8,35.8,60.7,35.7,60.7z M35.8,55l-0.5-1.9l1.4,1.4h0.1h0.1l0.3-0.2l-0.6,1h-1.2L35.8,55
					C35.8,55.1,35.8,55,35.8,55z M37.3,56.6h1.5l0.8,1.3l-0.8,1.3h-1.5l-0.8-1.3L37.3,56.6z M36.9,62.9l1.5,0.9l0.9,1.5L37,67.6
					l-3.2,0.9l0.8-3.3L36.9,62.9z M35.2,69.4l-1.3,1.3l-0.7-0.2l0.2-0.7L35.2,69.4z M34.3,73.1l-0.5-0.5l0.5-0.5l1.8,0.5L34.3,73.1z
					 M35.3,71.1l2.3-2.4l3.2-0.8l0.9,1.5v1.7l-3.2,0.8L35.3,71.1z M41.5,66.5C41.5,66.4,41.4,66.4,41.5,66.5L41.5,66.5l-2,0.4
					l1.3-1.4c0.1-0.1,0.1-0.1,0-0.2L40.6,65l1,0.6v1.2L41.5,66.5z M39.4,62.8l-1.3-2.3h1.4l0,0c0.1,0,0.1,0,0.1-0.1c0,0,0,0,0-0.1
					l0.7-1.2l1.4,2.4v2.7L39.4,62.8z M39.7,55.5C39.7,55.5,39.7,55.4,39.7,55.5c0-0.1-0.1-0.2-0.2-0.2l0,0l0,0h-1.4l1.3-2.3l2.3-1.3
					v2.7l-1.3,2.3L39.7,55.5z M35.8,56.6l-0.7,1.2l0,0c0,0,0,0,0,0.1V58l0,0l0.7,1.2h-2.7l-2.3-1.3l2.3-1.3H35.8z M31.1,60.5h1.7
					l1.5,0.9l-0.8,3.2L31.1,67l-0.9-3.2L31.1,60.5z M31.8,73.7C31.8,73.7,31.7,73.8,31.8,73.7c-0.1,0.1-0.1,0.2-0.1,0.2l0.3,1
					l-1-0.3l0,0c-0.1,0-0.1,0-0.2,0.1l-0.3,1L29.8,75h-0.1h-0.1l-0.7,0.7l-0.3-1c0,0,0-0.1-0.1-0.1h-0.1l0,0l-1,0.3l0.3-1v-0.1
					l-0.1-0.1l-1-0.3l0.7-0.7c0.1-0.1,0.1-0.2,0-0.2l-0.7-0.7l1-0.3c0,0,0.1,0,0.1-0.1v-0.1l-0.3-1l1,0.3l0,0c0.1,0,0.1,0,0.2-0.1
					l0.3-1l0.7,0.7h0.1h0.1l0.7-0.7l0.3,1c0,0,0,0.1,0.1,0.1H31l0,0l1-0.3l-0.3,1v0.1l0.1,0.1l1,0.3l-0.7,0.7
					c-0.1,0.1-0.1,0.2,0,0.2l0.7,0.7L31.8,73.7z M32.8,78.2l-1.3-1.3l0.2-0.7l0.7,0.2L32.8,78.2z M30.1,77.2L29.6,79l-0.5-1.8
					l0.5-0.5L30.1,77.2z M27.7,76.8l-1.3,1.3l0.5-1.8l0.7-0.2L27.7,76.8z M26.4,67l1.3,1.3L27.5,69l-0.7-0.2L26.4,67z M29.1,67.9
					l0.5-1.8l0.5,1.8l-0.5,0.5L29.1,67.9z M31.5,68.3l1.3-1.3l-0.5,1.8L31.6,69L31.5,68.3z M29.6,58.7l1,0.6h-0.4
					c-0.1,0-0.1,0-0.2,0.1l-0.5,1.9L29,59.4c0-0.1-0.1-0.1-0.2-0.1h-0.4L29.6,58.7z M29,63.7l-0.9,3.2l-2.4-2.4l-0.8-3.2l1.5-0.8
					h1.7L29,63.7z M23.5,84.4l0.3,0.2h-1.2l-0.6-1l0.3,0.2h0.1h0.1l1.4-1.4L23.5,84.4L23.5,84.4z M23.4,90.2l0.5,1.9l-1.4-1.4h-0.1
					h-0.1L22,90.9l0.6-1h1.2L23.4,90.2C23.5,90.1,23.4,90.1,23.4,90.2z M21.9,88.6h-1.5l-0.8-1.3l0.8-1.3h1.5l0.8,1.3L21.9,88.6z
					 M22.3,82.3l-1.5-0.9l-0.9-1.5l2.3-2.3l3.2-0.9l-0.9,3.2L22.3,82.3z M18.4,79.8l0.2,0.3l-1-0.6v-1.2l0.2,0.3l0.1,0.1l0,0
					l1.9-0.5l-1.4,1.4C18.4,79.7,18.4,79.7,18.4,79.8z M18.4,77.3l-0.9-1.5v-1.7l3.2-0.8l3.2,0.9l-2.3,2.3L18.4,77.3z M23.5,55.1
					l0.3,0.2h-1.2l-0.6-1l0.4,0.2h0.1h0.1l1.4-1.4L23.5,55.1C23.4,55,23.5,55.1,23.5,55.1z M22.7,57.9l-0.8,1.3h-1.5l-0.8-1.3
					l0.8-1.3h1.5L22.7,57.9z M23.4,60.9l0.5,1.9l-1.4-1.4h-0.1h-0.1L22,61.6l0.6-1.1h1.2l-0.3,0.2C23.5,60.7,23.4,60.8,23.4,60.9z
					 M25.4,70.7l-1.3-1.3l1.8,0.5l0.1,0.6L25.4,70.7z M25.5,72.6L25,73.1l-1.8-0.5l1.8-0.5L25.5,72.6z M22.2,67.6l-2.3-2.3l0.9-1.5
					l1.5-0.9l2.3,2.3l0.9,3.2L22.2,67.6z M19.7,60.5L19.7,60.5c0.1,0,0.1,0,0.2,0h1.4L20,62.8l-2.3,1.3v-2.7l1.3-2.3L19.7,60.5
					C19.6,60.4,19.6,60.4,19.7,60.5C19.6,60.5,19.6,60.5,19.7,60.5z M18.6,65l-0.2,0.3c0,0.1,0,0.1,0,0.2l1.4,1.4l-1.9-0.5l0,0
					c-0.1,0-0.1,0-0.1,0.1l-0.2,0.3v-1.2L18.6,65z M18.4,67.9l3.2,0.8l2.4,2.4L20.8,72l-3.2-0.8v-1.7L18.4,67.9z M24,75.8l1.4-1.3
					l0.7,0.2l-0.2,0.7L24,75.8z M26,59.3h-2.7l0.7-1.2l0,0c0,0,0,0,0-0.1v-0.1l0,0l-0.7-1.2H26l2.3,1.3L26,59.3z M22.3,53l-1.5-0.9
					l-0.9-1.5l2.3-2.3l3.2-0.9l-0.9,3.2L22.3,53z M18.4,50.4l0.2,0.3l-1-0.6v-1.2l0.2,0.3c0,0.1,0.1,0.1,0.1,0.1l0,0l1.9-0.5
					l-1.4,1.4C18.4,50.3,18.4,50.3,18.4,50.4z M19.9,53l1.3,2.3h-1.4l0,0l0,0c-0.1,0-0.1,0-0.1,0.1v0.1L19,56.7l-1.3-2.3v-2.7
					L19.9,53z M19.9,82.3l1.3,2.3h-1.4l0,0l0,0c-0.1,0-0.1,0-0.1,0.1v0.1L19,86l-1.3-2.3V81L19.9,82.3z M20.8,93.1l1.5-0.9l2.3,2.3
					l0.9,3.2l-3.2-0.9L20,94.5L20.8,93.1z M23.4,88.6l0.7-1.2l0,0c0,0,0,0,0-0.1v-0.1l0,0L23.4,86h2.7l2.3,1.3l-2.3,1.3L23.4,88.6z
					 M28.1,84.6h-1.7l-1.5-0.9l0.8-3.2l2.4-2.4l0.9,3.4L28.1,84.6z M30.3,81.5l0.9-3.2l2.4,2.4l0.8,3.2l-1.5,0.9h-1.7L30.3,81.5z
					 M33.2,85.9h2.7l-0.7,1.2l0,0l0,0v0.1l0,0l0.7,1.2h-2.7l-2.3-1.3L33.2,85.9z M36.9,92.2l1.5,0.9l0.9,1.5L37,96.9l-3.2,0.9
					l0.8-3.3L36.9,92.2z M40.3,86l-0.7-1.2v-0.1l-0.1-0.1l0,0l0,0h-1.4l1.3-2.3l2.3-1.3v2.7L40.3,86z M40.6,80.1l0.2-0.3
					c0-0.1,0-0.1,0-0.2l-1.4-1.4l1.9,0.5l0,0c0.1,0,0.1,0,0.1-0.1l0.2-0.3v1.2L40.6,80.1z M40.8,77.3l-3.2-0.8l-2.4-2.4l3.2-0.9
					l3.2,0.8v1.7L40.8,77.3z M41,72.6l1.9-0.5c0.1,0,0.1-0.1,0.1-0.2v-0.4l0.6,1l-0.6,1v-0.4c0-0.1,0-0.1-0.1-0.2L41,72.6z M49,40.4
					l0.3,0.2h-1.2l-0.6-1l0.3,0.2h0.1H48l1.4-1.4l-0.5,1.9C48.9,40.3,48.9,40.3,49,40.4z M48.2,43.2l-0.8,1.3h-1.5l-0.8-1.3l0.8-1.3
					h1.5L48.2,43.2z M48.9,46.1l0.5,1.9L48,46.6h-0.1h-0.1l-0.3,0.2l0.6-1h1.2L49,46C48.9,46,48.9,46.1,48.9,46.1z M47.8,48.1
					l2.3,2.3l0.9,3.2l-3.2-0.9l-2.3-2.3l0.9-1.5L47.8,48.1z M52.9,56.8c0.1,0,0.1-0.1,0.1-0.2l-0.3-1l1,0.3l0,0h0.1l0.1-0.1l0.3-1
					l0.8,0.7h0.1h0.1l0.7-0.7l0.3,1c0,0.1,0.1,0.1,0.2,0.1l0,0l1-0.3l-0.3,1c0,0.1,0,0.2,0.1,0.2l1,0.3l-0.7,0.7v0.1V58l0.7,0.7
					l-1,0.3c-0.1,0-0.1,0.1-0.1,0.2l0.3,1l-1-0.3l0,0h-0.1L56.2,60l-0.3,1l-0.7-0.7h-0.1H55l-0.7,0.8l-0.3-1c0,0,0-0.1-0.1-0.1h-0.1
					l0,0l-1,0.3l0.3-1c0-0.1,0-0.2-0.1-0.2l-1-0.3l0.7-0.7V58v-0.1l-0.8-0.7L52.9,56.8z M51.9,52.3l1.3,1.3L53,54.3l-0.7-0.2
					L51.9,52.3z M54.6,53.3l0.5-1.9l0.5,1.9l-0.5,0.5L54.6,53.3z M57,53.7l1.3-1.3l-0.5,1.8l-0.7,0.2L57,53.7z M61.2,46l-0.3-0.2
					h1.2l0.6,1l-0.3-0.2h-0.1h-0.1L60.8,48l0.5-1.9C61.3,46.1,61.2,46,61.2,46z M61.3,40.2l-0.5-1.9l1.4,1.4h0.1h0.1l0.3-0.2l-0.6,1
					h-1.2l0.3-0.1C61.2,40.3,61.3,40.3,61.3,40.2z M62.8,41.8h1.5l0.8,1.3l-0.8,1.3h-1.5L62,43.1L62.8,41.8z M62.4,48.1l1.5,0.9
					l0.9,1.5l-2.3,2.3l-3.2,0.9l0.9-3.2L62.4,48.1z M66.3,50.6l-0.2-0.3l1,0.6v1.2l-0.2-0.3c0-0.1-0.1-0.1-0.1-0.1l0,0l-1.9,0.5
					l1.4-1.4C66.3,50.7,66.3,50.7,66.3,50.6z M66.3,53.2l0.9,1.5v1.7L64,57.2l-3.2-0.9l2.4-2.4L66.3,53.2z M59.3,59.8l1.4,1.3
					l-1.8-0.5l-0.2-0.7L59.3,59.8z M59.2,57.9l0.5-0.5l1.8,0.5l-1.8,0.5L59.2,57.9z M62.5,62.9l2.3,2.3l-0.9,1.5l-1.5,0.9l-2.3-2.3
					l-0.9-3.2L62.5,62.9z M61.3,69.6l-0.5-1.9l1.4,1.4h0.1h0.1l0.3-0.2l-0.6,1h-1.2l0.3-0.2C61.2,69.8,61.3,69.7,61.3,69.6z
					 M61.3,71.3l-0.7,1.2l0,0c0,0,0,0,0,0.1v0.1l0,0l0.7,1.2h-2.7l-2.3-1.3l2.4-1.3H61.3z M61.2,75.4l-0.3-0.2h1.2l0.6,1L62.4,76
					h-0.1h-0.1l-1.4,1.4l0.5-1.9L61.2,75.4z M62.4,77.6l1.5,0.9l0.9,1.5l-2.3,2.3l-3.2,0.9l0.9-3.2L62.4,77.6z M62,72.6l0.8-1.3h1.5
					l0.8,1.3l-0.8,1.3h-1.5L62,72.6z M65,70h-1.4l1.3-2.3l2.3-1.3v2.7l-1.3,2.3l-0.7-1.2C65.1,70,65,70,65,70z M66.1,65.5l0.2-0.3
					c0-0.1,0-0.1,0-0.2l-1.4-1.4l1.9,0.5l0,0c0.1,0,0.1,0,0.1-0.1l0.2-0.3v1.2L66.1,65.5z M67.1,61.2l-0.9,1.5L63,61.9l-2.4-2.4
					l3.2-0.9l3.2,0.8L67.1,61.2z M60.7,54.7L59.4,56l-0.7-0.2l0.2-0.7L60.7,54.7z M59,66l0.8,3.2l-1.5,0.9h-1.7l-0.8-3.2l0.9-3.2
					L59,66z M55.1,75.9L54.6,74c0-0.1-0.1-0.1-0.2-0.1H54l1-0.6l1,0.6h-0.4c-0.1,0-0.1,0-0.2,0.1L55.1,75.9z M55.6,82.6l-0.5,0.5
					l-0.5-0.5l0.5-1.8L55.6,82.6z M55.1,71.9l-1-0.6h0.4c0.1,0,0.1,0,0.2-0.1l0.5-1.9l0.5,1.9c0,0.1,0.1,0.1,0.2,0.1l0,0h0.4
					L55.1,71.9z M54.6,62.6l0.5-0.5l0.5,0.5l-0.5,1.8L54.6,62.6z M57,62.2l0.2-0.7l0.7,0.2l0.4,1.8L57,62.2z M53.2,62.2l-1.3,1.3
					l0.5-1.8l0.6-0.2L53.2,62.2z M53.6,63.6l0.9,3.2L53.7,70H52l-1.5-0.9l0.8-3.2L53.6,63.6z M43.8,65.2l0.2,0.3l-1-0.6v-1.2
					l0.2,0.3c0,0.1,0.1,0.1,0.1,0.1l0,0l1.9-0.5L43.8,65C43.8,65,43.7,65.1,43.8,65.2z M45.3,67.7l1.4,2.3h-1.3h-0.1h-0.1
					c0,0,0,0-0.1,0.1c0,0,0,0,0,0.1l-0.7,1.2l-1.3-2.3v-2.7L45.3,67.7z M50.8,59.8l0.7,0.2l-0.2,0.7l-1.8,0.5L50.8,59.8z M48.6,57.9
					l1.8-0.5l0.5,0.5l-0.5,0.5L48.6,57.9z M50.9,62.1L50,65.3l-2.3,2.3l-1.5-0.9l-0.9-1.5l2.4-2.3L50.9,62.1z M49,69.8l0.3,0.2h-1.2
					l-0.6-1l0.3,0.2h0.1H48l1.4-1.4l-0.5,1.9C48.9,69.7,48.9,69.8,49,69.8z M48.9,75.6l0.5,1.9L48,76.1h-0.1h-0.1l-0.3,0.2l0.6-1
					h1.2L49,75.5C48.9,75.4,48.9,75.5,48.9,75.6z M47.4,73.9h-1.5l-0.8-1.3l0.8-1.3h1.5l0.8,1.3L47.4,73.9z M45,75
					C45,75.1,45.1,75.1,45,75c0,0.1,0.1,0.2,0.2,0.2l0,0l0,0h1.4l-1.3,2.3L43,78.8v-2.7l1.3-2.3L45,75z M46.3,78.4l1.5-0.9l2.3,2.3
					L51,83l-3.2-0.9l-2.3-2.3L46.3,78.4z M48.9,73.9l0.7-1.2l0,0l0,0v-0.1l0,0l-0.7-1.2h2.7l2.3,1.3L51.6,74L48.9,73.9z M50.8,56
					l-1.3-1.3l1.8,0.5l0.2,0.7L50.8,56z M47.1,54l2.4,2.4l-3.2,0.9l-3.2-0.8v-1.7l0.9-1.5L47.1,54z M49.4,59.4L47,61.8l-3.2,0.8
					l-0.9-1.5v-1.7l3.2-0.8L49.4,59.4z M44.1,79.7L43.9,80c0,0.1,0,0.1,0,0.2l1.4,1.4l-1.9-0.5l0,0c-0.1,0-0.1,0-0.1,0.1l-0.2,0.3
					v-1.2L44.1,79.7z M42.9,84l0.9-1.5l3.2,0.8l2.4,2.4l-3.2,0.9L43,85.8L42.9,84z M50.5,86.8l0.5,0.5l-0.5,0.5l-1.8-0.5L50.5,86.8z
					 M50.8,85.3L49.5,84l1.8,0.5l0.2,0.7L50.8,85.3z M51.2,79.2L50.4,76l1.5-0.9h1.7l0.8,3.2l-0.9,3.2L51.2,79.2z M53.2,83L53,83.7
					l-0.7-0.2l-0.5-1.8L53.2,83z M57,83l1.3-1.3l-0.5,1.8l-0.7,0.2L57,83z M56.6,81.6l-0.9-3.2l0.8-3.2h1.7l1.5,0.9l-0.8,3.2
					L56.6,81.6z M58.9,84.5l1.8-0.5l-1.3,1.3l-0.7-0.2L58.9,84.5z M61.5,87.2l-1.8,0.5l-0.5-0.5l0.5-0.4L61.5,87.2z M59.3,89.1
					l1.4,1.4L58.9,90l-0.2-0.7L59.3,89.1z M63.1,91.1l-2.4-2.4l3.2-0.9l3.2,0.8v1.7l-0.9,1.5L63.1,91.1z M60.8,85.7l2.4-2.4l3.1-0.8
					l0.9,1.5v1.7L64,86.5L60.8,85.7z M66.3,80l-0.2-0.3l1,0.6v1.2l-0.2-0.3c0-0.1-0.1-0.1-0.1-0.1l0,0l-1.9,0.5l1.4-1.4
					C66.3,80.2,66.3,80.1,66.3,80z M64.8,77.5l-1.3-2.3h1.4l0,0l0,0c0.1,0,0.1,0,0.1-0.1V75l0.7-1.2l1.3,2.3v2.7L64.8,77.5z
					 M67.1,73.2v0.4l-0.6-1l0.6-1V72c0,0.1,0,0.1,0.1,0.2l1.9,0.5L67.1,73.2C67.2,73.1,67.1,73.2,67.1,73.2z M69.3,50.4l0.2,0.3
					l-1-0.6v-1.2l0.2,0.3c0,0.1,0.1,0.1,0.1,0.1l0,0l1.9-0.5l-1.4,1.4C69.2,50.3,69.2,50.3,69.3,50.4z M70.7,53l1.3,2.3h-1.4l0,0
					l0,0c-0.1,0-0.1,0-0.1,0.1v0.1l-0.7,1.2l-1.3-2.3v-2.7L70.7,53z M76.3,47.3l-0.9,3.2l-2.3,2.3l-1.5-0.9l-0.9-1.5l2.3-2.3
					L76.3,47.3z M74.9,46.4l1.3-1.3l0.7,0.2L76.7,46L74.9,46.4z M80.5,54.6l0.5,1.9c0,0.1,0.1,0.1,0.2,0.1l0,0h0.4l-1,0.6l-1-0.6H80
					c0.1,0,0.1,0,0.2-0.1L80.5,54.6z M80,47.8l0.5-0.5l0.5,0.5l-0.5,1.8L80,47.8z M87.8,48.2l2.3,2.3L89.2,52l-1.5,0.9l-2.3-2.3
					l-0.9-3.2L87.8,48.2z M84.2,45.9L84,45.2l0.7-0.1l1.3,1.3L84.2,45.9z M86.6,90l-0.3-0.2h1.2l0.6,1l-0.3-0.2h-0.1h-0.1L86.2,92
					l0.5-1.9C86.7,90.1,86.6,90.1,86.6,90z M87.4,87.2l0.8-1.3h1.5l0.8,1.3l-0.8,1.3h-1.5L87.4,87.2z M86.6,84.3l-0.5-1.9l1.4,1.4
					h0.1h0.1l0.3-0.2l-0.6,1h-1.2l0.4-0.1C86.6,84.4,86.7,84.3,86.6,84.3z M87.8,82.3L85.5,80l-0.9-3.2l3.2,0.9l2.3,2.3l-0.9,1.5
					L87.8,82.3z M84.2,75.3L84,74.6l0.7-0.1l1.3,1.3L84.2,75.3z M86.6,60.7l-0.3-0.2h1.2l0.6,1l-0.3-0.2h-0.1h-0.1l-1.4,1.4l0.5-1.9
					C86.7,60.8,86.6,60.7,86.6,60.7z M86.6,55l-0.5-1.9l1.4,1.4h0.1h0.1l0.3-0.2l-0.6,1h-1.2L86.6,55C86.6,55.1,86.7,55,86.6,55z
					 M88.1,56.6h1.5l0.8,1.3l-0.8,1.3h-1.5l-0.8-1.3L88.1,56.6z M87.8,62.9l1.5,0.9l0.9,1.5l-2.3,2.3l-3.2,0.9l0.9-3.2L87.8,62.9z
					 M86,69.4l-1.3,1.3L84,70.5l0.2-0.7L86,69.4z M85.1,73.1l-0.5-0.5l0.5-0.5l1.8,0.5L85.1,73.1z M86.1,71.1l2.4-2.4l3.2-0.8
					l0.9,1.5v1.7l-3.2,0.8L86.1,71.1z M92.3,66.5C92.3,66.4,92.2,66.4,92.3,66.5L92.3,66.5l-2,0.4l1.4-1.4c0,0,0-0.1,0-0.2L91.5,65
					l1,0.6v1.2L92.3,66.5z M90.2,62.8l-1.3-2.3h1.4c0,0,0,0,0.1,0l0,0c0,0,0.1,0,0.1-0.1c0,0,0,0,0-0.1l0.7-1.2l1.3,2.4v2.7
					L90.2,62.8z M91.2,56.7l-0.7-1.2v-0.1l-0.1-0.1c0,0,0,0-0.1,0l0,0h-1.4l1.3-2.3l2.3-1.3v2.7L91.2,56.7z M86.7,56.6L86,57.8l0,0
					c0,0,0,0,0,0.1V58l0,0l0.7,1.3H84L81.7,58l2.3-1.3L86.7,56.6z M82,60.5h1.7l1.5,0.9l-0.8,3.2L82,67l-0.9-3.2L82,60.5z
					 M82.7,73.7C82.6,73.7,82.6,73.8,82.7,73.7c-0.1,0.1-0.1,0.2-0.1,0.2l0.3,1l-1-0.3l0,0h-0.1l-0.1,0.1l-0.3,1L80.7,75h-0.1h-0.1
					l-0.7,0.7l-0.3-1c0,0,0-0.1-0.1-0.1h-0.1l0,0l-1,0.3l0.3-1v-0.1l-0.1-0.1l-1-0.3l0.8-0.8v-0.1v-0.1l-0.7-0.7l1-0.3
					c0,0,0.1,0,0.1-0.1v-0.1l-0.3-1l1,0.3l0,0h0.1l0.1-0.1l0.3-1l0.7,0.7h0.1h0.1l0.7-0.7l0.3,1c0,0,0,0.1,0.1,0.1H82l0,0l1-0.3
					l-0.3,1v0.1l0.1,0.1l1,0.3l-0.7,0.7v0.1v0.1l0.6,0.8L82.7,73.7z M83.7,78.2l-1.3-1.3l0.2-0.7l0.7,0.2L83.7,78.2z M81,77.2
					L80.5,79L80,77.2l0.5-0.5L81,77.2z M78.6,76.8l-1.3,1.3l0.4-1.7l0.7-0.2L78.6,76.8z M77.2,67l1.3,1.3L78.3,69l-0.7-0.2L77.2,67z
					 M80,67.9l0.5-1.8l0.5,1.8l-0.5,0.5L80,67.9z M82.4,68.3l1.3-1.3l-0.5,1.8L82.5,69L82.4,68.3z M80.5,58.7l1,0.6h-0.4
					c-0.1,0-0.1,0-0.2,0.1l-0.5,1.9l-0.5-1.9c0-0.1-0.1-0.1-0.2-0.1h-0.4L80.5,58.7z M79.8,63.7l-0.9,3.2l-2.4-2.4l-0.8-3.2l1.5-0.8
					h1.7L79.8,63.7z M74.4,84.5l0.3,0.1h-1.2l-0.6-1l0.3,0.2h0.1h0.1l1.4-1.4l-0.5,1.9C74.3,84.3,74.3,84.4,74.4,84.5z M74.3,90.2
					l0.5,1.9l-1.4-1.4h-0.1h-0.1l-0.3,0.2l0.6-1h1.2L74.3,90.2C74.3,90.1,74.3,90.1,74.3,90.2z M72.8,88.6h-1.5l-0.8-1.3l0.8-1.3
					h1.5l0.8,1.3L72.8,88.6z M73.1,82.3l-1.5-0.9l-0.9-1.5l2.3-2.3l3.2-0.9l-0.9,3.2L73.1,82.3z M69.3,79.8l0.2,0.3l-1-0.6v-1.2
					l0.2,0.3c0,0.1,0.1,0.1,0.1,0.1l0,0l1.9-0.5l-1.4,1.4C69.2,79.7,69.2,79.8,69.3,79.8z M69.3,77.3l-0.9-1.5v-1.7l3.2-0.8l3.2,0.9
					l-2.4,2.4L69.3,77.3z M74.4,55.1l0.3,0.2h-1.2l-0.6-1l0.3,0.2h0.1h0.1l1.4-1.4L74.3,55C74.3,55,74.3,55.1,74.4,55.1z M73.5,57.9
					l-0.8,1.3h-1.5l-0.8-1.3l0.8-1.3h1.5L73.5,57.9z M74.3,60.9l0.5,1.9l-1.4-1.4h-0.1h-0.1l-0.3,0.2l0.6-1l1.2-0.1l-0.3,0.2
					C74.3,60.7,74.3,60.8,74.3,60.9z M73.1,62.9l2.3,2.3l0.9,3.2l-3.2-0.9l-2.3-2.3l0.9-1.5L73.1,62.9z M76.2,70.7l-1.3-1.3l1.8,0.4
					l0.2,0.7L76.2,70.7z M76.3,72.6l-0.5,0.5L74,72.6l1.8-0.5L76.3,72.6z M72.4,68.7l2.4,2.4L71.6,72l-3.2-0.8v-1.7l0.9-1.5
					L72.4,68.7z M74.9,75.8l1.3-1.3l0.7,0.2l-0.2,0.7L74.9,75.8z M76.9,59.3h-2.7l0.7-1.2l0,0c0,0,0,0,0-0.1v-0.1l0,0l-0.7-1.2h2.7
					l2.3,1.3L76.9,59.3z M69.7,59.2l0.7,1.2c0,0,0,0,0,0.1c0,0,0,0.1,0.1,0.1h0.1c0,0,0,0,0.1,0h1.4l-1.3,2.3l-2.3,1.3v-2.7
					L69.7,59.2z M69.4,65l-0.2,0.3c0,0.1,0,0.1,0,0.2l1.4,1.4l-1.9-0.5l0,0c-0.1,0-0.1,0-0.1,0.1l-0.2,0.3v-1.2L69.4,65z M70.7,82.3
					l1.3,2.3h-1.4l0,0l0,0c-0.1,0-0.1,0-0.1,0.1v0.1L69.8,86l-1.3-2.3V81L70.7,82.3z M74.2,88.6l0.7-1.2l0,0l0,0v-0.1l0,0l-0.7-1.2
					h2.7l2.3,1.3l-2.3,1.3L74.2,88.6z M79,84.6h-1.7l-1.5-0.9l0.8-3.2l2.4-2.4l0.8,3.4L79,84.6z M81.1,81.5l0.9-3.2l2.4,2.4l0.8,3.2
					l-1.5,0.9H82L81.1,81.5z M84,85.9h2.7L86,87.1l0,0c0,0,0,0,0,0.1v0.1l0,0l0.7,1.3H84l-2.3-1.3L84,85.9z M91.2,86l-0.7-1.2v-0.1
					l-0.1-0.1c0,0,0,0-0.1,0l0,0h-1.4l1.3-2.3l2.3-1.3v2.7L91.2,86z M91.5,80.1l0.2-0.3c0-0.1,0-0.1,0-0.2l-1.4-1.4l1.9,0.5l0,0
					c0.1,0,0.1,0,0.1-0.1l0.2-0.3v1.2L91.5,80.1z M91.7,77.3l-3.2-0.8l-2.4-2.4l3.2-0.9l3.2,0.8v1.7L91.7,77.3z M91.8,72.6l1.9-0.5
					c0.1,0,0.1-0.1,0.1-0.2v-0.4l0.6,1l-0.6,1v-0.4c0-0.1,0-0.1-0.1-0.2L91.8,72.6z M99.7,40.4l0.3,0.2h-1.2l-0.6-1l0.3,0.2h0.1h0.1
					l1.4-1.4l-0.4,1.8C99.7,40.3,99.7,40.3,99.7,40.4z M98.9,43.2l-0.8,1.3h-1.5l-0.8-1.3l0.8-1.3h1.5L98.9,43.2z M99.7,46.1
					l0.5,1.9l-1.4-1.4h-0.1h-0.1l-0.3,0.2l0.6-1h1.2L99.7,46V46.1z M98.5,48.1l2.3,2.3l0.9,3.3l-3.2-0.9l-2.3-2.3l0.9-1.5L98.5,48.1
					z M102.1,55.2l0.2,0.7l-0.7,0.2l-1.3-1.3L102.1,55.2z M103.4,57.8l-0.7-0.7l1-0.3c0,0,0.1,0,0.1-0.1v-0.1l-0.3-1l1,0.3l0,0h0.1
					l0.1-0.1l0.3-1l0.7,0.7h0.1h0.1l0.8-0.8l0.3,1c0,0.1,0.1,0.1,0.2,0.1l0,0l1-0.3l-0.3,1c0,0.1,0,0.2,0.1,0.2l1,0.3l-0.7,0.7v0.1
					v0.1l0.7,0.7l-1,0.3c-0.1,0-0.1,0.1-0.1,0.2l0.3,1l-1-0.3l0,0h-0.1l-0.1,0.1l-0.3,1l-0.8-0.8h-0.1h-0.1l-0.7,0.7l-0.3-1
					c0-0.1-0.1-0.1-0.2-0.1l0,0l-1,0.3l0.3-1v-0.1l-0.1-0.1l-1-0.3L103.4,57.8l0.1-0.2L103.4,57.8z M102.6,52.3l1.3,1.3l-0.2,0.7
					l-0.7-0.2L102.6,52.3z M105.4,53.3l0.4-1.9l0.5,1.8l-0.5,0.5L105.4,53.3z M107.7,53.7l1.3-1.3l-0.5,1.8l-0.7,0.2L107.7,53.7z
					 M111.9,46l-0.3-0.2h1.2l0.6,1l-0.3-0.2H113h-0.1l-1.4,1.4l0.5-1.9C112,46.1,112,46,111.9,46z M112,40.2l-0.5-1.9l1.4,1.4h0.1
					h0.1l0.3-0.2l-0.6,1h-1.2l0.3-0.2C112,40.3,112,40.3,112,40.2z M113.5,41.8h1.5l0.8,1.3l-0.8,1.3h-1.5l-0.8-1.3L113.5,41.8z
					 M113.2,48.1l1.5,0.9l0.9,1.5l-2.3,2.3l-3.2,0.9l0.9-3.2L113.2,48.1z M111.4,54.7l-1.3,1.3l-0.7-0.2l0.2-0.7L111.4,54.7z
					 M110.1,85.3l-0.7-0.2l0.2-0.6l1.8-0.5L110.1,85.3z M112.3,87.2l-1.8,0.5l-0.5-0.5l0.5-0.5L112.3,87.2z M110,83.1l0.9-3.2
					l2.3-2.3l1.5,0.9l0.9,1.5l-2.3,2.3L110,83.1z M112,69.6l-0.5-1.9l1.4,1.4h0.1h0.1l0.3-0.2l-0.6,1h-1.2L112,69.6
					C112,69.8,112,69.7,112,69.6z M112.1,71.2l-0.7,1.2l0,0l0,0v0.1l0,0l0.7,1.2h-2.7l-2.3-1.3l2.3-1.3L112.1,71.2z M111.9,75.4
					l-0.3-0.2h1.2l0.6,1l-0.3-0.2H113h-0.1l-1.4,1.4L111.9,75.4C112,75.5,112,75.4,111.9,75.4z M112.8,72.6l0.8-1.3h1.5l0.8,1.3
					l-0.8,1.3h-1.5L112.8,72.6z M113.2,67.6l-2.3-2.3l-0.9-3.2l3.2,0.9l2.3,2.3l-0.9,1.5L113.2,67.6z M109.6,60.7l-0.2-0.7l0.7-0.2
					l1.3,1.3L109.6,60.7z M110.5,58.4l-0.5-0.5l0.5-0.5l1.8,0.5L110.5,58.4z M109.7,66l0.8,3.2l-1.5,0.9h-1.7l-0.8-3.2l0.9-3.2
					L109.7,66z M105.8,75.9l-0.5-1.9c0-0.1-0.1-0.1-0.2-0.1h-0.4l1-0.6l1,0.6h-0.4c-0.1,0-0.1,0-0.2,0.1L105.8,75.9z M106.3,82.6
					l-0.5,0.5l-0.5-0.5l0.5-1.8L106.3,82.6z M105.9,71.9l-1-0.6h0.4c0.1,0,0.1,0,0.2-0.1l0.5-1.9l0.5,1.9c0,0.1,0.1,0.1,0.2,0.1l0,0
					h0.4L105.9,71.9z M105.4,62.6l0.5-0.5l0.5,0.5l-0.5,1.8L105.4,62.6z M107.7,62.2l0.2-0.7l0.7,0.2l0.5,1.8L107.7,62.2z M104,62.2
					l-1.3,1.3l0.5-1.8l0.6-0.2L104,62.2z M104.3,63.6l0.9,3.2l-0.8,3.2h-1.7l-1.5-0.9l0.8-3.2L104.3,63.6z M94.7,80.2l1.4,1.4
					l-1.9-0.5l0,0c-0.1,0-0.1,0-0.1,0.1l-0.3,0.3v-1.2l1-0.6L94.6,80C94.6,80.1,94.6,80.2,94.7,80.2z M93.8,78.8v-2.7l1.3-2.3
					l0.7,1.2v0.1l0.1,0.1c0,0,0,0,0.1,0l0,0h1.4l-1.3,2.3L93.8,78.8z M94.6,65.2l0.2,0.3l-1-0.6v-1.2L94,64c0,0.1,0.1,0.1,0.1,0.1
					l0,0l1.9-0.5L94.7,65C94.6,65,94.6,65.1,94.6,65.2z M96.1,67.7l1.3,2.3H96c0,0,0,0-0.1,0l0,0c-0.1,0-0.1,0-0.1,0.1
					c0,0,0,0,0,0.1l-0.7,1.2l-1.3-2.3v-2.7L96.1,67.7z M101.7,62.1l-0.9,3.2l-2.3,2.3L97,66.7l-0.9-1.5l2.3-2.3L101.7,62.1z
					 M100.3,61.1l1.3-1.3l0.7,0.2l-0.2,0.7L100.3,61.1z M99.7,69.8L100,70h-1.2l-0.6-1l0.3,0.2h0.1h0.1l1.4-1.4l-0.4,1.8
					C99.7,69.7,99.7,69.8,99.7,69.8z M99.7,75.6l0.5,1.9l-1.4-1.4h-0.1h-0.1l-0.3,0.2l0.6-1h1.2l-0.4,0.1
					C99.7,75.4,99.7,75.5,99.7,75.6z M98.2,73.9h-1.5l-0.8-1.3l0.8-1.3h1.5l0.8,1.3L98.2,73.9z M97,78.4l1.5-0.9l2.3,2.3l0.9,3.3
					l-3.2-0.9l-2.3-2.3L97,78.4z M99.6,73.9l0.7-1.2l0,0c0,0,0,0,0-0.1v-0.1l0,0l-0.7-1.2h2.7l2.3,1.3l-2.3,1.3H99.6z M101.2,57.4
					l0.5,0.5l-0.5,0.5l-1.8-0.5L101.2,57.4z M100.2,59.4l-2.4,2.4l-3.2,0.8l-0.9-1.5v-1.7l3.2-0.8L100.2,59.4z M93.8,84l0.8-1.5
					l3.2,0.8l2.4,2.4L97,86.6l-3.2-0.8V84z M101.2,86.8l0.5,0.4l-0.5,0.5l-1.8-0.5L101.2,86.8z M101.6,85.3l-1.3-1.3l1.8,0.5
					l0.2,0.7L101.6,85.3z M102,79.2l-0.8-3.2l1.5-0.9h1.7l0.8,3.2l-0.9,3.2L102,79.2z M103.9,83l-0.2,0.7l-0.7-0.2l-0.5-1.8
					L103.9,83z M107.7,83l1.3-1.3l-0.5,1.8l-0.7,0.2L107.7,83z M107.4,81.6l-0.9-3.2l0.8-3.2h1.7l1.5,0.9l-0.8,3.2L107.4,81.6z
					 M110.1,89.1l1.3,1.4l-1.8-0.5l-0.2-0.7L110.1,89.1z M113.9,91.1l-2.4-2.4l3.2-0.9l3.2,0.8v1.7l-0.9,1.5L113.9,91.1z
					 M111.5,85.7l2.4-2.4l3.2-0.8L118,84v1.7l-3.2,0.8L111.5,85.7z M117.1,80l-0.2-0.3l1,0.6v1.2l-0.2-0.3c0-0.1-0.1-0.1-0.1-0.1
					l0,0l-1.9,0.5l1.4-1.4C117.1,80.2,117.1,80.1,117.1,80z M115.6,77.5l-1.3-2.3h1.4l0,0l0,0c0.1,0,0.1,0,0.1-0.1V75l0.7-1.2
					l1.3,2.3v2.7L115.6,77.5z M116.6,71.3l-0.7-1.2c0,0,0,0,0-0.1c0,0,0-0.1-0.1-0.1h-0.1c0,0,0,0-0.1,0h-1.4l1.3-2.3l2.3-1.3V69
					L116.6,71.3z M116.9,65.5l0.2-0.3c0-0.1,0-0.1,0-0.2l-1.4-1.4l1.9,0.5l0,0c0.1,0,0.1,0,0.1-0.1l0.2-0.3v1.2L116.9,65.5z
					 M117.9,61.2l-0.9,1.5l-3.2-0.8l-2.4-2.4l3.2-0.9l3.2,0.8L117.9,61.2z M111.5,56.4l2.4-2.4l3.2-0.8l0.9,1.5v1.7l-3.2,0.8
					L111.5,56.4z M117.1,50.6l-0.2-0.3l1,0.6v1.2l-0.2-0.3c0-0.1-0.1-0.1-0.1-0.1l0,0l-1.9,0.5l1.4-1.4
					C117.1,50.7,117.1,50.7,117.1,50.6z M115.6,48.1l-1.3-2.3h1.4l0,0l0,0c0.1,0,0.1,0,0.1-0.1v-0.1l0.7-1.2l1.3,2.3v2.7L115.6,48.1
					z M116.6,41.9l-0.7-1.2c0,0,0,0,0-0.1c0,0,0-0.1-0.1-0.1h-0.1c0,0,0,0-0.1,0h-1.4l1.3-2.3l2.3-1.3v2.7L116.6,41.9z M112.1,41.8
					l-0.7,1.2l0,0c0,0,0,0,0,0.1v0.1l0,0l0.7,1.2h-2.7l-2.3-1.3l2.3-1.3L112.1,41.8z M107.3,45.8h1.7l1.5,0.9l-0.8,3.2l-2.4,2.4
					l-0.9-3.2L107.3,45.8z M105.8,43.9l1,0.6h-0.4c-0.1,0-0.1,0-0.2,0.1l-0.5,1.9l-0.5-1.9c0-0.1-0.1-0.1-0.2-0.1h-0.4L105.8,43.9z
					 M105.2,48.9l-0.9,3.2l-2.4-2.4l-0.8-3.2l1.5-0.9h1.7L105.2,48.9z M102.3,44.5h-2.7l0.7-1.2l0,0c0,0,0,0,0-0.1v-0.1l0,0
					l-0.7-1.2h2.7l2.3,1.3L102.3,44.5z M95.1,44.4l0.7,1.2v0.1l0.1,0.1c0,0,0,0,0.1,0l0,0h1.4l-1.3,2.3l-2.3,1.3v-2.7L95.1,44.4z
					 M94.8,50.3l-0.2,0.3c0,0.1,0,0.1,0,0.2l1.4,1.4l-1.9-0.5l0,0c-0.1,0-0.1,0-0.1,0.1l-0.2,0.3v-1.2L94.8,50.3z M93.8,54.7
					l0.9-1.5l3.2,0.8l2.4,2.4l-3.2,0.9l-3.2-0.8L93.8,54.7z M94.5,57.9l-1.9,0.5c-0.1,0-0.1,0.1-0.1,0.2V59l-0.6-1l0.6-1v0.4
					c0,0.1,0,0.1,0.1,0.2L94.5,57.9z M91.5,50.7l0.2-0.3c0-0.1,0-0.1,0-0.2l-1.4-1.4l1.9,0.5l0,0c0.1,0,0.1,0,0.1-0.1l0.2-0.3v1.2
					L91.5,50.7z M92.5,46.4l-0.9,1.5l-3.2-0.8L86,44.7l3.2-0.9l3.2,0.8L92.5,46.4z M85.1,43.7l-0.5-0.5l0.5-0.5l1.8,0.5L85.1,43.7z
					 M84.3,51.2l0.9,3.2l-1.5,0.9H82l-0.8-3.2l0.9-3.2L84.3,51.2z M82.4,47.4l0.2-0.7l0.7,0.2l0.4,1.8L82.4,47.4z M78.6,47.4
					l-1.3,1.3l0.4-1.8l0.7-0.2L78.6,47.4z M78.9,48.8l0.9,3.2L79,55.2h-1.7l-1.6-0.8l0.8-3.2L78.9,48.8z M75.8,42.7l0.5,0.5
					l-0.5,0.5L74,43.2L75.8,42.7z M74.8,44.7l-2.4,2.4l-3.2,0.8l-0.9-1.5v-1.7l3.2-0.8L74.8,44.7z M68.4,57.3v-0.4l0.6,1l-0.6,1
					v-0.4c0-0.1,0-0.1-0.1-0.2l-1.9-0.5L68.4,57.3C68.4,57.4,68.4,57.3,68.4,57.3z M64.8,48.1l-1.3-2.3h1.4l0,0l0,0
					c0.1,0,0.1,0,0.1-0.1v-0.1l0.8-1.2l1.3,2.3v2.7L64.8,48.1z M65.8,41.9l-0.7-1.2c0,0,0,0,0-0.1c0,0,0-0.1-0.1-0.1h-0.1
					c0,0,0,0-0.1,0h-1.4l1.3-2.3l2.3-1.3v2.7L65.8,41.9z M61.3,41.8L60.6,43l0,0l0,0v0.1l0,0l0.7,1.2h-2.6L56.4,43l2.3-1.2
					C58.7,41.8,61.3,41.8,61.3,41.8z M56.6,45.8h1.7l1.5,0.9L59,49.9l-2.4,2.5l-0.9-3.2L56.6,45.8z M55.1,43.9l1,0.6h-0.4
					c-0.1,0-0.1,0-0.2,0.1L55,46.5l-0.5-1.9c0-0.1-0.1-0.1-0.2-0.1h-0.4L55.1,43.9z M54.4,48.9l-0.9,3.2l-2.4-2.4l-0.8-3.2l1.5-0.9
					h1.7L54.4,48.9z M51.5,44.5h-2.7l0.7-1.2l0,0c0,0,0,0,0-0.1v-0.1l0,0l-0.7-1.2h2.7l2.3,1.3L51.5,44.5z M47.8,38.2l-1.5-0.9
					l-0.9-1.5l2.3-2.3l3.2-0.9L50,35.8L47.8,38.2z M44.4,44.4l0.7,1.2v0.1l0.1,0.1l0,0l0,0h1.4l-1.3,2.3L43,49.4v-2.7L44.4,44.4z
					 M44.1,50.3l-0.2,0.3c0,0.1,0,0.1,0,0.2l1.4,1.4l-1.9-0.5l0,0c-0.1,0-0.1,0-0.1,0.1l-0.2,0.3v-1.2L44.1,50.3z M43.6,57.9
					l-1.9,0.5c-0.1,0-0.1,0.1-0.1,0.2V59L41,58l0.6-1v0.4c0,0.1,0,0.1,0.1,0.2L43.6,57.9z M40.6,50.7l0.2-0.3c0-0.1,0-0.1,0-0.2
					l-1.4-1.4l1.9,0.5l0,0c0.1,0,0.1,0,0.1-0.1l0.2-0.3v1.2L40.6,50.7z M41.7,46.4l-0.9,1.5l-3.2-0.8l-2.4-2.4l3.2-0.9l3.2,0.8
					L41.7,46.4z M34.3,43.6l-0.5-0.5l0.5-0.5l1.8,0.5L34.3,43.6z M33.5,51.2l0.8,3.2l-1.5,0.9h-1.7l-0.8-3.2l0.9-3.2L33.5,51.2z
					 M31.5,47.4l0.2-0.7l0.7,0.2l0.5,1.8L31.5,47.4z M31.5,38.9l1.3-1.3l-0.5,1.8l-0.7,0.2L31.5,38.9z M27.7,47.4l-1.3,1.3l0.5-1.8
					l0.7-0.2L27.7,47.4z M28.1,48.8L29,52l-0.8,3.2h-1.7L25,54.3l0.8-3.2L28.1,48.8z M25.9,45.9l-1.8,0.5l1.3-1.3l0.7,0.2L25.9,45.9
					z M25.4,41.3L24.1,40l1.7,0.4l0.2,0.7L25.4,41.3z M22.2,38.2l-2.3-2.3l0.9-1.5l1.5-0.9l2.3,2.3l0.9,3.2L22.2,38.2z M19.6,31
					L19.6,31C19.6,31.1,19.7,31.1,19.6,31l0.2,0.1c0,0,0,0,0.1,0h1.4L20,33.4l-2.3,1.3V32l1.3-2.3L19.6,31z M18.6,35.6l-0.2,0.3
					c0,0.1,0,0.1,0,0.2l1.4,1.4L17.9,37l0,0c-0.1,0-0.1,0-0.1,0.1l-0.2,0.3v-1.2L18.6,35.6z M18.4,38.4l3.2,0.9l2.4,2.4l-3.2,0.9
					l-3.2-0.8v-1.7L18.4,38.4z M18.3,43.2l-1.9,0.5c-0.1,0-0.1,0.1-0.1,0.2v0.4l-0.6-1l0.6-1v0.4c0,0.1,0,0.1,0.1,0.2L18.3,43.2z
					 M15.3,36.1l0.2-0.3c0-0.1,0-0.1,0-0.2l-1.4-1.4l1.9,0.5l0,0c0.1,0,0.1,0,0.1-0.1l0.2-0.3v1.2L15.3,36.1z M11.6,33.5l2.3,2.3
					L13,37.3l-1.5,0.9l-2.3-2.3l-0.9-3.2L11.6,33.5z M11.9,41.8h1.5l0.8,1.3l-0.8,1.3h-1.5l-0.8-1.3L11.9,41.8z M11.6,48.1l1.5,0.9
					l0.9,1.5l-2.3,2.3l-3.2,0.9l0.9-3.2L11.6,48.1z M9.8,54.7L8.5,56l-0.7-0.2L8,55.1L9.8,54.7z M8.9,57.4l1.8,0.5l-1.8,0.5
					l-0.5-0.5L8.9,57.4z M13.1,58.6l3.2,0.8v1.7l-0.9,1.5l-3.2-0.8l-2.4-2.4L13.1,58.6z M11.6,62.9l2.3,2.3L13,66.7l-1.5,0.9
					l-2.3-2.3l-0.9-3.2L11.6,62.9z M11.9,71.3h1.5l0.8,1.3l-0.8,1.3h-1.5l-0.8-1.3L11.9,71.3z M11.6,77.5l1.5,0.9l0.9,1.5l-2.3,2.3
					l-3.2,0.9l0.9-3.2L11.6,77.5z M12.3,83.4l3.1-0.9l0.9,1.5v1.7l-3.2,0.8l-3.2-0.9L12.3,83.4z M16.3,88.7v1.7l-0.9,1.5l-3.2-0.8
					l-2.4-2.4l3.2-0.9L16.3,88.7z M10.7,87.2l-1.8,0.5l-0.5-0.5l0.5-0.5L10.7,87.2z M8.5,89.1l1.3,1.4L8,90l-0.2-0.7L8.5,89.1z
					 M11.6,92.3l2.3,2.3L13,96.1L11.5,97l-2.3-2.3l-0.9-3.2L11.6,92.3z M14.1,99.3h-1.4L14,97l2.3-1.3v2.7l-1.3,2.3l-0.7-1.2
					C14.2,99.3,14.2,99.3,14.1,99.3z M15.3,94.8l0.2-0.3c0-0.1,0-0.1,0-0.2l-1.4-1.4l1.9,0.5l0,0c0.1,0,0.1,0,0.1-0.1l0.2-0.3v1.2
					L15.3,94.8z M15.6,87.2l1.9-0.5c0.1,0,0.1-0.1,0.1-0.2v-0.4l0.6,1l-0.6,1v-0.4c0-0.1,0-0.1-0.1-0.2L15.6,87.2z M17.6,98.7
					l0.9-1.5l3.1,0.8l2.4,2.4l-3.2,0.9l-3.2-0.8L17.6,98.7z M25,101.4l0.5,0.5l-0.5,0.5l-1.8-0.5L25,101.4z M24,105.1l1.3-1.3
					L26,104l-0.2,0.7L24,105.1z M25.4,100l-1.3-1.3l1.8,0.5l0.2,0.7L25.4,100z M25.7,93.9l-0.8-3.2l1.5-0.9h1.7l0.8,3.2L28,96.2
					L25.7,93.9z M27.7,97.6l-0.2,0.7l-0.7-0.2l-0.5-1.8L27.7,97.6z M31.5,97.6l1.3-1.3l-0.5,1.8l-0.7,0.2L31.5,97.6z M31.1,96.2
					L30.2,93l0.8-3.2h1.7l1.5,0.9l-0.8,3.2L31.1,96.2z M33.4,99.2l1.8-0.5l-1.3,1.3l-0.7-0.2L33.4,99.2z M34.3,102.4l-0.5-0.5
					l0.5-0.5l1.8,0.5L34.3,102.4z M35.3,100.4l2.3-2.4l3.2-0.8l0.9,1.5v1.7l-3.2,0.8L35.3,100.4z M41.7,87.9v0.4l-0.6-1l0.6-1v0.4
					c0,0.1,0,0.1,0.1,0.2l1.8,0.3l-1.9,0.5C41.7,87.8,41.7,87.8,41.7,87.9z M46.2,87.9l3.2,0.9L47,91.2L43.8,92l-0.9-1.5v-1.7
					L46.2,87.9z M43.1,93.3C43.1,93.4,43.2,93.4,43.1,93.3L43.1,93.3l2-0.4l-1.4,1.4c-0.1,0.1-0.1,0.1,0,0.2l0.2,0.3l-1-0.6V93
					L43.1,93.3z M45.3,97l1.4,2.3h-1.4c0,0,0,0-0.1,0h-0.1v0.1l-0.7,1.2l-1.3-2.3v-2.7L45.3,97z M45,104.3
					C45,104.4,45.1,104.4,45,104.3c0,0.1,0.1,0.2,0.2,0.2l0,0l0,0h1.5l-1.3,2.3l-2.3,1.3v-2.7l1.3-2.3L45,104.3z M46.3,107.7
					l1.5-0.9l2.3,2.3l0.9,3.2l-3.3-0.8l-2.3-2.3L46.3,107.7z M48.9,103.2l0.7-1.2l0,0c0,0,0,0,0-0.1v-0.1l0,0l-0.7-1.2h2.7l2.3,1.3
					l-2.3,1.3H48.9z M53.6,99.3h-1.7l-1.5-0.9l0.8-3.2l2.4-2.4l0.9,3.2L53.6,99.3z M54.4,100.6c0.1,0,0.1,0,0.2-0.1l0.5-1.9l0.5,1.9
					c0,0.1,0.1,0.1,0.2,0.1l0,0h0.4l-1,0.6l-1-0.6H54.4z M55.7,96.1l0.9-3.2l2.4,2.4l0.8,3.2l-1.5,0.9h-1.7L55.7,96.1z M58.7,100.6
					h2.7l-0.7,1.2l0,0c0,0,0,0,0,0.1v0.1l0,0l0.7,1.2h-2.7l-2.3-1.3L58.7,100.6z M61.2,104.7l-0.3-0.2h1.2l0.6,1l-0.3-0.2h-0.1h-0.1
					l-1.4,1.4l0.5-1.9C61.3,104.8,61.2,104.7,61.2,104.7z M62.4,106.9l1.5,0.9l0.9,1.5l-2.3,2.2l-3.2,0.9l0.9-3.2L62.4,106.9z
					 M62,101.9l0.8-1.3h1.5l0.8,1.3l-0.8,1.3h-1.5L62,101.9z M65,99.3L65,99.3c-0.1,0-0.1,0-0.2,0h-1.4l1.3-2.3l2.3-1.3v2.7
					l-1.3,2.3L65,99.5C65.1,99.4,65.1,99.4,65,99.3C65.1,99.4,65.1,99.3,65,99.3z M66.1,94.8l0.2-0.3c0-0.1,0-0.1,0-0.2l-1.4-1.4
					l1.9,0.5l0,0c0.1,0,0.1,0,0.1-0.1l0.2-0.3v1.2L66.1,94.8z M66.4,87.2l1.9-0.5c0.1,0,0.1-0.1,0.1-0.2v-0.4l0.6,1l-0.6,1v-0.4
					c0-0.1,0-0.1-0.1-0.2L66.4,87.2z M68.4,98.7l0.9-1.5l3.2,0.8l2.4,2.4l-3.2,0.9l-3.2-0.8L68.4,98.7z M74.9,105.1l1.3-1.3l0.7,0.2
					l-0.2,0.7L74.9,105.1z M76.6,93.9l-0.8-3.2l1.5-0.9H79l0.8,3.2l-0.9,3.2L76.6,93.9z M78.6,97.6l-0.2,0.7l-0.7-0.2l-0.5-1.8
					L78.6,97.6z M82.4,97.6l1.3-1.3l-0.5,1.8l-0.7,0.2L82.4,97.6z M82,96.2L81.1,93l0.8-3.2h1.7l1.5,0.9l-0.8,3.2L82,96.2z
					 M85.1,102.4l-0.5-0.5l0.5-0.5l1.8,0.5L85.1,102.4z M86.1,100.4l2.4-2.4l3.2-0.8l0.9,1.5v1.7l-3.2,0.8L86.1,100.4z M92.5,87.9
					v0.4l-0.6-1l0.6-1v0.4c0,0.1,0,0.1,0.1,0.2l1.9,0.5L92.5,87.9C92.6,87.8,92.5,87.8,92.5,87.9z M96.9,87.9l3.2,0.9l-2.4,2.4
					L94.5,92l-0.7-1.5v-1.7L96.9,87.9z M94,93.3C94,93.4,94.1,93.4,94,93.3L94,93.3l2-0.4l-1.3,1.4c-0.1,0.1-0.1,0.1,0,0.2l0.2,0.3
					l-1-0.6V93L94,93.3z M96.1,97l1.3,2.3H96c0,0,0,0-0.1,0l0,0c0,0-0.1,0-0.1,0.1c0,0,0,0,0,0.1l-0.7,1.2l-1.3-2.3v-2.7L96.1,97z
					 M99.6,103.2l0.7-1.2l0,0c0,0,0,0,0-0.1v-0.1l0,0l-0.7-1.2h2.7l2.3,1.3l-2.3,1.3H99.6z M104.3,99.3h-1.7l-1.5-0.9l0.8-3.2
					l2.4-2.4l0.9,3.2L104.3,99.3z M105.2,100.6c0.1,0,0.1,0,0.2-0.1l0.5-1.9l0.5,1.9c0,0.1,0.1,0.1,0.2,0.1l0,0h0.4l-1,0.6l-1-0.6
					H105.2z M106.5,96.1l0.9-3.2l2.3,2.4l0.8,3.2l-1.5,0.9h-1.7L106.5,96.1z M109.4,100.6h2.7l-0.7,1.2l0,0c0,0,0,0,0,0.1v0.1l0,0
					l0.7,1.2h-2.7l-2.3-1.3L109.4,100.6z M111.9,104.7l-0.3-0.2h1.2l0.6,1l-0.3-0.2H113h-0.1l-1.4,1.4L111.9,104.7
					C112,104.8,112,104.7,111.9,104.7z M112.8,101.9l0.8-1.3h1.5l0.8,1.3l-0.8,1.3h-1.5L112.8,101.9z M115.7,99.3h-1.4l1.3-2.3
					l2.3-1.3v2.7l-1.3,2.3l-0.7-1.2C115.8,99.3,115.8,99.3,115.7,99.3z M116.9,94.8l0.2-0.3c0-0.1,0-0.1,0-0.2l-1.4-1.4l1.9,0.5l0,0
					c0.1,0,0.1,0,0.1-0.1l0.2-0.3v1.2L116.9,94.8z M118,73.1c-0.1,0-0.1,0.1-0.1,0.2v0.4l-0.6-1l0.6-1v0.4c0,0.1,0,0.1,0.1,0.2
					l1.9,0.5L118,73.1z M118,43.7c-0.1,0-0.1,0.1-0.1,0.2v0.4l-0.6-1l0.6-1v0.4c0,0.1,0,0.1,0.1,0.2l1.9,0.5L118,43.7z M116.9,36.1
					l0.2-0.3c0-0.1,0-0.1,0-0.2l-1.4-1.4l1.9,0.5l0,0c0.1,0,0.1,0,0.1-0.1l0.2-0.3v1.2L116.9,36.1z M117.9,31.7l-0.9,1.5l-3.2-0.8
					l-2.4-2.4l3.2-0.9l3.2,0.8L117.9,31.7z M111.4,25.3l-1.3,1.3l-0.7-0.2l0.2-0.7L111.4,25.3z M109.7,36.5l0.8,3.2l-1.5,0.9h-1.7
					l-0.8-3.2l0.9-3.2L109.7,36.5z M107.7,32.8l0.2-0.7l0.7,0.2l0.5,1.8L107.7,32.8z M104,32.8l-1.3,1.3l0.5-1.8l0.7-0.2L104,32.8z
					 M104.3,34.2l0.9,3.2l-0.8,3.2h-1.7l-1.5-0.9l0.8-3.2L104.3,34.2z M101.6,26.6l-1.3-1.3l1.8,0.5l0.1,0.6L101.6,26.6z M97.8,24.6
					l2.4,2.4L97,27.9l-3.2-0.8v-1.7l0.9-1.5L97.8,24.6z M100.2,30l-2.4,2.4l-3.2,0.8l-0.9-1.5V30l3.2-0.8L100.2,30z M93.8,42.5v-0.4
					l0.6,1l-0.6,1v-0.4c0-0.1,0-0.1-0.1-0.2L91.8,43l1.9-0.3C93.7,42.6,93.8,42.6,93.8,42.5z M89.4,42.5l-3.2-0.9l2.4-2.4l3.1-0.8
					l0.9,1.5v1.7L89.4,42.5z M92.3,37.1c0-0.1-0.1-0.1-0.1-0.1l0,0l-1.9,0.5l1.4-1.4c0.1-0.1,0.1-0.1,0-0.2l-0.2-0.3l1,0.6v1.2
					L92.3,37.1z M90.2,33.4l-1.3-2.3h1.4c0,0,0,0,0.1,0l0,0c0,0,0.1,0,0.1-0.1c0,0,0,0,0-0.1l0.7-1.2l1.3,2.3v2.7L90.2,33.4z
					 M91.2,27.2L90.5,26v-0.1l-0.1-0.1l0,0l0,0H89l1.3-2.3l2.3-1.3v2.7L91.2,27.2z M86.7,27.2L86,28.4l0,0c0,0,0,0,0,0.1v0.1l0,0
					l0.7,1.2H84l-2.3-1.3l2.3-1.3L86.7,27.2z M82,31.1h1.7l1.5,0.9l-0.8,3.2L82,37.6l-0.9-3.2L82,31.1z M81.1,29.8
					c-0.1,0-0.1,0-0.2,0.1l-0.5,1.9l-0.5-1.9c0-0.1-0.1-0.1-0.2-0.1h-0.4l1-0.6l1,0.6H81.1z M79.8,34.3l-0.9,3.2l-2.4-2.4l-0.8-3.2
					l1.5-0.9h1.7L79.8,34.3z M76.9,29.8h-2.7l0.7-1.2l0,0l0,0v-0.1l0,0l-0.7-1.2h2.7l2.3,1.3L76.9,29.8z M73.1,23.5l-1.5-0.9
					l-0.9-1.5l2.3-2.3l3.2-0.9l-0.9,3.2L73.1,23.5z M69.7,29.8l0.7,1.2c0,0,0,0,0,0.1c0,0,0,0.1,0.1,0.1h0.1c0,0,0,0,0.1,0h1.4
					l-1.4,2.2l-2.3,1.3V32L69.7,29.8z M69.4,35.6l-0.2,0.3c0,0.1,0,0.1,0,0.2l1.4,1.4L68.7,37l0,0c-0.1,0-0.1,0-0.1,0.1l-0.2,0.3
					v-1.2L69.4,35.6z M68.4,39.9l0.9-1.5l3.2,0.8l2.4,2.4l-3.2,0.9l-3.2-0.8L68.4,39.9z M69.1,43.2l-1.9,0.5c-0.1,0-0.1,0.1-0.1,0.2
					v0.4l-0.6-1l0.6-1v0.4c0,0.1,0,0.1,0.1,0.2L69.1,43.2z M66.1,36.1l0.2-0.3c0-0.1,0-0.1,0-0.2l-1.4-1.4l1.9,0.5l0,0
					c0.1,0,0.1,0,0.1-0.1l0.2-0.3v1.2L66.1,36.1z M67.1,31.7l-0.9,1.5L63,32.4L60.6,30l3.2-0.9l3.2,0.8L67.1,31.7z M60.7,25.3
					l-1.3,1.3l-0.7-0.2l0.2-0.7L60.7,25.3z M59,36.5l0.8,3.2l-1.5,0.9h-1.7l-0.9-3.2l0.9-3.2L59,36.5z M57,32.8l0.2-0.7l0.7,0.2
					l0.5,1.8L57,32.8z M53.2,32.8l-1.3,1.3l0.5-1.8l0.7-0.2L53.2,32.8z M53.6,34.2l0.8,3.2l-0.8,3.2h-1.7l-1.5-0.9l0.8-3.2
					L53.6,34.2z M51.3,31.2l-1.8,0.5l1.3-1.3l0.7,0.2L51.3,31.2z M48.6,28.5l1.8-0.5l0.5,0.5L50.4,29L48.6,28.5z M50.8,26.6
					l-1.3-1.3l1.8,0.5l0.2,0.6L50.8,26.6z M47.1,24.6l2.4,2.4l-3.2,0.9l-3.2-0.8v-1.7l0.9-1.5L47.1,24.6z M49.4,30L47,32.4l-3.2,0.8
					l-0.9-1.5V30l3.2-0.8L49.4,30z M42.9,42.5v-0.4l0.6,1l-0.6,1v-0.4c0-0.1,0-0.1-0.1-0.2L40.9,43L42.9,42.5
					C42.9,42.6,42.9,42.6,42.9,42.5z M38.5,42.5l-3.2-0.9l2.3-2.3l3.2-0.9l0.9,1.5v1.7L38.5,42.5z M41.5,37.1
					C41.5,37,41.4,37,41.5,37.1L41.5,37.1l-2,0.4l1.4-1.4c0.1-0.1,0.1-0.1,0-0.2l-0.2-0.3l1,0.6v1.2L41.5,37.1z M39.4,33.4l-1.3-2.3
					h1.4l0,0c0.1,0,0.1,0,0.1-0.1c0,0,0,0,0-0.1l0.7-1.2l1.3,2.3v2.7L39.4,33.4z M39.7,26.1C39.7,26,39.7,26,39.7,26.1
					c0-0.1-0.1-0.2-0.2-0.2l0,0l0,0h-1.4l1.3-2.3l2.3-1.3V25l-1.3,2.3L39.7,26.1z M35.8,27.2l-0.7,1.2l0,0c0,0,0,0,0,0.1v0.1l0,0
					l0.7,1.2h-2.7l-2.3-1.3l2.3-1.3L35.8,27.2z M31.1,31.1h1.7l1.5,0.9l-0.8,3.2l-2.4,2.4l-0.9-3.2L31.1,31.1z M30.3,29.8
					c-0.1,0-0.1,0-0.2,0.1l-0.5,1.9l-0.5-1.9c0-0.1-0.1-0.1-0.2-0.1h-0.4l1-0.6l1,0.6H30.3z M29,34.3l-0.9,3.2l-2.4-2.4l-0.8-3.2
					l1.5-0.9h1.7L29,34.3z M26,29.8h-2.7l0.7-1.2l0,0c0,0,0,0,0-0.1v-0.1l0,0l-0.7-1.2H26l2.3,1.3L26,29.8z M22.3,23.5l-1.5-0.9
					l-0.9-1.5l2.3-2.3l3.2-0.9l-0.9,3.2L22.3,23.5z M21.6,17.7l-3.2,0.8L17.5,17v-1.7l3.2-0.8l3.2,0.9L21.6,17.7z M17.6,27.9v-0.4
					l0.6,1l-0.6,1v-0.4c0-0.1,0-0.1-0.1-0.2l-1.9-0.5L17.6,27.9C17.5,28,17.6,27.9,17.6,27.9z M14,18.8l-1.3-2.3h1.4l0,0l0,0
					c0.1,0,0.1,0,0.1-0.1v-0.1l0.7-1.2l1.3,2.3v2.7L14,18.8z M13.5,15.2H12l-0.8-1.3l0.8-1.3h1.5l0.8,1.3L13.5,15.2z M11.2,11.3H10
					l0.3-0.2c0.1,0,0.1-0.1,0.1-0.2L9.9,9l1.4,1.4h0.1h0.1l0.3-0.2L11.2,11.3z M10.5,12.5l-0.7,1.2l0,0c0,0,0,0,0,0.1v0.1l0,0
					l0.7,1.2H7.8l-2.3-1.3l2.3-1.3L10.5,12.5z M8.5,30.4l1.3,1.3L8,31.2l-0.2-0.7L8.5,30.4z M7.8,41.8h2.7L9.8,43l0,0c0,0,0,0,0,0.1
					v0.1l0,0l0.7,1.2H7.8l-2.3-1.3L7.8,41.8z M8.5,59.8l1.3,1.3L8,60.6l-0.2-0.7L8.5,59.8z M7.8,71.3h2.7l-0.7,1.2l0,0
					c0,0,0,0,0,0.1v0.1l0,0l0.7,1.2H7.8l-2.3-1.3L7.8,71.3z M8,84.5L9.8,84l-1.3,1.3l-0.7-0.2L8,84.5z M7.8,100.6h2.7l-0.7,1.2l0,0
					l0,0v0.1l0,0l0.7,1.2H7.8l-2.3-1.3L7.8,100.6z M8.5,118.4l1.3,1.3L8,119.2l-0.2-0.7L8.5,118.4z M8.9,117l-0.5-0.5l0.5-0.5
					l1.8,0.5L8.9,117z M13.1,117.2l3.2,0.8v1.7l-0.9,1.5l-3.2-0.8L9.8,118L13.1,117.2z M9.9,115l2.4-2.4l3.2-0.8l0.9,1.5v1.7
					l-3.2,0.8L9.9,115z M15.5,109.3l-0.2-0.3l1,0.6v1.2l-0.2-0.3c0-0.1-0.1-0.1-0.1-0.1l0,0l-1.9,0.5l1.3-1.4
					C15.5,109.5,15.5,109.4,15.5,109.3z M14,106.8l-1.3-2.3h1.4l0,0l0,0c0.1,0,0.1,0,0.1-0.1v-0.1l0.7-1.2l1.4,2.4v2.7L14,106.8z
					 M16.3,102.6v0.4l-0.6-1l0.6-1v0.4c0,0.1,0,0.1,0.1,0.2l1.9,0.5L16.3,102.6C16.3,102.4,16.3,102.5,16.3,102.6z M19.9,111.6
					l1.3,2.3h-1.4l0,0l0,0c-0.1,0-0.1,0-0.1,0.1v0.1l-0.7,1.2l-1.4-2.3v-2.7L19.9,111.6z M20.4,115.2h1.5l0.8,1.3l-0.8,1.3h-1.5
					l-0.8-1.2L20.4,115.2z M22.6,119.2h1.2l-0.3,0.2c-0.1,0-0.1,0.1-0.1,0.2l0.5,1.9l-1.3-1.5h-0.1h-0.1l-0.3,0.2L22.6,119.2z
					 M23.4,117.9l0.7-1.2l0,0c0,0,0,0,0-0.1v-0.1l0,0l-0.7-1.2h2.7l2.3,1.2l-2.3,1.3L23.4,117.9z M28.1,114h-1.7l-1.5-0.9l0.8-3.2
					l2.4-2.4l0.9,3.2L28.1,114z M29,115.2c0.1,0,0.1,0,0.2-0.1l0.4-1.9l0.5,1.9c0,0.1,0.1,0.1,0.2,0.1l0,0h0.4l-1,0.6l-1-0.6H29z
					 M30.3,110.8l0.9-3.2l2.4,2.4l0.8,3.2l-1.5,0.9h-1.7L30.3,110.8z M33.2,115.2h2.7l-0.7,1.2l0,0c0,0,0,0,0,0.1v0.1l0,0l0.7,1.2
					h-2.7l-2.3-1.3L33.2,115.2z M35.7,119.3l-0.3-0.2h1.2l0.6,1l-0.3-0.2h-0.1h-0.1l-1.4,1.4l0.5-1.8
					C35.8,119.5,35.8,119.4,35.7,119.3z M36.5,116.6l0.8-1.3h1.5l0.8,1.2l-0.8,1.3h-1.5L36.5,116.6z M39.5,114
					C39.5,113.9,39.5,113.9,39.5,114C39.5,113.9,39.4,113.9,39.5,114H38l1.3-2.3l2.3-1.3v2.7l-1.3,2.3l-0.7-1.2L39.5,114
					C39.6,114,39.6,114,39.5,114z M40.6,109.5l0.2-0.3c0-0.1,0-0.1,0-0.2l-1.4-1.4l1.9,0.5l0,0c0.1,0,0.1,0,0.1-0.1l0.2-0.3v1.2
					L40.6,109.5z M40.8,106.6l-3.2-0.8l-2.4-2.4l3.2-0.9l3.2,0.8v1.7L40.8,106.6z M41,101.9l1.9-0.5c0.1,0,0.1-0.1,0.1-0.2v-0.4
					l0.6,1l-0.6,1v-0.4c0-0.1,0-0.1-0.1-0.2L41,101.9z M44.1,109l-0.2,0.3c0,0.1,0,0.1,0,0.2l1.4,1.4l-2-0.5l0,0
					c-0.1,0-0.1,0-0.1,0.1l-0.2,0.3v-1.2L44.1,109z M42.9,113.3l0.9-1.5l3.2,0.8l2.4,2.4l-3.2,0.9l-3.2-0.8L42.9,113.3z M50.5,116.1
					l0.5,0.5l-0.5,0.5l-1.8-0.5L50.5,116.1z M50.8,118.5l0.7,0.2l-0.2,0.7l-1.8,0.5L50.8,118.5z M50.8,114.7l-1.3-1.3l1.8,0.5
					l0.2,0.6L50.8,114.7z M58.9,113.8l1.8-0.5l-1.3,1.3l-0.7-0.1L58.9,113.8z M59.7,117l-0.5-0.5l0.5-0.4l1.8,0.5L59.7,117z
					 M60.7,119.8l-1.8-0.5l-0.2-0.7l0.7-0.2L60.7,119.8z M64,117.2l3.2,0.8v1.7l-0.9,1.5l-3.2-0.8l-2.4-2.4L64,117.2z M60.8,115
					l2.4-2.4l3.2-0.8l0.9,1.5v1.7l-3.2,0.8L60.8,115z M66.3,109.3l-0.2-0.3l1,0.6v1.2l-0.1-0.3c0-0.1-0.1-0.1-0.1-0.1l0,0l-1.9,0.5
					l1.3-1.4C66.3,109.5,66.3,109.4,66.3,109.3z M64.8,106.8l-1.3-2.3h1.4l0,0l0,0c0.1,0,0.1,0,0.1-0.1v-0.1l0.7-1.2l1.4,2.4v2.7
					L64.8,106.8z M67.1,102.6v0.4l-0.6-1l0.6-1v0.4c0,0.1,0,0.1,0.1,0.2l1.9,0.5L67.1,102.6C67.2,102.4,67.1,102.5,67.1,102.6z
					 M70.7,111.6l1.3,2.3h-1.4l0,0l0,0c-0.1,0-0.1,0-0.1,0.1v0.1l-0.8,1.2l-1.3-2.3v-2.7L70.7,111.6z M71.2,115.2h1.5l0.8,1.3
					l-0.8,1.3h-1.5l-0.8-1.3L71.2,115.2z M73.5,119.2h1.2l-0.3,0.2c-0.1,0-0.1,0.1-0.1,0.2l0.5,1.9l-1.4-1.4h-0.1h-0.1l-0.3,0.2
					L73.5,119.2z M74.2,117.9l0.7-1.2l0,0c0,0,0,0,0-0.1v-0.1l0,0l-0.7-1.2h2.7l2.3,1.2l-2.3,1.3L74.2,117.9z M79,114h-1.7l-1.6-0.9
					l0.8-3.2l2.4-2.4l0.9,3.2L79,114z M79.8,115.2c0.1,0,0.1,0,0.2-0.1l0.5-1.9l0.5,1.9c0,0.1,0.1,0.1,0.2,0.1l0,0h0.4l-1,0.6
					l-1-0.6H79.8z M81.1,110.8l0.9-3.2l2.4,2.4l0.8,3.2l-1.5,0.8H82L81.1,110.8z M84,115.2h2.7l-0.7,1.2l0,0c0,0,0,0,0,0.1v0.1l0,0
					l0.7,1.3H84l-2.3-1.3L84,115.2z M86.6,119.3l-0.3-0.2h1.2l0.6,1l-0.4-0.1h-0.1h-0.1l-1.4,1.4l0.5-1.9
					C86.7,119.5,86.6,119.4,86.6,119.3z M87.4,116.6l0.8-1.3h1.5l0.8,1.2l-0.8,1.4h-1.5L87.4,116.6z M90.4,114
					C90.4,113.9,90.3,113.9,90.4,114C90.3,113.9,90.3,113.9,90.4,114h-1.5l1.3-2.3l2.3-1.4v2.7l-1.3,2.3L90.4,114L90.4,114L90.4,114
					z M91.5,109.5l0.2-0.4c0-0.1,0-0.1,0-0.2l-1.4-1.4l1.9,0.6l0,0c0.1,0,0.1,0,0.1-0.1l0.2-0.3v1.2L91.5,109.5z M91.7,106.6
					l-3.2-0.8l-2.4-2.4l3.2-0.9l3.2,0.8v1.7L91.7,106.6z M91.8,101.9l1.9-0.5c0.1,0,0.1-0.1,0.1-0.2v-0.4l0.6,1l-0.6,1v-0.4
					c0-0.1,0-0.1-0.1-0.2L91.8,101.9z M93.8,113.3l0.8-1.5l3.2,0.9l2.4,2.3l-3.2,0.9l-3.2-0.8V113.3z M101.2,116.1l0.5,0.5l-0.5,0.5
					l-1.8-0.5L101.2,116.1z M101.6,118.5l0.7,0.2l-0.2,0.7l-1.8,0.5L101.6,118.5z M110.1,118.4l1.3,1.3l-1.8-0.5l-0.2-0.7
					L110.1,118.4z M110.5,117l-0.5-0.5l0.5-0.5l1.8,0.5L110.5,117z M114.7,117.2l3.2,0.8v1.7l-0.9,1.5l-3.2-0.8l-2.4-2.4
					L114.7,117.2z M111.5,115l2.4-2.4l3.2-0.8l0.9,1.5v1.7l-3.2,0.8L111.5,115z M117.1,109.3l-0.2-0.3l1,0.6v1.2l-0.2-0.3
					c0-0.1-0.1-0.1-0.1-0.1l0,0l-1.9,0.5l1.3-1.4C117.1,109.5,117.1,109.4,117.1,109.3z M115.6,106.8l-1.3-2.3h1.4l0,0l0,0
					c0.1,0,0.1,0,0.1-0.1v-0.1l0.7-1.2l1.3,2.3v2.7L115.6,106.8z M117.9,102.5v0.4l-0.6-1l0.6-1v0.4c0,0.1,0,0.1,0.1,0.2l1.9,0.5
					L117.9,102.5C117.9,102.4,117.9,102.5,117.9,102.5z M120,109.1l0.2,0.4l-1-0.6v-1.2l0.2,0.3c0,0.1,0.1,0.1,0.1,0.1l0,0l1.9-0.5
					L120,109.1C120,109,120,109.1,120,109.1z M120,106.6l-0.9-1.5v-1.7l3.2-0.8l3.2,0.9l-2.4,2.4L120,106.6z M124.8,101.9l1.8-0.5
					l0.5,0.5l-0.5,0.5L124.8,101.9z M122.3,101.2l-3.2-0.8v-1.7l0.9-1.5l3.2,0.8l2.4,2.4L122.3,101.2z M119.2,93.5v-2.7l1.3-2.3
					l0.7,1.2c0,0,0,0,0,0.1c0,0,0,0.1,0.1,0.1h0.1c0,0,0,0,0.1,0h1.4l-1.3,2.3L119.2,93.5z M121.4,84.6L121.4,84.6
					C121.4,84.6,121.3,84.6,121.4,84.6c-0.1,0-0.2,0-0.2,0.1v0.1l-0.7,1.2l-1.3-2.3V81l2.3,1.3l1.3,2.3L121.4,84.6z M120,79.8
					l0.2,0.3l-1-0.6v-1.2l0.2,0.3c0,0.1,0.1,0.1,0.1,0.1l0,0l1.9-0.5l-1.4,1.4C120,79.7,120,79.7,120,79.8z M120,77.3l-0.9-1.5v-1.7
					l3.2-0.8l3.2,0.9l-2.4,2.4L120,77.3z M124.8,72.6l1.8-0.5l0.5,0.5l-0.5,0.5L124.8,72.6z M122.3,71.9l-3.2-0.8v-1.7l0.9-1.5
					l3.2,0.8l2.4,2.4L122.3,71.9z M119.2,64.1v-2.7l1.3-2.3l0.7,1.2c0,0,0,0,0,0.1c0,0,0,0.1,0.1,0.1h0.1c0,0,0,0,0.1,0h1.4
					l-1.3,2.3L119.2,64.1z M121.4,55.3L121.4,55.3C121.4,55.3,121.3,55.3,121.4,55.3c-0.1,0-0.2,0-0.2,0.1v0.1l-0.7,1.2l-1.3-2.3
					v-2.7l2.3,1.3l1.3,2.3C122.8,55.3,121.4,55.3,121.4,55.3z M120,47.9l-0.9-1.5v-1.7l3.2-0.8l3.2,0.9l-2.4,2.4L120,47.9z
					 M124.8,43.2l1.8-0.5l0.5,0.5l-0.5,0.5L124.8,43.2z M122.3,42.5l-3.2-0.8V40l0.9-1.5l3.2,0.8l2.4,2.4L122.3,42.5z M120,36.1
					l1.4,1.4l-1.9-0.5l0,0c-0.1,0-0.1,0-0.1,0.1l-0.2,0.3v-1.2l1-0.6l-0.2,0.3C120,36,120,36.1,120,36.1z M119.2,34.7V32l1.3-2.3
					l0.7,1.2c0,0,0,0,0,0.1c0,0,0,0.1,0.1,0.1h0.1c0,0,0,0,0.1,0h1.4l-1.3,2.3L119.2,34.7z M121.4,25.9L121.4,25.9
					C121.4,25.9,121.3,25.9,121.4,25.9c-0.1,0-0.2,0-0.2,0.1v0.1l-0.7,1.2l-1.3-2.3v-2.7l2.3,1.3l1.3,2.3H121.4z M120,21.1l0.2,0.3
					l-1-0.6v-1.2l0.2,0.3c0,0.1,0.1,0.1,0.1,0.1l0,0l1.9-0.5l-1.4,1.4C120,20.9,120,21,120,21.1z M119.2,27.9v-0.4l0.6,1l-0.6,1
					v-0.4c0-0.1,0-0.1-0.1-0.2l-1.9-0.5l1.9-0.5C119.1,28,119.2,27.9,119.2,27.9z M115.6,18.8l-1.3-2.3h1.4l0,0l0,0
					c0.1,0,0.1,0,0.1-0.1v-0.1l0.7-1.2l1.3,2.3v2.7L115.6,18.8z M115.1,15.2h-1.5l-0.8-1.3l0.8-1.3h1.5l0.8,1.3L115.1,15.2z
					 M112.8,11.3h-1.2l0.3-0.2c0.1,0,0.1-0.1,0.1-0.2L111.5,9l1.4,1.4h0.1h0.1l0.3-0.2L112.8,11.3z M112.1,12.5l-0.7,1.2l0,0
					c0,0,0,0,0,0.1v0.1l0,0l0.7,1.2h-2.7l-2.3-1.3l2.3-1.3L112.1,12.5z M107.3,16.5h1.7l1.5,0.9l-0.8,3.2l-2.4,2.4l-0.9-3.2
					L107.3,16.5z M106.5,15.2c-0.1,0-0.1,0-0.2,0.1l-0.5,1.9l-0.5-1.9c0-0.1-0.1-0.1-0.2-0.1h-0.4l1-0.6l1,0.6H106.5z M105.2,19.6
					l-0.9,3.2l-2.4-2.4l-0.8-3.2l1.5-0.9h1.7L105.2,19.6z M102.3,15.2h-2.7l0.7-1.2l0,0c0,0,0,0,0-0.1v-0.1l0,0l-0.7-1.2h2.7
					l2.3,1.3L102.3,15.2z M99.7,11.1l0.3,0.2h-1.2l-0.6-1l0.4,0.1h0.1h0.1l1.4-1.4l-0.5,1.9C99.7,11,99.7,11,99.7,11.1z M98.9,13.8
					l-0.8,1.3h-1.5l-0.8-1.3l0.8-1.3h1.5L98.9,13.8z M95.9,16.5C96,16.5,96,16.5,95.9,16.5C96,16.5,96,16.5,95.9,16.5h1.5l-1.3,2.3
					l-2.3,1.3v-2.7l1.3-2.3l0.7,1.2L95.9,16.5C95.8,16.4,95.9,16.4,95.9,16.5z M94.8,21l-0.2,0.3c0,0.1,0,0.1,0,0.2l1.4,1.4
					l-1.9-0.5l0,0c-0.1,0-0.1,0-0.1,0.1l-0.2,0.3v-1.2L94.8,21z M94.5,28.5L92.6,29c-0.1,0-0.1,0.1-0.1,0.2v0.4l-0.6-1l0.6-1V28
					c0,0.1,0,0.1,0.1,0.2L94.5,28.5z M91.5,21.4l0.2-0.3c0-0.1,0-0.1,0-0.2l-1.4-1.4l1.9,0.5l0,0c0.1,0,0.1,0,0.1-0.1l0.2-0.3v1.2
					L91.5,21.4z M92.5,17.1l-0.9,1.5l-3.2-0.8L86,15.4l3.2-0.9l3.3,0.9V17.1z M85.1,14.3l-0.5-0.5l0.5-0.5l1.8,0.5L85.1,14.3z
					 M84.7,12L84,11.8l0.2-0.7l1.8-0.5L84.7,12z M76.7,16.6l-1.8,0.5l1.3-1.3l0.7,0.2L76.7,16.6z M75.8,13.4l0.5,0.5l-0.5,0.5
					L74,13.9L75.8,13.4z M74.9,10.6l1.8,0.5l0.2,0.7L76.2,12L74.9,10.6z M74.8,15.4l-2.4,2.4l-3.2,0.8l-0.9-1.5v-1.7l3.2-0.8
					L74.8,15.4z M68.4,27.9v-0.4l0.6,1l-0.6,1v-0.4c0-0.1,0-0.1-0.1-0.2l-1.9-0.5L68.4,27.9C68.4,28,68.4,27.9,68.4,27.9z
					 M64.8,18.8l-1.3-2.3h1.4l0,0l0,0c0.1,0,0.1,0,0.1-0.1v-0.1l0.7-1.2l1.3,2.3v2.7L64.8,18.8z M64.3,15.2h-1.5L62,13.9l0.8-1.3
					h1.5l0.8,1.3L64.3,15.2z M62.1,11.3h-1.2l0.3-0.2c0.1,0,0.1-0.1,0.1-0.2L60.8,9l1.4,1.4h0.1h0.1l0.3-0.2L62.1,11.3z M61.3,12.5
					l-0.7,1.2l0,0c0,0,0,0,0,0.1v0.1l0,0l0.7,1.2h-2.7l-2.3-1.3l2.3-1.3L61.3,12.5z M56.6,16.5h1.7l1.5,0.9L59,20.6L56.6,23
					l-0.9-3.2L56.6,16.5z M55.7,15.2c-0.1,0-0.1,0-0.2,0.1L55,17.2l-0.5-1.9c0-0.1-0.1-0.1-0.2-0.1h-0.4l1-0.6l1,0.6H55.7z
					 M54.4,19.6l-0.9,3.2l-2.4-2.4l-0.8-3.2l1.5-0.9h1.7L54.4,19.6z M51.5,15.2h-2.7l0.7-1.2l0,0c0,0,0,0,0-0.1v-0.1l0,0l-0.7-1.2
					h2.7l2.3,1.3L51.5,15.2z M49,11.1l0.3,0.2h-1.2l-0.6-1l0.3,0.2h0.1H48l1.4-1.4L48.9,11C48.9,11,48.9,11,49,11.1z M48.2,13.8
					l-0.8,1.3h-1.5l-0.8-1.3l0.8-1.3h1.5L48.2,13.8z M45.2,16.5L45.2,16.5C45.2,16.5,45.3,16.5,45.2,16.5h1.5l-1.3,2.3l-2.3,1.3
					v-2.7l1.3-2.3l0.7,1.2L45.2,16.5C45.1,16.4,45.1,16.5,45.2,16.5z M44.1,21l-0.2,0.3c0,0.1,0,0.1,0,0.2l1.4,1.4l-1.9-0.5l0,0
					c-0.1,0-0.1,0-0.1,0.1l-0.2,0.3v-1.2L44.1,21z M43.6,28.5L41.7,29c-0.1,0-0.1,0.1-0.1,0.2v0.4l-0.6-1l0.6-1V28
					c0,0.1,0,0.1,0.1,0.2L43.6,28.5z M40.6,21.4l0.2-0.3c0-0.1,0-0.1,0-0.2l-1.4-1.4l1.9,0.5l0,0c0.1,0,0.1,0,0.1-0.1l0.2-0.3v1.2
					L40.6,21.4z M41.7,17.1l-0.9,1.5l-3.2-0.8l-2.4-2.4l3.2-0.9l3.2,0.8L41.7,17.1z M34.3,14.3l-0.5-0.5l0.5-0.5l1.8,0.5L34.3,14.3z
					 M33.9,12l-0.7-0.2l0.2-0.7l1.8-0.5L33.9,12z M25.9,16.6l-1.8,0.5l1.3-1.3l0.7,0.2L25.9,16.6z M25,13.4l0.5,0.5L25,14.4
					l-1.8-0.5L25,13.4z M24,10.6l1.8,0.5l0.2,0.7L25.3,12L24,10.6z M16.4,13.3l1.9,0.5l-1.9,0.5c-0.1,0-0.1,0.1-0.1,0.2v0.4l-0.6-1
					l0.6-1L16.4,13.3C16.3,13.3,16.3,13.3,16.4,13.3z M15.9,5.4C15.9,5.4,16,5.4,15.9,5.4c0.1,0,0.2,0,0.2-0.1L16.3,5v1.2l-1,0.6
					l0.2-0.3c0-0.1,0-0.1,0-0.2l-1.4-1.4L15.9,5.4z M16.3,7.6v2.7L15,12.6l-0.7-1.2c0,0,0,0,0-0.1c0,0,0-0.1-0.1-0.1h-0.1
					c0,0,0,0-0.1,0h-1.4l1.3-2.3L16.3,7.6z M11.6,4.2l2.3,2.3L13,8l-1.5,0.9L9.2,6.6L8.3,3.4L11.6,4.2z M8.5,1.1l1.3,1.3L8,1.9
					L7.8,1.2L8.5,1.1z M6.3,2.8L7,3l0.5,1.8L6.2,3.5L6.3,2.8z M5.8,4.9l2.4,2.4L9,10.5l-1.5,0.9H5.8L5,8.2L5.8,4.9z M4.2,3.3
					l0.5,0.5L4.2,5.6L3.7,3.8L4.2,3.3z M3.6,12.5c0.1,0,0.1,0,0.2-0.1l0.5-1.9l0.5,1.9c0,0.1,0.1,0.1,0.2,0.1l0,0h0.4l-1,0.6l-1-0.6
					H3.6z M3.6,15.2H3.2l1-0.6l1,0.6H4.8c-0.1,0-0.1,0-0.2,0.1l-0.5,1.9L3.6,15.2C3.7,15.2,3.7,15.2,3.6,15.2z M4.7,23.9l-0.5,0.5
					l-0.5-0.5l0.5-1.8L4.7,23.9z M2.3,24.3L2.1,25l-0.7-0.2L0.9,23L2.3,24.3z M1,34.1l0.5-1.8l0.7-0.2l0.2,0.7L1,34.1z M3.4,31.7
					l-0.3-1c0-0.1-0.1-0.1-0.2-0.1l0,0l-1,0.3l0.3-1v-0.1l-0.1-0.1l-1-0.3l0.8-0.8v-0.1v-0.1l-0.8-0.7l1-0.3c0.1,0,0.1-0.1,0.1-0.2
					l-0.3-1l1,0.3l0,0H3l0.1-0.1l0.3-1l0.8,0.8h0.1h0.1l0.7-0.7l0.3,1c0,0.1,0.1,0.1,0.2,0.1l0,0l1-0.3l-0.3,1c0,0.1,0,0.2,0.1,0.2
					l1,0.3l-0.7,0.7c-0.1,0.1-0.1,0.2,0,0.2l0.8,0.7l-1,0.3c0,0-0.1,0-0.1,0.1v0.1l0.3,1l-1-0.3l0,0H5.6l-0.1,0.1l-0.3,1L4.5,31H4.4
					H4.3L3.4,31.7z M4.7,33.1l-0.5,1.8l-0.5-1.8l0.5-0.5L4.7,33.1z M3.6,41.8c0.1,0,0.1,0,0.2-0.1l0.5-1.9l0.5,1.9
					c0,0.1,0.1,0.1,0.2,0.1l0,0h0.4l-1,0.6l-1-0.6H3.6z M3.6,44.5H3.2l1-0.6l1,0.6H4.8c-0.1,0-0.1,0-0.2,0.1l-0.5,1.9L3.6,44.5
					C3.7,44.5,3.7,44.5,3.6,44.5z M4.7,53.3l-0.5,0.5l-0.5-0.5l0.5-1.9L4.7,53.3z M2.3,53.7l-0.2,0.7l-0.7-0.2l-0.5-1.8L2.3,53.7z
					 M1,63.5l0.5-1.8l0.7-0.2l0.2,0.7L1,63.5z M3.4,61.1l-0.3-1C3.1,60,3,60,2.9,60l0,0l-1,0.3l0.3-1v-0.1l-0.1-0.1l-1-0.3L1.9,58
					c0.1-0.1,0.1-0.2,0-0.2l-0.7-0.7l1-0.3c0,0,0.1,0,0.1-0.1v-0.1l-0.3-1l1,0.3l0,0h0.1l0.1-0.1l0.3-1l0.6,0.7h0.1h0.1L5,54.8
					l0.3,1c0,0,0,0.1,0.1,0.1h0.1l0,0l1-0.3l-0.3,1c0,0.1,0,0.2,0.1,0.2l1,0.3l-0.7,0.7c-0.1,0.1-0.1,0.2,0,0.2l0.7,0.7l-1,0.3
					c0,0-0.1,0-0.1,0.1v0.1l0.3,1l-1-0.3l0,0c-0.1,0-0.1,0-0.2,0.1L5,61l-0.7-0.7H4.2H4.1L3.4,61.1z M4.7,62.6l-0.5,1.8l-0.5-1.8
					l0.5-0.5L4.7,62.6z M3.6,71.3c0.1,0,0.1,0,0.2-0.1l0.5-1.9l0.5,1.9c0,0.1,0.1,0.1,0.2,0.1l0,0h0.4l-1,0.6l-1-0.6H3.6z M3.6,73.9
					H3.2l1-0.6l1,0.6H4.8c-0.1,0-0.1,0-0.2,0.1l-0.5,1.9L3.6,73.9C3.7,74,3.7,73.9,3.6,73.9z M4.7,82.6l-0.5,0.5l-0.5-0.5l0.5-1.8
					L4.7,82.6z M2.3,83l-0.2,0.7l-0.7-0.2l-0.5-1.8L2.3,83z M1,92.8L1.5,91l0.7-0.2l0.1,0.7L1,92.8z M3.4,90.5l-0.3-1
					c0,0,0-0.1-0.1-0.1H2.9l0,0l-1,0.3l0.3-1v-0.1l-0.1-0.1l-1-0.3l0.7-0.7c0.1-0.1,0.1-0.2,0-0.2l-0.7-0.7l1-0.3c0,0,0.1,0,0.1-0.1
					v-0.1l-0.3-1l1,0.3l0,0H3l0.1-0.1l0.3-1l0.8,0.8h0.1h0.1l0.7-0.7l0.3,1c0,0.1,0.1,0.1,0.2,0.1l0,0l1-0.3l-0.3,1
					c0,0.1,0,0.2,0.1,0.2l1,0.3l-0.7,0.7c-0.1,0.1-0.1,0.2,0,0.2l0.7,0.7l-1,0.3c0,0-0.1,0-0.1,0.1v0.1l0.3,1l-1-0.3l0,0
					c-0.1,0-0.1,0-0.2,0.1l-0.3,1l-0.7-0.7H4.3H4.2L3.4,90.5z M4.7,91.9l-0.5,1.8l-0.5-1.8l0.5-0.5L4.7,91.9z M3.6,100.6
					c0.1,0,0.1,0,0.2-0.1l0.5-1.9l0.5,1.9c0,0.1,0.1,0.1,0.2,0.1l0,0h0.4l-1,0.6l-1-0.6H3.6z M3.6,103.2H3.2l1-0.6l1,0.6H4.8
					c-0.1,0-0.1,0-0.2,0.1l-0.5,1.9L3.6,103.2C3.7,103.3,3.7,103.2,3.6,103.2z M4.7,111.9l-0.5,0.5l-0.5-0.5l0.5-1.8L4.7,111.9z
					 M2.3,112.3L2.1,113l-0.7-0.2L0.9,111L2.3,112.3z M1,122.1l0.5-1.8l0.7-0.2l0.2,0.7L1,122.1z M4.2,123l-0.5-1.8l0.5-0.5l0.5,0.5
					L4.2,123z M4.4,119L4.4,119H4.2l-0.7,0.7l-0.3-1c0,0,0-0.1-0.1-0.1H3l0,0l-1,0.3l0.3-1v-0.1l-0.1-0.1l-1-0.3l0.8-0.8v-0.1v-0.1
					l-0.7-0.7l1-0.3c0,0,0.1,0,0.1-0.1v-0.1l-0.3-1l1,0.3l0,0h0.1l0.1-0.1l0.3-1l0.8,0.8h0.1h0.1l0.7-0.7l0.3,1
					c0,0.1,0.1,0.1,0.2,0.1l0,0l1-0.3l-0.3,1c0,0.1,0,0.2,0.1,0.2l1,0.3l-0.7,0.7c-0.3,0-0.3,0.1-0.2,0.2l0.7,0.7l-1,0.3
					c0,0-0.1,0-0.1,0.1v0.1l0.3,1l-1-0.3l0,0c-0.1,0-0.1,0-0.2,0.1l-0.3,1L4.4,119z M7.5,122.1l-1.3-1.3l0.2-0.7l0.7,0.2L7.5,122.1z
					 M7.5,128.6H5.8l-0.9-3.1l0.9-3.2l2.4,2.4l0.8,3.2L7.5,128.6z M11.2,128.6H10l0.3-0.2c0.1,0,0.1-0.1,0.1-0.2l-0.5-1.9l1.4,1.4
					h0.1h0.1l0.3-0.2L11.2,128.6z M11.6,126.2l-2.3-2.3l-0.9-3.2l3.2,0.9l2.3,2.3l-0.9,1.5L11.6,126.2z M15,129.9l-0.7-1.2
					c0,0,0,0,0-0.1c0,0,0-0.1-0.1-0.1h-0.1c0,0,0,0-0.1,0h-1.4l1.3-2.3l2.3-1.3v2.7L15,129.9z M15.3,124.1l0.2-0.3
					c0-0.1,0-0.1,0-0.2l-1.4-1.4l1.9,0.5l0,0c0.1,0,0.1,0,0.1-0.1l0.2-0.3v1.2L15.3,124.1z M17.4,117.1l-1.8-0.5l1.9-0.5
					c0.1,0,0.1-0.1,0.1-0.2v-0.4l0.6,1l-0.6,1v-0.4C17.6,117.1,17.5,117.1,17.4,117.1z M17.9,125L17.9,125c-0.1,0-0.2,0-0.2,0.1
					l-0.1,0.3v-1.2l1-0.6l-0.2,0.3c0,0.1,0,0.1,0,0.2l1.4,1.4L17.9,125z M17.6,122.8v-2.7l1.3-2.3l0.7,1.2c0,0,0,0,0,0.1
					c0,0,0,0.1,0.1,0.1h0.1c0,0,0,0,0.1,0h1.4l-1.4,2.3L17.6,122.8z M22.2,126.2l-2.3-2.3l0.9-1.5l1.5-0.9l2.3,2.3l0.9,3.2
					L22.2,126.2z M25.4,129.3l-1.3-1.3l1.7,0.5l0.2,0.7L25.4,129.3z M27.5,127.6l-0.7-0.2l-0.5-1.8l1.3,1.3L27.5,127.6z M28.1,125.5
					l-2.4-2.4l-0.8-3.2l1.5-0.9h1.7l0.8,3.2L28.1,125.5z M29.6,127.1l-0.5-0.5l0.5-1.8l0.5,1.8L29.6,127.1z M30.1,118l-0.5,1.9
					l-0.5-1.9c0-0.1-0.1-0.1-0.2-0.1h-0.4l1-0.6l1,0.6h-0.4C30.2,117.9,30.1,117.9,30.1,118z M30.3,122.3l0.8-3.2h1.7l1.5,0.9
					l-0.8,3.2l-2.4,2.3L30.3,122.3z M32.4,127.4l-0.7,0.2l-0.2-0.7l1.3-1.3L32.4,127.4z M33.9,129.3l-0.7-0.2l0.2-0.6l1.8-0.5
					L33.9,129.3z M37,126.2l-3.2,0.9l0.8-3.3l2.3-2.3l1.5,0.9l0.9,1.5L37,126.2z M38,119.2h1.4l0,0c0.1,0,0.1,0,0.1-0.1
					c0,0,0,0,0-0.1l0.7-1.2l1.3,2.3v2.7l-2.1-1.3L38,119.2z M41.5,125.1L41.5,125.1L41.5,125.1l-2.1,0.4l1.4-1.4
					c0.1-0.1,0.1-0.1,0-0.2l-0.2-0.3l1,0.6v1.2L41.5,125.1z M41.7,117.2v0.4l-0.6-1l0.6-1v0.4c0,0.1,0,0.1,0.1,0.2l1.8,0.4
					L41.7,117.2C41.7,117.1,41.7,117.1,41.7,117.2z M42.9,118.1l3.2-0.8l3.2,0.9l-2.4,2.4l-3.2,0.8l-0.9-1.5L42.9,118.1z
					 M42.9,122.3l0.2,0.3c0,0.1,0.1,0.1,0.1,0.1l0,0l1.9-0.5l-1.4,1.4c-0.1,0.1-0.1,0.1,0,0.2l0.2,0.3l-1-0.6V122.3z M45.3,128.6
					C45.3,128.6,45.2,128.6,45.3,128.6c-0.1,0-0.2,0-0.2,0v0.1l-0.7,1.2l-1.3-2.3v-2.7l2.3,1.3l1.3,2.4
					C46.7,128.6,45.3,128.6,45.3,128.6z M49,128.4l0.3,0.2h-1.2l-0.6-1l0.3,0.2h0.1H48l1.4-1.4l-0.5,1.9
					C48.9,128.3,48.9,128.4,49,128.4z M47.8,126.2l-1.5-0.9l-0.9-1.5l2.3-2.2l3.2-0.9l-0.9,3.2L47.8,126.2z M53.6,128.6h-1.7
					l-1.5-0.9l0.8-3.2l2.4-2.4l0.9,3.2L53.6,128.6z M51.9,122.1l0.5-1.8l0.7-0.2l0.2,0.7L51.9,122.1z M55.1,123l-0.5-1.8l0.5-0.5
					l0.5,0.5L55.1,123z M55.2,119L55.2,119H55l-0.7,0.7l-0.3-1c0,0,0-0.1-0.1-0.1h-0.1l0,0l-1,0.3l0.3-1v-0.1l-0.1-0.1l-1-0.3
					l0.7-0.7v-0.1v-0.1l-0.8-0.7l1-0.3c0,0,0.1,0,0.1-0.1v-0.1l-0.3-1l1,0.3l0,0h0.1l0.1-0.1l0.3-1l0.8,0.8h0.1h0.1l0.7-0.7l0.3,1
					c0,0.1,0.1,0.1,0.2,0.1l0,0l1-0.3l-0.3,1v0.1l0.1,0.1l1,0.3l-0.7,0.7v0.1v0.1l0.7,0.7l-1,0.3c-0.1,0-0.1,0.1-0.1,0.2l0.3,1
					l-1-0.3l0,0h-0.1l-0.1,0.1l-0.3,1L55.2,119z M58.3,122.1l-1.3-1.3l0.2-0.7l0.7,0.2L58.3,122.1z M58.3,128.6h-1.7l-0.9-3.1
					l0.9-3.2l2.4,2.4l0.8,3.2L58.3,128.6z M62.1,128.6h-1.2l0.3-0.2c0.1,0,0.1-0.1,0.1-0.2l-0.5-1.9l1.4,1.4h0.1h0.1l0.3-0.2
					L62.1,128.6z M62.4,126.2l-2.3-2.3l-0.9-3.2l3.2,0.9l2.3,2.3l-0.9,1.5L62.4,126.2z M65.8,129.9l-0.7-1.2c0,0,0,0,0-0.1
					c0,0,0-0.1-0.1-0.1h-0.1c0,0,0,0-0.1,0h-1.4l1.3-2.3l2.3-1.3v2.7L65.8,129.9z M66.1,124.1l0.2-0.3c0-0.1,0-0.1,0-0.2l-1.4-1.4
					l1.9,0.5l0,0c0.1,0,0.1,0,0.1-0.1l0.2-0.3v1.2L66.1,124.1z M68.3,117.1l-1.9-0.5l1.9-0.5c0.1,0,0.1-0.1,0.1-0.2v-0.4l0.6,1
					l-0.6,1L68.3,117.1C68.4,117.1,68.4,117.1,68.3,117.1z M68.8,125L68.8,125c-0.1,0-0.2,0-0.2,0.1l-0.2,0.3v-1.2l1-0.6l-0.2,0.3
					c0,0.1,0,0.1,0,0.2l1.4,1.4L68.8,125z M68.4,122.8v-2.7l1.3-2.3l0.7,1.2c0,0,0,0,0,0.1c0,0,0,0.1,0.1,0.1h0.1c0,0,0,0,0.1,0h1.4
					l-1.4,2.3L68.4,122.8z M73.1,126.2l-2.3-2.3l0.9-1.5l1.4-0.9l2.3,2.3l0.9,3.2L73.1,126.2z M76.2,129.3l-1.3-1.3l1.8,0.5l0.2,0.7
					L76.2,129.3z M78.4,127.6l-0.7-0.2l-0.5-1.8l1.3,1.3L78.4,127.6z M78.9,125.5l-2.4-2.4l-0.8-3.1l1.5-0.9h1.7l0.8,3.2L78.9,125.5
					z M80.5,127.1l-0.5-0.5l0.5-1.8l0.5,1.8L80.5,127.1z M81,118l-0.5,1.9L80,118c0-0.1-0.1-0.1-0.2-0.1h-0.4l1-0.6l1,0.6H81
					C81,117.9,81,117.9,81,118z M81.1,122.3l0.8-3.2h1.7l1.5,0.9l-0.8,3.2l-2.3,2.3L81.1,122.3z M83.2,127.4l-0.7,0.2l-0.2-0.7
					l1.4-1.3L83.2,127.4z M84.7,129.3l-0.7-0.2l0.2-0.6L86,128L84.7,129.3z M87.8,126.2l-3.2,0.9l0.9-3.2l2.3-2.4l1.5,0.9l0.9,1.5
					L87.8,126.2z M88.9,119.2h1.4c0,0,0,0,0.1,0l0,0c0,0,0.1,0,0.1-0.1c0,0,0,0,0-0.1l0.7-1.2l1.3,2.3v2.7l-2.3-1.3L88.9,119.2z
					 M92.3,125.1c0-0.1-0.1-0.1-0.1-0.1l0,0l-1.9,0.5l1.4-1.3c0-0.1,0-0.2,0-0.2l-0.2-0.3l1,0.6v1.2L92.3,125.1z M92.5,117.2v0.4
					l-0.6-1l0.6-1.1v0.4c0,0.1,0,0.1,0.1,0.2l1.9,0.5L92.5,117.2C92.6,117.1,92.5,117.1,92.5,117.2z M93.8,118.1l3.1-0.9l3.3,0.9
					l-2.4,2.4l-3.2,0.8l-0.9-1.5L93.8,118.1z M93.8,122.3l0.2,0.3c0,0.1,0.1,0.1,0.1,0.1l0,0l1.9-0.5l-1.3,1.4
					c-0.1,0.1-0.1,0.1,0,0.2l0.1,0.3l-1-0.6V122.3z M96,128.6L96,128.6L96,128.6c-0.1,0-0.2,0-0.2,0.1c0,0,0,0,0,0.1l-0.7,1.2
					l-1.3-2.3V125l2.3,1.3l1.3,2.3H96z M99.7,128.4l0.3,0.2h-1.2l-0.6-1l0.3,0.2h0.1h0.1l1.5-1.4l-0.5,1.8
					C99.7,128.3,99.7,128.4,99.7,128.4z M98.5,126.2l-1.5-0.9l-0.9-1.5l2.4-2.2l3.2-0.9l-0.9,3.2L98.5,126.2z M104.3,128.6h-1.7
					l-1.5-0.9l0.8-3.2l2.4-2.4l0.9,3.2L104.3,128.6z M102.6,122.1l0.5-1.8l0.7-0.2l0.2,0.7L102.6,122.1z M105.8,123l-0.5-1.8
					l0.5-0.5l0.5,0.5L105.8,123z M106,119L106,119h-0.2l-0.7,0.7l-0.3-1c0,0,0-0.1-0.1-0.1h-0.1l0,0l-1,0.3l0.3-1v-0.1l-0.1-0.1
					l-1-0.3l0.7-0.7v-0.1v-0.1l-0.8-0.7l1-0.3c0,0,0.1,0,0.1-0.1v-0.1l-0.3-1l1,0.3l0,0h0.1c0.1-0.2,0.1-0.2,0.1-0.2l0.3-1l0.7,0.7
					h0.1h0.1l0.8-0.8l0.3,1c0,0.1,0.1,0.2,0.1,0.2l0,0l1-0.3l-0.3,1v0.1l0.1,0.1l1,0.3l-0.7,0.7v0.1v0.1l0.8,0.7l-1,0.3
					c0,0-0.1,0-0.1,0.1v0.1l0.3,1l-1-0.3l0,0h-0.1l-0.1,0.1l-0.3,1L106,119z M109.1,122.1l-1.4-1.3l0.2-0.7l0.7,0.2L109.1,122.1z
					 M109.1,128.6h-1.7l-0.9-3.1l0.9-3.2l2.3,2.3l0.8,3.2L109.1,128.6z M112.8,128.6h-1.2l0.3-0.2c0.1,0,0.1-0.1,0.1-0.2l-0.5-1.9
					l1.4,1.4h0.1h0.1l0.3-0.2L112.8,128.6z M113.2,126.2l-2.3-2.3l-0.9-3.2l3.2,0.9l2.3,2.3l-0.9,1.5L113.2,126.2z M116.6,129.9
					l-0.7-1.2c0-0.1-0.1-0.1-0.1-0.1h-1.4l1.3-2.3l2.3-1.3v2.7L116.6,129.9z M116.9,124.1l0.2-0.3c0-0.1,0-0.1,0-0.2l-1.4-1.4
					l1.9,0.5l0,0c0.1,0,0.1,0,0.1-0.1l0.2-0.3v1.2L116.9,124.1z M119,117.1l-1.9-0.5l1.9-0.5c0.1,0,0.1-0.1,0.1-0.2v-0.4l0.6,1
					l-0.6,1L119,117.1C119.2,117.1,119.1,117.1,119,117.1z M119.5,125L119.5,125c-0.1,0-0.2,0-0.2,0.1l-0.2,0.3v-1.2l1-0.6l-0.2,0.3
					c0,0.1,0,0.1,0,0.2l1.5,1.4L119.5,125z M119.2,122.8v-2.7l1.3-2.3l0.7,1.2c0,0,0,0,0,0.1c0,0,0,0.1,0.1,0.1h0.1c0,0,0,0,0.1,0
					h1.4l-1.3,2.3L119.2,122.8z M129.4,126.9l-0.2,0.7l-0.7-0.2l-0.5-1.8L129.4,126.9z M127.4,128.5l0.2,0.7l-0.7,0.2l-1.3-1.3
					L127.4,128.5z M127.1,127.1l-3.2-0.9l-2.3-2.3l0.9-1.5l1.4-0.9l2.3,2.3L127.1,127.1z M127.7,115.2l2.3,1.3l-2.3,1.3H125l0.7-1.1
					l0,0c0,0,0,0,0-0.1v-0.1l0,0l-0.7-1.2L127.7,115.2z M126.2,109.3l-2.3,2.3l-1.5-0.9l-0.9-1.5l2.3-2.3l3.2-0.9L126.2,109.3z
					 M127.4,104.6l-1.8,0.5l1.3-1.3l0.7,0.2L127.4,104.6z M127.4,99.2l0.2,0.7l-0.7,0.2l-1.3-1.3L127.4,99.2z M127.1,97.7l-3.2-0.9
					l-2.3-2.3l0.9-1.5l1.5-0.9l2.3,2.3L127.1,97.7z M127.7,85.9l2.3,1.3l-2.3,1.3H125l0.7-1.2l0,0c0,0,0,0,0-0.1v-0.1l0,0l-0.7-1.2
					H127.7z M126.2,80l-2.3,2.3l-1.5-0.9l-0.9-1.5l2.3-2.3l3.2-0.9L126.2,80z M127.4,75.3l-1.8,0.5l1.3-1.3l0.7,0.2L127.4,75.3z
					 M127.4,69.8l0.2,0.7l-0.7,0.2l-1.3-1.3L127.4,69.8z M127.1,68.4l-3.2-0.9l-2.3-2.3l0.9-1.5l1.5-0.9l2.3,2.3L127.1,68.4z
					 M127.7,56.6l2.3,1.3l-2.3,1.3H125l0.7-1.2l0,0c0,0,0,0,0-0.1v-0.1l0,0l-0.7-1.2H127.7z M126.2,50.5l-2.3,2.3l-1.5-0.9l-0.9-1.5
					l2.3-2.3l3.2-0.9L126.2,50.5z M127.5,45.9l-1.8,0.5l1.3-1.3l0.7,0.2L127.5,45.9z M127.4,40.4l0.2,0.7l-0.7,0.2l-1.3-1.3
					L127.4,40.4z M127.1,39l-3.2-0.9l-2.3-2.3l0.9-1.5l1.5-0.9l2.3,2.3L127.1,39z M127.7,27.2l2.3,1.3l-2.3,1.3H125l0.7-1.2l0,0
					c0,0,0,0,0-0.1v-0.1l0,0l-0.7-1.2H127.7z M126.2,21.2l-2.3,2.3l-1.5-0.9l-0.9-1.5l2.3-2.3l3.2-0.9L126.2,21.2z M127.5,16.6
					l-1.8,0.5l1.3-1.3l0.7,0.2L127.5,16.6z M127.4,11.1l0.2,0.7l-0.7,0.2l-1.3-1.3L127.4,11.1z M124.2,1.8h1.2L125.1,2
					C125,2,125,2.1,125,2.2l0.5,1.9l-1.4-1.4H124h-0.1l-0.3,0.2L124.2,1.8z M123.9,4.2l2.3,2.3l0.9,3.2l-3.2-0.9l-2.3-2.3l0.9-1.5
					L123.9,4.2z M120.5,0.5l0.7,1.2c0,0,0,0,0,0.1c0,0,0,0.1,0.1,0.1h0.1c0,0,0,0,0.1,0h1.4l-1.3,2.3l-2.3,1.3V2.8L120.5,0.5z
					 M119.2,6.9l1-0.6L120,6.6c0,0.1,0,0.1,0,0.2l1.4,1.4l-1.9-0.5l0,0c-0.1,0-0.1,0-0.1,0.1l-0.2,0.3L119.2,6.9z M119.2,10.6
					l0.9-1.5l3.2,0.8l2.4,2.4l-3.2,0.9l-3.2-0.8L119.2,10.6z M118,13.3l1.9,0.5l-1.9,0.5c-0.1,0-0.1,0.1-0.1,0.2v0.4l-0.6-1l0.6-1
					L118,13.3C117.9,13.3,117.9,13.3,118,13.3z M117.5,5.4C117.5,5.4,117.6,5.4,117.5,5.4c0.1,0,0.2,0,0.2-0.1l0.2-0.3v1.2l-1,0.6
					l0.2-0.3c0-0.1,0-0.1,0-0.2l-1.4-1.4L117.5,5.4z M117.9,7.6v2.7l-1.3,2.3l-0.7-1.2c0,0,0,0,0-0.1c0,0,0-0.1-0.1-0.1h-0.1
					c0,0,0,0-0.1,0h-1.4l1.3-2.3L117.9,7.6z M113.2,4.2l2.3,2.3L114.6,8l-1.5,0.9l-2.3-2.3l-0.9-3.2L113.2,4.2z M110.1,1.1l1.3,1.3
					l-1.8-0.5l-0.2-0.7L110.1,1.1z M107.9,2.8l0.7,0.2l0.5,1.8l-1.3-1.3L107.9,2.8z M107.4,4.9l2.4,2.4l0.8,3.2l-1.5,0.9h-1.7
					l-0.8-3.2L107.4,4.9z M105.8,3.3l0.5,0.5l-0.5,1.8l-0.5-1.8L105.8,3.3z M105.3,12.4l0.5-1.9l0.5,1.9c0,0.1,0.1,0.1,0.2,0.1l0,0
					h0.4l-1,0.6l-1-0.6L105.3,12.4C105.3,12.5,105.3,12.5,105.3,12.4z M105.2,8.1l-0.8,3.2h-1.7l-1.5-0.9l0.8-3.2l2.4-2.4L105.2,8.1
					z M103.1,3l0.7-0.2l0.2,0.7l-1.3,1.3L103.1,3z M101.6,1.1l0.7,0.2L102.1,2l-1.8,0.5L101.6,1.1z M98.5,4.2l3.2-0.9l-0.9,3.2
					l-2.3,2.3L97,7.9l-0.9-1.5L98.5,4.2z M97.4,11.3H96c0,0,0,0-0.1,0l0,0c0,0-0.1,0-0.1,0.1c0,0,0,0,0,0.1l-0.7,1.2l-1.3-2.3V7.7
					L96.1,9L97.4,11.3z M94,5.3C94,5.4,94.1,5.4,94,5.3L94,5.3l2-0.4l-1.4,1.4c-0.1,0.1-0.1,0.1,0,0.2l0.2,0.3l-1-0.6V5L94,5.3z
					 M93.8,13.2v-0.4l0.6,1l-0.6,1v-0.4c0-0.1,0-0.1-0.1-0.2l-1.9-0.5l1.9-0.3C93.7,13.3,93.8,13.3,93.8,13.2z M92.5,12.3l-3.2,0.8
					l-3.2-0.9l2.4-2.4L91.7,9l0.9,1.5L92.5,12.3z M92.5,8.1l-0.2-0.3c0-0.1-0.1-0.1-0.1-0.1l0,0l-1.9,0.5l1.4-1.4
					c0.1-0.1,0.1-0.1,0-0.2l-0.2-0.3l1,0.6V8.1z M90.3,1.8L90.3,1.8C90.3,1.8,90.4,1.8,90.3,1.8c0.1,0,0.2,0,0.2-0.1c0,0,0,0,0-0.1
					l0.7-1.2l1.3,2.3v2.7l-2.3-1.3l-1.3-2.3C88.9,1.8,90.3,1.8,90.3,1.8z M86.6,2l-0.3-0.2h1.2l0.6,1l-0.3-0.2h-0.1h-0.1L86.2,4
					l0.5-1.9C86.7,2.1,86.6,2,86.6,2z M87.8,4.2l1.5,0.9l0.9,1.5l-2.3,2.3l-3.2,0.9l0.9-3.2L87.8,4.2z M82,1.8h1.7l1.5,0.9l-0.8,3.2
					L82,8.3l-0.9-3.2L82,1.8z M83.7,8.3l-0.5,1.8l-0.7,0.2l-0.2-0.7L83.7,8.3z M80.5,7.4L81,9.2l-0.5,0.5L80,9.2L80.5,7.4z
					 M80.4,11.4L80.4,11.4h0.2l0.7-0.7l0.3,1c0,0,0,0.1,0.1,0.1h0.1l0,0l1-0.3l-0.3,1v0.1l0.1,0.1l1,0.3l-0.7,0.7v0.1v0.1l0.8,0.7
					l-1,0.3c0,0-0.1,0-0.1,0.1v0.1l0.3,1l-1-0.3l0,0c-0.1,0-0.1,0-0.2,0.1l-0.3,1l-0.7-0.7h-0.1h-0.1l-0.7,0.7l-0.3-1
					c0-0.1-0.1-0.1-0.2-0.1l0,0l-1,0.3l0.3-1c0-0.1,0-0.2-0.1-0.2l-1-0.3l0.7-0.7c0.1-0.1,0.1-0.2,0-0.2L77.5,13l1-0.3
					c0.1,0,0.1-0.1,0.1-0.2l-0.3-1l1,0.3l0,0c0.1,0,0.1,0,0.2-0.1l0.3-1L80.4,11.4z M77.2,8.3l1.3,1.3l-0.2,0.7l-0.7-0.2L77.2,8.3z
					 M77.2,1.8h1.7L79.7,5l-0.9,3.2l-2.4-2.4l-0.8-3.2L77.2,1.8z M73.5,1.8h1.2L74.4,2c-0.1,0-0.1,0.1-0.1,0.2l0.5,1.9l-1.4-1.4
					h-0.1h-0.1l-0.3,0.2L73.5,1.8z M73.1,4.2l2.3,2.3l0.9,3.2l-3.2-0.9l-2.3-2.3L71.7,5L73.1,4.2z M69.7,0.5l0.7,1.2c0,0,0,0,0,0.1
					c0,0,0,0.1,0.1,0.1h0.1c0,0,0,0,0.1,0h1.4l-1.3,2.3l-2.3,1.3V2.8L69.7,0.5z M69.4,6.3l-0.2,0.3c0,0.1,0,0.1,0,0.2l1.4,1.4
					l-1.9-0.5l0,0c-0.1,0-0.1,0-0.1,0.1l-0.2,0.3V6.9L69.4,6.3z M68.4,10.6l0.9-1.5l3.2,0.8l2.4,2.4l-3.2,0.9l-3.2-0.8L68.4,10.6z
					 M67.3,13.4l1.9,0.5l-1.9,0.5c-0.1,0-0.1,0.1-0.1,0.2V15l-0.6-1l0.6-1L67.3,13.4C67.1,13.3,67.2,13.3,67.3,13.4z M66.8,5.4
					L66.8,5.4c0.1,0,0.2,0,0.2-0.1L67.2,5v1.2l-1,0.6l0.2-0.3c0-0.1,0-0.1,0-0.2L65,4.9L66.8,5.4z M67.1,7.6v2.7l-1.3,2.3l-0.7-1.2
					c0,0,0,0,0-0.1c0,0,0-0.1-0.1-0.1h-0.1c0,0,0,0-0.1,0h-1.4l1.3-2.3L67.1,7.6z M62.5,4.2l2.3,2.3L63.9,8l-1.5,0.9l-2.3-2.3
					l-0.9-3.2L62.5,4.2z M59.3,1.1l1.4,1.3l-1.8-0.5l-0.2-0.7L59.3,1.1z M57.2,2.8L57.9,3l0.5,1.8l-1.3-1.3L57.2,2.8z M56.6,4.9
					L59,7.3l0.8,3.2l-1.5,0.9h-1.7l-0.8-3.2L56.6,4.9z M55.1,3.3l0.5,0.5l-0.5,1.8l-0.5-1.8L55.1,3.3z M54.6,12.4l0.5-1.9l0.5,1.9
					c0,0.1,0.1,0.1,0.2,0.1l0,0h0.4l-1,0.6l-1-0.6L54.6,12.4C54.5,12.5,54.6,12.5,54.6,12.4z M54.4,8.1l-0.8,3.2h-1.7l-1.5-0.9
					l0.8-3.2l2.4-2.4L54.4,8.1z M52.4,3l0.7-0.2l0.2,0.7L52,4.8L52.4,3z M50.8,1.1l0.7,0.2L51.3,2l-1.8,0.5L50.8,1.1z M47.7,4.2
					l3.2-0.9L50,6.5l-2.3,2.3l-1.5-0.9l-0.9-1.5L47.7,4.2z M46.7,11.3h-1.4c0,0,0,0-0.1,0h-0.1L45,11.4l-0.7,1.2L43,10.3V7.6
					l2.3,1.3L46.7,11.3z M43.1,5.3C43.1,5.4,43.2,5.4,43.1,5.3L43.1,5.3l2-0.4l-1.4,1.4c-0.1,0.1-0.1,0.1,0,0.2l0.2,0.3l-1-0.6V5
					L43.1,5.3z M42.9,13.2v-0.4l0.6,1l-0.6,1v-0.4c0-0.1,0-0.1-0.1-0.2l-1.9-0.5L42.9,13.2C42.9,13.3,42.9,13.3,42.9,13.2z
					 M41.7,12.3l-3.2,0.8l-3.2-0.9l2.4-2.4L40.9,9l0.9,1.5L41.7,12.3z M41.7,8.1l-0.2-0.3c0-0.1-0.1-0.1-0.1-0.1l0,0l-1.9,0.5
					l1.4-1.4c0.1-0.1,0.1-0.1,0-0.2l-0.2-0.3l1,0.6V8.1z M39.4,1.8L39.4,1.8L39.4,1.8c0.1,0,0.2,0,0.2,0h0.1l0.1-0.1l0.7-1.2
					l1.3,2.3v2.7l-2.3-1.3l-1.3-2.3L39.4,1.8z M35.7,2l-0.3-0.2h1.2l0.6,1l-0.3-0.2h-0.1h-0.1L35.3,4l0.5-1.9
					C35.8,2.1,35.8,2,35.7,2z M36.9,4.2l1.5,0.9l0.9,1.5L37,8.9l-3.2,0.9l0.9-3.2L36.9,4.2z M31.1,1.8h1.7l1.5,0.9l-0.8,3.2
					l-2.4,2.4l-0.9-3.2L31.1,1.8z M32.8,8.3l-0.5,1.8l-0.7,0.2l-0.2-0.7L32.8,8.3z M29.6,7.4l0.5,1.8l-0.5,0.5l-0.5-0.5L29.6,7.4z
					 M29.5,11.4L29.5,11.4h0.2l0.7-0.7l0.3,1c0,0,0,0.1,0.1,0.1h0.1l0,0l1-0.3l-0.3,1v0.1l0.1,0.1l1,0.3L32,13.7v0.1v0.1l0.7,0.7
					l-1,0.3c-0.1,0-0.1,0.1-0.1,0.2l0.3,1l-1-0.3l0,0c-0.1,0-0.1,0-0.2,0.1l-0.3,1l-0.7-0.7h-0.1h-0.1l-0.7,0.7l-0.3-1
					c0-0.1-0.1-0.1-0.2-0.1l0,0l-1,0.3l0.3-1c0-0.1,0-0.2-0.1-0.2l-1-0.3l0.7-0.7c0.1-0.1,0.1-0.2,0-0.2L26.5,13l1-0.3
					c0,0,0.1,0,0.1-0.1v-0.1l-0.3-1l1,0.3l0,0h0.1l0.1-0.1l0.3-1L29.5,11.4z M26.4,8.3l1.3,1.3l-0.2,0.7l-0.7-0.2L26.4,8.3z
					 M26.4,1.8h1.7L28.9,5L28,8.2l-2.4-2.4l-0.8-3.2L26.4,1.8z M22.6,1.8h1.2L23.5,2c-0.1,0-0.1,0.1-0.1,0.2l0.5,1.9l-1.4-1.4h-0.1
					h-0.1L22,2.9L22.6,1.8z M22.3,4.2l2.3,2.3l0.9,3.2l-3.2-0.9L20,6.5L20.9,5L22.3,4.2z M19.6,1.7C19.6,1.7,19.6,1.8,19.6,1.7
					c0.1,0.1,0.1,0.1,0.2,0.1c0,0,0,0,0.1,0h1.4L20,4.1l-2.4,1.3V2.7l1.3-2.3L19.6,1.7L19.6,1.7z"/>
			</defs>
			<clipPath id="SVGID_2_">
				<use xlink:href="#SVGID_1_"  style="overflow:visible;"/>
			</clipPath>
			<g class="st0">
				<g>
					
						<linearGradient id="SVGID_3_" gradientUnits="userSpaceOnUse" x1="-28.3894" y1="73.3936" x2="73.2106" y2="73.3936" gradientTransform="matrix(-1 0 0 1 73.2 -14.7)">
						<stop  offset="2.770450e-07" style="stop-color:#E3E7FE;stop-opacity:0"/>
						<stop  offset="1" style="stop-color:#E3E7FE"/>
					</linearGradient>
					<rect x="0" y="0" class="st1" width="101.6" height="117.4"/>
				</g>
			</g>
		</g>
	</g>
</g>
<g id="Layer_7">
</g>
</svg>
