<?xml version="1.0" encoding="utf-8"?>
<!-- Generator: Adobe Illustrator 26.3.1, SVG Export Plug-In . SVG Version: 6.00 Build 0)  -->
<svg version="1.1" id="Layer_1" xmlns="http://www.w3.org/2000/svg" xmlns:xlink="http://www.w3.org/1999/xlink" x="0px" y="0px"
	 viewBox="0 0 500 500" style="enable-background:new 0 0 500 500;" xml:space="preserve">
<style type="text/css">
	.st0{fill:#EBEBEB;}
	.st1{fill:#F5F5F5;}
	.st2{fill:#F0F0F0;}
	.st3{fill:#FAFAFA;}
	.st4{fill:#FFFFFF;}
	.st5{fill:#F1F1F1;}
	.st6{fill:#E6E6E6;}
	.st7{fill:#040037;}
	.st8{fill:#D8BB76;}
	.st9{fill:#1F2976;}
	.st10{opacity:0.7;fill:#2F377E;enable-background:new    ;}
	.st11{opacity:0.29;enable-background:new    ;}
	.st12{fill:#FF8B7B;}
	.st13{fill:#263238;}
	.st14{fill:#90CAF9;}
	.st15{fill:#EA7063;}
	.st16{opacity:0.3;enable-background:new    ;}
	.st17{opacity:0.2;enable-background:new    ;}
	.st18{opacity:0.4;enable-background:new    ;}
	.st19{fill:#FF5652;}
	.st20{opacity:0.6;fill:#54B948;enable-background:new    ;}
	.st21{opacity:0.1;enable-background:new    ;}
	.st22{fill:none;stroke:#FFFFFF;stroke-width:13;stroke-linecap:round;stroke-linejoin:round;stroke-miterlimit:10;}
</style>
<g id="freepik--background-complete--inject-175">
	<g id="freepik--group--inject-175">
		<rect y="382.4" class="st0" width="500" height="0.2"/>
		<rect x="52.5" y="391.9" class="st0" width="33.1" height="0.2"/>
		<rect x="171.1" y="389.2" class="st0" width="8.7" height="0.2"/>
		<rect x="86.6" y="401.2" class="st0" width="19.2" height="0.2"/>
		<rect x="406.7" y="399.5" class="st0" width="43.2" height="0.2"/>
		<rect x="391.5" y="399.5" class="st0" width="6.3" height="0.2"/>
		<rect x="277.2" y="395.3" class="st0" width="93.7" height="0.2"/>
		<path class="st0" d="M237,337.8H43.9c-3.2,0-5.7-2.6-5.7-5.7V60.7c0-3.1,2.6-5.7,5.7-5.7H237c3.2,0,5.7,2.6,5.7,5.7c0,0,0,0,0,0
			v271.4C242.7,335.2,240.2,337.8,237,337.8z M43.9,55.2c-3,0-5.5,2.4-5.5,5.5v271.4c0,3,2.4,5.5,5.5,5.5H237c3,0,5.5-2.4,5.5-5.5
			V60.7c0-3-2.4-5.5-5.5-5.5H43.9z"/>
		<path class="st0" d="M453.3,337.8H260.2c-3.2,0-5.7-2.6-5.7-5.7V60.7c0-3.1,2.6-5.7,5.7-5.7h193.1c3.1,0,5.7,2.5,5.7,5.7v271.4
			C459,335.2,456.5,337.8,453.3,337.8z M260.2,55.2c-3,0-5.5,2.4-5.5,5.5v271.4c0,3,2.4,5.5,5.5,5.5h193.1c3,0,5.5-2.4,5.5-5.5V60.7
			c0-3-2.4-5.5-5.5-5.5H260.2z"/>
		<rect x="61.4" y="73.7" class="st0" width="192.9" height="215"/>
		<rect x="64.3" y="73.7" class="st1" width="196.2" height="215"/>
		<rect x="61.4" y="288.7" class="st0" width="192.9" height="11.6"/>
		<rect x="94.1" y="288.7" class="st2" width="196.2" height="11.6"/>
		<rect x="73.1" y="82.4" class="st3" width="178.7" height="197.4"/>
		<polygon class="st4" points="80.3,279.9 131.9,82.4 156.2,82.4 104.7,279.9 		"/>
		<path class="st5" d="M77.2,196c-0.3,0-0.6-0.3-0.6-0.6l0,0V88.2c0-0.3,0.4-0.6,0.7-0.5c0.3,0,0.5,0.3,0.5,0.5v107.2
			C77.8,195.7,77.5,196,77.2,196C77.2,196,77.2,196,77.2,196z"/>
		<polygon class="st4" points="109.9,279.9 161.4,82.4 170.9,82.4 119.4,279.9 		"/>
		<rect x="250.7" y="82.5" class="st0" width="1.1" height="197.4"/>
		<polygon class="st0" points="262.6,91.9 69.7,91.9 68.9,85.9 261.8,85.9 		"/>
		<polygon class="st0" points="262.6,96.4 69.7,96.4 68.9,90.3 261.8,90.3 		"/>
		<polygon class="st0" points="262.6,101.7 69.7,101.7 68.9,95.6 261.8,95.6 		"/>
		<polygon class="st0" points="262.6,107.6 69.7,107.6 68.9,101.6 261.8,101.6 		"/>
		<polygon class="st0" points="262.6,114.8 69.7,114.8 68.9,108.7 261.8,108.7 		"/>
		<polygon class="st0" points="262.6,122.8 69.7,122.8 68.9,116.7 261.8,116.7 		"/>
		<polygon class="st0" points="77.7,275.2 99.2,275.2 99.2,277.4 97.9,277.4 96.7,288.7 80.2,288.7 79,277.4 77.7,277.4 		"/>
		<path class="st0" d="M76.1,255.4L76.1,255.4c-0.3-0.9-0.5-1.9-0.8-2.8c-1.4,1.8-2.8,2.3-3.8,2.3h-0.3c-2-0.2-4-2.2-5.2-5.2
			c-0.1-0.1-0.1-0.2,0-0.4c0.1-0.1,0.2-0.2,0.3-0.2c2.9-0.7,6-0.2,8.6,1.5c-0.2-0.9-0.3-1.8-0.5-2.7c-0.3,0.1-0.7,0.1-1,0.1
			c-3.3,0-5.7-2.9-5.8-3.1c-0.2-0.2-0.1-0.5,0.1-0.6c0,0,0.1,0,0.1-0.1c1.6-0.8,3.4-0.9,5-0.2c0.9,0.4,1.6,1.1,2,2
			c1.3-3.9,4.6-6.7,8.6-7.3c0.2-0.1,0.5,0.1,0.5,0.3c0,0,0,0.1,0,0.1c0.2,3,0.1,6.7-2.2,8.4c-0.9,0.7-2.1,1-3.2,1
			c-1,0-2.1-0.2-3.1-0.5c0.3,2.2,0.8,4.3,1.4,6.4c2.2-3,5.3-5.2,8.9-6.2c0.2-0.1,0.5,0.1,0.5,0.3c0.7,2.6,0.3,4.7-1,6.1
			c-1.4,1.2-3.2,1.9-5,1.7c-1,0-2-0.1-2.9-0.3c0.6,1.8,1.2,3.5,1.8,5.1c1.3-1.2,5.3-4.2,9.6-3c0.1,0,0.2,0.1,0.3,0.2
			c0,0.1,0,0.2,0,0.4c-1.2,2.9-2.5,4.4-4.2,5c-0.4,0.1-0.9,0.2-1.4,0.2c-1.3-0.1-2.5-0.4-3.6-1c0.9,2.2,1.9,4.2,2.8,6
			c1-1.1,3.8-3.4,8.7-2.3c0.2,0,0.4,0.2,0.3,0.5c-0.2,1.9-1.4,3.5-3.1,4.2c-0.6,0.3-1.3,0.4-2,0.4c-1,0-1.9-0.3-2.8-0.7
			c2.2,4,3.9,6.6,4,6.6c0.1,0.2,0,0.5-0.2,0.6c-0.2,0.1-0.4,0-0.5-0.1c-1.7-2.6-3.3-5.3-4.8-8.1c0,0-0.1-0.1-0.1-0.1
			c-0.3-0.5-0.6-1.1-0.9-1.7c-1,1.5-2.7,2.4-4.5,2.5c-0.2,0-0.4,0-0.6,0c-2-0.2-3.7-1.6-4.4-3.5c-0.1-0.2,0-0.4,0.2-0.5
			c2.6-1.5,5.7-1.6,8.4-0.3c-0.6-1.3-1.2-2.7-1.8-4.2c0-0.1-0.1-0.1-0.1-0.2c-0.2-0.4-0.3-0.8-0.5-1.3c-1.4,1.8-2.9,2.7-4.4,2.7l0,0
			c-1.8,0-3.7-1.3-5.6-4.1c-0.1-0.2-0.1-0.5,0.1-0.6c3.1-2.3,7.3-0.7,9.2,0.2c-0.4-1.1-0.8-2.2-1.1-3.3L76.1,255.4z"/>
		<path class="st0" d="M98.7,267.1c-0.7,0.2-1.4,0.3-2.1,0.3c-3.2,0-5.8-2.5-5.8-5.7c0-0.5,0.1-1,0.2-1.5c0-0.2,0.2-0.3,0.5-0.3
			c3.4,0.3,6.5,2.3,8.2,5.3c1-2.2,1.9-4.5,2.7-6.9c-1,0.6-2.2,0.9-3.4,1c-0.5,0-0.9-0.1-1.4-0.2c-2.4-0.8-3.8-3.7-5-6.8
			c-0.1-0.1-0.1-0.2,0-0.4c0.1-0.1,0.2-0.2,0.3-0.2c4.9-1.4,8.8,3.3,10.1,5c0.6-2,1.2-4.1,1.6-6.1c-1,0.2-2.1,0.3-3.1,0.3
			c-2.1,0.1-4.1-0.6-5.7-2c-1.5-1.6-1.8-3.9-1-6.7c0.1-0.2,0.3-0.4,0.5-0.3c0,0,0,0,0,0c3.9,1.2,7.2,3.7,9.6,7l0.2-1.1
			c0-0.1,0.1-0.2,0.1-0.2c0.4-1.4,1.4-2.6,2.7-3.3c1.4-0.7,3.3-0.6,5.4,0.3c0.2,0.1,0.3,0.3,0.2,0.6c0,0,0,0.1-0.1,0.1
			c-0.1,0.1-2.8,3.3-6.4,3.3c-0.4,0-0.8,0-1.1-0.1c-0.2,1-0.3,2.1-0.6,3.1c2.8-1.8,6.2-2.4,9.5-1.5c0.2,0.1,0.4,0.3,0.3,0.5
			c0,0,0,0,0,0c-1.4,3.4-3.6,5.5-5.8,5.7h-0.3c-1.1,0-2.7-0.5-4.2-2.6c-0.6,2.4-1.4,4.7-2.2,7c2.1-1,6.8-2.7,10.2-0.1
			c0.2,0.1,0.2,0.4,0.1,0.6c-2.2,3-4.2,4.4-6.2,4.4l0,0c-1.6,0-3.2-1-4.8-3.1c-0.9,2.2-1.9,4.4-2.8,6.3c2.1-1.3,4.4-1.1,7.1,0.6
			c0.1,0.1,0.2,0.2,0.2,0.4c0,0.1-0.1,0.3-0.2,0.4c-1.6,1.1-3.6,1.7-5.5,1.8c-1,0-2-0.3-2.9-0.9c-1.9,3.6-3.9,7.1-6.2,10.4
			c-0.1,0.1-0.2,0.2-0.4,0.2c-0.1,0-0.2,0-0.3-0.1c-0.2-0.2-0.3-0.4-0.1-0.7c0,0,0,0,0,0C93.7,276.6,96.4,271.9,98.7,267.1z"/>
		<rect x="382.2" y="150.6" class="st0" width="45.2" height="49.7"/>
		<path class="st0" d="M422.7,153.8c0,0-0.1,0-0.1,0c-0.1-0.1-12.2-7.2-16-7.2s-15.4,7.2-15.5,7.2c-0.1,0.1-0.3,0-0.4-0.1
			c-0.1-0.1,0-0.3,0.1-0.3c0,0,0,0,0,0c0.5-0.3,11.8-7.3,15.7-7.3s15.8,7,16.3,7.3c0.1,0.1,0.2,0.2,0.1,0.4
			C422.9,153.8,422.8,153.8,422.7,153.8z"/>
		<rect x="385.6" y="150.6" class="st1" width="46.7" height="49.7"/>
		<rect x="389.5" y="154.5" class="st4" width="38.9" height="41.9"/>
		<path class="st1" d="M410,180.5c-0.6,0-1.2,0.1-1.9,0.2c0.2-0.5,0.2-1.1,0.2-1.6c0-1.4-0.5-2.7-1.4-3.7c0.4,0.1,0.9,0.2,1.4,0.2
			c2.7,0,4.8-2.1,4.9-4.8s-2.1-4.8-4.8-4.9c-2.7,0-4.8,2.1-4.9,4.8c0,1.1,0.3,2.1,1,2.9c-3-1.1-6.3,0.4-7.4,3.4s0.4,6.3,3.4,7.4
			c0.6,0.2,1.2,0.3,1.9,0.3c-0.8,1.3-1.2,2.8-1.2,4.4c0,4.8,3.9,8.7,8.7,8.7c4.8,0,8.7-3.9,8.7-8.7
			C418.7,184.4,414.8,180.5,410,180.5z"/>
		<path class="st1" d="M401.6,161.9c0,2.6-2.1,4.8-4.8,4.8s-4.8-2.1-4.8-4.8c0-2.6,2.1-4.8,4.8-4.8c0,0,0,0,0,0
			C399.5,157.2,401.6,159.3,401.6,161.9z"/>
		<rect x="315" y="103.5" class="st0" width="51.1" height="56.2"/>
		<path class="st0" d="M359.8,105.8c0,0-0.1,0-0.1,0c-0.1-0.1-12.2-7.3-16-7.3s-15.4,7.2-15.5,7.2c-0.1,0.1-0.3,0-0.3-0.1
			c0,0,0,0,0,0c-0.1-0.1,0-0.3,0.1-0.3c0.5-0.3,11.8-7.3,15.7-7.3s15.8,7,16.3,7.3c0.1,0.1,0.2,0.2,0.1,0.3c0,0,0,0,0,0
			C360,105.7,359.9,105.8,359.8,105.8z"/>
		<rect x="318.8" y="103.5" class="st1" width="52.8" height="56.2"/>
		<rect x="323.3" y="107.9" class="st4" width="44" height="47.3"/>
		<path class="st1" d="M328.8,113.1h0.8c0.9,0,1.6,0.7,1.6,1.6v41.8c0,0.9-0.7,1.6-1.6,1.6h-0.8c-0.9,0-1.6-0.7-1.6-1.6v-41.8
			C327.2,113.8,327.9,113.1,328.8,113.1z"/>
		<path class="st1" d="M342.4,135.6h-2.8h-0.3v-8.8c0-0.9-0.7-1.6-1.6-1.6h-2.8c-0.9,0-1.6,0.7-1.6,1.6v29.6c0,0.9,0.7,1.6,1.6,1.6
			h2.8c0.3,0,0.7-0.1,0.9-0.3c0.3,0.2,0.6,0.3,0.9,0.3h2.8c0.9,0,1.6-0.7,1.6-1.6v-19.3C343.9,136.3,343.2,135.6,342.4,135.6z"/>
		<path class="st1" d="M347.3,123.7h10.3c0.9,0,1.6,0.7,1.6,1.6v31.2c0,0.9-0.7,1.6-1.6,1.6h-10.3c-0.9,0-1.6-0.7-1.6-1.6v-31.2
			C345.7,124.4,346.5,123.7,347.3,123.7z"/>
		<circle class="st1" cx="360.1" cy="115" r="4.9"/>
		<path class="st0" d="M183.1,275.2c0,7.5,8.1,13.5,18,13.5s18-6,18-13.5H183.1z"/>
	</g>
</g>
<g id="freepik--Shadow--inject-175">
	<ellipse id="freepik--path--inject-175" class="st1" cx="250" cy="416.2" rx="193.9" ry="11.3"/>
</g>
<g id="freepik--speech-bubble--inject-175">
	<g id="freepik--group--inject-175_00000134963331717041191690000005296983799012429997_">
		<ellipse class="st6" cx="342.6" cy="416.2" rx="18.1" ry="1.1"/>
		<g id="freepik--group--inject-175_00000031895116813765519810000001479785180566014361_">
			<path class="st7" d="M377.8,390h-158c-15.4,0-27.8-12.5-27.8-27.8v-89.3c0-15.4,12.5-27.8,27.8-27.8h158
				c15.4,0,27.8,12.5,27.8,27.8v89.3C405.7,377.5,393.2,390,377.8,390z"/>
			<polygon id="freepik--path--inject-175_00000067921323538913055230000014947509421581843096_" class="st7" points="350.3,416.2 
				335.4,416.2 305,344.3 327.9,344.3 			"/>
		</g>
		<g id="freepik--group--inject-175_00000038410743927629420190000004860731909247934623_">
			<g id="freepik--group--inject-175_00000014601543159547582770000001759524844008299956_">
				<rect x="409.2" y="310.2" class="st8" width="1" height="7.3"/>
			</g>
			<g id="freepik--group--inject-175_00000015328378376848735330000009708840220257572747_">
				<rect x="409.2" y="278.9" class="st8" width="1" height="26.3"/>
			</g>
			<g id="freepik--group--inject-175_00000158711412574177591640000017743729672681086121_">
				<rect x="269.6" y="240.5" class="st8" width="13.6" height="1"/>
			</g>
			<g id="freepik--group--inject-175_00000103966434693636709540000009938998652724528804_">
				<polygon class="st9" points="391.4,344.3 350.3,416.2 319.9,344.3 				"/>
			</g>
			<g id="freepik--group--inject-175_00000116226186935495055680000013236651504502169220_">
				<path id="freepik--rectangle--inject-175" class="st9" d="M377.9,390H232.4c-15.4,0-27.8-12.5-27.8-27.8v-89.3
					c0-15.4,12.5-27.8,27.8-27.8h145.4c15.4,0,27.8,12.5,27.8,27.8v89.3C405.7,377.5,393.2,390,377.9,390z"/>
			</g>
			<g id="freepik--group--inject-175_00000013167154062998987740000002728708301065236610_">
				<polygon class="st10" points="282.8,390 256.1,390 284.3,245 310.9,245 				"/>
				<polygon class="st10" points="306.8,390 291.6,390 319.8,245 334.9,245 				"/>
			</g>
		</g>
		<g id="freepik--group--inject-175_00000046328149227882702400000011011007427815994282_">
			<path id="freepik--path--inject-175_00000083804744415182194150000010609010296308149947_" class="st4" d="M369.6,291.8h-73.9
				c-4.3-0.2-7.6-3.7-7.4-8c0.1-4,3.4-7.3,7.4-7.4h73.9c4.3-0.2,7.8,3.2,8,7.4c0.2,4.3-3.2,7.8-7.4,8
				C370,291.8,369.8,291.8,369.6,291.8z"/>
			<path id="freepik--path--inject-175_00000066480058894778240850000013035220611429982640_" class="st4" d="M270.4,291.8h-33.5
				c-4.3-0.2-7.6-3.7-7.4-8c0.1-4,3.4-7.3,7.4-7.4h33.5c4.3-0.2,7.8,3.2,8,7.4c0.2,4.3-3.2,7.8-7.4,8
				C270.7,291.8,270.6,291.8,270.4,291.8z"/>
			<path id="freepik--path--inject-175_00000078751804136748851990000009071460332677734038_" class="st4" d="M369.6,324.3H244.7
				c-4.3-0.2-7.6-3.7-7.4-8c0.1-4,3.4-7.3,7.4-7.4h124.9c4.3-0.2,7.8,3.2,8,7.4c0.2,4.3-3.2,7.8-7.4,8
				C370,324.3,369.8,324.3,369.6,324.3z"/>
			<path id="freepik--path--inject-175_00000096748447344701006250000006073728334605693849_" class="st4" d="M369.6,356.8h-57.9
				c-4.3-0.2-7.6-3.7-7.4-8c0.1-4,3.4-7.3,7.4-7.4h57.9c4.3-0.2,7.8,3.2,8,7.4c0.2,4.3-3.2,7.8-7.4,8
				C370,356.8,369.8,356.8,369.6,356.8z"/>
		</g>
		<path id="freepik--path--inject-175_00000171689634999143927940000004207072213333760405_" class="st11" d="M240.7,245
			c0,0-11.1,59.8-11.1,85.1c0,25.9,9.1,59.9,9.1,59.9h-29.2l-1.9-32.8c-1.8-30.7,1.2-61.5,9-91.2l5.5-21L240.7,245z"/>
	</g>
</g>
<path id="freepik--path--inject-175_00000038385990987868893240000003878213633250963641_" class="st6" d="M225.5,416.2
	c0,1.2-16.4,2.1-36.6,2.1s-36.6-1-36.6-2.1s16.4-2.1,36.6-2.1S225.5,415.1,225.5,416.2z"/>
<path id="freepik--path--inject-175_00000035516415887094042390000009735810363180649903_" class="st12" d="M212.9,167.7
	c-3.1,0.5-6,0.7-9,1s-6,0.2-9,0.2c-6.1,0-12.2-0.7-18.2-2c-1.9-0.5-3.7-1.4-5.2-2.6c-1.3-1-2.5-2.1-3.7-3.3c-2.1-2.2-4-4.6-5.8-7.1
	c-3.4-4.8-6.5-9.9-9.2-15.2l3.8-2.2c1.7,2.3,3.4,4.6,5.2,6.8s3.6,4.4,5.4,6.5c1.8,2.1,3.7,4,5.8,5.9c0.9,0.8,1.9,1.6,3,2.3
	c0.8,0.5,1.6,0.9,2.5,1.2c2.7,0.4,5.4,0.8,8.1,0.9c2.8,0.1,5.5,0.2,8.3,0.1s5.6-0.2,8.4-0.4s5.6-0.5,8.3-0.8L212.9,167.7z"/>
<path id="freepik--path--inject-175_00000010284939642695407940000015239067966440605350_" class="st13" d="M221.9,159.6
	c-7.6-4.6-17.9-1.3-17.9-1.3l5.2,18c0,0,8.2-2.3,11.5-5.8C224.1,166.9,226.5,162.4,221.9,159.6z"/>
<path id="freepik--path--inject-175_00000073691242619686224540000003720153894472660142_" class="st12" d="M157.3,138.4l1.8-6.2
	l-8.7,1.1c0.6,2.5,1.6,4.8,3.2,6.8L157.3,138.4z"/>
<polygon id="freepik--path--inject-175_00000104705371339441336060000012578717008969065088_" class="st12" points="158.5,125 
	151.3,126.3 150.4,133.3 159.1,132.2 "/>
<path id="freepik--path--inject-175_00000008133647246805233090000011941116080299599237_" class="st13" d="M257.5,102.8
	c7.7,0.2,5.5,6.6,5.5,6.6s8.4-5.3,11.1,0.9s-3.4,8.2-6.9,9.1c2.2,1.3,2.3,5.4-0.8,6.7s-8.3-2.4-12.2-2.3l-3.9-4.6
	C255.6,115.8,249.8,102.6,257.5,102.8z"/>
<path id="freepik--path--inject-175_00000029041980696847512240000003874898951895818159_" class="st14" d="M256.3,126.9
	c3.4,0.6,5.8,0.2,5.1-3.5c-0.9-4.2-3.8-7.6-7.8-9.2c-4.2-1.6-5.2,5.4-5.2,5.4L256.3,126.9z"/>
<polygon id="freepik--path--inject-175_00000183956572766350505400000002671972768146400653_" class="st12" points="158,386.1 
	149.4,385.1 151.1,365.2 159.7,366.1 "/>
<polygon id="freepik--path--inject-175_00000060743146665196047780000005252120909545324731_" class="st12" points="214.8,409.4 
	206.2,409 204.4,388.9 213,389.3 "/>
<path id="freepik--path--inject-175_00000123419928291362289430000004762574827780721836_" class="st13" d="M205.9,406.4h9.7
	c0.3,0,0.6,0.2,0.7,0.6l1.1,7.7c0.1,0.8-0.5,1.4-1.2,1.5c-0.1,0-0.1,0-0.2,0c-3.4-0.1-5-0.2-9.3-0.2c-2.6,0-6.5,0.3-10.1,0.3
	s-3.8-3.6-2.3-3.9c6.8-1.5,7.8-3.5,10.1-5.4C204.8,406.6,205.4,406.4,205.9,406.4z"/>
<path id="freepik--path--inject-175_00000128485208000734191130000000520638029205850798_" class="st13" d="M149.1,381.9l9.6-1.1
	c0.3,0,0.7,0.2,0.8,0.5l2,7.5c0.2,0.7-0.3,1.5-1.1,1.7c0,0-0.1,0-0.1,0c-3.4,0.3-5,0.3-9.2,0.8c-2.6,0.3-8,1.2-11.6,1.6
	s-4.2-3.1-2.8-3.6c6.6-2.2,8.9-4.5,11-6.7C148.1,382.3,148.6,382,149.1,381.9z"/>
<polygon id="freepik--path--inject-175_00000165926375578099650830000007250146401603535530_" class="st15" points="151.1,365.2 
	150.2,375.4 158.8,376.4 159.7,366.1 "/>
<polygon id="freepik--path--inject-175_00000073723918424477636710000016037317087621145987_" class="st15" points="213,389.3 
	204.4,388.9 205.3,399.3 213.9,399.7 "/>
<path id="freepik--path--inject-175_00000145051345483111330390000000067365084942284672_" class="st13" d="M213.6,157.3
	c0,0-4.4,0.3-10.2,51.2l33.7,9.6c3.3-13.9,5.7-22.4,20.3-48.7c-4.4-2.3-9.1-4.3-13.8-6c-5-1.8-10.1-3.3-15.3-4.3
	C221.5,157.9,213.6,157.3,213.6,157.3z"/>
<path id="freepik--path--inject-175_00000121976421411786371740000002495111576967247014_" class="st12" d="M246.9,145.8
	c-2.4,4.6-5.9,13.4-3.4,17.7c0,0-2.8,4.6-11.9,2c-10.1-2.9-3.4-6.4-3.4-6.4c5.9,0.2,6.9-3.9,7-8L246.9,145.8z"/>
<path id="freepik--path--inject-175_00000169532055735150876820000011793080111059906439_" class="st12" d="M218.8,157.8
	c2.8,0.3,6.2,0.8,9.4,1.4c5.2,1.1,10.3,2.5,15.3,4.3c2.9,1,5.6,2.1,7.9,3.1c-0.5,1.7-3.8,10.4-23.5,5.4
	C209.7,167.3,216.7,159.5,218.8,157.8z"/>
<path id="freepik--path--inject-175_00000046324472333714846830000016321705695536620948_" class="st15" d="M242.1,148l-6.9,3.2
	c0,1-0.1,1.9-0.3,2.9c2.2,0.3,5.9-0.7,6.7-2.8C242,150.2,242.2,149.1,242.1,148z"/>
<path id="freepik--path--inject-175_00000176003149980825458400000007308700170460852615_" class="st12" d="M251.3,134.9
	c-2.1,8.3-2.8,11.9-7.8,15.4c-7.6,5.3-17.4,1-17.8-7.8c-0.4-7.9,3-20.2,11.9-22c6.3-1.3,12.5,2.7,13.9,9
	C251.8,131.3,251.7,133.1,251.3,134.9z"/>
<path id="freepik--path--inject-175_00000145779837967567728150000006151226356218936494_" class="st13" d="M248.6,142.9
	c-2.5-1.3-4.5-5-0.9-8.4c0,0-5-2.9-2.5-6.8s12.5-7.2,14.1-1.9s-3.3,7.4-3.3,7.4s4,6.1-3.2,8.1c0,0-0.6,8.8-5.8,4.9L248.6,142.9z"/>
<path id="freepik--path--inject-175_00000152253726452878022250000017164373439256919717_" class="st12" d="M251.2,142.7
	c-0.5,1.6-1.6,2.9-3,3.7c-1.9,1-3.4-0.6-3.2-2.7c0.1-1.9,1.3-4.7,3.4-4.8c1.5-0.1,2.9,1.1,3,2.6C251.4,142,251.3,142.4,251.2,142.7z
	"/>
<path id="freepik--path--inject-175_00000052826834659884598330000016897478887420549760_" class="st8" d="M203.3,208.6
	c0,0-39.2,46.2-45.8,71.7c-6.9,26.5-10,92-10,92L161,374c0,0,9-59.9,20.3-84.4c12.1-26,46.8-74.1,46.8-74.1L203.3,208.6z"/>
<polygon id="freepik--path--inject-175_00000123419689367618460100000015917655034484050835_" class="st14" points="162.8,374.2 
	145.6,372 145.4,367.3 164.2,371.1 "/>
<polygon id="freepik--path--inject-175_00000037682141818620103790000001322660967726815645_" class="st16" points="162.8,374.2 
	145.6,372 145.4,367.3 164.2,371.1 "/>
<path id="freepik--path--inject-175_00000059308464604578598320000015821644223830446226_" class="st17" d="M202.7,229.6
	c-3.2,11.4-5.6,22.9-7.2,34.6c3.6-5.8,7.4-11.7,11-17.2c1.3-2.9,2.7-5.9,4-8.7c0,0,0-0.1,0-0.1L202.7,229.6z"/>
<path id="freepik--path--inject-175_00000153670218475557412720000000759105031304624019_" class="st8" d="M212.2,211.1
	c0,0-11.3,58.4-15.4,91.9c-3.3,27.1,7.1,92.8,7.1,92.8l11.2,0.7c0,0-2.4-58.7,2.9-85c13.2-66.4,25.6-75.3,19-93.4L212.2,211.1z"/>
<polygon id="freepik--path--inject-175_00000132800455823350644720000002674576623887186864_" class="st14" points="216.6,396.6 
	202,395.7 201.3,391.6 217.1,393.2 "/>
<polygon id="freepik--path--inject-175_00000036226911310480514520000005066458343172721812_" class="st16" points="216.6,396.6 
	202,395.7 201.3,391.6 217.1,393.2 "/>
<path id="freepik--path--inject-175_00000153696526520397714680000008169149840567912617_" class="st14" d="M238.1,216.3l0.7,3.4
	c0.1,0.3-0.3,0.4-0.7,0.3l-35.4-10c-0.3-0.1-0.5-0.3-0.5-0.5l0.6-3.1c0-0.2,0.4-0.3,0.7-0.2l34.2,9.7
	C237.9,216,238,216.1,238.1,216.3z"/>
<path id="freepik--path--inject-175_00000100346715030916909520000009675150414413214121_" class="st18" d="M238.1,216.3l0.7,3.4
	c0.1,0.3-0.3,0.4-0.7,0.3l-35.4-10c-0.3-0.1-0.5-0.3-0.5-0.5l0.6-3.1c0-0.2,0.4-0.3,0.7-0.2l34.2,9.7
	C237.9,216,238,216.1,238.1,216.3z"/>
<path id="freepik--path--inject-175_00000155845032814505212360000010185708961353322369_" class="st14" d="M232.5,218.8l0.9,0.3
	c0.2,0.1,0.4,0,0.4-0.1l0.7-4c0-0.1-0.1-0.3-0.3-0.3l-0.9-0.3c-0.2-0.1-0.3,0-0.4,0.1l-0.7,4C232.1,218.6,232.3,218.8,232.5,218.8z"
	/>
<path id="freepik--path--inject-175_00000116209135052795198840000008223510564644043416_" class="st14" d="M205.2,211.1l0.9,0.3
	c0.2,0.1,0.4,0,0.4-0.1l0.7-4c0-0.1-0.1-0.2-0.3-0.3l-0.9-0.3c-0.2-0.1-0.4,0-0.4,0.1l-0.7,4C204.9,210.9,205,211,205.2,211.1z"/>
<path id="freepik--path--inject-175_00000068641308484135827930000012571406611056043193_" class="st14" d="M218.8,215l0.9,0.3
	c0.2,0,0.4,0,0.4-0.1l0.7-4c0-0.1-0.1-0.3-0.3-0.3l-0.9-0.3c-0.2-0.1-0.4,0-0.4,0.1l-0.7,4C218.5,214.8,218.6,214.9,218.8,215z"/>
<path id="freepik--path--inject-175_00000166670715793541031900000004330261513717676961_" class="st13" d="M238.1,134.9
	c-0.1,0.7-0.6,1.2-1,1.1s-0.7-0.7-0.6-1.4s0.6-1.2,1-1.1S238.2,134.2,238.1,134.9z"/>
<path id="freepik--path--inject-175_00000150077876713010984450000015452487063830812034_" class="st13" d="M230.4,133.5
	c-0.1,0.7-0.6,1.2-1,1.1s-0.7-0.7-0.6-1.4s0.6-1.2,1-1.1S230.5,132.8,230.4,133.5z"/>
<path id="freepik--path--inject-175_00000163782790385728028830000017091983621395717513_" class="st13" d="M230,132.2l-1.6-0.8
	C228.4,131.4,229,132.8,230,132.2z"/>
<path id="freepik--path--inject-175_00000135674459193278671400000017609771297322844848_" class="st19" d="M232.2,135
	c-0.9,1.4-2,2.8-3.2,3.9c0.6,0.6,1.5,1,2.4,0.9L232.2,135z"/>
<path id="freepik--path--inject-175_00000114779904568895884500000009918427927841276319_" class="st13" d="M234.4,143.1
	c-0.4,0-0.8,0-1.2-0.1c-0.1,0-0.2-0.1-0.2-0.2c0-0.1,0.1-0.2,0.2-0.2c1.7,0.4,3.5-0.1,4.8-1.3c0.1-0.1,0.2-0.1,0.3,0
	c0.1,0.1,0.1,0.2,0,0.3C237.3,142.6,235.9,143.1,234.4,143.1z"/>
<path id="freepik--path--inject-175_00000064346390996083970720000003773311416873285023_" class="st13" d="M241,132.8
	c-0.2,0-0.3-0.1-0.4-0.2c-0.4-0.9-1.3-1.6-2.3-1.8c-0.2,0-0.4-0.2-0.4-0.4c0-0.2,0.2-0.4,0.4-0.4c0,0,0.1,0,0.1,0
	c1.3,0.2,2.4,1.1,3,2.3c0.1,0.2,0,0.4-0.2,0.6C241.2,132.8,241.1,132.8,241,132.8z"/>
<path id="freepik--path--inject-175_00000018924380428245863730000013480473821172802945_" class="st13" d="M227.6,129.3
	c-0.1,0-0.2,0-0.3-0.1c-0.2-0.2-0.2-0.4,0-0.6c0,0,0,0,0,0c0.9-1,2.2-1.4,3.5-1.3c0.2,0,0.4,0.3,0.3,0.5c0,0.2-0.2,0.4-0.5,0.3
	c0,0,0,0,0,0c-1-0.1-2.1,0.2-2.8,1C227.8,129.2,227.7,129.3,227.6,129.3z"/>
<path id="freepik--path--inject-175_00000003067109761652519530000017581858598877296050_" class="st12" d="M258.4,178.9
	c0.7,3.1,1.1,5.9,1.5,8.9s0.6,6,0.8,8.9c0.4,6.1,0,12.2-0.9,18.2c-0.4,1.9-1.2,3.7-2.3,5.4c-0.9,1.4-1.9,2.6-3,3.9
	c-2.1,2.2-4.3,4.3-6.7,6.3c-4.6,3.7-9.5,7.1-14.6,10.1l-2.5-3.6c2.2-1.8,4.4-3.7,6.5-5.6s4.2-3.8,6.2-5.8c2-1.9,3.8-4,5.5-6.1
	c0.8-1,1.5-2,2.1-3.1c0.5-0.8,0.8-1.7,1-2.6c0.3-2.7,0.4-5.4,0.4-8.1c0-2.8-0.1-5.5-0.4-8.3s-0.5-5.6-0.9-8.3s-0.8-5.6-1.3-8.2
	L258.4,178.9z"/>
<path id="freepik--path--inject-175_00000060740753971722131060000001060881686761279890_" class="st13" d="M257.3,169.5
	c3.1,2,3.9,14.8,3.9,14.8l-15.8,5.7c0,0-2-11.1,0.6-15C248.8,170.7,253.8,167.2,257.3,169.5z"/>
<path class="st14" d="M202.9,407.9c-0.6,0.1-1.2-0.1-1.6-0.5c-0.3-0.3-0.4-0.7-0.3-1.1c0-0.3,0.2-0.5,0.4-0.6c1-0.5,3.6,1.2,3.9,1.4
	c0.1,0,0.1,0.1,0.1,0.2c0,0.1-0.1,0.1-0.2,0.2C204.5,407.8,203.7,407.9,202.9,407.9z M201.8,406.1c-0.1,0-0.2,0-0.3,0
	c-0.1,0-0.2,0.1-0.2,0.3c-0.1,0.3,0,0.5,0.2,0.7c0.4,0.4,1.6,0.5,3.1,0.1C203.8,406.7,202.8,406.3,201.8,406.1z"/>
<path class="st14" d="M205.2,407.6c0,0-0.1,0-0.1,0c-0.8-0.5-2.4-2.3-2.2-3.3c0.1-0.3,0.4-0.6,0.7-0.6c0.3,0,0.6,0.1,0.9,0.3
	c0.9,0.8,1,3.3,1,3.4c0,0.1,0,0.1-0.1,0.2C205.3,407.7,205.2,407.7,205.2,407.6z M203.7,404.1h-0.1c-0.3,0-0.3,0.1-0.3,0.2
	c-0.1,0.6,0.9,2,1.7,2.6c0-1-0.3-1.9-0.8-2.7C204,404.2,203.9,404.1,203.7,404.1z"/>
<path class="st14" d="M145.3,383.9c-0.5,0-1-0.1-1.4-0.3c-0.3-0.2-0.5-0.6-0.5-0.9c0-0.2,0.1-0.5,0.3-0.6c1-0.7,4.6,0.6,5,0.8
	c0.1,0,0.1,0.1,0.1,0.2c0,0.1-0.1,0.2-0.1,0.2C147.6,383.6,146.5,383.8,145.3,383.9z M144.6,382.2c-0.2,0-0.4,0-0.6,0.1
	c-0.1,0.1-0.1,0.1-0.1,0.2c0,0.2,0.1,0.5,0.3,0.6c0.6,0.4,2,0.3,3.9-0.2C146.9,382.6,145.8,382.3,144.6,382.2z"/>
<path class="st14" d="M148.7,383.2L148.7,383.2c-1.1-0.3-3.4-2-3.3-2.9c0-0.2,0.1-0.5,0.7-0.7c0.4-0.1,0.8,0,1.2,0.2
	c1.2,0.8,1.6,3,1.7,3.1c0,0.1,0,0.1-0.1,0.2C148.8,383.2,148.7,383.2,148.7,383.2z M146.4,380c-0.1,0-0.2,0-0.2,0
	c-0.4,0.1-0.4,0.2-0.4,0.3c0,0.6,1.5,1.9,2.6,2.4c-0.2-1-0.7-1.8-1.4-2.5C146.8,380,146.6,380,146.4,380L146.4,380z"/>
<path class="st20" d="M185.5,130.5c-35.9-8.3-71.7,14-80,49.8c-2.9,12.4-2.2,25.3,2,37.2l10,18.4c22.4,29.3,64.2,34.9,93.5,12.5
	s34.9-64.2,12.5-93.5C214.1,142.6,200.6,134,185.5,130.5L185.5,130.5z"/>
<path class="st21" d="M185.5,130.5c-2.3,0-4.9-1-7.2-1.3c-2.5-0.3-5-0.5-7.4-0.5c-4.9,0-9.7,0.5-14.5,1.5c-9.4,2-18.2,6.1-25.9,11.8
	c-16.8,12.6-26.5,32.4-26.7,53.4c-0.2,16.7,7,33,18,45.3c11.7,13.1,28.1,20.5,45.6,21.3c3.7,0.2,7.5,0.1,11.2-0.4
	c11.8-1.4,23-6,32.4-13.2c29.3-22.4,34.9-64.2,12.5-93.5C214.1,142.6,200.6,134,185.5,130.5C185.5,130.5,185.5,130.5,185.5,130.5z"
	/>
<path id="freepik--path--inject-175_00000059288876088077977270000014524261620849428640_" class="st12" d="M232.5,236.2l-7.6-4.3
	l1.6,8.6c0,0,5.3,1.7,7.9-0.7L232.5,236.2z"/>
<polygon id="freepik--path--inject-175_00000031914638990666510850000008783342098275976065_" class="st12" points="217.7,233 
	219.5,240.2 226.5,240.6 224.9,231.9 "/>
<path id="freepik--path--inject-175_00000161599548016055028920000017832495806570830769_" class="st13" d="M237.7,133.6l-1.6-0.8
	C236.2,132.8,236.8,134.2,237.7,133.6z"/>
<path id="freepik--path--inject-175_00000098908274413910105160000007880019475027234992_" class="st13" d="M248.4,129.6
	c-4.3-0.3-7.4-2.2-7.8-4.6c0,0-9.8,4.1-13.8-2c0,0-4.5,0.7-5.6-2.4s3.6-4,5.8-2.6c0,0-6.8-6,0.2-7.7s8.5,4,8.5,4s2.8-8.3,9-4.6
	s2.4,7.2,2.4,7.2s14.8,1.2,9.3,7C250.8,129.9,248.4,129.6,248.4,129.6z"/>
<path id="freepik--path--inject-175_00000148659506387093345900000006448078426192438966_" class="st13" d="M243.1,158.4
	c0.8,0.1,0.5,3,0.1,3.2c-0.9,0.5-11.4-1.7-11-3.3c0.4-0.8,0.9-1.5,1.5-2.1C234.1,155.9,235.7,157.8,243.1,158.4z"/>
<g id="freepik--quotation-marks--inject-175">
	<g id="freepik--group--inject-175_00000081639747987971678750000005017508272909467071_">
		<path class="st8" d="M297.8,181.3c-9.2,0-16.8,7.4-16.8,16.7c0,8.4,6.1,15.5,14.4,16.6c0.1,4.2-1.4,8.3-4.2,11.5
			c0,0,23.3-5.8,23.3-28.1C314.5,188.8,307,181.3,297.8,181.3L297.8,181.3z"/>
		<path class="st8" d="M335.5,181.3c-9.2,0-16.8,7.4-16.8,16.7c0,8.4,6.1,15.5,14.4,16.6c0.1,4.2-1.4,8.3-4.1,11.5
			c0,0,23.3-5.8,23.3-28.1C352.3,188.8,344.8,181.3,335.5,181.3C335.5,181.3,335.5,181.3,335.5,181.3z"/>
	</g>
</g>
<polyline class="st22" points="143.9,178.3 140.4,226.3 217.5,173.5 "/>
</svg>
