<?xml version="1.0" encoding="utf-8"?>
<!-- Generator: Adobe Illustrator 25.3.0, SVG Export Plug-In . SVG Version: 6.00 Build 0)  -->
<svg version="1.1" id="Layer_1" xmlns="http://www.w3.org/2000/svg" xmlns:xlink="http://www.w3.org/1999/xlink" x="0px" y="0px"
	 viewBox="0 0 90 90" style="enable-background:new 0 0 90 90;" xml:space="preserve">
<style type="text/css">
	.st0{fill:#FFFFFF;stroke:#595682;stroke-width:2;stroke-linecap:round;stroke-linejoin:round;}
	.st1{fill:#F6E9D1;}
	.st2{fill:none;stroke:#595682;stroke-width:2;stroke-linecap:round;stroke-linejoin:round;}
	.st3{fill:none;stroke:#595682;stroke-width:2;stroke-linecap:round;stroke-linejoin:round;stroke-dasharray:4.0012,4.0012;}
	.st4{fill:none;stroke:#595682;stroke-width:2;stroke-linecap:round;stroke-linejoin:round;stroke-dasharray:4.0703,4.0703;}
	.st5{fill:none;stroke:#595682;stroke-width:2;stroke-linecap:round;stroke-linejoin:round;stroke-dasharray:3.6563,3.6563;}
	.st6{fill:none;stroke:#595682;stroke-width:2;stroke-linecap:round;stroke-linejoin:round;stroke-dasharray:3.8306,3.8306;}
	.st7{fill:#FFFFFF;stroke:#595682;stroke-width:1.5;stroke-linecap:round;stroke-linejoin:round;}
	.st8{fill:#595682;}
	.st9{fill:#FFFFFF;stroke:#595682;stroke-width:2;stroke-miterlimit:10;}
	.st10{fill:none;stroke:#FF1755;stroke-width:2;stroke-linecap:round;stroke-miterlimit:10;}
	.st11{fill:#FFFFFF;}
</style>
<path class="st0" d="M22,11.1h36c2.7,0,4.9,2.2,4.9,4.9v47.4c0,2.7-2.2,4.9-4.9,4.9H22c-2.7,0-4.9-2.2-4.9-4.9V16
	C17.1,13.3,19.3,11.1,22,11.1z"/>
<g>
	<path class="st1" d="M70.7,75.3h-44c-1.1,0-2-0.9-2-2v-53c0-1.1,0.9-2,2-2h34.9l11.1,11.3v43.7C72.7,74.4,71.8,75.3,70.7,75.3z"/>
	<g>
		<path class="st2" d="M72.7,73.3L72.7,73.3c0,1.1-0.9,2-2,2h0"/>
		<line class="st3" x1="66.7" y1="75.3" x2="28.7" y2="75.3"/>
		<path class="st2" d="M26.7,75.3L26.7,75.3c-1.1,0-2-0.9-2-2v0"/>
		<line class="st4" x1="24.7" y1="69.2" x2="24.7" y2="22.4"/>
		<path class="st2" d="M24.7,20.3L24.7,20.3c0-1.1,0.9-2,2-2h0"/>
		<line class="st5" x1="30.3" y1="18.3" x2="57.7" y2="18.3"/>
		<path class="st2" d="M59.6,18.3h1.1c0.6,0,1.1,0.2,1.5,0.6l0.8,0.9"/>
		<path class="st6" d="M65.7,22.5l6.4,6.5c0.4,0.4,0.6,0.9,0.6,1.4v40.9"/>
	</g>
</g>
<line class="st2" x1="19.3" y1="1.4" x2="19.3" y2="8"/>
<line class="st2" x1="7.6" y1="12.6" x2="14.2" y2="12.6"/>
<line class="st2" x1="10.9" y1="4.3" x2="15.6" y2="9"/>
<rect x="33.8" y="28.8" class="st7" width="30" height="38.5"/>
<line class="st7" x1="33.8" y1="36.8" x2="62.8" y2="36.8"/>
<line class="st7" x1="44.8" y1="67.2" x2="44.8" y2="28.8"/>
<line class="st7" x1="33.8" y1="44.8" x2="62.8" y2="44.8"/>
<line class="st7" x1="33.8" y1="52.8" x2="62.8" y2="52.8"/>
<line class="st7" x1="33.8" y1="60.2" x2="62.8" y2="60.2"/>
<path class="st8" d="M89.2,87.8l-1.6,1.6c-0.8,0.8-2,0.8-2.8,0l-9.1-9.2c-0.4-0.4-0.4-1,0-1.4l3-3c0.4-0.4,1-0.4,1.4,0l9.1,9.2
	C90,85.8,90,87.1,89.2,87.8z"/>
<rect x="73.6" y="71.1" transform="matrix(0.7071 -0.7071 0.7071 0.7071 -31.0558 74.952)" class="st8" width="2.7" height="7.7"/>
<circle class="st9" cx="65.3" cy="64.1" r="13.4"/>
<g>
	<line class="st10" x1="60.8" y1="68.6" x2="69.9" y2="59.6"/>
	<line class="st10" x1="69.9" y1="68.6" x2="60.8" y2="59.6"/>
</g>
<path class="st11" d="M88.8,86.2L88.8,86.2c-0.1,0.1-0.3,0.1-0.4,0l-9.1-9.1c-0.1-0.1-0.1-0.3,0-0.4l0,0c0.1-0.1,0.3-0.1,0.4,0
	l9.1,9.1C88.9,85.9,88.9,86.1,88.8,86.2z"/>
</svg>
