<?xml version="1.0" encoding="utf-8"?>
<!-- Generator: Adobe Illustrator 26.3.1, SVG Export Plug-In . SVG Version: 6.00 Build 0)  -->
<svg version="1.1" id="Layer_1" xmlns="http://www.w3.org/2000/svg" xmlns:xlink="http://www.w3.org/1999/xlink" x="0px" y="0px"
	 viewBox="0 0 114 113.9" style="enable-background:new 0 0 114 113.9;" xml:space="preserve">
<style type="text/css">
	.st0{opacity:0.49;}
	.st1{fill:#D3B366;}
	.st2{fill:#20355D;}
	.st3{fill:#FFFFFF;}
	.st4{opacity:0.63;}
	.st5{opacity:0.35;fill:#20355D;}
	.st6{opacity:0.33;fill:#D3B366;}
	.st7{opacity:0.64;}
	.st8{fill:#FF1755;}
</style>
<g class="st0">
	<path class="st1" d="M86.6,112.3c-0.2,0-0.4,0-0.6-0.1L28,102.8c-0.9-0.1-1.7-0.5-2.2-1.2c-0.5-0.7-0.8-1.5-0.6-2.4l0-0.1V99
		l14.7-83.2c0.3-1.5,1.7-2.6,3.3-2.6c0.2,0,0.5,0,0.7,0.1l57.8,9.5c1.8,0.3,3.1,1.9,2.9,3.6l-14.7,83.3
		C89.5,111.1,88.1,112.3,86.6,112.3z"/>
	<path class="st2" d="M43.1,14.2L43.1,14.2c0.2,0,0.3,0,0.5,0l0,0l0,0l57.8,9.5c1.3,0.2,2.2,1.3,2,2.4l-14.7,83.2
		c-0.2,1.1-1.2,1.9-2.3,1.9c-0.1,0-0.3,0-0.4,0l0,0l0,0l-57.9-9.5l-0.1,0l-0.1,0c-0.6-0.1-1.1-0.4-1.5-0.8c-0.4-0.5-0.5-1-0.4-1.6
		l0-0.1v-0.1L40.8,16C41,14.9,42,14.2,43.1,14.2 M43.1,12.2c-2.1,0-3.9,1.4-4.3,3.4L24.2,98.9c0,0.1,0,0.1,0,0.1
		c-0.3,2.3,1.4,4.5,3.7,4.7l57.9,9.5c0.3,0.1,0.6,0.1,0.8,0.1c2,0,3.8-1.4,4.2-3.5l14.7-83.3c0.3-2.3-1.4-4.4-3.7-4.7L44,12.3
		C43.7,12.2,43.4,12.2,43.1,12.2L43.1,12.2z"/>
</g>
<g>
	<path class="st2" d="M43.1,14.2L43.1,14.2c0.2,0,0.3,0,0.5,0l0,0l0,0l57.8,9.5c1.3,0.2,2.2,1.3,2,2.4l-14.7,83.2
		c-0.2,1.1-1.2,1.9-2.3,1.9c-0.1,0-0.3,0-0.4,0l0,0l0,0l-57.9-9.5l-0.1,0l-0.1,0c-0.6-0.1-1.1-0.4-1.5-0.8c-0.4-0.5-0.5-1-0.4-1.6
		l0-0.1v-0.1L40.8,16C41,14.9,42,14.2,43.1,14.2 M43.1,12.2c-2.1,0-3.9,1.4-4.3,3.4L24.2,98.9c0,0.1,0,0.1,0,0.1
		c-0.3,2.3,1.4,4.5,3.7,4.7l57.9,9.5c0.3,0.1,0.6,0.1,0.8,0.1c2,0,3.8-1.4,4.2-3.5l14.7-83.3c0.3-2.3-1.4-4.4-3.7-4.7L44,12.3
		C43.7,12.2,43.4,12.2,43.1,12.2L43.1,12.2z"/>
</g>
<g>
	<path class="st3" d="M20.3,107.1c-1.6,0-3-1.1-3.2-2.7L2.5,21.5c-0.1-0.8,0.1-1.6,0.6-2.2c0.5-0.7,1.2-1.1,2-1.2l53.9-8.8
		c0.2,0,0.3,0,0.5,0c1.5,0,2.8,1.1,3.1,2.6l14.5,82.9c0.3,1.6-1,3.2-2.6,3.5L20.8,107C20.6,107,20.4,107.1,20.3,107.1z"/>
	<path class="st1" d="M59.6,10.3c1,0,1.9,0.7,2.1,1.8l14.5,82.9c0.1,0.5-0.1,1-0.4,1.5c-0.3,0.5-0.9,0.8-1.4,0.9L20.6,106
		c-0.1,0-0.2,0-0.4,0c-1.1,0-2.1-0.8-2.2-1.8l0,0l0,0L3.5,21.4c-0.2-1.1,0.7-2.2,1.8-2.3l53.9-8.8C59.3,10.3,59.4,10.3,59.6,10.3
		 M59.6,8.3c-0.2,0-0.4,0-0.6,0L5,17.1c-2.2,0.3-3.8,2.4-3.5,4.6l14.6,82.8c0.3,2.1,2.1,3.5,4.2,3.5c0.2,0,0.4,0,0.7,0l53.8-8.8
		c2.2-0.3,3.8-2.4,3.5-4.6L63.7,11.7C63.2,9.7,61.5,8.3,59.6,8.3L59.6,8.3z"/>
</g>
<g>
	<path class="st3" d="M15.1,5H87c2,0,3.6,1.6,3.6,3.6v98.3c0,2-1.6,3.6-3.6,3.6H15.1c-2,0-3.6-1.6-3.6-3.6V8.6
		C11.6,6.6,13.2,5,15.1,5z"/>
</g>
<path class="st3" d="M24.2,86.5h53.9c1,0,1.8,0.8,1.8,1.8v8.4c0,1-0.8,1.8-1.8,1.8H24.2c-1,0-1.8-0.8-1.8-1.8v-8.4
	C22.4,87.2,23.2,86.5,24.2,86.5z"/>
<g class="st4">
	<path class="st1" d="M23.6,17h55.1c0.7,0,1.2,0.6,1.2,1.2v3.6c0,0.7-0.6,1.2-1.2,1.2H23.6c-0.7,0-1.2-0.6-1.2-1.2v-3.6
		C22.4,17.5,22.9,17,23.6,17z"/>
</g>
<g class="st4">
	<path class="st1" d="M23.6,29h25.2c0.7,0,1.2,0.6,1.2,1.2v1.2c0,0.7-0.6,1.2-1.2,1.2H23.6c-0.7,0-1.2-0.6-1.2-1.2v-1.2
		C22.4,29.5,22.9,29,23.6,29z"/>
</g>
<g class="st4">
	<path class="st1" d="M23.4,75h20.4c0.6,0,0.9,0.6,0.9,1.2v1.2c0,0.7-0.5,1.2-0.9,1.2H23.4c-0.6,0-0.9-0.6-0.9-1.2v-1.2
		C22.4,75.4,22.8,75,23.4,75z"/>
</g>
<path class="st5" d="M57.2,29h21.6c0.7,0,1.2,0.6,1.2,1.2v1.2c0,0.7-0.6,1.2-1.2,1.2H57.2c-0.7,0-1.2-0.6-1.2-1.2v-1.2
	C55.9,29.5,56.5,29,57.2,29z"/>
<path class="st5" d="M23.6,38.6h25.2c0.7,0,1.2,0.6,1.2,1.2v1.2c0,0.7-0.6,1.2-1.2,1.2H23.6c-0.7,0-1.2-0.6-1.2-1.2v-1.2
	C22.4,39.1,22.9,38.6,23.6,38.6z"/>
<path class="st5" d="M23.4,83.1h20.4c0.6,0,0.9,0.6,0.9,1.2v1.2c0,0.7-0.5,1.2-0.9,1.2H23.4c-0.6,0-0.9-0.6-0.9-1.2v-1.2
	C22.4,83.5,22.8,83.1,23.4,83.1z"/>
<path class="st5" d="M23.6,55.2h55.1c0.7,0,1.2,0.6,1.2,1.2v1.2c0,0.7-0.6,1.2-1.2,1.2H23.6c-0.7,0-1.2-0.6-1.2-1.2v-1.2
	C22.4,55.7,22.9,55.2,23.6,55.2z"/>
<path class="st5" d="M57.2,38.6h21.6c0.7,0,1.2,0.6,1.2,1.2v1.2c0,0.7-0.6,1.2-1.2,1.2H57.2c-0.7,0-1.2-0.6-1.2-1.2v-1.2
	C55.9,39.1,56.5,38.6,57.2,38.6z"/>
<path class="st6" d="M23.6,46.9h55.1c0.7,0,1.2,0.6,1.2,1.2v1.2c0,0.7-0.6,1.2-1.2,1.2H23.6c-0.7,0-1.2-0.6-1.2-1.2v-1.2
	C22.4,47.5,22.9,46.9,23.6,46.9z"/>
<g class="st7">
	<path class="st2" d="M87,7c0.9,0,1.6,0.7,1.6,1.6v98.3c0,0.9-0.7,1.6-1.6,1.6H15.1c-0.9,0-1.6-0.7-1.6-1.6V8.6
		c0-0.9,0.7-1.6,1.6-1.6H87 M87,5H15.1c-2,0-3.6,1.6-3.6,3.6v98.3c0,2,1.6,3.6,3.6,3.6H87c2,0,3.6-1.6,3.6-3.6V8.6
		C90.6,6.6,89,5,87,5L87,5z"/>
</g>
<g>
	<path class="st8" d="M80.7,72.6c-0.5-1.9-2.2-3.4-4.2-3.9c-6.1-1.1-12.4-1.1-18.4,0l0,0c-2.1,0.5-3.6,2-4.2,3.9
		c-1.2,5.8-1.2,11.8,0,17.5c0.5,1.9,2.1,3.4,4.2,4c3,0.5,6.1,0.8,9.2,0.8c3.1,0,6.2-0.3,9.2-0.8c2.1-0.5,3.6-2,4.2-4
		C81.8,84.4,81.8,78.4,80.7,72.6z"/>
	<path class="st2" d="M67.3,67.9c3.1,0,6.2,0.3,9.2,0.8c2,0.5,3.6,2,4.2,3.9c1.2,5.8,1.2,11.8,0,17.5c-0.5,2-2.1,3.4-4.2,4
		c-3,0.5-6.1,0.8-9.2,0.8c-3.1,0-6.2-0.3-9.2-0.8c-2.1-0.5-3.6-2.1-4.2-4c-1.2-5.8-1.2-11.8,0-17.5c0.5-1.9,2.1-3.4,4.2-3.9
		C61.1,68.2,64.2,67.9,67.3,67.9 M67.3,65.9c-3.2,0-6.4,0.3-9.6,0.8l0,0l0,0c-2.7,0.6-4.9,2.6-5.7,5.3l0,0.1l0,0.1
		c-1.2,6.1-1.2,12.3,0,18.3l0,0.1l0,0.1c0.8,2.6,2.8,4.6,5.6,5.4l0.1,0l0.1,0c3,0.6,6.4,0.8,9.6,0.8c3.2,0,6.5-0.3,9.6-0.8l0.1,0
		l0.1,0c2.8-0.7,4.9-2.7,5.6-5.4l0-0.1l0-0.1c1.2-6.1,1.2-12.3,0-18.3l0-0.1l0-0.1c-0.7-2.6-3-4.7-5.6-5.3l0,0l0,0
		C73.7,66.2,70.5,65.9,67.3,65.9L67.3,65.9z"/>
</g>
<g>
	<g>
		<path class="st3" d="M62.9,88c-0.4,0-0.8-0.2-1.1-0.5c-0.6-0.6-0.7-1.6-0.1-2.3l8.8-9.8c0.6-0.6,1.6-0.7,2.3-0.1
			c0.6,0.6,0.7,1.6,0.1,2.3l-8.8,9.8C63.8,87.8,63.4,88,62.9,88z"/>
	</g>
	<g>
		<path class="st3" d="M71.7,88c-0.5,0-0.9-0.2-1.2-0.5l-8.8-9.8c-0.6-0.6-0.5-1.7,0.1-2.3c0.6-0.6,1.7-0.5,2.3,0.1l8.8,9.8
			c0.6,0.6,0.5,1.7-0.1,2.3C72.5,87.8,72.1,88,71.7,88z"/>
	</g>
</g>
</svg>
