<?xml version="1.0" encoding="utf-8"?>
<!-- Generator: Adobe Illustrator 25.3.0, SVG Export Plug-In . SVG Version: 6.00 Build 0)  -->
<svg version="1.1" xmlns="http://www.w3.org/2000/svg" xmlns:xlink="http://www.w3.org/1999/xlink" x="0px" y="0px"
	 viewBox="0 0 750 500" style="enable-background:new 0 0 750 500;" xml:space="preserve">
<style type="text/css">
	.st0{fill-rule:evenodd;clip-rule:evenodd;fill:#FBEAC6;}
	.st1{fill-rule:evenodd;clip-rule:evenodd;fill:#FBFAFC;}
	.st2{fill-rule:evenodd;clip-rule:evenodd;fill:#E9E9EB;}
	.st3{fill-rule:evenodd;clip-rule:evenodd;fill:#CACACA;}
	.st4{fill-rule:evenodd;clip-rule:evenodd;fill:#FFB9A6;}
	.st5{fill-rule:evenodd;clip-rule:evenodd;fill:#1A1964;}
	.st6{fill-rule:evenodd;clip-rule:evenodd;}
	.st7{fill-rule:evenodd;clip-rule:evenodd;fill:#FFFFFF;}
</style>
<g id="BACKGROUND">
</g>
<g id="OBJECTS">
	<path class="st0" d="M595.5,259c15.7,30.4,16.9,66.3,12.1,99.7c-3,20.2-9.9,39.6-17,58.6c-5.5,13-11.7,25.9-19.4,37.8
		c-2.3,2.7-7,12.9-10,10.7c-0.1-0.1-0.2-0.1-0.3-0.2c-1,0.2-2.1,0.1-3.2-0.3c-60.2-7-120.7-10-181.2-13.3
		c-58.5-2.6-117.4-4.9-175.8-1.9c-4.5,0.2-8.9,0.5-13.4,0.6c-0.3,0-0.6,0-0.9,0c-0.3,0.3-0.7,0.4-1.2,0.4c-0.3,0-0.6-0.1-0.9-0.2
		c-40-21.4-72.6-69.5-60.6-115.9c3.9-16.3,17.2-27.2,27.8-39.3c16-20,11.6-36.5,9.6-59.5c-2.2-38.6,12.9-83.6,48.6-102.8
		c6.8-3.9,14.7-4.8,22.2-6.8c10.4-3,20.5-7.8,28.3-15.4c6.8-6.1,11.7-13.8,17.7-20.6c12.4-13.8,26.3-26.7,43.1-34.9
		c11.6-5.8,24.4-8.1,37.3-7.5c9-0.4,18,1.2,26.4,4.6c10.4,3.9,18.4,12.1,28.7,16.1c11.1,4.9,23.2,0.4,34.6-0.4
		c19.4-2.1,39.9,0.5,56.6,11c14.2,10,26.8,23.7,30.5,41.2c6.4,21.4-1.7,44.1,5.6,65.3C549.2,216.9,582.2,230.9,595.5,259z"/>
	<path class="st1" d="M467.5,71.5l-12.2,30.3c0,0-39.2,12.8-59.8-11c-1.5-1.8-2.4-4.1-3.5-6.5l6.3-22.8L362,42.4l62.7-29l75.4,44
		L467.5,71.5z"/>
	<g>
		<g>
			<path class="st1" d="M389.8,258.9c0,0-0.1,0-0.1,0.1c-0.1,0-0.1,0.1-0.2,0.2c-0.1,0.1-0.1,0.1-0.2,0.2
				C389.4,259.2,389.6,259,389.8,258.9L389.8,258.9z M537.5,396.5c0.8,28.9-3.1,41.7-20.2,64.9c-8.6,10.8-17.2,10.8-29.7,11.4
				c-9.3,1.3-18.6,4.5-28.1,3.7c-26.1-3.5-52.3-3.6-78.3-6.3c-17.3-1.9-34.2-6-51.6-7.7c-11.5-1.3-22.8-3.5-34.3-4.7
				c-7.7-0.8-15.3-1.2-22.8-3.2c-1.4-0.2-2.8-0.5-4.1-1c-0.6,0.7-1.6,1.1-2.6,0.7c-2.4-0.9-4.7-3-6.5-4.6c-3-2.8-6.2-5.4-9.2-8.2
				c-10.1-10.9-17.7-24-26.1-36.2c-2.8-4.6-5.7-9.1-8-14c-1.5-5.2-3.8-7.9-8.6-10.5c-3.3-0.3-6.5,0.1-9.7,0.2
				c-1.5,1.2-3.7,0.5-5.5,0.7c-4.3,0-8.6-0.1-12.9-0.3c-0.5-0.1-0.9-0.3-1.2-0.6c-0.7,0-1.4-0.4-1.8-1.2c-0.7-1.3-0.5-2.8-0.6-4.3
				c-0.3-3.4-0.8-6.8-1.2-10.2c0-1.8-0.7-4-0.1-5.8c-2.9-2.1-6.3-6.2-6.6-8.9c-0.6-1.2-1.4-2.3-1.3-3.7c-0.5-1.7-2-3.4-1.4-5.2
				c-0.9-3.9-2.8-7.6-3.1-11.7c-0.6-3.6-0.2-7.3-0.6-11c-0.7-6.5-1-13.1,4-18.1c1.3-4.6,3.3-12.9,8.1-15c0.3-1.3,0.9-2.6,0.9-3.9
				c0.8-4.7-0.5-9.5,0.1-14.2c0.3-1.6,2.1-2.1,3.2-1.4c5.6-2.1,16.8-2.9,18.8-2.9c1.2,0,1.8,0.8,2,1.7c0.9,0,1.5-0.1,1.9-0.1
				c9.3-0.3,18.6-0.7,27.8-0.4c1.4-0.1,2.9,0,3.9-0.2c6.6-0.3,13.2-0.1,19.8,0c0.2,0,0.3,0,0.5,0c4.6-0.1,9.3-0.2,13.9-0.3
				c0.1,0,0.2,0,0.3,0c0.1,0,0.2,0,0.3,0c0,0,0,0,0,0c3.6,0,7.3,0.2,10.9,0.1c0.4,0,0.8,0.1,1.1,0.3c12.8,0.3,25.6,0.4,38.4,1.1
				c0.8,0,1.5,0,2.1,0.2c0.5-0.3,1.1-0.3,1.6-0.2c0.7,0.1,1.2,0.6,1.6,1.1c4,0,2,11.4,2.5,14.4c0,7.6,0.3,15.1,0.6,22.7
				c0,6.8,0.5,13.6,1.1,20.4c2.1-2.4,4.8-4.6,5.8-5.7c4.3-3.8,8.3-7.9,12.8-11.5c7-5.9,14.3-11.5,22.6-15.4
				c8.2-4.4,8.3-0.9,15.5-9.1c0.5-2.6,2.8-5.4,5.2-6.5c2.7-3.7,1.2-8.8-0.1-12.7c-0.1-0.3-0.1-0.5-0.1-0.8c-2-0.5-4.1-0.4-6.1-0.4
				c-3.7,0-7.3-0.8-10.6-2.4c-6.7-2.9-12.7-7.5-16.5-13.9c-6.2-6.9-8.3-20.3-7.4-29.3c-0.6-1.2-0.2-2.6-0.2-3.8
				c0.4-3,0.2-5.9,0.6-8.9c-5.8-5.8-7.4-13.7-4.2-21.2c0.6-1.6,2.7-5.6,5-7.5c0.3-2.7,0.9-5.6,0.8-7c-4.2-2.3-8.7-4-12.7-6.7
				c-2.6-1.5-5.2-3.9-5.1-7.2c-0.6-2-2.4-3.3-3.3-5.1c-0.7-1.3-1.3-2.7-1.6-4.2c-1.3-4.5,1.3-5.8,2.9-9.1c0.2-2.1-0.4-4.2-0.8-6.3
				c-2.9-2.3-2-7,0-9.6c1.9-2.5,4.8-3.7,7.7-4.6c5-1.6,10.4-0.1,14.9,2.2c-0.7-3.3,1.3-6.6,4.4-8c4.2-1.8,8.7,0.3,12.6,2.1
				c0.7-2.3,2.2-4.2,4-5.6c0.2-0.1,0.3-0.3,0.5-0.4c1.1-1,2.5-1.7,3.9-2c0.8-0.3,1.7-0.5,2.5-0.4c4.1-0.5,8.4,0.6,11.2,3.6
				c1.5,1.3,3.1,2.5,4.7,3.6c0.8-2.7,4-4.1,6.7-4c3.9,0.2,7,2.5,10.5,3.6c1.6,0.6,3.2,1.1,4.9,1.7c2.8-2.2,7.6-1.9,10.6-0.6
				c3.6,2.2,5.5,6.2,7.9,9.5c1.9-1.6,3.5-4.3,6.1-4.8c1.8,0,2.8,1.8,2.6,3.4c-0.1,1.1-0.3,2.1-0.7,3.1c0.2,0.1,0.5,0.1,0.8,0.2
				c1.7,0.4,3.4,0.7,5.1,1.2c2.4,1.4,0.7,4.9-1.9,4c-0.5-0.1-0.9-0.2-1.4-0.3c0.5,0.9,0.9,1.7,1.6,2.5c2,1.6,4.6,3.8,1.3,5.8
				c0.6,3,2.2,5.8,2.8,8.8c0.8,3.8,0.7,7.6,0.8,11.5c0.4,7.7,0.4,15.5-2.1,22.9c-0.6,2.5-1.4,4.9-2.1,7.4c-0.3,0.9-0.5,2.1-1,2.9
				c0.2,1.5-1.1,3.3-0.9,4.9c0.7,3.7,1.7,7.6,0.6,11.4c-1.3,4.8-4.5,8.9-8.5,11.7c-0.9,1.2-0.6,3-1,4.4c-0.3,1.4-0.6,2.8-1.1,4.1
				c-0.9,2.7-2.3,5.1-3.8,7.4c-0.2,0.3-0.5,0.6-0.8,0.8c-0.3,3.2,0,6.4,0.1,9.6c0.5,8.6,1.3,17.3,2.9,25.8c0.3,1.2,0.6,2.4,0.9,3.6
				c2.7,0,6.3,2,8.3,3.2c1.1,0.9,3.6,2.6,5.5,4.4c0.5,0,1.1,0,1.8,0.2c5,1.3,9.2,4.3,13.5,7c3.4,2,7,3.7,10.2,6
				c0.2,0.2,0.7,0.5,1.3,0.9c0.6-0.1,1.3,0.1,1.8,0.5c1.2,0.8,2.4,1.5,3.6,2.3c0.2,0.1,0.4,0.2,0.6,0.3c7,3.7,12.8,8.9,17.4,15.1
				c1.1,1.2,2.1,2.3,2.6,3.3c0.6,0.8,1.2,1.6,1.8,2.3c0.9-0.5,2.2-0.2,2.9,1.4c1.7,2.3,3.5,4.4,5.2,6.7c1,1.1,1.9,2.3,2.7,3.5
				c3.3,5.5,6.7,11.1,9.5,17c2.6,4.3,4.8,9,5.8,14c0.1,0.6,0.3,1.3,0.4,1.9c0.9,0.6,1.4,2,1.8,3.5C536.4,374,537.6,394,537.5,396.5z
				"/>
			<path class="st1" d="M141.8,219.3c-1-3.4-2.1-5.7-3.6-7.3c0,0,0-0.1,0.1-0.1c0.4-0.6,0.5-1.4,0.1-2.1c-0.4-0.7-1.1-1.1-1.8-1.1
				c-0.2,0-0.5,0-0.7,0c-0.4,0-0.8,0.1-1.2,0.3c-0.2,0.1-0.5,0.2-0.7,0.4c-1.9-0.6-4.2-1-7-1.3c-0.2,0-0.4,0-0.6,0
				c-1.2,0-18.6,1.6-19.5,0.7c-4.4-3.8-6.4-25.9-6.1-30.4c0.7-7-0.3-20.5,1.5-28c3.1-5.9,38.5-3,40.4-3.2c6.4-0.4,12.7-0.1,19.1,0.1
				c7.3,0.2,14.6,0.5,21.8,1.1c6.6,0.2,8.2,2.9,7.9,9.2c-0.1,6.2-1.3,12.2-1.6,18.4c-0.2,4,0,8-0.2,12.1c-0.2,3.9,0,7.7-0.1,11.6
				c-0.2,3.3,0.3,8.2-4,9c-2.8,0.6-5.6,0.5-8.4,0.3c-2.5-0.1-5-0.2-7.4,0.2c-0.4,0.1-0.8,0.1-1.2,0.2c-0.6-0.1-1.1-0.1-1.7-0.2
				c-1.2-0.1-2.5-0.2-3.8-0.3c-1.2-0.1-2.4-0.1-3.6,0c0,0,0.1,0,0.1,0c-0.4,0-0.8,0.1-1.1,0.3c-0.3,0.2-0.6,0.4-0.8,0.7
				c-1.5,0-3,0-4.5-0.1c-2.4,0.3-5.4,8.1-6.2,10.4c-0.5,1-1.3,1.5-2.1,1.5C143.7,221.7,142.3,220.7,141.8,219.3z"/>
			<path class="st1" d="M149.1,213.2C149.1,213.2,149.1,213.2,149.1,213.2C149.1,213.2,149.1,213.2,149.1,213.2
				C149.1,213.2,149.1,213.2,149.1,213.2z"/>
			<path class="st1" d="M293.5,103c1.1,6.2,0.9,12.5,0.9,18.7c-0.1,6.7-1.4,13.3-0.6,19.9c0.9,8-7,6.8-12.4,7.5
				c-6.2,1-12.5,0.8-18.7,1.8c-1.4,0.3-3.1,0.3-4.3,1c-1.2,2.2-2.2,4.5-2.9,6.9c-0.5,1.2-1.9,1.8-3,1.3c-0.8-0.4-1.2-0.9-1.4-1.7
				c-0.4-0.2-0.8-0.5-1.1-1c-1.7-2.6-2.4-6.3-5.3-7.9c-4.9-1.7-10.4-1.2-15.6-1.2c-3.9,0.1-8,0.6-11.7-0.8c-2-0.6-2.4-2.6-2.2-4.5
				c0.1-3.2,0-6.3-0.1-9.5c-0.3-7.9-0.9-15.8-1.4-23.7c-0.2-3.6-0.3-7.2-0.1-10.8c0.3-2,2.4-2.5,3.7-1.7c1.9-0.9,4.2-0.6,6.2-0.9
				c13.4-0.2,26.8-0.2,40.1-0.3c9.2,0.2,18.3,1.2,27.4,1.8C294.8,97.9,295.3,101.7,293.5,103z"/>
			<path class="st1" d="M299,220.7c-0.1,3.6,0.8,7.1,0.3,10.7c-0.4,2.8-1.7,6-5.1,5.6c-2.9,0.1-5.7,0.3-8.6,0.1
				c-6.1-0.3-12.2,1.5-18.3,1.4c-0.5,0.8-0.9,1.6-1.3,2.5c-1.2,2-1.3,5.9-4.3,5.6c-2.3-0.3-2.4-3.2-3.3-4.8c-1.8-4-4.7-3.1-8.4-3.2
				c-2.7-0.1-5.4-0.2-8.1-0.3c-0.8,0.1-1.6-0.2-2.2-0.6c-3.8,0.1-7.6,0.4-11.3,0.3c-1.2,0.1-2-0.4-2.5-1.1c-0.8-0.2-1.4-0.8-1.6-1.9
				c0.3-9.2-0.2-18.3-0.9-27.5c-0.1-2.8-0.3-5.5-0.4-8.3c-0.1-3.1,0.3-6.3-0.4-9.3c-0.3-1.6,1.2-2.8,2.6-2.7
				c0.2-0.1,0.3-0.2,0.5-0.2c2.5-0.6,5.2,0,7.8,0c8-0.1,16.1-0.8,24.1-0.4c5.3,0.2,10.5,1.1,15.8,1.4c4.1,0.1,8.1,0,12.2-0.2
				c2.5-0.2,4.9-0.5,7.4-0.7c2.1-0.4,4.4,0.5,4.3,3c-0.2,2.9,0.2,5.8,0.8,8.6C299.4,205.9,299.1,213.3,299,220.7z"/>
		</g>
	</g>
	<g>
		<path class="st2" d="M536.5,386.2c1.2,7.2,1.5,14.7-0.2,21.8c0.3,5-0.2,10.1-1.3,15c-0.3,1.3-0.5,3.1-1.4,4.3
			c-1.1,5-2.1,10-4.3,14.5c-4.8,8.7-9.5,17.6-16.2,24.9c-3.3,3.8-7,7.3-10.3,11.1c-5.1,4.7-11.4,8-18.1,9.9c0,0,0,0,0,0
			c-0.6,0.2-1.3,0.1-1.8-0.2c-0.7,0.2-1.5,0.4-2.3,0.6c-2.6,1.1-5.3,2-8,2.8c-9.6,2.8-19.8,3-29.7,3.1c-9.1,0-18.2-0.8-27.2-2.4
			c-4.4,1.1-9.2-1.2-13.5-2.3c-6.8-1.6-13.5-3.7-20.1-6c-13.3-5.1-26.2-11-38.4-18.3c-3-1.5-7.3-0.9-9.2-4.1
			c-3.9-1.7-7.2-4.6-9.2-8.4c-0.1,0-0.2-0.1-0.3-0.1c-2.7-1.7,0.2-4.5,1.1-6.5c2.6-4.6,5.3-9.1,7.5-14c3.1-6.8,5.5-13.8,8.3-20.7
			c0.8-1.6-0.8-2.7-1.5-4c-1.6-3.9-4.7-6.7-7.3-9.9c-3-3-4.9-6.9-7.9-9.7c-1.8-1.3-5-2.9-2.9-5.4c1.3-1.2,3.2-1.4,4.6-2.2
			c-0.5-7.8,0.2-15.5,0.3-23.2c-0.2-8.2-1.1-16.4-1.1-24.7c0.1-0.7,0.1-1.5,0.2-2.4c-0.2-0.4-0.2-0.8-0.2-1.2
			c-1.5-2.8,6.7-10.2,8.6-12.4c2.2-4.3,6.9-6.9,10.4-10.2c5.9-4.9,12.2-9.3,19.1-12.7c3.3-1.8,7.1-2.2,10.4-4
			c4.4-4,9.5-7.5,12.1-12.9c1-1.1,2.9-0.7,3.5,0.6c0,0,0,0,0,0c0.3,0.4,0.5,0.8,0.5,1.3c-0.2,1.2-0.8,2.3-0.7,3.6
			c1.5,0.7,2.6,2.2,3.9,3.2c3.1,2.5,6.7,4.4,10.3,5.9c2.7-0.6,5.6,0.4,8.3,0.1c5.5-0.1,11.1-1,16.1-3.3c4.2-1.6,9.6-3.9,8.8-9.4
			c-0.1-1.2-0.7-2.4-0.2-3.6c1.1-2.6,4-1.2,5.7-0.2c2.9,1.5,5.7,3.2,7.9,5.5c0.1,0,0.2,0,0.3,0c8.5,2.5,16.4,6.7,23.9,11.5
			c5.3,3.7,11.2,7.1,15.4,11.9c5.4,3.9,10.2,8.5,14.5,13.6c5.7,6.2,10.8,13.1,14.9,20.5c3.4,5.3,6.4,11,8.9,16.8
			c1.8,3.9,3.6,7.8,4.6,12C533.9,373.1,537.6,379.5,536.5,386.2L536.5,386.2z M322.7,449.9c-9.3-6.4-19.4-11-28.7-17.4
			c-7.2-5.5-14.4-11.9-18.4-20.3c-0.4-0.9-0.6-1.8-0.7-2.7v0c0-0.1,0-0.2,0.1-0.3c0.1-1.8,0.2-3.7,1.8-4.9c2.2-2-0.5-4.2,0.4-6.8
			c0.2-1.3,1.1-2.2,2-3.1c3.4-2.9-1.2-5.1,2.7-9.3c1.7-1.7,0.1-4.7-2.3-3.8c-0.3,0.2-0.6,0.5-0.9,0.8c0,0-0.1,0-0.1,0
			c-4.2,0.6-8.7,0.3-13,0c-4.5-0.2-9.1-0.1-13.6-0.3c-5.5-0.1-11.5-1.6-16.8,0.4c-6.4,0-12.9,0.4-19.3-0.8c-0.8-0.1-1.7-0.4-2.5-0.4
			c-2,0-3,2.6-1.5,3.9c0.2,0.1,0.4,0.2,0.6,0.3c0,0.1,0.1,0.2,0.2,0.4c4.2,8.1,8.5,16.2,13.8,23.6c3.7,8.4,9.8,15.2,15.2,22.4
			c11.9,15.6,30.2,27.2,50.1,28.5c7.5,0,15.1-0.4,22.3-3c1.9-0.6,3.7-1.8,5.7-2.3c0.7-0.1,1.5-0.4,2.1-0.9
			C324.2,454.4,325.2,450.7,322.7,449.9z"/>
		<path class="st3" d="M537.3,404.2c0.2,5.3-0.5,10.5-1.3,15.7c-1.4,9.8-5.7,18.7-9.8,27.5c-0.3,0.4-0.5,1-0.8,1.7
			c0.1,0,0.2,0.1,0.3,0.2c2.6,1.5-5,8.4-6,10.4c-8.5,10.4-23.4,24.1-36.3,28.2c-0.3,0-0.6-0.1-0.8-0.2c-2.3,1.3-4.8,2.3-7.4,2.7
			c-3.7,1.3-7.5,2.2-11.4,2.8c-3.2,0.6-6.4,1-9.6,1.6c-0.8,0.3-1.7,0.6-2.3,0c-3.2,0.5-6,0.7-7.2-0.3c-1.2-3,3.1-2.5,4.9-2.6
			c4.7-0.5,9.4-1.7,14-2.6c9.3-1.9,18.3-5.6,26.1-10.9c10.2-8.8,19.4-19.1,24.9-31.5c20.3-42,4.9-98.5-29.9-128.2
			c-9.6-7.4-19-15.5-29.6-21.4c-2.2-1.1-4.4-2.3-6.6-3.5c-2.8,3.7-10.8,11.5-13.2,8c-0.5-4.6-2.8-8.8-6.4-11.8
			c-2.4-1.4-0.9-4.4,0.9-2.6c0,0,0,0,0,0c0.2,0.2,0.3,0.4,0.5,0.5c11.2-5.1,5-14.5,9-14.4c3.1,1.4,5.8,3.6,8.7,5.4
			c0.9,0.5,1.7,1,2.2,1.7c0.1,0,0.2,0,0.3,0.1c9.2,2.4,17.4,7.6,25.5,12.5c7.5,4.7,14.9,9.7,21,16.1c8.5,9,17,18.6,23.2,29.3
			c0.2,0.3,0.4,0.7,0.6,1.1c0,0,0,0,0,0c7.9,12.3,13.1,26.6,14.8,41c0.8,5.2,1.1,10.4,1.4,15.7c0,0.1,0,0.3,0,0.4
			C537.2,399.6,537,403.1,537.3,404.2L537.3,404.2z M215.8,389.2c-0.9,0-2.2,0.1-2.6-1c-0.3-0.7-0.1-1.4,0.4-1.9c0,0,0,0,0,0
			c-0.1,0-0.2-0.1-0.3-0.1c-0.3-0.2-0.6-0.5-0.8-0.8c-1.6-0.6-1.7-3,0-3.5c3.8-0.5,7.6,0.4,11.4,0.6c12.3-1.3,24.6-0.4,36.8,0
			c6.5,0.4,12.9-0.6,19.4-0.2c5.1,0.9,1.3,6.1-2.2,6.1C257.3,388.9,236.5,388.8,215.8,389.2L215.8,389.2z M240.7,385.5c1,0,2,0,3,0
			c-1,0-2,0-3-0.1C240.7,385.4,240.7,385.4,240.7,385.5L240.7,385.5z M354.9,437.8c0.2-0.4,0.4-0.8,0.5-1.1c0.3-0.6,0.6-1.4,1.2-1.7
			c0.4-0.7,0.8-1.5,1.1-2.2c0.4-0.9,0.8-1.9,1.1-2.9c0.1,0.1,0.2,0.2,0.2,0.4c0.2-0.9,0.3-1.8,0.4-2.7c0-0.1,0-0.1,0.1-0.2
			c0.3-0.8,0.6-1.7,0.6-2.5c0-0.4-0.1-0.8-0.3-1.1c0.2-1.9,0.3-3.9,0.5-5.8c0.3-1.2,1.8-1.5,2.7-0.7c1.1,2.1-0.1,7.2-0.2,9.8
			c-0.5,8.2-8.5,37-16.4,39.4c-0.7,0-1.4-0.5-1.7-1.1c-0.1-0.3-0.2-0.5-0.2-0.8c-1.2,0.5-2.6-0.5-2.4-1.8c-1.3,1.3-2.6,2.1-3.6,2.1
			c-0.1,0-0.2,0-0.3,0c-3.8-0.4-4.6-5.1-7.6-6.8c-4.9-2.9-8.7-6.9-5.6-11.8c0.3-0.3,0.6-0.6,0.9-1c0.6-0.7,1.1-1.6,1.6-2.4
			c0.2-0.3,0.4-0.7,0.6-1c1.6,0.4,3,2.7,4.4,3.4c3.9,2.4,8.6,4.2,13.2,3.6c2.1-0.7,3.2-0.5,3.6,0.3c0.2-0.5,0.4-1,0.7-1.6
			c0.7-1.7,1.4-3.4,2-5c0.4-0.2,0.7-0.4,0.8-0.8c0.2-0.6,0.5-1.2,0.9-1.7C354,439.1,354.5,438.5,354.9,437.8z"/>
	</g>
	<path class="st4" d="M398.4,217.7c-12.1-2.9-4-18.7,6-15.3C414.6,206.6,408,219.7,398.4,217.7L398.4,217.7z M347.4,212.8
		c-0.4-0.5-0.3-1.2-0.1-1.8c0-0.1,0.1-0.3,0.1-0.4c-1.4-0.9-0.4-2.7-0.1-3.9c0.3-0.9,0.4-1.8,1-2.6c-3.8-2.3,0.6-5.5,2.9-1.7
		c2.2,2.8,2.9,7.2,0.2,9.9C350.4,213.3,348.5,214.3,347.4,212.8z"/>
	<path class="st5" d="M356.8,188.6c1.8,2.5,0.6,7.7-2.9,7.7c-0.1,0-0.3,0-0.4,0c-1.3-0.1-2.3-1.2-2.9-2.2c-1-1.8-0.9-4.1-0.1-6
		c0.7-1.4,2-2.6,3.7-2.3C355.6,186.1,356.1,187.6,356.8,188.6z"/>
	<path class="st5" d="M392.7,193.1c0.3,1.3,0.3,2.6,0.1,3.9c-0.4,1.5-1.7,2.9-3.2,2.9c-0.3,0-0.6,0-0.8-0.1
		c-3.4-1.4-4.2-5.5-2.7-8.5c0.5-1.2,1.5-2.2,2.9-2.3C391.1,188.8,392.1,191.3,392.7,193.1z"/>
	<path class="st5" d="M431.3,203.6c2-2.7,7.1-7,10.5-4.7c-0.9,0.8-1.8,1.6-3,1.9c-1.5,0.5-2.8,1.4-4,2.4c-0.2,0.1-0.3,0.3-0.5,0.5
		c-0.2,0.2-0.4,0.4-0.7,0.6c-1.2,1.1-2.3,2.2-3.4,3.3c-0.2,0.3-0.4,0.5-0.4,0.9C429.3,207,430.6,204.8,431.3,203.6z"/>
	<path class="st5" d="M434.3,203.6c2.4,0.5,5.4,3.3,3.7,5.6c-0.5-0.4-1.2-0.7-1.6-1.3c-0.9-1.3-1.5-2.8-2.7-3.7c0,0,0,0,0,0
		c-0.1-0.1-0.8-0.4-0.6,0c0,0-0.1-0.1-0.1-0.2c-0.1-0.4,0.5-0.4,0.8-0.5C433.9,203.5,434.1,203.6,434.3,203.6z"/>
	<path class="st5" d="M394.4,224.3c0.2-1.2,0.5-2.4,1-3.6c-3.8,2.2-7.6,4.3-11.9,5.2c-1.7,0.4-3.4,0.8-5.1,1c-1.4,0.1-2.7,0.4-3.9,1
		c-2.4,1.2-1.8,4.3-0.5,6.1c1.4,2.1,4,3.3,6.5,3.2c0.7-0.1,1.4-0.2,2-0.3c0.1,0,0.1,0,0.2,0c4.6-1.2,8.4-4.7,10.5-8.9
		c0-0.1,0.1-0.1,0.1-0.2c0.2-0.5,0.4-0.9,0.6-1.4C394,225.7,394.3,225,394.4,224.3L394.4,224.3z M396.5,219.6c0.1,0.6-0.6,0.8-1,1
		c2.3,2.3-0.2,7-1.5,9.4c-2.6,4.7-8.4,9-14,9c-0.5,0-1.1,0-1.6-0.1c-2.8-0.5-5.4-2.2-6.7-4.8c-1.8-3.2-1-7.3,2.7-8.5
		c3.6-1.1,7.5-1.1,11.1-2.4c3-1,5.6-3,8.9-3.2c0.2,0,0.5,0,0.7,0c0.4,0,0.8,0,1.2-0.1C396.4,219.8,396.5,219.7,396.5,219.6
		C396.5,219.7,396.5,219.6,396.5,219.6z"/>
	<path class="st5" d="M393.8,226.3c0.3,0.1,0.6,0.2,0.9,0.4c-0.5,0.4-1,0.7-1.6,1c-0.3,0.1-0.6,0.3-0.9,0.4c-2.2,0.8-4.4,1.8-6,3.6
		c-1.3,1.6-2.8,3.2-3.6,5.1c0,0,0,0,0,0c0,0,0.2-0.1,0.2,0c-0.1,0.1-0.1,0.2-0.2,0.2c0,0-0.1,0-0.1-0.1c-0.3-3.9,2.7-7.3,5.9-9
		C390,227.1,391.9,225.8,393.8,226.3z"/>
	<path class="st5" d="M279.8,338.7c0.1-3.6,0-7.2,0.2-10.9c0.3-9.3,0.7-18.5,0.6-27.8c0-3.7-0.1-7.5-0.2-11.2
		c-0.1-3.6-0.1-7.7-2.4-10.7c-0.6-0.9-1.6-1.2-2.7-1.2c0.2-0.1,0.5-0.3,0.8-0.4c1.4-0.5,2.9,0.2,3.9,1.1c3.2,3.5,2.3,11.7,2.4,16.3
		c0,5.5,0.1,11.1-0.2,16.6c-0.3,7.4-0.7,14.7-0.8,22.1c0,1.8-0.1,3.7,0,5.5c0,1.9,0.2,4-0.9,5.7
		C279.7,342.4,279.9,340.5,279.8,338.7z"/>
	<path class="st6" d="M335.8,424C335.8,424,335.8,424,335.8,424C335.8,424,335.8,424,335.8,424c0,0.1,0,0.2-0.1,0.3
		C335.7,424.2,335.7,424.1,335.8,424z"/>
	<path class="st5" d="M177.4,359.3c0.9-0.7,0.7-2.2,0.6-3.3c-0.4-2.2-1.5-4.2-3-5.8c-0.9-0.9-1.7-1.9-1.9-3.2
		c-1.6-0.9-3.3-1.8-4.7-3c-1.3-1.1-2.5-2.4-3.6-3.7c0.2,1.3,0.6,2.5,1,3.8c0.6,2.2,1.2,4.3,2.2,6.4c1.5,2.9,3.4,5.7,6.1,7.6
		c0.8,0.5,1.6,1,2.5,1.3C176.9,359.4,177.3,359.3,177.4,359.3C177.5,359.2,177.4,359.3,177.4,359.3L177.4,359.3z M178.4,344.5
		c-0.2,0.7-0.6,1.5-1.5,1.5c-0.9-0.1-1.7-0.6-2.6-1c-2.7-1.4-5.2-3.1-7.1-5.4c-3.7-4.5-5.9-9-5.4-15c0.1-0.7,0.1-1.5,0.2-2.3
		c1.2,2.3,2.8,4.5,4.7,6.4c1.7,1.7,3.5,3.3,5.6,4.6c0.4,0.2,0.9,0.4,1.3,0.6c0.1,0.9,0.5,1.8,1.2,2.5c1.1,1.3,2.2,2.6,3,4.2
		C178.5,341.9,178.7,343.2,178.4,344.5L178.4,344.5z M180,332.4c0.6-1.5,0.3-3.2-0.3-4.6c-1.3-2.4-3.3-4.4-4.8-6.6
		c-0.9-1.1-1.5-2.5-1-3.9c0,0,0,0,0,0c-1.9-1.8-3.4-4-4.8-6.1c-1.6-2.7-2.9-5.6-3.5-8.7c-1.8,1.1-3,3.1-3.8,5
		c-1.2,4.5,0.1,9.5,2,13.7c1.6,3.1,3.8,5.8,6.4,8.1c1,0.9,2,1.8,3.2,2.4c1.1,0.5,2.2,0.8,3.3,1.1C177.9,333,179.2,333.3,180,332.4
		L180,332.4z M182.8,318.8c-1,0.8-2.3,0.3-3.4,0c-3.5-1.3-5.8-4.5-7.8-7.5c-5.5-8.1-7-19.7,2.3-25.6c0,2.1,0.1,4.1,0.2,6.2
		c0,0.7,0,1.5,0.2,2.3c-1.2,2.7,2,7,3.4,9.3c1.8,3,4.2,5.8,5.4,9.1C183.5,314.5,184.1,317.1,182.8,318.8L182.8,318.8z M302.1,379.5
		c0.3,0.3,0.6,0.6,0.9,1c-0.1-0.3-0.2-0.6-0.2-1c0,0,0,0,0,0c-0.2,0-0.3,0.1-0.5,0.1C302.3,379.5,302.2,379.5,302.1,379.5
		L302.1,379.5z M322.1,341.2c0,6.7-0.4,13.5-0.5,20.2c0,4.9,0.3,9.9,0.5,14.8c0,0.9-0.1,1.9-0.1,2.8c-1.5,0.1-3.1,0.6-4.6,0.9
		c-0.5-0.4-1.1-0.8-1.7-1.2c-1.9-1.3-3.9-2.5-5.7-3.9c-1.3-0.9-2.4-2.2-4-2.6c-3.3-0.4-3.7,4-3.4,6.7c-0.4-0.1-0.8,0-1.2,0
		c-2.3-2.5-4.6-4.9-7-7.3c-2.1-1.8-4.2-3.7-6.2-5.6c-2.7-2.2-5.1-4.6-7.8-6.6c-1.4-1-3-2-4.7-2.4c-3.4-0.7-5.2,2.4-4.9,5.4
		c1.1,5.9,5.1,10.9,8.9,15.6c-0.6-0.2-1.2-0.3-1.8-0.2c-8.2-0.5-16.4-0.2-24.7-0.4c-5.7-0.1-11.4,0-17.1,0.1
		c-5.3,0.1-10.7,0.2-16,0.1c-4.1,0.1-8.3,0.1-12.4,0.1c-2.5,0-5,0-7.6,0c-4.4,0.1-8.7,0.2-13.1,0.2c-1.6-0.1-3.3-0.2-4.9-0.5
		c-1.4-1.1-2.2-2.4-2.6-4.3c-0.7-2.4-0.7-5.2-1-7.7c-0.1-1.1-0.3-2.2-0.5-3.4c0.9-0.2,1.6-1.2,1.2-2c0.7-1.4,0.7-3.4,0.3-4.9
		c-0.5-2.3-2.1-5.2-4.1-7c0.1,0,0.3,0.1,0.5,0.1c0.3,0.1,0.6,0.1,0.9,0.1c0.3,0,0.6,0,0.9-0.1c-0.2,0.8-0.2,1.7,0.4,2.4
		c0.6-0.7,0.5-1.8,0.2-2.6c2.3-1.2,2.6-5.3,1.5-7.6c-0.3-0.7-0.6-1.3-1-1.9c0.1-1.1-0.3-2.2-0.6-3.2c0.1,0,0.1,0,0.2,0
		c3.7,0,4.1-4,3.3-7c-0.6-1.8-1.8-3.2-2.9-4.7c0.5-0.8,0.3-2-0.1-2.8c0.8,0.3,1.7,0.5,2.6,0.6c0.1,0,0.2,0,0.3,0
		c3.4,0,4.1-3.9,3.8-6.7c-0.4-3-2-5.7-3.6-8.1c-1.1-1.6-2.2-3.2-3.1-4.9c0.6-1.2,0.5-2.7,0.3-4.1c-0.1-1.4-0.1-2.8-0.2-4.2
		c-0.1-3.4-0.2-6.8-0.4-10.2c0-4.3-0.8-9.9,0.8-14.2c0.5-0.2,1.1-0.3,1.6-0.5c1.6-0.3,3.2-0.5,4.7-0.7c4.4-0.3,8.9-0.2,13.4-0.4
		c4.4-0.1,8.8-0.3,13.2-0.3c6.4,0,12.8,0,19.2,0.1c8.3,0.1,16.6,0.2,24.9,0c10.2-0.2,20.4-0.5,30.7-0.3c3.7,0.2,7.5,0.4,11.3,0.5
		c5.5,0.4,11-0.1,16.4,0.6c1.9,0.3,3.5,1.6,5.3,2.1c0.1,0.3,0.2,0.6,0.2,0.8c2.5,8.9,1.6,18.2,1.5,27.4c0.1,6.8-0.2,13.7-0.1,20.5
		C322,326.2,322.2,333.7,322.1,341.2L322.1,341.2z M323.2,452.5c0,0,0.1,0,0.1,0c-0.4-0.5-0.7-1-0.8-1.6c-1.2-0.2-2.2-1-3.3-1.5
		c-1.4-0.8-2.8-1.7-4.2-2.5c-4.4-2.5-8.5-5.4-13-7.9c-3-1.8-5.9-3.5-8.8-5.4c-4.3-2.9-8.3-6.4-11.7-10.4c-3.6-4.5-8.4-10.7-7.7-16.8
		c0.2-1.4,1.1-2.8,2.5-3.2c0.3-0.1,0.6-0.1,0.9-0.1c-0.2-0.3-0.3-0.6-0.4-1c-0.7-2-1.2-4.2-0.8-6.3c0.4-1.8,2.1-3.2,4-2.6
		c-0.9-2.1-1.5-4.4-0.6-6.7c0.5-1.3,1.2-2.6,2.4-3.4c0.6-0.4,1.3-0.6,1.9-0.5c0,0-0.1-0.1-0.1-0.1c-0.8,0.2-1.5,0.3-2.3,0.3
		c-1.5,0-3,0-4.6,0c-1.2,0-2.5,0.1-3.7,0.1c-1,0-1.9,0-2.9,0c-11.5-0.2-22.9-0.4-34.4-0.3c-3.7,0.1-7.3,0-11-0.1
		c-3.2-0.1-6.3-0.1-9.5-0.1c-1.2,0-2.5,0-3.7,0c2.4,2.4,3.7,5.6,5.2,8.6c2.6,5,5.2,10,8,14.8c5.8,9.6,12.2,18.9,19.3,27.6
		c6.4,7.8,14.6,14.2,23.6,18.7c4.7,2.5,9.5,5.1,14.8,5.9c7.1,1.2,14.3,1.5,21.3,0.5c5.2-0.9,10.4-2.2,15.4-4.1
		C320.6,454,321.9,453.1,323.2,452.5L323.2,452.5z M342.1,410c-2.4,6.1-5.2,12-7.9,18c-1.6,3.3-3.1,6.7-4.9,9.9
		c-1,1.7-2,3.5-3.1,5.2c-1.1,1.9-3.1,4.1-3.6,6.4c-0.9-0.7-2.1-1.2-3.1-1.8c-3.2-1.9-6.4-3.8-9.5-5.8c-5.7-3.7-11.8-6.9-17.3-10.8
		c-4.1-2.9-7.7-6.5-10.9-10.4c-2.9-3.8-5.9-8.2-6.1-13.2c0-1.3,0.1-2.8,1.2-3.7c0.2-0.1,0.4-0.3,0.7-0.4c1,1.9,2.3,3.6,3.5,5.3
		c1,1.4,2,3.1,3.8,3.6c-0.1-1.6-1.1-2.9-2.1-4.1c-1.5-2-2.9-3.8-3.9-6.1c-0.9-2.4-2.2-7.8,1.4-8.5c0,0,0.1,0,0.1,0
		c0.5,1.1,1.1,2.2,1.7,3.2c1,1.6,2,3.1,3.2,4.5c0.9,1,1.6,2.2,2.8,2.9c0.4,0.2,0.8,0.4,1.2,0.5c-0.1-0.4-0.2-0.9-0.3-1.3
		c-0.5-1.3-1.6-2.1-2.4-3.2c-1.8-2.2-3.3-4.6-4.5-7.2c-1.1-2.5-1.6-4.7-0.2-7.2c0.6-1,1.5-2.6,2.9-2.2c0,0,0,0,0,0
		c3.1,3.6,6.4,7,9.5,10.5c0.6,0.6,1.4,1.1,2.2,1.4c-0.3-1.2-1-2.2-1.8-3c-2.7-3.1-5.5-6.1-8.2-9.2c-4.2-5.1-8.6-10.1-11.9-15.8
		c-0.9-1.8-1.7-3.7-1.9-5.7c0-3.1,1.9-3.9,4.5-2.5c2.4,1.2,4.3,3.2,6.4,4.9c3.8,3.2,7.5,6.5,11.2,9.9c4.2,4.4,8.4,8.7,12.4,13.3
		c1.1,1.2,2.2,2.6,3.3,3.9c1.4,1.6,3,3,4.7,4.4c0,0,0.2,0.1,0.2,0.1c0,0,0,0,0,0c-2.1-4-5-7.4-7.9-10.8c-0.5-0.7-1-1.5-1.4-2.4
		c-1.1-2.3-1.7-4.9-1.2-7.4c0.2-0.6,0.4-1.8,1.2-1.6c1.7,0.8,3,2.2,4.5,3.2c2.1,1.5,4,2.7,6.1,4.3c2.8,2.1,5.2,4.7,7.7,7.2
		c1.8,1.8,3.5,3.6,5.2,5.6c2,2.5,4.2,4.9,6.2,7.5C337.6,404.4,339,408.1,342.1,410L342.1,410z M348.5,176.4
		c-0.1,0.1-0.2,0.2-0.3,0.3c-0.1-0.1-0.1-0.2-0.1-0.2c-2.7,2.2-4.5,5.5-5.3,8.7c-0.7,3.5-0.8,7.1,0.3,10.5c0.8,2.1,1.9,4.1,3.5,5.7
		C347.2,193.1,347.8,184.8,348.5,176.4L348.5,176.4z M356.9,175.4C356.9,175.4,356.9,175.4,356.9,175.4c-1.3-0.4-2.6-0.8-3.9-0.8
		c-0.1,0-0.3,0.1-0.4,0.1c-0.9,0.3-1.7,0.6-2.5,1c0,0.3-0.1,0.7-0.1,1c0,0,0,0,0,0c1.4-0.2,2.8-0.6,4.2-0.9
		C355.1,175.7,356,175.6,356.9,175.4L356.9,175.4z M360.7,418.1c0.7-3.9-2.9-6-6.1-7.1c-2.1-0.8-4.2-1.6-6.4-1.8
		c-1.4,0.1-3.1-0.1-4.1,0.9c-1.4,2.6-2.2,5.5-3.5,8.2c-2.2,4.6-4.3,9.2-6.5,13.8c-2.4,5.1-5.4,10-8.5,14.7c-0.5,0.8-1,1.6-1.3,2.5
		c-0.1,0.4-0.3,0.9-0.1,1.3c1.2,1.8,3.1,2.9,4.6,4.4c2,1.8,3.6,4,5.6,5.9c1.4,1.1,3.3,1.8,5,1.7c0.2-0.1,0.4-0.1,0.5-0.2
		c0,0,0,0,0,0c0,0,0.1,0,0.1,0c1.9-1,3.2-3,4.4-4.6c1.5-2,2.7-4.2,3.9-6.4c-0.1-0.2-0.1-0.3-0.1-0.5c0.1,0,0.3,0,0.4,0
		c2-4,3.7-8.3,5.5-12.4C356.7,431.6,359.2,425.1,360.7,418.1L360.7,418.1z M363.4,172.9c-1.1-0.3-2.4-0.2-3.6,0
		c-0.9,0.1-1.7,0.3-2.6,0.5c0.7,0.2,1.4,0.5,2,0.8c0.3,0.1,0.6,0.3,0.9,0.4C361.3,174.3,362.4,173.7,363.4,172.9L363.4,172.9z
		 M365.5,191c-0.1,1.3,0,2.5-0.2,3.8c-0.7,0.1-1.4,0.3-2.1,0.6c-0.4,0.1-0.8,0.3-1.1,0.5c0,0-0.1,0.1-0.1,0.1c0,0,0.1,0,0.1,0
		c0,0,0,0,0,0c0.8,0.1,1.6,0.2,2.4,0.4c0,0-0.1,0.1-0.1,0.1c-1.4,2-3,3.8-4.8,5.4c-0.8,0.7-1.8,1.4-2.4,2.3
		c-0.7,0.1-1.5,0.2-2.2,0.2c-1.9,0.1-3.9-0.2-5.6-1c-0.4-0.2-0.7-0.4-1-0.6c0.5-8.6,1.3-17.1,1.8-25.7c0.6,0.2,1.1,0.2,1.7,0.3
		c0.3,0,0.6,0,0.9,0c2.2,0,4.5-0.3,6.7-0.9C364.5,179.5,366.1,184.8,365.5,191L365.5,191z M394.2,178.1c0.6,0.1,1.1,0.2,1.7,0.3
		c-0.9-0.4-1.9-0.7-2.9-1c-0.7-0.1-1.4-0.1-2.2-0.1c-0.5,0-0.9,0-1.4,0.1C391.1,177.6,392.7,177.8,394.2,178.1L394.2,178.1z
		 M400.7,179c-0.2-0.1-0.3-0.3-0.5-0.4c-1.9-1.3-4-2.4-6.3-3.1c-1.3-0.4-2.7-0.3-4.1-0.3c-1.3,0.1-2.6,0.3-3.9,0.7
		c-0.4-0.3-0.7-0.8-0.2-1.3c1.4-0.5,3-0.5,4.4-0.8c1.5,0.6,3.3,0.5,4.8,1.1c2.7,1,5.3,2.3,7.5,4.1C401.9,179,401.3,179,400.7,179
		L400.7,179z M402.9,201c-2.8,5.4-6.5,8.8-12.8,8.9c-6.2,0.5-10.6-2.3-13.4-7.8c-0.5-1-0.9-2-1.2-3.1c-0.1-0.8-0.2-1.6-0.6-2.3
		c0.5-3,0.8-6.1,1.8-9.1c1.3-3.3,3.3-6.4,6.3-8.4c1-0.5,2.1-1,3.2-1.3c1.5,0.8,3.3,1,4.9,1.3c2.8,0.5,5.6,1.1,8.5,1.3
		c1.3,1,2.4,2.3,3,3.9C404.8,189.6,405.3,195.8,402.9,201L402.9,201z M418.6,176.9c0,4.5-0.8,8.9-1.2,13.4c0,1-0.1,2-0.1,3
		c-1.3,0.3-2.7,0.6-4,0.9c-1.9,0.4-3.8,0.8-5.6,1.6c-0.2,0.1-1.1,0.5-1.8,0.9c0.2-1.1,0.3-2.2,0.3-3.3c-0.1-4.4-0.9-9.4-3.8-12.8
		c0,0,0.1,0,0.1,0c1.3,0,2.5-0.8,1.6-2.2c-0.8-1.2-2-1.9-3.2-2.6c-3-1.9-8.3-4.5-11.9-3.1c-1.8-0.3-4.6-0.6-5.3,1.6
		c-0.3,0.9-0.1,1.6,0.3,2.2c-2.5,1-4.8,2.5-6.4,4.8c-2.9,4.1-5.4,9.9-3.7,14.9c-1-0.8-2.4-1-3.6-1.4c-0.8-0.2-1.7-0.3-2.5-0.3
		c0.9-1.9,1.7-3.8,2.2-5.8c1.1-3.7,1.3-7.5,0.8-11.3c-1.1,2.4-1.5,5.6-2.1,8.4c-0.4,1.9-0.9,3.7-1.6,5.5c0.5-2.2,0.4-4.6,0-6.9
		c-0.4-1.7-0.8-3.5-1.7-5c-1-1.4-2.2-2.7-3.6-3.8c1.6-0.7,4.4-2,2.8-3.9c-2.2-1.8-7.8-0.1-10.4,0.6c-0.3,0.1-0.6,0.2-0.9,0.3
		c-1,0-2,0.1-3,0.4c0.4-4.8,0.6-9.7,0.7-14.5c1.3-0.8,2.4-1.9,3.5-3c1.5-1.5,3-3.4,5.3-3.4c2.3-0.1,4.1,1,6.2,1.6
		c1.7,0.5,3.5,0.5,5.3,0.3c7.4-0.8,14.3-4.7,21.9-3.8c14.8,1,14.7,7.9,23.3,8.2c0.7,2.8,1,5.6,1.4,8.5
		C418.5,170.3,418.7,173.5,418.6,176.9L418.6,176.9z M442.6,212c-1.6,1.9-3.7,3.1-6,3.9c-1.1,0.3-2.2,0.6-3.3,0.7
		c-0.4,0-0.7,0-1.1-0.1c-0.4,0-0.8-0.1-1.2-0.1c-0.6,0-1.3,0.3-1.8,0.4c0.4,1.4,1.9,2.1,3.3,2.1c-0.7,2.5-1,5.1-1,7.6
		c-0.2,3.6-0.2,7.2-0.2,10.8c-0.1,3.2,0.3,6.4,0.5,9.7c0.2,4.8,0.7,9.7,1.7,14.5c0.8,4.3,1.9,8.5,3.1,12.6c0.4,1.3,0.7,2.8,1.6,3.8
		c-0.3,0.3-0.5,0.7-0.7,1.1c-3.9,9.5-19.9,11.4-28.9,10.6c-3.4-0.3-6.8-0.7-9.9-2.4c-2.3-1.2-4.3-2.7-6.2-4.4
		c-0.5-0.5-1.1-0.9-1.5-1.5c0.6-1.2,0.6-2.6,0.7-3.9c0-1.7,0-3.4-0.1-5.1c0-0.2,0-0.4,0-0.6c3.9-0.7,7.3-2.9,10.3-5.5
		c2.9-2.6,5.7-5.5,7.9-8.7c2.6-3.8,5.4-7.7,7-12.1c0.5-1.2,1.2-2.9,0.7-4.3c0.2-0.5,0.3-1,0.3-1.6c-1.2,0.5-2.2,1.3-3,2.4
		c-3.8,4.7-8.2,8.9-12.9,12.6c-5.6,4.5-12.9,6.3-19.9,6.1c-3.9,0-7.8-0.8-11.5-2.2c-3.1-1.1-5.9-3.1-8.4-5.3
		c-8.5-7.4-13.3-18.4-14.1-29.5c-0.2-6.4,0-12.7,0.3-19.1c1.5,0.8,3.1,1.3,4.9,1.4c0.4,0,0.9,0,1.3,0c0.6,0,1.3,0,1.9-0.1
		c-0.7,2.8,0.5,5.3,2.9,6.9c1.5,1.1,3.1,2.3,5,2.4c0.4,0,0.8,0.1,1.3,0.1c1.5,0,3-0.3,3.8-1.8c-0.6-0.3-1.2-0.5-1.9-0.5
		c-0.4,0-0.8,0-1.3,0.1c-0.5,0.1-1,0.1-1.5,0.1c-2.1-0.2-3.9-1.8-5.4-3.2c-1.2-1.4-1.1-3.9,0.5-5c2.9-2.3,5.3-5.1,7.2-8.2
		c2,0.2,3.9,0.5,5.8,1.1c0.2,0,0.4,0,0.5,0c0.1,0,0.3,0,0.4,0c-0.4,2.3,1.1,4.7,2.2,6.7c2.3,4,6.1,7,10.8,7.5c0.6,0,1.3,0.1,1.9,0.1
		c2.6,0,5.4-0.3,7.8-1.3c2.9-1.5,5.2-3.9,6.9-6.6c1.3-1.9,2.2-4.1,2.7-6.4c3.8,0,7.5-1.2,11.2-1.9c0.3,0,0.5-0.1,0.8-0.1
		c0.1,0.3,0.2,0.5,0.4,0.8c-0.9,2.6-0.8,7,2.6,7.4c0.1,0,0.3,0,0.4,0c3.3,0,5.9-2.8,6.9-5.8c0,0.4,0.1,0.7,0.1,1.1
		c1-2.2,2.6-4.1,4.1-6.1c2.4-2.7,6.5-3.3,9.9-2.8c3.1,0.4,4.1,3.5,4.7,6.1C448,201.7,445.9,207.6,442.6,212L442.6,212z M450.7,284
		c0.3-1.4,0.3-2.8-1.1-3.6c-2.1-1.3-4.2-2.5-6.1-4.1c-1.4-1.1-2.8-2.3-4.5-2.8c-0.1,0-0.5-0.1-0.9-0.1c0.4,1.4,1,2.9,0.8,4.3
		c0.6,0.9,0.4,2.2-0.1,3.1c-1.4,2.5-3.6,4.6-6.1,6c-6.2,3.3-13.2,4.7-20.2,4.7c-3.9-0.1-8-0.3-11.8-1.4c-2-0.6-3.8-1.6-5.5-2.6
		c-2-1.2-4.2-3.1-4.9-5.4c-0.1,0.1-0.2,0.2-0.2,0.2c-1.1-1.5-0.8-3.4-0.8-5.2c0-0.4,0-0.7,0-1.1c0,0,0,0-0.1,0
		c-1,0.2-1.9,0.8-2.6,1.6c-1,1-1.9,2.1-2.6,3.3c-1.1,1.5-2.2,2.9-3.5,4.2c-0.8,0.9-1.9,1.4-2.6,2.4c-0.3,0.5,0.1,1.1,0.2,1.6
		c0.2,0.7,0.5,1.3,0.9,1.9c1.7,2.5,4,4.6,6.5,6.3c3.8,2.6,7.7,5.2,12,6.8c8.6,2.9,17.9,3.4,26.7,1.4c5.7-1.1,11.3-2.9,16.2-6.1
		c4-2.7,6.4-4.9,8.3-9.5c0.7-1.4,1.2-2.9,2-4.2C450.5,285.2,450.5,284.5,450.7,284L450.7,284z M536.4,406.3
		c0.2-3.8,0.1-7.7-0.1-11.5c-0.3-5.8-0.5-11.7-1.3-17.5c-0.8-5.6-2.3-11.1-4.1-16.5c-2.3-6.1-5.2-12-8.3-17.7
		c-4.9-9.8-11.8-18.6-19.3-26.6c-6.2-6.5-12.4-13.1-19.7-18.4c-5.9-3.9-12.1-7.5-18.3-10.9c-2.8-1.6-5.8-2.9-8.8-4.2
		c-1.3-0.5-2.5-1.4-3.9-1.9c0.5,1.7,0.1,3.9-1.1,5.2c0,0.9-0.2,1.9-0.5,2.9c2.3,0,4.6,1,6.5,2.3c1.6,1.2,3.5,2.3,4.3,4.2
		c-1.9-0.4-3.6-1.8-5.3-2.6c-1.5-0.7-2.9-1.5-4.2-2.4c-0.5-0.3-1-0.7-1.5-1c-0.5,1.6-1.3,3.1-2.1,4.4c0.9,0.1,1.8,0.4,2.7,0.8
		c1.8,0.9,3.4,2.3,4.9,3.7c1.3,1.3,3,2.5,3.6,4.3c-1.2-0.4-2.3-1.2-3.3-2c-1-0.8-2-1.6-3-2.3c-1.8-1.1-3.5-2.5-5.3-3.7
		c-0.2,0.3-0.4,0.5-0.5,0.7c-5.9,6.2-14.1,9.7-22.5,11.3c-3.9,0.8-7.8,1.4-11.8,1.4c-0.9,0-1.7,0-2.6-0.1c-6.7-0.4-13.4-1.8-19.3-5
		c-5.6-3.4-13.9-7.7-15.6-14.5c-1.6,0.8-3.1,1.7-4.8,2.3c-6.8,2.6-13.2,6-18.9,10.6c-6.7,4.8-12.9,10.1-18.7,15.8
		c-1.3,1.4-2.5,2.9-3.7,4.5c-0.7,1.1-1.5,2.2-2.5,2.9c0.1,3.7,0.1,7.4,0,11.2c0.2,8.3,0,16.7,0.2,25c0.2,3.8,0,7.6,0.1,11.4
		c0,3,0.5,7.3-1.8,9.5c0.1,0.7-0.5,1.3-1.2,1.5c-0.2,0.1-0.5,0.1-0.7,0.1c-0.3,0-0.7-0.1-1-0.1c-0.6-0.1-1.3-0.3-2-0.5
		c2.6,2.4,4.9,5,7.4,7.6c2.9,3.5,5.8,7,8.7,10.4c0,0.1,0.1,0.1,0.1,0.2c0-0.6-0.1-1.1-0.1-1.7c-0.1-2-0.2-3.9-0.1-5.9
		c0.1-4.1,0.3-8.1,0.6-12.2c0.2-3.1,0.8-6.9,2.4-9.3c-0.1,2.1,0.3,4.2,0.1,6.3c-0.3,4.4-0.6,8.8-0.7,13.2c0,2.9,0,5.8,0.2,8.7
		c0,1,0.2,2,0,3c-0.1,0.3-0.2,0.6-0.3,0.8c1.1,1.8,2.1,3.6,3.1,5.5c0.8-1.6,2.7-1.9,4.4-1.9c4.1-0.2,8.1,1.4,11.8,3.2
		c2.1,1.1,3.6,3.1,4,5.4c0,0.2,0,0.4,0.1,0.7c0,0,0,0,0,0c2.4,0.5,4.7,1.4,7,2.3c5.8,2,11.4,4.4,17.3,6c7.1,1.6,14,3.6,21.1,5
		c10,1.9,20.2,3.3,30.4,2.9c13.2-0.6,24.2-5.3,31.8-16.4c3.5-5.6,5.5-12,6.8-18.5c0-0.3,0.1-0.7,0.1-1c-0.3-0.9-0.3-1.8-0.4-2.7
		c-0.3-2-0.8-3.9-1.5-5.8c-1.5-3.7-3.4-7-5.1-10.6c0-0.1-0.1-0.1-0.1-0.2c0.6,0.4,1.1,0.9,1.6,1.4c1.9,1.7,4.6,6.4,5.9,10.8
		c0-1.1-0.1-2.2-0.2-3.3c-0.4-3.5-1.4-6.9-2.3-10.2c-0.4-1.3-0.9-2.6-1.4-3.8c-0.5-1.2-1.1-2.5-1.1-3.9c1.8,1.6,2.5,4.2,3.5,6.3
		c1.5,4,2.7,8.2,3.1,12.4c0.2,3-0.1,6.1-0.3,9.1c-0.2,2.4-0.7,4.8-1.4,7.1c-1.3,4.7-3,9.4-5.7,13.5c-8.5,12.7-22.1,17.2-36.7,17.2
		c-0.5,0-1.1,0-1.6,0c-12.3-0.3-24.5-2.4-36.3-5.4c-3.4-0.9-6.9-1.6-10.4-2.4c-4.7-1.3-9.2-3-13.7-4.7c-2.5-0.9-5.1-1.6-7.5-2.8
		c-1-0.5-2-1.2-2.9-1.9c0,1.3-0.4,2.5-1.4,3.4c-0.1,2.6-0.9,5.1-1.8,7.5c-1.8,5.5-4.2,10.9-6.4,16.2c-0.8,2.1-1.7,4.2-2.7,6.2
		c0.6,0.1,1.1,0.4,1.6,0.7c2,0.8,3.9,2.1,5.9,2.9c0.1,0,0.2,0,0.3,0c0,0,0.1,0,0.1,0c0,0,0,0,0,0c-0.1,0.2-0.3,0.2-0.5,0.3
		c-1.3,0.3-2.6,0.3-3.9,0c-1-0.2-1.9-0.6-2.8-1c-0.6-0.2-1.1-0.6-1.6-1c-0.8,1.4-1.6,2.9-2.4,4.2c0.4,0,0.9,0.1,1.3,0.3
		c0.8,0.4,1.5,1,2.3,1.6c1.7,1.2,3.8,2,5.6,3c1.1,0.6,2,1.4,3.1,2.1c0.2,0.1,0.4,0.3,0.6,0.2c0,0,0,0,0,0c0,0,0,0,0,0
		c0,0.1-0.3,0.1-0.4,0.1c-3.5-0.2-6.8-1.7-9.8-3.5c-0.9-0.5-1.9-0.9-2.6-1.7c-0.3-0.3-0.5-0.7-0.7-1.1c-0.4,0.6-0.8,1.2-1.3,1.9
		c-0.8,1-1.4,2.1-2.3,3c0.2,0.1,0.4,0.2,0.6,0.4c6,4.1,12.3,7.8,18.8,11.1c12.2,6.2,25.3,10.6,38.5,14c9.1,2.6,18.4,3.9,27.8,4.9
		c3.4,0.3,6.8,0.4,10.2,0.4c5,0.1,10,0.2,15-0.3c7.4-0.8,14.9-1.7,22.1-3.6c5.3-1.6,10.4-3.7,15.5-5.9c0.3-0.1,0.5-0.2,0.8-0.3
		c0,0,0,0,0,0c0,0,0.1,0,0.1-0.1c1.2-0.7,2.4-1.4,3.6-2.2c3.4-2.6,7-4.7,10.1-7.5c2.6-2.5,5-5.3,7.3-8.1c3.7-4.6,7.4-9.3,10.6-14.3
		c4-6.8,7.2-14.2,9.2-21.8C534.6,421.8,536.1,414.1,536.4,406.3L536.4,406.3z M536.9,376.5c1.3,9.7,1.7,19.5,1.6,29.3
		c-0.3,8.7-2,17.3-4.1,25.7c-2.5,8.1-5.8,16.2-10.6,23.3c-2.4,3.5-5,6.9-7.7,10.2c-3.3,4.1-6.7,8.4-10.7,11.8c-1.3,1-3,2.1-4.3,3
		c-2.6,1.9-5.2,3.7-8.2,4.8c-0.2,0.1-0.4,0.1-0.6,0.2c-2.3,1.4-4.8,2.4-7.3,3.5c-4.4,1.9-9,3.4-13.7,4.3c-8.8,1.6-17.7,2.8-26.7,2.8
		c-1,0-2.1,0-3.1-0.1c-6.6-0.1-13.1-0.3-19.6-1.3c-9.9-1.2-19.7-3.5-29.3-6.3c-10.9-2.9-21.4-6.9-31.4-12c-6.1-2.9-12-6.1-17.6-9.9
		c-0.9-0.5-1.8-1.1-2.5-1.8c-0.6,0.4-1.4,0.7-2.2,0.7c-0.2,0-0.3,0-0.5,0c-4.7-0.4-6.6-3.5-9.5-6.7c-1.3-1.3-2.6-2.6-3.9-3.8
		c-0.2-0.2-0.4-0.4-0.6-0.6c-0.1,0.1-0.2,0.2-0.4,0.4c-3,2.1-6.5,3.4-10,4.3c-3.6,0.9-7.3,1.9-11,2.4c-2.8,0.3-5.7,0.5-8.5,0.5
		c-0.9,0-1.8,0-2.7-0.1c-7.9-0.3-14.3-1.3-21.2-5.2c-8.9-4.3-17.5-9.6-24.3-16.8c-5.1-5.5-9.5-11.6-13.9-17.7
		c-5.5-7.9-10.7-16.2-15.1-24.8c-1.6-3.1-3.2-6.2-4.8-9.2c-0.9-1.7-1.8-3.4-2.5-5.2c-5.9,0-11.7,0.3-17.5,0.4c-2.3,0.1-4.6,0-6.8,0
		c-0.6,0-1.3,0-2,0c-2.6,0.1-5.6,0.1-7.2-1.6c0,0,0,0.1,0,0.1c0,0,0,0,0,0c-0.4,0-0.8-0.2-1.1-0.5c-1.2-1-1.1-2.6-1.2-4
		c-0.1-1.4-0.2-2.8-0.3-4.1c-0.1-3.4-0.5-7.1,0.3-10.5c0-0.1,0-0.2,0-0.3c0-0.6,0.1-1.2,0.1-1.8c-4.3-2.3-7.5-6.8-9-11.4
		c-1-2.5-1.4-5.2-0.7-7.8c0.1-0.3,0.2-0.6,0.4-0.9c-1.9-2.4-3.5-5.2-4.4-8.1c-0.9-3-1.3-6.5,0.4-9.3c0.2-0.4,0.5-0.8,0.9-1.2
		c-1.4-2.9-2.3-6-2.5-9.3c-0.3-3.7,0.6-8.4,4.4-9.9c0.2-0.1,1.2-0.4,1.9-0.4c-0.3-1.9-0.4-3.7-0.2-5.6c0.3-4.4,2.1-9.8,7.1-10.5
		c0.5-0.1,1.1-0.1,1.6-0.1c0,0,0,0,0,0c0-1.3,0-2.6-0.1-3.9c0-4.4-0.4-8.9,0-13.3c0.2-1.2,0.4-2.5,0.7-3.7c0-0.1,0.1-0.2,0.2-0.1
		c0.1,0.3,0.2,0.7,0.3,1c1.3-2.2,7.3-2.9,9.2-2.8c9-0.1,18,0.1,27,0.2c17.3-0.1,34.6-0.5,51.8-0.8c10.9-0.1,21.7,0.2,32.6,0.7
		c4.7,0.2,9.4,0,14.1,0.5c2.7,0.2,5.5,0.2,8.2,0.3c2.4,0.1,5,0.7,6.5,2.6l0,0c0.6,0.5,1.2,1.1,1.5,1.9c0.3,0.8,0.3,1.6,0.4,2.4
		c0.2,1.6,0.1,3.3,0.2,5c0.3,8.6,0.1,17.1,0.4,25.7c0.2,6.8,0.5,13.7,0.6,20.5c0.8-1.3,2.1-2.5,3-3.7c1.9-2.3,4-4.3,6.2-6.3
		c2.9-2.6,5.8-5.2,8.8-7.6c4.7-3.4,9-7.3,14-10.1c4.1-2.3,8.4-4.2,12.9-5.7c0.5-0.1,2.4-0.5,3.6-0.4c0-1.7,1.8-2.7,2.7-3.9
		c1.2-1.3,2.3-2.6,3.3-4c1.7-2.5,4.2-5.5,7.3-4.6c0-1.1-0.1-2.3-0.2-3.4c-0.2-3.3-0.8-6.6-0.7-9.9c-2,0.3-4,0.5-6,0.5
		c-1.1,0-2.1,0-3.2-0.1c-2.3-0.1-4.6-0.6-6.8-1.2c-2.2-0.6-4.5-1.4-6.5-2.6c-9.4-5.7-16.1-15.5-18.7-26.1c-1.4-5.4-1.6-11-1.4-16.5
		c0.1-4.1,0.3-8.2,0.5-12.3c-2-1.6-3.6-3.9-4.7-6.5c-1.5-3.6-1.5-7.8-0.8-11.6c0.9-4.4,3.4-8.6,7-11.2c0.2-0.2,0.5-0.3,0.7-0.5
		c0.1-1.7,0.3-3.4,0.4-5.1c0.1-0.6,0.1-1.2,0.1-1.8c-0.3,0.1-0.7,0.2-1.1,0.1c-0.5,0.1-1.1,0.1-1.6,0.1c-0.4,0-0.9,0-1.3-0.1
		c-4-0.4-7.6-2.8-10.7-5.3c-2.2-1.8-4.7-4.6-3.6-7.7c0.1-0.1,0.1-0.2,0.2-0.4c-4.1-2.2-6.4-7.3-6.3-11.9c0-3,1.8-5.7,4.3-7.3
		c-1.7-2.3-2.5-5.1-2.8-7.9c-0.9-6.5,3.1-12.1,9.7-13c3.9-0.8,8-0.6,11.6,1.2c0.9,0.4,1.8,0.9,2.7,1.4c0-0.1-0.1-0.2-0.1-0.3
		c-1-4.5,3.4-8.4,7.5-9.2c3.7-0.8,7.3,1,10.7,2.5c1.6-7.7,12.8-10.9,19.2-7.1c2.8,1.7,5.2,4,7.6,6.2c0.5-1.7,2-3.1,3.7-3.7
		c4.5-1.4,9.6,1.6,13.8,3.1c1.6,0.6,3.3,1.3,5,1.5c1.8,0.2,3.7,0,5.5-0.2c3-0.3,6-0.2,8.1,2.1c2.2,1.8,4,4,5.2,6.6
		c0.1,0.3,0.2,0.6,0.3,0.8c0.4-0.9,1.1-1.8,1.8-2.5c0.8-0.8,1.8-1.3,2.8-1.6c1.3-0.6,3-0.5,4.1,0.5c1.3,1.6,1.1,4.2,0.3,6.1
		c1.4,0.1,2.9,0.2,4.1,0.9c3.4,2.1,3,5.6-0.9,6.6c1.3,1.3,3.2,2.7,3.4,4.7c0,1.4-1.3,2.4-2.6,2.5c2.2,4.4,2.7,9.2,3.5,13.9
		c1.1,7.9,1.6,16.1-0.5,24c-0.9,3.8-1.8,7.7-3,11.4c-0.4,1.1-0.7,2.3-1.2,3.3c-0.2,0.7-0.9,1.4-1.5,1.9c0.5,0.7,0.9,1.4,1.2,2.4
		c2.2,5.8,0.7,12.2-2,17.5c-1.4,3.1-4,5.5-6.9,7c0,0.6,0,1.2-0.1,1.8c-0.3,2.8-1.6,5.4-2.6,8c-0.9,2-1.3,4.5-3.3,5.7
		c-0.1,5,0,10.1,0.3,15.1c0.3,6.7,1.3,13.3,2.9,19.9c0.4,1.7,0.9,3.3,1.4,5c0,0,0,0,0,0c3.4-1.9,6.8,2,9.6,3.8
		c1.6,1.2,3.6,1.9,4.7,3.5c3.8-0.6,7.3,1.8,10.7,3.2c4.9,2.4,9.5,5.3,14.2,8c2.8,1.6,5.6,3.3,8.2,5.2c9.4,7.2,17.4,16,25.2,24.8
		c2.8,3.3,5.5,6.8,7.9,10.3c3.5,5.3,6.5,11,9.2,16.8c1.9,4,3.8,8,5.3,12.1C534.8,365.9,536.1,371.2,536.9,376.5z"/>
	<g>
		<path class="st5" d="M187,337c-0.1-1.8-0.1-3.5-0.1-5.3c0-5.4-0.1-10.9-0.1-16.3c-0.1-5.5-0.2-10.9-0.1-16.4
			c0.1-3.6,0-7.2-0.1-10.7c0.1-3.2-0.7-9.5,3.2-10.7c0.6-0.2,3.1-0.4,2.6,0.6c-0.7,0.2-1.4,0.5-2,1c-2.2,2.7-1.6,6.9-1.8,10.3
			c0,3.6-0.1,7.2-0.2,10.8c-0.1,9,0.1,18,0.2,27c0,3.6,0,7.2,0.2,10.7c0.2,1-0.1,2.1,0,3C187,340.7,187,338.5,187,337z"/>
		<path class="st5" d="M192.5,277.4c2.6-1.1,5.4-1.2,8.2-1.5c6.6-0.7,13.3-0.6,20-0.5c2.7,0,5.4,0.1,8.2,0c5.5,0.1,11,0.3,16.5,0.1
			c8.5-0.3,17.1-0.3,25.5,0.5c1,0.1,2,0.1,3,0.1c0.5,0,1.1,0,1.6,0c1,0.1,1.7,0.8,2.3,1.4c-2.3,0.8-4.7,0.5-7.1,0.3
			c-11.6-1.3-23.2-0.7-34.9-0.7c-12.2-0.2-24.5-0.8-36.7,0.6c-1.8,0.2-3.7,0.5-5.5,0.6c-1.3,0.1-2.7,0-3.8,0.6
			C190.5,278.2,191.5,277.8,192.5,277.4z"/>
		<path class="st5" d="M197.8,344.7c-3.8-0.3-9.6-0.7-9.9-5.6c0,0,0.1-0.1,0.1-0.1c0,0,0,0,0,0c0,0,0,0-0.1,0.1c0,0,0,0.1,0,0.1
			c1.3,2,3.6,2.8,5.8,3.3c6.1,1.1,12.3,0.8,18.4,0.5c3.4-0.2,6.8-0.3,10.1-0.3c3.3-0.1,6.7,0,10,0.1c2.7,0.1,5.4,0.2,8,0.1
			c6,0,12.1,0,18.1,0c4.8,0,9.6-0.1,14.5-0.2c2.5,0,5.1-0.3,7.6,0.1c0.3,0,0.5,0,0.8-0.1c0.1,0.4,0.1,0.7-0.2,1.1
			c-0.9,1.1-2.8,1-4.3,0.9c-0.5,0-0.9-0.1-1.3-0.1c-5.4,0.1-10.8,0-16.3-0.1c-4.8-0.1-9.5-0.1-14.3-0.1c-4,0-8.1-0.1-12.1-0.1
			c-5.7-0.1-11.4-0.3-17.1,0c-4.4,0.2-8.8,0.5-13.2,0.5C201,344.9,199.4,344.8,197.8,344.7z"/>
		<path class="st5" d="M234.6,319.8c-2.5-0.4-5-1.5-7-3c-1.4-1.2-2.3-2.8-3-4.4c-1.1-2.7-1.4-5.7-1.3-8.7c-0.1-2.2,0.1-4.4,0.5-6.6
			c0-0.1,0-0.2,0.1-0.2c0,0,0,0,0,0c0.5,1.6,1,3.1,1.3,4.7c0.2,1.9,0.1,3.8,0.2,5.7c0.2,2.6,1,5.3,2.7,7.4c1.7,1.8,4.2,2.8,6.6,3.4
			c2.1,0.4,4.1-0.6,5.6-2c2.2-1.7,3.3-4.4,3.9-7.1c0.4-1.7,0.4-3.5,0.4-5.2c0.1-1.9-0.4-3.6,0.2-5.3c0.1-0.2,0.2-0.5,0.3-0.7
			c0.5,0.5,0.8,1,1,1.7c0.3,1.6,0.1,3.2,0.3,4.8c0.1,4.7-1.1,9.9-4.8,13c-1.7,1.6-3.7,2.6-6,2.6
			C235.1,319.8,234.9,319.8,234.6,319.8z"/>
		<path class="st5" d="M243.3,298.9c-1.5-0.5-2.9-1.4-4.1-2.3c-1-0.7-1.8-1.6-2.8-2.3c-2.6,1.9-5.7,3.3-8.9,3.8
			c-1.6,0.2-3.3,0-4.9-0.2c-0.3-0.5,2.8-1,3.2-1.2c3.1-0.7,6.3-1.7,9-3.4c0.3-0.2,0.7-0.5,1.1-0.7c0.8-0.3,1.5,0.3,2.1,0.7
			c0.8,0.6,1.6,1.3,2.5,1.8c1.7,1.2,3.8,1.8,5.2,3.4c-0.5,0.2-1,0.4-1.5,0.4C243.8,299,243.5,298.9,243.3,298.9z"/>
		<path class="st5" d="M221.2,306.7c-1.4-1.8-2.8-5.2,0.2-6.3c1.5-0.3,2.7,1,3.3,2.1c-2.2-1.5-4.1-1-2.6,1.9
			c0.9,1.8,2.7,3.3,2.7,5.4C223.1,309.5,222.1,308.1,221.2,306.7z"/>
		<path class="st5" d="M246.9,304.7c0.5-1.1,1.1-2.3,1-3.5c-0.7-0.2-2.2,1.1-2.1,1.8c0,0,0,0,0,0h0c0,0,0,0,0,0
			c-0.1,0-0.1-0.2-0.2-0.3c-0.3-1.6,1.3-3.8,3-2.9c2,1.2,0.1,4.8-0.5,6.4c-0.5,1-1.4,1.8-2.4,2.1C245.5,307,246.2,305.8,246.9,304.7
			z"/>
		<path class="st5" d="M222,301.4L222,301.4c-4.2-4.9-0.9-11.9,3.1-15.9c4-3.3,9.8-4.2,14.7-2.7c4.4,1.1,7.9,4.8,9.1,9.1
			c0.5,1.7,0.6,3.5,0.3,5.3c-0.1,0.6-0.2,1.3-0.6,1.8c-0.3,0.5-0.8,0.9-1.4,1.1c0-0.3-0.1-0.6-0.1-0.9c-0.1-1.9,0.8-3.8,0.4-5.7
			c-0.8-4.9-4.8-8.6-9.7-9.4c-3.7-0.7-8,0.1-10.9,2.5c-2,1.9-3.5,4.3-4.3,6.9c-0.6,2.4-0.7,5-0.4,7.4c0.1,0.3,0.1,0.6,0.3,0.7
			c0,0,0,0,0,0C222.3,301.8,222.1,301.6,222,301.4z"/>
		<path class="st5" d="M234.2,283.2c-1.2-1.7-1.5-4.5,0.2-5.9c1.2-1.1,2.9-1.5,4.3-0.5c-0.8,0.5-2,1.5-2.8,2.2
			c-0.6,0.4-0.9,1.1-1.1,1.8c-0.2,0.8-0.6,1.7-0.4,2.5c0,0,0,0,0,0c0,0,0,0,0,0c0,0,0,0,0,0c0,0,0,0,0,0
			C234.2,283.4,234.2,283.3,234.2,283.2z"/>
		<path class="st5" d="M247.1,288.9c-0.2-0.1-0.4-0.2-0.7-0.3c0-0.1,0.1-0.1,0.1-0.2c0.7-1.5,2.1-2,2.8-3.4c0.7-1.5,0.3-3.1,0.1-4.7
			c-0.2-0.9-0.5-1.8-0.9-2.6c0,0-0.1-0.1,0-0.2c0,0,0,0,0,0c0,0,0,0,0,0.1c0.8,0.5,1.4,1.2,1.8,2c1.1,2.1,1.8,4.9,0.4,7.1
			c-0.7,1.2-1.6,2.3-3,2.3C247.5,288.9,247.3,288.9,247.1,288.9z"/>
		<path class="st5" d="M249.1,278.8c-0.8-0.3-2.1-0.5-2.2-1.5C247.8,276.7,248.8,277.9,249.1,278.8c0.1,0,0.1,0,0.2,0
			C249.2,278.8,249.2,278.8,249.1,278.8C249.1,278.8,249.1,278.8,249.1,278.8z"/>
		<path class="st5" d="M234.6,307.6c-0.6-0.1-1.6-0.4-1.9-0.9c0.5,0.1,1,0,1.5,0c0.6-0.1,1.2-0.1,1.8,0.1c0.4,0.1,0,0.6-0.2,0.7
			c-0.2,0.2-0.5,0.2-0.8,0.2C234.9,307.6,234.7,307.6,234.6,307.6z"/>
		<path class="st5" d="M228.4,306.4c-1.9-1-0.5-5,1.6-3.6c1.2,1,0.5,3.8-1.1,3.8C228.8,306.5,228.6,306.5,228.4,306.4z"/>
		<path class="st5" d="M239.3,306.7c-2.1-0.2-1.9-4.2,0.3-3.9c0.8,0.2,1.5,0.9,1.4,1.7c-0.1,0.9-0.5,2.2-1.5,2.2
			C239.4,306.7,239.4,306.7,239.3,306.7z"/>
		<path class="st5" d="M227.9,301.5c-0.3,0-0.6,0-0.8-0.2c0,0,0,0,0,0c0.5-0.1,0.9-0.2,1.3-0.4c-0.5,0-0.9,0-1.4-0.1
			c0.5-1.1,1.7-2,3-1.8c2.1,0.2,2.2,1.9,0.1,2.2c-0.6,0.1-1.1,0.2-1.7,0.2C228.1,301.5,228,301.5,227.9,301.5z"/>
		<path class="st5" d="M241,301.6c-0.8-0.1-1.7-0.4-2.4-0.9c0,0-0.4-0.2-0.3-0.3c0,0,0.1,0,0,0c0,0,0,0,0,0c0.2,0.1,0.5,0.1,0.7,0.1
			c-0.3-0.1-0.5-0.4-0.7-0.6c0.3-0.8,1.3-0.8,2-0.8c0.9,0.1,2.4,0.7,2.1,1.8c-0.2,0.5-0.7,0.7-1.2,0.7
			C241.2,301.6,241.1,301.6,241,301.6z"/>
		<path class="st5" d="M234.6,314.8c-1.7-0.1-3.2-1.3-3.5-3c0,0,0,0,0.1,0c0,0,0,0,0.1,0c1.2,0,2.2,0.6,3.2,1c1.4,0.3,3-0.1,3.8-1.4
			c-1,0.1-1.9,0.4-2.9,0.5c-1.8,0.1-3.7-0.2-5.3-1.1c0,0,0,0.1,0,0c-0.1-0.1,0-0.1,0.1-0.1c2,0,4-0.2,5.9-0.6
			c0.9-0.2,1.8-0.4,2.6-0.7c0.4-0.1,1-0.4,1.4,0c0.4,0.3,0.3,0.9,0.2,1.3c-0.5,2.4-2.9,4.1-5.3,4.1
			C234.8,314.8,234.7,314.8,234.6,314.8z"/>
		<path class="st5" d="M211.4,342.3c-1.2-2.5,0.7-5,2-7c1.6-2.1,3.2-4.3,5.5-5.8c3.1-2.3,7.1-3.6,9.7-6.4c0.6-0.9,0.8-1.9,0.9-2.9
			c0.1-0.9,0.3-1.7,0.2-2.6c0,0,0-0.1,0-0.1c0.2,0,0.2,0.3,0.3,0.4c0.6,1.5,1.4,3.2,1,4.9c-0.3,1.3-1.2,2.4-2.3,3.1
			c-3.2,2.4-7.1,3.7-10.2,6.4c-2,1.9-3.8,4.1-5.1,6.6C212.6,340,212.3,341.2,211.4,342.3C211.4,342.3,211.4,342.3,211.4,342.3z"/>
		<path class="st5" d="M255.2,343.7c-0.7-1.5-0.5-3.2-0.8-4.8c-0.8-4.2-2.9-8-6.8-10.1c-6-2.7-11.1-3.1-7.7-11.1c0,0,0-0.1,0-0.1
			c0,0,0,0,0,0c0.2,1.2,0.3,2.5,0.5,3.7c0.1,0.7,0.2,1.3,0.5,1.9c1.1,1.5,2.9,2.2,4.6,2.9c4.8,1.6,8.3,5,9.7,9.9
			C255.9,338.5,257,341.6,255.2,343.7C255.2,343.7,255.2,343.7,255.2,343.7z"/>
		<path class="st5" d="M196.9,339.6c-0.7-2.8-1.6-5.6-1.6-8.5c0-0.8,0.5-1.4,1.1-1.8c1.3-0.9,2.7-1.5,4.1-2.2
			c0.7-0.4,1.4-0.9,2.1-1.2c1.5-0.7,2.8-0.5,3.1,1.3c1,3.8,2.6,7.3,4.1,10.9c0.7,1.6,1.1,3.3,1.9,4.8c0,0,0,0,0,0c0,0,0,0,0,0
			c0,0,0,0,0,0c0,0,0,0,0,0c0,0,0,0,0,0c0,0,0-0.1,0-0.1c0,0.6-1.4-1-1.6-1.1c-1.4-1.6-2.3-3.6-3.2-5.5c-1.2-2.9-2.5-5.8-3.2-8.9
			c-1.3,0.5-2.5,1.4-3.7,2c-1,0.6-2.3,1.1-3.1,1.9c-0.3,2.1,0.6,4.2,1,6.3c0.4,2.1,1.5,4,1.3,6.1
			C197.8,342.7,197.4,341.1,196.9,339.6z"/>
		<path class="st5" d="M203.9,325.2c0-1,0.2-2.1,0.4-2.9c0.2-1.1,0.6-2.2,0.8-3.2c0.1-0.7,0.4-1.5,0-2.2c-1.1,0.9-1.1,2.6-1.8,3.7
			c-0.3,0.5-0.7,0.9-1.2,1.2c-0.1-0.3-0.1-0.7-0.2-1.1c0-0.8,0.2-1.6,0.6-2.3c0.3-0.8,0.6-1.6,1.2-2.3c0.9-1.1,2.5-1,3.1,0.4
			c0.8,2.1-0.2,4.4-0.7,6.5c-0.4,1.3-1.1,2.6-1.7,3.9c-0.1,0.2-0.1,0.5-0.1,0.7C203.7,326.7,203.9,325.9,203.9,325.2z"/>
		<path class="st5" d="M201.8,321.8c-1.1-2.8-1.5-5.8-2.2-8.7c-0.3-1.3-0.6-2.6-1.3-3.8c-0.1-0.1-0.2-0.2-0.3-0.3
			c-0.9,2.3-0.2,4.8,0,7.2c0.1,0.9,0.3,1.8,0.1,2.7c-0.1,0.3-0.2,0.6-0.3,0.9c-0.3-0.5-0.6-0.9-0.9-1.4c-0.2-0.6-0.3-1.3-0.4-1.9
			c-0.2-2.1-0.6-4.2-0.3-6.3c0.2-1,0.3-2.3,1.4-2.6c1-0.3,1.9,0.6,2.3,1.4c0.6,1.1,0.9,2.3,1.2,3.4c0.4,1.5,0.8,3,0.9,4.5
			c0.2,1.5-0.1,3-0.3,4.5c0,0.1,0,0.4,0.1,0.4c0,0,0,0,0,0C201.9,321.9,201.8,321.9,201.8,321.8z"/>
		<path class="st5" d="M192.4,314.2c-0.3-1.6-1.5-6.9,1.3-6.5c2.5,0.9,3,4.1,3.5,6.4c0.4,2.2,0.9,4.4,0.6,6.6
			c-0.7-2.3-1.8-4.4-2.3-6.8c-0.5-1.6-0.8-3.4-2.1-4.6c-0.4,2.6,0.6,5,1.1,7.5c0.4,1.3,0.7,2.6,0.3,3.9
			C193,319,193,316.4,192.4,314.2z"/>
		<path class="st5" d="M193.4,309.3C193.4,309.3,193.4,309.3,193.4,309.3C193.4,309.3,193.4,309.3,193.4,309.3z"/>
		<path class="st5" d="M189,316.4c-0.5-1.7-2.2-5-1.3-6.6c1.3-1.3,3.3,1,4,2.1c1.8,2.9,2.6,6.4,3.2,9.7c0.1,0.2-0.3-0.3-0.3-0.4
			c-1-1.7-1.9-3.4-2.7-5.2c-0.8-1.8-1.4-3.6-3-4.8c0.2,2.2,1.3,4.1,2,6.1c0.5,1.7,1.6,3.5,1,5.4C190.1,321.2,189.9,318.5,189,316.4z
			"/>
		<path class="st5" d="M189.4,320.7c-0.7-0.7-1.5-1.5-1.4-2.6c1.1,0.1,1.9,1,2.4,2c0.4,0.8,0.9,1.8,1.2,2.7
			C190.8,322.1,190.1,321.4,189.4,320.7z"/>
		<path class="st5" d="M192.1,328.2c-2-2.2-4.2-4.5-4.9-7.5c1.4,1.6,3.5,3.4,5,5.2c1.3,1.6,3.3,3,3.3,5.2
			C194.1,330.5,193.1,329.3,192.1,328.2z"/>
		<polygon class="st5" points="187.2,320.8 187.2,320.8 187.2,320.8 		"/>
		<polygon class="st5" points="187.2,320.8 187.2,320.8 187.2,320.8 		"/>
		<path class="st5" d="M271.5,294c-2.2-0.2-4.4-0.2-6.6-0.2c-1.2,0-2.4,0-3.6,0c-1.4,0-2.7-0.4-4.1-0.3c0,0,0,0,0,0c0,0,0,0,0,0
			c0,0,0,0,0,0c-0.1-0.1,0.1-0.2,0.2-0.3c1.2-0.6,2.6-0.9,3.9-1.2c4-0.5,8-0.2,12,0.1c0.7,0.2,1.4,0.6,2,1c-0.9,0.6-2,0.9-3,0.9
			C272.1,294.1,271.8,294.1,271.5,294z"/>
		<path class="st5" d="M268.9,300.5c-3.4-0.3-7,0.1-10.3-1.1c-0.1,0-0.3-0.1-0.2-0.2c0,0,0.1,0,0,0v0l0,0h0c1.4-0.1,2.7-0.5,4.1-0.7
			c2.7-0.3,5.4-0.2,8.1,0.1c1.2,0,2.3,0.4,3.4,1c-1.3,0.7-2.7,0.9-4.1,0.9C269.6,300.5,269.3,300.5,268.9,300.5z"/>
		<path class="st5" d="M263,307.2c-1.5-0.1-3.1-0.3-4.4-0.9c1.7-0.2,3.3-0.6,5-0.7c1.6-0.1,3.3-0.1,4.9-0.1c1.4,0,2.9,0,4.2,0.8
			c-1.5,0.8-3.2,0.8-4.8,0.8c-1.2,0-2.5,0.1-3.7,0.1C263.7,307.2,263.3,307.2,263,307.2z"/>
		<path class="st5" d="M264.8,313.8c-0.5,0-1,0-1.4,0c-1.9-0.1-3.7-0.6-5.6-1.1c2.1-0.5,4.7-0.7,7-0.6c2,0.1,4.1-0.1,5.9,0.8
			c-1.4,0.8-3,0.9-4.6,0.9C265.7,313.8,265.2,313.8,264.8,313.8z"/>
		<polygon class="st5" points="257.8,312.7 257.8,312.7 257.8,312.7 		"/>
		<path class="st5" d="M257.8,312.7C257.8,312.7,257.8,312.7,257.8,312.7C257.8,312.7,257.8,312.7,257.8,312.7z"/>
		<path class="st5" d="M297.1,297.3c-2.6-0.1-5.9-0.2-7.2-2.8c-0.5-1.3-0.3-2.7-0.4-4c0-2.9-0.3-6,0-8.9c-0.5-1-0.5-2.4,0.3-3.3
			c0.9-1,2.5-0.8,3.8-1.1c2.7-0.4,5.3-0.4,8-0.4c2.9,0,5.9,0,8.7,0.7c1.8,0.4,3.5,1.1,3.7,3.1c0.3,1.4,0.2,2.5,0.3,3.8
			c0.1,2.2,0.4,4.4,0.4,6.6c-0.1,1.6,0.1,3.6-1.4,4.6c-0.8,0.4-1.8,0.4-2.7,0.6c-3.7,0.7-7.4,1.1-11.1,1.1
			C298.7,297.3,297.9,297.3,297.1,297.3L297.1,297.3z M293.7,279c-0.9,0.2-1.9,0.1-2.7,0.5c-0.2,0.6-0.2,1.2-0.4,1.7
			c1.4,3.7,1,7.7,1.1,11.6c0,2.1,2.7,2.1,4.3,2.3c1.2,0.1,2.4,0.1,3.6,0.1c3.6,0.1,7-0.4,10.5-0.9c0.8-0.1,1.6-0.2,2.3-0.4
			c0.3-0.5,0.3-1.1,0.3-1.7c0.2-3.1-0.5-6.2-0.7-9.3c-0.1-0.9,0-2.1-0.5-2.9c-1.5-0.9-3.3-1.1-5-1.3c-1.9-0.1-3.9-0.2-5.9-0.2
			C298.4,278.6,296,278.7,293.7,279z"/>
		<path class="st5" d="M304.4,287.1c-0.6-0.2-1.2-0.6-1.7-0.9c-1-0.6-2.1-1.2-2.7-2.2c0,0,0,0,0,0c0.4,0.1,0.8,0.2,1.1,0.3
			c1.3,0.3,2.6,0.6,3.8,1.2c0.6,0.4,1.1,1,1.1,1.8c-0.2,0-0.3,0-0.5,0C305.2,287.3,304.8,287.2,304.4,287.1z"/>
		<path class="st5" d="M300.2,292.4c-1.7-0.3-1.1-3.4-1-4.7c0.2-1.2,0.3-2.7,1.1-3.7c0.4-0.2,0.3,0.3,0.3,0.5c0,0,0,0,0,0
			c0,0,0,0,0,0c0,0,0-0.1,0-0.1c0,0,0,0,0,0c0.2,1.7,0.6,3.4,0.7,5.1c1.4-1.2,2.5-2.9,4.4-3c-0.1,1.3-0.8,2.4-1.7,3.1
			c-0.7,0.6-1.3,1.2-2,1.8c-0.4,0.4-0.9,0.8-1.5,0.8C300.3,292.4,300.3,292.4,300.2,292.4z"/>
		<path class="st5" d="M296,320.4c-5.8-0.2-5.4-1.8-6-6.8c-0.3-3.2-0.5-6.5,0.1-9.7c0-0.1,0.2-0.2,0.3-0.1c1.4-1.8,4.1-1.2,6.1-1.5
			c1.8-0.1,3.5-0.1,5.3-0.1c1.8,0,3.6-0.1,5.4-0.1c1.3-0.1,2.6-0.2,4-0.1c0.7,0,1.5,0.1,2,0.6c0.8,0.7,0.7,1.9,0.6,2.8
			c0,0.8-0.1,1.6,0,2.4c0.1,1.8,0.4,3.5,0.5,5.3c0,1.8,0.1,3.8-0.5,5.5c-0.6,1.2-2.4,0.8-3.5,1c-4.1,0.2-8.1,0.8-12.1,0.8
			C297.4,320.4,296.7,320.4,296,320.4L296,320.4z M297.9,318.7c4.8,0,9.5-0.9,14.3-1c0.5-3-0.1-5.9-0.4-8.8c-0.1-1.7-0.1-3.3-0.1-5
			c-2.1-0.3-4.2-0.1-6.2,0c-2.9,0-5.9,0.2-8.8,0.2c-0.8,0-1.5,0-2.3,0.1c-1.3,0.1-2.6,0.2-3.9-0.2c1.4,3.2,1.3,6.7,1.7,10.1
			c0.1,1.3,0,2.7,0.6,3.9c1.2,0.8,2.8,0.7,4.2,0.7c0.1,0,0.2,0,0.3,0C297.4,318.7,297.6,318.7,297.9,318.7z"/>
		<path class="st5" d="M299.1,315.8c-1.5-0.8-0.8-3.2-0.7-4.5c0-0.2,0.6-3.6,0.7-2.4c0.4,1.6,0.9,3.2,1.1,4.9
			c1.1-0.6,2.1-1.3,3.1-1.9c-1.3-0.4-3-0.7-3.6-2.2c1.1-0.4,2.3-0.4,3.3,0c0.9,0.4,2,0.6,2.8,1.3c0.6,0.7,0.1,1.6-0.7,1.9
			c-1.2,0.6-2.4,1.3-3.6,2c-0.6,0.3-1.3,0.9-2,0.9C299.4,315.8,299.2,315.8,299.1,315.8z"/>
		<path class="st5" d="M296,344.9c-4.9-0.3-4.8-2-5.2-6.3c-0.3-3.6-0.4-7.3,0.5-10.8c0.1-0.2,0.1-0.4,0.2-0.5c0,0,0,0,0.1,0
			c0,0,0,0,0,0c0,0,0,0,0,0c0,0,0,0,0,0c0,0.3,0.1,0.6,0.2,0.9c0.8-0.9,2-1.1,3.1-1.2c1.3-0.1,2.6-0.3,3.9-0.4c4.3-0.2,8.7-0.8,13,0
			c2.6,0.5,2.6,12.1,2,14.4c-0.2,1.2-0.8,2.4-2.1,2.6c-1.7,0.4-3.4,0.6-5.1,0.7c-3.1,0.1-6.2,0.5-9.3,0.5
			C296.9,345,296.5,345,296,344.9L296,344.9z M293,339c0.1,0.9,0.1,1.9,0.3,2.8c0.1,0.3,0.1,0.6,0.4,0.8c1.6,0.7,3.6,0.6,5.3,0.5
			c3-0.2,5.7-0.3,8.6-0.6c1.4-0.1,2.9-0.3,4.2-0.8c1.2-2.9,0.4-10.3-0.5-13.4c-2.6-0.6-5.4-0.3-8-0.2c-1.7,0.1-3.5,0.2-5.2,0.4
			c-0.9,0.1-1.8,0.2-2.7,0.3c-1.2,0.1-2.5,0.4-3.6-0.2C293,332,292.8,335.6,293,339z"/>
		<path class="st5" d="M298.7,340c-1.4-1.1-0.4-5.5,0-7.1c0.1,0,0.1,0,0.1,0.1c0.6,1.7,1,3.4,1.3,5.1c0.9-0.4,1.7-0.9,2.5-1.3
			c0.4-0.2,0.9-0.5,1.3-0.7c-1.4-0.5-3.1-0.6-4.2-1.8c-0.3-0.3-0.5-0.7-0.8-1.1c0.4-0.2,0.8-0.3,1.2-0.4c0.8-0.1,1.7,0.2,2.4,0.6
			c1,0.5,2.1,0.8,3.1,1.2c0.6,0.2,1.2,0.4,1.3,1.1c0.1,1-1.1,1.4-1.9,1.8c-1.2,0.6-2.4,1.2-3.5,1.9c-0.7,0.4-1.4,1-2.2,1
			C299.3,340.2,299,340.1,298.7,340z"/>
		<path class="st5" d="M262.9,355.2c0.3,0.1,0.6,0.2,0.8,0.4c-0.3,0.2-0.6,0.3-1,0.4c-0.5,0.2-1.1,0.3-1.7,0.3c-2.5,0-5,0-7.4,0
			c-3.8-0.1-7.5-0.1-11.3,0.1c-10.8,0.4-21.7,0.3-32.5,0.6c-3.7,0.1-7.4,0.6-11.1,0.6c-1.3,0-2.5-0.1-3.8-0.2
			c-1.5-0.2-3.8-0.9-3.4-2.8c0.1-0.3,0.2-1.5,0.5-2c0.1-0.2,0.2-0.3,0.3-0.2c0.1,0.1,0.1,0.2,0.1,0.3c0,0.1,0,0.2,0,0.3
			c0,0-0.1-0.1-0.1-0.1c0.1,0.3,0.1,0.6,0.2,0.9c0.1,0.4,0.2,0.8,0.3,1.1l0,0c2.6,1.8,8.5,0.9,11.6,0.8c4-0.3,7.9-0.3,11.9-0.4
			c6.1,0,12.2-0.2,18.2-0.4c8.3-0.3,16.6-0.5,24.9-0.2C260.7,354.7,261.8,354.8,262.9,355.2z"/>
		<path class="st5" d="M265.3,352.8c0.7,0.5,1.2,1.4,1.2,2.3c-0.1,1-1.1,1.4-2.1,1.4c-0.4,0-0.7-0.1-1-0.1c-0.2-0.1-0.4-0.1-0.6-0.2
			c-0.2-0.1-0.4-0.2-0.5-0.3c0.2-0.2,0.4-0.4,0.6-0.6c0.5-0.4,1-0.7,1.6-0.8c-0.4-0.4-0.9-0.5-1.4-0.6c-1.7-0.3-3.4-0.4-5-0.5
			c-5.4-0.3-10.8-0.5-16.2-0.4c-12.8,0.1-25.5,0.4-38.2,0.6c-3.7-0.1-7.5,0.2-11.1-0.8c0,0,0,0,0,0c-0.1,0-0.3-0.1-0.4-0.1
			c0,0,0,0,0,0c-0.2,0-0.3-0.2-0.2-0.4c0.3-0.3,0.8-0.2,1.2-0.3c2-0.2,4-0.1,6,0c1.3,0.1,2.6,0.1,4,0.1c10.9-0.2,21.8-0.5,32.7-0.6
			c8.3-0.1,16.6-0.5,24.8,0.3C262.1,351.9,263.9,351.9,265.3,352.8z"/>
		<path class="st5" d="M196.6,367.4c-1.9-0.1-4.1-1-3.5-3.3c-0.1,0-0.2,0-0.2-0.1c0.1-0.1,0.2-0.2,0.3-0.3c0.1-0.3,0.2-0.9,0.3-1.1
			c0,0,0,0,0,0c0,0,0,0,0,0c0,0.2,0.1,0.5,0.1,0.7c1.3-0.8,2.7-0.5,4.1-0.7c2.5-0.2,5-0.2,7.5-0.2c6.8-0.1,13.6,0,20.4,0.1
			c3.4,0,6.8,0,10.2,0c0.8,0,1.6,0,2.5,0c2.4-0.1,4.8-0.2,6.7,1.2c0.7,0.5,0.7,1.6,0.1,2.2c-0.6,0.6-1.4,0.6-2.2,0.6
			c-0.9,0-1.8,0-2.7,0c-5.1,0.1-10.2,0.3-15.3,0.4c-4.5,0-9,0.1-13.5,0.3c-4.1,0.1-8.2,0.3-12.3,0.3
			C198.3,367.5,197.5,367.5,196.6,367.4L196.6,367.4z M197,365.8c1.7,0.1,3.4,0.1,5.1,0c13.8-0.4,27.5-0.9,41.3-1.2
			c-1.5-0.5-3.1-0.5-4.7-0.4c-0.6,0-1.3,0-1.9,0c-5.2-0.1-10.4-0.1-15.6-0.2c-6.7-0.2-13.4-0.1-20.1,0.1c-1.4,0.1-2.9,0.2-4.3,0.4
			c-0.9,0.1-1.9,0.3-2.8-0.1C194.3,365.8,196,365.6,197,365.8z"/>
		<path class="st5" d="M193.6,362.6C193.6,362.6,193.6,362.6,193.6,362.6C193.6,362.6,193.6,362.6,193.6,362.6z"/>
		<polygon class="st5" points="178,360.4 178,360.4 178,360.4 		"/>
		<path class="st5" d="M177.5,351c-0.4-0.1-0.6-0.4-0.7-0.8c-0.4-0.1-0.7-0.6-0.8-0.8c-0.3-0.3-0.6-0.7-0.6-1.2c0-0.8,1-1.2,1.5-0.7
			c0.2-0.1,0.4-0.1,0.6,0c0.3-0.2,0.7-0.2,0.9,0.1c0.2,0.3,0,0.5,0.1,0.8C178.5,349.3,178.9,351.2,177.5,351z"/>
		<path class="st5" d="M177.7,351.8c-0.4-0.5-0.2-1.2-0.2-1.8c0-0.5-0.1-1-0.1-1.6c0-0.3,0-0.7,0.2-0.9c0.4-0.4,1.1-0.2,1.2,0.3
			c0.1,0.7-0.1,1.4-0.2,2.1C178.5,350.5,178.8,352.4,177.7,351.8z"/>
		<path class="st5" d="M174.7,368.4c-0.3-0.6-0.5-1.2-0.7-1.9c0,0,0,0,0,0c-0.4-0.3-0.4-0.8-0.4-1.3c0-0.7,0-1.5-0.1-2.2
			c-0.1-0.8-0.1-1.7-0.2-2.5c-0.1-0.5-0.3-1.2,0.3-1.5c0.9-0.4,1.3,0.4,1.2,1.2c0.1,0.5,0,1.1,0.1,1.6c-0.1,1.4,0.3,2.8,0.3,4.2
			c0,0,0,0,0,0c0,0.2-0.1,0.3-0.2,0.4C175,367.1,174.9,367.8,174.7,368.4C174.7,368.4,174.7,368.4,174.7,368.4
			C174.7,368.4,174.7,368.4,174.7,368.4z"/>
		<path class="st5" d="M177.3,366.3c-0.6-1.7-0.2-3.7,0.1-5.4C177.7,362.6,178,364.6,177.3,366.3
			C177.3,366.3,177.3,366.3,177.3,366.3z"/>
	</g>
	<path class="st5" d="M533.9,450.9c-0.1-2.4,1.4-4.6,2.1-6.9c0.9-2.5,1.7-4.8,2.6-7.3c2.2-6.5,4.1-13.2,5.2-20.1
		c0.5-3.1,0.6-6.2,1.1-9.2c0.2-1.2,0.5-2.4,0.7-3.5c0.1,0.8,0.3,1.5,0.4,2.3c1.1,11-3.7,27.7-8.2,37.7c-0.6,1.2-1.2,2.4-1.7,3.7
		C535.5,448.8,534.9,450.1,533.9,450.9z"/>
	<path class="st5" d="M519.9,469.7c0.4-2,1.8-3.5,2.9-5.1c2-2.7,4-5.6,6.9-7.4c0.2-0.1,0.5-0.2,0.6-0.1c-0.2,0-0.3,0.2-0.4,0.4
		c-0.8,1.7-1.5,3.4-2.6,4.9c-1.2,1.6-2.5,3.1-3.9,4.6C522.4,468.1,521.4,469.3,519.9,469.7z"/>
	<g>
		<path class="st5" d="M303.6,401.9c-1.2-2.1,1.2-4.2,3-4.8c0.3-0.1,1.1-0.3,0.9,0.3c0,0,0,0.1,0,0.1c0,0-0.1-0.2-0.1-0.2
			c-0.8,1-1.3,2.2-1.9,3.4C305.1,401.4,304.3,401.7,303.6,401.9C303.6,401.9,303.6,401.9,303.6,401.9z"/>
		<path class="st5" d="M296.5,412.5c-3.1-2.6,3-7.8,4.3-5.4c0,0,0,0,0,0c0,0,0,0,0,0h0c0,0,0,0,0,0c-0.1,0-0.3-0.1-0.5-0.1
			c-0.2,0-0.4,0.2-0.5,0.3C298.4,409,298.2,411.3,296.5,412.5z"/>
		<path class="st5" d="M291.5,422.2c-1.1-0.4-1.3-1.7-1-2.7c0.2-1,1.4-3.6,2.7-2.8c0,0,0.1,0,0.1,0.1c-0.2,0.1-0.4,0.1-0.5,0.3
			C292.5,418.8,292.9,420.8,291.5,422.2C291.6,422.2,291.6,422.2,291.5,422.2z"/>
	</g>
	<path class="st5" d="M457.8,176c-0.4-1.9,0.2-3.7,0.3-5.6c0.4-3.6,0.8-7.2,0.8-10.8c0-1.6-0.1-3.1-0.2-4.6c-0.2-4-1.1-7.9-0.6-11.9
		c1.4,3.3,2.1,7.1,2.5,10.7c0.5,4.6,0.6,9.3-0.2,13.9c-0.3,1.8-0.7,3.7-1.2,5.5C458.9,174.2,458.5,175.2,457.8,176z"/>
	<g>
		<path class="st5" d="M572.9,263.6c-1.8-0.6-2.4-2.2-3.3-3.7c-1.4-2.3-2.7-4.7-4.3-6.9c-2.4,2.5-4.9,4.9-7.3,7.4
			c-1.5,1.7-3.4,3.7-4.8,0.6c-1.7-3.1-3.4-6.3-6.4-8.3c-2.4,1.9-4.2,4.4-6.1,6.8c-1.1,1.1-3.2,5-5.1,4c-1.1-0.9-1.8-2.2-2.6-3.2
			c-1.4-1.8-2.4-3.9-3.9-5.6c-3.2,2.8-6,6.2-9.9,7.9c0,0,0,0,0-0.1c0.8-1.5,1.8-3,2.9-4.3c1.8-1.8,3.6-3.6,5.5-5.3
			c2.5-2.3,4.3,1.8,5.5,3.5c1.1,1.6,2.3,3.2,3.5,4.8c2.1-2.1,3.7-4.7,5.8-6.9c0.9-1,1.8-2,2.7-2.8c0.4-0.4,0.9-0.8,1.5-0.9
			c1.3-0.2,2.2,1,3,1.7c2.5,2.3,3.9,5.4,5.6,8.2c2.4-2.5,4.8-5.1,7.3-7.6c0.7-0.6,1.2-1.6,2.1-2c1.9-0.6,2.9,1.8,3.8,3
			c0.9,1.5,1.9,3,2.8,4.5C572.2,260,573.4,261.6,572.9,263.6C572.9,263.6,572.9,263.6,572.9,263.6z"/>
	</g>
	<g>
		<path class="st5" d="M224.6,237c-1.6-1.3-1.5-3.4-1.6-5.3c-0.4-5.6-0.6-11.3-0.6-16.9c0-5.8,0.1-11.7-0.1-17.5
			c-0.1-3.1-0.1-6.3,0.7-9.3c0,0,0.1-0.4,0.2-0.4h0c0,0,0,0,0,0v0c0.2,2,0.8,3.9,1,5.9c0.6,7.7,0.2,15.4,0.3,23.1
			c0,3.7,0.1,7.5,0.3,11.2c0.1,1.9,0.2,3.8,0.4,5.7C225.4,234.8,225,235.9,224.6,237C224.6,237,224.6,237,224.6,237z"/>
		<path class="st5" d="M260.9,249.4c-0.4-0.3-0.6-0.8-0.7-1.2c-1.2-2.7-2.2-5.5-3.9-7.9c-4.3-0.4-8.6-0.7-12.9-0.6
			c-6,0.1-13.5,1.1-18.7-2.7c-0.1-0.1-0.3-0.3-0.3-0.4c0,0,0,0,0.1,0c0,0,0,0,0,0c0,0,0,0,0,0c0.2,0.2,0.6,0.2,0.8,0.3
			c1.7,0.3,3.5,0.4,5.2,0.5c3.3,0.5,6.6,0.4,9.9,0.3c2.2-0.1,4.5-0.1,6.7,0c2,0,3.9,0.1,5.9,0.2c1.4,0.1,2.8,0,4.1,0.5
			c1.2,0.6,1.7,2,2.3,3.1c0.9,1.7,1.9,3.5,2.5,5.4c0.9-1.5,1.7-3.2,2.5-4.8c0.4-1.1,0.9-2.2,1.7-3c0.8-0.6,1.8-0.6,2.7-0.8
			c1-0.1,1.9-0.3,2.9-0.4c6.3-0.8,12.7-0.4,19.1-0.9c1.3-0.1,2.6-0.2,3.8-0.3c0.8-0.2,1.9-0.1,2.5-0.8c1.5-2.8,1.6-6,1.7-9.1
			c0.1-6-0.1-12.1-0.3-18.1c0-5.1-0.8-10.3-1.2-15.4c-0.2-2-0.9-4,0.2-5.8c1.1,1,1.6,2.5,1.7,3.9c0.2,1.4,0.4,2.9,0.5,4.4
			c0.4,3.9,0.8,7.7,0.9,11.6c0.2,5,0.4,9.9,0.4,14.9c0,4.4,0.3,9-1.2,13.2c-0.5,1.9-1.9,3.2-3.9,3.3c-2.7,0.3-5.4,0.4-8,0.5
			c-5.7,0.1-11.4-0.1-17,0.6c-1.1,0.2-2.3,0.3-3.3,0.7c-0.4,0.8-0.8,1.7-1.2,2.5c-0.6,1.4-1.3,2.8-2.1,4.1c-0.6,0.9-1.4,2.6-2.5,2.6
			C261.5,249.6,261.2,249.5,260.9,249.4z"/>
		<path class="st5" d="M231.3,186c0.4,0,0.8,0,1.2,0c3.9,0,7.8-0.3,11.7-0.3c9.9,0.1,19.7,0.5,29.6,0.8c6,0.1,12,0.7,18,0.4
			c2-0.1,4.3-0.5,5.9,1c-1.3,1-3,1.1-4.5,1c-5.7,0.3-11.4-0.3-17.1-0.6c-12.3-0.4-24.6-1.1-36.9-0.8c-2.9,0.1-5.9,0.2-8.8,0.2
			c-1.6,0-3.1,0.1-4.7,0.2c-0.7,0.1-1.4,0.2-2,0.5c-0.4,0.3-0.7,0.7-1.1,1.1C222.7,185.9,227.9,186,231.3,186z"/>
		<path class="st5" d="M246.1,225.8c-2-0.1-4.3-0.4-5.9-1.9c-0.4-0.4-0.6-1-0.6-1.6c-0.3-1.9-0.3-3.8-0.3-5.8
			c0-3.7-0.6-7.4-0.3-11.1c0.1-1.5,0.4-2.9,0.5-4.4c0-0.1,0-0.1,0-0.2c0.1-0.1,0.2,0,0.2,0c0.5-1.1,1.9-1.2,3-1.3
			c1.5-0.1,3-0.1,4.5-0.1c2,0,4-0.1,6-0.2c4.8-0.2,9.7-0.7,14.5-0.5c1.7,0.1,3.3,0,5,0c3.1-0.1,6.1-0.1,9.1,0.4
			c1.4,0.3,1.8,1.3,1.8,2.5c0.2,1.9,0.3,3.9,0.5,5.8c0.2,2.5,0.4,4.9,0.6,7.4c-0.1,2.9-0.2,5.9-1.2,8.6c-0.3,0.8-1,1.5-1.8,1.5
			c-1.4,0.2-2.8,0.1-4.2,0.1c-2,0-3.9,0-5.9,0c-6.3,0.1-12.6,0.3-19,0.5c-1.6,0.1-3.1,0.2-4.7,0.2
			C247.2,225.8,246.6,225.8,246.1,225.8L246.1,225.8z M262.7,200.7c-3.1,0.2-6.3,0.4-9.4,0.6c-4.4,0.3-8.9,0.2-13.2,0.4
			c1,2.6,1.2,5.3,1.3,8c0.3,3.4,0.4,6.9,0.4,10.3c0,2.7-0.2,3,2.7,3.6c3,0.4,6.1,0.2,9.2,0c9.2-0.5,18.5-0.7,27.7-0.7
			c0.6-1.4,0.6-3,0.8-4.6c0.4-2.9-0.1-5.8-0.3-8.7c-0.2-2.9-0.3-5.8-0.5-8.6c-3.5-0.6-7.2-0.5-10.7-0.3c-1.2,0-2.4,0-3.6,0
			c-0.8,0-1.7,0-2.5,0C263.9,200.7,263.3,200.7,262.7,200.7z"/>
		<path class="st5" d="M261,217.5c-3.5-1.2-6.7-3.4-10-5c-4.4-2.5-9.6-5.9-11.7-10.7c-0.1-0.2,0-0.2,0.2-0.2c0,0-0.1,0-0.1,0
			c4,2.7,7.5,6,11.6,8.5c2.8,1.7,5.9,3,8.7,4.7c0.7,0.3,1.3,0.7,2,0.9c1-0.3,1.8-1,2.7-1.6c1.6-1.2,3.1-2.5,4.6-3.8
			c3.5-3.2,6.9-6.6,10.8-9.3c0.7-0.4,1.6-0.5,2.5-0.5c-0.1,0.5-0.3,0.9-0.5,1.4c-0.4,0.6-0.9,1.1-1.4,1.4c-1.5,1.1-2.9,2.4-4.4,3.5
			c-2.7,2-10.9,10.7-14.4,10.7C261.3,217.6,261.2,217.6,261,217.5z"/>
		<path class="st5" d="M243.1,223.6c-0.2-2.3,1.5-3.9,2.8-5.5c1.4-1.7,2.8-3.3,4.5-4.7c0.8-0.6,1.6-1.3,2.5-1.6
			c0.1,0,0.2,0.2,0.2,0.2c-0.1,0-0.1-0.1-0.2,0c-0.8,1.2-1.3,2.6-2.1,3.8c-0.8,1.4-2,2.7-2.9,3.9
			C246.6,221.3,245.4,223.4,243.1,223.6C243.1,223.6,243.1,223.6,243.1,223.6z"/>
		<path class="st5" d="M281,223.3c-1.4-0.6-2.3-1.9-3.4-2.8c-1.8-1.8-3.3-3.3-4.9-5.2c-0.5-0.6-0.9-1.3-1.4-1.9
			c-0.3-0.2-1.6-2.9-1.7-2.1c-0.2-0.6,0.5-0.4,0.8-0.3c3,1.3,5,3.8,7.3,6c1.4,1.4,3,2.5,4.2,4.1c0.5,0.8,0.9,1.6,1,2.5
			c-0.1,0-0.3,0-0.4,0C282,223.6,281.5,223.5,281,223.3z"/>
		<path class="st5" d="M111,210.3c-2.9,0-6.2-0.8-7.9-3.4c-1-1.8-0.9-3.9-1.1-5.9c-0.2-3.8-0.4-7.7-0.8-11.5
			c-0.8-9.9-0.5-19.8-0.4-29.6c0.1-3.8-0.3-7.7,1.1-11.2c0,0,0.2-0.5,0.3-0.4c0,0,0,0,0,0c0,0,0,0,0,0c0,0,0,0,0,0c0,0,0,0,0,0
			c0,0,0,0,0,0c0,0,0,0,0,0c0.1,2,0.5,3.8,0.5,5.8c0.1,7,0,14,0,21c-0.1,6.9,0.4,13.7,1,20.5c0.3,3.3,0.2,6.7,1.1,9.8
			c2.2,4,7.9,2.6,11.7,2.5c5.3-0.3,10.6-0.8,15.9-0.6c2.2,0,4.7,0.3,6.3,2.1c-1.8,0.5-3.7,0.2-5.5,0.1c-2.1,0-4.1,0-6.2,0.1
			c-5.1,0.2-10.2,0.8-15.3,0.8C111.5,210.3,111.2,210.3,111,210.3z"/>
		<path class="st5" d="M144.2,223.8c-0.3-0.1-0.5-0.4-0.7-0.7c-0.7-0.9-1.3-1.9-1.8-3c-1.9-3.6-3.7-7.2-4.8-11.1
			c0-0.1-0.3-0.8-0.1-0.6c4,3.3,5.5,8.4,8.1,12.8c2-3.3,4.5-11.7,8.5-12.6c4.4-1,9-1.1,13.4-1c1.8,0,3.6,0,5.4,0
			c3.8,0,7.7-0.1,11.5,0.2c1.6,0,3.4-0.1,4.8,1c-1.1,1-2.5,1.3-3.9,1.2c-3.9-0.3-7.8-0.5-11.7-0.3c-0.8,0-2.1,0-3.6,0
			c-5.8-0.1-15.5-0.2-16.8,2.1c-1.3,1.8-2.4,3.8-3.4,5.8c-0.9,1.7-1.6,3.5-2.6,5.3c-0.3,0.6-0.9,1.2-1.5,1.2
			C144.6,223.9,144.4,223.9,144.2,223.8z"/>
		<path class="st5" d="M187.4,208.8C187.4,208.8,187.4,208.8,187.4,208.8c0.1-0.8,0.3-1.6,0.6-2.4c0.7-3.2,0.6-6.5,0.8-9.8
			c0.4-8,0.4-16,0.7-23.9c0.2-6-0.3-12,0.1-18c0.1-1.8,0.8-3.6,0.9-5.4c0,0-0.1,0.1-0.1,0.1c0,0,0,0,0,0c0,0,0-0.1,0.1-0.2
			c0.2-0.1,0.3,0.4,0.3,0.5c0.8,3.2,0.6,6.4,0.7,9.6c0.4,9.5-0.2,19-0.4,28.5c-0.1,4.4-0.3,8.7-0.5,13c-0.1,2-0.2,3.9-0.5,5.8
			c-0.2,1-1.1,2.2-2.2,2.2C187.7,208.8,187.6,208.8,187.4,208.8z"/>
		<path class="st5" d="M102.3,150.5c-0.5-0.9,0.3-1.9,1.1-2.3c2.4-1.5,5.3-1.3,8-1.6c6.4-0.5,13-1.1,19.5-0.9
			c17.9,0.2,35.8,0.3,53.7,1.4c1.7,0.3,3.8,0,5.1,1.4c0.5,0.5,0.7,1.2,0.4,1.9c-0.6-0.4-1.4-0.4-2.1-0.5c-2.1-0.3-4.3-0.3-6.4-0.6
			c-10.3-1.1-20.6-1.1-31-1.5c-6.6-0.3-13.2-0.2-19.8-0.4c-7.5-0.2-15.1,0.7-22.5,1.4C106.7,149,102.6,148.6,102.3,150.5
			C102.3,150.5,102.3,150.5,102.3,150.5C102.3,150.5,102.3,150.5,102.3,150.5C102.3,150.5,102.3,150.5,102.3,150.5
			C102.3,150.5,102.3,150.5,102.3,150.5C102.3,150.5,102.3,150.5,102.3,150.5C102.3,150.5,102.3,150.5,102.3,150.5
			C102.3,150.5,102.3,150.5,102.3,150.5C102.3,150.5,102.3,150.5,102.3,150.5z"/>
		<path class="st5" d="M214.8,148.3c-1.3-1.5-1.2-3.5-1.2-5.4c0.1-5.7-0.3-11.3-0.4-17c-0.1-5.6-0.1-11.2-0.1-16.7
			c0-4.1-0.4-8.4,1.1-12.3c0.2-0.1,0.1,0.2,0.1,0.3c0.6,3.8,0.7,7.6,0.7,11.4c0.1,7.5-0.1,15,0.2,22.5c0.1,3.7,0.2,7.4,0.3,11.2
			C215.7,144.4,216,146.5,214.8,148.3z"/>
		<path class="st5" d="M252.8,162.5c-1-0.2-1.5-1.2-1.9-2.1c-0.5-0.9-1-1.7-1.5-2.6c-1.5-2.3-3.1-4.6-5.2-6.4c-0.9-0.8-2-1-3.2-1
			c-1.5-0.1-3-0.1-4.4-0.3c-5.3-0.6-10.6-0.6-15.9-1.4c-1.8-0.3-3.5-1-5.2-1.5c0,0.1,0.1,0.2,0.1,0.2c-1.4-0.9,3.6-0.8,4-0.8
			c5.3,0.3,10.5,0.9,15.8,1.1c2.8,0.2,5.7,0,8.4,0.7c1.4,0.5,2.5,1.4,3.5,2.5c2.5,2.5,4.2,5.6,6.1,8.6c1.1-1.6,1.9-3.5,2.7-5.3
			c0.7-1.4,1-3,2.2-4.1c1-0.7,2.3-0.8,3.5-0.9c1.6-0.1,3.1-0.1,4.7-0.2c4.1-0.2,8.2-0.3,12.3-0.6c3.4-0.2,6.7-0.6,10.1-1
			c1.7-0.2,3.6-0.6,5.1,0.5c0.1,0,0.1,0.1,0.2,0.1c0,0-0.1,0.1-0.1,0.1c-1.4,1.7-3.8,1.5-5.8,1.8c-4.1,0.4-8.2,0.8-12.4,1
			c-4.9,0.3-9.8,0-14.7,0.3c-0.8,0-1.5,0.3-1.8,1.2c-0.6,1.4-1.2,2.9-1.8,4.2C256.7,158.4,254.9,163.1,252.8,162.5z"/>
		<path class="st5" d="M293.2,148c-0.8-1.7-0.6-3.5-0.5-5.3c0.1-1.8,0.2-3.7,0.3-5.5c0.2-4.3,0.4-8.5,0.4-12.7
			c-0.1-5.8-0.2-11.6-0.3-17.5c-0.1-3-0.1-6.1,0.9-9.1c0-0.1,0.1-0.1,0.1-0.1c0,0,0,0.1,0,0.1c0,0,0,0.1,0,0.1
			c0.8,3.8,0.8,7.6,0.9,11.5c0.2,7.8,0.5,15.6,0.1,23.4c-0.1,3.7-0.3,7.5-0.5,11.2C294.6,145.6,294.4,147.2,293.2,148z"/>
		<path class="st5" d="M288.6,99.5c-12.2-0.9-24.5-1.7-36.8-2c-10-0.1-19.9,0.6-29.9,0.7c-2.3,0.2-4.6-0.5-6.9-0.5
			c0,0.2,0.2,0.5,0.1,0.7c-0.2-0.3-0.7-0.5-0.6-0.9c0.9-1.7,5.8-1.4,7.5-1.4c5-0.1,10-0.2,15-0.4c14-0.6,27.9,0.1,41.9,1.1
			c3.7,0.2,7.3,0.3,11,0.6c1,0.1,2,0.5,2.7,1.2C291.5,99.4,290,99.7,288.6,99.5z"/>
		<path class="st5" d="M293,99.8c-0.3-0.5-0.8-1.1-1-1.6c0-0.1,0.1-0.1,0.2-0.1c0,0-0.1,0-0.1,0.1c0.8,0.1,1.7,0.5,1.9,1.4
			c0,0.3,0,0.5-0.1,0.8C293.6,100.3,293.2,100.1,293,99.8z"/>
		<path class="st5" d="M188.9,251.4c-1.8-3.6-1.1-7.8-0.9-11.7c0.1-1,0.1-1.9,0.2-2.9c0.2-0.9,0.8-1.8,1.3-2.6
			c0.7,1.1,1.2,2.3,1.1,3.6c-0.1,2.8-0.3,5.6-0.7,8.3C189.7,247.9,189,249.6,188.9,251.4C188.9,251.3,188.9,251.3,188.9,251.4
			c0.1,0,0.1-0.1,0.1,0C189,251.3,188.9,251.4,188.9,251.4z"/>
		<path class="st5" d="M178.5,251C178.4,250.9,178.5,250.9,178.5,251C178.5,250.9,178.5,250.9,178.5,251c0.1-0.1,0-0.2,0-0.2
			c-0.6-0.9-1.6-1.9-2.2-2.7c-1.5-1.6-2.5-3.5-3.6-5.4c-1-1.9-2.3-3.6-3.1-5.6c-0.2-0.8-0.2-1.7-0.2-2.6c1,0.5,2,1.1,2.6,2
			c1.1,1.8,2.1,3.7,3.2,5.5c1.6,2.6,3.2,5.2,3.4,8.3C178.6,250.4,178.7,251,178.5,251z"/>
		<path class="st5" d="M208.7,125.8c-1-1.8-0.8-4-0.9-6c-0.2-3.6-0.3-7.3-0.3-10.9c-0.1-3.6-0.2-7.3,0.7-10.9
			c0.1-0.2,0.1-0.6,0.3-0.6c0,0,0,0,0,0c-0.1,0.5,0.1,1,0.2,1.5c0.3,1.7,0.6,3.5,0.6,5.3c0,1.8,0.1,3.6,0.1,5.5
			c0.1,3.6,0.3,7.1,0.1,10.7C209.4,122.2,209.6,124.2,208.7,125.8z"/>
		<path class="st5" d="M95.8,181.8c-0.9-1.7-0.7-3.8-0.8-5.7c-0.1-1.8-0.3-3.5-0.4-5.3c-0.1-3.3-0.3-6.6-0.1-9.9
			c0.1-1.5,0.4-3.1,0.6-4.6c0,0,0,0,0,0c1.6,4.8,1.4,10,1.5,15c0,1.8-0.1,3.6-0.1,5.4C96.4,178.4,96.6,180.2,95.8,181.8
			C95.8,181.8,95.8,181.8,95.8,181.8z"/>
		<path class="st5" d="M96.6,195.7c-1.4-1.9-0.7-4.4-0.4-6.5c0,0,0,0,0,0c0,0,0,0,0,0c0,0,0,0,0,0c0,0,0,0,0,0c0,0,0,0,0,0
			c0,0,0,0,0,0c0.1,0.1,0.2,0.3,0.3,0.4C97.3,191.5,97.8,194,96.6,195.7z"/>
		<path class="st5" d="M273.5,93.3c-4.2-0.2-8.4-0.5-12.6-0.8c-2.5-0.1-4.9-0.8-7.2-1.4c0,0,0,0,0,0c-0.3,0-0.2-0.2,0-0.2
			c2.5-0.4,5.1-0.4,7.6-0.2c3.7,0.3,7.4,0.3,11.1,0.4c1.8,0.1,3.7,0.1,5.2,1.3C276.4,93.2,274.9,93.4,273.5,93.3z"/>
		<path class="st5" d="M286.1,92.9c-1.4-0.1-2.8-0.5-3.9-1.3c1.6-0.3,3.2-0.5,4.7-0.2c0.6,0.1,1.2,0.5,1.6,0.8
			C287.9,92.8,287,93,286.1,92.9z"/>
		<path class="st5" d="M276.4,248.8c-1.6-0.7-2.6-2.2-3.6-3.6c-1.4-1.9-2.6-3.9-3.2-6.2c-0.1-0.5-0.4-1.1-0.2-1.5
			c0.2,0.7,0.8,1.2,1.2,1.8c1.2,1.4,2.3,2.8,3.2,4.3C274.8,245.2,276.2,246.8,276.4,248.8z"/>
		<path class="st5" d="M273,250.3c-1.7-0.7-2.7-2.4-3.8-3.8c-1.3-1.8-2.3-3.8-2.9-5.9c0-0.1,0-0.2,0.1-0.2c0,0,0,0,0,0
			c1.2,1.5,2.7,2.8,3.8,4.5C271.3,246.5,272.8,248.2,273,250.3z"/>
		<path class="st5" d="M285.1,251.8c-1.7-0.7-2.7-2.2-3.7-3.6c-1.5-1.9-2.9-3.7-4.4-5.6c-0.8-1.1-1.6-2.3-2.3-3.4
			c-0.3-0.3-0.4-0.8-0.9-1c0,0,0.1,0,0.2,0c0.7,0.3,1.4,0.8,2,1.3c2,1.7,3.6,3.8,5.1,5.9C282.5,247.4,284.7,249.3,285.1,251.8z"/>
		<path class="st5" d="M290.6,250c-1.7-0.6-2.8-2-4-3.3c-2-2.3-4.1-4.9-5.2-7.7c2.5,2.2,4.8,4.6,6.8,7.2
			C289.3,247.3,290.3,248.5,290.6,250z"/>
		<path class="st5" d="M296.3,249.2c-1.5-0.5-2.6-1.7-3.6-2.8c-1.8-1.7-3.4-3.4-4.7-5.3c-0.4-0.6-1.2-1.6-1.2-2.2
			c0.6,0.7,1.4,1.2,2.1,1.8c1.3,1,2.4,2,3.5,3.2C293.8,245.5,295.7,247,296.3,249.2z"/>
		<path class="st5" d="M302.9,247.3c-1.3-0.4-2.4-1.2-3.2-2.2c-0.9-1-1.9-1.9-2.8-2.9c-0.6-0.7-3.1-4-2.7-4.8
			c-0.1,0.1,0.1,0.2,0.1,0.3c0.9,0.9,1.9,1.6,2.9,2.5c1.4,1.1,2.5,2.5,3.7,3.8C301.8,244.9,302.5,246,302.9,247.3z"/>
		<path class="st5" d="M306.3,243.3c-2.1-0.3-3.1-2.2-4.3-3.7c-1.3-1.8-2.5-3.7-3.3-5.8c1.8,1.7,3.7,3.5,5.2,5.4
			c0.6,0.8,1.4,1.5,1.9,2.5C306,242.2,306.1,242.8,306.3,243.3z"/>
		<path class="st5" d="M308.7,237.2c-1.6-0.6-2.7-1.8-3.7-3.1c-1.6-1.9-3.1-3.9-4.4-5.9c2.5,1.7,4.7,3.5,6.6,5.7
			C308.1,234.7,308.6,235.9,308.7,237.2z"/>
		<path class="st5" d="M308.9,229.5c-1.7-0.6-2.9-2-4-3.4c-1.7-2-3.2-4.3-4.3-6.7c1.7,1.5,3.4,3.1,4.9,4.8
			C306.9,225.9,308.6,227.4,308.9,229.5z"/>
		<path class="st5" d="M307.9,220.2c-1.8-0.6-2.9-2.1-4-3.6c-1.3-1.8-2.6-3.8-3.6-5.7c2.1,1.7,4.1,3.5,5.8,5.6
			C307.1,217.5,307.8,218.8,307.9,220.2z"/>
		<path class="st5" d="M306.8,211.3c-1.7-0.6-2.8-2.1-3.8-3.5c-1-1.4-2.1-2.9-2.9-4.3c1.3,1,2.6,2.1,3.8,3.2
			C305.2,208,306.7,209.3,306.8,211.3z"/>
		<path class="st5" d="M304.2,204.3c-1.4-1.3-2.5-3-3.6-4.5c-0.4-0.6-0.9-1.3-1.1-2c0.1,0.1,0.3,0.3,0.4,0.4
			c1.7,1.5,3.5,2.9,5.1,4.6c0.6,0.7,0.8,1.6,1.1,2.4C305.5,205.1,304.8,204.8,304.2,204.3z"/>
		<path class="st5" d="M305.2,197c-1.6-0.3-2.8-1.6-3.7-2.9c-0.9-1.2-1.8-2.4-2.5-3.8c1.2,1,2.4,1.9,3.6,2.9
			C303.8,194.3,304.9,195.5,305.2,197z"/>
		<path class="st5" d="M264.7,155.8c-2.1-1.3-3.3-3.7-5.4-5c0,0,0,0,0,0c0,0,0,0,0,0c0,0,0,0,0,0c0,0,0,0,0-0.1
			c0.2-0.1,0.5,0,0.7,0.1c2,0.7,4,1.8,5.6,3.3c0.6,0.7,1,1.5,1.2,2.4C266.1,156.4,265.3,156.1,264.7,155.8z"/>
		<path class="st5" d="M272.8,156.4c-3-0.6-4.6-3.5-6.8-5.4c-0.2-0.1-0.4-0.5-0.6-0.4c0-0.1,0.3-0.1,0.3-0.1c0.5,0.1,1,0.3,1.4,0.5
			C269.5,152.1,272,153.8,272.8,156.4z"/>
		<path class="st5" d="M281.3,157.2c-2.3-0.5-3.9-2.3-5.6-3.7c-1.3-1.2-2.8-2.5-3.7-4c2.3,1.3,4.6,2.5,6.6,4.2
			C279.7,154.6,280.8,155.8,281.3,157.2z"/>
		<path class="st5" d="M286.4,157.7c-2.5-0.8-4.2-3-5.8-4.9c-0.6-0.8-1.4-1.6-1.7-2.6c0,0,0-0.1,0-0.1c0.1,0.3,0.5,0.4,0.7,0.6
			C282.1,152.6,285.4,154.5,286.4,157.7z"/>
		<path class="st5" d="M292,157.6c-1.7-0.2-3-1.4-4.1-2.6c-1.7-1.8-3.6-3.7-4.5-5.9c0,0,0,0,0,0c0,0,0,0,0,0c1.5,1.4,3.4,2.6,4.8,4
			C289.6,154.5,291.2,155.8,292,157.6z"/>
		<path class="st5" d="M294.8,153.5c-1.6-0.2-2.7-1.3-3.6-2.5c-0.8-1-1.7-2.1-2-3.3C291,149.7,294.3,150.6,294.8,153.5z"/>
		<path class="st5" d="M296.7,150.8c-0.8-0.8-1.5-1.9-2-3c-0.2-0.5-0.5-1.1-0.4-1.7c0,0.2,0.2,0.4,0.3,0.5c1,1.2,2.3,2.1,3.1,3.4
			c0.3,0.5,0.4,1,0.4,1.5C297.6,151.4,297.1,151.2,296.7,150.8z"/>
		<path class="st5" d="M300.7,147.8c-1.8-0.3-2.9-1.7-3.7-3.1c-0.8-1.3-1.7-2.8-2.1-4.3c1,1.3,2.3,2.4,3.4,3.5
			C299.3,144.9,300.4,146.2,300.7,147.8z"/>
		<path class="st5" d="M302.7,142.4c-1.2-0.6-1.9-1.8-2.9-2.7c-1.5-1.8-3-3.6-4-5.8c0.2,0.1,0.4,0.4,0.6,0.5c2.4,2,4.8,4,6.8,6.4
			c0.4,0.6,0.6,1.3,0.8,2C303.6,142.7,303.1,142.6,302.7,142.4z"/>
		<path class="st5" d="M303.5,136.1c-1.9-0.5-2.9-2.1-4-3.5c-1.4-1.8-2.7-3.7-3.8-5.8c2,1.7,4,3.4,5.6,5.5c0.6,0.7,1.1,1.2,1.5,2
			C303.2,134.8,303.4,135.5,303.5,136.1z"/>
		<path class="st5" d="M303.8,129.7c-1.8-0.3-2.9-1.7-4-3.1c-1.1-1.4-1.9-2.7-2.7-4.2c-0.1-0.3-0.3-0.6-0.3-0.9c0.7,1,2,1.8,2.9,2.6
			C301.4,125.7,303.4,127.3,303.8,129.7z"/>
		<path class="st5" d="M303.3,121.9c-1.7-0.6-2.8-2-3.9-3.4c-1.1-1.6-2.6-3.3-3.3-5.1c1.7,1.5,3.6,2.9,5.1,4.6
			C302.3,119.2,303.1,120.4,303.3,121.9z"/>
		<path class="st5" d="M301.7,113.2c-1.7-0.4-2.8-1.7-3.8-3.1c-0.8-1.3-1.9-2.6-2.3-4.1C297.6,108.3,301,109.9,301.7,113.2z"/>
		<path class="st5" d="M302.3,107.7c-2-0.5-3.3-2-4.5-3.5c-1.2-1.6-2.9-3.2-3.6-5.1c1.4,1.4,3.3,2.6,4.7,4
			C300.2,104.4,301.8,105.8,302.3,107.7z"/>
		<path class="st5" d="M155.9,214.8c-1.9,0-2.5-2.2-3.8-3.2c-0.1,0,0,0.1,0,0.1c-0.2-0.2,0.3-0.3,0.4-0.2
			C154,212,155.9,213.1,155.9,214.8z"/>
		<path class="st5" d="M161.9,214.5c-3-0.5-4.5-3.6-6.3-5.7c0,0,0,0,0,0c0,0,0,0,0,0c1.1,0.4,2.3,1.2,3.3,1.9
			C160.2,211.6,161.5,212.8,161.9,214.5z"/>
		<path class="st5" d="M167.3,214.4c-3.2-0.8-4.7-4.2-7.1-6.1h0c0-0.1,0.3,0,0.3,0c1.3,0.4,2.4,1.2,3.4,2
			C165.3,211.4,166.8,212.6,167.3,214.4z"/>
		<path class="st5" d="M172.8,214.8c-3.2-1-5-4-7.3-6.1l0,0c1.2,0.3,2.4,1.2,3.4,1.8C170.6,211.6,172.2,212.9,172.8,214.8z"/>
		<path class="st5" d="M178.8,215.9c-3.4-1-6.2-4.9-8.3-7.6c2,1.1,3.9,2.5,5.6,4.1C177.2,213.3,178.3,214.4,178.8,215.9z"/>
		<path class="st5" d="M183.7,215c-1.7-0.3-2.9-1.5-4-2.7c-1.2-1.4-2.5-2.8-3.4-4.4c0,0,0,0,0,0c0,0,0,0,0,0c1.3,1.1,2.8,2,4,3.1
			C181.8,212.1,183.2,213.3,183.7,215z"/>
		<path class="st5" d="M187.7,214c-1.5-0.3-2.6-1.3-3.6-2.4c-0.8-1-1.6-2-2.2-3.1c-0.1-0.1-0.2-0.4-0.1-0.5c0.4,0.7,1.2,1.1,1.8,1.6
			C185.3,210.7,187.3,211.9,187.7,214z"/>
		<path class="st5" d="M192.9,214.1c-2.2-0.4-3.6-2.3-5-3.8c-0.7-0.9-1.6-1.8-2-2.7c0,0,0,0,0,0
			C188.4,209.4,191.8,210.8,192.9,214.1z"/>
		<path class="st5" d="M195.5,210.2c-1.4-0.2-2.4-1.3-3.2-2.5c-0.7-1-1.4-2-1.8-3.1c-0.1-0.1,0.1-0.1,0-0.1c0,0,0,0,0,0
			C192.3,206.3,195.1,207.5,195.5,210.2z"/>
		<path class="st5" d="M198.1,206.2c-1.7-0.4-2.8-1.8-3.8-3.1c-0.9-1.2-1.7-2.4-2.2-3.7c-0.1-0.4-0.4-0.8-0.3-1.3
			c0.1,0.2,0.2,0.5,0.4,0.7C194.1,201.2,197.2,203,198.1,206.2z"/>
		<path class="st5" d="M197.6,198c-1.7-0.5-2.8-1.9-3.8-3.3c-0.9-1.2-1.8-2.5-2.5-3.9c0-0.1-0.1-0.2,0-0.3c0,0.2,0.2,0.4,0.4,0.5
			c0.8,0.7,1.7,1.4,2.4,2.1C195.6,194.5,197.3,195.9,197.6,198z"/>
		<path class="st5" d="M198.6,192.6c-1.1-0.4-2.1-1.1-2.7-2c-1.6-2.1-3.1-4.3-4.3-6.6c1.4,1.1,2.7,2.3,4,3.6
			C196.8,189.1,198.5,190.5,198.6,192.6z"/>
		<path class="st5" d="M198,186.9c-1.6-0.6-2.7-2-3.5-3.5c-0.8-1.3-1.7-2.7-2.2-4.2c1.1,1.1,2.3,2.2,3.3,3.3
			C196.8,183.7,197.9,185.1,198,186.9z"/>
		<path class="st5" d="M195.3,179.3c-1-1.2-1.8-2.4-2.6-3.7c-0.3-0.7-1-1.4-1-2.2c0.1,0.2,0.3,0.5,0.5,0.6c1.6,1.3,3.1,2.7,4.5,4.3
			c0.5,0.7,0.8,1.6,1.1,2.5C196.9,180.5,195.9,180.1,195.3,179.3z"/>
		<path class="st5" d="M197.9,173.7c-2.1-0.5-3.2-2.3-4.4-3.9c-0.5-0.9-1.5-1.9-1.2-3c0,0.4,0.4,0.8,0.7,1.1
			C194.8,169.6,197.4,171.1,197.9,173.7z"/>
		<path class="st5" d="M196.1,166.5c-1-0.7-1.8-1.9-2.5-2.9c-0.3-0.5-0.7-1.1-0.8-1.7c0,0,0,0,0,0c0,0,0,0.1,0.1,0.1
			c1.3,1,2.9,1.9,3.9,3.3c0.3,0.5,0.5,1,0.6,1.6C196.9,166.9,196.5,166.8,196.1,166.5z"/>
		<path class="st5" d="M196.7,159.2c-1.3-0.1-2.2-1.1-2.9-2.2c-0.7-0.9-1.4-1.8-1.8-2.9c0.9,0.7,1.9,1.3,2.8,2.1
			C195.7,157,196.7,157.9,196.7,159.2z"/>
		<path class="st5" d="M193.5,151.6c-0.4-0.3-1-1-1.1-1.4c0.5,0.3,1.1,0.5,1.5,0.9c0.2,0.2,0.3,0.4,0.2,0.6
			C194,151.8,193.8,151.7,193.5,151.6z"/>
		<path class="st5" d="M112.3,211.9c-1.7-1.1-3.1-2.5-4.4-4c0,0-0.2-0.1-0.1-0.2c0,0,0,0,0,0c1.9,0.8,4,1.5,5.6,2.9
			c0.5,0.5,0.9,1.2,1.1,1.8C113.7,212.4,112.9,212.3,112.3,211.9z"/>
		<path class="st5" d="M121.5,214.2c-2.9-1-4.6-3.9-7.2-5.3c0,0-0.1,0-0.1,0c0,0,0,0,0,0c0.1-0.1,0.3-0.1,0.5-0.1
			c2.5,0.4,4.7,1.9,6.6,3.5c0.6,0.6,1.1,1.4,1.4,2.2C122.2,214.5,121.8,214.3,121.5,214.2L121.5,214.2z"/>
		<path class="st5" d="M128.3,214.4c-1.7-0.3-3.1-1.4-4.2-2.6c-1.1-1.2-2.4-2.4-3-3.8C123.5,210,127.2,211.1,128.3,214.4z"/>
		<path class="st5" d="M131.6,213.9c-1.8-1.6-3.5-3.4-4.8-5.5c0.9,0.5,2.3,1.5,3.3,2.3c1.5,1.1,3.2,2.4,3.8,4.3
			C133.1,214.8,132.3,214.4,131.6,213.9z"/>
		<path class="st5" d="M136.6,213.5c-1.2-0.6-2.1-1.7-3-2.7c-0.5-0.6-1.1-1.3-1.4-1.9c0,0,0,0,0,0c1.5,1,3.2,1.9,4.6,3.2
			c0.5,0.5,0.9,1.1,1.1,1.8C137.5,213.9,137,213.7,136.6,213.5z"/>
		<path class="st5" d="M222.3,152.9c-2.2-0.4-3.5-2.5-4.7-4.2c-0.3-0.4-0.6-1-1.1-1.2c0,0,0,0,0,0c0,0,0,0,0,0l0,0c0,0,0,0,0,0
			c0-0.1,0.2,0,0.2,0c0.5,0.1,0.9,0.4,1.3,0.6C219.8,149.3,221.9,150.7,222.3,152.9z"/>
		<path class="st5" d="M229.1,154c-1.8-0.5-3-1.8-4.2-3.1c-0.9-1-1.7-1.9-2.5-2.9v0h0c0,0,0,0,0,0C225.1,149.3,228.3,151,229.1,154z
			"/>
		<path class="st5" d="M234.8,154.9c-1.7-0.4-2.9-1.7-4-3.1c-0.9-1.2-1.9-2.3-2.4-3.7c0,0,0,0,0,0c0,0,0,0,0,0v0
			C230.6,150.3,234,151.7,234.8,154.9z"/>
		<path class="st5" d="M241,156.6c-1.3-0.5-2.4-1.3-3.3-2.4c-1.2-1.5-2.5-3.1-3.4-4.8C236.8,151.5,240.3,153.3,241,156.6z"/>
		<path class="st5" d="M244.6,154.6c-1.2-0.2-2-1.2-2.7-2.2c-0.6-0.9-1.3-1.9-1.6-3C241.9,150.9,244.3,152.2,244.6,154.6z"/>
		<path class="st5" d="M232,242.5c-2.3-0.4-3.4-2.7-4.5-4.5c-0.1-0.2-0.6-1-0.2-1c0,0,0,0,0,0c0,0-0.1,0-0.1,0c0,0,0,0,0,0
			C228.9,238.8,231.8,239.8,232,242.5z"/>
		<path class="st5" d="M239.6,244.4c-1.8-0.4-3.1-1.7-4.2-3.1c-0.9-1-1.8-2.1-2.6-3.2C235.4,239.6,238.9,241.2,239.6,244.4z"/>
		<path class="st5" d="M248.3,246.8c-1.6-0.5-2.8-1.7-3.9-2.9c-1.6-1.6-3-3.5-4.4-5.2c0,0,0,0,0,0
			C242.8,240.2,247.6,243.9,248.3,246.8z"/>
		<path class="st5" d="M250.3,244.4c-1.5-1.5-3-3.2-4.2-4.9c0,0,0,0,0,0c0,0,0,0,0,0c2,1.1,4,2.5,5.6,4.1c0.5,0.6,0.8,1.4,1,2.1
			C251.8,245.4,250.9,245,250.3,244.4z"/>
		<path class="st5" d="M257.1,244.5c-1.5-0.3-2.5-1.6-3.4-2.8c-0.6-0.8-1.3-1.7-1.7-2.6c0,0-0.2-0.3-0.1-0.3c0,0,0,0,0,0v0v0
			c0,0,0,0,0,0C253.6,240.6,256.7,241.7,257.1,244.5z"/>
		<g>
			<path class="st5" d="M256.1,142.6c-1.1-0.1-2.2-1-2.1-2.2c-2-0.1-3.3-1.9-1.8-3.5c-1-1.4-1.7-3-2.7-4.4c-0.7-0.2-1.5-0.2-2.3-0.3
				c-2.1-0.3-4.2-0.9-6.1-1.9c-3.7-1.9-5.5-4.2-7.4-7.8c-1.6-3.3-1.1-7.4,0.8-10.4c1.6-2.6,4-4.5,6.5-6.2c2.7-1.9,6-3.2,9.3-3.4
				c4.6-0.2,8.5,3,10.8,6.8c1.1,1.8,2.1,3.8,2.3,5.9c0.3,2.5,0.4,5.1-0.5,7.5c-0.4,0.9-1,1.7-1.5,2.6c-0.2,0.3-0.3,0.5-0.2,0.9
				c0.4,1.3,1,2.4,1.5,3.6c1.7-0.4,3.2,1.5,2.3,3c0.6,0.3,1.3,0.9,1.5,1.6c0.2,0.8-0.3,1.7-1.1,1.9c-0.1-0.9-0.1-2.1-1.2-2.4
				c-0.3-0.1-0.6-0.2-0.7-0.4c-0.3-0.3-0.2-0.7-0.1-1.1c0.1-0.3,0.4-0.5,0.3-0.8c0-0.2-0.2-0.4-0.4-0.5c-0.1-0.1-0.3,0-0.4,0
				c-1.5,0.7-1.8-1.5-2.3-2.5c-0.5-1.4-1.5-3-0.3-4.4c2-2.4,2.2-5.7,1.8-8.7c-0.4-3.7-3.4-8.3-6.6-10.2c-1.8-1.1-4-1.7-6.1-1.4
				c-3.7,0.6-7,2.4-9.9,4.7c-1.4,1.1-2.8,2.4-3.7,3.9c-1.9,2.9-2.3,7-0.6,10.1c0.7,1.2,1.4,2.5,2.4,3.6c2.3,2.4,5.4,4,8.7,4.6
				c0.7,0.1,1.3,0.2,2,0.2c0.7,0.1,1.4,0,2.1,0.4c0.5,0.3,0.8,0.8,1,1.3c0.6,1,1,2,1.7,3c0.3,0.4,0.7,0.8,0.7,1.3
				c0,0.3,0,0.6-0.2,0.8c-0.2,0.4-0.8,0.9-0.1,1.1c0.7,0.3,1.7-0.1,2,0.7c0.2,0.4,0,0.8,0,1.2c0.3,0.9,1.5,1.1,2.3,1.1
				c0.3,0,0.6-0.1,0.8-0.1C258,142.2,257.1,142.7,256.1,142.6z"/>
			<path class="st5" d="M258.9,143c-0.6-0.1-1.2-0.4-1.7-0.7c0-0.1,0.1-0.1,0.2-0.1c1.3-0.1,2.7-0.1,4-0.6c1.7-0.6,2.6-2.2,3.2-3.8
				c0.3-0.8,0.6-1.6,1.1-2.3c0.4,0.4,0.6,0.9,0.6,1.5c-0.1,1.3-0.8,2.5-1.5,3.6C263.5,142.5,261.1,143.7,258.9,143z"/>
			<path class="st5" d="M254,136.5c-0.3,0-0.5-0.1-0.8-0.1c0,0,0,0,0,0c0,0,0,0,0,0c-0.5-0.1,2.1-0.9,2.2-1c1.4-0.5,2.8-1.4,3.9-2.4
				c0.8-0.7,1.4-1.8,2.5-2.2c0.1,0,0.2-0.1,0.3-0.1c0,0.2,0.1,0.3,0.1,0.5c0,1.6-1.9,2.9-3.1,3.8C257.7,136.1,255.9,136.7,254,136.5
				z"/>
			<path class="st5" d="M255.5,139.6c-0.4,0-0.8-0.1-1.2-0.2c0,0,0,0,0,0.1c0,0,0,0,0,0c0,0,0-0.1,0-0.1c0-0.1,0.1-0.1,0.2-0.1
				c0.6-0.2,1.2-0.4,1.8-0.6c1.5-0.6,3.1-1.2,4.4-2.2c1-0.6,1.6-1.5,2.4-2.2c0.3-0.2,0.6-0.4,0.9-0.5c0,0.3,0,0.5,0,0.8
				c-0.4,1.6-1.9,2.7-3.2,3.6C259.2,139.1,257.4,139.8,255.5,139.6z"/>
			<path class="st5" d="M256.5,135.6c-1.8-1.6-3-3.8-4.2-5.8c-1.1-1.9-2.3-3.8-3.6-5.6c-1.6,1.7-4.3,1-6-0.3c-1-0.9-1.7-2.1-1.7-3.4
				c-0.1-1.9,1.6-3.3,3.4-2.4c1.8,0.9,3.1,2.6,4.4,4.1c0.2-0.4,0.4-0.8,0.5-1.3c-2.1-1.5-5-4.9-2.9-7.3c0.9-0.9,2.4-0.4,3.1,0.5
				c1.4,1.7,1.2,4.1,1,6.2c0.9,0.5,2.1,0.7,2.9-0.1c-0.8-2.3-3.4-7.6-0.5-9.1c1.7-0.7,3.3,1,3.5,2.6c0.5,2.2-0.2,4.8-1.6,6.6
				c0.8,2.1,1.4,4.4,2.3,6.5c0.7,1.5,1.4,2.8,2.2,4.2c0.5,0.8,0.8,1.6,0.7,2.5c-1.2-0.4-1.7-1.6-2.2-2.6c-0.6-1.1-1.2-2.2-1.7-3.3
				c-0.9-2-1.5-4.1-2.3-6.2c-1.1,0.8-2.5,0.7-3.6,0.1c-0.2,0.6-0.4,1.1-0.7,1.7c1.5,2,2.8,4.1,4.1,6.3
				C254.9,131.3,255.9,133.4,256.5,135.6C256.5,135.6,256.5,135.6,256.5,135.6L256.5,135.6c0-0.1,0-0.1,0-0.1
				C256.5,135.5,256.6,135.6,256.5,135.6L256.5,135.6z M246.6,124c0.6,0,1.1-0.4,1.5-0.7c-1.1-1.3-3.2-4.2-5-4.1
				c-0.9,0.4-0.8,1.8-0.4,2.5C243.5,123.2,245.1,124,246.6,124L246.6,124z M249.1,119c0.2,0.1,0.3,0.3,0.5,0.4
				C250.2,111.6,243.9,113.9,249.1,119L249.1,119z M254.5,119c0.8-1.4,1.2-3.1,0.9-4.7c-0.2-0.7-0.4-1.5-1.1-1.9
				c-0.4-0.3-1.1-0.1-1.2,0.5C252.6,114.9,253.8,117,254.5,119z"/>
		</g>
		<g>
			<path class="st5" d="M138.2,203.3c-0.9-0.5-1.4-1.5-2.1-2.2c-1.6-2-3.1-4.1-4.4-6.4c-1.3-2.3-2.7-4.6-4.1-6.9
				c-1.4-2.4-2.9-4.7-4.5-7c-0.8-1.1-1.4-2.3-1.8-3.6c0-0.2-0.1-0.4,0-0.6c0,0,0.1,0,0.1,0c0,0,0,0,0,0c-0.3,0.1,0.4,0.7,0.5,0.8
				c0.5,0.6,1,1.2,1.5,1.8c2,2.8,3.8,5.7,5.6,8.7c2.5,3.8,4.4,7.9,7.3,11.4c0.6,0.8,1.3,1.6,2,2.4c0.4,0.4,0.7,0.8,1.3,0.6
				c1.8-0.5,3.3-1.7,4.9-2.6c1.2-0.8,2.5-1.5,3.6-2.3c3.2-2.3,6.3-4.7,9.6-6.7c3.7-2.3,7.4-4.5,10.8-7.2c1-0.8,2.1-1.5,3.2-2.2
				c0.5-0.4,1.1-0.8,1.6-1.2c0.2-0.2,0.2-0.4,0.2-0.7c-0.8-3.3-3.1-6.1-4.9-8.9c-1.5-2.1-2.9-4.2-4.5-6.3c-2.5-3.1-5.4-5.9-7.8-9.1
				c-1.7,0.6-3.3,1.7-4.9,2.6c-3,1.8-5.9,3.8-8.8,5.9c-2.5,1.8-5.1,3.6-7.6,5.6c-3,2.2-6,4.3-9.2,6.3c0,0,0,0,0,0
				c-0.6,0.4-1.2,0.9-1.8,1.4c-0.5,0.4-1.2,0.7-1.9,0.7c0.1-0.6,0.5-1.1,0.8-1.5c1.4-1.2,3-2.3,4.6-3.3c4.4-2.8,8.4-6.1,12.7-9.1
				c4.2-3.1,8.4-6.2,13-8.6c0.9-0.5,1.8-1.1,2.8-1.3c0.8-0.2,1.4,0.5,1.8,1.1c0.6,0.8,1.3,1.5,1.9,2.2c2.1,2.5,4.3,4.9,6.3,7.6
				c1.4,2.1,2.9,4.1,4.2,6.2c1.8,2.7,3.7,5.5,4.3,8.7c0.1,1.6-1.8,2.2-2.8,3c-2.2,1.4-4.2,3.1-6.4,4.6c-2.7,1.8-5.5,3.5-8.3,5.2
				c-2.5,1.5-4.9,3.3-7.3,5c-2.1,1.5-4.3,2.9-6.4,4.3C142,202.4,139.9,204.1,138.2,203.3z"/>
			<path class="st5" d="M128.2,176c-1.7-0.3-3-1.8-3.6-3.4c-0.6-1.4-1.2-3.3,0.2-4.5c1.7-1.5,4.2-0.8,5.4,1c0.3,0.5,0.4,1,0.4,1.6
				c-1.2-0.3-1.9-1.4-3-1.8c-0.6-0.2-1.3,0-1.8,0.4c-0.7,0.8,0.1,2.4,0.5,3.2c0.5,0.8,0.9,1.6,1.4,2.4c0.3,0.4,0.6,0.8,1,1
				c0,0,0,0,0,0c0,0,0,0,0,0C128.5,176.1,128.3,176,128.2,176z"/>
			<path class="st5" d="M136.8,169.7C136.8,169.7,136.8,169.7,136.8,169.7c-1.9,0-3.4-1.7-3.9-3.4c-0.5-1.2-0.8-2.8,0.3-3.8
				c1.6-1.5,4.1-0.3,5.2,1.2c0.2,0.4,0.4,0.8,0.4,1.3c-0.4-0.1-0.7-0.3-1.1-0.4c-0.9-0.5-1.6-1.3-2.6-1.4c-2.6,0,0.2,4.5,0.9,5.6
				C136.2,169.1,136.5,169.4,136.8,169.7C136.8,169.7,136.8,169.7,136.8,169.7C136.8,169.7,136.8,169.7,136.8,169.7z"/>
			<path class="st5" d="M144.1,164.8c-1.7-0.6-3.2-2.1-3.4-4c-0.2-1.7-0.3-3.8,1.3-4.8c1.3-0.7,2.8-0.5,4.1,0.1
				c0.7,0.4,1.3,1.2,1.2,2c-0.8-0.3-1.5-0.6-2.3-0.9c-2.7-0.9-3.1,1-2.8,3.3c0.4,1.5,1.2,3,2,4.3
				C144.3,164.9,144.2,164.9,144.1,164.8z"/>
			<path class="st5" d="M152.6,159.9c-1.4-0.2-2.7-1-3.3-2.4c-0.6-1.6-0.6-3.9,1-4.9c1.2-0.9,3-0.7,3.8,0.6c0.2,0.4,0.4,0.9,0.3,1.3
				c-0.6-0.3-1.2-0.5-1.8-0.9c-1.8-0.7-2.4,1.3-2,2.8c0.4,1.4,1.2,2.7,2.3,3.6C152.9,159.9,152.7,159.9,152.6,159.9z"/>
			<path class="st5" d="M147.3,158.6c-0.1-0.3-0.5-0.5-0.4-0.8c0.1-0.4,0.4,0,0.5,0.2C147.4,158.2,147.4,158.5,147.3,158.6z"/>
			<path class="st5" d="M130,179.7c2-2.8,5.1-4.3,7.9-6.1c2.9-1.9,5.9-3.8,8.9-5.6c1.9-1.3,3.8-2.6,5.8-3.8c0.9-0.5,1.8-1.3,2.8-1.6
				c0.3-0.1,0.7,0,1,0c-0.2,0.5-0.6,1-1,1.3c-2.5,1.5-4.9,3-7.3,4.6c-3.9,2.5-7.9,5-11.8,7.5C134.2,177.4,132.2,178.8,130,179.7
				C130,179.7,130,179.7,130,179.7C130,179.7,130,179.8,130,179.7z"/>
			<path class="st5" d="M141,193.2c-0.9-0.3-1.5-1.1-2.1-1.7c-1.2-1.4-2.4-2.8-3.5-4.3c-1.6-2.4-4-4.3-4.8-7.2c0,0-0.1-0.5,0-0.4
				c0,0,0,0,0,0c0.8,1,1.9,1.8,2.7,2.8c1.2,1.4,2.3,2.9,3.4,4.4c1.1,1.4,2.3,2.8,3.4,4.1c0.4,0.4,0.8,0.9,1.4,1.1
				c3.1,0.2,10.6-5.4,13.3-7.3c2.8-1.9,5.5-3.9,8.3-5.8c0.4-0.3,0.8-0.5,1.1-1c0.1-0.7-0.3-1.3-0.5-1.9c-0.7-1.5-1.6-2.8-2.6-4.1
				c-1.1-1.5-2.2-2.9-3.4-4.4c-0.8-1.1-2.3-2.2-2.1-3.7c1.2,0.3,1.9,1.3,2.6,2.2c1.2,1.5,2.5,2.9,3.5,4.5c1.2,1.6,2.2,3.2,3,5
				c0.6,1.2,1.2,2.8-0.1,3.7c-1.6,1.1-3.2,2.2-4.8,3.3c-1.9,1.4-3.9,2.7-5.8,4C151.4,188.4,144,193.9,141,193.2z"/>
			<path class="st5" d="M133.3,183.2c0.3-1.3,3.6-2.9,4.7-3.7c4-2.5,8.1-4.8,12-7.4c1.9-1.2,3.9-2.4,5.8-3.7
				c0.7-0.5,1.5-0.8,2.3-0.7c-0.3,0.8-0.9,1.4-1.6,1.8c-2.1,1.4-4.4,2.7-6.5,4.1c-2.9,2-6.1,3.7-9.1,5.6c-1.5,1-3,2-4.7,2.7
				C135.2,182.4,134.2,182.7,133.3,183.2C133.4,183.2,133.4,183.2,133.3,183.2C133.4,183.2,133.4,183.2,133.3,183.2
				C133.4,183.2,133.4,183.2,133.3,183.2C133.4,183.2,133.4,183.2,133.3,183.2c0.1,0,0.1,0,0.1,0c0,0,0.1,0,0.1,0
				C133.4,183.2,133.3,183.3,133.3,183.2z"/>
			<path class="st5" d="M147,190.3c-1.1-0.3-1.9-1-2.6-2c-1.3-1.6-2.5-3.4-3.6-5.1c-1.6-2.5-3.7-4.6-4.7-7.5c0-0.1-0.1-0.3,0.1-0.2
				c0,0,0,0,0,0c0,0,0,0,0,0c0,0,0,0,0,0c0.9,0.8,1.9,1.6,2.7,2.5c1.6,2,3,4.2,4.4,6.4c0.7,1,1.4,1.9,2.1,2.8
				C146,188.2,147,189,147,190.3z"/>
			<path class="st5" d="M142.5,205.7c-0.3-0.5,0.3-0.7,0.6-0.9c1.9-1.5,3.9-2.9,5.9-4.3c1.9-1.4,3.9-2.8,5.9-4.2
				c0.3-0.2,0.7-0.6,1-0.2c0.1,0.2,0.1,0.5-0.1,0.6c-3,2.2-6,4.3-9,6.5c-1.2,0.9-2.4,1.8-3.7,2.7C142.9,206,142.7,205.9,142.5,205.7
				z"/>
			<path class="st5" d="M159.1,194.5c-0.6-0.6,0.6-1.1,1-1.5c1.1-0.8,2.3-1.5,3.5-2.3c0.3-0.2,0.8-0.7,1.1-0.2
				c0.1,0.2,0.1,0.5-0.1,0.6c-1.4,0.8-2.7,1.7-4,2.6c-0.3,0.2-0.6,0.4-0.9,0.7C159.6,194.6,159.3,194.6,159.1,194.5z"/>
		</g>
	</g>
	<g>
		<path class="st5" d="M437,85c4.1-3.7,9.8-5.5,14.7-8.3c4.9-2.6,10-4.8,15.2-6.8c9.8-3.7,19.1-8.4,28.9-12.2
			c1.7-0.6,3.3-1.6,5.1-1.4c0.6,0,1.1,0.2,1.6,0.4c-0.3,0.5-0.6,1.1-1.1,1.5c-0.5,0.5-1.2,0.9-1.9,1.2c-2.6,0.9-5,2-7.5,3.1
			c-3.8,1.5-7.5,3.2-11.2,4.9c-6.9,2.9-13.9,5.6-20.7,8.5c-7.5,3.3-14.3,8.6-22.9,9.3C437.1,85.1,437,85.1,437,85z"/>
		<path class="st5" d="M438.2,84.2c-2.7,0-4.6-1.9-6.8-3.1c-2.2-1.4-4.5-2.8-6.9-4c-10.9-6-21.6-12.2-32.7-17.9
			c-7.9-4-16-7.6-23.7-11.8c-1.3-0.7-2.6-1.3-3.8-2c-1.1-0.7-2.5-1.2-3.2-2.3c-1-1.6,0.9-2.8,2.4-3.2c1.6-0.5,3.4-1.2,4.9-1.7
			c3.4-1.2,6.8-2.4,10.3-3.5l7.4-0.7c-3.2,1.3-6.8,3-10,4.2c-3.9,1.4-7.8,2.9-11.7,4.3c8.3,5,17.6,8.6,26.3,13.2
			c10,5.1,19.8,10.5,29.6,15.9c5.7,2.8,11.1,5.9,16.7,9c1.4,0.7,2.4,1.9,2.9,3.2C439.3,84.2,438.7,84.2,438.2,84.2z"/>
		<path class="st5" d="M376.9,37.9c9.9-3.7,41.8-20,48.4-23.5c8.7,4.5,16.4,10.3,24.8,15.2c9.6,5.7,19.3,11.2,29,16.7
			c5.4,3.3,10.9,6.3,16.4,9.4c1.3,0.8,3,1.1,4.6,1c0-0.5-0.2-1-0.4-1.4c-1.1-2.2-3.9-2.9-6.1-4.1c-2.4-1.2-4.8-2.4-7.1-3.8
			c-10.8-6.1-21.8-12-32.4-18.3c-7.5-4.5-14.7-9.4-22.3-13.8c-1.2-0.7-2.5-1.5-3.7-2.2c-1.2-0.6-2.3-1.5-3.7-1.6
			c-2.1-0.1-45.7,23.2-52.3,25.4"/>
		<path class="st5" d="M496.9,56.2c-3.5-1.8-6.8-3.8-10.2-5.6c-5.9-3.1-11.7-6.4-17.5-9.7c-3.4-2.1-7-4-10.4-6c0,0-0.1-0.1-0.1-0.1
			h5.2c0.7,0.4,1.4,0.7,2.1,1.1c4.7,2.7,9.6,5.3,14.4,7.9c4.5,2.6,9.3,4.9,13.8,7.5c2.4,1.5,5.9,2.3,6.7,5.1
			C499.4,56.7,498.1,56.7,496.9,56.2z"/>
		<path class="st5" d="M391.7,84.9c-1.4-2.1-0.4-4.4,0.1-6.5c0.6-2.5,1.3-5,2.1-7.5c0.9-3.4,1.8-7,4.3-9.7c0.2,0,0.1,0.2,0.1,0.3
			c0,0,0,0,0,0c0.1,4.7-1.2,9.4-2.5,13.9c-0.5,1.6-0.9,3.3-1.3,5C394.2,82.1,393.5,83.9,391.7,84.9z"/>
		<path class="st5" d="M455.7,102.7c-1.1-2.2,0.1-4.5,0.8-6.7c0.7-2.1,1.4-4.3,2.2-6.4c2.5-6.2,4-13,8.7-18.1c0,0,0,0,0,0
			c-0.6,7-3.9,13.5-6.2,20.2c-0.8,2.1-1.6,4.3-2.4,6.4C458.3,99.9,457.5,101.7,455.7,102.7z"/>
		<path class="st5" d="M433.2,106.4c-8.4-0.5-16.8-2.2-24.5-5.2c-5.1-2-9.6-5-13.6-8.4c-3-2.4-4.7-6-3.1-9.4
			c0.1-0.2,0.8-1.8,0.8-1.2c1.4,6.9,4.7,9.1,10.6,13.2c9.3,6,22.5,8.7,33.9,8.7c4.1-0.1,8.3-0.5,12.2-1.8c2.2-0.6,4.2-1.7,6.5-1.9
			c0,0,0.1,0,0.1,0c0,0,0,0.1,0,0.1c0.1,2.9-4.3,3.7-6.8,4.4C444.2,106.4,438.6,106.6,433.2,106.4z"/>
		<path class="st5" d="M490.4,95.2c-1.6-0.6-2.1-2.5-1.4-3.9c0.7-1.3,2.2-1.9,3.6-2.4c1.9-6.1,3.8-12,5.2-18.1
			c1.1-4,1.6-8.1,1.7-12.3c0-1,0.2-2.1-0.3-3c0,0,0,0,0,0c0,0-0.1,0-0.1,0c-0.1,0.1-0.1,0.2-0.1,0.2c0-0.5,0.3-0.7,0.8-0.4
			c0.9,0.5,1.4,1.5,1.8,2.3c2.1,4.8-0.1,10.8-1.2,15.7c-1,4-2.2,8.1-3.3,12c0-0.1,0-0.1,0.1-0.2c-0.5,1.5-0.7,3-1.3,4.5
			c0.9,0.6,1.3,1.7,1.1,2.6C496.3,94.6,492.9,96,490.4,95.2L490.4,95.2z M492.1,92.5c0.5-0.1,1.1-0.3,1.4-0.7
			C493,91.9,492.4,92.1,492.1,92.5z"/>
		<path class="st5" d="M487.3,115.8c-1.1-0.4-0.8-1.8-0.7-2.6c0.2-1.3,0.4-2.5,0.7-3.8c0.5-2.2,0.9-4.4,1.5-6.5
			c-0.9,2.1-1.8,4.2-2.6,6.3c-0.4,1-0.6,2.1-1.2,3.1c-0.4,0.7-1.6,0.7-2.2,0.3c-1.3-1.2-0.2-3.1,0.3-4.4c2.3-5.3,4.1-11,7.6-15.7
			c0.3-0.4,0.6-0.8,0.9-1.2c0.2-0.1,0.1,0.3,0.1,0.4c0.9-0.5,2.1,0.1,2.2,1c0.1,0.5-0.1,1-0.3,1.5c0.7,1.5,0.3,3.3-0.2,4.8
			c-0.7,2.4-1.3,4.9-1.9,7.3c-0.6,2.5-1.1,5.1-1.8,7.6C489.6,114.7,488.8,116.3,487.3,115.8z"/>
		<path class="st5" d="M396.9,93.5c-0.5,0-0.9-0.4-0.8-0.9c0.2-1,0.4-2,0.6-3c0.6-3.2,1.5-6.2,1.9-9.4c0-0.6,0.6-0.9,1.2-0.7
			c1,0.4,0.5,1.5,0.4,2.2c-0.2,0.9-0.4,1.9-0.5,2.8c-0.5,2.3-1,4.6-1.5,6.9C397.9,92.1,398.1,93.5,396.9,93.5z"/>
		<path class="st5" d="M401.4,96.3c-0.5-0.1-0.7-0.5-0.6-0.9c0.8-3.3,1.6-6.6,2.7-9.8c0.2-1.1,2-0.9,1.7,0.2c-1,3.1-1.7,6.2-2.6,9.4
			C402.5,95.7,402.3,96.5,401.4,96.3z"/>
	</g>
	<path class="st7" d="M509.9,211.4l11.2-6.3h3.1l24.9-31.2l3.5-5.2l2.6,0.4l2-1.6c0,0-8.3-11.1-14-12.9l-1.4,1.5l-0.1,2.5
		c0,0-27.4,30.3-28.9,37.4C511.4,203.1,509.9,211.4,509.9,211.4z"/>
	<g>
		<path class="st5" d="M509.5,212.9c-1.1-0.3-1.1-1.6-0.8-2.6c0.2-0.9,0.4-1.9,0.7-2.8c1-3.1,1.5-6.4,2.7-9.4
			c-0.8-1.2,0-2.6,0.7-3.7c0.8-1.3,1.7-2.6,2.5-3.9c3.5-5.5,7-11,11.2-16c2.9-3.2,5.6-6.6,8.3-9.9c1.4-1.6,2.8-3,4.4-4.4
			c1.1-0.9,2-2.5,3.6-2.4c1,0.1,1.8,0.9,2.6,1.6c1.8,1.6,3.3,3.5,5.1,5.1c1.1,1,2.1,1.7,3.1,2.7c1.1,1.2-0.1,2.7-0.9,3.7
			c-3.9,5-8,9.8-11.9,14.9c-2.5,3.5-5,7-7.6,10.5c-1.9,2.5-3.8,5-6,7.4c-0.7,0.8-1.3,1.6-2.2,2.1c-0.6,0.3-1.2,0.5-1.8,0.5
			c0-0.4,0.1-0.8,0.2-1.1c0.3-1,0.9-1.7,1.6-2.4c1.1-1.1,2-2.2,2.9-3.4c2.1-2.5,4-5.2,5.9-7.8c3.6-5.2,7.3-10.4,11.5-15.2
			c2.1-2.6,4.5-5,6.3-7.7c-1.4-1.2-2.8-2.2-4.1-3.5c-1.6-1.6-3-3.6-4.9-4.9c-1.9,1.9-3.8,3.7-5.6,5.7c-2.8,3.2-5.5,6.5-8.4,9.7
			c-4,4.6-7.3,9.7-10.7,14.7c-1.3,2.1-2.9,4.1-4,6.4c1.7,1.5,3.4,3.1,5,4.6c1.2,1.3,5.2,3.2,3,5.1c-2.5,1.9-5.2,3.6-8.1,5
			c-1.1,0.5-2.2,1.1-3.3,1.5C510.2,213,509.8,213,509.5,212.9L509.5,212.9z M513.2,201.1c-0.6,3.2-1.5,6.4-2.4,9.5
			c3.2-1.5,6.3-3.5,9.2-5.4c-2.4-1.6-4.5-3.5-6.6-5.5C513.4,200.1,513.3,200.6,513.2,201.1z"/>
		<path class="st5" d="M555.2,170.4c-0.4-0.1-0.8-0.3-1.2-0.5c-0.2-0.2-0.4-0.4-0.5-0.7c0.8-0.3,1.6-1,2.3-1.4
			c-0.2-1.3-1.2-2.5-1.8-3.5c-1-1.5-2-2.9-3.3-4.1c-2-1.6-4.2-3.4-6.7-4c-1.4-0.2-1.3,0.7-1.5,1.8c0,0.5-0.5,1.7,0.1,1.9
			c-1,0.3-2.1-2.9-1.9-3.7c0.1-1.6,1.7-2.6,3.2-2.5c1.5,0.1,2.9,0.9,4.2,1.6c1.8,1.1,3.5,2.3,4.9,3.8c1.6,2,6.3,7.5,4.9,10
			C557.4,170,556.3,170.5,555.2,170.4z"/>
		<path class="st5" d="M555.3,163c-0.3,0-0.5-0.1-0.8-0.2c0.2-1.2,1.1-2,2-2.6c1.2-0.8,2.2-1.8,3-3c1-1.6,1.1-3.7,0.3-5.4
			c-0.4-0.9-1.1-1.5-2.1-1.6c-2.4-0.4-4.9,0.4-7,1.4c-1.3,0.8-2.9,1.3-3.8,2.6c0,0,0.1,0.1,0.1,0.1c0,0,0.1,0,0.1,0
			c-0.2,0-0.4,0.1-0.5-0.2c0.1-1.7,1.5-3,2.7-4c1.8-1.4,4.1-1.8,6.3-2.1c1.5-0.1,3.3,0,4.6,1c2.1,2,2.4,5.4,1.5,8
			C561,159.4,557.8,163.2,555.3,163z"/>
		<path class="st5" d="M518.1,202.2c0.2-1.8,1.5-3,2.6-4.2c2.7-3,5.2-6.1,7.7-9.2c4.4-5.5,8.8-11.1,13.5-16.3
			c2.3-2.5,4.6-5.1,7.3-7.1c0.1-0.1,0.2-0.1,0.3,0c0,0,0,0,0,0c0,0,0,0-0.1,0c0,0,0,0,0,0c-1,1.6-1.7,3.2-3,4.7
			c-1.2,1.4-2.5,2.7-3.7,4c-3.7,4-7,8.2-10.4,12.5c-3.3,4.1-6.5,8.2-10,12.2C521.2,200.1,520.1,202,518.1,202.2z"/>
		<path class="st5" d="M514.5,199.9c-0.1-1.7,0.9-3.1,1.9-4.4c2-2.8,4-5.6,6.1-8.3c4.2-5.8,8.7-11.3,13.4-16.7
			c2.2-2.4,4.3-4.9,6.7-7c0.6-0.6,1.3-1.1,1.9-1.7c0,0,0.1,0,0.1,0c0.1,0.1,0,0.3-0.1,0.4c-0.3,0.6-0.6,1.2-0.9,1.8
			c-1.3,2.4-3.4,4.3-5.1,6.4c-5.4,6.1-10.6,12.5-15.4,19.1c-1.9,2.5-3.7,5.1-5.5,7.7C516.8,198.4,515.8,199.5,514.5,199.9z"/>
		<path class="st5" d="M505.2,216.1C505.2,216.1,505.2,216.1,505.2,216.1c-0.5-1.3,0.4-2.5,1.3-3.1c0.6-0.4,1.9-1.4,2.6-0.9
			c0.3,0.3-0.1,0.6-0.2,0.8C508.1,214.3,507.2,216.3,505.2,216.1z"/>
		<path class="st5" d="M504.8,240.9c-0.4-2.5,2.4-3.6,4-5.1c0.8-0.8,1.9-1.8,1.1-3c-3.3-5.8-10.4-3.3-13.4-7.6
			c-1.7-2.8,0.3-5.9,2.7-7.5c1.5-1,3.4-1.2,5.1-1.5c-0.1-0.2-0.2-0.3-0.4-0.3c0.2,0,0.4,0,0.5,0.1c0.5,0.1,0.5,0.6,0.2,1
			c-2,2-5.5,2.9-6.4,5.8c-0.2,3.3,4.9,3.1,7.1,4.1c1.5,0.6,3,1.2,4.3,2.3c2.3,2.1,4.2,4.9,1.7,7.6c-0.9,1.2-2.2,2.1-3.5,3
			C506.9,240.4,505.8,240.6,504.8,240.9z"/>
	</g>
</g>
</svg>
