<?xml version="1.0" encoding="UTF-8"?>
<svg id="Layer_1" xmlns="http://www.w3.org/2000/svg" version="1.1" viewBox="0 0 750 500">
  <!-- Generator: Adobe Illustrator 30.1.0, SVG Export Plug-In . SVG Version: 2.1.1 Build 136)  -->
  <defs>
    <style>
      .st0 {
        fill: #ffb9a6;
      }

      .st0, .st1, .st2, .st3, .st4, .st5, .st6 {
        fill-rule: evenodd;
      }

      .st1 {
        fill: #e9e9eb;
      }

      .st2 {
        fill: #fbfafc;
      }

      .st3, .st5 {
        fill: #fff;
      }

      .st7 {
        fill: #f45967;
      }

      .st4 {
        fill: #cacaca;
      }

      .st8 {
        display: none;
      }

      .st5 {
        opacity: .46;
      }

      .st6 {
        fill: #151521;
      }
    </style>
  </defs>
  <g class="st8">
    <path class="st7" d="M575.64,266.11h0s.05,0,0,0h0Z"/>
    <path class="st7" d="M575.06,264.95h0Z"/>
    <path class="st7" d="M587.02,234.4s-.05,0,0,0c-.05,0-.05.05,0,0h0Z"/>
    <path class="st7" d="M574.43,263.79h0s.05,0,0,0h0Z"/>
    <path class="st7" d="M565.9,247.62h0Z"/>
    <path class="st7" d="M566.47,248.78h0s.05,0,0,0h0Z"/>
    <path class="st7" d="M567.74,251.1s-.05,0,0,0h0Z"/>
    <path class="st7" d="M568.95,241.93h0Z"/>
    <path class="st7" d="M565.26,246.46h0Z"/>
    <path class="st7" d="M568.32,252.2q0,.05,0,0t0,0h0Z"/>
    <path class="st7" d="M567.11,249.94h0Z"/>
    <path class="st7" d="M571.37,258h0s.05.05,0,0h0Z"/>
    <path class="st7" d="M572.01,259.16h0Z"/>
    <path class="st7" d="M568.95,253.36q0,.05,0,0t0,0h0Z"/>
    <path class="st7" d="M573.85,262.63h0Z"/>
    <path class="st7" d="M573.22,261.48h0Z"/>
    <path class="st7" d="M570.79,256.84h0q0,.05,0,0h0Z"/>
    <path class="st7" d="M569.53,254.52s0,.05,0,0q.05.05,0,0h0Z"/>
    <path class="st7" d="M570.16,255.68s0,.05,0,0q0,.05,0,0h0Z"/>
    <path class="st7" d="M577.48,269.54s0,.05,0,0q0,.05,0,0h0Z"/>
    <path class="st7" d="M578.75,272.17s-.05,0,0,0h0Z"/>
    <path class="st7" d="M578.12,270.69s0,.05,0,0q0,.05,0,0h0Z"/>
    <path class="st7" d="M579.38,273.59h0Z"/>
    <path class="st7" d="M579.96,274.75h0s.05,0,0,0h0Z"/>
    <path class="st7" d="M580.59,275.91h0Z"/>
    <path class="st7" d="M581.17,277.02q.05.05,0,0t0,0h0Z"/>
  </g>
  <path class="st5" d="M595.5,259c15.7,30.4,16.9,66.3,12.1,99.7-3,20.2-9.9,39.6-17,58.6-5.5,13-11.7,25.9-19.4,37.8-2.3,2.7-7,12.9-10,10.7-.1-.1-.2-.1-.3-.2-1,.2-2.1.1-3.2-.3-60.2-7-120.7-10-181.2-13.3-58.5-2.6-117.4-4.9-175.8-1.9-4.5.2-8.9.5-13.4.6h-.9c-.3.3-.7.4-1.2.4-.3,0-.6-.1-.9-.2-40-21.4-72.6-69.5-60.6-115.9,3.9-16.3,17.2-27.2,27.8-39.3,16-20,11.6-36.5,9.6-59.5-2.2-38.6,12.9-83.6,48.6-102.8,6.8-3.9,14.7-4.8,22.2-6.8,10.4-3,20.5-7.8,28.3-15.4,6.8-6.1,11.7-13.8,17.7-20.6,12.4-13.8,26.3-26.7,43.1-34.9,11.6-5.8,24.4-8.1,37.3-7.5,9-.4,18,1.2,26.4,4.6,10.4,3.9,18.4,12.1,28.7,16.1,11.1,4.9,23.2.4,34.6-.4,19.4-2.1,39.9.5,56.6,11,14.2,10,26.8,23.7,30.5,41.2,6.4,21.4-1.7,44.1,5.6,65.3,8.5,30.9,41.5,44.9,54.8,73Z"/>
  <path class="st2" d="M467.5,71.5l-12.2,30.3s-39.2,12.8-59.8-11c-1.5-1.8-2.4-4.1-3.5-6.5l6.3-22.8-36.3-19.1,62.7-29,75.4,44-32.6,14.1Z"/>
  <g>
    <path class="st2" d="M389.8,258.9s-.1,0-.1.1c-.1,0-.1.1-.2.2l-.2.2c.1-.2.3-.4.5-.5h0ZM537.5,396.5c.8,28.9-3.1,41.7-20.2,64.9-8.6,10.8-17.2,10.8-29.7,11.4-9.3,1.3-18.6,4.5-28.1,3.7-26.1-3.5-52.3-3.6-78.3-6.3-17.3-1.9-34.2-6-51.6-7.7-11.5-1.3-22.8-3.5-34.3-4.7-7.7-.8-15.3-1.2-22.8-3.2-1.4-.2-2.8-.5-4.1-1-.6.7-1.6,1.1-2.6.7-2.4-.9-4.7-3-6.5-4.6-3-2.8-6.2-5.4-9.2-8.2-10.1-10.9-17.7-24-26.1-36.2-2.8-4.6-5.7-9.1-8-14-1.5-5.2-3.8-7.9-8.6-10.5-3.3-.3-6.5.1-9.7.2-1.5,1.2-3.7.5-5.5.7-4.3,0-8.6-.1-12.9-.3-.5-.1-.9-.3-1.2-.6-.7,0-1.4-.4-1.8-1.2-.7-1.3-.5-2.8-.6-4.3-.3-3.4-.8-6.8-1.2-10.2,0-1.8-.7-4-.1-5.8-2.9-2.1-6.3-6.2-6.6-8.9-.6-1.2-1.4-2.3-1.3-3.7-.5-1.7-2-3.4-1.4-5.2-.9-3.9-2.8-7.6-3.1-11.7-.6-3.6-.2-7.3-.6-11-.7-6.5-1-13.1,4-18.1,1.3-4.6,3.3-12.9,8.1-15,.3-1.3.9-2.6.9-3.9.8-4.7-.5-9.5.1-14.2.3-1.6,2.1-2.1,3.2-1.4,5.6-2.1,16.8-2.9,18.8-2.9,1.2,0,1.8.8,2,1.7.9,0,1.5-.1,1.9-.1,9.3-.3,18.6-.7,27.8-.4,1.4-.1,2.9,0,3.9-.2,6.6-.3,13.2-.1,19.8,0h.5c4.6-.1,9.3-.2,13.9-.3h.6c3.6,0,7.3.2,10.9.1.4,0,.8.1,1.1.3,12.8.3,25.6.4,38.4,1.1.8,0,1.5,0,2.1.2.5-.3,1.1-.3,1.6-.2.7.1,1.2.6,1.6,1.1,4,0,2,11.4,2.5,14.4,0,7.6.3,15.1.6,22.7,0,6.8.5,13.6,1.1,20.4,2.1-2.4,4.8-4.6,5.8-5.7,4.3-3.8,8.3-7.9,12.8-11.5,7-5.9,14.3-11.5,22.6-15.4,8.2-4.4,8.3-.9,15.5-9.1.5-2.6,3.99-5.6,6.39-6.7,2.7-3.7.87-8.59-.43-12.49-.1-.3-.32-1.23-.32-1.53-2-.5-4.75.32-6.75.32-3.7,0-7.3-.8-10.6-2.4-6.7-2.9-12.7-7.5-16.5-13.9-6.2-6.9-8.3-20.3-7.4-29.3-.6-1.2-.2-2.6-.2-3.8.4-3,.2-5.9.6-8.9-5.8-5.8-7.4-13.7-4.2-21.2.6-1.6,2.7-5.6,5-7.5.3-2.7.9-5.6.8-7-4.2-2.3-8.7-4-12.7-6.7-2.6-1.5-5.2-3.9-5.1-7.2-.6-2-2.4-3.3-3.3-5.1-.7-1.3-1.3-2.7-1.6-4.2-1.3-4.5,1.3-5.8,2.9-9.1.2-2.1-.4-4.2-.8-6.3-2.9-2.3-2-7,0-9.6,1.9-2.5,4.8-3.7,7.7-4.6,5-1.6,10.4-.1,14.9,2.2-.7-3.3,1.3-6.6,4.4-8,4.2-1.8,8.7.3,12.6,2.1.7-2.3,2.2-4.2,4-5.6.2-.1.3-.3.5-.4,1.1-1,2.5-1.7,3.9-2,.8-.3,1.7-.5,2.5-.4,4.1-.5,8.4.6,11.2,3.6,1.5,1.3,3.1,2.5,4.7,3.6.8-2.7,4-4.1,6.7-4,3.9.2,7,2.5,10.5,3.6,1.6.6,3.2,1.1,4.9,1.7,2.8-2.2,7.6-1.9,10.6-.6,3.6,2.2,5.5,6.2,7.9,9.5,1.9-1.6,3.5-4.3,6.1-4.8,1.8,0,2.8,1.8,2.6,3.4-.1,1.1-.3,2.1-.7,3.1.2.1.5.1.8.2,1.7.4,3.4.7,5.1,1.2,2.4,1.4.7,4.9-1.9,4-.5-.1-.9-.2-1.4-.3.5.9.9,1.7,1.6,2.5,2,1.6,4.6,3.8,1.3,5.8.6,3,1.86,6.01,2.46,9.01.8,3.8,1.04,7.39,1.14,11.29.4,7.7.4,15.5-2.1,22.9-.6,2.5-1.4,4.9-2.1,7.4-.3.9-.5,2.1-1,2.9-.15.32-1.07.69-1.18,1.13-.29,1.18.13,2.61.28,3.77.7,3.7,1.7,7.6.6,11.4-1.3,4.8-4.5,8.9-8.5,11.7-.9,1.2-.6,3-1,4.4-.3,1.4-.6,2.8-1.1,4.1-.9,2.7-2.3,5.1-3.8,7.4-.2.3-.5.6-.8.8-.3,3.2,0,6.4.1,9.6.5,8.6,1.3,17.3,2.9,25.8.3,1.2.6,2.4.9,3.6,2.7,0,6.3,2,8.3,3.2,1.1.9,3.6,2.6,5.5,4.4.5,0,1.1,0,1.8.2,5,1.3,9.2,4.3,13.5,7,3.4,2,7,3.7,10.2,6,.2.2.7.5,1.3.9.6-.1,1.3.1,1.8.5,1.2.8,2.4,1.5,3.6,2.3.2.1.4.2.6.3,7,3.7,12.8,8.9,17.4,15.1,1.1,1.2,2.1,2.3,2.6,3.3.6.8,1.2,1.6,1.8,2.3.9-.5,2.2-.2,2.9,1.4,1.7,2.3,3.5,4.4,5.2,6.7,1,1.1,1.9,2.3,2.7,3.5,3.3,5.5,6.7,11.1,9.5,17,2.6,4.3,4.8,9,5.8,14,.1.6.3,1.3.4,1.9.9.6,1.4,2,1.8,3.5,3.1,7.7,4.3,27.7,4.2,30.2Z"/>
    <path class="st2" d="M141.8,219.3c-1-3.4-2.1-5.7-3.6-7.3,0,0,0-.1.1-.1.4-.6.5-1.4.1-2.1-.4-.7-1.1-1.1-1.8-1.1h-.7c-.4,0-.8.1-1.2.3-.2.1-.5.2-.7.4-1.9-.6-4.2-1-7-1.3h-.6c-1.2,0-18.6,1.6-19.5.7-4.4-3.8-6.4-25.9-6.1-30.4.7-7-.3-20.5,1.5-28,3.1-5.9,38.5-3,40.4-3.2,6.4-.4,12.7-.1,19.1.1,7.3.2,14.6.5,21.8,1.1,6.6.2,8.2,2.9,7.9,9.2-.1,6.2-1.3,12.2-1.6,18.4-.2,4,0,8-.2,12.1-.2,3.9,0,7.7-.1,11.6-.2,3.3.3,8.2-4,9-2.8.6-5.6.5-8.4.3-2.5-.1-5-.2-7.4.2-.4.1-.8.1-1.2.2-.6-.1-1.1-.1-1.7-.2-1.2-.1-2.5-.2-3.8-.3-1.2-.1-2.4-.1-3.6,0h.1c-.4,0-.8.1-1.1.3s-.6.4-.8.7c-1.5,0-3,0-4.5-.1-2.4.3-5.4,8.1-6.2,10.4-.5,1-1.3,1.5-2.1,1.5-1.2,0-2.6-1-3.1-2.4Z"/>
    <path class="st2" d="M149.1,213.2h0Z"/>
    <path class="st2" d="M293.5,103c1.1,6.2.9,12.5.9,18.7-.1,6.7-1.4,13.3-.6,19.9.9,8-7,6.8-12.4,7.5-6.2,1-12.5.8-18.7,1.8-1.4.3-3.1.3-4.3,1-1.2,2.2-2.2,4.5-2.9,6.9-.5,1.2-1.9,1.8-3,1.3-.8-.4-1.2-.9-1.4-1.7-.4-.2-.8-.5-1.1-1-1.7-2.6-2.4-6.3-5.3-7.9-4.9-1.7-10.4-1.2-15.6-1.2-3.9.1-8,.6-11.7-.8-2-.6-2.4-2.6-2.2-4.5.1-3.2,0-6.3-.1-9.5-.3-7.9-.9-15.8-1.4-23.7-.2-3.6-.3-7.2-.1-10.8.3-2,2.4-2.5,3.7-1.7,1.9-.9,4.2-.6,6.2-.9,13.4-.2,26.8-.2,40.1-.3,9.2.2,18.3,1.2,27.4,1.8,3.8,0,4.3,3.8,2.5,5.1Z"/>
    <path class="st2" d="M299,220.7c-.1,3.6.8,7.1.3,10.7-.4,2.8-1.7,6-5.1,5.6-2.9.1-5.7.3-8.6.1-6.1-.3-12.2,1.5-18.3,1.4-.5.8-.9,1.6-1.3,2.5-1.2,2-1.3,5.9-4.3,5.6-2.3-.3-2.4-3.2-3.3-4.8-1.8-4-4.7-3.1-8.4-3.2-2.7-.1-5.4-.2-8.1-.3-.8.1-1.6-.2-2.2-.6-3.8.1-7.6.4-11.3.3-1.2.1-2-.4-2.5-1.1-.8-.2-1.4-.8-1.6-1.9.3-9.2-.2-18.3-.9-27.5-.1-2.8-.3-5.5-.4-8.3-.1-3.1.3-6.3-.4-9.3-.3-1.6,1.2-2.8,2.6-2.7.2-.1.3-.2.5-.2,2.5-.6,5.2,0,7.8,0,8-.1,16.1-.8,24.1-.4,5.3.2,10.5,1.1,15.8,1.4,4.1.1,8.1,0,12.2-.2,2.5-.2,4.9-.5,7.4-.7,2.1-.4,4.4.5,4.3,3-.2,2.9.2,5.8.8,8.6,1.3,7.2,1,14.6.9,22Z"/>
  </g>
  <g>
    <path class="st1" d="M536.5,386.2c1.2,7.2,1.5,14.7-.2,21.8.3,5-.2,10.1-1.3,15-.3,1.3-.5,3.1-1.4,4.3-1.1,5-2.1,10-4.3,14.5-4.8,8.7-9.5,17.6-16.2,24.9-3.3,3.8-7,7.3-10.3,11.1-5.1,4.7-11.4,8-18.1,9.9h0c-.6.2-1.3.1-1.8-.2-.7.2-1.5.4-2.3.6-2.6,1.1-5.3,2-8,2.8-9.6,2.8-19.8,3-29.7,3.1-9.1,0-18.2-.8-27.2-2.4-4.4,1.1-9.2-1.2-13.5-2.3-6.8-1.6-13.5-3.7-20.1-6-13.3-5.1-26.2-11-38.4-18.3-3-1.5-7.3-.9-9.2-4.1-3.9-1.7-7.2-4.6-9.2-8.4-.1,0-.2-.1-.3-.1-2.7-1.7.2-4.5,1.1-6.5,2.6-4.6,5.3-9.1,7.5-14,3.1-6.8,5.5-13.8,8.3-20.7.8-1.6-.8-2.7-1.5-4-1.6-3.9-4.7-6.7-7.3-9.9-3-3-4.9-6.9-7.9-9.7-1.8-1.3-5-2.9-2.9-5.4,1.3-1.2,3.2-1.4,4.6-2.2-.5-7.8.2-15.5.3-23.2-.2-8.2-1.1-16.4-1.1-24.7.1-.7.1-1.5.2-2.4-.2-.4-.2-.8-.2-1.2-1.5-2.8,6.7-10.2,8.6-12.4,2.2-4.3,6.9-6.9,10.4-10.2,5.9-4.9,12.2-9.3,19.1-12.7,3.3-1.8,7.1-2.2,10.4-4,4.4-4,9.5-7.5,12.1-12.9,1-1.1,2.9-.7,3.5.6h0c.3.4.5.8.5,1.3-.2,1.2-.8,2.3-.7,3.6,1.5.7,2.6,2.2,3.9,3.2,3.1,2.5,6.7,4.4,10.3,5.9,2.7-.6,5.6.4,8.3.1,5.5-.1,11.1-1,16.1-3.3,4.2-1.6,9.6-3.9,8.8-9.4-.1-1.2-.7-2.4-.2-3.6,1.1-2.6,4-1.2,5.7-.2,2.9,1.5,5.7,3.2,7.9,5.5h.3c8.5,2.5,16.4,6.7,23.9,11.5,5.3,3.7,11.2,7.1,15.4,11.9,5.4,3.9,10.2,8.5,14.5,13.6,5.7,6.2,10.8,13.1,14.9,20.5,3.4,5.3,6.4,11,8.9,16.8,1.8,3.9,3.6,7.8,4.6,12,.6,6.8,4.3,13.2,3.2,19.9h0ZM322.7,449.9c-9.3-6.4-19.4-11-28.7-17.4-7.2-5.5-14.4-11.9-18.4-20.3-.4-.9-.6-1.8-.7-2.7h0c0-.1,0-.2.1-.3.1-1.8.2-3.7,1.8-4.9,2.2-2-.5-4.2.4-6.8.2-1.3,1.1-2.2,2-3.1,3.4-2.9-1.2-5.1,2.7-9.3,1.7-1.7.1-4.7-2.3-3.8-.3.2-.6.5-.9.8h-.1c-4.2.6-8.7.3-13,0-4.5-.2-9.1-.1-13.6-.3-5.5-.1-11.5-1.6-16.8.4-6.4,0-12.9.4-19.3-.8-.8-.1-1.7-.4-2.5-.4-2,0-3,2.6-1.5,3.9.2.1.4.2.6.3,0,.1.1.2.2.4,4.2,8.1,8.5,16.2,13.8,23.6,3.7,8.4,9.8,15.2,15.2,22.4,11.9,15.6,30.2,27.2,50.1,28.5,7.5,0,15.1-.4,22.3-3,1.9-.6,3.7-1.8,5.7-2.3.7-.1,1.5-.4,2.1-.9,2.3.5,3.3-3.2.8-4Z"/>
    <path class="st4" d="M537.3,404.2c.2,5.3-.5,10.5-1.3,15.7-1.4,9.8-5.7,18.7-9.8,27.5-.3.4-.5,1-.8,1.7.1,0,.2.1.3.2,2.6,1.5-5,8.4-6,10.4-8.5,10.4-23.4,24.1-36.3,28.2-.3,0-.6-.1-.8-.2-2.3,1.3-4.8,2.3-7.4,2.7-3.7,1.3-7.5,2.2-11.4,2.8-3.2.6-6.4,1-9.6,1.6-.8.3-1.7.6-2.3,0-3.2.5-6,.7-7.2-.3-1.2-3,3.1-2.5,4.9-2.6,4.7-.5,9.4-1.7,14-2.6,9.3-1.9,18.3-5.6,26.1-10.9,10.2-8.8,19.4-19.1,24.9-31.5,20.3-42,4.9-98.5-29.9-128.2-9.6-7.4-19-15.5-29.6-21.4-2.2-1.1-4.4-2.3-6.6-3.5-2.8,3.7-10.8,11.5-13.2,8-.5-4.6-2.8-8.8-6.4-11.8-2.4-1.4-.9-4.4.9-2.6h0c.2.2.3.4.5.5,11.2-5.1,5-14.5,9-14.4,3.1,1.4,5.8,3.6,8.7,5.4.9.5,1.7,1,2.2,1.7.1,0,.2,0,.3.1,9.2,2.4,17.4,7.6,25.5,12.5,7.5,4.7,14.9,9.7,21,16.1,8.5,9,17,18.6,23.2,29.3.2.3.4.7.6,1.1h0c7.9,12.3,13.1,26.6,14.8,41,.8,5.2,1.1,10.4,1.4,15.7v.4c.2,2.8,0,6.3.3,7.4h0ZM215.8,389.2c-.9,0-2.2.1-2.6-1-.3-.7-.1-1.4.4-1.9h0c-.1,0-.2-.1-.3-.1-.3-.2-.6-.5-.8-.8-1.6-.6-1.7-3,0-3.5,3.8-.5,7.6.4,11.4.6,12.3-1.3,24.6-.4,36.8,0,6.5.4,12.9-.6,19.4-.2,5.1.9,1.3,6.1-2.2,6.1-20.6.5-41.4.4-62.1.8h0ZM240.7,385.5h3c-1,0-2,0-3-.1v.1h0ZM354.9,437.8c.2-.4.4-.8.5-1.1.3-.6.6-1.4,1.2-1.7.4-.7.8-1.5,1.1-2.2.4-.9.8-1.9,1.1-2.9.1.1.2.2.2.4.2-.9.3-1.8.4-2.7q0-.1.1-.2c.3-.8.6-1.7.6-2.5,0-.4-.1-.8-.3-1.1.2-1.9.3-3.9.5-5.8.3-1.2,1.8-1.5,2.7-.7,1.1,2.1-.1,7.2-.2,9.8-.5,8.2-8.5,37-16.4,39.4-.7,0-1.4-.5-1.7-1.1-.1-.3-.2-.5-.2-.8-1.2.5-2.6-.5-2.4-1.8-1.3,1.3-2.6,2.1-3.6,2.1h-.3c-3.8-.4-4.6-5.1-7.6-6.8-4.9-2.9-8.7-6.9-5.6-11.8.3-.3.6-.6.9-1,.6-.7,1.1-1.6,1.6-2.4.2-.3.4-.7.6-1,1.6.4,3,2.7,4.4,3.4,3.9,2.4,8.6,4.2,13.2,3.6,2.1-.7,3.2-.5,3.6.3.2-.5.4-1,.7-1.6.7-1.7,1.4-3.4,2-5,.4-.2.7-.4.8-.8.2-.6.5-1.2.9-1.7.3-1,.8-1.6,1.2-2.3Z"/>
  </g>
  <path class="st0" d="M398.4,217.7c-12.1-2.9-4-18.7,6-15.3,10.2,4.2,3.6,17.3-6,15.3h0ZM347.4,212.8c-.4-.5-.3-1.2-.1-1.8,0-.1.1-.3.1-.4-1.4-.9-.4-2.7-.1-3.9.3-.9.4-1.8,1-2.6-3.8-2.3.6-5.5,2.9-1.7,2.2,2.8,2.9,7.2.2,9.9-1,1-2.9,2-4,.5Z"/>
  <path class="st3" d="M509.9,211.4l11.2-6.3h3.1l24.9-31.2,3.5-5.2,2.6.4,2-1.6s-8.3-11.1-14-12.9l-1.4,1.5-.1,2.5s-27.4,30.3-28.9,37.4c-1.4,7.1-2.9,15.4-2.9,15.4Z"/>
  <g>
    <path class="st6" d="M356.8,188.6c1.8,2.5.6,7.7-2.9,7.7h-.4c-1.3-.1-2.3-1.2-2.9-2.2-1-1.8-.9-4.1-.1-6,.7-1.4,2-2.6,3.7-2.3,1.4.3,1.9,1.8,2.6,2.8Z"/>
    <path class="st6" d="M392.7,193.1c.3,1.3.3,2.6.1,3.9-.4,1.5-1.7,2.9-3.2,2.9-.3,0-.6,0-.8-.1-3.4-1.4-4.2-5.5-2.7-8.5.5-1.2,1.5-2.2,2.9-2.3,2.1-.2,3.1,2.3,3.7,4.1Z"/>
    <path class="st6" d="M431.3,203.6c2-2.7,7.1-7,10.5-4.7-.9.8-1.8,1.6-3,1.9-1.5.5-2.8,1.4-4,2.4-.2.1-.3.3-.5.5s-.4.4-.7.6c-1.2,1.1-2.3,2.2-3.4,3.3-.2.3-.4.5-.4.9-.5-1.5.8-3.7,1.5-4.9Z"/>
    <path class="st6" d="M434.3,203.6c2.4.5,5.4,3.3,3.7,5.6-.5-.4-1.2-.7-1.6-1.3-.9-1.3-1.5-2.8-2.7-3.7h0c-.1-.1-.8-.4-.6,0,0,0-.1-.1-.1-.2-.1-.4.5-.4.8-.5.1,0,.3.1.5.1Z"/>
    <path class="st6" d="M394.4,224.3c.2-1.2.5-2.4,1-3.6-3.8,2.2-7.6,4.3-11.9,5.2-1.7.4-3.4.8-5.1,1-1.4.1-2.7.4-3.9,1-2.4,1.2-1.8,4.3-.5,6.1,1.4,2.1,4,3.3,6.5,3.2.7-.1,1.4-.2,2-.3h.2c4.6-1.2,8.4-4.7,10.5-8.9,0-.1.1-.1.1-.2.2-.5.4-.9.6-1.4.1-.7.4-1.4.5-2.1h0ZM396.5,219.6c.1.6-.6.8-1,1,2.3,2.3-.2,7-1.5,9.4-2.6,4.7-8.4,9-14,9-.5,0-1.1,0-1.6-.1-2.8-.5-5.4-2.2-6.7-4.8-1.8-3.2-1-7.3,2.7-8.5,3.6-1.1,7.5-1.1,11.1-2.4,3-1,5.6-3,8.9-3.2h.7c.4,0,.8,0,1.2-.1.1-.1.2-.2.2-.3,0,.1,0,0,0,0Z"/>
    <path class="st6" d="M393.8,226.3c.3.1.6.2.9.4-.5.4-1,.7-1.6,1-.3.1-.6.3-.9.4-2.2.8-4.4,1.8-6,3.6-1.3,1.6-2.8,3.2-3.6,5.1h0s.2-.1.2,0c-.1.1-.1.2-.2.2,0,0-.1,0-.1-.1-.3-3.9,2.7-7.3,5.9-9,1.6-.8,3.5-2.1,5.4-1.6Z"/>
    <path class="st6" d="M279.8,338.7c.1-3.6,0-7.2.2-10.9.3-9.3.7-18.5.6-27.8,0-3.7-.1-7.5-.2-11.2-.1-3.6-.1-7.7-2.4-10.7-.6-.9-1.6-1.2-2.7-1.2.2-.1.5-.3.8-.4,1.4-.5,2.9.2,3.9,1.1,3.2,3.5,2.3,11.7,2.4,16.3,0,5.5.1,11.1-.2,16.6-.3,7.4-.7,14.7-.8,22.1,0,1.8-.1,3.7,0,5.5,0,1.9.2,4-.9,5.7-.8-1.4-.6-3.3-.7-5.1Z"/>
    <path class="st6" d="M335.8,424h0c0,.1,0,.2-.1.3,0-.1,0-.2.1-.3Z"/>
    <path class="st6" d="M177.4,359.3c.9-.7.7-2.2.6-3.3-.4-2.2-1.5-4.2-3-5.8-.9-.9-1.7-1.9-1.9-3.2-1.6-.9-3.3-1.8-4.7-3-1.3-1.1-2.5-2.4-3.6-3.7.2,1.3.6,2.5,1,3.8.6,2.2,1.2,4.3,2.2,6.4,1.5,2.9,3.4,5.7,6.1,7.6.8.5,1.6,1,2.5,1.3.3,0,.7-.1.8-.1.1-.1,0,0,0,0h0ZM178.4,344.5c-.2.7-.6,1.5-1.5,1.5-.9-.1-1.7-.6-2.6-1-2.7-1.4-5.2-3.1-7.1-5.4-3.7-4.5-5.9-9-5.4-15,.1-.7.1-1.5.2-2.3,1.2,2.3,2.8,4.5,4.7,6.4,1.7,1.7,3.5,3.3,5.6,4.6.4.2.9.4,1.3.6.1.9.5,1.8,1.2,2.5,1.1,1.3,2.2,2.6,3,4.2.7,1.3.9,2.6.6,3.9h0ZM180,332.4c.6-1.5.3-3.2-.3-4.6-1.3-2.4-3.3-4.4-4.8-6.6-.9-1.1-1.5-2.5-1-3.9h0c-1.9-1.8-3.4-4-4.8-6.1-1.6-2.7-2.9-5.6-3.5-8.7-1.8,1.1-3,3.1-3.8,5-1.2,4.5.1,9.5,2,13.7,1.6,3.1,3.8,5.8,6.4,8.1,1,.9,2,1.8,3.2,2.4,1.1.5,2.2.8,3.3,1.1,1.2.2,2.5.5,3.3-.4h0ZM182.8,318.8c-1,.8-2.3.3-3.4,0-3.5-1.3-5.8-4.5-7.8-7.5-5.5-8.1-7-19.7,2.3-25.6,0,2.1.1,4.1.2,6.2,0,.7,0,1.5.2,2.3-1.2,2.7,2,7,3.4,9.3,1.8,3,4.2,5.8,5.4,9.1.4,1.9,1,4.5-.3,6.2h0ZM302.1,379.5c.3.3.6.6.9,1-.1-.3-.2-.6-.2-1h0c-.2,0-.3.1-.5.1,0-.1-.1-.1-.2-.1h0ZM322.1,341.2c0,6.7-.4,13.5-.5,20.2,0,4.9.3,9.9.5,14.8,0,.9-.1,1.9-.1,2.8-1.5.1-3.1.6-4.6.9-.5-.4-1.1-.8-1.7-1.2-1.9-1.3-3.9-2.5-5.7-3.9-1.3-.9-2.4-2.2-4-2.6-3.3-.4-3.7,4-3.4,6.7-.4-.1-.8,0-1.2,0-2.3-2.5-4.6-4.9-7-7.3-2.1-1.8-4.2-3.7-6.2-5.6-2.7-2.2-5.1-4.6-7.8-6.6-1.4-1-3-2-4.7-2.4-3.4-.7-5.2,2.4-4.9,5.4,1.1,5.9,5.1,10.9,8.9,15.6-.6-.2-1.2-.3-1.8-.2-8.2-.5-16.4-.2-24.7-.4-5.7-.1-11.4,0-17.1.1-5.3.1-10.7.2-16,.1-4.1.1-8.3.1-12.4.1h-7.6c-4.4.1-8.7.2-13.1.2-1.6-.1-3.3-.2-4.9-.5-1.4-1.1-2.2-2.4-2.6-4.3-.7-2.4-.7-5.2-1-7.7-.1-1.1-.3-2.2-.5-3.4.9-.2,1.6-1.2,1.2-2,.7-1.4.7-3.4.3-4.9-.5-2.3-2.1-5.2-4.1-7,.1,0,.3.1.5.1.3.1.6.1.9.1s.6,0,.9-.1c-.2.8-.2,1.7.4,2.4.6-.7.5-1.8.2-2.6,2.3-1.2,2.6-5.3,1.5-7.6-.3-.7-.6-1.3-1-1.9.1-1.1-.3-2.2-.6-3.2h.2c3.7,0,4.1-4,3.3-7-.6-1.8-1.8-3.2-2.9-4.7.5-.8.3-2-.1-2.8.8.3,1.7.5,2.6.6h.3c3.4,0,4.1-3.9,3.8-6.7-.4-3-2-5.7-3.6-8.1-1.1-1.6-2.2-3.2-3.1-4.9.6-1.2.5-2.7.3-4.1-.1-1.4-.1-2.8-.2-4.2-.1-3.4-.2-6.8-.4-10.2,0-4.3-.8-9.9.8-14.2.5-.2,1.1-.3,1.6-.5,1.6-.3,3.2-.5,4.7-.7,4.4-.3,8.9-.2,13.4-.4,4.4-.1,8.8-.3,13.2-.3,6.4,0,12.8,0,19.2.1,8.3.1,16.6.2,24.9,0,10.2-.2,20.4-.5,30.7-.3,3.7.2,7.5.4,11.3.5,5.5.4,11-.1,16.4.6,1.9.3,3.5,1.6,5.3,2.1.1.3.2.6.2.8,2.5,8.9,1.6,18.2,1.5,27.4.1,6.8-.2,13.7-.1,20.5.5,7.4.7,14.9.6,22.4h0ZM323.2,452.5h.1c-.4-.5-.7-1-.8-1.6-1.2-.2-2.2-1-3.3-1.5-1.4-.8-2.8-1.7-4.2-2.5-4.4-2.5-8.5-5.4-13-7.9-3-1.8-5.9-3.5-8.8-5.4-4.3-2.9-8.3-6.4-11.7-10.4-3.6-4.5-8.4-10.7-7.7-16.8.2-1.4,1.1-2.8,2.5-3.2.3-.1.6-.1.9-.1-.2-.3-.3-.6-.4-1-.7-2-1.2-4.2-.8-6.3.4-1.8,2.1-3.2,4-2.6-.9-2.1-1.5-4.4-.6-6.7.5-1.3,1.2-2.6,2.4-3.4.6-.4,1.3-.6,1.9-.5l-.1-.1c-.8.2-1.5.3-2.3.3h-4.6c-1.2,0-2.5.1-3.7.1h-2.9c-11.5-.2-22.9-.4-34.4-.3-3.7.1-7.3,0-11-.1-3.2-.1-6.3-.1-9.5-.1h-3.7c2.4,2.4,3.7,5.6,5.2,8.6,2.6,5,5.2,10,8,14.8,5.8,9.6,12.2,18.9,19.3,27.6,6.4,7.8,14.6,14.2,23.6,18.7,4.7,2.5,9.5,5.1,14.8,5.9,7.1,1.2,14.3,1.5,21.3.5,5.2-.9,10.4-2.2,15.4-4.1,1.5-.4,2.8-1.3,4.1-1.9h0ZM342.1,410c-2.4,6.1-5.2,12-7.9,18-1.6,3.3-3.1,6.7-4.9,9.9-1,1.7-2,3.5-3.1,5.2-1.1,1.9-3.1,4.1-3.6,6.4-.9-.7-2.1-1.2-3.1-1.8-3.2-1.9-6.4-3.8-9.5-5.8-5.7-3.7-11.8-6.9-17.3-10.8-4.1-2.9-7.7-6.5-10.9-10.4-2.9-3.8-5.9-8.2-6.1-13.2,0-1.3.1-2.8,1.2-3.7.2-.1.4-.3.7-.4,1,1.9,2.3,3.6,3.5,5.3,1,1.4,2,3.1,3.8,3.6-.1-1.6-1.1-2.9-2.1-4.1-1.5-2-2.9-3.8-3.9-6.1-.9-2.4-2.2-7.8,1.4-8.5h.1c.5,1.1,1.1,2.2,1.7,3.2,1,1.6,2,3.1,3.2,4.5.9,1,1.6,2.2,2.8,2.9.4.2.8.4,1.2.5-.1-.4-.2-.9-.3-1.3-.5-1.3-1.6-2.1-2.4-3.2-1.8-2.2-3.3-4.6-4.5-7.2-1.1-2.5-1.6-4.7-.2-7.2.6-1,1.5-2.6,2.9-2.2h0c3.1,3.6,6.4,7,9.5,10.5.6.6,1.4,1.1,2.2,1.4-.3-1.2-1-2.2-1.8-3-2.7-3.1-5.5-6.1-8.2-9.2-4.2-5.1-8.6-10.1-11.9-15.8-.9-1.8-1.7-3.7-1.9-5.7,0-3.1,1.9-3.9,4.5-2.5,2.4,1.2,4.3,3.2,6.4,4.9,3.8,3.2,7.5,6.5,11.2,9.9,4.2,4.4,8.4,8.7,12.4,13.3,1.1,1.2,2.2,2.6,3.3,3.9,1.4,1.6,3,3,4.7,4.4l.2.1h0c-2.1-4-5-7.4-7.9-10.8-.5-.7-1-1.5-1.4-2.4-1.1-2.3-1.7-4.9-1.2-7.4.2-.6.4-1.8,1.2-1.6,1.7.8,3,2.2,4.5,3.2,2.1,1.5,4,2.7,6.1,4.3,2.8,2.1,5.2,4.7,7.7,7.2,1.8,1.8,3.5,3.6,5.2,5.6,2,2.5,4.2,4.9,6.2,7.5,1.8,3,3.2,6.7,6.3,8.6h0ZM348.5,176.4c-.1.1-.2.2-.3.3-.1-.1-.1-.2-.1-.2-2.7,2.2-4.5,5.5-5.3,8.7-.7,3.5-.8,7.1.3,10.5.8,2.1,1.9,4.1,3.5,5.7.6-8.3,1.2-16.6,1.9-25h0ZM356.9,175.4h0c-1.3-.4-2.6-.8-3.9-.8-.1,0-.3.1-.4.1-.9.3-1.7.6-2.5,1,0,.3-.1.7-.1,1h0c1.4-.2,2.8-.6,4.2-.9.9-.1,1.8-.2,2.7-.4h0ZM360.7,418.1c.7-3.9-2.9-6-6.1-7.1-2.1-.8-4.2-1.6-6.4-1.8-1.4.1-3.1-.1-4.1.9-1.4,2.6-2.2,5.5-3.5,8.2-2.2,4.6-4.3,9.2-6.5,13.8-2.4,5.1-5.4,10-8.5,14.7-.5.8-1,1.6-1.3,2.5-.1.4-.3.9-.1,1.3,1.2,1.8,3.1,2.9,4.6,4.4,2,1.8,3.6,4,5.6,5.9,1.4,1.1,3.3,1.8,5,1.7.2-.1.4-.1.5-.2h.1c1.9-1,3.2-3,4.4-4.6,1.5-2,2.7-4.2,3.9-6.4-.1-.2-.1-.3-.1-.5h.4c2-4,3.7-8.3,5.5-12.4,2.6-6.9,5.1-13.4,6.6-20.4h0ZM363.4,172.9c-1.1-.3-2.4-.2-3.6,0-.9.1-1.7.3-2.6.5.7.2,1.4.5,2,.8.3.1.6.3.9.4,1.2-.3,2.3-.9,3.3-1.7h0ZM365.5,191c-.1,1.3,0,2.5-.2,3.8-.7.1-1.4.3-2.1.6-.4.1-.8.3-1.1.5l-.1.1h.1c.8.1,1.6.2,2.4.4l-.1.1c-1.4,2-3,3.8-4.8,5.4-.8.7-1.8,1.4-2.4,2.3-.7.1-1.5.2-2.2.2-1.9.1-3.9-.2-5.6-1-.4-.2-.7-.4-1-.6.5-8.6,1.3-17.1,1.8-25.7.6.2,1.1.2,1.7.3h.9c2.2,0,4.5-.3,6.7-.9,5,3,6.6,8.3,6,14.5h0ZM394.2,178.1c.6.1,1.1.2,1.7.3-.9-.4-1.9-.7-2.9-1-.7-.1-1.4-.1-2.2-.1-.5,0-.9,0-1.4.1,1.7.2,3.3.4,4.8.7h0ZM400.7,179c-.2-.1-.3-.3-.5-.4-1.9-1.3-4-2.4-6.3-3.1-1.3-.4-2.7-.3-4.1-.3-1.3.1-2.6.3-3.9.7-.4-.3-.7-.8-.2-1.3,1.4-.5,3-.5,4.4-.8,1.5.6,3.3.5,4.8,1.1,2.7,1,5.3,2.3,7.5,4.1h-1.7ZM402.9,201c-2.8,5.4-6.5,8.8-12.8,8.9-6.2.5-10.6-2.3-13.4-7.8-.5-1-.9-2-1.2-3.1-.1-.8-.2-1.6-.6-2.3.5-3,.8-6.1,1.8-9.1,1.3-3.3,3.3-6.4,6.3-8.4,1-.5,2.1-1,3.2-1.3,1.5.8,3.3,1,4.9,1.3,2.8.5,5.6,1.1,8.5,1.3,1.3,1,2.4,2.3,3,3.9,2.2,5.2,2.7,11.4.3,16.6h0ZM418.6,176.9c0,4.5-.8,8.9-1.2,13.4,0,1-.1,2-.1,3-1.3.3-2.7.6-4,.9-1.9.4-3.8.8-5.6,1.6-.2.1-1.1.5-1.8.9.2-1.1.3-2.2.3-3.3-.1-4.4-.9-9.4-3.8-12.8h.1c1.3,0,2.5-.8,1.6-2.2-.8-1.2-2-1.9-3.2-2.6-3-1.9-8.3-4.5-11.9-3.1-1.8-.3-4.6-.6-5.3,1.6-.3.9-.1,1.6.3,2.2-2.5,1-4.8,2.5-6.4,4.8-2.9,4.1-5.4,9.9-3.7,14.9-1-.8-2.4-1-3.6-1.4-.8-.2-1.7-.3-2.5-.3.9-1.9,1.7-3.8,2.2-5.8,1.1-3.7,1.3-7.5.8-11.3-1.1,2.4-1.5,5.6-2.1,8.4-.4,1.9-.9,3.7-1.6,5.5.5-2.2.4-4.6,0-6.9-.4-1.7-.8-3.5-1.7-5-1-1.4-2.2-2.7-3.6-3.8,1.6-.7,4.4-2,2.8-3.9-2.2-1.8-7.8-.1-10.4.6-.3.1-.6.2-.9.3-1,0-2,.1-3,.4.4-4.8.6-9.7.7-14.5,1.3-.8,2.4-1.9,3.5-3,1.5-1.5,3-3.4,5.3-3.4,2.3-.1,4.1,1,6.2,1.6,1.7.5,3.5.5,5.3.3,7.4-.8,14.3-4.7,21.9-3.8,14.8,1,14.7,7.9,23.3,8.2.7,2.8,1,5.6,1.4,8.5.6,3.4.8,6.6.7,10h0ZM442.6,212c-1.6,1.9-3.7,3.1-6,3.9-1.1.3-2.2.6-3.3.7-.4,0-.7,0-1.1-.1-.4,0-.8-.1-1.2-.1-.6,0-1.3.3-1.8.4.4,1.4,1.9,2.1,3.3,2.1-.7,2.5-1,5.1-1,7.6-.2,3.6-.2,7.2-.2,10.8-.1,3.2.3,6.4.5,9.7.2,4.8.7,9.7,1.7,14.5.8,4.3,1.9,8.5,3.1,12.6.4,1.3.7,2.8,1.6,3.8-.3.3-.5.7-.7,1.1-3.9,9.5-19.9,11.4-28.9,10.6-3.4-.3-6.8-.7-9.9-2.4-2.3-1.2-4.3-2.7-6.2-4.4-.5-.5-1.1-.9-1.5-1.5.6-1.2.6-2.6.7-3.9,0-1.7,0-3.4-.1-5.1v-.6c3.9-.7,7.3-2.9,10.3-5.5,2.9-2.6,5.7-5.5,7.9-8.7,2.6-3.8,5.4-7.7,7-12.1.5-1.2,1.2-2.9.7-4.3.2-.5.3-1,.3-1.6-1.2.5-2.2,1.3-3,2.4-3.8,4.7-8.2,8.9-12.9,12.6-5.6,4.5-12.9,6.3-19.9,6.1-3.9,0-7.8-.8-11.5-2.2-3.1-1.1-5.9-3.1-8.4-5.3-8.5-7.4-13.3-18.4-14.1-29.5-.2-6.4,0-12.7.3-19.1,1.5.8,3.1,1.3,4.9,1.4h1.3c.6,0,1.3,0,1.9-.1-.7,2.8.5,5.3,2.9,6.9,1.5,1.1,3.1,2.3,5,2.4.4,0,.8.1,1.3.1,1.5,0,3-.3,3.8-1.8-.6-.3-1.2-.5-1.9-.5-.4,0-.8,0-1.3.1s-1,.1-1.5.1c-2.1-.2-3.9-1.8-5.4-3.2-1.2-1.4-1.1-3.9.5-5,2.9-2.3,5.3-5.1,7.2-8.2,2,.2,3.9.5,5.8,1.1h.9c-.4,2.3,1.1,4.7,2.2,6.7,2.3,4,6.1,7,10.8,7.5.6,0,1.3.1,1.9.1,2.6,0,5.4-.3,7.8-1.3,2.9-1.5,5.2-3.9,6.9-6.6,1.3-1.9,2.2-4.1,2.7-6.4,3.8,0,7.5-1.2,11.2-1.9.3,0,.5-.1.8-.1.1.3.2.5.4.8-.9,2.6-.8,7,2.6,7.4h.4c3.3,0,5.9-2.8,6.9-5.8,0,.4.1.7.1,1.1,1-2.2,2.6-4.1,4.1-6.1,2.4-2.7,6.5-3.3,9.9-2.8,3.1.4,4.1,3.5,4.7,6.1.9,5.2-1.2,11.1-4.5,15.5h0ZM450.7,284c.3-1.4.3-2.8-1.1-3.6-2.1-1.3-4.2-2.5-6.1-4.1-1.4-1.1-2.8-2.3-4.5-2.8-.1,0-.5-.1-.9-.1.4,1.4,1,2.9.8,4.3.6.9.4,2.2-.1,3.1-1.4,2.5-3.6,4.6-6.1,6-6.2,3.3-13.2,4.7-20.2,4.7-3.9-.1-8-.3-11.8-1.4-2-.6-3.8-1.6-5.5-2.6-2-1.2-4.2-3.1-4.9-5.4l-.2.2c-1.1-1.5-.8-3.4-.8-5.2v-1.1h-.1c-1,.2-1.9.8-2.6,1.6-1,1-1.9,2.1-2.6,3.3-1.1,1.5-2.2,2.9-3.5,4.2-.8.9-1.9,1.4-2.6,2.4-.3.5.1,1.1.2,1.6.2.7.5,1.3.9,1.9,1.7,2.5,4,4.6,6.5,6.3,3.8,2.6,7.7,5.2,12,6.8,8.6,2.9,17.9,3.4,26.7,1.4,5.7-1.1,11.3-2.9,16.2-6.1,4-2.7,6.4-4.9,8.3-9.5.7-1.4,1.2-2.9,2-4.2-.2-.5-.2-1.2,0-1.7h0ZM536.4,406.3c.2-3.8.1-7.7-.1-11.5-.3-5.8-.5-11.7-1.3-17.5-.8-5.6-2.3-11.1-4.1-16.5-2.3-6.1-5.2-12-8.3-17.7-4.9-9.8-11.8-18.6-19.3-26.6-6.2-6.5-12.4-13.1-19.7-18.4-5.9-3.9-12.1-7.5-18.3-10.9-2.8-1.6-5.8-2.9-8.8-4.2-1.3-.5-2.5-1.4-3.9-1.9.5,1.7.1,3.9-1.1,5.2,0,.9-.2,1.9-.5,2.9,2.3,0,4.6,1,6.5,2.3,1.6,1.2,3.5,2.3,4.3,4.2-1.9-.4-3.6-1.8-5.3-2.6-1.5-.7-2.9-1.5-4.2-2.4-.5-.3-1-.7-1.5-1-.5,1.6-1.3,3.1-2.1,4.4.9.1,1.8.4,2.7.8,1.8.9,3.4,2.3,4.9,3.7,1.3,1.3,3,2.5,3.6,4.3-1.2-.4-2.3-1.2-3.3-2s-2-1.6-3-2.3c-1.8-1.1-3.5-2.5-5.3-3.7-.2.3-.4.5-.5.7-5.9,6.2-14.1,9.7-22.5,11.3-3.9.8-7.8,1.4-11.8,1.4-.9,0-1.7,0-2.6-.1-6.7-.4-13.4-1.8-19.3-5-5.6-3.4-13.9-7.7-15.6-14.5-1.6.8-3.1,1.7-4.8,2.3-6.8,2.6-13.2,6-18.9,10.6-6.7,4.8-12.9,10.1-18.7,15.8-1.3,1.4-2.5,2.9-3.7,4.5-.7,1.1-1.5,2.2-2.5,2.9.1,3.7.1,7.4,0,11.2.2,8.3,0,16.7.2,25,.2,3.8,0,7.6.1,11.4,0,3,.5,7.3-1.8,9.5.1.7-.5,1.3-1.2,1.5-.2.1-.5.1-.7.1-.3,0-.7-.1-1-.1-.6-.1-1.3-.3-2-.5,2.6,2.4,4.9,5,7.4,7.6,2.9,3.5,5.8,7,8.7,10.4,0,.1.1.1.1.2,0-.6-.1-1.1-.1-1.7-.1-2-.2-3.9-.1-5.9.1-4.1.3-8.1.6-12.2.2-3.1.8-6.9,2.4-9.3-.1,2.1.3,4.2.1,6.3-.3,4.4-.6,8.8-.7,13.2,0,2.9,0,5.8.2,8.7,0,1,.2,2,0,3-.1.3-.2.6-.3.8,1.1,1.8,2.1,3.6,3.1,5.5.8-1.6,2.7-1.9,4.4-1.9,4.1-.2,8.1,1.4,11.8,3.2,2.1,1.1,3.6,3.1,4,5.4,0,.2,0,.4.1.7h0c2.4.5,4.7,1.4,7,2.3,5.8,2,11.4,4.4,17.3,6,7.1,1.6,14,3.6,21.1,5,10,1.9,20.2,3.3,30.4,2.9,13.2-.6,24.2-5.3,31.8-16.4,3.5-5.6,5.5-12,6.8-18.5,0-.3.1-.7.1-1-.3-.9-.3-1.8-.4-2.7-.3-2-.8-3.9-1.5-5.8-1.5-3.7-3.4-7-5.1-10.6,0-.1-.1-.1-.1-.2.6.4,1.1.9,1.6,1.4,1.9,1.7,4.6,6.4,5.9,10.8,0-1.1-.1-2.2-.2-3.3-.4-3.5-1.4-6.9-2.3-10.2-.4-1.3-.9-2.6-1.4-3.8-.5-1.2-1.1-2.5-1.1-3.9,1.8,1.6,2.5,4.2,3.5,6.3,1.5,4,2.7,8.2,3.1,12.4.2,3-.1,6.1-.3,9.1-.2,2.4-.7,4.8-1.4,7.1-1.3,4.7-3,9.4-5.7,13.5-8.5,12.7-22.1,17.2-36.7,17.2h-1.6c-12.3-.3-24.5-2.4-36.3-5.4-3.4-.9-6.9-1.6-10.4-2.4-4.7-1.3-9.2-3-13.7-4.7-2.5-.9-5.1-1.6-7.5-2.8-1-.5-2-1.2-2.9-1.9,0,1.3-.4,2.5-1.4,3.4-.1,2.6-.9,5.1-1.8,7.5-1.8,5.5-4.2,10.9-6.4,16.2-.8,2.1-1.7,4.2-2.7,6.2.6.1,1.1.4,1.6.7,2,.8,3.9,2.1,5.9,2.9h.4c-.1.2-.3.2-.5.3-1.3.3-2.6.3-3.9,0-1-.2-1.9-.6-2.8-1-.6-.2-1.1-.6-1.6-1-.8,1.4-1.6,2.9-2.4,4.2.4,0,.9.1,1.3.3.8.4,1.5,1,2.3,1.6,1.7,1.2,3.8,2,5.6,3,1.1.6,2,1.4,3.1,2.1.2.1.4.3.6.2h0c0,.1-.3.1-.4.1-3.5-.2-6.8-1.7-9.8-3.5-.9-.5-1.9-.9-2.6-1.7-.3-.3-.5-.7-.7-1.1-.4.6-.8,1.2-1.3,1.9-.8,1-1.4,2.1-2.3,3,.2.1.4.2.6.4,6,4.1,12.3,7.8,18.8,11.1,12.2,6.2,25.3,10.6,38.5,14,9.1,2.6,18.4,3.9,27.8,4.9,3.4.3,6.8.4,10.2.4,5,.1,10,.2,15-.3,7.4-.8,14.9-1.7,22.1-3.6,5.3-1.6,10.4-3.7,15.5-5.9.3-.1.5-.2.8-.3h0s.1,0,.1-.1c1.2-.7,2.4-1.4,3.6-2.2,3.4-2.6,7-4.7,10.1-7.5,2.6-2.5,5-5.3,7.3-8.1,3.7-4.6,7.4-9.3,10.6-14.3,4-6.8,7.2-14.2,9.2-21.8,1.5-7.5,3-15.2,3.3-23h0ZM536.9,376.5c1.3,9.7,1.7,19.5,1.6,29.3-.3,8.7-2,17.3-4.1,25.7-2.5,8.1-5.8,16.2-10.6,23.3-2.4,3.5-5,6.9-7.7,10.2-3.3,4.1-6.7,8.4-10.7,11.8-1.3,1-3,2.1-4.3,3-2.6,1.9-5.2,3.7-8.2,4.8-.2.1-.4.1-.6.2-2.3,1.4-4.8,2.4-7.3,3.5-4.4,1.9-9,3.4-13.7,4.3-8.8,1.6-17.7,2.8-26.7,2.8-1,0-2.1,0-3.1-.1-6.6-.1-13.1-.3-19.6-1.3-9.9-1.2-19.7-3.5-29.3-6.3-10.9-2.9-21.4-6.9-31.4-12-6.1-2.9-12-6.1-17.6-9.9-.9-.5-1.8-1.1-2.5-1.8-.6.4-1.4.7-2.2.7h-.5c-4.7-.4-6.6-3.5-9.5-6.7-1.3-1.3-2.6-2.6-3.9-3.8l-.6-.6-.4.4c-3,2.1-6.5,3.4-10,4.3-3.6.9-7.3,1.9-11,2.4-2.8.3-5.7.5-8.5.5-.9,0-1.8,0-2.7-.1-7.9-.3-14.3-1.3-21.2-5.2-8.9-4.3-17.5-9.6-24.3-16.8-5.1-5.5-9.5-11.6-13.9-17.7-5.5-7.9-10.7-16.2-15.1-24.8-1.6-3.1-3.2-6.2-4.8-9.2-.9-1.7-1.8-3.4-2.5-5.2-5.9,0-11.7.3-17.5.4-2.3.1-4.6,0-6.8,0h-2c-2.6.1-5.6.1-7.2-1.6v.1h0c-.4,0-.8-.2-1.1-.5-1.2-1-1.1-2.6-1.2-4-.1-1.4-.2-2.8-.3-4.1-.1-3.4-.5-7.1.3-10.5v-.3c0-.6.1-1.2.1-1.8-4.3-2.3-7.5-6.8-9-11.4-1-2.5-1.4-5.2-.7-7.8.1-.3.2-.6.4-.9-1.9-2.4-3.5-5.2-4.4-8.1-.9-3-1.3-6.5.4-9.3.2-.4.5-.8.9-1.2-1.4-2.9-2.3-6-2.5-9.3-.3-3.7.6-8.4,4.4-9.9.2-.1,1.2-.4,1.9-.4-.3-1.9-.4-3.7-.2-5.6.3-4.4,2.1-9.8,7.1-10.5.5-.1,1.1-.1,1.6-.1h0c0-1.3,0-2.6-.1-3.9,0-4.4-.4-8.9,0-13.3.2-1.2.4-2.5.7-3.7,0-.1.1-.2.2-.1.1.3.2.7.3,1,1.3-2.2,7.3-2.9,9.2-2.8,9-.1,18,.1,27,.2,17.3-.1,34.6-.5,51.8-.8,10.9-.1,21.7.2,32.6.7,4.7.2,9.4,0,14.1.5,2.7.2,5.5.2,8.2.3,2.4.1,5,.7,6.5,2.6h0c.6.5,1.2,1.1,1.5,1.9s.3,1.6.4,2.4c.2,1.6.1,3.3.2,5,.3,8.6.1,17.1.4,25.7.2,6.8.5,13.7.6,20.5.8-1.3,2.1-2.5,3-3.7,1.9-2.3,4-4.3,6.2-6.3,2.9-2.6,5.8-5.2,8.8-7.6,4.7-3.4,9-7.3,14-10.1,4.1-2.3,8.4-4.2,12.9-5.7.5-.1,2.4-.5,3.6-.4,0-1.7,1.8-2.7,2.7-3.9,1.2-1.3,2.3-2.6,3.3-4,1.7-2.5,4.2-5.5,7.3-4.6,0-1.1-.1-2.3-.2-3.4-.2-3.3-.8-6.6-.7-9.9-2,.3-4,.5-6,.5-1.1,0-2.1,0-3.2-.1-2.3-.1-4.6-.6-6.8-1.2-2.2-.6-4.5-1.4-6.5-2.6-9.4-5.7-16.1-15.5-18.7-26.1-1.4-5.4-1.6-11-1.4-16.5.1-4.1.3-8.2.5-12.3-2-1.6-3.6-3.9-4.7-6.5-1.5-3.6-1.5-7.8-.8-11.6.9-4.4,3.4-8.6,7-11.2.2-.2.5-.3.7-.5.1-1.7.3-3.4.4-5.1.1-.6.1-1.2.1-1.8-.3.1-.7.2-1.1.1-.5.1-1.1.1-1.6.1-.4,0-.9,0-1.3-.1-4-.4-7.6-2.8-10.7-5.3-2.2-1.8-4.7-4.6-3.6-7.7.1-.1.1-.2.2-.4-4.1-2.2-6.4-7.3-6.3-11.9,0-3,1.8-5.7,4.3-7.3-1.7-2.3-2.5-5.1-2.8-7.9-.9-6.5,3.1-12.1,9.7-13,3.9-.8,8-.6,11.6,1.2.9.4,1.8.9,2.7,1.4,0-.1-.1-.2-.1-.3-1-4.5,3.4-8.4,7.5-9.2,3.7-.8,7.3,1,10.7,2.5,1.6-7.7,12.8-10.9,19.2-7.1,2.8,1.7,5.2,4,7.6,6.2.5-1.7,2-3.1,3.7-3.7,4.5-1.4,9.6,1.6,13.8,3.1,1.6.6,3.3,1.3,5,1.5,1.8.2,3.7,0,5.5-.2,3-.3,6-.2,8.1,2.1,2.2,1.8,4,4,5.2,6.6.1.3.2.6.3.8.4-.9,1.1-1.8,1.8-2.5.8-.8,1.8-1.3,2.8-1.6,1.3-.6,3-.5,4.1.5,1.3,1.6,1.1,4.2.3,6.1,1.4.1,2.9.2,4.1.9,3.4,2.1,3,5.6-.9,6.6,1.3,1.3,3.2,2.7,3.4,4.7,0,1.4-1.3,2.4-2.6,2.5,2.2,4.4,2.7,9.2,3.5,13.9,1.1,7.9,1.6,16.1-.5,24-.9,3.8-1.8,7.7-3,11.4-.4,1.1-.7,2.3-1.2,3.3-.2.7-.9,1.4-1.5,1.9.5.7.9,1.4,1.2,2.4,2.2,5.8.7,12.2-2,17.5-1.4,3.1-4,5.5-6.9,7,0,.6,0,1.2-.1,1.8-.3,2.8-1.6,5.4-2.6,8-.9,2-1.3,4.5-3.3,5.7-.1,5,0,10.1.3,15.1.3,6.7,1.3,13.3,2.9,19.9.4,1.7.9,3.3,1.4,5h0c3.4-1.9,6.8,2,9.6,3.8,1.6,1.2,3.6,1.9,4.7,3.5,3.8-.6,7.3,1.8,10.7,3.2,4.9,2.4,9.5,5.3,14.2,8,2.8,1.6,5.6,3.3,8.2,5.2,9.4,7.2,17.4,16,25.2,24.8,2.8,3.3,5.5,6.8,7.9,10.3,3.5,5.3,6.5,11,9.2,16.8,1.9,4,3.8,8,5.3,12.1,1.7,5.6,3,10.9,3.8,16.2Z"/>
    <g>
      <path class="st6" d="M187,337c-.1-1.8-.1-3.5-.1-5.3,0-5.4-.1-10.9-.1-16.3-.1-5.5-.2-10.9-.1-16.4.1-3.6,0-7.2-.1-10.7.1-3.2-.7-9.5,3.2-10.7.6-.2,3.1-.4,2.6.6-.7.2-1.4.5-2,1-2.2,2.7-1.6,6.9-1.8,10.3,0,3.6-.1,7.2-.2,10.8-.1,9,.1,18,.2,27,0,3.6,0,7.2.2,10.7.2,1-.1,2.1,0,3-1.8-.3-1.8-2.5-1.8-4Z"/>
      <path class="st6" d="M192.5,277.4c2.6-1.1,5.4-1.2,8.2-1.5,6.6-.7,13.3-.6,20-.5,2.7,0,5.4.1,8.2,0,5.5.1,11,.3,16.5.1,8.5-.3,17.1-.3,25.5.5,1,.1,2,.1,3,.1h1.6c1,.1,1.7.8,2.3,1.4-2.3.8-4.7.5-7.1.3-11.6-1.3-23.2-.7-34.9-.7-12.2-.2-24.5-.8-36.7.6-1.8.2-3.7.5-5.5.6-1.3.1-2.7,0-3.8.6.7-.7,1.7-1.1,2.7-1.5Z"/>
      <path class="st6" d="M197.8,344.7c-3.8-.3-9.6-.7-9.9-5.6l.1-.1h0l-.1.1v.1c1.3,2,3.6,2.8,5.8,3.3,6.1,1.1,12.3.8,18.4.5,3.4-.2,6.8-.3,10.1-.3,3.3-.1,6.7,0,10,.1,2.7.1,5.4.2,8,.1h18.1c4.8,0,9.6-.1,14.5-.2,2.5,0,5.1-.3,7.6.1.3,0,.5,0,.8-.1.1.4.1.7-.2,1.1-.9,1.1-2.8,1-4.3.9-.5,0-.9-.1-1.3-.1-5.4.1-10.8,0-16.3-.1-4.8-.1-9.5-.1-14.3-.1-4,0-8.1-.1-12.1-.1-5.7-.1-11.4-.3-17.1,0-4.4.2-8.8.5-13.2.5-1.4.1-3,0-4.6-.1Z"/>
      <path class="st6" d="M234.6,319.8c-2.5-.4-5-1.5-7-3-1.4-1.2-2.3-2.8-3-4.4-1.1-2.7-1.4-5.7-1.3-8.7-.1-2.2.1-4.4.5-6.6,0-.1,0-.2.1-.2h0c.5,1.6,1,3.1,1.3,4.7.2,1.9.1,3.8.2,5.7.2,2.6,1,5.3,2.7,7.4,1.7,1.8,4.2,2.8,6.6,3.4,2.1.4,4.1-.6,5.6-2,2.2-1.7,3.3-4.4,3.9-7.1.4-1.7.4-3.5.4-5.2.1-1.9-.4-3.6.2-5.3.1-.2.2-.5.3-.7.5.5.8,1,1,1.7.3,1.6.1,3.2.3,4.8.1,4.7-1.1,9.9-4.8,13-1.7,1.6-3.7,2.6-6,2.6-.5-.1-.7-.1-1-.1Z"/>
      <path class="st6" d="M243.3,298.9c-1.5-.5-2.9-1.4-4.1-2.3-1-.7-1.8-1.6-2.8-2.3-2.6,1.9-5.7,3.3-8.9,3.8-1.6.2-3.3,0-4.9-.2-.3-.5,2.8-1,3.2-1.2,3.1-.7,6.3-1.7,9-3.4.3-.2.7-.5,1.1-.7.8-.3,1.5.3,2.1.7.8.6,1.6,1.3,2.5,1.8,1.7,1.2,3.8,1.8,5.2,3.4-.5.2-1,.4-1.5.4-.4.1-.7,0-.9,0Z"/>
      <path class="st6" d="M221.2,306.7c-1.4-1.8-2.8-5.2.2-6.3,1.5-.3,2.7,1,3.3,2.1-2.2-1.5-4.1-1-2.6,1.9.9,1.8,2.7,3.3,2.7,5.4-1.7-.3-2.7-1.7-3.6-3.1Z"/>
      <path class="st6" d="M246.9,304.7c.5-1.1,1.1-2.3,1-3.5-.7-.2-2.2,1.1-2.1,1.8h0c-.1,0-.1-.2-.2-.3-.3-1.6,1.3-3.8,3-2.9,2,1.2.1,4.8-.5,6.4-.5,1-1.4,1.8-2.4,2.1-.2-1.3.5-2.5,1.2-3.6Z"/>
      <path class="st6" d="M222,301.4h0c-4.2-4.9-.9-11.9,3.1-15.9,4-3.3,9.8-4.2,14.7-2.7,4.4,1.1,7.9,4.8,9.1,9.1.5,1.7.6,3.5.3,5.3-.1.6-.2,1.3-.6,1.8-.3.5-.8.9-1.4,1.1,0-.3-.1-.6-.1-.9-.1-1.9.8-3.8.4-5.7-.8-4.9-4.8-8.6-9.7-9.4-3.7-.7-8,.1-10.9,2.5-2,1.9-3.5,4.3-4.3,6.9-.6,2.4-.7,5-.4,7.4.1.3.1.6.3.7h0c-.2.2-.4,0-.5-.2Z"/>
      <path class="st6" d="M234.2,283.2c-1.2-1.7-1.5-4.5.2-5.9,1.2-1.1,2.9-1.5,4.3-.5-.8.5-2,1.5-2.8,2.2-.6.4-.9,1.1-1.1,1.8-.2.8-.6,1.7-.4,2.5h0c-.2.1-.2,0-.2-.1Z"/>
      <path class="st6" d="M247.1,288.9c-.2-.1-.4-.2-.7-.3,0-.1.1-.1.1-.2.7-1.5,2.1-2,2.8-3.4.7-1.5.3-3.1.1-4.7-.2-.9-.5-1.8-.9-2.6,0,0-.1-.1,0-.2h0v.1c.8.5,1.4,1.2,1.8,2,1.1,2.1,1.8,4.9.4,7.1-.7,1.2-1.6,2.3-3,2.3-.2-.1-.4-.1-.6-.1Z"/>
      <path class="st6" d="M249.1,278.8c-.8-.3-2.1-.5-2.2-1.5.9-.6,1.9.6,2.2,1.5h.2-.2Z"/>
      <path class="st6" d="M234.6,307.6c-.6-.1-1.6-.4-1.9-.9.5.1,1,0,1.5,0,.6-.1,1.2-.1,1.8.1.4.1,0,.6-.2.7-.2.2-.5.2-.8.2-.1-.1-.3-.1-.4-.1Z"/>
      <path class="st6" d="M228.4,306.4c-1.9-1-.5-5,1.6-3.6,1.2,1,.5,3.8-1.1,3.8-.1-.1-.3-.1-.5-.2Z"/>
      <path class="st6" d="M239.3,306.7c-2.1-.2-1.9-4.2.3-3.9.8.2,1.5.9,1.4,1.7-.1.9-.5,2.2-1.5,2.2q-.1,0-.2,0Z"/>
      <path class="st6" d="M227.9,301.5c-.3,0-.6,0-.8-.2h0c.5-.1.9-.2,1.3-.4-.5,0-.9,0-1.4-.1.5-1.1,1.7-2,3-1.8,2.1.2,2.2,1.9.1,2.2-.6.1-1.1.2-1.7.2-.3.1-.4.1-.5.1Z"/>
      <path class="st6" d="M241,301.6c-.8-.1-1.7-.4-2.4-.9,0,0-.4-.2-.3-.3,0,0,.1,0,0,0h0c.2.1.5.1.7.1-.3-.1-.5-.4-.7-.6.3-.8,1.3-.8,2-.8.9.1,2.4.7,2.1,1.8-.2.5-.7.7-1.2.7,0,0-.1,0-.2,0Z"/>
      <path class="st6" d="M234.6,314.8c-1.7-.1-3.2-1.3-3.5-3h.2c1.2,0,2.2.6,3.2,1,1.4.3,3-.1,3.8-1.4-1,.1-1.9.4-2.9.5-1.8.1-3.7-.2-5.3-1.1,0,0,0,.1,0,0-.1-.1,0-.1.1-.1,2,0,4-.2,5.9-.6.9-.2,1.8-.4,2.6-.7.4-.1,1-.4,1.4,0,.4.3.3.9.2,1.3-.5,2.4-2.9,4.1-5.3,4.1-.2,0-.3,0-.4,0Z"/>
      <path class="st6" d="M211.4,342.3c-1.2-2.5.7-5,2-7,1.6-2.1,3.2-4.3,5.5-5.8,3.1-2.3,7.1-3.6,9.7-6.4.6-.9.8-1.9.9-2.9.1-.9.3-1.7.2-2.6v-.1c.2,0,.2.3.3.4.6,1.5,1.4,3.2,1,4.9-.3,1.3-1.2,2.4-2.3,3.1-3.2,2.4-7.1,3.7-10.2,6.4-2,1.9-3.8,4.1-5.1,6.6-.8,1.1-1.1,2.3-2,3.4h0Z"/>
      <path class="st6" d="M255.2,343.7c-.7-1.5-.5-3.2-.8-4.8-.8-4.2-2.9-8-6.8-10.1-6-2.7-11.1-3.1-7.7-11.1v-.1h0c.2,1.2.3,2.5.5,3.7.1.7.2,1.3.5,1.9,1.1,1.5,2.9,2.2,4.6,2.9,4.8,1.6,8.3,5,9.7,9.9.7,2.5,1.8,5.6,0,7.7h0Z"/>
      <path class="st6" d="M196.9,339.6c-.7-2.8-1.6-5.6-1.6-8.5,0-.8.5-1.4,1.1-1.8,1.3-.9,2.7-1.5,4.1-2.2.7-.4,1.4-.9,2.1-1.2,1.5-.7,2.8-.5,3.1,1.3,1,3.8,2.6,7.3,4.1,10.9.7,1.6,1.1,3.3,1.9,4.8h0v-.1c0,.6-1.4-1-1.6-1.1-1.4-1.6-2.3-3.6-3.2-5.5-1.2-2.9-2.5-5.8-3.2-8.9-1.3.5-2.5,1.4-3.7,2-1,.6-2.3,1.1-3.1,1.9-.3,2.1.6,4.2,1,6.3.4,2.1,1.5,4,1.3,6.1-1.4-.9-1.8-2.5-2.3-4Z"/>
      <path class="st6" d="M203.9,325.2c0-1,.2-2.1.4-2.9.2-1.1.6-2.2.8-3.2.1-.7.4-1.5,0-2.2-1.1.9-1.1,2.6-1.8,3.7-.3.5-.7.9-1.2,1.2-.1-.3-.1-.7-.2-1.1,0-.8.2-1.6.6-2.3.3-.8.6-1.6,1.2-2.3.9-1.1,2.5-1,3.1.4.8,2.1-.2,4.4-.7,6.5-.4,1.3-1.1,2.6-1.7,3.9-.1.2-.1.5-.1.7-.6-.9-.4-1.7-.4-2.4Z"/>
      <path class="st6" d="M201.8,321.8c-1.1-2.8-1.5-5.8-2.2-8.7-.3-1.3-.6-2.6-1.3-3.8-.1-.1-.2-.2-.3-.3-.9,2.3-.2,4.8,0,7.2.1.9.3,1.8.1,2.7-.1.3-.2.6-.3.9-.3-.5-.6-.9-.9-1.4-.2-.6-.3-1.3-.4-1.9-.2-2.1-.6-4.2-.3-6.3.2-1,.3-2.3,1.4-2.6,1-.3,1.9.6,2.3,1.4.6,1.1.9,2.3,1.2,3.4.4,1.5.8,3,.9,4.5.2,1.5-.1,3-.3,4.5,0,.1,0,.4.1.4h0c.1.1,0,.1,0,0Z"/>
      <path class="st6" d="M192.4,314.2c-.3-1.6-1.5-6.9,1.3-6.5,2.5.9,3,4.1,3.5,6.4.4,2.2.9,4.4.6,6.6-.7-2.3-1.8-4.4-2.3-6.8-.5-1.6-.8-3.4-2.1-4.6-.4,2.6.6,5,1.1,7.5.4,1.3.7,2.6.3,3.9-1.8-1.7-1.8-4.3-2.4-6.5Z"/>
      <path class="st6" d="M193.4,309.3h0Z"/>
      <path class="st6" d="M189,316.4c-.5-1.7-2.2-5-1.3-6.6,1.3-1.3,3.3,1,4,2.1,1.8,2.9,2.6,6.4,3.2,9.7.1.2-.3-.3-.3-.4-1-1.7-1.9-3.4-2.7-5.2-.8-1.8-1.4-3.6-3-4.8.2,2.2,1.3,4.1,2,6.1.5,1.7,1.6,3.5,1,5.4-1.8-1.5-2-4.2-2.9-6.3Z"/>
      <path class="st6" d="M189.4,320.7c-.7-.7-1.5-1.5-1.4-2.6,1.1.1,1.9,1,2.4,2,.4.8.9,1.8,1.2,2.7-.8-.7-1.5-1.4-2.2-2.1Z"/>
      <path class="st6" d="M192.1,328.2c-2-2.2-4.2-4.5-4.9-7.5,1.4,1.6,3.5,3.4,5,5.2,1.3,1.6,3.3,3,3.3,5.2-1.4-.6-2.4-1.8-3.4-2.9Z"/>
      <path class="st6" d="M187.2,320.8h0Z"/>
      <path class="st6" d="M187.2,320.8h0Z"/>
      <path class="st6" d="M271.5,294c-2.2-.2-4.4-.2-6.6-.2h-3.6c-1.4,0-2.7-.4-4.1-.3h0c-.1-.1.1-.2.2-.3,1.2-.6,2.6-.9,3.9-1.2,4-.5,8-.2,12,.1.7.2,1.4.6,2,1-.9.6-2,.9-3,.9-.2.1-.5.1-.8,0Z"/>
      <path class="st6" d="M268.9,300.5c-3.4-.3-7,.1-10.3-1.1-.1,0-.3-.1-.2-.2,0,0,.1,0,0,0h0c1.4-.1,2.7-.5,4.1-.7,2.7-.3,5.4-.2,8.1.1,1.2,0,2.3.4,3.4,1-1.3.7-2.7.9-4.1.9-.3,0-.6,0-1,0Z"/>
      <path class="st6" d="M263,307.2c-1.5-.1-3.1-.3-4.4-.9,1.7-.2,3.3-.6,5-.7,1.6-.1,3.3-.1,4.9-.1,1.4,0,2.9,0,4.2.8-1.5.8-3.2.8-4.8.8-1.2,0-2.5.1-3.7.1-.5,0-.9,0-1.2,0Z"/>
      <path class="st6" d="M264.8,313.8h-1.4c-1.9-.1-3.7-.6-5.6-1.1,2.1-.5,4.7-.7,7-.6,2,.1,4.1-.1,5.9.8-1.4.8-3,.9-4.6.9-.4,0-.9,0-1.3,0Z"/>
      <path class="st6" d="M257.8,312.7h0Z"/>
      <path class="st6" d="M257.8,312.7h0Z"/>
      <path class="st6" d="M297.1,297.3c-2.6-.1-5.9-.2-7.2-2.8-.5-1.3-.3-2.7-.4-4,0-2.9-.3-6,0-8.9-.5-1-.5-2.4.3-3.3.9-1,2.5-.8,3.8-1.1,2.7-.4,5.3-.4,8-.4,2.9,0,5.9,0,8.7.7,1.8.4,3.5,1.1,3.7,3.1.3,1.4.2,2.5.3,3.8.1,2.2.4,4.4.4,6.6-.1,1.6.1,3.6-1.4,4.6-.8.4-1.8.4-2.7.6-3.7.7-7.4,1.1-11.1,1.1-.8,0-1.6,0-2.4,0h0ZM293.7,279c-.9.2-1.9.1-2.7.5-.2.6-.2,1.2-.4,1.7,1.4,3.7,1,7.7,1.1,11.6,0,2.1,2.7,2.1,4.3,2.3,1.2.1,2.4.1,3.6.1,3.6.1,7-.4,10.5-.9.8-.1,1.6-.2,2.3-.4.3-.5.3-1.1.3-1.7.2-3.1-.5-6.2-.7-9.3-.1-.9,0-2.1-.5-2.9-1.5-.9-3.3-1.1-5-1.3-1.9-.1-3.9-.2-5.9-.2-2.2.1-4.6.2-6.9.5Z"/>
      <path class="st6" d="M304.4,287.1c-.6-.2-1.2-.6-1.7-.9-1-.6-2.1-1.2-2.7-2.2h0c.4.1.8.2,1.1.3,1.3.3,2.6.6,3.8,1.2.6.4,1.1,1,1.1,1.8h-.5c-.3,0-.7-.1-1.1-.2Z"/>
      <path class="st6" d="M300.2,292.4c-1.7-.3-1.1-3.4-1-4.7.2-1.2.3-2.7,1.1-3.7.4-.2.3.3.3.5h0v-.1h0c.2,1.7.6,3.4.7,5.1,1.4-1.2,2.5-2.9,4.4-3-.1,1.3-.8,2.4-1.7,3.1-.7.6-1.3,1.2-2,1.8-.4.4-.9.8-1.5.8q-.2.2-.3.2Z"/>
      <path class="st6" d="M296,320.4c-5.8-.2-5.4-1.8-6-6.8-.3-3.2-.5-6.5.1-9.7,0-.1.2-.2.3-.1,1.4-1.8,4.1-1.2,6.1-1.5,1.8-.1,3.5-.1,5.3-.1s3.6-.1,5.4-.1c1.3-.1,2.6-.2,4-.1.7,0,1.5.1,2,.6.8.7.7,1.9.6,2.8,0,.8-.1,1.6,0,2.4.1,1.8.4,3.5.5,5.3,0,1.8.1,3.8-.5,5.5-.6,1.2-2.4.8-3.5,1-4.1.2-8.1.8-12.1.8-.8,0-1.5,0-2.2,0h0ZM297.9,318.7c4.8,0,9.5-.9,14.3-1,.5-3-.1-5.9-.4-8.8-.1-1.7-.1-3.3-.1-5-2.1-.3-4.2-.1-6.2,0-2.9,0-5.9.2-8.8.2-.8,0-1.5,0-2.3.1-1.3.1-2.6.2-3.9-.2,1.4,3.2,1.3,6.7,1.7,10.1.1,1.3,0,2.7.6,3.9,1.2.8,2.8.7,4.2.7h.3c.1,0,.3,0,.6,0Z"/>
      <path class="st6" d="M299.1,315.8c-1.5-.8-.8-3.2-.7-4.5,0-.2.6-3.6.7-2.4.4,1.6.9,3.2,1.1,4.9,1.1-.6,2.1-1.3,3.1-1.9-1.3-.4-3-.7-3.6-2.2,1.1-.4,2.3-.4,3.3,0,.9.4,2,.6,2.8,1.3.6.7.1,1.6-.7,1.9-1.2.6-2.4,1.3-3.6,2-.6.3-1.3.9-2,.9-.1,0-.3,0-.4,0Z"/>
      <path class="st6" d="M296,344.9c-4.9-.3-4.8-2-5.2-6.3-.3-3.6-.4-7.3.5-10.8.1-.2.1-.4.2-.5h.1c0,.3.1.6.2.9.8-.9,2-1.1,3.1-1.2,1.3-.1,2.6-.3,3.9-.4,4.3-.2,8.7-.8,13,0,2.6.5,2.6,12.1,2,14.4-.2,1.2-.8,2.4-2.1,2.6-1.7.4-3.4.6-5.1.7-3.1.1-6.2.5-9.3.5-.4.2-.8.2-1.3.1h0ZM293,339c.1.9.1,1.9.3,2.8.1.3.1.6.4.8,1.6.7,3.6.6,5.3.5,3-.2,5.7-.3,8.6-.6,1.4-.1,2.9-.3,4.2-.8,1.2-2.9.4-10.3-.5-13.4-2.6-.6-5.4-.3-8-.2-1.7.1-3.5.2-5.2.4-.9.1-1.8.2-2.7.3-1.2.1-2.5.4-3.6-.2,1.2,3.4,1,7,1.2,10.4Z"/>
      <path class="st6" d="M298.7,340c-1.4-1.1-.4-5.5,0-7.1q.1,0,.1.1c.6,1.7,1,3.4,1.3,5.1.9-.4,1.7-.9,2.5-1.3.4-.2.9-.5,1.3-.7-1.4-.5-3.1-.6-4.2-1.8-.3-.3-.5-.7-.8-1.1.4-.2.8-.3,1.2-.4.8-.1,1.7.2,2.4.6,1,.5,2.1.8,3.1,1.2.6.2,1.2.4,1.3,1.1.1,1-1.1,1.4-1.9,1.8-1.2.6-2.4,1.2-3.5,1.9-.7.4-1.4,1-2.2,1,0-.2-.3-.3-.6-.4Z"/>
      <path class="st6" d="M262.9,355.2c.3.1.6.2.8.4-.3.2-.6.3-1,.4-.5.2-1.1.3-1.7.3h-7.4c-3.8-.1-7.5-.1-11.3.1-10.8.4-21.7.3-32.5.6-3.7.1-7.4.6-11.1.6-1.3,0-2.5-.1-3.8-.2-1.5-.2-3.8-.9-3.4-2.8.1-.3.2-1.5.5-2,.1-.2.2-.3.3-.2.1.1.1.2.1.3v.3l-.1-.1c.1.3.1.6.2.9.1.4.2.8.3,1.1h0c2.6,1.8,8.5.9,11.6.8,4-.3,7.9-.3,11.9-.4,6.1,0,12.2-.2,18.2-.4,8.3-.3,16.6-.5,24.9-.2,1.3,0,2.4.1,3.5.5Z"/>
      <path class="st6" d="M265.3,352.8c.7.5,1.2,1.4,1.2,2.3-.1,1-1.1,1.4-2.1,1.4-.4,0-.7-.1-1-.1-.2-.1-.4-.1-.6-.2s-.4-.2-.5-.3l.6-.6c.5-.4,1-.7,1.6-.8-.4-.4-.9-.5-1.4-.6-1.7-.3-3.4-.4-5-.5-5.4-.3-10.8-.5-16.2-.4-12.8.1-25.5.4-38.2.6-3.7-.1-7.5.2-11.1-.8h0c-.1,0-.3-.1-.4-.1h0c-.2,0-.3-.2-.2-.4.3-.3.8-.2,1.2-.3,2-.2,4-.1,6,0,1.3.1,2.6.1,4,.1,10.9-.2,21.8-.5,32.7-.6,8.3-.1,16.6-.5,24.8.3,1.4.1,3.2.1,4.6,1Z"/>
      <path class="st6" d="M196.6,367.4c-1.9-.1-4.1-1-3.5-3.3-.1,0-.2,0-.2-.1.1-.1.2-.2.3-.3.1-.3.2-.9.3-1.1h0c0,.2.1.5.1.7,1.3-.8,2.7-.5,4.1-.7,2.5-.2,5-.2,7.5-.2,6.8-.1,13.6,0,20.4.1h12.7c2.4-.1,4.8-.2,6.7,1.2.7.5.7,1.6.1,2.2-.6.6-1.4.6-2.2.6h-2.7c-5.1.1-10.2.3-15.3.4-4.5,0-9,.1-13.5.3-4.1.1-8.2.3-12.3.3-.8,0-1.6,0-2.5-.1h0ZM197,365.8c1.7.1,3.4.1,5.1,0,13.8-.4,27.5-.9,41.3-1.2-1.5-.5-3.1-.5-4.7-.4h-1.9c-5.2-.1-10.4-.1-15.6-.2-6.7-.2-13.4-.1-20.1.1-1.4.1-2.9.2-4.3.4-.9.1-1.9.3-2.8-.1.3,1.4,2,1.2,3,1.4Z"/>
      <path class="st6" d="M193.6,362.6h0Z"/>
      <path class="st6" d="M178,360.4h0Z"/>
      <path class="st6" d="M177.5,351c-.4-.1-.6-.4-.7-.8-.4-.1-.7-.6-.8-.8-.3-.3-.6-.7-.6-1.2,0-.8,1-1.2,1.5-.7.2-.1.4-.1.6,0,.3-.2.7-.2.9.1.2.3,0,.5.1.8,0,.9.4,2.8-1,2.6Z"/>
      <path class="st6" d="M177.7,351.8c-.4-.5-.2-1.2-.2-1.8,0-.5-.1-1-.1-1.6,0-.3,0-.7.2-.9.4-.4,1.1-.2,1.2.3.1.7-.1,1.4-.2,2.1-.1.6.2,2.5-.9,1.9Z"/>
      <path class="st6" d="M174.7,368.4c-.3-.6-.5-1.2-.7-1.9h0c-.4-.3-.4-.8-.4-1.3,0-.7,0-1.5-.1-2.2-.1-.8-.1-1.7-.2-2.5-.1-.5-.3-1.2.3-1.5.9-.4,1.3.4,1.2,1.2.1.5,0,1.1.1,1.6-.1,1.4.3,2.8.3,4.2h0c0,.2-.1.3-.2.4,0,.7-.1,1.4-.3,2h0Z"/>
      <path class="st6" d="M177.3,366.3c-.6-1.7-.2-3.7.1-5.4.3,1.7.6,3.7-.1,5.4h0Z"/>
    </g>
    <path class="st6" d="M533.9,450.9c-.1-2.4,1.4-4.6,2.1-6.9.9-2.5,1.7-4.8,2.6-7.3,2.2-6.5,4.1-13.2,5.2-20.1.5-3.1.6-6.2,1.1-9.2.2-1.2.5-2.4.7-3.5.1.8.3,1.5.4,2.3,1.1,11-3.7,27.7-8.2,37.7-.6,1.2-1.2,2.4-1.7,3.7-.6,1.2-1.2,2.5-2.2,3.3Z"/>
    <path class="st6" d="M519.9,469.7c.4-2,1.8-3.5,2.9-5.1,2-2.7,4-5.6,6.9-7.4.2-.1.5-.2.6-.1-.2,0-.3.2-.4.4-.8,1.7-1.5,3.4-2.6,4.9-1.2,1.6-2.5,3.1-3.9,4.6-1,1.1-2,2.3-3.5,2.7Z"/>
    <g>
      <path class="st6" d="M303.6,401.9c-1.2-2.1,1.2-4.2,3-4.8.3-.1,1.1-.3.9.3v.1l-.1-.2c-.8,1-1.3,2.2-1.9,3.4-.4.7-1.2,1-1.9,1.2h0Z"/>
      <path class="st6" d="M296.5,412.5c-3.1-2.6,3-7.8,4.3-5.4h0c-.1,0-.3-.1-.5-.1s-.4.2-.5.3c-1.4,1.7-1.6,4-3.3,5.2Z"/>
      <path class="st6" d="M291.5,422.2c-1.1-.4-1.3-1.7-1-2.7.2-1,1.4-3.6,2.7-2.8,0,0,.1,0,.1.1-.2.1-.4.1-.5.3-.3,1.7.1,3.7-1.3,5.1q.1,0,0,0Z"/>
    </g>
    <path class="st6" d="M457.8,176c-.4-1.9.2-3.7.3-5.6.4-3.6.8-7.2.8-10.8,0-1.6-.1-3.1-.2-4.6-.2-4-1.1-7.9-.6-11.9,1.4,3.3,2.1,7.1,2.5,10.7.5,4.6.6,9.3-.2,13.9-.3,1.8-.7,3.7-1.2,5.5-.3,1-.7,2-1.4,2.8Z"/>
    <path class="st6" d="M572.9,263.6c-1.8-.6-2.4-2.2-3.3-3.7-1.4-2.3-2.7-4.7-4.3-6.9-2.4,2.5-4.9,4.9-7.3,7.4-1.5,1.7-3.4,3.7-4.8.6-1.7-3.1-3.4-6.3-6.4-8.3-2.4,1.9-4.2,4.4-6.1,6.8-1.1,1.1-3.2,5-5.1,4-1.1-.9-1.8-2.2-2.6-3.2-1.4-1.8-2.4-3.9-3.9-5.6-3.2,2.8-6,6.2-9.9,7.9v-.1c.8-1.5,1.8-3,2.9-4.3,1.8-1.8,3.6-3.6,5.5-5.3,2.5-2.3,4.3,1.8,5.5,3.5,1.1,1.6,2.3,3.2,3.5,4.8,2.1-2.1,3.7-4.7,5.8-6.9.9-1,1.8-2,2.7-2.8.4-.4.9-.8,1.5-.9,1.3-.2,2.2,1,3,1.7,2.5,2.3,3.9,5.4,5.6,8.2,2.4-2.5,4.8-5.1,7.3-7.6.7-.6,1.2-1.6,2.1-2,1.9-.6,2.9,1.8,3.8,3,.9,1.5,1.9,3,2.8,4.5,1,1.6,2.2,3.2,1.7,5.2h0Z"/>
    <g>
      <path class="st6" d="M224.6,237c-1.6-1.3-1.5-3.4-1.6-5.3-.4-5.6-.6-11.3-.6-16.9s.1-11.7-.1-17.5c-.1-3.1-.1-6.3.7-9.3,0,0,.1-.4.2-.4h0c.2,2,.8,3.9,1,5.9.6,7.7.2,15.4.3,23.1,0,3.7.1,7.5.3,11.2.1,1.9.2,3.8.4,5.7.2,1.3-.2,2.4-.6,3.5h0Z"/>
      <path class="st6" d="M260.9,249.4c-.4-.3-.6-.8-.7-1.2-1.2-2.7-2.2-5.5-3.9-7.9-4.3-.4-8.6-.7-12.9-.6-6,.1-13.5,1.1-18.7-2.7-.1-.1-.3-.3-.3-.4h.1c.2.2.6.2.8.3,1.7.3,3.5.4,5.2.5,3.3.5,6.6.4,9.9.3,2.2-.1,4.5-.1,6.7,0,2,0,3.9.1,5.9.2,1.4.1,2.8,0,4.1.5,1.2.6,1.7,2,2.3,3.1.9,1.7,1.9,3.5,2.5,5.4.9-1.5,1.7-3.2,2.5-4.8.4-1.1.9-2.2,1.7-3,.8-.6,1.8-.6,2.7-.8,1-.1,1.9-.3,2.9-.4,6.3-.8,12.7-.4,19.1-.9,1.3-.1,2.6-.2,3.8-.3.8-.2,1.9-.1,2.5-.8,1.5-2.8,1.6-6,1.7-9.1.1-6-.1-12.1-.3-18.1,0-5.1-.8-10.3-1.2-15.4-.2-2-.9-4,.2-5.8,1.1,1,1.6,2.5,1.7,3.9.2,1.4.4,2.9.5,4.4.4,3.9.8,7.7.9,11.6.2,5,.4,9.9.4,14.9,0,4.4.3,9-1.2,13.2-.5,1.9-1.9,3.2-3.9,3.3-2.7.3-5.4.4-8,.5-5.7.1-11.4-.1-17,.6-1.1.2-2.3.3-3.3.7-.4.8-.8,1.7-1.2,2.5-.6,1.4-1.3,2.8-2.1,4.1-.6.9-1.4,2.6-2.5,2.6-.3-.2-.6-.3-.9-.4Z"/>
      <path class="st6" d="M231.3,186h1.2c3.9,0,7.8-.3,11.7-.3,9.9.1,19.7.5,29.6.8,6,.1,12,.7,18,.4,2-.1,4.3-.5,5.9,1-1.3,1-3,1.1-4.5,1-5.7.3-11.4-.3-17.1-.6-12.3-.4-24.6-1.1-36.9-.8-2.9.1-5.9.2-8.8.2-1.6,0-3.1.1-4.7.2-.7.1-1.4.2-2,.5-.4.3-.7.7-1.1,1.1.1-3.6,5.3-3.5,8.7-3.5Z"/>
      <path class="st6" d="M246.1,225.8c-2-.1-4.3-.4-5.9-1.9-.4-.4-.6-1-.6-1.6-.3-1.9-.3-3.8-.3-5.8,0-3.7-.6-7.4-.3-11.1.1-1.5.4-2.9.5-4.4v-.2c.1-.1.2,0,.2,0,.5-1.1,1.9-1.2,3-1.3,1.5-.1,3-.1,4.5-.1,2,0,4-.1,6-.2,4.8-.2,9.7-.7,14.5-.5,1.7.1,3.3,0,5,0,3.1-.1,6.1-.1,9.1.4,1.4.3,1.8,1.3,1.8,2.5.2,1.9.3,3.9.5,5.8.2,2.5.4,4.9.6,7.4-.1,2.9-.2,5.9-1.2,8.6-.3.8-1,1.5-1.8,1.5-1.4.2-2.8.1-4.2.1h-5.9c-6.3.1-12.6.3-19,.5-1.6.1-3.1.2-4.7.2-.7.1-1.3.1-1.8.1h0ZM262.7,200.7c-3.1.2-6.3.4-9.4.6-4.4.3-8.9.2-13.2.4,1,2.6,1.2,5.3,1.3,8,.3,3.4.4,6.9.4,10.3,0,2.7-.2,3,2.7,3.6,3,.4,6.1.2,9.2,0,9.2-.5,18.5-.7,27.7-.7.6-1.4.6-3,.8-4.6.4-2.9-.1-5.8-.3-8.7-.2-2.9-.3-5.8-.5-8.6-3.5-.6-7.2-.5-10.7-.3h-8Z"/>
      <path class="st6" d="M261,217.5c-3.5-1.2-6.7-3.4-10-5-4.4-2.5-9.6-5.9-11.7-10.7-.1-.2,0-.2.2-.2h-.1c4,2.7,7.5,6,11.6,8.5,2.8,1.7,5.9,3,8.7,4.7.7.3,1.3.7,2,.9,1-.3,1.8-1,2.7-1.6,1.6-1.2,3.1-2.5,4.6-3.8,3.5-3.2,6.9-6.6,10.8-9.3.7-.4,1.6-.5,2.5-.5-.1.5-.3.9-.5,1.4-.4.6-.9,1.1-1.4,1.4-1.5,1.1-2.9,2.4-4.4,3.5-2.7,2-10.9,10.7-14.4,10.7-.3.1-.4.1-.6,0Z"/>
      <path class="st6" d="M243.1,223.6c-.2-2.3,1.5-3.9,2.8-5.5,1.4-1.7,2.8-3.3,4.5-4.7.8-.6,1.6-1.3,2.5-1.6.1,0,.2.2.2.2-.1,0-.1-.1-.2,0-.8,1.2-1.3,2.6-2.1,3.8-.8,1.4-2,2.7-2.9,3.9-1.3,1.6-2.5,3.7-4.8,3.9h0Z"/>
      <path class="st6" d="M281,223.3c-1.4-.6-2.3-1.9-3.4-2.8-1.8-1.8-3.3-3.3-4.9-5.2-.5-.6-.9-1.3-1.4-1.9-.3-.2-1.6-2.9-1.7-2.1-.2-.6.5-.4.8-.3,3,1.3,5,3.8,7.3,6,1.4,1.4,3,2.5,4.2,4.1.5.8.9,1.6,1,2.5h-.4c-.5,0-1-.1-1.5-.3Z"/>
      <path class="st6" d="M111,210.3c-2.9,0-6.2-.8-7.9-3.4-1-1.8-.9-3.9-1.1-5.9-.2-3.8-.4-7.7-.8-11.5-.8-9.9-.5-19.8-.4-29.6.1-3.8-.3-7.7,1.1-11.2,0,0,.2-.5.3-.4h0c.1,2,.5,3.8.5,5.8.1,7,0,14,0,21-.1,6.9.4,13.7,1,20.5.3,3.3.2,6.7,1.1,9.8,2.2,4,7.9,2.6,11.7,2.5,5.3-.3,10.6-.8,15.9-.6,2.2,0,4.7.3,6.3,2.1-1.8.5-3.7.2-5.5.1-2.1,0-4.1,0-6.2.1-5.1.2-10.2.8-15.3.8-.2-.1-.5-.1-.7-.1Z"/>
      <path class="st6" d="M144.2,223.8c-.3-.1-.5-.4-.7-.7-.7-.9-1.3-1.9-1.8-3-1.9-3.6-3.7-7.2-4.8-11.1,0-.1-.3-.8-.1-.6,4,3.3,5.5,8.4,8.1,12.8,2-3.3,4.5-11.7,8.5-12.6,4.4-1,9-1.1,13.4-1h5.4c3.8,0,7.7-.1,11.5.2,1.6,0,3.4-.1,4.8,1-1.1,1-2.5,1.3-3.9,1.2-3.9-.3-7.8-.5-11.7-.3h-3.6c-5.8-.1-15.5-.2-16.8,2.1-1.3,1.8-2.4,3.8-3.4,5.8-.9,1.7-1.6,3.5-2.6,5.3-.3.6-.9,1.2-1.5,1.2-.4-.2-.6-.2-.8-.3Z"/>
      <path class="st6" d="M187.4,208.8h0c.1-.8.3-1.6.6-2.4.7-3.2.6-6.5.8-9.8.4-8,.4-16,.7-23.9.2-6-.3-12,.1-18,.1-1.8.8-3.6.9-5.4l-.1.1h0s0-.1.1-.2c.2-.1.3.4.3.5.8,3.2.6,6.4.7,9.6.4,9.5-.2,19-.4,28.5-.1,4.4-.3,8.7-.5,13-.1,2-.2,3.9-.5,5.8-.2,1-1.1,2.2-2.2,2.2-.2,0-.3,0-.5,0Z"/>
      <path class="st6" d="M102.3,150.5c-.5-.9.3-1.9,1.1-2.3,2.4-1.5,5.3-1.3,8-1.6,6.4-.5,13-1.1,19.5-.9,17.9.2,35.8.3,53.7,1.4,1.7.3,3.8,0,5.1,1.4.5.5.7,1.2.4,1.9-.6-.4-1.4-.4-2.1-.5-2.1-.3-4.3-.3-6.4-.6-10.3-1.1-20.6-1.1-31-1.5-6.6-.3-13.2-.2-19.8-.4-7.5-.2-15.1.7-22.5,1.4-1.6.2-5.7-.2-6,1.7h0Z"/>
      <path class="st6" d="M214.8,148.3c-1.3-1.5-1.2-3.5-1.2-5.4.1-5.7-.3-11.3-.4-17-.1-5.6-.1-11.2-.1-16.7,0-4.1-.4-8.4,1.1-12.3.2-.1.1.2.1.3.6,3.8.7,7.6.7,11.4.1,7.5-.1,15,.2,22.5.1,3.7.2,7.4.3,11.2.2,2.1.5,4.2-.7,6Z"/>
      <path class="st6" d="M252.8,162.5c-1-.2-1.5-1.2-1.9-2.1-.5-.9-1-1.7-1.5-2.6-1.5-2.3-3.1-4.6-5.2-6.4-.9-.8-2-1-3.2-1-1.5-.1-3-.1-4.4-.3-5.3-.6-10.6-.6-15.9-1.4-1.8-.3-3.5-1-5.2-1.5,0,.1.1.2.1.2-1.4-.9,3.6-.8,4-.8,5.3.3,10.5.9,15.8,1.1,2.8.2,5.7,0,8.4.7,1.4.5,2.5,1.4,3.5,2.5,2.5,2.5,4.2,5.6,6.1,8.6,1.1-1.6,1.9-3.5,2.7-5.3.7-1.4,1-3,2.2-4.1,1-.7,2.3-.8,3.5-.9,1.6-.1,3.1-.1,4.7-.2,4.1-.2,8.2-.3,12.3-.6,3.4-.2,6.7-.6,10.1-1,1.7-.2,3.6-.6,5.1.5.1,0,.1.1.2.1l-.1.1c-1.4,1.7-3.8,1.5-5.8,1.8-4.1.4-8.2.8-12.4,1-4.9.3-9.8,0-14.7.3-.8,0-1.5.3-1.8,1.2-.6,1.4-1.2,2.9-1.8,4.2-.9,1.8-2.7,6.5-4.8,5.9Z"/>
      <path class="st6" d="M293.2,148c-.8-1.7-.6-3.5-.5-5.3s.2-3.7.3-5.5c.2-4.3.4-8.5.4-12.7-.1-5.8-.2-11.6-.3-17.5-.1-3-.1-6.1.9-9.1,0-.1.1-.1.1-.1v.2c.8,3.8.8,7.6.9,11.5.2,7.8.5,15.6.1,23.4-.1,3.7-.3,7.5-.5,11.2,0,1.5-.2,3.1-1.4,3.9Z"/>
      <path class="st6" d="M288.6,99.5c-12.2-.9-24.5-1.7-36.8-2-10-.1-19.9.6-29.9.7-2.3.2-4.6-.5-6.9-.5,0,.2.2.5.1.7-.2-.3-.7-.5-.6-.9.9-1.7,5.8-1.4,7.5-1.4,5-.1,10-.2,15-.4,14-.6,27.9.1,41.9,1.1,3.7.2,7.3.3,11,.6,1,.1,2,.5,2.7,1.2-1.1.8-2.6,1.1-4,.9Z"/>
      <path class="st6" d="M293,99.8c-.3-.5-.8-1.1-1-1.6,0-.1.1-.1.2-.1,0,0-.1,0-.1.1.8.1,1.7.5,1.9,1.4,0,.3,0,.5-.1.8-.3-.1-.7-.3-.9-.6Z"/>
      <path class="st6" d="M188.9,251.4c-1.8-3.6-1.1-7.8-.9-11.7.1-1,.1-1.9.2-2.9.2-.9.8-1.8,1.3-2.6.7,1.1,1.2,2.3,1.1,3.6-.1,2.8-.3,5.6-.7,8.3-.2,1.8-.9,3.5-1,5.3q0-.1,0,0c.1,0,.1-.1.1,0,0-.1-.1,0-.1,0Z"/>
      <path class="st6" d="M178.5,251c-.1-.1,0-.1,0,0q0-.1,0,0c.1-.1,0-.2,0-.2-.6-.9-1.6-1.9-2.2-2.7-1.5-1.6-2.5-3.5-3.6-5.4-1-1.9-2.3-3.6-3.1-5.6-.2-.8-.2-1.7-.2-2.6,1,.5,2,1.1,2.6,2,1.1,1.8,2.1,3.7,3.2,5.5,1.6,2.6,3.2,5.2,3.4,8.3,0,.1.1.7-.1.7Z"/>
      <path class="st6" d="M208.7,125.8c-1-1.8-.8-4-.9-6-.2-3.6-.3-7.3-.3-10.9-.1-3.6-.2-7.3.7-10.9.1-.2.1-.6.3-.6h0c-.1.5.1,1,.2,1.5.3,1.7.6,3.5.6,5.3s.1,3.6.1,5.5c.1,3.6.3,7.1.1,10.7-.1,1.8.1,3.8-.8,5.4Z"/>
      <path class="st6" d="M95.8,181.8c-.9-1.7-.7-3.8-.8-5.7-.1-1.8-.3-3.5-.4-5.3-.1-3.3-.3-6.6-.1-9.9.1-1.5.4-3.1.6-4.6h0c1.6,4.8,1.4,10,1.5,15,0,1.8-.1,3.6-.1,5.4-.1,1.7.1,3.5-.7,5.1h0Z"/>
      <path class="st6" d="M96.6,195.7c-1.4-1.9-.7-4.4-.4-6.5h0c.1.1.2.3.3.4.8,1.9,1.3,4.4.1,6.1Z"/>
      <path class="st6" d="M273.5,93.3c-4.2-.2-8.4-.5-12.6-.8-2.5-.1-4.9-.8-7.2-1.4h0c-.3,0-.2-.2,0-.2,2.5-.4,5.1-.4,7.6-.2,3.7.3,7.4.3,11.1.4,1.8.1,3.7.1,5.2,1.3-1.2.8-2.7,1-4.1.9Z"/>
      <path class="st6" d="M286.1,92.9c-1.4-.1-2.8-.5-3.9-1.3,1.6-.3,3.2-.5,4.7-.2.6.1,1.2.5,1.6.8-.6.6-1.5.8-2.4.7Z"/>
      <path class="st6" d="M276.4,248.8c-1.6-.7-2.6-2.2-3.6-3.6-1.4-1.9-2.6-3.9-3.2-6.2-.1-.5-.4-1.1-.2-1.5.2.7.8,1.2,1.2,1.8,1.2,1.4,2.3,2.8,3.2,4.3,1,1.6,2.4,3.2,2.6,5.2Z"/>
      <path class="st6" d="M273,250.3c-1.7-.7-2.7-2.4-3.8-3.8-1.3-1.8-2.3-3.8-2.9-5.9,0-.1,0-.2.1-.2h0c1.2,1.5,2.7,2.8,3.8,4.5,1.1,1.6,2.6,3.3,2.8,5.4Z"/>
      <path class="st6" d="M285.1,251.8c-1.7-.7-2.7-2.2-3.7-3.6-1.5-1.9-2.9-3.7-4.4-5.6-.8-1.1-1.6-2.3-2.3-3.4-.3-.3-.4-.8-.9-1h.2c.7.3,1.4.8,2,1.3,2,1.7,3.6,3.8,5.1,5.9,1.4,2,3.6,3.9,4,6.4Z"/>
      <path class="st6" d="M290.6,250c-1.7-.6-2.8-2-4-3.3-2-2.3-4.1-4.9-5.2-7.7,2.5,2.2,4.8,4.6,6.8,7.2,1.1,1.1,2.1,2.3,2.4,3.8Z"/>
      <path class="st6" d="M296.3,249.2c-1.5-.5-2.6-1.7-3.6-2.8-1.8-1.7-3.4-3.4-4.7-5.3-.4-.6-1.2-1.6-1.2-2.2.6.7,1.4,1.2,2.1,1.8,1.3,1,2.4,2,3.5,3.2,1.4,1.6,3.3,3.1,3.9,5.3Z"/>
      <path class="st6" d="M302.9,247.3c-1.3-.4-2.4-1.2-3.2-2.2-.9-1-1.9-1.9-2.8-2.9-.6-.7-3.1-4-2.7-4.8-.1.1.1.2.1.3.9.9,1.9,1.6,2.9,2.5,1.4,1.1,2.5,2.5,3.7,3.8.9.9,1.6,2,2,3.3Z"/>
      <path class="st6" d="M306.3,243.3c-2.1-.3-3.1-2.2-4.3-3.7-1.3-1.8-2.5-3.7-3.3-5.8,1.8,1.7,3.7,3.5,5.2,5.4.6.8,1.4,1.5,1.9,2.5.2.5.3,1.1.5,1.6Z"/>
      <path class="st6" d="M308.7,237.2c-1.6-.6-2.7-1.8-3.7-3.1-1.6-1.9-3.1-3.9-4.4-5.9,2.5,1.7,4.7,3.5,6.6,5.7.9.8,1.4,2,1.5,3.3Z"/>
      <path class="st6" d="M308.9,229.5c-1.7-.6-2.9-2-4-3.4-1.7-2-3.2-4.3-4.3-6.7,1.7,1.5,3.4,3.1,4.9,4.8,1.4,1.7,3.1,3.2,3.4,5.3Z"/>
      <path class="st6" d="M307.9,220.2c-1.8-.6-2.9-2.1-4-3.6-1.3-1.8-2.6-3.8-3.6-5.7,2.1,1.7,4.1,3.5,5.8,5.6,1,1,1.7,2.3,1.8,3.7Z"/>
      <path class="st6" d="M306.8,211.3c-1.7-.6-2.8-2.1-3.8-3.5s-2.1-2.9-2.9-4.3c1.3,1,2.6,2.1,3.8,3.2,1.3,1.3,2.8,2.6,2.9,4.6Z"/>
      <path class="st6" d="M304.2,204.3c-1.4-1.3-2.5-3-3.6-4.5-.4-.6-.9-1.3-1.1-2,.1.1.3.3.4.4,1.7,1.5,3.5,2.9,5.1,4.6.6.7.8,1.6,1.1,2.4-.6-.1-1.3-.4-1.9-.9Z"/>
      <path class="st6" d="M305.2,197c-1.6-.3-2.8-1.6-3.7-2.9-.9-1.2-1.8-2.4-2.5-3.8,1.2,1,2.4,1.9,3.6,2.9,1.2,1.1,2.3,2.3,2.6,3.8Z"/>
      <path class="st6" d="M264.7,155.8c-2.1-1.3-3.3-3.7-5.4-5h0v-.1c.2-.1.5,0,.7.1,2,.7,4,1.8,5.6,3.3.6.7,1,1.5,1.2,2.4-.7-.1-1.5-.4-2.1-.7Z"/>
      <path class="st6" d="M272.8,156.4c-3-.6-4.6-3.5-6.8-5.4-.2-.1-.4-.5-.6-.4,0-.1.3-.1.3-.1.5.1,1,.3,1.4.5,2.4,1.1,4.9,2.8,5.7,5.4Z"/>
      <path class="st6" d="M281.3,157.2c-2.3-.5-3.9-2.3-5.6-3.7-1.3-1.2-2.8-2.5-3.7-4,2.3,1.3,4.6,2.5,6.6,4.2,1.1.9,2.2,2.1,2.7,3.5Z"/>
      <path class="st6" d="M286.4,157.7c-2.5-.8-4.2-3-5.8-4.9-.6-.8-1.4-1.6-1.7-2.6v-.1c.1.3.5.4.7.6,2.5,1.9,5.8,3.8,6.8,7Z"/>
      <path class="st6" d="M292,157.6c-1.7-.2-3-1.4-4.1-2.6-1.7-1.8-3.6-3.7-4.5-5.9h0c1.5,1.4,3.4,2.6,4.8,4,1.4,1.4,3,2.7,3.8,4.5Z"/>
      <path class="st6" d="M294.8,153.5c-1.6-.2-2.7-1.3-3.6-2.5-.8-1-1.7-2.1-2-3.3,1.8,2,5.1,2.9,5.6,5.8Z"/>
      <path class="st6" d="M296.7,150.8c-.8-.8-1.5-1.9-2-3-.2-.5-.5-1.1-.4-1.7,0,.2.2.4.3.5,1,1.2,2.3,2.1,3.1,3.4.3.5.4,1,.4,1.5-.5-.1-1-.3-1.4-.7Z"/>
      <path class="st6" d="M300.7,147.8c-1.8-.3-2.9-1.7-3.7-3.1-.8-1.3-1.7-2.8-2.1-4.3,1,1.3,2.3,2.4,3.4,3.5,1,1,2.1,2.3,2.4,3.9Z"/>
      <path class="st6" d="M302.7,142.4c-1.2-.6-1.9-1.8-2.9-2.7-1.5-1.8-3-3.6-4-5.8.2.1.4.4.6.5,2.4,2,4.8,4,6.8,6.4.4.6.6,1.3.8,2-.4-.1-.9-.2-1.3-.4Z"/>
      <path class="st6" d="M303.5,136.1c-1.9-.5-2.9-2.1-4-3.5-1.4-1.8-2.7-3.7-3.8-5.8,2,1.7,4,3.4,5.6,5.5.6.7,1.1,1.2,1.5,2,.4.5.6,1.2.7,1.8Z"/>
      <path class="st6" d="M303.8,129.7c-1.8-.3-2.9-1.7-4-3.1s-1.9-2.7-2.7-4.2c-.1-.3-.3-.6-.3-.9.7,1,2,1.8,2.9,2.6,1.7,1.6,3.7,3.2,4.1,5.6Z"/>
      <path class="st6" d="M303.3,121.9c-1.7-.6-2.8-2-3.9-3.4-1.1-1.6-2.6-3.3-3.3-5.1,1.7,1.5,3.6,2.9,5.1,4.6,1.1,1.2,1.9,2.4,2.1,3.9Z"/>
      <path class="st6" d="M301.7,113.2c-1.7-.4-2.8-1.7-3.8-3.1-.8-1.3-1.9-2.6-2.3-4.1,2,2.3,5.4,3.9,6.1,7.2Z"/>
      <path class="st6" d="M302.3,107.7c-2-.5-3.3-2-4.5-3.5-1.2-1.6-2.9-3.2-3.6-5.1,1.4,1.4,3.3,2.6,4.7,4,1.3,1.3,2.9,2.7,3.4,4.6Z"/>
      <path class="st6" d="M155.9,214.8c-1.9,0-2.5-2.2-3.8-3.2-.1,0,0,.1,0,.1-.2-.2.3-.3.4-.2,1.5.5,3.4,1.6,3.4,3.3Z"/>
      <path class="st6" d="M161.9,214.5c-3-.5-4.5-3.6-6.3-5.7h0c1.1.4,2.3,1.2,3.3,1.9,1.3.9,2.6,2.1,3,3.8Z"/>
      <path class="st6" d="M167.3,214.4c-3.2-.8-4.7-4.2-7.1-6.1h0c0-.1.3,0,.3,0,1.3.4,2.4,1.2,3.4,2,1.4,1.1,2.9,2.3,3.4,4.1Z"/>
      <path class="st6" d="M172.8,214.8c-3.2-1-5-4-7.3-6.1h0c1.2.3,2.4,1.2,3.4,1.8,1.7,1.1,3.3,2.4,3.9,4.3Z"/>
      <path class="st6" d="M178.8,215.9c-3.4-1-6.2-4.9-8.3-7.6,2,1.1,3.9,2.5,5.6,4.1,1.1.9,2.2,2,2.7,3.5Z"/>
      <path class="st6" d="M183.7,215c-1.7-.3-2.9-1.5-4-2.7-1.2-1.4-2.5-2.8-3.4-4.4h0c1.3,1.1,2.8,2,4,3.1,1.5,1.1,2.9,2.3,3.4,4Z"/>
      <path class="st6" d="M187.7,214c-1.5-.3-2.6-1.3-3.6-2.4-.8-1-1.6-2-2.2-3.1-.1-.1-.2-.4-.1-.5.4.7,1.2,1.1,1.8,1.6,1.7,1.1,3.7,2.3,4.1,4.4Z"/>
      <path class="st6" d="M192.9,214.1c-2.2-.4-3.6-2.3-5-3.8-.7-.9-1.6-1.8-2-2.7h0c2.5,1.8,5.9,3.2,7,6.5Z"/>
      <path class="st6" d="M195.5,210.2c-1.4-.2-2.4-1.3-3.2-2.5-.7-1-1.4-2-1.8-3.1-.1-.1.1-.1,0-.1h0c1.8,1.8,4.6,3,5,5.7Z"/>
      <path class="st6" d="M198.1,206.2c-1.7-.4-2.8-1.8-3.8-3.1-.9-1.2-1.7-2.4-2.2-3.7-.1-.4-.4-.8-.3-1.3.1.2.2.5.4.7,1.9,2.4,5,4.2,5.9,7.4Z"/>
      <path class="st6" d="M197.6,198c-1.7-.5-2.8-1.9-3.8-3.3-.9-1.2-1.8-2.5-2.5-3.9,0-.1-.1-.2,0-.3,0,.2.2.4.4.5.8.7,1.7,1.4,2.4,2.1,1.5,1.4,3.2,2.8,3.5,4.9Z"/>
      <path class="st6" d="M198.6,192.6c-1.1-.4-2.1-1.1-2.7-2-1.6-2.1-3.1-4.3-4.3-6.6,1.4,1.1,2.7,2.3,4,3.6,1.2,1.5,2.9,2.9,3,5Z"/>
      <path class="st6" d="M198,186.9c-1.6-.6-2.7-2-3.5-3.5-.8-1.3-1.7-2.7-2.2-4.2,1.1,1.1,2.3,2.2,3.3,3.3,1.2,1.2,2.3,2.6,2.4,4.4Z"/>
      <path class="st6" d="M195.3,179.3c-1-1.2-1.8-2.4-2.6-3.7-.3-.7-1-1.4-1-2.2.1.2.3.5.5.6,1.6,1.3,3.1,2.7,4.5,4.3.5.7.8,1.6,1.1,2.5-.9-.3-1.9-.7-2.5-1.5Z"/>
      <path class="st6" d="M197.9,173.7c-2.1-.5-3.2-2.3-4.4-3.9-.5-.9-1.5-1.9-1.2-3,0,.4.4.8.7,1.1,1.8,1.7,4.4,3.2,4.9,5.8Z"/>
      <path class="st6" d="M196.1,166.5c-1-.7-1.8-1.9-2.5-2.9-.3-.5-.7-1.1-.8-1.7h0s0,.1.1.1c1.3,1,2.9,1.9,3.9,3.3.3.5.5,1,.6,1.6-.5,0-.9-.1-1.3-.4Z"/>
      <path class="st6" d="M196.7,159.2c-1.3-.1-2.2-1.1-2.9-2.2-.7-.9-1.4-1.8-1.8-2.9.9.7,1.9,1.3,2.8,2.1.9.8,1.9,1.7,1.9,3Z"/>
      <path class="st6" d="M193.5,151.6c-.4-.3-1-1-1.1-1.4.5.3,1.1.5,1.5.9.2.2.3.4.2.6-.1.1-.3,0-.6-.1Z"/>
      <path class="st6" d="M112.3,211.9c-1.7-1.1-3.1-2.5-4.4-4,0,0-.2-.1-.1-.2h0c1.9.8,4,1.5,5.6,2.9.5.5.9,1.2,1.1,1.8-.8,0-1.6-.1-2.2-.5Z"/>
      <path class="st6" d="M121.5,214.2c-2.9-1-4.6-3.9-7.2-5.3h-.1c.1-.1.3-.1.5-.1,2.5.4,4.7,1.9,6.6,3.5.6.6,1.1,1.4,1.4,2.2-.5,0-.9-.2-1.2-.3h0Z"/>
      <path class="st6" d="M128.3,214.4c-1.7-.3-3.1-1.4-4.2-2.6-1.1-1.2-2.4-2.4-3-3.8,2.4,2,6.1,3.1,7.2,6.4Z"/>
      <path class="st6" d="M131.6,213.9c-1.8-1.6-3.5-3.4-4.8-5.5.9.5,2.3,1.5,3.3,2.3,1.5,1.1,3.2,2.4,3.8,4.3-.8-.2-1.6-.6-2.3-1.1Z"/>
      <path class="st6" d="M136.6,213.5c-1.2-.6-2.1-1.7-3-2.7-.5-.6-1.1-1.3-1.4-1.9h0c1.5,1,3.2,1.9,4.6,3.2.5.5.9,1.1,1.1,1.8-.4,0-.9-.2-1.3-.4Z"/>
      <path class="st6" d="M222.3,152.9c-2.2-.4-3.5-2.5-4.7-4.2-.3-.4-.6-1-1.1-1.2h0c0-.1.2,0,.2,0,.5.1.9.4,1.3.6,1.8,1.2,3.9,2.6,4.3,4.8Z"/>
      <path class="st6" d="M229.1,154c-1.8-.5-3-1.8-4.2-3.1-.9-1-1.7-1.9-2.5-2.9h0c2.7,1.3,5.9,3,6.7,6Z"/>
      <path class="st6" d="M234.8,154.9c-1.7-.4-2.9-1.7-4-3.1-.9-1.2-1.9-2.3-2.4-3.7h0c2.2,2.2,5.6,3.6,6.4,6.8Z"/>
      <path class="st6" d="M241,156.6c-1.3-.5-2.4-1.3-3.3-2.4-1.2-1.5-2.5-3.1-3.4-4.8,2.5,2.1,6,3.9,6.7,7.2Z"/>
      <path class="st6" d="M244.6,154.6c-1.2-.2-2-1.2-2.7-2.2-.6-.9-1.3-1.9-1.6-3,1.6,1.5,4,2.8,4.3,5.2Z"/>
      <path class="st6" d="M232,242.5c-2.3-.4-3.4-2.7-4.5-4.5-.1-.2-.6-1-.2-1h-.1c1.7,1.8,4.6,2.8,4.8,5.5Z"/>
      <path class="st6" d="M239.6,244.4c-1.8-.4-3.1-1.7-4.2-3.1-.9-1-1.8-2.1-2.6-3.2,2.6,1.5,6.1,3.1,6.8,6.3Z"/>
      <path class="st6" d="M248.3,246.8c-1.6-.5-2.8-1.7-3.9-2.9-1.6-1.6-3-3.5-4.4-5.2h0c2.8,1.5,7.6,5.2,8.3,8.1Z"/>
      <path class="st6" d="M250.3,244.4c-1.5-1.5-3-3.2-4.2-4.9h0c2,1.1,4,2.5,5.6,4.1.5.6.8,1.4,1,2.1-.9-.3-1.8-.7-2.4-1.3Z"/>
      <path class="st6" d="M257.1,244.5c-1.5-.3-2.5-1.6-3.4-2.8-.6-.8-1.3-1.7-1.7-2.6,0,0-.2-.3-.1-.3h0c1.7,1.8,4.8,2.9,5.2,5.7Z"/>
      <g>
        <path class="st6" d="M256.1,142.6c-1.1-.1-2.2-1-2.1-2.2-2-.1-3.3-1.9-1.8-3.5-1-1.4-1.7-3-2.7-4.4-.7-.2-1.5-.2-2.3-.3-2.1-.3-4.2-.9-6.1-1.9-3.7-1.9-5.5-4.2-7.4-7.8-1.6-3.3-1.1-7.4.8-10.4,1.6-2.6,4-4.5,6.5-6.2,2.7-1.9,6-3.2,9.3-3.4,4.6-.2,8.5,3,10.8,6.8,1.1,1.8,2.1,3.8,2.3,5.9.3,2.5.4,5.1-.5,7.5-.4.9-1,1.7-1.5,2.6-.2.3-.3.5-.2.9.4,1.3,1,2.4,1.5,3.6,1.7-.4,3.2,1.5,2.3,3,.6.3,1.3.9,1.5,1.6.2.8-.3,1.7-1.1,1.9-.1-.9-.1-2.1-1.2-2.4-.3-.1-.6-.2-.7-.4-.3-.3-.2-.7-.1-1.1.1-.3.4-.5.3-.8,0-.2-.2-.4-.4-.5-.1-.1-.3,0-.4,0-1.5.7-1.8-1.5-2.3-2.5-.5-1.4-1.5-3-.3-4.4,2-2.4,2.2-5.7,1.8-8.7-.4-3.7-3.4-8.3-6.6-10.2-1.8-1.1-4-1.7-6.1-1.4-3.7.6-7,2.4-9.9,4.7-1.4,1.1-2.8,2.4-3.7,3.9-1.9,2.9-2.3,7-.6,10.1.7,1.2,1.4,2.5,2.4,3.6,2.3,2.4,5.4,4,8.7,4.6.7.1,1.3.2,2,.2.7.1,1.4,0,2.1.4.5.3.8.8,1,1.3.6,1,1,2,1.7,3,.3.4.7.8.7,1.3,0,.3,0,.6-.2.8-.2.4-.8.9-.1,1.1.7.3,1.7-.1,2,.7.2.4,0,.8,0,1.2.3.9,1.5,1.1,2.3,1.1.3,0,.6-.1.8-.1-.6.4-1.5.9-2.5.8Z"/>
        <path class="st6" d="M258.9,143c-.6-.1-1.2-.4-1.7-.7,0-.1.1-.1.2-.1,1.3-.1,2.7-.1,4-.6,1.7-.6,2.6-2.2,3.2-3.8.3-.8.6-1.6,1.1-2.3.4.4.6.9.6,1.5-.1,1.3-.8,2.5-1.5,3.6-1.3,1.9-3.7,3.1-5.9,2.4Z"/>
        <path class="st6" d="M254,136.5c-.3,0-.5-.1-.8-.1h0c-.5-.1,2.1-.9,2.2-1,1.4-.5,2.8-1.4,3.9-2.4.8-.7,1.4-1.8,2.5-2.2.1,0,.2-.1.3-.1,0,.2.1.3.1.5,0,1.6-1.9,2.9-3.1,3.8-1.4,1.1-3.2,1.7-5.1,1.5Z"/>
        <path class="st6" d="M255.5,139.6c-.4,0-.8-.1-1.2-.2v.1h0v-.1c0-.1.1-.1.2-.1.6-.2,1.2-.4,1.8-.6,1.5-.6,3.1-1.2,4.4-2.2,1-.6,1.6-1.5,2.4-2.2.3-.2.6-.4.9-.5v.8c-.4,1.6-1.9,2.7-3.2,3.6-1.6.9-3.4,1.6-5.3,1.4Z"/>
        <path class="st6" d="M256.5,135.6c-1.8-1.6-3-3.8-4.2-5.8-1.1-1.9-2.3-3.8-3.6-5.6-1.6,1.7-4.3,1-6-.3-1-.9-1.7-2.1-1.7-3.4-.1-1.9,1.6-3.3,3.4-2.4,1.8.9,3.1,2.6,4.4,4.1.2-.4.4-.8.5-1.3-2.1-1.5-5-4.9-2.9-7.3.9-.9,2.4-.4,3.1.5,1.4,1.7,1.2,4.1,1,6.2.9.5,2.1.7,2.9-.1-.8-2.3-3.4-7.6-.5-9.1,1.7-.7,3.3,1,3.5,2.6.5,2.2-.2,4.8-1.6,6.6.8,2.1,1.4,4.4,2.3,6.5.7,1.5,1.4,2.8,2.2,4.2.5.8.8,1.6.7,2.5-1.2-.4-1.7-1.6-2.2-2.6-.6-1.1-1.2-2.2-1.7-3.3-.9-2-1.5-4.1-2.3-6.2-1.1.8-2.5.7-3.6.1-.2.6-.4,1.1-.7,1.7,1.5,2,2.8,4.1,4.1,6.3,1.3,1.8,2.3,3.9,2.9,6.1h0v-.1s.1.1,0,.1h0ZM246.6,124c.6,0,1.1-.4,1.5-.7-1.1-1.3-3.2-4.2-5-4.1-.9.4-.8,1.8-.4,2.5.8,1.5,2.4,2.3,3.9,2.3h0ZM249.1,119c.2.1.3.3.5.4.6-7.8-5.7-5.5-.5-.4h0ZM254.5,119c.8-1.4,1.2-3.1.9-4.7-.2-.7-.4-1.5-1.1-1.9-.4-.3-1.1-.1-1.2.5-.5,2,.7,4.1,1.4,6.1Z"/>
      </g>
      <g>
        <path class="st6" d="M138.2,203.3c-.9-.5-1.4-1.5-2.1-2.2-1.6-2-3.1-4.1-4.4-6.4-1.3-2.3-2.7-4.6-4.1-6.9-1.4-2.4-2.9-4.7-4.5-7-.8-1.1-1.4-2.3-1.8-3.6,0-.2-.1-.4,0-.6h.1c-.3.1.4.7.5.8.5.6,1,1.2,1.5,1.8,2,2.8,3.8,5.7,5.6,8.7,2.5,3.8,4.4,7.9,7.3,11.4.6.8,1.3,1.6,2,2.4.4.4.7.8,1.3.6,1.8-.5,3.3-1.7,4.9-2.6,1.2-.8,2.5-1.5,3.6-2.3,3.2-2.3,6.3-4.7,9.6-6.7,3.7-2.3,7.4-4.5,10.8-7.2,1-.8,2.1-1.5,3.2-2.2.5-.4,1.1-.8,1.6-1.2.2-.2.2-.4.2-.7-.8-3.3-3.1-6.1-4.9-8.9-1.5-2.1-2.9-4.2-4.5-6.3-2.5-3.1-5.4-5.9-7.8-9.1-1.7.6-3.3,1.7-4.9,2.6-3,1.8-5.9,3.8-8.8,5.9-2.5,1.8-5.1,3.6-7.6,5.6-3,2.2-6,4.3-9.2,6.3h0c-.6.4-1.2.9-1.8,1.4-.5.4-1.2.7-1.9.7.1-.6.5-1.1.8-1.5,1.4-1.2,3-2.3,4.6-3.3,4.4-2.8,8.4-6.1,12.7-9.1,4.2-3.1,8.4-6.2,13-8.6.9-.5,1.8-1.1,2.8-1.3.8-.2,1.4.5,1.8,1.1.6.8,1.3,1.5,1.9,2.2,2.1,2.5,4.3,4.9,6.3,7.6,1.4,2.1,2.9,4.1,4.2,6.2,1.8,2.7,3.7,5.5,4.3,8.7.1,1.6-1.8,2.2-2.8,3-2.2,1.4-4.2,3.1-6.4,4.6-2.7,1.8-5.5,3.5-8.3,5.2-2.5,1.5-4.9,3.3-7.3,5-2.1,1.5-4.3,2.9-6.4,4.3-1.3.7-3.4,2.4-5.1,1.6Z"/>
        <path class="st6" d="M128.2,176c-1.7-.3-3-1.8-3.6-3.4-.6-1.4-1.2-3.3.2-4.5,1.7-1.5,4.2-.8,5.4,1,.3.5.4,1,.4,1.6-1.2-.3-1.9-1.4-3-1.8-.6-.2-1.3,0-1.8.4-.7.8.1,2.4.5,3.2.5.8.9,1.6,1.4,2.4.3.4.6.8,1,1h0c-.2.2-.4.1-.5.1Z"/>
        <path class="st6" d="M136.8,169.7h0c-1.9,0-3.4-1.7-3.9-3.4-.5-1.2-.8-2.8.3-3.8,1.6-1.5,4.1-.3,5.2,1.2.2.4.4.8.4,1.3-.4-.1-.7-.3-1.1-.4-.9-.5-1.6-1.3-2.6-1.4-2.6,0,.2,4.5.9,5.6.2.3.5.6.8.9h0Z"/>
        <path class="st6" d="M144.1,164.8c-1.7-.6-3.2-2.1-3.4-4-.2-1.7-.3-3.8,1.3-4.8,1.3-.7,2.8-.5,4.1.1.7.4,1.3,1.2,1.2,2-.8-.3-1.5-.6-2.3-.9-2.7-.9-3.1,1-2.8,3.3.4,1.5,1.2,3,2,4.3.1.1,0,.1-.1,0Z"/>
        <path class="st6" d="M152.6,159.9c-1.4-.2-2.7-1-3.3-2.4-.6-1.6-.6-3.9,1-4.9,1.2-.9,3-.7,3.8.6.2.4.4.9.3,1.3-.6-.3-1.2-.5-1.8-.9-1.8-.7-2.4,1.3-2,2.8.4,1.4,1.2,2.7,2.3,3.6,0-.1-.2-.1-.3-.1Z"/>
        <path class="st6" d="M147.3,158.6c-.1-.3-.5-.5-.4-.8.1-.4.4,0,.5.2,0,.2,0,.5-.1.6Z"/>
        <path class="st6" d="M130,179.7c2-2.8,5.1-4.3,7.9-6.1,2.9-1.9,5.9-3.8,8.9-5.6,1.9-1.3,3.8-2.6,5.8-3.8.9-.5,1.8-1.3,2.8-1.6.3-.1.7,0,1,0-.2.5-.6,1-1,1.3-2.5,1.5-4.9,3-7.3,4.6-3.9,2.5-7.9,5-11.8,7.5-2.1,1.4-4.1,2.8-6.3,3.7h0s0,.1,0,0Z"/>
        <path class="st6" d="M141,193.2c-.9-.3-1.5-1.1-2.1-1.7-1.2-1.4-2.4-2.8-3.5-4.3-1.6-2.4-4-4.3-4.8-7.2,0,0-.1-.5,0-.4h0c.8,1,1.9,1.8,2.7,2.8,1.2,1.4,2.3,2.9,3.4,4.4,1.1,1.4,2.3,2.8,3.4,4.1.4.4.8.9,1.4,1.1,3.1.2,10.6-5.4,13.3-7.3,2.8-1.9,5.5-3.9,8.3-5.8.4-.3.8-.5,1.1-1,.1-.7-.3-1.3-.5-1.9-.7-1.5-1.6-2.8-2.6-4.1-1.1-1.5-2.2-2.9-3.4-4.4-.8-1.1-2.3-2.2-2.1-3.7,1.2.3,1.9,1.3,2.6,2.2,1.2,1.5,2.5,2.9,3.5,4.5,1.2,1.6,2.2,3.2,3,5,.6,1.2,1.2,2.8-.1,3.7-1.6,1.1-3.2,2.2-4.8,3.3-1.9,1.4-3.9,2.7-5.8,4-2.6,1.9-10,7.4-13,6.7Z"/>
        <path class="st6" d="M133.3,183.2c.3-1.3,3.6-2.9,4.7-3.7,4-2.5,8.1-4.8,12-7.4,1.9-1.2,3.9-2.4,5.8-3.7.7-.5,1.5-.8,2.3-.7-.3.8-.9,1.4-1.6,1.8-2.1,1.4-4.4,2.7-6.5,4.1-2.9,2-6.1,3.7-9.1,5.6-1.5,1-3,2-4.7,2.7-1,.5-2,.8-2.9,1.3q.1,0,0,0,.1,0,0,0,.1,0,0,0,.1,0,0,0h.2c-.1,0-.2.1-.2,0Z"/>
        <path class="st6" d="M147,190.3c-1.1-.3-1.9-1-2.6-2-1.3-1.6-2.5-3.4-3.6-5.1-1.6-2.5-3.7-4.6-4.7-7.5,0-.1-.1-.3.1-.2h0c.9.8,1.9,1.6,2.7,2.5,1.6,2,3,4.2,4.4,6.4.7,1,1.4,1.9,2.1,2.8.6,1,1.6,1.8,1.6,3.1Z"/>
        <path class="st6" d="M142.5,205.7c-.3-.5.3-.7.6-.9,1.9-1.5,3.9-2.9,5.9-4.3,1.9-1.4,3.9-2.8,5.9-4.2.3-.2.7-.6,1-.2.1.2.1.5-.1.6-3,2.2-6,4.3-9,6.5-1.2.9-2.4,1.8-3.7,2.7-.2.1-.4,0-.6-.2Z"/>
        <path class="st6" d="M159.1,194.5c-.6-.6.6-1.1,1-1.5,1.1-.8,2.3-1.5,3.5-2.3.3-.2.8-.7,1.1-.2.1.2.1.5-.1.6-1.4.8-2.7,1.7-4,2.6-.3.2-.6.4-.9.7-.1.2-.4.2-.6.1Z"/>
      </g>
    </g>
    <g>
      <path class="st6" d="M437,85c4.1-3.7,9.8-5.5,14.7-8.3,4.9-2.6,10-4.8,15.2-6.8,9.8-3.7,19.1-8.4,28.9-12.2,1.7-.6,3.3-1.6,5.1-1.4.6,0,1.1.2,1.6.4-.3.5-.6,1.1-1.1,1.5-.5.5-1.2.9-1.9,1.2-2.6.9-5,2-7.5,3.1-3.8,1.5-7.5,3.2-11.2,4.9-6.9,2.9-13.9,5.6-20.7,8.5-7.5,3.3-14.3,8.6-22.9,9.3-.1-.1-.2-.1-.2-.2Z"/>
      <path class="st6" d="M438.2,84.2c-2.7,0-4.6-1.9-6.8-3.1-2.2-1.4-4.5-2.8-6.9-4-10.9-6-21.6-12.2-32.7-17.9-7.9-4-16-7.6-23.7-11.8-1.3-.7-2.6-1.3-3.8-2-1.1-.7-2.5-1.2-3.2-2.3-1-1.6.9-2.8,2.4-3.2,1.6-.5,3.4-1.2,4.9-1.7,3.4-1.2,6.8-2.4,10.3-3.5l7.4-.7c-3.2,1.3-6.8,3-10,4.2-3.9,1.4-7.8,2.9-11.7,4.3,8.3,5,17.6,8.6,26.3,13.2,10,5.1,19.8,10.5,29.6,15.9,5.7,2.8,11.1,5.9,16.7,9,1.4.7,2.4,1.9,2.9,3.2-.6.4-1.2.4-1.7.4Z"/>
      <path class="st6" d="M376.9,37.9c9.9-3.7,41.8-20,48.4-23.5,8.7,4.5,16.4,10.3,24.8,15.2,9.6,5.7,19.3,11.2,29,16.7,5.4,3.3,10.9,6.3,16.4,9.4,1.3.8,3,1.1,4.6,1,0-.5-.2-1-.4-1.4-1.1-2.2-3.9-2.9-6.1-4.1-2.4-1.2-4.8-2.4-7.1-3.8-10.8-6.1-21.8-12-32.4-18.3-7.5-4.5-14.7-9.4-22.3-13.8-1.2-.7-2.5-1.5-3.7-2.2-1.2-.6-2.3-1.5-3.7-1.6-2.1-.1-45.7,23.2-52.3,25.4"/>
      <path class="st6" d="M496.9,56.2c-3.5-1.8-6.8-3.8-10.2-5.6-5.9-3.1-11.7-6.4-17.5-9.7-3.4-2.1-7-4-10.4-6l-.1-.1h5.2c.7.4,1.4.7,2.1,1.1,4.7,2.7,9.6,5.3,14.4,7.9,4.5,2.6,9.3,4.9,13.8,7.5,2.4,1.5,5.9,2.3,6.7,5.1-1.5.3-2.8.3-4-.2Z"/>
      <path class="st6" d="M391.7,84.9c-1.4-2.1-.4-4.4.1-6.5.6-2.5,1.3-5,2.1-7.5.9-3.4,1.8-7,4.3-9.7.2,0,.1.2.1.3h0c.1,4.7-1.2,9.4-2.5,13.9-.5,1.6-.9,3.3-1.3,5-.3,1.7-1,3.5-2.8,4.5Z"/>
      <path class="st6" d="M455.7,102.7c-1.1-2.2.1-4.5.8-6.7.7-2.1,1.4-4.3,2.2-6.4,2.5-6.2,4-13,8.7-18.1h0c-.6,7-3.9,13.5-6.2,20.2-.8,2.1-1.6,4.3-2.4,6.4-.5,1.8-1.3,3.6-3.1,4.6Z"/>
      <path class="st6" d="M433.2,106.4c-8.4-.5-16.8-2.2-24.5-5.2-5.1-2-9.6-5-13.6-8.4-3-2.4-4.7-6-3.1-9.4.1-.2.8-1.8.8-1.2,1.4,6.9,4.7,9.1,10.6,13.2,9.3,6,22.5,8.7,33.9,8.7,4.1-.1,8.3-.5,12.2-1.8,2.2-.6,4.2-1.7,6.5-1.9h.1v.1c.1,2.9-4.3,3.7-6.8,4.4-5.1,1.5-10.7,1.7-16.1,1.5Z"/>
      <path class="st6" d="M490.4,95.2c-1.6-.6-2.1-2.5-1.4-3.9.7-1.3,2.2-1.9,3.6-2.4,1.9-6.1,3.8-12,5.2-18.1,1.1-4,1.6-8.1,1.7-12.3,0-1,.2-2.1-.3-3h-.1c-.1.1-.1.2-.1.2,0-.5.3-.7.8-.4.9.5,1.4,1.5,1.8,2.3,2.1,4.8-.1,10.8-1.2,15.7-1,4-2.2,8.1-3.3,12q0-.1.1-.2c-.5,1.5-.7,3-1.3,4.5.9.6,1.3,1.7,1.1,2.6-.7,2.4-4.1,3.8-6.6,3h0ZM492.1,92.5c.5-.1,1.1-.3,1.4-.7-.5.1-1.1.3-1.4.7Z"/>
      <path class="st6" d="M487.3,115.8c-1.1-.4-.8-1.8-.7-2.6.2-1.3.4-2.5.7-3.8.5-2.2.9-4.4,1.5-6.5-.9,2.1-1.8,4.2-2.6,6.3-.4,1-.6,2.1-1.2,3.1-.4.7-1.6.7-2.2.3-1.3-1.2-.2-3.1.3-4.4,2.3-5.3,4.1-11,7.6-15.7.3-.4.6-.8.9-1.2.2-.1.1.3.1.4.9-.5,2.1.1,2.2,1,.1.5-.1,1-.3,1.5.7,1.5.3,3.3-.2,4.8-.7,2.4-1.3,4.9-1.9,7.3-.6,2.5-1.1,5.1-1.8,7.6-.1.8-.9,2.4-2.4,1.9Z"/>
      <path class="st6" d="M396.9,93.5c-.5,0-.9-.4-.8-.9.2-1,.4-2,.6-3,.6-3.2,1.5-6.2,1.9-9.4,0-.6.6-.9,1.2-.7,1,.4.5,1.5.4,2.2-.2.9-.4,1.9-.5,2.8-.5,2.3-1,4.6-1.5,6.9-.3.7-.1,2.1-1.3,2.1Z"/>
      <path class="st6" d="M401.4,96.3c-.5-.1-.7-.5-.6-.9.8-3.3,1.6-6.6,2.7-9.8.2-1.1,2-.9,1.7.2-1,3.1-1.7,6.2-2.6,9.4-.1.5-.3,1.3-1.2,1.1Z"/>
    </g>
    <g>
      <path class="st6" d="M509.5,212.9c-1.1-.3-1.1-1.6-.8-2.6.2-.9.4-1.9.7-2.8,1-3.1,1.5-6.4,2.7-9.4-.8-1.2,0-2.6.7-3.7.8-1.3,1.7-2.6,2.5-3.9,3.5-5.5,7-11,11.2-16,2.9-3.2,5.6-6.6,8.3-9.9,1.4-1.6,2.8-3,4.4-4.4,1.1-.9,2-2.5,3.6-2.4,1,.1,1.8.9,2.6,1.6,1.8,1.6,3.3,3.5,5.1,5.1,1.1,1,2.1,1.7,3.1,2.7,1.1,1.2-.1,2.7-.9,3.7-3.9,5-8,9.8-11.9,14.9-2.5,3.5-5,7-7.6,10.5-1.9,2.5-3.8,5-6,7.4-.7.8-1.3,1.6-2.2,2.1-.6.3-1.2.5-1.8.5,0-.4.1-.8.2-1.1.3-1,.9-1.7,1.6-2.4,1.1-1.1,2-2.2,2.9-3.4,2.1-2.5,4-5.2,5.9-7.8,3.6-5.2,7.3-10.4,11.5-15.2,2.1-2.6,4.5-5,6.3-7.7-1.4-1.2-2.8-2.2-4.1-3.5-1.6-1.6-3-3.6-4.9-4.9-1.9,1.9-3.8,3.7-5.6,5.7-2.8,3.2-5.5,6.5-8.4,9.7-4,4.6-7.3,9.7-10.7,14.7-1.3,2.1-2.9,4.1-4,6.4,1.7,1.5,3.4,3.1,5,4.6,1.2,1.3,5.2,3.2,3,5.1-2.5,1.9-5.2,3.6-8.1,5-1.1.5-2.2,1.1-3.3,1.5-.3,0-.7,0-1-.1h0ZM513.2,201.1c-.6,3.2-1.5,6.4-2.4,9.5,3.2-1.5,6.3-3.5,9.2-5.4-2.4-1.6-4.5-3.5-6.6-5.5,0,.4-.1.9-.2,1.4Z"/>
      <path class="st6" d="M555.2,170.4c-.4-.1-.8-.3-1.2-.5-.2-.2-.4-.4-.5-.7.8-.3,1.6-1,2.3-1.4-.2-1.3-1.2-2.5-1.8-3.5-1-1.5-2-2.9-3.3-4.1-2-1.6-4.2-3.4-6.7-4-1.4-.2-1.3.7-1.5,1.8,0,.5-.5,1.7.1,1.9-1,.3-2.1-2.9-1.9-3.7.1-1.6,1.7-2.6,3.2-2.5s2.9.9,4.2,1.6c1.8,1.1,3.5,2.3,4.9,3.8,1.6,2,6.3,7.5,4.9,10-.5.9-1.6,1.4-2.7,1.3Z"/>
      <path class="st6" d="M555.3,163c-.3,0-.5-.1-.8-.2.2-1.2,1.1-2,2-2.6,1.2-.8,2.2-1.8,3-3,1-1.6,1.1-3.7.3-5.4-.4-.9-1.1-1.5-2.1-1.6-2.4-.4-4.9.4-7,1.4-1.3.8-2.9,1.3-3.8,2.6l.1.1h.1c-.2,0-.4.1-.5-.2.1-1.7,1.5-3,2.7-4,1.8-1.4,4.1-1.8,6.3-2.1,1.5-.1,3.3,0,4.6,1,2.1,2,2.4,5.4,1.5,8-.7,2.4-3.9,6.2-6.4,6Z"/>
      <path class="st6" d="M518.1,202.2c.2-1.8,1.5-3,2.6-4.2,2.7-3,5.2-6.1,7.7-9.2,4.4-5.5,8.8-11.1,13.5-16.3,2.3-2.5,4.6-5.1,7.3-7.1.1-.1.2-.1.3,0h-.1c-1,1.6-1.7,3.2-3,4.7-1.2,1.4-2.5,2.7-3.7,4-3.7,4-7,8.2-10.4,12.5-3.3,4.1-6.5,8.2-10,12.2-1.1,1.3-2.2,3.2-4.2,3.4Z"/>
      <path class="st6" d="M514.5,199.9c-.1-1.7.9-3.1,1.9-4.4,2-2.8,4-5.6,6.1-8.3,4.2-5.8,8.7-11.3,13.4-16.7,2.2-2.4,4.3-4.9,6.7-7,.6-.6,1.3-1.1,1.9-1.7h.1c.1.1,0,.3-.1.4-.3.6-.6,1.2-.9,1.8-1.3,2.4-3.4,4.3-5.1,6.4-5.4,6.1-10.6,12.5-15.4,19.1-1.9,2.5-3.7,5.1-5.5,7.7-.8,1.2-1.8,2.3-3.1,2.7Z"/>
      <path class="st6" d="M505.2,216.1h0c-.5-1.3.4-2.5,1.3-3.1.6-.4,1.9-1.4,2.6-.9.3.3-.1.6-.2.8-.8,1.4-1.7,3.4-3.7,3.2Z"/>
      <path class="st6" d="M504.8,240.9c-.4-2.5,2.4-3.6,4-5.1.8-.8,1.9-1.8,1.1-3-3.3-5.8-10.4-3.3-13.4-7.6-1.7-2.8.3-5.9,2.7-7.5,1.5-1,3.4-1.2,5.1-1.5-.1-.2-.2-.3-.4-.3.2,0,.4,0,.5.1.5.1.5.6.2,1-2,2-5.5,2.9-6.4,5.8-.2,3.3,4.9,3.1,7.1,4.1,1.5.6,3,1.2,4.3,2.3,2.3,2.1,4.2,4.9,1.7,7.6-.9,1.2-2.2,2.1-3.5,3-.9.6-2,.8-3,1.1Z"/>
    </g>
  </g>
</svg>