<?xml version="1.0" encoding="UTF-8"?>
<svg xmlns="http://www.w3.org/2000/svg" version="1.1" viewBox="0 0 750 500">
  <!-- Generator: Adobe Illustrator 30.1.0, SVG Export Plug-In . SVG Version: 2.1.1 Build 136)  -->
  <defs>
    <style>
      .st0 {
        opacity: .78;
      }

      .st0, .st1, .st2 {
        fill: #f1511b;
      }

      .st3 {
        opacity: .95;
      }

      .st3, .st4 {
        fill: #edc067;
      }

      .st5 {
        opacity: .47;
      }

      .st5, .st6 {
        fill: #00adef;
      }

      .st7, .st8, .st9, .st10 {
        fill: #fff;
      }

      .st11 {
        fill: #ccc;
      }

      .st12 {
        fill: #f45967;
      }

      .st13 {
        fill: #151521;
      }

      .st8, .st14, .st9, .st15 {
        isolation: isolate;
      }

      .st8, .st15 {
        opacity: .46;
      }

      .st16 {
        fill: #999;
        mix-blend-mode: multiply;
        opacity: .3;
      }

      .st9 {
        opacity: .55;
      }

      .st17, .st18 {
        fill: #80cc28;
      }

      .st6 {
        opacity: .87;
      }

      .st18 {
        opacity: .88;
      }

      .st10 {
        opacity: .62;
      }

      .st19 {
        fill: #fbeac6;
      }

      .st1 {
        opacity: .89;
      }

      .st20 {
        fill: #eac06a;
      }
    </style>
  </defs>
  <g class="st14">
    <g id="Layer_1">
      <path class="st7" d="M536.34,73s5.85-19.44-15.73-25.45h-1.64s-8.69,1.5-14.29,9.96c-4.04,6.1-1.81,15.49-1.81,15.49h33.46Z"/>
      <g>
        <path class="st12" d="M580.9,209.75h0s.06,0,0,0h0Z"/>
        <path class="st12" d="M580.25,208.46h0Z"/>
        <path class="st12" d="M593.52,174.56s-.06,0,0,0c-.06,0-.06.06,0,0h0Z"/>
        <path class="st12" d="M579.55,207.18h0s.06,0,0,0h0Z"/>
        <path class="st12" d="M570.08,189.23h0Z"/>
        <path class="st12" d="M570.73,190.52h0s.06,0,0,0h0Z"/>
        <path class="st12" d="M572.13,193.09s-.06,0,0,0h0Z"/>
        <path class="st12" d="M573.47,182.92h0Z"/>
        <path class="st12" d="M569.38,187.95h0Z"/>
        <path class="st12" d="M572.77,194.32s0,.04,0,0t0,0h0Z"/>
        <path class="st12" d="M571.43,191.81h0Z"/>
        <path class="st12" d="M576.16,200.75h0s.06.06,0,0h0Z"/>
        <path class="st12" d="M576.86,202.03h0Z"/>
        <path class="st12" d="M573.47,195.6s0,.04,0,0t0,0h0Z"/>
        <path class="st12" d="M578.91,205.89h0Z"/>
        <path class="st12" d="M578.21,204.61h0Z"/>
        <path class="st12" d="M575.52,199.46h0s0,.04,0,0h0Z"/>
        <path class="st12" d="M574.12,196.89s0,.06,0,0t0,0h0Z"/>
        <path class="st12" d="M574.82,198.18s0,.06,0,0t0,0h0Z"/>
        <path class="st12" d="M582.94,213.55s0,.06,0,0t0,0h0Z"/>
        <path class="st12" d="M584.35,216.47s-.06,0,0,0h0Z"/>
        <path class="st12" d="M583.65,214.84s0,.06,0,0t0,0h0Z"/>
        <path class="st12" d="M585.05,218.05h0Z"/>
        <path class="st12" d="M585.69,219.34h0s.06,0,0,0h0Z"/>
        <path class="st12" d="M586.39,220.62h0Z"/>
        <path class="st12" d="M587.04,221.85s.04.04,0,0t0,0h0Z"/>
      </g>
      <path class="st0" d="M606.79,312.72l-6.2,6.2c-.51.51-.51,1.35,0,1.86l6.2,6.2c.51.51,1.35.51,1.87,0l6.2-6.2c.51-.51.51-1.35,0-1.86l-6.2-6.2c-.51-.51-1.35-.51-1.87,0Z"/>
      <g class="st15">
        <path class="st7" d="M509.44,119.81c.97,0,1.76-.79,1.76-1.76v-9.25c0-.97-.79-1.76-1.76-1.76s-1.75.79-1.75,1.76v9.25c0,.97.79,1.76,1.75,1.76Z"/>
        <path class="st9" d="M619.62,364.26h-333.13c7.14-3.81,13.21-11.86,17.2-22.4,27.47,14.46,58.48,22.11,89.73,22.11,40.52,0,78.97-12.58,110.8-34.99.2.08.41.12.64.12,13.34,0,24.43,9.99,25.78,23.25.09.93.9,1.63,1.84,1.57l.35-.02c.22-.01.42-.03.61-.03,6.07,0,11.74,3.28,14.79,8.56.28.48.77.8,1.33.87.56.06,1.11-.15,1.48-.55,2.16-2.35,5.1-3.64,8.27-3.64.61,0,1.25.06,1.95.18.11.02.22.03.33.02.16.05.33.08.5.08h41.56c1.02,0,1.85-.83,1.85-1.85s-.83-1.85-1.85-1.85h-41.56c-.21,0-.4.04-.59.1-.77-.12-1.49-.18-2.2-.18-3.36,0-6.62,1.19-9.23,3.28-3.76-5.17-9.74-8.34-16.16-8.49-2.05-13.03-12.44-22.96-25.37-24.56,22.83-17.04,42.02-39.25,55.77-65.58.39-.76.22-1.69-.42-2.25-.64-.57-1.58-.62-2.28-.13-6.97,4.86-14.22,9.19-21.69,13v-102.22s0,0,.01,0c15.08,0,27.6,11.3,29.13,26.27.09.92.89,1.61,1.82,1.58.17-.01.33-.02.49-.03.22-.01.42-.03.6-.03,6.89,0,13.32,3.72,16.78,9.71.28.48.77.8,1.32.87.56.06,1.11-.14,1.48-.55,2.46-2.68,5.82-4.15,9.44-4.15.71,0,1.46.07,2.22.2.96.17,1.86-.47,2.03-1.43.17-.95-.47-1.86-1.42-2.03-.97-.17-1.92-.25-2.83-.25-3.8,0-7.48,1.36-10.39,3.77-4.19-5.89-10.99-9.51-18.27-9.63-2.42-15.96-16.08-27.8-32.41-27.8,0,0,0,0-.01,0v-63.76h6.51c.97,0,1.75-.79,1.75-1.76s-.79-1.75-1.75-1.75h-9.34s0,0,0,0v-22.72h5.62c.97,0,1.75-.79,1.75-1.76s-.78-1.75-1.75-1.75h-4.3c.53-2.99,1.01-9.1-2.18-14.9-2.82-5.11-7.8-8.72-14.8-10.76v-9.61c0-.97-.79-1.75-1.76-1.75s-1.75.79-1.75,1.75v9.61c-2.31.57-9.66,2.9-14.73,10.57-3.34,5.06-2.85,11.89-2.38,15.09h-4.66c-.97,0-1.75.79-1.75,1.75s.78,1.76,1.75,1.76h6.26v22.72s0,0,0,0h-9.36c-.97,0-1.75.79-1.75,1.75s.79,1.76,1.75,1.76h6.52v137.77h-141.13c-1.02,0-1.85.83-1.85,1.85v19.82c-11.51-7.59-22.26-16.55-32.05-26.81.16-.17.33-.35.49-.51,4.26-4.26,9.37-7.33,15.16-9.19,6.38,1.68,11.8.83,15.25-2.61,6.98-6.98,3.46-21.43-8-32.9-11.47-11.47-25.92-14.99-32.9-8.01-.1.1-.41.53-.49.65l-.04.07s.06-.05.06-.04c0,.05-.38.57-.52.76-1.64,2.26-2.52,5.07-2.52,8.27,0,1.56.29,3.23.69,4.93-1.48,5.14-3.89,9.71-7.2,13.6-20.09-30.11-30.71-65.18-30.71-101.57s11.36-73.7,32.84-104.54c.49-.7.43-1.64-.13-2.28-.56-.64-1.49-.81-2.25-.42-63.98,33.41-103.73,98.9-103.73,170.91,0,11.76,1.09,23.46,3.21,34.96-2.3-1.73-5.16-2.77-8.25-2.77-.44,0-.88.03-1.34.08-1.31-11.95-11.58-21.37-23.79-21.37s-22.45,9.24-23.77,21.32c-4.5.31-8.52,2.8-10.83,6.63-1.43-.66-2.98-1.01-4.57-1.01-5.49,0-10.05,4.04-10.89,9.3h-14.69c-.97,0-1.75.78-1.75,1.75s.79,1.75,1.75,1.75h16.29c.4,0,.77-.14,1.07-.37h3.79s1.16-9.15,12.17-3.01c1.23-3.24,6.03-10,14.37-7.53,0,0,.43-24.93,24.5-23.89,7.43,2.95,12.81,10.14,13.01,18.54.01.53.26,1.03.69,1.35.42.32.97.43,1.49.3.95-.24,1.75-.35,2.51-.35,5.67,0,10.28,4.61,10.28,10.28,0,.56.26,1.05.67,1.37,3.92,15.55,9.77,30.58,17.44,44.67l-2.96,2.05c-4.7-4.54-10.04-6.96-15.64-6.96h-10.27s-.04,0-.06,0c-17.45.07-31.63,24.37-31.63,54.24,0,9.29,1.37,18.04,3.79,25.69l-9.57,12.89c-1.2,1.55-1.72,2.99-1.54,4.35l1.63,2.71s2.8.81,2.8.81c1.74-.22,3.02-1.61,4.03-2.94l6.59-8.09c3.82,7.56,8.83,13.31,14.53,16.36h-55c-1.02,0-1.85.83-1.85,1.85s.83,1.85,1.85,1.85h489.04c1.02,0,1.85-.83,1.85-1.85s-.83-1.85-1.85-1.85ZM161.56,353.68c-1.11,1.44-1.55,1.55-1.6,1.56-.06-.07-.27-.32-.27-.32,0-.01,0-.03,0-.04,0-.22.17-.76.82-1.6,0,0,5.5-7.41,8.1-10.91.23.6.48,1.19.72,1.78-1.16,1.42-7.76,9.53-7.76,9.53ZM197.49,273.81c5.62,1.44,10.81,7.62,14.12,17.09-.71.71-8.66,8.66-10.89,10.88-.93-1.42-2.02-2.46-3.24-3.05v-24.93ZM192.57,273.81v24.93c-1.23.6-2.33,1.66-3.24,3.04-2.23-2.23-10.17-10.17-10.88-10.88,3.31-9.47,8.5-15.65,14.12-17.09ZM174.96,312.24c0-5.5.71-10.82,1.95-15.91,1.72,1.72,8.55,8.54,10.39,10.38-.36,1.53-.57,3.2-.57,4.96,0,1.32.12,2.59.33,3.79-1.89,1.88-8.85,8.85-10.62,10.62-.93-4.47-1.47-9.1-1.47-13.85ZM192.57,348.06c-4.32-.86-8.42-3.9-11.9-9.04h0s-2.36-6.08-2.86-7.35c.69-.69,8.69-8.69,10.99-10.99.99,1.83,2.28,3.2,3.77,3.93v23.45ZM195.03,322.41c-2.67,0-5.52-4.32-5.52-10.74,0-5.72,2.58-10.74,5.52-10.74,2.61,0,5.51,4.41,5.51,10.74s-2.91,10.74-5.51,10.74ZM209.34,339.11c-3.42,5.06-7.52,8.09-11.85,8.95v-23.45c1.49-.73,2.78-2.11,3.77-3.94,2.31,2.31,10.31,10.31,10.99,11-.34.87-2.91,7.44-2.91,7.44ZM203,315.46c.21-1.2.32-2.46.32-3.78,0-1.72-.19-3.4-.56-4.96,1.84-1.84,8.66-8.66,10.38-10.38,1.24,5.1,1.95,10.42,1.95,15.91,0,4.74-.54,9.37-1.47,13.85-1.77-1.77-8.74-8.74-10.63-10.63ZM214.83,364.26c4.96-2.63,9.47-7.32,13.2-13.83,2.45-4.3,4.43-9.21,5.91-14.53,1.46.18,2.91.26,4.36.23,3.85,13.66,10.84,23.73,19.09,28.13h-42.55ZM264.35,348.06c-4.32-.86-8.42-3.9-11.91-9.04,0-.04-1.37-3.51-2.19-5.58,4.61-2.01,9.07-5.14,13.29-9.32.26.18.53.34.81.48v23.46ZM266.81,322.41c-.47,0-.89-.15-1.27-.36,2.06-2.24,4.05-4.75,5.97-7.5.08-.11.15-.22.23-.33.14-.2.28-.39.41-.6-.52,5.24-3.02,8.8-5.34,8.8ZM281.12,339.11c-3.43,5.06-7.53,8.09-11.85,8.95v-23.45c1.49-.73,2.78-2.11,3.77-3.94,2.31,2.31,10.31,10.31,10.99,11-.34.87-2.91,7.44-2.91,7.44ZM274.78,315.46c.21-1.2.32-2.46.32-3.78l-.22-2.37,4.79-7.75c1.88-1.87,4.22-4.2,5.24-5.22,1.24,5.09,1.95,10.41,1.95,15.91,0,4.73-.54,9.36-1.46,13.85-1.77-1.77-8.74-8.74-10.63-10.63Z"/>
        <path class="st7" d="M313.46,182.38s.07-.1.1-.14c.05-.07.07-.17.13-.25,0,.01-.22.38-.23.39Z"/>
        <polygon class="st7" points="350.35 39.98 348.61 38.23 346.88 39.98 348.61 41.71 350.35 39.98"/>
        <polygon class="st7" points="358.87 39.98 357.11 38.23 355.4 39.98 357.11 41.71 358.87 39.98"/>
        <polygon class="st7" points="367.37 39.98 365.65 38.23 363.9 39.98 365.65 41.71 367.37 39.98"/>
        <polygon class="st7" points="347.4 98.21 349.63 100.44 351.88 98.21 349.63 95.95 347.4 98.21"/>
        <polygon class="st7" points="355.51 98.21 357.72 100.44 359.99 98.21 357.72 95.95 355.51 98.21"/>
        <polygon class="st7" points="368.08 98.21 365.86 95.95 363.61 98.21 365.86 100.44 368.08 98.21"/>
        <path class="st7" d="M342.02,91.82h11.77c.7,0,1.26-.53,1.26-1.23v-29.69c0-2.19-4.59-12.2-5.99-15.2-.2-.46-.63-.73-1.13-.73-.47,0-.9.27-1.13.73-1.4,2.99-6.02,13-6.02,15.2v29.69c0,.7.56,1.23,1.23,1.23Z"/>
        <path class="st7" d="M380.24,213.26c0,2.17.2,4.38.6,6.61,0,.06-.04.12-.04.18,0,.2.05.39.13.57l-.03,10.67h-5.37c-1.02,0-1.85.83-1.85,1.85s.83,1.85,1.85,1.85h6.72c.16.04.32.08.5.08h99.84c.17,0,.34-.03.5-.08h6.72c1.02,0,1.85-.83,1.85-1.85s-.83-1.85-1.85-1.85h-5.37v-10.53c.13-.21.22-.44.22-.7,0-.2-.05-.39-.12-.56.39-2.18.59-4.33.59-6.45,0-23.98-24-43.88-49.11-51.26-.57-.76-1.51-2-1.51-2-.04-.05-.08-.08-.12-.12v-19.52c0-1.02-.83-1.85-1.85-1.85s-1.85.83-1.85,1.85v19.8c-.26.34-.93,1.24-1.39,1.85-25.1,7.38-49.07,27.27-49.07,51.49Z"/>
      </g>
      <path class="st4" d="M560.24,264.15c-25.49,33.37-160.07,94.08-261.74,8.19,0,0,5.91,64.11,4.67,68.13,27.19,12.05,97.64,46.66,195.28-9.58,25.34-16.69,59.94-58.4,61.79-66.74Z"/>
      <path class="st4" d="M300.7,5.22s-76.63,30.28-97.02,139.66c-8.65,41.4,12.25,104.05,23.12,119.69,0,0,38.62-25.81,42.8-28.59-23.25-35.46-54.51-131.66,31.11-230.76Z"/>
      <path class="st13" d="M396.86,43.17c-.91,0-1.65-.75-1.65-1.66v-5.85h-21.14v68.3h18.81c1.86-2.13,2.21-5.27,2.21-7.04,0-.75-.05-1.25-.06-1.31,0-.06,0-.12,0-.18,0-.41.15-.81.43-1.11.31-.35.76-.55,1.24-.55h.6c1.71,0,2.96-.94,2.96-2.24v-42.81c0-5.52-1.2-5.53-3.38-5.54Z"/>
      <path class="st13" d="M506.25,285.47s-26.21,6.03-71.84,6.95v-51.68h71.84v44.73Z"/>
      <rect class="st13" x="519.88" y="73.71" width="14.79" height="25.21"/>
      <path class="st13" d="M537.74,271.86c-10.07,4.82-18.04,7.7-18.04,7.7V98.92h18.04v172.94Z"/>
      <path class="st20" d="M314.22,143.91c-.21,0-.38.04-.56.14l-3.05,1.65.63-3.4c.07-.38-.07-.8-.35-1.05l-2.49-2.38,3.4-.46c.42-.07.77-.32.91-.67l1.51-3.12,1.47,3.12c.18.35.53.59.91.67l3.44.46-2.49,2.35c-.31.28-.42.7-.38,1.09l.63,3.4-3.01-1.65c-.17-.11-.39-.14-.56-.14Z"/>
      <path class="st11" d="M351.44,440.02h49.7c.96,0,1.75-.79,1.75-1.76s-.79-1.75-1.75-1.75h-49.7c-.97,0-1.75.79-1.75,1.75s.78,1.76,1.75,1.76h0Z"/>
      <path class="st11" d="M537.44,396.15h49.7c.96,0,1.75-.79,1.75-1.76s-.79-1.75-1.75-1.75h-49.7c-.97,0-1.75.79-1.75,1.75s.78,1.76,1.75,1.76h0Z"/>
      <path class="st11" d="M503.46,421.48h10.31c.97,0,1.75-.79,1.75-1.76s-.78-1.75-1.75-1.75h-10.31c-.97,0-1.75.79-1.75,1.75s.78,1.76,1.75,1.76h0Z"/>
      <path class="st0" d="M536.34,73s5.85-19.44-15.73-25.45h-1.64s-8.69,1.5-14.29,9.96c-4.04,6.1-1.81,15.49-1.81,15.49h33.46Z"/>
      <path class="st1" d="M520.61,47.55h-1.64s-.49.09-1.3.32c16.27,6.33,11.8,25.13,11.8,25.13h6.87s5.85-19.44-15.73-25.45Z"/>
      <rect class="st2" x="460.06" y="111.27" width="6.1" height="6.1" transform="translate(55.01 361.31) rotate(-45.05)"/>
      <path class="st13" d="M346.15,190.11c-10.58-10.58-24.13-14.15-30.28-8.01-.16.16-.24.38-.39.55l-.38-.38s.03.3.06.83c-2.38,3.11-2.87,7.57-1.54,12.56-1.48,5.29-4.29,11.36-9.67,16.74-13,13.01-62.06,41.37-78.65,52-1.63,1.05-3.18,2.13-4.65,3.22,8.66,9.17,14.47,25.8,14.47,44.84,0,7.62-.94,14.83-2.61,21.35,13.84,2.52,27.97-5.42,39.23-22.96,10.63-16.59,39-65.65,51.99-78.66,5.32-5.32,11.16-8.2,16.21-9.78,5.76,1.7,10.99,1.19,14.2-2.02,6.15-6.15,2.56-19.71-8-30.28Z"/>
      <path class="st8" d="M346.49,212.73c-1.48,1.47-9.1,1.04-16.56-6.41-7.46-7.46-7.88-15.08-6.41-16.56,1.48-1.47,9.1-1.04,16.55,6.42,7.46,7.46,7.89,15.07,6.42,16.55Z"/>
      <path class="st11" d="M295.76,275.42c5.86,9.6,9.31,22.8,9.31,37.04,0,26.77-11.64,48.53-26.25,50.24,4-2.78,7.64-6.86,10.68-12.27,5.82-10.16,9.01-23.66,9.01-37.97,0-11.5-2.11-22.4-6.05-31.74.52-.81,1.93-3.04,3.3-5.3Z"/>
      <path class="st11" d="M207.07,262.26c14.57,1.67,26.21,23.43,26.21,50.2s-11.75,48.83-26.47,50.28c11.64-8.05,19.91-27.51,19.91-50.28,0-14.31-3.19-27.77-8.97-37.97-3.08-5.38-6.71-9.49-10.68-12.23Z"/>
      <path class="st18" d="M389.89,33.82c.47-1.72.75-3.52.75-5.42,0-11.43-9.28-20.7-20.71-20.7s-20.71,9.27-20.71,20.7c0,1.89.27,3.69.75,5.42h39.93Z"/>
      <path class="st17" d="M369.92,7.7c-.87,0-1.73.07-2.57.18,7.96,1.27,14.14,9.96,14.14,20.52,0,1.89-.21,3.69-.58,5.42h8.98c.47-1.72.75-3.52.75-5.42,0-11.43-9.28-20.7-20.71-20.7Z"/>
      <path class="st18" d="M392.34,105.99h-44.84s-.61,6.43,1.79,6.43h.63c-.44,1.67-.7,3.41-.7,5.21,0,11.43,9.26,20.71,20.71,20.71s20.71-9.28,20.71-20.71c0-1.81-.27-3.55-.7-5.21h.86c2.4,0,1.55-6.43,1.55-6.43Z"/>
      <path class="st17" d="M392.34,105.99h-8.49s.69,6.43-1.25,6.43h-.7c.35,1.67.57,3.41.57,5.21,0,10.64-6.52,19.4-14.89,20.57.77.09,1.56.14,2.35.14,11.43,0,20.71-9.28,20.71-20.71,0-1.81-.27-3.55-.7-5.21h.86c2.4,0,1.55-6.43,1.55-6.43Z"/>
      <path class="st19" d="M391.96,49.23c2.39,5.32,4.59,10.64,4.59,11.67v28.43h-9.24v-28.43c0-1.03,2.23-6.35,4.65-11.67Z"/>
      <path class="st3" d="M391.96,49.23c-.47,1.02-.92,2.04-1.36,3.03,1,4.17,1.79,7.81,1.79,8.64v28.43h4.16v-28.43c0-1.03-2.19-6.35-4.59-11.67Z"/>
      <path class="st19" d="M361.54,60.9c.17-1.17,4.36-7.18,8.44-12.6,4.02,5.42,8.14,11.44,8.35,12.63v28.39h-16.79v-28.43Z"/>
      <path class="st3" d="M369.99,48.3c-.6.79-1.19,1.59-1.78,2.39,2.21,4.68,4.19,9.22,4.31,10.24v28.39h5.82v-28.39c-.2-1.2-4.32-7.21-8.35-12.63Z"/>
      <path class="st19" d="M343.29,89.32v-28.43c0-1.03,2.23-6.35,4.65-11.67,2.39,5.32,4.59,10.64,4.62,11.67v28.43h-9.28Z"/>
      <path class="st3" d="M347.94,49.23c-.37.8-.72,1.6-1.07,2.39,1.22,4.44,2.21,8.41,2.23,9.28v28.43h3.46v-28.43c-.03-1.03-2.23-6.35-4.62-11.67Z"/>
      <path class="st5" d="M432.05,161.15c-.73.66-1.26,1.5-1.63,2.2-26.33,7.52-52.84,30.1-47.67,56.7v13.16h99.84v-13.16c5.16-26.61-21.36-49.18-47.68-56.7-.38-.7-.91-1.54-1.63-2.2h-1.22Z"/>
      <path class="st6" d="M434.91,163.35c-.38-.7-.91-1.54-1.63-2.2h-1.22c-.73.66-1.26,1.5-1.63,2.2-.38.11-.76.25-1.13.36,22.7,7.84,45.17,30.12,40.72,56.34v13.16h12.59v-13.16c5.16-26.61-21.36-49.18-47.68-56.7Z"/>
      <path class="st8" d="M121.49,221.4h5.29s1.16-9.15,12.17-3.01c1.23-3.24,6.03-10,14.37-7.53,0,0,.46-27.81,28.74-23.48,0,0-23.33-12.36-32.91,14.06l-1.39,2.93s-8.5,2.47-10.66,6.95c-1.85.77-5.41.16-5.41.16,0,0-8.96-.27-10.2,9.92Z"/>
      <path class="st16" d="M323.74,232.2c5.1-5.09,11.68-9.6,16.59-11.22-3.86-.54-8.28-2.6-10.89-5.95-11.43,8.96-19.46,15.45-29.97,29.35-9.2,12.17-38.64,52.28-64.49,63.95.06,1.38.16,2.73.16,4.14,0,7.62-.94,14.83-2.61,21.35,13.84,2.52,27.97-5.42,39.23-22.96,10.63-16.59,39-65.65,51.99-78.66Z"/>
      <path class="st4" d="M139.95,261.88c-.29.62-1.21,1.28-1.89,1.38,0,0-4.82.62-4.82.62-1.5.19-1.95,1.12-2.08,1.5-.12.38-.3,1.4.8,2.43,0,0,3.53,3.34,3.53,3.34.5.47.85,1.55.72,2.22,0,0-.89,4.78-.89,4.78-.28,1.48.45,2.2.78,2.44.33.24,1.23.72,2.56-.01l4.27-2.32c.6-.33,1.74-.33,2.34,0,0,0,4.26,2.32,4.26,2.32,1.33.73,2.23.25,2.56.01.33-.24,1.06-.96.78-2.44l-.89-4.78c-.13-.67.22-1.75.72-2.22,0,0,3.53-3.34,3.53-3.34,1.1-1.04.92-2.05.8-2.43s-.58-1.31-2.08-1.5l-4.82-.62c-.68-.09-1.6-.76-1.89-1.38,0,0-2.09-4.39-2.09-4.39-.66-1.37-1.67-1.52-2.07-1.52s-1.42.15-2.06,1.51c0,0-2.09,4.4-2.09,4.4Z"/>
      <g class="st15">
        <path class="st7" d="M533.61,74.94v22.92h0c0,.97.78,1.75,1.75,1.75s1.75-.78,1.75-1.75h0v-22.92h0c0-.97-.78-1.76-1.75-1.76s-1.75.79-1.75,1.76h0Z"/>
        <g>
          <path class="st7" d="M318.85,148.96l-4.63-2.52-4.63,2.52c-.21.07-.38.14-.59.14-.25,0-.49-.11-.67-.25-.39-.25-.56-.7-.49-1.16l.95-5.19-3.82-3.64c-.32-.32-.42-.81-.32-1.23.17-.42.53-.73.98-.8l5.22-.7,2.28-4.77c.42-.81,1.75-.81,2.14,0l2.27,4.77,5.27.7c.42.07.8.38.94.8.14.42.03.91-.31,1.23l-3.82,3.64.99,5.19c.06.46-.11.91-.49,1.16-.35.28-.84.31-1.26.1ZM310.61,145.7l3.05-1.65c.17-.11.35-.14.56-.14.18,0,.39.04.56.14l3.01,1.65-.63-3.4c-.04-.38.07-.8.38-1.09l2.49-2.35-3.44-.46c-.39-.07-.74-.32-.91-.67l-1.47-3.12-1.51,3.12c-.14.35-.49.59-.91.67l-3.4.46,2.49,2.38c.28.25.42.67.35,1.05l-.63,3.4Z"/>
          <path class="st10" d="M562.3,318.57c-.21,0-.38.04-.56.14l-3.05,1.65.63-3.4c.07-.38-.07-.8-.35-1.05l-2.49-2.38,3.4-.46c.42-.07.77-.32.91-.67l1.51-3.12,1.47,3.12c.18.35.53.59.91.67l3.44.46-2.49,2.35c-.31.28-.42.7-.38,1.09l.63,3.4-3.01-1.65c-.17-.11-.39-.14-.56-.14Z"/>
          <path class="st7" d="M566.93,323.62l-4.63-2.52-4.63,2.52c-.21.07-.38.14-.59.14-.25,0-.49-.11-.67-.25-.39-.25-.56-.7-.49-1.16l.95-5.19-3.82-3.64c-.32-.32-.42-.81-.32-1.23.17-.42.53-.73.98-.8l5.22-.7,2.28-4.77c.42-.81,1.75-.81,2.14,0l2.27,4.77,5.27.7c.42.07.8.38.94.8.14.42.03.91-.31,1.23l-3.82,3.64.99,5.19c.06.46-.11.91-.49,1.16-.35.28-.84.31-1.26.1ZM558.69,320.35l3.05-1.65c.17-.11.35-.14.56-.14.18,0,.39.04.56.14l3.01,1.65-.63-3.4c-.04-.38.07-.8.38-1.09l2.49-2.35-3.44-.46c-.39-.07-.74-.32-.91-.67l-1.47-3.12-1.51,3.12c-.14.35-.49.59-.91.67l-3.4.46,2.49,2.38c.28.25.42.67.35,1.05l-.63,3.4Z"/>
          <path class="st7" d="M505.95,97.87v-22.92h0c0-.97-.79-1.76-1.76-1.76s-1.75.79-1.75,1.76h0v22.92h0c0,.97.79,1.75,1.75,1.75s1.76-.78,1.76-1.75h0Z"/>
          <path class="st7" d="M503.1,239.28V99.62c0,.97-.79,1.76-1.76,1.76h36.83c-.97,0-1.75-.79-1.75-1.76v174.03s.78-.84,1.75-.84,1.76-.79,1.76-1.75h0V99.62c0-.97-.79-1.75-1.76-1.75h-36.83c-.97,0-1.75.79-1.75,1.75v139.65h0c0,.97.79,1.76,1.75,1.76s1.76-.79,1.76-1.76h0Z"/>
          <path class="st7" d="M511.19,118.06v-9.25h0c0-.97-.79-1.76-1.76-1.76s-1.75.79-1.75,1.76h0v9.25h0c0,.97.79,1.76,1.75,1.76s1.76-.79,1.76-1.76h0Z"/>
          <path class="st7" d="M521.64,118.06v-9.25h0c0-.97-.78-1.76-1.75-1.76s-1.75.79-1.75,1.76h0v9.25h0c0,.97.78,1.76,1.75,1.76s1.75-.79,1.75-1.76h0Z"/>
          <path class="st7" d="M521.64,91.31v-9.25h0c0-.97-.78-1.75-1.75-1.75s-1.75.78-1.75,1.75h0v9.25h0c0,.97.78,1.75,1.75,1.75s1.75-.79,1.75-1.75h0Z"/>
          <path class="st7" d="M532.09,118.06v-9.25h0c0-.97-.79-1.76-1.76-1.76s-1.75.79-1.75,1.76h0v9.25h0c0,.97.79,1.76,1.75,1.76s1.76-.79,1.76-1.76h0Z"/>
          <path class="st7" d="M530.04,177.03h7.31c.97,0,1.75-.78,1.75-1.75s-.79-1.75-1.75-1.75h-7.31c-.97,0-1.75.78-1.75,1.75s.78,1.75,1.75,1.75h0Z"/>
          <path class="st7" d="M530.04,185.8h7.31c.97,0,1.75-.79,1.75-1.76s-.79-1.75-1.75-1.75h-7.31c-.97,0-1.75.79-1.75,1.75s.78,1.76,1.75,1.76h0Z"/>
          <path class="st7" d="M530.04,194.57h7.31c.97,0,1.75-.79,1.75-1.76s-.79-1.75-1.75-1.75h-7.31c-.97,0-1.75.79-1.75,1.75s.78,1.76,1.75,1.76h0Z"/>
          <path class="st7" d="M530.04,203.34h7.31c.97,0,1.75-.78,1.75-1.75s-.79-1.75-1.75-1.75h-7.31c-.97,0-1.75.78-1.75,1.75s.78,1.75,1.75,1.75h0Z"/>
          <path class="st7" d="M325.64,430.75h17.72c.97,0,1.75-.79,1.75-1.76s-.79-1.75-1.75-1.75h-17.72c-.97,0-1.75.79-1.75,1.75s.78,1.76,1.75,1.76h0Z"/>
          <path class="st7" d="M148.61,415.08h25.17c.97,0,1.75-.79,1.75-1.76s-.79-1.75-1.75-1.75h-25.17c-.97,0-1.75.79-1.75,1.75s.78,1.76,1.75,1.76h0Z"/>
          <path class="st7" d="M500.68,407.89h28.38c.97,0,1.75-.79,1.75-1.76s-.79-1.75-1.75-1.75h-28.38c-.97,0-1.75.79-1.75,1.75s.78,1.76,1.75,1.76h0Z"/>
          <path class="st7" d="M305.71,386.26h10.31c.97,0,1.75-.79,1.75-1.76s-.79-1.75-1.75-1.75h-10.31c-.97,0-1.75.79-1.75,1.75s.78,1.76,1.75,1.76h0Z"/>
          <path class="st7" d="M288.72,408.51h133.13c.97,0,1.75-.79,1.75-1.76s-.79-1.75-1.75-1.75h-133.13c-.97,0-1.75.79-1.75,1.75s.78,1.76,1.75,1.76h0Z"/>
          <path class="st7" d="M387.9,383.64h133.13c.96,0,1.75-.79,1.75-1.76s-.79-1.75-1.75-1.75h-133.13c-.97,0-1.75.79-1.75,1.75s.78,1.76,1.75,1.76h0Z"/>
          <path class="st7" d="M588.58,380.13h27.76c.96,0,1.75-.79,1.75-1.76s-.79-1.75-1.75-1.75h-27.76c-.97,0-1.75.79-1.75,1.75s.78,1.76,1.75,1.76h0Z"/>
          <path class="st7" d="M594.25,238.33h49.7c.97,0,1.75-.78,1.75-1.75s-.78-1.75-1.75-1.75h-49.7c-.97,0-1.75.78-1.75,1.75s.78,1.75,1.75,1.75h0Z"/>
          <path class="st7" d="M620.88,255.72h23.49c.97,0,1.75-.79,1.75-1.76s-.79-1.75-1.75-1.75h-23.49c-.97,0-1.75.79-1.75,1.75s.79,1.76,1.75,1.76h0Z"/>
          <path class="st7" d="M538.02,73.51c.11-.35,2.59-8.87-1.76-16.77-2.87-5.21-7.97-8.86-15.17-10.87-.15-.04-.31-.07-.47-.07h-1.64c-.1,0-.2.01-.3.03-.38.07-9.51,1.73-15.45,10.73-4.41,6.67-2.15,16.45-2.05,16.86.19.79.89,1.35,1.71,1.35h33.46c.77,0,1.46-.51,1.68-1.25ZM504.58,72.6h0c-.02-.09-2-8.73,1.56-14.11,5.08-7.69,13.05-9.2,13.13-9.21-.1.02-.2.03-.31.03h1.64c-.16,0-.32-.02-.47-.06,6.26,1.75,10.65,4.83,13.05,9.18,3.65,6.63,1.5,14.01,1.48,14.08.22-.74.91-1.25,1.68-1.25h-33.46c.81,0,1.52.56,1.71,1.35Z"/>
          <path class="st7" d="M542.73,71.64h-46.56c-.97,0-1.75.79-1.75,1.75s.78,1.76,1.75,1.76h46.56c.97,0,1.75-.79,1.75-1.76s-.78-1.75-1.75-1.75h0Z"/>
          <path class="st7" d="M493.08,101.38h53.37c.97,0,1.75-.79,1.75-1.76s-.79-1.75-1.75-1.75h-53.37c-.97,0-1.75.79-1.75,1.75s.79,1.76,1.75,1.76h0Z"/>
          <path class="st7" d="M144.41,258.62c.05-.11.09-.15.09-.15-.03.03-.17.13-.39.13s-.36-.1-.39-.13c0,0,.04.04.09.15,0,0,2.08,4.39,2.08,4.39.68,1.42,2.36,2.64,3.92,2.85,0,0,4.83.62,4.83.62.12.01.16.04.16.04-.04-.02-.18-.12-.25-.33-.07-.21-.01-.38,0-.42,0,0-.03.05-.11.13,0,0-3.54,3.34-3.54,3.34-1.14,1.09-1.78,3.07-1.5,4.62,0,0,.89,4.77.89,4.77.02.12.01.17.01.17,0-.04.06-.21.24-.34.18-.13.35-.13.4-.12,0,0-.05-.01-.15-.07l-4.27-2.32c-1.38-.75-3.48-.75-4.85,0l-4.27,2.32c-.1.05-.15.07-.15.07.04,0,.22,0,.39.12.18.13.24.3.24.34,0,0,0-.05.01-.17l.89-4.78c.29-1.55-.35-3.53-1.5-4.61,0,0-3.54-3.35-3.54-3.35-.08-.08-.11-.13-.11-.13.02.04.08.21,0,.42-.07.21-.21.31-.25.33,0,0,.05-.02.17-.04l4.82-.62c1.57-.21,3.26-1.44,3.93-2.85,0,0,2.09-4.4,2.08-4.39ZM139.95,261.88c-.29.62-1.21,1.28-1.89,1.38,0,0-4.82.62-4.82.62-1.5.19-1.95,1.12-2.08,1.5-.12.38-.3,1.4.8,2.43,0,0,3.53,3.34,3.53,3.34.5.47.85,1.55.72,2.22,0,0-.89,4.78-.89,4.78-.28,1.48.45,2.2.78,2.44.33.24,1.23.72,2.56-.01l4.27-2.32c.6-.33,1.74-.33,2.34,0,0,0,4.26,2.32,4.26,2.32,1.33.73,2.23.25,2.56.01.33-.24,1.06-.96.78-2.44l-.89-4.78c-.13-.67.22-1.75.72-2.22,0,0,3.53-3.34,3.53-3.34,1.1-1.04.92-2.05.8-2.43s-.58-1.31-2.08-1.5l-4.82-.62c-.68-.09-1.6-.76-1.89-1.38,0,0-2.09-4.39-2.09-4.39-.66-1.37-1.67-1.52-2.07-1.52s-1.42.15-2.06,1.51c0,0-2.09,4.4-2.09,4.4Z"/>
          <path class="st7" d="M563.83,425.17c-4.49-1.54-9.18-2.32-13.95-2.32-15.14,0-29.32,8.14-37.02,21.25l2.99-.37c-11.63-11.87-27.18-18.4-43.75-18.4-32.98,0-59.85,25.83-61.19,58.8l2.22-1.79c-2.63-.46-5.07-.68-7.43-.68-11.92,0-23.42,5.06-31.54,13.88l3.04.34c-10.94-18.94-31.28-30.7-53.07-30.7-.83,0-1.63.05-2.41.11l-.99.07,1.99,1.7c-4.66-45.61-42.79-80-88.7-80-23.5,0-45.67,9.06-62.45,25.52l2.66,2.7c16.05-15.75,37.29-24.43,59.79-24.43,43.96,0,80.46,32.92,84.92,76.59l.19,1.81s1.81-.12,1.81-.12l1.04-.06c.75-.05,1.45-.1,2.15-.1,20.44,0,39.52,11.04,49.79,28.8l1.29,2.23,1.74-1.9c7.42-8.05,17.89-12.66,28.75-12.66,2.14,0,4.36.21,6.77.63l2.14.37.09-2.16c1.25-30.93,26.47-55.16,57.4-55.16,15.55,0,30.13,6.13,41.04,17.26l1.74,1.76,1.25-2.14c7.02-11.96,19.95-19.38,33.75-19.38,4.35,0,8.64.72,12.72,2.12l1.23-3.59Z"/>
          <path class="st7" d="M561.87,355.84c-.91-.16-1.74-.23-2.56-.23-4.1,0-8.06,1.74-10.85,4.77.38-.41.93-.62,1.48-.56s1.05.38,1.33.87c-3.68-6.37-10.51-10.31-17.83-10.31-.3,0-.59.01-.85.04h-.3c.94-.04,1.75.65,1.84,1.59-1.54-15.05-14.12-26.41-29.27-26.41h0c-.97,0-1.76.79-1.76,1.76s.79,1.76,1.76,1.76h0c13.34,0,24.43,9.99,25.78,23.25.09.93.9,1.63,1.84,1.57l.35-.02c.22-.01.42-.03.61-.03,6.07,0,11.74,3.28,14.79,8.56.28.48.77.8,1.33.87.56.06,1.11-.15,1.48-.55,2.16-2.35,5.1-3.64,8.27-3.64.61,0,1.25.06,1.95.18h0c.96.17,1.86-.47,2.03-1.43.17-.95-.47-1.86-1.42-2.03h0Z"/>
          <path class="st7" d="M603.85,199.05c-.97-.17-1.92-.25-2.83-.25-4.54,0-8.92,1.92-12.01,5.28.37-.42.92-.62,1.48-.56.55.06,1.05.39,1.32.87-4.08-7.07-11.67-11.46-19.81-11.46-.3,0-.6.02-.85.04-.14.01-.28.02-.4.03.93-.05,1.73.65,1.82,1.57-1.71-16.77-15.73-29.42-32.62-29.42h0c-.97,0-1.76.79-1.76,1.75s.79,1.75,1.76,1.75h0c15.08,0,27.6,11.3,29.13,26.27.09.92.89,1.61,1.82,1.58.17-.01.33-.02.49-.03.22-.01.42-.03.6-.03,6.89,0,13.32,3.72,16.78,9.71.28.48.77.8,1.32.87.56.06,1.11-.14,1.48-.55,2.46-2.68,5.82-4.15,9.44-4.15.71,0,1.46.07,2.22.2h0c.96.17,1.86-.47,2.03-1.43.17-.95-.47-1.86-1.42-2.03h0Z"/>
          <path class="st7" d="M521.45,47.48v-11.11h0c0-.97-.79-1.75-1.76-1.75s-1.75.79-1.75,1.75h0v11.11h0c0,.97.79,1.75,1.75,1.75s1.76-.78,1.76-1.75h0Z"/>
          <path class="st7" d="M612.99,318.92l-6.2,6.2c.51-.51,1.35-.51,1.87,0l-6.2-6.2c.51.51.51,1.35,0,1.86l6.2-6.2c-.51.51-1.35.51-1.87,0l6.2,6.2c-.51-.51-.51-1.35,0-1.86ZM606.79,312.72l-6.2,6.2c-.51.51-.51,1.35,0,1.86l6.2,6.2c.51.51,1.35.51,1.87,0l6.2-6.2c.51-.51.51-1.35,0-1.86l-6.2-6.2c-.51-.51-1.35-.51-1.87,0Z"/>
          <path class="st7" d="M467.43,114.33l.94-.91c-.49.49-.49,1.33,0,1.86l-.94-.95Z"/>
          <path class="st7" d="M462.17,109.06c.52.53,1.37.53,1.89,0l-.95.95-.94-.95Z"/>
          <path class="st7" d="M463.11,118.64l.95.95c-.53-.49-1.37-.49-1.89,0l.94-.95Z"/>
          <path class="st7" d="M457.86,115.27c.49-.53.49-1.37,0-1.86l.94.91-.94.95Z"/>
          <path class="st7" d="M464.06,107.21l6.17,6.21c.53.49.53,1.33,0,1.86l-6.17,6.21c-.53.49-1.37.49-1.89,0l-6.18-6.21c-.53-.53-.53-1.37,0-1.86l6.18-6.21c.52-.53,1.37-.53,1.89,0ZM464.06,109.06c-.53.53-1.37.53-1.89,0l.94.95-4.32,4.31-.94-.91c.49.49.49,1.33,0,1.86l.94-.95,4.32,4.32-.94.95c.52-.49,1.37-.49,1.89,0l-.95-.95,4.32-4.32.94.95c-.49-.53-.49-1.37,0-1.86l-.94.91-4.32-4.31.95-.95Z"/>
          <path class="st7" d="M201.63,67.8c0,1.51-1.23,2.75-2.75,2.75s-2.75-1.23-2.75-2.75,1.23-2.75,2.75-2.75,2.75,1.23,2.75,2.75ZM198.88,62.42c-2.97,0-5.38,2.41-5.38,5.38s2.41,5.38,5.38,5.38,5.38-2.41,5.38-5.38-2.42-5.38-5.38-5.38Z"/>
          <path class="st7" d="M129.19,310.27v7.15h0c0,.73.59,1.32,1.31,1.32s1.31-.59,1.31-1.32h0v-7.15h0c0-.73-.59-1.32-1.31-1.32s-1.31.59-1.31,1.32h0Z"/>
          <path class="st7" d="M134.08,312.53h-7.15c-.73,0-1.31.59-1.31,1.31s.59,1.31,1.31,1.31h7.15c.72,0,1.31-.59,1.31-1.31s-.59-1.31-1.31-1.31h0Z"/>
          <path class="st7" d="M130.58,364.26c-1.02,0-1.85.83-1.85,1.85s.83,1.85,1.85,1.85h489.04c1.02,0,1.85-.83,1.85-1.85s-.83-1.85-1.85-1.85H130.58Z"/>
          <path class="st7" d="M322.55,188.78c-2.41,2.42-1.08,11.04,6.41,18.53,7.49,7.48,16.11,8.81,18.52,6.41,0,0,0,0,0,0,2.4-2.42,1.06-11.04-6.42-18.52-7.48-7.49-16.1-8.82-18.51-6.42ZM330.92,205.34c-6.93-6.93-7.15-13.67-6.4-14.61.91-.72,7.63-.51,14.57,6.43,5.34,5.34,6.7,10.57,6.7,13.11,0,.75-.12,1.25-.29,1.47-.97.73-7.67.5-14.58-6.4Z"/>
          <path class="st7" d="M288.84,279.56l-8.47,13.82-10.18,16.48c-8.77,13.68-19.66,21.67-30.65,22.51-.55.04-1.05.32-1.37.77-.23.32-.34.69-.34,1.08,0,.16.02.31.06.47,5.07,19.47,16.42,32.04,28.92,32.04,8.66,0,16.73-5.78,22.71-16.29,5.79-10.17,8.98-23.66,8.98-37.97,0-11.88-2.21-23.18-6.38-32.68-.28-.63-.88-1.06-1.57-1.1-.69-.05-1.34.29-1.7.88ZM283.54,295.31s4.14-6.76,6.47-10.56c3.08,8.29,4.78,17.74,4.78,27.72,0,13.68-3.02,26.51-8.5,36.13-5.29,9.3-12.21,14.41-19.49,14.41-10.37,0-19.94-10.75-24.77-27.46,11.51-1.73,22.3-9.71,31.28-23.7l10.23-16.54ZM273.31,311.85h0s0,0,0,0Z"/>
          <path class="st7" d="M294.28,270.79c.33-.52.89-.85,1.52-.85.63-.04,1.22.26,1.56.78,7.27,10.31,11.42,25.55,11.42,41.75,0,29.92-14.24,54.24-31.7,54.24h-10.27c-1.04,0-1.85-.81-1.85-1.85s.82-1.85,1.85-1.85c7.27,0,14.2-5.12,19.5-14.39,5.45-9.64,8.49-22.47,8.49-36.15,0-11.38-2.11-22.14-6.08-31.18-.22-.56-.18-1.19.11-1.71l5.45-8.79ZM298.51,312.46c0,14.31-3.19,27.81-9.01,37.97-3.04,5.42-6.67,9.49-10.68,12.27,14.61-1.71,26.25-23.47,26.25-50.24,0-14.24-3.45-27.44-9.31-37.04-1.37,2.26-2.78,4.49-3.3,5.3,3.93,9.35,6.05,20.24,6.05,31.74Z"/>
          <path class="st7" d="M233.29,312.46c0-26.77-11.64-48.53-26.21-50.2,3.97,2.74,7.6,6.86,10.68,12.23,5.78,10.2,8.97,23.66,8.97,37.97,0,22.76-8.27,42.23-19.91,50.28,14.72-1.44,26.47-23.36,26.47-50.28ZM195.02,363c15.42,0,27.99-22.66,27.99-50.54s-12.57-50.54-27.99-50.54c-1,0-1.85-.82-1.85-1.85s.85-1.85,1.85-1.85h10.27c8.68,0,16.72,5.78,22.73,16.28,5.78,10.2,8.97,23.66,8.97,37.97s-3.19,27.81-8.97,37.97c-6.01,10.49-14.05,16.28-22.73,16.28h-10.27c-1,0-1.85-.81-1.85-1.85s.85-1.85,1.85-1.85Z"/>
          <path class="st7" d="M186.73,311.67c0,7.58,3.65,13.52,8.3,13.52s8.29-5.94,8.29-13.52c0-3.48-.78-6.77-2.21-9.26-1.56-2.74-3.72-4.25-6.09-4.25-4.66,0-8.3,5.94-8.3,13.52ZM189.51,311.67c0-5.72,2.58-10.74,5.52-10.74,2.61,0,5.51,4.41,5.51,10.74s-2.91,10.74-5.51,10.74-5.52-4.32-5.52-10.74Z"/>
          <path class="st7" d="M176.1,293.56c-.32.08-.57.33-.66.65-1.55,5.72-2.34,11.78-2.34,18.03,0,5.48.61,10.86,1.82,15.98.08.33.32.59.65.68.32.09.67,0,.91-.24l12.65-12.65c.2-.2.28-.55.26-.82l-.34-3.51.56-4.63c.03-.29-.04-.68-.24-.88l-12.37-12.36c-.23-.24-.57-.33-.89-.24ZM174.96,312.24c0-5.5.71-10.82,1.95-15.91,1.93,1.93,10.3,10.29,10.83,10.82-.11.9-.55,4.52-.55,4.52,0,0,.25,2.56.32,3.33-.53.52-9.09,9.09-11.09,11.08-.93-4.47-1.47-9.1-1.47-13.85Z"/>
          <path class="st7" d="M193.36,271.57c-6.84.98-13.16,8.18-16.89,19.25-.11.33-.03.7.22.95l12.53,12.54c.21.21.51.31.8.26.29-.05.55-.23.68-.5.87-1.72,1.95-2.87,3.13-3.34.35-.14.58-.48.58-.86v-27.38c0-.27-.12-.53-.32-.7-.2-.18-.47-.26-.74-.22ZM192.57,273.81v25.6c-1.05.58-1.99,1.54-2.81,2.81-1.32-1.32-10.54-10.55-11.31-11.32,3.31-9.47,8.5-15.65,14.12-17.09Z"/>
          <path class="st7" d="M195.96,271.79c-.2.17-.32.43-.32.7v27.38c0,.38.23.72.58.86,1.16.46,2.27,1.65,3.13,3.34.13.26.39.45.68.5.29.05.59-.05.8-.26l12.54-12.54c.25-.25.33-.62.22-.95-3.74-11.07-10.05-18.26-16.89-19.25-.27-.04-.54.04-.74.22ZM197.49,273.81c5.62,1.44,10.81,7.62,14.12,17.09-.77.77-10,10-11.32,11.32-.81-1.27-1.75-2.23-2.8-2.81v-25.6Z"/>
          <path class="st7" d="M188.77,318.08l-12.7,12.7c-.26.26-.37.58-.23.92l3.23,8.25c4.14,6.12,9.07,9.62,14.32,10.21.26.03.53-.05.72-.23.2-.18.31-.43.31-.69v-25.77c0-.38-.23-.72-.58-.86-1.4-.56-2.66-2.06-3.55-4.23-.12-.29-.37-.5-.68-.56s-.62.03-.84.25ZM189.25,320.23c.9,1.69,2.02,2.97,3.32,3.68v24.15c-4.32-.86-8.42-3.9-11.9-9.04h0s-2.36-6.08-2.86-7.35c.74-.74,10.04-10.04,11.44-11.44Z"/>
          <path class="st7" d="M213.06,293.8l-12.37,12.37c-.2.2-.28.6-.24.88l.56,4.63-.34,3.5c-.03.28.06.63.26.82l12.66,12.66c.24.24.59.33.91.24.32-.09.57-.35.65-.68,1.2-5.13,1.81-10.5,1.81-15.98,0-6.23-.79-12.3-2.34-18.03-.09-.32-.34-.57-.66-.65-.32-.09-.66,0-.89.24ZM213.15,296.33c1.24,5.1,1.95,10.42,1.95,15.91,0,4.74-.54,9.37-1.47,13.85-1.99-1.99-10.57-10.57-11.09-11.09.08-.77.32-3.32.32-3.32,0,0-.44-3.62-.54-4.51.53-.54,8.9-8.9,10.83-10.83Z"/>
          <path class="st7" d="M200.44,317.82c-.3.06-.56.27-.68.56-.89,2.18-2.15,3.68-3.55,4.24-.35.14-.58.48-.58.86v25.77c0,.26.11.51.31.69.2.18.46.26.72.23,5.26-.59,10.2-4.1,14.27-10.12.06-.1,3.29-8.34,3.29-8.34.13-.34.03-.66-.23-.92l-12.71-12.71c-.22-.22-.53-.31-.84-.25ZM200.81,320.22c1.4,1.4,10.7,10.71,11.45,11.45-.34.87-2.91,7.44-2.91,7.44-3.42,5.06-7.52,8.09-11.85,8.95v-24.15c1.3-.71,2.41-1.99,3.32-3.69Z"/>
          <path class="st7" d="M272.22,307.5s-1.64,2.6-1.64,2.6c-2.56,3.99-5.42,7.63-8.5,10.8-.26.27-.39.62-.39.97,0,.33.12.66.35.92,1.39,1.57,3.04,2.4,4.77,2.4,4.65,0,8.3-5.94,8.3-13.52l-.33-3.67c-.05-.59-.47-1.04-1.05-1.17-.58-.14-1.18.16-1.49.67ZM272.23,312.48c-.25,5.86-2.94,9.94-5.42,9.94-.71,0-1.31-.33-1.83-.72,2.59-2.78,5.03-5.85,7.25-9.21Z"/>
          <path class="st7" d="M283.48,290.07l-1.24,2.02c-.24.4-.15.92.22,1.21.37.29.9.26,1.23-.07l1.46-1.45c.26-.26.22-.96.09-1.31l-.09-.23c-.13-.33-.43-.57-.79-.6s-.7.13-.88.43Z"/>
          <path class="st7" d="M262.76,320.82c-4.61,4.82-9.46,8.29-14.42,10.32-.47.19-.72.66-.53,1.13l3.04,7.68c4.14,6.12,9.07,9.62,14.33,10.21.26.03.53-.05.72-.23.2-.18.31-.43.31-.69v-25.84c0-.3-.32-.68-.57-.85,0,0-.81-.57-1.35-.95,0-.05.05-.08.05-.13,0-.25-.1-.5-.29-.68-.37-.34-.93-.34-1.27.03ZM263.1,322.98c.51.35.81.57,1.25.88v24.2c-4.32-.86-8.42-3.9-11.91-9.04h0s-1.97-5.04-2.59-6.62c4.56-2.01,9.01-5.19,13.25-9.42Z"/>
          <path class="st7" d="M272.22,317.82c-.3.06-.56.27-.68.56-.89,2.18-2.15,3.68-3.55,4.24-.35.14-.58.48-.58.86v25.77c0,.26.11.51.31.69.2.18.46.26.72.23,5.26-.59,10.2-4.1,14.27-10.12.06-.1,3.29-8.34,3.29-8.34.14-.34.03-.67-.23-.92l-12.71-12.71c-.22-.22-.53-.31-.84-.25ZM272.59,320.22c1.4,1.4,10.71,10.71,11.45,11.45-.34.87-2.91,7.44-2.91,7.44-3.43,5.06-7.53,8.09-11.85,8.95v-24.15c1.3-.71,2.42-1.99,3.32-3.69Z"/>
          <path class="st7" d="M284.84,293.8l-9.31,9.3c-.13.17-4.56,7.25-4.56,7.25-.27.43-.14,1.01.29,1.28.43.27,1,.15,1.27-.28h0s.14-.23.2-.31c.02.2.06.63.06.63,0,0-.35,3.57-.35,3.6,0,.25.09.55.26.72l12.66,12.66c.24.24.59.33.91.24.32-.09.57-.35.65-.68,1.2-5.13,1.8-10.51,1.8-15.98,0-6.25-.79-12.31-2.34-18.03-.09-.32-.34-.57-.66-.65-.32-.09-.67,0-.89.24ZM276.98,304.24s6.11-6.08,7.95-7.91c1.24,5.09,1.95,10.41,1.95,15.91,0,4.73-.54,9.36-1.46,13.85-2-2-10.57-10.57-11.09-11.09.08-.77.32-3.32.32-3.32,0,0-.24-2.64-.3-3.23,1.27-2.03,2.63-4.21,2.63-4.21Z"/>
          <path class="st7" d="M163.33,312.47c0,29.92,14.22,54.26,31.7,54.26s31.69-24.34,31.69-54.26c0-14.31-3.19-27.79-8.98-37.96-5.98-10.5-14.05-16.28-22.71-16.28-17.48,0-31.7,24.33-31.7,54.24ZM167.04,312.47c0-27.87,12.56-50.54,27.99-50.54s27.98,22.67,27.98,50.54-12.55,50.55-27.98,50.55-27.99-22.67-27.99-50.55Z"/>
          <path class="st7" d="M167.67,337.41l-10.12,13.63c-1.2,1.55-1.72,2.99-1.54,4.35l1.63,2.71s2.8.81,2.8.81c1.74-.22,3.02-1.61,4.03-2.94l8.41-10.33c.42-.51.5-1.3.26-1.92l-2.22-5.8c-.24-.63-.82-1.13-1.49-1.22-.67-.09-1.35.14-1.76.69ZM159.69,354.92s0-.03,0-.04c0-.22.17-.76.82-1.6,0,0,5.55-7.47,8.13-10.95.35.91.49,1.29.7,1.82-1.14,1.4-7.77,9.54-7.77,9.54-1.11,1.44-1.55,1.55-1.6,1.56-.06-.07-.27-.32-.27-.32Z"/>
          <path class="st7" d="M314.56,180.79c-.1.1-.41.53-.49.65l-.04.07s.06-.05.06-.04c0,.05-.38.57-.52.76-1.64,2.26-2.52,5.07-2.52,8.27,0,1.56.29,3.23.69,4.93-1.75,6.08-4.78,11.36-9.09,15.67-9.73,9.73-41.02,28.84-61.73,41.48l-16.61,10.26-4.75,3.3c-.45.31-.71.77-.76,1.31,0,.06,0,.12,0,.17,0,.47.2.92.53,1.27,8.61,9.12,13.96,25.81,13.96,43.57,0,7.23-.86,14.26-2.55,20.89-.04.15-.06.3-.06.46,0,.35.1.7.29,1,.28.43.72.73,1.23.83,14.93,2.72,29.54-5.72,41.12-23.79l10.25-16.59c12.65-20.72,31.76-52.03,41.49-61.76,4.26-4.26,9.37-7.33,15.16-9.19,6.38,1.68,11.8.83,15.25-2.61,6.98-6.98,3.46-21.43-8-32.9h0c-11.47-11.47-25.92-14.99-32.9-8.01ZM317.24,183.37l.04-.07c2.39-2.37,6.54-3.01,11.59-1.67,5.41,1.43,11.08,4.91,15.96,9.79,6.64,6.65,10.45,14.71,10.45,20.83,0,2.78-.79,5.16-2.45,6.83-2.59,2.59-6.98,3.14-12.37,1.55-.35-.1-.73-.1-1.08,0-6.5,2.03-12.21,5.48-16.97,10.24-10.04,10.05-28.53,40.33-42.03,62.45l-10.21,16.52c-10.22,15.94-22.75,23.72-35.47,22.31,1.44-6.32,2.27-12.9,2.27-19.69,0-18.01-5.18-34.28-13.73-44.39,1.35-.93,3.06-2.11,3.06-2.11l16.54-10.22c22.11-13.5,52.38-31.98,62.42-42.03,4.83-4.83,8.24-10.73,10.14-17.55.05-.16.07-.33.07-.5,0-.16-.02-.32-.06-.48-.44-1.66-.66-3.24-.66-4.7,0-2.48.63-4.63,1.88-6.26-.02.03.25-.41.23-.39.07-.08.33-.4.38-.48ZM313.46,182.38s.07-.1.1-.14c.05-.07.07-.17.13-.25,0,.01-.22.38-.23.39Z"/>
          <path class="st7" d="M347.55,28.4c0,1.94.27,3.91.81,5.86.2.72.85,1.22,1.6,1.22h39.93c.75,0,1.41-.5,1.6-1.22.54-1.96.81-3.93.81-5.85,0-12.33-10.04-22.36-22.37-22.36s-22.38,10.03-22.38,22.36ZM350.87,28.4c0-10.49,8.55-19.03,19.05-19.03s19.05,8.54,19.05,19.03c0,1.25-.26,2.5-.52,3.75h-37.06c-.26-1.25-.52-2.5-.52-3.75Z"/>
          <path class="st7" d="M366.77,3.55c0,1.74,1.41,3.16,3.15,3.16s3.16-1.42,3.16-3.16-1.42-3.15-3.16-3.15-3.15,1.41-3.15,3.15ZM368.43,3.55c0-.83.65-1.48,1.49-1.48s1.5.67,1.5,1.48-.67,1.5-1.5,1.5-1.49-.66-1.49-1.5Z"/>
          <path class="st7" d="M398.53,40.06v-6.06c0-.92-.74-1.66-1.66-1.66h-53.88c-.92,0-1.66.74-1.66,1.66v6.07c-3.05.48-5.05,2.42-5.05,8.65v42.81c0,2.81,2.18,4.91,5.15,5.37,0,.02,0,.02,0,.03,0,2.51.49,6.95,3.6,9.9.31.3.72.46,1.14.46h47.52c.43,0,.84-.17,1.15-.46,3.12-2.96,3.58-7.48,3.58-9.93h0c2.98-.47,5.15-2.57,5.15-5.38v-42.81c0-6.26-1.93-8.18-5.04-8.65ZM400.24,91.52c0,1.3-1.24,2.24-2.96,2.24h-.6c-.47,0-.92.2-1.24.55-.28.31-.43.7-.43,1.11,0,.06,0,.12,0,.18,0,.06.06.56.06,1.31,0,1.77-.35,4.91-2.21,7.04h-45.91c-1.86-2.12-2.22-5.23-2.22-7.03,0-.68.04-1.17.06-1.33,0-.06,0-.11,0-.17,0-.41-.15-.81-.43-1.11-.32-.35-.76-.55-1.23-.55h-.6c-1.71,0-2.96-.94-2.96-2.24v-42.81c0-5.52,1.28-5.53,3.4-5.54.92,0,1.65-.75,1.65-1.66v-5.85h50.56v5.85c0,.92.74,1.66,1.65,1.66,2.18,0,3.38.02,3.38,5.54v42.81Z"/>
          <path class="st7" d="M341.5,95.26s0,.13,0,.17c0,0,0-.11,0-.17Z"/>
          <path class="st7" d="M398.34,95.25c0,.06,0,.18,0,.18,0-.03,0-.16,0-.18Z"/>
          <path class="st7" d="M347.5,104.33c-.86,0-1.57.65-1.65,1.51-.04.39-.09,1.07-.09,1.89,0,1.77.24,4.14,1.38,5.39,0,0,.48.22.96.43-.22,1.63-.55,4.09-.55,4.09,0,12.33,10.04,22.37,22.38,22.37s22.37-10.04,22.37-22.37c0,0-.32-2.34-.54-3.99.59-.27,1.19-.55,1.19-.55.98-1.11,1.22-3.09,1.22-4.75,0-1.1-.1-2.07-.17-2.57-.11-.82-.81-1.44-1.65-1.44h-44.84ZM390.78,107.65c0,.22.04.45.04.66,0,1.13-.13,2.06-.34,2.44h-.56c-.48,0-.92.31-1.23.67-.26.3-.39.75-.39,1.17,0,.09,0,.17.02.25l.65,4.79c0,10.5-8.55,19.05-19.05,19.05s-19.05-8.54-19.05-19.05l.65-4.79c.06-.47-.06-1.06-.38-1.42-.31-.36-.75-.67-1.23-.67h-.63c-.07-.24-.2-1.5-.2-2.92,0-.06,0-.12,0-.18h41.69Z"/>
          <path class="st7" d="M363.32,137.15c-.8,1.63-1.47,6.52.07,10.07,0,0,2.1,3.75,2.1,3.75,1.1,1.74,2.14,3.39,2.81,5.82.2.72.88,1.22,1.63,1.22s1.43-.5,1.63-1.22c.68-2.44,1.71-4.09,2.8-5.84l2.08-3.73c1.57-3.56.89-8.46.09-10.09-.31-.64-1.2-.97-1.91-.88l-4.69.62-4.7-.62c-.71-.09-1.59.24-1.91.88ZM373.82,139.71c.13.67.23,1.48.23,2.44,0,1.26-.17,2.62-.66,3.74l-1.86,3.31c-.53.84-1.08,1.75-1.61,2.77-.53-1.01-1.09-1.93-1.62-2.77l-1.87-3.31c-.48-1.11-.65-2.46-.65-3.7,0-.98.11-1.8.24-2.48,1.62.21,3.9.51,3.9.51,0,0,2.28-.3,3.9-.51Z"/>
          <polygon class="st7" points="348.61 41.71 346.88 39.98 348.61 38.23 350.35 39.98 348.61 41.71"/>
          <polygon class="st7" points="357.11 41.71 355.4 39.98 357.11 38.23 358.87 39.98 357.11 41.71"/>
          <polygon class="st7" points="365.65 41.71 363.9 39.98 365.65 38.23 367.37 39.98 365.65 41.71"/>
          <polygon class="st7" points="374.17 41.71 372.42 39.98 374.17 38.23 375.9 39.98 374.17 41.71"/>
          <polygon class="st7" points="382.68 41.71 380.95 39.98 382.68 38.23 384.43 39.98 382.68 41.71"/>
          <polygon class="st7" points="391.19 41.71 389.46 39.98 391.19 38.23 392.93 39.98 391.19 41.71"/>
          <polygon class="st7" points="349.63 99.86 347.99 98.2 349.63 96.54 351.29 98.2 349.63 99.86"/>
          <path class="st7" d="M347.4,98.21l2.23,2.24,2.24-2.24-2.24-2.26-2.23,2.26ZM349.64,97.13c.31.31.76.76,1.06,1.07-.31.31-.75.75-1.06,1.06-.31-.31-.75-.76-1.06-1.06.31-.31.75-.76,1.06-1.07Z"/>
          <polygon class="st7" points="357.72 99.86 356.1 98.2 357.72 96.54 359.4 98.2 357.72 99.86"/>
          <path class="st7" d="M355.51,98.21l2.2,2.24,2.27-2.24-2.27-2.26-2.2,2.26ZM357.73,97.13c.31.31.76.76,1.08,1.07-.31.31-.76.75-1.08,1.06-.31-.31-.74-.76-1.05-1.06.3-.31.74-.76,1.05-1.07Z"/>
          <polygon class="st7" points="365.86 99.86 364.2 98.2 365.86 96.54 367.49 98.2 365.86 99.86"/>
          <path class="st7" d="M363.61,98.21l2.26,2.24,2.21-2.24-2.21-2.26-2.26,2.26ZM365.86,97.13c.31.31.75.76,1.05,1.07-.31.31-.74.75-1.05,1.06-.31-.31-.76-.75-1.07-1.06.31-.31.76-.76,1.07-1.07Z"/>
          <polygon class="st7" points="373.96 99.86 372.3 98.2 373.96 96.54 375.6 98.2 373.96 99.86"/>
          <path class="st7" d="M371.71,98.21l2.25,2.24,2.23-2.24-2.23-2.26-2.25,2.26ZM373.96,97.13c.31.31.75.76,1.06,1.07-.31.31-.75.75-1.06,1.06-.31-.31-.76-.75-1.07-1.06.31-.31.76-.76,1.07-1.07Z"/>
          <polygon class="st7" points="382.06 99.86 380.42 98.2 382.06 96.54 383.73 98.2 382.06 99.86"/>
          <path class="st7" d="M379.84,98.21l2.22,2.24,2.26-2.24-2.26-2.26-2.22,2.26ZM382.07,97.13c.31.31.76.76,1.07,1.07-.31.31-.76.76-1.07,1.06-.31-.31-.75-.76-1.06-1.06.31-.31.75-.76,1.06-1.07Z"/>
          <polygon class="st7" points="390.16 99.86 388.52 98.2 390.16 96.54 391.82 98.2 390.16 99.86"/>
          <path class="st7" d="M387.94,98.21l2.22,2.24,2.25-2.24-2.25-2.26-2.22,2.26ZM390.16,97.13c.31.31.76.76,1.07,1.07-.31.31-.76.75-1.07,1.06-.31-.31-.75-.76-1.06-1.06.31-.31.74-.76,1.06-1.07Z"/>
          <path class="st7" d="M397.81,91.82h-11.77c-.7,0-1.23-.53-1.23-1.23v-29.69c0-2.19,4.59-12.2,6.02-15.2.2-.46.63-.73,1.13-.73s.93.27,1.13.73c1.4,2.99,5.95,13,5.95,15.2v29.69c0,.7-.56,1.23-1.23,1.23ZM396.55,60.9c0-1.03-2.19-6.35-4.59-11.67-2.43,5.32-4.65,10.64-4.65,11.67v28.43h9.24v-28.43Z"/>
          <path class="st7" d="M369.99,48.3c-4.09,5.42-8.28,11.44-8.44,12.6v28.43h16.79v-28.39c-.2-1.2-4.32-7.21-8.35-12.63ZM368.99,45.47c.23-.33.6-.5,1-.5s.76.17,1,.5c3.66,4.82,9.84,13.23,9.84,15.43v29.69c0,.7-.57,1.23-1.26,1.23h-19.28c-.7,0-1.23-.53-1.23-1.23v-29.69c0-2.19,6.22-10.61,9.94-15.43Z"/>
          <path class="st7" d="M343.29,60.9v28.43h9.28v-28.43c-.03-1.03-2.23-6.35-4.62-11.67-2.43,5.32-4.65,10.64-4.65,11.67ZM340.8,60.9c0-2.19,4.62-12.2,6.02-15.2.23-.46.66-.73,1.13-.73.5,0,.93.27,1.13.73,1.4,2.99,5.99,13,5.99,15.2v29.69c0,.7-.57,1.23-1.26,1.23h-11.77c-.66,0-1.23-.53-1.23-1.23v-29.69Z"/>
          <path class="st7" d="M349.91,110.76c-.92,0-1.66.74-1.66,1.66s.74,1.66,1.66,1.66h40.02c.92,0,1.66-.74,1.66-1.66s-.74-1.66-1.66-1.66h-40.02Z"/>
          <path class="st7" d="M321.19,233.17c-.74.7-.78,1.88-.08,2.62,35.7,37.81,83.98,58.63,135.97,58.63,35.59,0,69.88-10.12,99.8-29.1-33.78,58.62-95.51,94.95-163.46,94.95-30.95,0-61.66-7.64-88.8-22.09-.9-.48-2.02-.14-2.51.76-.48.91-.14,2.02.77,2.51,27.67,14.74,58.98,22.53,90.54,22.53,72,0,137.49-39.75,170.9-103.72.39-.76.22-1.69-.42-2.25-.64-.57-1.58-.62-2.28-.13-30.84,21.48-66.99,32.84-104.54,32.84-50.95,0-98.28-20.41-133.27-57.46-.7-.75-1.88-.78-2.62-.08Z"/>
          <path class="st7" d="M304.29.21c-63.98,33.41-103.73,98.9-103.73,170.91,0,32.42,8.2,64.49,23.71,92.73.49.89,1.62,1.22,2.52.73.61-.34.96-.97.96-1.63,0-.3-.07-.61-.23-.89-15.21-27.69-23.26-59.14-23.26-90.94,0-67.95,36.33-129.68,94.96-163.46-18.99,29.93-29.11,64.22-29.11,99.81,0,37.9,11.28,74.38,32.61,105.53.58.84,1.73,1.06,2.58.48.84-.58,1.06-1.73.48-2.58-20.91-30.52-31.96-66.29-31.96-103.43s11.36-73.7,32.84-104.54c.49-.7.43-1.64-.13-2.28-.56-.64-1.49-.81-2.25-.42Z"/>
          <path class="st7" d="M561.53,258.62c-17.82,26.64-65.56,49.09-116.1,54.6-33.46,3.65-96.92,2.72-146.02-44.35-.55-.53-1.43-.51-1.96.04-.53.55-.51,1.44.04,1.97,49.91,47.86,114.31,48.8,148.25,45.11,51.3-5.59,99.86-28.54,118.11-55.82.43-.64.26-1.5-.38-1.93-.64-.43-1.5-.26-1.93.38Z"/>
          <path class="st7" d="M304.18.85c-1.13,1.09-112.14,110.81-34.59,235.13.41.65,1.27.85,1.92.45.65-.41.85-1.27.45-1.92C195.61,112.12,305,3.93,306.11,2.85c.55-.53.57-1.41.03-1.97-.53-.55-1.41-.56-1.97-.03Z"/>
          <path class="st7" d="M432.05,159.3c-.58,0-.9.01-1.25.48,0,0-.92,1.23-1.5,2-25.1,7.38-49.07,27.27-49.07,51.49,0,2.34.22,4.73.69,7.14l-.03,12.81c0,1.02.83,1.85,1.85,1.85h99.84c1.02,0,1.85-.83,1.85-1.85v-13.16c.46-2.37.68-4.71.68-7.01,0-23.98-24-43.88-49.11-51.26-.57-.76-1.51-2-1.51-2-.35-.47-.66-.48-1.24-.48h-1.22ZM384.61,220.05c-.41-2.11-.6-4.2-.6-6.27,0-22.29,22.65-41.71,46.93-48.65.39-.11.88-.58,1.13-.91,0,0,.3-.41.61-.83.31.42.62.84.62.84.24.33.72.79,1.12.9,24.29,6.94,46.97,26.38,46.97,48.43,0,2.03-.19,4.08-.59,6.14,0,0-.02,8.9-.03,11.66h-96.14v-11.31Z"/>
          <path class="st7" d="M382.19,218.66c-.77,0-1.39.62-1.39,1.39s.62,1.39,1.39,1.39h70.79c.77,0,1.39-.62,1.39-1.39s-.62-1.39-1.39-1.39h-70.79Z"/>
          <path class="st7" d="M465.92,218.66c-.77,0-1.39.62-1.39,1.39s.62,1.39,1.39,1.39h17.36c.77,0,1.39-.62,1.39-1.39s-.62-1.39-1.39-1.39h-17.36Z"/>
          <path class="st7" d="M375.53,231.28c-1.02,0-1.85.83-1.85,1.85s.83,1.85,1.85,1.85h114.28c1.02,0,1.85-.83,1.85-1.85s-.83-1.85-1.85-1.85h-114.28Z"/>
          <path class="st7" d="M358.46,239.15c-1.02,0-1.85.83-1.85,1.85v21.99c0,1.02.83,1.85,1.85,1.85s1.85-.83,1.85-1.85v-20.13h144.7c0,3.4-.04,41.92-.04,41.92,0,1.02.83,1.85,1.85,1.85s1.85-.83,1.85-1.85l.04-43.77c0-.49-.2-.97-.54-1.31-.35-.35-.82-.54-1.31-.54h-148.41Z"/>
          <path class="st7" d="M387.51,266.84c-.24.14-5.88,3.46-5.88,9.33,0,.77.62,1.39,1.39,1.39s1.39-.62,1.39-1.39h0c0-3.23,2.55-5.51,3.81-6.45,1.25.92,3.79,3.18,3.79,6.45v4.32c0,.77.62,1.39,1.39,1.39s1.39-.62,1.39-1.39v-4.32c0-5.93-5.66-9.2-5.9-9.33-.43-.24-.95-.24-1.38,0Z"/>
          <path class="st7" d="M403.96,266.84c-.24.14-5.88,3.46-5.88,9.33v7.21c0,.77.62,1.39,1.39,1.39s1.39-.62,1.39-1.39v-7.21c0-3.23,2.55-5.51,3.81-6.45,1.25.92,3.79,3.18,3.79,6.45v10.3c0,.77.62,1.39,1.39,1.39s1.39-.62,1.39-1.39v-10.3c0-5.93-5.65-9.2-5.89-9.33-.43-.24-.95-.24-1.38,0Z"/>
          <path class="st7" d="M431.97,251.75c-.61.35-14.95,8.8-14.95,23.55v12.26c0,.77.62,1.39,1.39,1.39s1.39-.62,1.39-1.39v-12.26c0-11.42,10.13-18.9,12.87-20.71,2.74,1.78,12.87,9.15,12.87,20.71v16.43c0,.77.62,1.39,1.39,1.39s1.39-.62,1.39-1.39v-16.43c0-14.94-14.36-23.22-14.97-23.56-.43-.24-.96-.24-1.38,0Z"/>
          <path class="st7" d="M460.22,266.84c-.24.14-5.88,3.46-5.88,9.33v10.3c0,.77.62,1.39,1.39,1.39h10.36c.77,0,1.39-.62,1.39-1.39v-10.3c0-5.93-5.64-9.2-5.88-9.33-.43-.24-.95-.24-1.38,0ZM457.13,276.17c0-3.22,2.54-5.51,3.79-6.44,1.25.92,3.78,3.18,3.78,6.44v8.91h-7.58v-8.91Z"/>
          <path class="st7" d="M476.55,266.84c-.24.14-5.88,3.46-5.88,9.33v10.3c0,.77.62,1.39,1.39,1.39h10.36c.77,0,1.39-.62,1.39-1.39v-10.3c0-5.93-5.65-9.2-5.89-9.33-.43-.24-.95-.24-1.38,0ZM473.46,276.17c0-3.23,2.55-5.51,3.8-6.44,1.25.92,3.78,3.18,3.78,6.44v8.91h-7.58v-8.91Z"/>
          <path class="st7" d="M492.88,266.85c-.24.14-5.87,3.46-5.87,9.32v10.3c0,.77.62,1.39,1.39,1.39h10.36c.77,0,1.39-.62,1.39-1.39v-10.3c0-5.93-5.66-9.2-5.9-9.33-.43-.24-.95-.24-1.38,0ZM489.8,276.17c0-3.23,2.54-5.51,3.79-6.44,1.25.92,3.79,3.18,3.79,6.44v8.91h-7.58v-8.91Z"/>
          <path class="st7" d="M396.73,248.87c-.77,0-1.39.62-1.39,1.39s.62,1.39,1.39,1.39h110.5c.77,0,1.39-.62,1.39-1.39s-.62-1.39-1.39-1.39h-110.5Z"/>
          <path class="st7" d="M358.43,248.87c-.77,0-1.39.62-1.39,1.39s.62,1.39,1.39,1.39h27.81c.77,0,1.39-.62,1.39-1.39s-.62-1.39-1.39-1.39h-27.81Z"/>
          <path class="st7" d="M430.7,140.13v20.66c0,1.02.83,1.85,1.85,1.85s1.85-.83,1.85-1.85v-20.66c0-1.02-.83-1.85-1.85-1.85s-1.85.83-1.85,1.85Z"/>
          <path class="st7" d="M562.1,355.69c-1.02,0-1.85.83-1.85,1.85s.83,1.85,1.85,1.85h41.56c1.02,0,1.85-.83,1.85-1.85s-.83-1.85-1.85-1.85h-41.56Z"/>
          <path class="st7" d="M579.33,83.44c-4.25,0-7.7,3.46-7.7,7.71s3.45,7.71,7.7,7.71h9.15c2.51,0,4.55,2.04,4.55,4.55s-2.04,4.55-4.55,4.55h-25.8c-4.25,0-7.71,3.46-7.71,7.71s3.46,7.71,7.71,7.71h51.09c.87,0,1.58-.7,1.58-1.58s-.71-1.58-1.58-1.58h-51.09c-2.51,0-4.56-2.05-4.56-4.56s2.05-4.56,4.56-4.56h25.8c4.25,0,7.7-3.45,7.7-7.7s-3.45-7.7-7.7-7.7h-9.15c-2.51,0-4.55-2.04-4.55-4.56s2.04-4.56,4.55-4.56h10.11c.87,0,1.58-.7,1.58-1.58s-.71-1.58-1.58-1.58h-10.11Z"/>
          <path class="st7" d="M138.49,115.57c-.87,0-1.58.71-1.58,1.58s.7,1.58,1.58,1.58h51.09c2.51,0,4.56,2.05,4.56,4.56s-2.05,4.56-4.56,4.56h-25.8c-4.25,0-7.7,3.45-7.7,7.7s3.45,7.7,7.7,7.7h9.15c2.51,0,4.55,2.05,4.55,4.56s-2.04,4.56-4.55,4.56h-51.75c-.87,0-1.58.71-1.58,1.58s.7,1.58,1.58,1.58h51.75c4.25,0,7.7-3.46,7.7-7.71s-3.45-7.71-7.7-7.71h-9.15c-2.51,0-4.55-2.04-4.55-4.55s2.04-4.55,4.55-4.55h25.8c4.25,0,7.71-3.46,7.71-7.71s-3.46-7.71-7.71-7.71h-51.09Z"/>
          <path class="st7" d="M209.3,217.09c0-7.6-6.18-13.78-13.78-13.78-1.06,0-2.14.14-3.37.46.52-.13,1.07-.02,1.49.3.43.33.68.82.7,1.35-.3-12.9-11.04-23.4-23.94-23.4s-23.43,10.12-23.92,23.04c.01-.47.22-.92.58-1.23.35-.32.81-.48,1.29-.45-.02,0-.08-.01-.13-.02-.15-.02-.36-.05-.61-.05-5.54,0-10.52,3.3-12.68,8.39.2-.49.62-.85,1.12-1,.51-.14,1.05-.06,1.49.25-1.86-1.3-4.04-1.98-6.3-1.98-6.09,0-11.05,4.96-11.05,11.05,0-.97.79-1.75,1.75-1.75h-16.29c-.97,0-1.75.78-1.75,1.75s.79,1.75,1.75,1.75h16.29c.97,0,1.76-.78,1.76-1.75,0-4.16,3.38-7.54,7.54-7.54,1.54,0,3.02.47,4.29,1.36.43.3.98.39,1.49.24.5-.14.92-.51,1.12-1,1.62-3.8,5.33-6.26,9.46-6.26,0,0,.07.01.12.02.11.01.25.03.41.04.47.03.94-.13,1.29-.45.35-.32.56-.76.58-1.24.42-11.02,9.39-19.66,20.41-19.66s20.18,8.96,20.43,19.98c.01.53.26,1.03.69,1.35.42.32.97.43,1.49.3.95-.24,1.75-.35,2.51-.35,5.67,0,10.28,4.61,10.28,10.28h0c0,.97.79,1.76,1.75,1.76s1.75-.79,1.75-1.76h0Z"/>
        </g>
      </g>
    </g>
  </g>
</svg>