<?xml version="1.0" encoding="utf-8"?>
<!-- Generator: Adobe Illustrator 25.3.0, SVG Export Plug-In . SVG Version: 6.00 Build 0)  -->
<svg version="1.1" id="Layer_1" xmlns="http://www.w3.org/2000/svg" xmlns:xlink="http://www.w3.org/1999/xlink" x="0px" y="0px"
	 viewBox="0 0 512 512" style="enable-background:new 0 0 512 512;" xml:space="preserve">
<style type="text/css">
	.st0{fill:url(#SVGID_1_);}
	.st1{fill:url(#SVGID_2_);}
	.st2{fill:url(#SVGID_3_);}
	.st3{fill:url(#SVGID_4_);}
	.st4{fill:#12165B;}
</style>
<g>
	<linearGradient id="SVGID_1_" gradientUnits="userSpaceOnUse" x1="51.7672" y1="359.0738" x2="469.7426" y2="359.0738">
		<stop  offset="0" style="stop-color:#D2A153"/>
		<stop  offset="1" style="stop-color:#DAC37B"/>
	</linearGradient>
	<path class="st0" d="M62.1,330.2c1.2,0.6,2.1,1.6,3.2,2.5c3.1,2.6,6.2,5.3,9.3,8c2,1.8,4,3.6,6.2,5.4c2.4,2,4.6,4.1,7.1,6.2
		c1,0.8,2,1.8,3,2.7c2.4,2.1,5,2.7,8.3,1.8c2-0.7,4.3-1,6.5-1.5c3.3-0.7,6.7-1.2,10-2c1.9-0.5,3.8-0.7,5.8-0.9
		c2.8-0.4,5.5-0.8,8.4-1.1c2.9-0.4,5.9-0.7,8.8-0.8c9.1-0.7,18.3-1.3,27.4-0.9c5.8,0.3,11.4,0.7,17.1,1.2c3.6,0.4,7.4,0.7,10.9,1.3
		c3,0.5,6.1,0.8,8.9,1.7c1.7,0.5,3.5,0.7,5.2,1.1c3.9,0.8,7.8,1.8,11.6,3c3.7,1.1,7.6,2,11.3,3.4c4.6,1.7,9.2,3.4,13.7,5.3
		c4.6,2,9,4.2,13.6,6.2c1.8,0.7,3.4,0.8,5.1,0c3.9-1.9,7.9-3.7,11.9-5.4c3.5-1.5,7.3-3.1,10.9-4.4c4.3-1.5,8.7-3.1,13-4.4
		c4.2-1.2,8.5-2.4,12.8-3.4c2-0.5,4.1-0.7,6.2-1.2c3-0.7,6.1-1.2,9-1.7c3.4-0.6,6.9-0.8,10.2-1.3c4.8-0.7,9.8-0.7,14.6-1.1
		c4.7-0.4,9.5-0.3,14.3-0.2c6.5,0.1,12.9,0.7,19.4,1.2c3.9,0.4,7.8,0.7,11.7,1.3c3.2,0.5,6.4,0.8,9.6,1.6c2.1,0.6,4.4,0.8,6.7,1.3
		c3,0.6,6,1.2,8.9,2c0.9,0.3,1.9,0.6,2.7,0.7c1.6,0.1,3.1-0.6,4.3-1.5c1.4-1,2.6-2.1,3.9-3.3c2.2-2,4.6-4,7-6.1
		c6.2-5.2,12.2-10.5,18.3-15.8c0.3-0.2,0.5-0.4,0.7-0.6c0.7,1,2,1.2,3,1.6c2.4,0.9,4.8,2,7.3,3c0.1,0.3,0,0.5-0.1,0.6
		c-3.5,3.1-7.3,6.2-10.8,9.4c-2.4,2-4.7,4.2-7.3,6.3c-5,4.4-10.2,8.9-15.2,13.2c-2,1.7-3.9,3.4-5.9,5.1c-2.2,2-4.7,2.3-7.5,1.7
		c-2.6-0.7-5.2-1.1-7.9-1.9c-3.4-0.9-7-1.4-10.4-2c-3-0.6-6.1-0.9-9-1.3c-1.9-0.3-3.8-0.4-5.8-0.8c-1.4-0.4-2.9-0.3-4.3-0.4
		c-6-0.6-11.9-0.8-17.9-0.9c-3.2-0.1-6.3-0.2-9.5-0.1c-4.8,0.1-9.9,0.3-14.7,0.7c-2.7,0.2-5.4,0.4-8.1,0.8c-3.4,0.7-7.1,1-10.5,1.7
		c-3.5,0.7-7.3,1.2-10.8,2c-2.7,0.6-5.3,1.4-8.1,2c-2.6,0.7-5.3,1.3-7.9,2.2c-3.7,1.3-7.5,2.3-11.3,3.7c-3.4,1.3-7,2.5-10.2,4.1
		c-3.2,1.4-6.4,2.6-9.4,4.4c-1.4,0.8-3,1.6-4.6,2c-1.8,0.5-3.5,0.1-5.2-0.7c-2-1-4.1-2.1-6.3-3.1c-3.2-1.3-6.2-2.9-9.4-4.1
		c-2.3-0.8-4.6-1.8-7-2.7c-1.9-0.7-3.9-1.3-6-2c-2.2-0.7-4.5-1.6-6.8-2.2c-4.1-1.2-8.4-2.1-12.6-3.2c-4-1-8.2-1.8-12.3-2.4
		c-3-0.5-6.1-0.8-9-1.3c-7.3-1.1-14.5-1.5-21.9-1.7c-3-0.1-6.2-0.2-9.1-0.1c-5.3,0.2-10.7,0.3-15.9,0.7c-2.9,0.2-6,0.3-8.8,0.8
		c-3.7,0.7-7.6,1-11.4,1.6c-2.7,0.5-5.5,0.9-8.3,1.4c-2.9,0.5-5.9,1.2-8.8,2c-2,0.5-3.9,1-6,1.4c-2.4,0.5-4.7,0.1-6.7-1.7
		c-4-3.5-8.1-7.2-12.1-10.6c-3.3-2.9-6.7-5.8-10.1-8.7c-4.6-4-9.3-8-13.9-12c-1.2-1-2.3-2.1-3.6-3.3c1-0.9,2.2-1.1,3.3-1.6
		c2-0.9,4.1-1.7,6.3-2.4C61.4,330.6,61.7,330.4,62.1,330.2z"/>
	
		<radialGradient id="SVGID_2_" cx="260.5322" cy="353.107" r="122.6961" gradientTransform="matrix(1 0 0 -1 0 514)" gradientUnits="userSpaceOnUse">
		<stop  offset="0" style="stop-color:#10148B"/>
		<stop  offset="0.7363" style="stop-color:#10145B"/>
	</radialGradient>
	<circle class="st1" cx="260.5" cy="160.9" r="122.7"/>
	<g>
		<g>
			
				<radialGradient id="SVGID_3_" cx="260.2933" cy="187.5098" r="151.5799" gradientTransform="matrix(1 0 0 -1 0 514)" gradientUnits="userSpaceOnUse">
				<stop  offset="0" style="stop-color:#10147B"/>
				<stop  offset="1" style="stop-color:#10145B"/>
			</radialGradient>
			<path class="st2" d="M326,302.9c33.9-9.2,68.2-9.9,102.8-5.1c6.4,0.8,12.9,2,19.7,3.5c-1.1-3.8-2.4-7.2-4.4-10
				c-3.3-4.9-7.5-8.5-13.7-9.3c-7.9-1.1-15.8-1.5-23.8-1.8c-18.4-0.7-36.4,0.7-54.4,4.2c-20.3,4-39.6,11.1-57.2,22.1
				c-10.3,6.4-19.7,14.1-27.7,23.3c1.4-0.1,1.4-0.1,2.5-0.8C287,316.8,305.7,308.3,326,302.9z M76.1,300.6c34.2-7,68.6-8,103-1.6
				c25.7,4.7,49.7,14,71.4,29c0.6,0.4,1.1,0.9,2.4,0.7c-1-2.5-3-4-4.7-5.8c-13.1-12.7-28.6-22-45.5-28.9
				c-21.3-8.7-43.6-12.8-66.5-13.9c-15.3-0.7-30.6-0.2-45.6,1.8c-3.5,0.5-6.6,2-9.1,4.4c-4.2,3.9-6.5,8.9-8.2,14.3
				C74.5,301.3,75.3,300.8,76.1,300.6z M469.2,320.1c-2.5-1-5-2-7.6-3c-4.1-1.6-8.5-2.9-12.7-4.2c-4.5-1.4-9.1-2.3-13.7-3.4
				c-5-1.2-10.2-2-15.2-2.7c-4.6-0.7-9.3-1.2-13.9-1.6c-8.1-0.7-16.2-0.9-24.3-0.8c-6.2,0-12.2,0.4-18.3,0.8c-2.8,0.3-5.5,0.7-8.4,1
				c-4.3,0.5-8.6,1.1-12.9,1.9c-3.3,0.6-6.6,1.2-9.8,2c-1.7,0.5-3.5,0.7-5.2,1.2c-3.2,0.8-6.5,1.6-9.6,2.7c-2,0.7-4.2,1.1-6.2,1.9
				c-5,2-10.2,3.7-15,6.2c-3.2,1.6-6.2,3.1-9.3,4.7c-2.3,1.3-4.6,2.7-6.9,4c-3.1,1.9-6.1,3.9-8.9,6.1c-2.8,2.1-5.7,4.4-8.6,6.7
				c-1.8,1.3-3,1.3-4.7,0c-1.2-0.8-2.3-1.8-3.4-2.7c-2.4-2-4.9-3.9-7.6-5.8c-3.5-2.4-7.2-4.7-10.9-7c-1.3-0.8-2.8-1.4-4.1-2.2
				c-3.1-2-6.6-3.3-9.9-4.8c-2.3-1.2-4.8-2-7.4-3c-2.3-0.9-4.7-1.9-7.3-2.6c-1.9-0.6-3.7-1-5.5-1.7c-2.9-1.1-6-1.8-8.9-2.5
				c-1.9-0.5-3.7-0.7-5.7-1.3c-2.4-0.7-5-1.1-7.6-1.6c-2.7-0.5-5.4-0.8-8.2-1.3c-4-0.7-8.2-1.1-12.2-1.6c-5.1-0.6-10.3-0.8-15.6-0.9
				c-6.8-0.1-13.6-0.2-20.5,0.2c-5.9,0.4-11.6,0.7-17.5,1.6c-3.8,0.6-7.7,1-11.6,1.7c-3.5,0.7-7.2,1.2-10.6,2.1
				c-3.3,0.8-6.6,1.6-9.9,2.4c-3.1,0.8-6.1,2-9.1,2.9c-3.7,1.1-7.4,2.7-11,4c-0.8,0.4-1.7,0.6-2.6,1.3c0.7,0.7,1.4,1.3,2,1.9
				c2.4,1.9,4.6,4.1,7.1,6.1c0.7,0.5,1.2,1,1.7,1.7c1.2,0.6,2.1,1.6,3.1,2.2c3.1,2.6,6.2,5.2,9.3,8c2,1.8,4,3.7,6.2,5.4
				c2.4,2,4.6,4.1,7.1,6.2c1,0.8,2,1.8,3,2.7c2.4,2.2,5.1,2.8,8.3,1.8c2.1-0.7,4.3-1,6.5-1.5c3.3-0.8,6.7-1.2,10-2
				c1.9-0.5,3.8-0.7,5.8-0.9c2.8-0.4,5.5-0.7,8.4-1.1c2.9-0.4,5.9-0.7,8.8-0.8c9.1-0.7,18.4-1.3,27.4-0.9c5.8,0.3,11.5,0.7,17.1,1.2
				c3.6,0.4,7.4,0.7,10.9,1.3c3,0.5,6.1,0.8,8.9,1.7c1.7,0.5,3.4,0.7,5.2,1.1c3.9,0.8,7.8,1.9,11.6,3c3.7,1.1,7.6,2,11.3,3.4
				c4.6,1.8,9.2,3.4,13.7,5.3c4.6,2,9,4.2,13.6,6.2c1.8,0.7,3.4,0.8,5.1,0c3.9-1.8,7.9-3.7,11.9-5.4c3.6-1.5,7.3-3.1,10.9-4.4
				c4.3-1.6,8.7-3.1,13-4.4c4.2-1.2,8.5-2.4,12.8-3.4c2-0.5,4.1-0.7,6.2-1.2c3-0.7,6.1-1.2,9-1.7c3.4-0.6,6.9-0.8,10.2-1.3
				c4.8-0.7,9.8-0.7,14.6-1.1c4.7-0.5,9.5-0.3,14.3-0.2c6.5,0.1,12.9,0.7,19.4,1.2c3.9,0.4,7.9,0.7,11.7,1.3
				c3.2,0.4,6.4,0.8,9.6,1.6c2.1,0.6,4.4,0.8,6.7,1.3c2.9,0.6,6,1.2,8.9,2c0.8,0.3,1.8,0.6,2.7,0.7c1.6,0.1,3-0.6,4.3-1.5
				c1.4-0.9,2.7-2.1,3.9-3.3c2.2-2,4.6-4,7-6.1c6.1-5.3,12.1-10.6,18.3-15.8c0.2-0.3,0.5-0.4,0.7-0.6c2.5-2.3,5.1-4.6,7.9-6.9
				c0.9-0.7,1.9-1.6,2.5-2.5C469.6,320.2,469.4,320.2,469.2,320.1z"/>
		</g>
	</g>
	<g>
		<g>
			<radialGradient id="SVGID_4_" cx="260.5705" cy="161.0958" r="115.3576" gradientUnits="userSpaceOnUse">
				<stop  offset="0" style="stop-color:#DAC37B"/>
				<stop  offset="1" style="stop-color:#D2A153"/>
			</radialGradient>
			<path class="st3" d="M294.5,181.4c-1.1,0.9-1.5,2.3-2.6,3.2c-0.4-0.1-0.6-0.3-0.8-0.5c-0.9-0.7-1.7-1.5-2.8-1.9
				c-0.6-0.3-1.2-0.2-1.7,0.3c-0.5,0.6-0.9,1.2-1.3,1.8c-0.8,1.4-0.8,1.4,0.6,2.1c0.2,0.1,0.3,0.2,0.5,0.3c0.8,0.5,1.5,1.1,2.2,1.8
				c0.8,0.8,1.1,0.8,1.8-0.1c0.4-0.5,0.8-1,1.2-1.5c1-1.1,1.2-1.1,2.4-0.3c0.9,0.6,1.7,1.5,2.7,2.1c0.9-1.3,1.8-2.5,2.7-3.8
				C298.3,183.4,296.6,182.3,294.5,181.4z M186.4,130.7c0.9-0.8,1.5-1.7,2.2-2.5c0.5-0.5,0.9-0.5,1.4-0.2c0.8,0.5,1.5,1,2.2,1.7
				c0.5,0.5,0.7,0.5,1-0.1c0.5-0.7,1-1.4,1.4-2.1c0.6-0.9,0.6-0.9-0.2-1.6c-0.9-0.9-2-1.4-3.1-2.1c-0.5-0.3-0.7-0.2-1,0.2
				c-0.6,0.8-1.1,1.6-1.9,2.4c-0.3-0.2-0.6-0.4-0.9-0.6c-0.6-0.6-1.3-1-2-1.4c-0.5-0.3-1-0.5-1.5,0c-0.9,0.9-1.6,1.9-2,3.2
				C183.7,128.2,185.2,129.3,186.4,130.7z M328,186.2h-0.1c-0.3,0.2-0.7,0.8-1.2,1.8v0.1c0.6,0.9,1.1,1.4,1.6,1.4h0.2l0.4-0.3h0.2
				c0.5,0.6,1.1,1.8,1.7,3.7c0.1,1.1,0.3,1.7,0.4,1.7c0.2,0,0.5-0.6,0.9-1.7c0.6-3.7,1.2-5.7,1.9-5.7l0.4,0.1
				c0.6,0.6,0.9,0.9,0.9,0.9c0.2,0,0.4-0.4,0.6-1.3v-0.1c0-0.2,0-0.3-0.1-0.4c-0.5-0.9-0.9-1.3-1.4-1.3c-1.2,0-2.2,2.1-2.9,6.5h-0.1
				v-0.1C330.9,188,329.6,186.2,328,186.2z M202.1,122.2c2.2,1.9,4.8,2.8,7.8,3c3.5,0.2,6.9-0.7,10.1-1.9l4.3-2
				c3.2-1.6,6.2-3.6,8.8-6.2c0.9-0.9,1.7-1.8,2.1-3c0.5-1.6,0.9-3.1,1-4.8c0-0.8,0.1-1.6,0.4-2.3c5.5-0.4,5.2-0.8,8.1-4.1
				c0.5,0,0.7,0.4,0.9,0.7c0.8,1.1,1.9,1.7,3.3,1.5c1.2-0.2,2.2-0.7,2.9-1.6c1.6-2.2,2-4.8,1.4-7.6c-0.1-0.4-0.3-0.8-0.6-1.2
				c-0.3-0.4-0.6-0.5-0.8,0.1c-0.3,0.7-0.5,1.5-0.8,2.2c-0.3,0.8,0.1,1.4,0.5,2.1c0.4,0.8,0.3,1-0.5,1.3c-0.6,0.2-1.2,0.2-1.7,0.1
				c-1.9-0.2-2.8-1.4-2.2-3.3c0.1-0.5,0.3-1,0.1-1.5c-0.4-0.1-0.7,0.1-0.8,0.4c-0.5,0.9-1.3,1.7-1.8,2.6c-0.8,1.6-2,2.6-3.8,3.1
				c-2.1,0.6-5.4-0.1-6.6-2.5c-0.2-0.5-0.3-1.1-1.1-1.5c-0.7,0.8-0.7,1.7-1,2.6c-0.3,0.9-0.2,1.9,0.3,2.7c1.2,1.9,1.8,4,2.3,6.3
				c0.3,1.3,0,2.3-0.9,3.3c-2.4,2.3-5.2,4.1-8.2,5.8c0,0-1.2,0.6-4.7,2.1c-2.5,1-5.2,1.6-7.9,1.8c-4,0.3-7.8-0.1-10.8-3.1
				c-1.7-1.7-2.7-3.6-3-6c-0.2-1.3-0.1-2.6,0.3-4c0.3-1.2,0.4-2.5,0.7-3.8c0-0.2,0-0.3-0.2-0.4c-0.1,0-0.2,0-0.2,0
				c-0.1,0.1-0.1,0.2-0.2,0.3c-0.7,1.3-0.9,2.8-1.2,4.2c-0.6,3.8-0.4,7.6,1.3,11.2C200.3,120.2,201.1,121.3,202.1,122.2z M196.6,206
				c0.3-0.4,0.7-0.9,1.1-1.3c0.8-1.1,0.9-1.1,2.1-0.3c0.8,0.5,1.5,1.3,2.4,1.9c0.8-1.1,1.6-2.2,2.4-3.4c-1.2-1.4-2.7-2.4-4.4-3.2
				c-0.9,0.8-1.3,2-2.3,2.8c-0.4-0.1-0.5-0.3-0.7-0.4c-0.8-0.7-1.5-1.3-2.5-1.7c-0.6-0.3-1.1-0.2-1.5,0.3c-0.4,0.5-0.8,1-1.1,1.6
				c-0.7,1.3-0.7,1.3,0.6,1.9c0.2,0.1,0.3,0.2,0.4,0.3c0.7,0.4,1.4,0.9,1.9,1.6C195.7,206.8,196,206.8,196.6,206z M191.9,194.1
				c0.8-0.6,1.4-1.3,1.9-2.1c0.3-0.4,0.2-0.8-0.4-0.9c-1.1-0.3-2.2-0.3-3.3-0.1c-0.1,0-0.3,0.1-0.4,0.2c-0.4,0.5-0.7,1.1-0.8,1.8
				c0.3-0.1,0.5-0.3,0.7-0.3c1,0,2,0,3,0.2c-0.8,0.7-1.8,1.1-2.7,1.5c0.6,0.1,1.2,0,1.8-0.1C191.8,194.2,191.8,194.2,191.9,194.1z
				 M194.9,178.4c2.1-2.5,4.1-4.9,6.6-7.3c2.2-2,4.5-3.8,7.3-4.9c2.3-0.9,4.6-1.1,6.9,0.2c1.2,0.7,2.4,1.5,3.6,2.3
				c1.5,1,1.5,1,1,2.7c-0.1,0.5-0.2,0.9,0,1.4c0.5,0,0.7-0.3,0.8-0.7c0.1-0.3,0.3-0.6,0.4-0.9c0.2-0.6,0.5-0.8,1.2-0.6
				c1.9,0.4,3.8,0.9,5.9,0.7c2.8-0.3,5.7-0.8,8.4-2c0.9-0.4,1.7-0.9,2.9-1.1c0,1.1-0.1,2.2,0.1,3.2c0.4,2,1.8,3.8,3.9,4.1
				c1,0.1,2,0.2,2.9,0c0.4,2.8,1.4,5.2,2.9,7.2c2.1,2.7,5,4.1,8.7,4.1c3.9,0,8.4-1.5,13.3-4.4c4.4-2.7,8.3-6,11.5-9.7
				c3.2-3.8,4.7-7,4.6-9.5c0.7,5.8,1.7,9.6,3,11.6c0.8,1.3,2,2,3.6,2.4c0.5,0.1,1,0.2,1.6,0.3c8.1,0.8,13.3-5.5,13.3-5.5
				c0.4,1.3,0.6,2.8,1.3,4.1c1.2,2,2.9,3.1,5.2,3c2.2-0.1,3.4-1.5,4.4-3.4c0.5-0.9,0.6-2,1.2-2.9c0.5,0.1,0.6,0.4,0.7,0.8
				c0.3,1,0.9,1.9,1.5,2.7c1.7,2.2,5.3,3.1,8,1.9c2.7-1.2,3.9-3.7,4.9-6.3c1.4-3.4,1.6-7.1,1.6-10.7c-0.3-3.3-0.7-7.2-0.9-11
				c-0.1-2.5-0.2-5-0.5-7.6c-0.3-3-0.4-6.1-0.6-9.1c0-0.5,0.1-0.9,0.5-1.4c0.9-1,1.3-2.3,1-3.7c-0.3-1.2-0.6-2.4-1.4-3.3
				c-1.4-1.6-1.7-3.4-1.7-5.4v-2.2c-0.7,0.2-0.9,0.6-1,1c-0.7,1.9-1,3.9-1.2,6c-0.2,1.9,0,3.9,0.3,5.9c0.4,2.1,0.3,4.2,0.5,6.4
				c0.6,4.7,0.7,9.6,1.1,14.4c0.3,2.8,0.4,5.8,0.6,8.6c0.2,3.3,0.4,6.6,0.2,9.9c0,0.8-0.2,1.5-0.8,2.1c-2,1.7-4.3,2.4-7,1.7
				c-0.6-0.1-1.1-0.5-1.6-0.9c-1.6-1.4-2.1-3.3-2.5-5.3c-0.9-4.3-1.6-8.8-3.1-13c-0.3-0.8-0.4-1.8-1.3-2.4c-1.2,1.8-1.6,3.7-1.2,5.8
				c0.3,2.1,1.3,4.1,1.6,6.3c0.4,2,1,3.9,1.1,6.1c0.1,2.3-0.8,3.8-3.4,4c-2.4,0.2-4.2-0.4-4.7-3.1c-0.2-1.1-0.2-2.2-0.1-3.3
				c0.1-1-0.5-1.5-1.1-0.7c-4,6.3-14.8,5.5-14.8,5.5s-0.1,0-0.2,0.1c-2.3-0.1-3.9-2.2-5-6.3c-0.5-2-1.1-6.8-1.9-14.1
				c-0.8-7.1-1.6-13-2.4-17.8c-1.8-10-3.1-15-3.8-15c-0.6,0-1.1,1.6-1.6,4.8c3.5,19.1,5.2,31.5,5.2,37.2c0,0.9,0,1.6-0.1,2.1
				c-0.4,2.5-3.8,6.2-10.3,10.9c-6.8,4.9-12.2,7.5-16.2,7.5c-5.4,0-8.9-2.1-10.3-6.4c1.7-0.6,3.2-1.4,4.7-2.2
				c1.1-0.6,1.1-0.5,1.8,0.6c1.2,1.9,2.6,3.5,4.8,4.2c1.9,0.6,3.7,0.3,4.8-2c1-2.3,1-4.6,0.2-6.9c-1-2.6-2.4-3.4-5.2-3.1
				c-1,0.1-2,0.2-3,0.5c-0.6,0.2-0.9,0-1.1-0.6c-0.5-1.9-0.8-3.8-1.1-5.9c-0.4-3.3-0.8-6.8-0.9-10.1c-0.1-3-0.7-6.2-0.6-9.2
				c0-0.4-0.1-0.7,0.2-1.1c1.7-1.6,1.4-3.3,0.6-5.2c-0.3-0.6-0.6-1.2-1-1.7c-1.1-1.4-1.1-3-1.2-4.6c0-0.6,0.2-1.2-0.2-1.8
				c-0.6,0.2-0.7,0.6-0.9,1.1c-0.4,1.3-0.5,2.6-0.8,3.9c-0.4,1.7-0.4,3.5-0.1,5.2c0.2,1.6,0.5,3.3,0.6,4.9c0.2,3,0.4,6,0.6,9
				c0.4,5.4,0.9,10.9,2.1,16.2c0.3,1.2,0.1,1.3-1,1.9c-1.3,0.8-2.7,1.3-4.1,1.8c0,0,0,0,0-0.1c0-3.4,0.6-6.6,1.9-9.5
				c0.3-0.7,0.4-1.2,0.4-1.5c0-0.3-0.1-0.4-0.2-0.4c-0.4,0-0.8,0.5-1.3,1.6c-1.6,3.5-2.5,7-2.8,10.4c-1,0.2-2.1,0.1-3.2-0.3
				s-1.7-1.1-1.9-2.3c-0.2-1.1,0.6-1.4,1.2-1.9c0.2-0.1,0.4-0.3,0.6-0.4c1.2-0.8,2.3-1.8,2.9-3.2c0.5-1.2,0.9-2.5,1.4-3.8
				c0.4-1,0.3-1.9-0.1-2.7c-1.1-2-2.3-3.8-4.4-5c-1.4-0.8-2.9-1.5-4.5-1.6c-2.2-0.1-4.1,0.8-5.9,2c-2,1.4-3.6,3.2-4.9,5.2
				c-1.6,2.3-3.1,4.7-4.6,7.2c-0.6,1-0.9,1.1-1.9,0.4c-0.6-0.4-1.1-0.7-1.7-1.1c-2.8-2.1-6-3.2-9.5-2.3c-2.5,0.6-4.6,1.9-6.7,3.5
				c-2.7,2.1-4.9,4.5-7.2,7.1c-2.2,2.5-4.2,5.1-6.6,7.5c-1.4,1.4-2.9,2.7-4.9,3.2c-2.2,0.6-4.3-1-4.5-2.9c-0.2-1.8-0.1-3.7,0.5-5.4
				c0.8-2.3,1.4-4.6,2.2-7c1.1-3.1-0.5-0.6-0.5-0.6c-0.1,0.3-0.2,0.6-0.3,0.9c-0.1,0.2-0.2,0.4-0.3,0.6c-1.3,2.9-2.6,5.9-2.9,9.2
				c-0.3,3.4,0.5,6.4,3.4,8.4c1.1,0.8,2.3,1.1,3.6,0.8c1.6-0.3,3-1.2,4.2-2.3C191.9,182.2,193.4,180.3,194.9,178.4z M261.9,171.2
				c0.6,0.1,1.1,0.5,1.4,0.8c0.5,0.5,0.4,1.1-0.2,1.3c-1.3,0.6-4-0.5-4.7-2.2C259.6,171,260.8,171,261.9,171.2z M224.1,165.2
				c1.6-2.7,3.4-5.3,5.8-7.6c1.4-1.4,3-2.4,5-2.9c2.5-0.6,4.7,0.1,6.9,1.4c1.1,0.7,2.1,1.7,3,2.7c1.1,1.2,1,1.9-0.3,2.7
				c-2.6,1.8-5.3,3.3-8.4,4.1c-2.4,0.7-4.9,1.2-7.9,1.2c-0.9-0.1-2.3,0.1-3.6-0.4C223.7,166.2,223.6,166,224.1,165.2z M213.5,108.8
				c-1.2,2-1.5,3.9-1,6.1c0,0.1,0.1,0.2,0.1,0.3c0.4,0.7,1.1,1,1.9,1.1s1.1-0.6,1.3-1.1c0.4-0.9,0.8-1.8,0.9-2.8
				c-0.6,0.1-0.5,0.6-0.7,1c-0.3,0.4-0.5,0.8-1.1,0.7c-1-0.2-1.8-1.1-1.8-2.2c0-0.7,0.1-1.3,0.4-1.9
				C213.5,109.5,213.7,109.3,213.5,108.8z M187.1,152.7c0.1-0.3,0.2-0.5,0.6-0.5c0.3,0.1,0.2,0.4,0.3,0.7c0.4,2.2,1,4.5,2.1,6.6
				c1.2,2.2,2.7,4.1,5.3,4.7l2,0.1c1.8,0,3-1.1,3.7-2.6c1.7-3.3,1.6-6.9,0.5-10.3c-0.3-1.1-1-2-1.8-2.8c-0.6,0.3-0.6,0.8-0.7,1.2
				c-0.5,1.4-0.8,2.8,0.3,4.2c0.5,0.7,0.8,1.5,1.1,2.3c0.3,0.7,0.2,1.3-0.3,1.9c-1.1,1.2-3.5,1.6-5.1,0.6c-2.2-1.3-3.7-3.2-4.4-5.7
				c-1-2.9-1.3-6.1-2.1-9c-0.4-1.6,0-2.5,1.1-3.6c1-0.9,1.8-2.2,2.2-3.6c-0.5-0.2-0.8,0.1-1,0.2c-0.7,0.7-1.5,1.2-2.2,1.8
				c-0.3,0.3-0.6,0.5-1,0.3c-0.8-1.6-1-3.5-2-5.1c-0.7,0.9-0.9,1.8-1.2,2.6c-0.4,0.9-0.6,1.9-0.2,2.9c0.7,1.8,0.6,1.8-0.9,3.1
				c-0.2,0.2-0.4,0.3-0.6,0.5c-2.1,1.8-4.2,3.6-5.5,6.1c-1.2,2.1-1.8,4.3-1.5,6.8c0.2,1.4,1,2.1,2.4,2.1c1.9,0,3.6-0.6,5.3-1.4
				C185.2,156.2,186.6,154.8,187.1,152.7z M178.3,153.3c-0.8-0.2-0.9-0.4-0.7-1.2c0.1-0.2,0.2-0.4,0.3-0.5c1.4-1.9,3-3.6,4.8-5.1
				c0.8-0.7,1.4-1.6,2.6-2c0.4,0.7,0.5,1.4,0.7,2.1c0.1,0.6,0.2,1.2,0.4,1.7c0.5,1.4-0.1,2.4-1.2,3.2c-1.8,1.3-3.8,1.9-6.1,1.9
				C178.9,153.4,178.6,153.4,178.3,153.3z M330.7,211h-0.6l-0.2,0.1c0-0.1,0-0.1-0.1-0.1h-0.6c-1.5,0-2.2-0.4-2.2-1.2v-0.1
				c0-0.5,0.2-1,0.7-1.6c3.3-3.2,4.9-5.3,4.9-6.4c0-1.1-1.1-1.7-3.2-1.7c-0.9,0-1.4,0.1-1.4,0.2c-0.8,0-1.5,0.8-2.1,2.3
				c0,0,0,0.1,0.1,0.3c0.8-0.3,1.4-0.5,1.8-0.5c1.7,0,2.6,0.2,3,0.7l-1.4,1.5c-2.4,2.2-3.6,4.1-3.6,5.7v0.7c0,1.1,0.9,1.8,2.6,2.2
				h1.2c2.7,0,5.1-1,7.4-3.1l-0.1-0.2C334.2,210.7,332.1,211,330.7,211z M319.7,196.6c-0.2-0.7-0.5-1.3-0.9-1.9
				c-0.9-1.4-1.7-2.9-1.7-4.7c0-0.7,0.1-1.5-0.2-2.2c-0.7,0.5-0.7,0.6-1,1.5c-0.9,3.1-0.8,6.4-0.6,9.6c0.2,2.8,0.6,5.7,0.8,8.5
				c0.2,3.9,0.6,7.8,0.9,11.7c0.3,4.4,0.5,8.8,0.2,13.2c0,0.3-0.1,0.7,0.2,0.9c0.4-0.1,0.5-0.5,0.6-0.8c1.4-3.3,2-7,1.9-10.5
				c0-4-0.4-8.1-0.8-12.2c-0.2-2.5-0.4-5-0.6-7.6c0-0.4,0.1-0.8,0.4-1.1C320,199.6,320.1,198.1,319.7,196.6z M212.8,132.7
				c0.3-0.6,0.7-1.2,0.9-2c-0.3,0.2-0.4,0.5-0.6,0.7c-0.3,0.5-0.6,1.1-0.9,1.7c-1,1.8-2.2,3.5-2.5,5.5c0,0.2-0.1,0.4-0.1,0.6
				c-0.2,1.6,0.5,3.1,1.9,4l0.1,0.1c1,0.2,1.3,0.1,1.8-0.9c0.2-0.5,0.5-0.9,0.6-1.4c0.3-0.7,0.9-2.3,0.5-2.3
				c-0.2,0.1-0.3,0.2-0.4,0.4c-0.2,0.5-0.4,0.9-0.7,1.4c-0.3,0.4-0.6,0.5-1.1,0.3c-0.9-0.3-1.6-1-1.7-1.9c-0.2-1.1,0.1-2.1,0.5-3
				C211.7,134.9,212.3,133.9,212.8,132.7z M284.1,99.8c0,0-3.4,1.3-4.8,2.1c-0.9,0.5-1.3,1.3-1.6,2.4c2.3-1,4.5-1.9,6.9-2.8
				C284.5,100.4,284.1,99.8,284.1,99.8z M293.9,92.5c0.9-1,1.3-2.3,1.3-3.7c-0.3,0.4-0.5,0.8-0.7,1.2c-0.3,0.6-0.8,0.6-1.2,0.4
				c-1.5-0.8-1.9-1.7-1.5-3.3c0.2-0.8,0.6-1.5,1-2.1c0.6-1.1,1.2-2.3,1.8-3.4c-1.1,1.5-2.1,3-2.9,4.7c-0.6,1.2-0.8,2.5-0.8,3.9
				c0,0.7,0.2,1.4,0.6,1.9C292.2,92.7,293.5,93,293.9,92.5z M291.5,98.7c1.8-0.7,3.5-1.3,5.3-1.9c2-0.8,4.1-1.4,6.3-2
				c0.2-0.1,0.3-0.1,0.4-0.3c0.4-0.6,0.9-1.2,1.3-2c-0.6,0.2-1,0.3-1.5,0.5c-2,0.6-3.9,1.4-6,2.1c-2.8,0.9-8.6,3.1-8.6,3.1l0.3,1.3
				C289.1,99.6,290.8,99,291.5,98.7z M306.3,127.5c-0.6,0.1-0.9,0.4-1.2,0.9c-0.6,1.1-0.8,2.2-0.7,3.5c0.1,0.8,0.1,1.6,0.2,2.4
				c0,0.4,0,0.7-0.2,1c-0.4,0.1-0.4-0.2-0.5-0.5c-0.3-0.7-0.5-1.3-0.7-2c-0.6-2-1.9-3.3-3.7-4.3c-0.2-0.1-0.5-0.1-0.8,0
				c-0.1,0.7-0.2,1.3-0.1,2c0.1,0.8,0.6,1.2,1.3,1.4c0.4,0.1,0.8,0.2,0.9-0.4c0.3,0,0.5,0.2,0.6,0.4c0.6,0.6,1,1.2,1.4,1.9
				c0.3,0.8,0.6,1.6,0.9,2.3c0.2,0.4,0.4,0.9,0.8,0.8c0.5,0,0.5-0.6,0.6-1c0.2-1.3,0.3-2.7,0.1-4.1c-0.1-0.6-0.1-1.3,0.1-1.9
				c0.2-0.6,0.5-0.7,1-0.3c0.2,0.1,0.3,0.4,0.4,0.6c0.1,0.2,0.1,0.6,0.4,0.9c0.3-0.9,0.7-1.7,0.3-2.7
				C307.2,127.9,306.8,127.6,306.3,127.5z M300.2,148.1c1.3-0.8,2.6-1.4,3.8-2.1c2.7-1.4,5.4-2.8,8.2-4.1c2.3-1.1,4.6-2.3,7.1-3.4
				c2.6-1.2,5.1-2.4,7.8-3.5c0.3-0.2,0.7-0.3,0.9-0.6c0.4-0.6,0.8-1.2,1-1.9c-0.4-0.1-0.6,0-0.8,0.2c-1.2,0.7-2.5,1.3-3.7,1.8
				c-2.4,1-4.8,2.2-7.2,3.3c-2.4,1.1-4.7,2.2-7.2,3.4c-2.9,1.5-6,2.7-8.7,4.4C300.7,146.1,300,147.4,300.2,148.1z M308.1,148.9
				c-0.3-0.1-0.7-0.2-0.9,0.3c-0.6,1.2-1.6,2.3-2.1,3.7c1.7,0.8,3.4,1.4,4.7,2.6c0.3,0.2,0.6,0.1,0.8-0.2c0.7-1.1,1.4-2.2,2.1-3.4
				c0.3-0.6,0.1-1.1-0.5-1.4C310.8,149.9,309.5,149.4,308.1,148.9z M342.1,152.3c0.3,4.2,0.6,8.5,0.9,12.7c0.4,4.8,0.5,9.6,0.2,14.4
				c0,0.4-0.1,0.7,0.3,1c0.4-0.1,0.5-0.5,0.6-0.8c1.5-3.6,2.1-7.6,2.1-11.5c0-4.4-0.5-8.9-0.8-13.2c-0.1-2.8-0.3-5.5-0.5-8.3
				c0-0.5,0.1-0.8,0.4-1.2c1.2-1.3,1.3-2.9,0.8-4.6c-0.2-0.7-0.6-1.5-1-2.1c-1-1.6-1.8-3.2-1.9-5.2c0-0.8,0.1-1.6-0.2-2.4
				c-0.8,0.6-0.8,0.6-1.1,1.6c-1,3.4-0.9,7-0.6,10.5C341.6,146.3,341.9,149.3,342.1,152.3z M235.8,135.2c-0.7,0.7-1.3,1.4-1.8,2.2
				c-0.3,0.4-0.6,0.6-1.1,0.3c-0.5-0.3-1.1-0.4-1.6-0.4c-1.1,0.1-2,0.6-2.9,1.2c-1.9,1.3-3.8,2.6-5.7,3.8c-2.4,1.4-4.9,2.7-7.5,3.8
				c-0.2,0.1-0.3,0.2-0.4,0.4c0.4-0.2,0.9-0.2,1.3-0.3c1.7-0.5,3.4-1.2,5-2.1c1.4-0.8,2.9-1.5,4.3-2.4c1.1-0.7,2.3-1.4,3.5-2.1
				c0.6-0.3,1.3-0.5,2-0.3c0.7,0.2,1.4,0.6,1.8,1.4c0.4-0.4,0.8-0.3,1.2-0.3c1.5-0.1,2.8-0.5,3.9-1.6c0.8-0.8,1.4-1.8,1.8-2.9
				c0.3-0.8,0.2-1.2-0.6-1.5C237.9,133.9,236.7,134.2,235.8,135.2z M237.6,137.6c-1.1,0.8-2.2,0.7-3.6,0.5c0.5-0.9,1.2-1.4,1.9-1.8
				c0.4-0.2,0.9-0.4,1.4-0.2c0.4,0.1,0.7,0.3,0.8,0.8C238.2,137.3,237.8,137.4,237.6,137.6z M214.9,99.8c-1.7,1.3-3.6,2.2-5.5,3.1
				c1.2,0.2,2.4,0,3.6-0.3c0.1,0,0.3-0.1,0.4-0.2c1.6-1.2,2.9-2.5,3.9-4.2c0.5-0.9,0.4-1.6-0.8-1.9c-2.2-0.6-4.5-0.6-6.8-0.2
				c-0.3,0-0.6,0.1-0.7,0.3c-0.8,1-1.3,2.2-1.6,3.6c0.6-0.2,0.9-0.6,1.5-0.6C210.9,99.4,212.9,99.4,214.9,99.8z M233.5,85.8
				c0.5,0.2,1.1,0.2,1.2-0.6c0.4,0.1,0.6,0.3,0.8,0.5c0.8,0.8,1.4,1.7,1.9,2.7c0.5,1.1,0.9,2.2,1.3,3.3c0.2,0.6,0.5,1.2,1.1,1.2
				c0.7,0,0.8-0.9,0.8-1.4c0.3-1.9,0.5-3.8,0.2-5.8c-0.1-0.9-0.1-1.8,0.1-2.7c0.2-0.8,0.7-1,1.4-0.5c0.3,0.2,0.4,0.5,0.6,0.8
				c0.2,0.3,0.1,0.8,0.5,1.2c0.4-1.3,1-2.4,0.4-3.7c-0.3-0.7-0.8-1.1-1.5-1.2c-0.8-0.1-1.2,0.4-1.5,1c-0.8,1.5-1.2,3.1-1,4.9
				c0.1,1.1,0.2,2.3,0.2,3.4c0,0.5,0,1-0.2,1.4c-0.6,0.1-0.6-0.3-0.7-0.6c-0.4-0.9-0.7-1.9-1-2.8c-0.8-2.8-2.7-4.6-5.2-6
				c-0.3-0.2-0.7-0.2-1.2,0c-0.2,1-0.3,1.9-0.2,2.8C231.8,85,232.5,85.5,233.5,85.8z M244.7,116.4c-3.6,1.6-7.3,3.2-10.9,4.7
				c-1.6,0.6-3.1,1.4-4.6,2.1c-0.2,0.1-0.5,0.1-0.4,0.5c0.3,0.1,0.6,0.1,0.9,0c2.2-0.4,4.4-0.8,6.7-1.4c2.5-0.7,5-1.2,7.6-1.8
				c1.6-0.4,3.3-0.6,4.8-1.4c2.4-1.4,5-2.6,7.5-4.1c1.3-0.9,2.7-1.6,3.9-2.6c0.7-0.5,1.3-1.2,2.2-1.5c0-0.1,0-0.3,0.2-0.2
				c0.1,0.1,0.1,0.2,0,0.3c-0.1,0.4-0.2,0.9-0.3,1.3c-0.7,2.6-1,5.2-0.7,8c0.1,0.8,0.4,1.6,0.8,2.3c1,1.9,2.7,2.4,4.7,2.2
				c1.8-0.2,3.5-0.5,5.2-1.3c0.4-0.2,0.7-0.4,1.3-0.3c0.1,1.2,0.1,2.4,0.1,3.6s-0.2,2.4-0.1,3.7c0.5-0.2,0.6-0.6,0.7-0.9
				c0.9-2.3,1.5-4.7,1.7-7.3c0-0.7,0.3-1.1,0.9-1.4c2.8-1.7,5.2-3.9,7.5-6.4c1.2-1.4,2.1-2.9,2.5-4.6c0.1-0.2,0.1-0.5,0.5-0.5
				c0.1,0.9,0.4,1.8,0.6,2.8c0.2,1.6,0.5,3.2,1.1,4.7c0.8,1.8,1.9,3,3.9,3.3c1.5,0.3,2.9,0.2,4.3-0.2c0.8-0.3,1.4-0.4,1.8,0.5
				c0.4-0.1,0.4-0.3,0.4-0.6c0-0.4,0.1-0.7,0.5-1c0.6-0.3,1.1-0.7,1.7-1.1c2.4-1.5,4.2-3.4,4.8-6.3c0.6-2.8,0.5-5.7-1-8.3
				c-0.7-1.1-1.5-1.6-2.7-1.1c-0.5,0.2-0.9,0.5-1.2,1c-1.6,2.1-2.6,4.5-3.1,7.2c-0.2,1.3-0.3,2.6-0.3,3.9c0,0.9-0.2,1.2-1.1,1.3
				c-0.4,0.1-0.7,0.2-1.1,0.2c-2.5,0.4-4.8-0.6-5.5-3.3c-0.5-1.7-0.6-3.5-1-5.3c-0.6-3.2-1-6.6-1.9-9.8c-0.4-1.4-0.8-2.8-1.2-4.3
				c-0.5-1.8-1.2-3.4-2.1-5c-0.6-1.1-1.2-2.2-1.9-3.3c-0.2-0.3-0.4-0.7-0.8-0.6c-0.4,0.1-0.5,0.5-0.5,0.8c-0.1,0.6-0.1,1.3-0.3,1.9
				c-0.3,1.1,0,2.2,0.5,3.2c0.5,1,0.9,2,1.3,3c0.7,1.8,1.4,3.7,2,5.7c0.8,2.4,1.3,4.9,1.5,7.5c0.1,1.2-0.3,2.1-1,3
				c-2.1,2.7-4.7,5-7.7,7c-0.4,0.3-0.8,0.7-1.5,0.6c-0.2-1.1,0-2.3-0.2-3.4c-0.4-2.4-0.5-4.9-0.6-7.4c-0.3-3.8-0.5-7.8-0.8-11.6
				c-0.2-2.2-0.3-4.5-0.4-6.8c0-0.4,0.1-0.8,0.4-1.1c1-0.9,1-2.1,0.8-3.3c-0.2-0.9-0.5-1.7-1-2.5c-0.4-0.5-0.8-1-0.9-1.7
				c-0.3-1.1-0.5-2.3-0.4-3.5c0-0.3,0.1-0.7-0.1-1.1c-0.5,0.1-0.7,0.5-0.8,0.9c-0.3,1-0.5,2-0.7,3c-0.4,3.2-0.1,6.5,0.2,9.7
				c0.6,5.5,0.8,11.1,1.4,16.6c0.4,4.3,0.6,8.8,0.9,13.1c0,0.5-0.1,0.9-0.7,1.1c-2,0.8-4,1.3-6.2,1.3c-2.6,0-3.9-1.1-4-3.8
				c0-0.4,0.1-0.9,0.1-1.3c0.1-1.6,0.6-3.2,1-4.8c0.2-0.7,0.5-1.2,1-1.6c1.7-1.6,2.5-3.6,2.7-6c0.2-2.5-0.5-4.7-1.5-7
				c-0.4-0.9-0.9-1.9-1.1-2.9c0.5-0.4,1,0.2,1.3-0.2c0.1-0.2,0-0.4-0.1-0.5c-1.1-1.4-2.5-2.5-3.6-3.9c-0.3-0.4-0.7-0.2-0.8,0.3
				c-0.2,0.7-0.3,1.4-0.3,2c-0.1,0.6-0.3,1.3,0,1.8c0.8,1.3,1,2.8,1.7,4.2c0.8,1.8,1.6,3.7,2.4,5.7c0.4,0.8,0.3,1.5-0.4,2.2
				c-0.6,0.2-0.9,0.5-1.2,0.8c-1.4,1.1-2.8,2.2-4.3,3.2c-2.5,1.7-5.2,3.1-7.9,4.6C249.5,114.3,247.1,115.3,244.7,116.4z
				 M299.6,110.4c0.5-1.3,1-2.5,2-3.5c0.7-0.7,1.1-0.7,1.8-0.1s1,1.4,1.2,2.3c0.1,0.4,0.1,0.7,0.2,1.1c0.2,0.4,0,0.8-0.2,1.2
				c-0.4,0.5-0.9,1-1.4,1.3c-1.2,0.7-2.5,1.5-3.8,1.9H299C298.8,113.2,299.2,111.8,299.6,110.4z M269.8,135.1
				c-0.2-0.6-0.5-1.2-0.9-1.8c-0.9-1.3-1.6-2.7-1.6-4.3c0-0.7,0.1-1.4-0.2-2c-0.7,0.5-0.7,0.5-1,1.3c-0.9,2.8-0.8,5.8-0.5,8.7
				c0.2,2.5,0.6,5.1,0.7,7.7c0.2,3.5,0.5,7.1,0.8,10.6c0.3,4,0.5,8,0.2,12c0,0.3-0.1,0.6,0.2,0.8c0.4-0.1,0.4-0.4,0.6-0.7
				c1.3-3,1.9-6.3,1.9-9.6c0-3.7-0.4-7.4-0.7-11c-0.2-2.3-0.3-4.5-0.5-6.9c0-0.4,0.1-0.7,0.4-1C270.1,137.7,270.2,136.4,269.8,135.1
				z M304.4,70c3.7,1.8,6.4,0.7,7.5-1.5c0.9-1.9,0.4-3.6-1.5-5.8c-1.4-1.5-2-2.2-1.6-3.1c0.3-0.7,1.2-1,2.6-0.3
				c1.3,0.6,2.1,1.5,2.5,2l1.8-2.1c-0.6-0.7-1.6-1.6-3.1-2.3c-3.1-1.5-6-0.7-7.1,1.6c-0.9,1.9-0.1,3.9,1.8,5.8
				c1.3,1.3,1.7,2.1,1.3,2.9c-0.4,0.9-1.4,1.1-2.8,0.4c-1.3-0.6-2.3-1.6-2.9-2.5l-1.8,2.2C301.6,68.1,302.9,69.2,304.4,70z
				 M208.8,74.5l-2.2-3.9c-1.2-2.1-2.3-3.9-3.3-5.7h0.1c1.5,1.2,3.3,2.3,4.8,3.3l5.7,3.4l3-1.7l-7.4-13l-2.7,1.5l2.1,3.8
				c1.1,1.9,2.1,3.6,3.3,5.2c-1.4-1.1-3.1-2.3-4.6-3.2l-5.3-3.2l-3.4,1.9l7.4,13L208.8,74.5z M226.1,63c1.7,0,2.8-1.1,2.8-2.8
				s-1.3-3.1-2.8-3.1c-1.5,0-2.8,1.4-2.8,3C223.4,61.7,224.6,63,226.1,63z M226.6,238.4c-0.4-0.1-0.5-0.3-0.7-0.4
				c-0.8-0.7-1.5-1.3-2.5-1.7c-0.6-0.3-1.1-0.2-1.5,0.3c-0.4,0.5-0.8,1-1.1,1.6c-0.7,1.3-0.7,1.3,0.6,1.9c0.2,0.1,0.3,0.2,0.4,0.3
				c0.7,0.4,1.4,0.9,1.9,1.6c0.7,0.7,1,0.7,1.6-0.1c0.3-0.4,0.7-0.9,1.1-1.3c0.9-1,1-1,2.2-0.3c0.8,0.5,1.5,1.3,2.4,1.9
				c0.8-1.1,1.6-2.2,2.4-3.4c-1.3-1.4-2.8-2.4-4.5-3.2C228,236.4,227.6,237.6,226.6,238.4z M208.2,181.9c0.8,0.5,1.5,1.3,2.4,1.9
				c0.8-1.1,1.6-2.2,2.4-3.4c-1.2-1.4-2.7-2.4-4.4-3.2c-0.9,0.8-1.3,2-2.3,2.8c-0.4-0.1-0.5-0.3-0.7-0.4c-0.8-0.7-1.5-1.3-2.5-1.7
				c-0.6-0.3-1.1-0.2-1.5,0.3c-0.4,0.5-0.8,1-1.1,1.6c-0.7,1.3-0.7,1.3,0.6,1.9c0,0.1,0.2,0.2,0.3,0.3c0.7,0.4,1.4,0.9,1.9,1.6
				c0.7,0.7,1,0.7,1.6-0.1c0.3-0.4,0.7-0.9,1.1-1.3C206.9,181.2,207,181.2,208.2,181.9z M240.2,199.7c-0.3-2.6-0.4-5.3-0.5-8
				c0-0.5,0.1-0.8,0.4-1.2c0.8-0.9,1.1-2,0.8-3.2c-0.2-1.1-0.6-2.1-1.3-3c-1.2-1.4-1.5-3-1.5-4.8v-1.9c-0.6,0.2-0.8,0.5-0.9,0.9
				c-0.6,1.7-0.9,3.5-1.1,5.2c-0.1,1.7,0,3.4,0.3,5.1c0.3,1.8,0.2,3.7,0.5,5.7c0.5,4.2,0.6,8.5,1,12.7c0.2,2.5,0.3,5,0.5,7.6
				c0.2,2.9,0.4,5.8,0.2,8.7c0,0.7-0.2,1.4-0.7,1.8c-1,0.9-2.2,1.4-3.4,1.7c-1.5,0-2.7-0.9-3-2.9c-0.2-1-0.2-1.9-0.1-2.9
				c0.1-0.9-0.5-1.4-0.9-0.6c0,0-1.2,3.8-5.9,4.7c-3,0.6-6.1-0.6-7.9-3c-0.9-1.2-1.7-2.7-2.1-4c-1.1-3.3-1.4-6.8-2.3-10.1
				c-0.5-1.8,0-2.9,1.3-4c1.2-1.1,2-2.4,2.4-4c-0.5-0.3-0.8,0.1-1.1,0.3c-0.8,0.7-1.7,1.3-2.5,2c-0.4,0.3-0.7,0.6-1.2,0.4
				c-0.9-1.8-1.1-3.9-2.2-5.9c-0.8,1-1,2-1.4,2.9c-0.4,1-0.7,2.1-0.2,3.3c0.8,2,0.7,2.1-1,3.5c-0.2,0.2-0.4,0.4-0.7,0.6
				c-2.3,2-4.7,4.1-6.3,6.9c-1.3,2.3-2,4.8-1.7,7.6c0.2,1.6,1.1,2.4,2.7,2.3c2.1,0,4-0.7,6-1.6c2.1-1,3.6-2.4,4.2-4.8
				c0.1-0.3,0.2-0.6,0.7-0.6c0.3,0.2,0.3,0.5,0.3,0.8c0.5,2.5,1.1,5,2.3,7.4c1.3,2.5,3,4.3,6.1,5.3c0,0,9.3,2.5,9.1-4.9
				c0.3,1.2,0.5,2.4,1.2,3.6c1.1,1.8,2.5,2.7,4.6,2.7c0.8,0,1.6-0.5,2.3-1.3c1.1-0.9,1.8-2.2,2.3-3.5c0.1-0.3,0.3-0.6,0.4-0.9
				c1.2-3,1.4-6.3,1.4-9.4c0-3.6-0.4-7-0.6-10.4C240.5,204.2,240.4,202,240.2,199.7z M208.3,216.2c-2,1.4-4.3,2.1-6.8,2.1
				c-0.3,0-0.7,0-1-0.1c-0.8-0.2-1-0.5-0.7-1.3c0.1-0.2,0.2-0.4,0.4-0.6c1.6-2.1,3.4-4.1,5.4-5.9c0.9-0.7,1.6-1.8,2.9-2.3
				c0.5,0.8,0.6,1.6,0.8,2.4c0.1,0.6,0.2,1.3,0.4,1.9C210.3,214.2,209.5,215.3,208.3,216.2z M249.6,60.5l-0.4-2.7l-6.1,1l-0.6-3.5
				l5.4-0.9l-0.4-2.7l-5.4,0.9l-0.5-3l5.8-0.9l-0.4-2.7l-9.1,1.5l2.4,14.7L249.6,60.5z M368.2,139.4c1.7,0,3.1-1.3,3.1-2.9
				c0.1-2-1.5-3-2.9-3.1c-1.8-0.1-3.2,1.2-3.2,2.9C365.1,138,366.4,139.4,368.2,139.4z M323.4,126.2c2-1.7,2.4-4.2,2.7-6.8
				c-0.6,0.4-0.7,1.1-1.1,1.6c-0.9,1.5-2.2,1.8-3.6,0.7c-1.4-1.1-2.1-2.8-1.5-4.6c0.8-2.5,2.1-4.9,3.2-7.4c0.5-1,1.2-1.8,1.1-3
				c-1,1.7-2,3.4-2.9,5.2c-1.3,2.6-3,5.1-3,8.3c0,1.3-0.1,2.6,0.5,3.8C319.7,125.9,322.3,127.1,323.4,126.2z M290.8,61.2
				c1.7,0,3-1.1,3-2.8c0-1.6-1.3-3-2.9-2.9c-1.4,0-2.9,1.4-2.9,2.9C287.9,59.8,289.3,61.1,290.8,61.2z M279.4,46.6l-3.3-0.5
				L274,60.8l3.3,0.5L279.4,46.6z M261.2,57c1.7,0,2.8-1.1,2.8-2.8c0-1.6-1.2-2.8-2.8-2.9c-1.7,0-2.9,1.5-2.8,2.9
				C258.5,56,259.4,57,261.2,57z M249.3,243.9c-0.8,0-1.3-0.8-1.3-2.5c0-1.1,0.6-3.6,1.9-7.7h-0.2c-1.9,3.3-2.9,6.3-2.9,8.9v1.3
				c0,0.3,0,0.6,0.1,1.1c0.3,1.1,0.9,1.6,1.7,1.6h0.4c1.1,0,1.9-1.6,2.5-4.7l-0.2-0.2C250.6,243.2,249.9,243.9,249.3,243.9z
				 M154.5,140c1.6,0,3-1.5,3-3.1c0-1.8-1.2-2.9-3-2.9c-1.9,0-3.1,1.2-3.1,3C151.3,138.4,153,140.1,154.5,140z M256.3,197.6
				c-1.8,3-2.6,5.8-2.6,8.2v1.2c0,0.2,0,0.6,0.1,1c0.3,1,0.8,1.5,1.6,1.5h0.4c1,0,1.8-1.4,2.3-4.3L258,205h-0.1
				c-0.6,1.4-1.2,2-1.8,2c-0.8,0-1.1-0.8-1.1-2.3c0-1,0.6-3.3,1.7-7.1H256.3z M296.8,211.6v1c0,0.2,0,0.5,0.1,0.8
				c0.2,0.8,0.7,1.2,1.2,1.2h0.3c0.8,0,1.4-1.1,1.8-3.4l-0.1-0.1H300c-0.5,1.1-1,1.6-1.5,1.6c-0.6,0-0.9-0.6-0.9-1.8
				c0-0.8,0.5-2.7,1.4-5.7h-0.1v-0.2C297.5,207.5,296.8,209.7,296.8,211.6z M261.1,262.5h0.3c26.6,0,51.7-10.3,70.3-28.9
				C350.5,215,361,190,361,163.2c0.1-26.6-10.2-51.7-28.9-70.5c-18.8-18.9-43.8-29.3-70.5-29.4h-0.4c-26.4,0-51.4,10.3-70.1,29.1
				c-18.9,18.8-29.3,43.8-29.4,70.4c0.1,26.6,10.3,51.6,29,70.3C209.4,252,234.4,262.5,261.1,262.5z M261.3,66.9h0.3
				c53.4,0.2,96.1,43.2,95.9,96.3c-0.1,53.7-43.1,95.9-96.1,95.9h-0.3c-53.5-0.1-95.8-43.4-95.9-96.2
				C165.5,109.5,208.6,66.9,261.3,66.9z M310,193.4c-0.2-1-0.6-2.1-1.3-2.9c-1.2-1.4-1.5-3-1.5-4.7v-1.9c-0.6,0.1-0.8,0.5-0.9,0.9
				c-0.6,1.7-0.9,3.4-1.1,5.1c-0.1,1.7,0,3.4,0.3,5c0.3,1.8,0.2,3.7,0.5,5.5c0.5,4.1,0.6,8.4,1,12.5c0.2,2.5,0.3,4.9,0.5,7.5
				c0.2,2.8,0.4,5.7,0.2,8.6c0,0.7-0.2,1.3-0.7,1.8c-1.7,1.5-3.7,2-6,1.5v-0.1c-1.6,0-3.1-0.9-4.5-2.6c-1.6-1.9-2.7-4.7-3.4-8.4
				c-1.1-6.2-2.2-10.9-3.3-14.1c-2.9-9-4.8-13.4-5.7-13.4c-0.1,0-0.2,0.1-0.3,0.2l-0.7,4.3c1.2,3.8,2.3,7.3,3.4,10.4
				c1.4,4.3,2.2,6.9,2.3,7.4c0.3,1.5,0.5,2.7,0.7,3.4c-1.3,2.6-3.4,5.1-6.3,7.7c-0.9,0.8-2.2,1.8-4.1,3.2c-2.2,1.6-4.8,3-7.8,4.1
				c-2.3,0.9-3.7,1.3-4.5,1.3c-3,0-4.6-1.3-4.7-4c-0.1-2.2,0.7-5.3,2.6-9.6c1.3-0.8,2.6-1.7,4-2.8c4.3-3.2,7.3-6.1,9-8.6
				c1.1-2.2,1.6-4.7,1.5-7.6c-0.1-3.5-1.3-6.5-3.5-8.7c-1.7-1.7-3.2-2.6-4.5-2.6c-1.4,0-2.7,0.8-3.9,2.3c-1.3,1.6-2,3.6-1.9,6
				c0,2.7,1.5,4,4.3,4c0.3,0,1,0,2.2-0.1c1.5-0.1,2.9,0.2,4.2,0.8c1.1,0.5,1.7,1.1,1.8,1.7c-0.7,1.4-3.5,3.9-8.4,7.5
				c-5.9,4.3-10.6,6.5-14.3,6.5c-6.2,0-9.2-3.4-8.9-10.3c0-1.3,0.2-2.6,0.6-4c0.2-0.7,0.5-1.7,1-2.9c0.4-1.1,0.6-1.8,0.6-2.3
				c0-0.3-0.1-0.4-0.2-0.4c-0.4,0-0.9,0.8-1.5,2.4c-1.2,3.2-1.9,6.1-2.1,8.6v1.3c0,3.3,0.6,6.3,1.8,8.5c1.6,2.9,3.9,4.3,7.2,4.3
				c2.6,0,5.7-0.8,8.8-2.5c-1.4,3.3-2.1,6.5-2.1,9.4c0,5.7,1.9,8.4,5.7,8.4c3.5,0,8-1.8,13-5.5c4.3-3.2,7.5-6.2,9.3-8.9
				c0.7-1.1,1.2-2.4,1.6-4.1c1.4,6.1,2.9,9.9,4.3,11.6c1.9,2.1,4,3.2,6.4,3.2c1.5,0.2,3.6-0.5,3.6-0.5c2.3-1.1,3.4-3.2,4.2-5.4
				c1.2-2.9,1.4-6.2,1.4-9.3c0.3-3,0-6.4-0.2-9.7c-0.1-2.2-0.2-4.3-0.4-6.6c-0.2-2.6-0.4-5.2-0.5-7.9c0-0.5,0.1-0.8,0.4-1.2
				C310,195.7,310.3,194.6,310,193.4z M272.6,199.3h-2.2c-1,0-1.6-0.3-1.9-0.7c0-1.1,0.7-1.7,2-1.7c1,0,2.3,0.8,3.8,2.5
				C273.6,199.3,273.1,199.3,272.6,199.3z M223.9,192.2c-1.9,1-2.9,2.2-2.9,3.5v0.1c0,0.9,0.6,1.3,1.9,1.3c0.9,0,1.6-0.1,2.1-0.3
				c1.9-0.3,3.6-1.1,5.2-2.4l-0.1-0.1c-3,0.7-5.1,1.1-6.6,1.1h-0.1c-1.1,0-1.7-0.2-1.7-0.4v-0.2l0.2-0.2c2.3-1,3.9-2.4,4.9-4.3
				c1.2,0.2,2,0.3,2.4,0.4v-0.1c0.4,0,0.8-0.8,1.2-2.3c0-0.3-0.2-0.7-0.6-1.4c-1.3-1.6-2.7-2.5-4.1-2.8c-0.9,0.1-1.4,0.5-1.4,1.2
				v0.1c0,0.3,0.1,0.6,0.2,1c-0.4,0.8-0.6,1.5-0.6,2.1c0,0.8,0.7,1.4,2.1,1.7C225.5,191,224.8,191.7,223.9,192.2z M227.6,187.2V187
				c1.3,0.7,1.9,1.4,1.9,2v0.1c-0.2,0-0.9-0.1-2.1-0.3C227.5,188.3,227.6,187.8,227.6,187.2z M224.8,188v-0.3c0.5-0.7,0.8-1,1.1-1
				h0.1c0.5,0,0.7,0.5,0.7,1.5l-0.1,0.4C225.7,188.5,225.1,188.4,224.8,188z M221.6,213.2h0.5c3.4-2.7,5.2-5.1,5.2-7.3v-0.7
				c-0.2-1.1-0.7-1.6-1.5-1.6h-0.5c-1.2,0-2,1-2.4,3c0,0.2,0.1,0.3,0.2,0.3c0.5-0.3,0.8-0.5,1.1-0.5h0.9c0.4,0.2,0.6,0.5,0.6,0.9
				v0.1C225.7,208.2,224.3,210.1,221.6,213.2z M285.5,246.7H285l-0.1,0.1c0-0.1,0-0.1-0.1-0.1h-0.4c-1.1,0-1.7-0.3-1.7-0.9v-0.1
				c0-0.4,0.2-0.8,0.6-1.2c2.6-2.4,3.8-4.1,3.8-4.9c0-0.9-0.8-1.3-2.5-1.3c-0.7,0-1.1,0.1-1.1,0.1c-0.6,0-1.1,0.6-1.6,1.8
				c0,0,0,0.1,0.1,0.2c0.6-0.2,1.1-0.4,1.4-0.4c1.3,0,2.1,0.2,2.3,0.6l-1.1,1.2c-1.9,1.7-2.8,3.2-2.8,4.3v0.6c0,0.8,0.7,1.4,2,1.7
				h0.9c2.1,0,3.9-0.8,5.7-2.4l-0.1-0.1C288.2,246.4,286.6,246.7,285.5,246.7z M261.1,256.2h0.3c24.9,0,48.3-9.6,65.9-27
				s27.3-41,27.4-66c0-25-9.6-48.4-27.1-66.1c-17.6-17.7-41-27.3-66-27.4h-0.3c-24.8,0-48.1,9.7-65.7,27.1
				c-17.7,17.6-27.3,41-27.5,66c0.1,24.9,9.7,48.2,27,65.9C212.6,246.4,236.1,256.1,261.1,256.2z M261.2,71.1h0.3
				c51,0.2,91.8,41.3,91.6,92c-0.1,51.3-41.1,91.6-91.7,91.6h-0.3c-51.2-0.1-91.5-41.5-91.6-91.9C169.7,111.9,210.9,71.1,261.2,71.1
				z M369.3,163.1c-0.5,0-0.9-0.4-0.8-1.3c0-0.9,0.3-1.5,0.5-1.9l-1.6-0.5c-0.3,0.5-0.5,1.3-0.5,2.3c0,2.1,1.1,3.4,2.6,3.4
				c1.3,0,2.1-0.9,2.7-2.4c0.4-1.1,0.7-1.5,1.3-1.5c0.6,0,1,0.5,1,1.4c0,0.9-0.3,1.7-0.6,2.2l1.7,0.4c0.3-0.5,0.6-1.5,0.6-2.5
				c0-2.5-1.2-3.6-2.7-3.7c-1.3,0-2.1,0.7-2.7,2.3C370.1,162.6,369.9,163.1,369.3,163.1z M373.6,173l-7.2-0.7l-0.2,2l8.9,0.9
				l0.6-5.6l-1.7-0.2L373.6,173z M300.7,259.5l3.5,8.3l1.9-0.8l-3.5-8.3L300.7,259.5z M370,179c-2.4-0.5-4.8,0.6-5.3,3.3
				c-0.5,2.6,1.1,4.7,3.7,5.2c2.5,0.5,4.8-0.6,5.3-3.2C374.2,181.7,372.9,179.6,370,179z M372.2,183.9c-0.3,1.3-1.7,1.9-3.4,1.5
				c-1.7-0.4-2.8-1.4-2.5-2.7c0.3-1.4,1.8-1.8,3.4-1.5C371.3,181.5,372.4,182.5,372.2,183.9z M219,268.6l1.9,0.7l3.2-8.4l-1.9-0.7
				L219,268.6z M232.9,266.4c-0.4,1.3-0.7,2.5-0.9,3.7l0,0c-0.1-1.1-0.3-2.3-0.6-3.4l-0.9-3.7l-2.3-0.6l-2.4,8.6l1.8,0.5l0.7-2.6
				c0.4-1.4,0.7-2.6,1-3.8l0,0c0.1,1.1,0.4,2.4,0.6,3.5l0.9,3.8l2,0.6l2.4-8.6l-1.8-0.5L232.9,266.4z M210.3,257.7
				c-0.6,1.2-1.2,2.3-1.6,3.4l0,0c0.1-1.1,0.2-2.3,0.2-3.4l-0.1-3.8l-2.1-1.1l-4.3,7.9l1.6,0.9l1.3-2.4c0.7-1.3,1.3-2.4,1.8-3.5l0,0
				c-0.1,1.1-0.1,2.4-0.1,3.5l0,4l1.9,1l4.3-7.9l-1.6-0.9L210.3,257.7z M238.7,266.9l2.4,0.4l-1.2,7.2l2,0.3l1.2-7.2l2.4,0.4
				l0.3-1.7l-6.8-1.2L238.7,266.9z M192.2,242.5l-5.7,6.9l1.6,1.3l5.7-6.9L192.2,242.5z M191.6,253.5l1.7,1.2l1.8-1.5l2.1,1.5
				l-0.7,2.3l1.8,1.2l2.8-9l-2.2-1.5L191.6,253.5z M199.1,249.7c-0.2,0.5-0.4,1.2-0.6,1.7l-0.6,1.9l-1.6-1.1l1.5-1.3
				C198.2,250.5,198.7,250,199.1,249.7L199.1,249.7z M321.8,248l1.5,2.2c0.8,1.1,1.5,2.1,2.2,3l0,0c-0.9-0.6-2-1.2-2.9-1.7l-3.4-1.7
				l-2,1.3l5,7.4l1.5-1l-1.5-2.2c-0.8-1.2-1.6-2.3-2.3-3.2l0,0c1,0.6,2.1,1.2,3.1,1.7l3.5,1.8l1.8-1.2l-5-7.4L321.8,248z
				 M275.1,266.3l0.3,2.6c0.2,1.3,0.3,2.5,0.6,3.7l0,0c-0.5-1-1.2-2-1.8-2.9l-2.2-3l-2.3,0.3l1.1,8.9l1.9-0.2l-0.3-2.7
				c-0.2-1.5-0.3-2.7-0.6-3.9l0,0c0.6,1,1.3,2.1,1.9,3l2.3,3.2l2.1-0.3l-1.1-8.9L275.1,266.3z M189.4,240.1l-5-4.8l-1.2,1.2l1.7,1.7
				l-5,5.2l1.5,1.4l5-5.2l1.8,1.7L189.4,240.1z M283.2,264.9l-0.6,9.4l2-0.5l0.1-2.4l2.5-0.6l1.2,2.1l2.1-0.5l-4.7-8.1L283.2,264.9z
				 M284.7,269.9l0.1-2c0-0.5,0-1.2,0-1.8l0,0c0.3,0.5,0.6,1.1,0.8,1.6l1,1.7L284.7,269.9z M297.2,260.9l-6.6,2.2l0.5,1.6l2.3-0.8
				l2.3,6.9l1.9-0.6l-2.3-6.9l2.3-0.8L297.2,260.9z M248.7,275.7l5.7,0.5l0.1-1.7l-3.7-0.3l0.2-2.1l3.3,0.3l0.1-1.6l-3.3-0.3
				l0.1-1.9l3.5,0.3l0.1-1.7l-5.5-0.4L248.7,275.7z M264.1,272L264.1,272c0.8-0.3,1.6-1.1,1.5-2.3c0-0.8-0.3-1.5-0.9-1.9
				c-0.6-0.5-1.6-0.7-2.9-0.7c-1.1,0-2,0.1-2.7,0.2l0.1,8.9l2,0l-0.1-3.5l0.6,0c0.8,0,1.2,0.3,1.5,1.4c0.3,1.1,0.5,1.8,0.7,2.1
				l2.1,0c-0.2-0.3-0.5-1.5-0.8-2.5C265.1,272.9,264.7,272.3,264.1,272z M262,271.3l-0.8,0l0-2.5c0.1,0,0.4-0.1,0.9-0.1
				c0.9,0,1.5,0.4,1.5,1.2C263.6,270.7,263,271.3,262,271.3z M310,255c-2.3,1.2-2.9,3.8-1.7,6.2c1.2,2.3,3.5,3.3,5.9,2.1
				c2.3-1.2,3.1-3.6,1.7-6.2C314.7,254.8,312.4,253.7,310,255z M313.5,261.8c-1.2,0.6-2.5-0.1-3.3-1.6c-0.8-1.5-0.7-3.1,0.5-3.7
				c1.2-0.7,2.6,0.2,3.3,1.6C314.8,259.6,314.8,261.1,313.5,261.8z M154.2,164.4l-2.6,0c-1.4,0-2.6,0.1-3.7,0.2l0,0
				c1-0.4,2.1-1,3.1-1.5l3.3-1.9l0-2.4l-9,0.1l0,1.9l2.7,0c1.5,0,2.7-0.1,3.9-0.2l0,0c-1,0.5-2.2,1.1-3.1,1.6l-3.4,2l0,2.1l9-0.1
				L154.2,164.4z M341.8,240.4l-5.2-5.1l-1.4,1.5l6.4,6.2l3.9-4l-1.2-1.2L341.8,240.4z M181,232.7c0-0.8-0.4-1.6-1.2-2.6
				c-0.8-0.9-1.4-1.5-1.9-2l-6.7,5.8l1.3,1.5l2.4-2.1c0.1,0.2,0.2,0.4,0.4,0.6c0.8,0.9,1.7,1.5,2.6,1.6c0.7,0.1,1.5-0.2,2.1-0.8
				C180.8,234.2,181.1,233.4,181,232.7z M178.7,233.3c-0.7,0.6-1.5,0.4-2.2-0.4c-0.2-0.2-0.3-0.4-0.4-0.5l2-1.7
				c0.1,0.1,0.3,0.3,0.6,0.6C179.4,232,179.4,232.7,178.7,233.3z M353.6,224.7c-1-0.7-2.1-0.6-3.5,0.3c-1,0.7-1.5,0.9-2,0.6
				c-0.4-0.3-0.5-0.9,0.1-1.6c0.5-0.7,1.1-1.1,1.4-1.3l-1.1-1.3c-0.5,0.3-1.1,0.8-1.7,1.6c-1.2,1.7-1.1,3.4,0.2,4.3
				c1.1,0.8,2.3,0.5,3.6-0.4c0.9-0.6,1.5-0.8,1.9-0.5c0.5,0.3,0.5,1,0,1.7c-0.5,0.7-1.2,1.2-1.8,1.5l1.1,1.3
				c0.5-0.2,1.3-0.9,1.9-1.7C355.2,227.2,354.8,225.5,353.6,224.7z M328.3,242.9l3.7,8.6l1.6-1.4l-1-2.2l2-1.7l2,1.3l1.7-1.4l-7.9-5
				L328.3,242.9z M333.4,245.4l-1.5,1.3l-0.8-1.8c-0.2-0.5-0.6-1.1-0.8-1.6l0,0c0.4,0.3,1,0.7,1.5,1L333.4,245.4z M359.4,217.4
				c-0.9,1.6-2.4,1.9-4,1c-1.7-1-1.9-2.6-1.1-4c0.4-0.6,0.8-1,1.2-1.3l-1.2-1.2c-0.3,0.2-0.9,0.8-1.5,1.7c-1.4,2.3-1,5.1,1.6,6.6
				c2.2,1.3,4.7,0.9,6.3-1.8c0.5-0.9,0.8-1.8,0.8-2.2l-1.5-0.5C359.9,216.3,359.7,216.9,359.4,217.4z M358,203.6l3.1,1.4l-1.4,3
				l-3.1-1.4l-0.8,1.8l8.2,3.7l0.8-1.8l-3.4-1.6l1.4-3l3.4,1.6l0.8-1.8l-8.2-3.7L358,203.6z M367.2,191.3c-2.4-0.8-4.8,0-5.6,2.6
				c-0.8,2.5,0.6,4.8,3.1,5.6c2.4,0.8,4.8-0.1,5.7-2.6C371.2,194.5,370,192.2,367.2,191.3z M368.8,196.4c-0.4,1.3-1.9,1.7-3.5,1.1
				c-1.7-0.5-2.6-1.7-2.2-3c0.4-1.3,2-1.6,3.5-1.1C368.3,193.9,369.3,195.1,368.8,196.4z M159.3,203.9l1.7-0.7l1.4,3.2l1.5-0.7
				l-2.2-5.1l-8.2,3.6l2.3,5.3l1.5-0.7l-1.5-3.4l2-0.8l1.3,3l1.5-0.7L159.3,203.9z M164.4,215l-1.4,0.8l0.7,1.2l-1.6,0.9
				c-0.1-0.1-0.4-0.4-0.6-0.8c-0.8-1.5-0.4-3,1.2-3.9c1.7-1,3.2-0.3,4,1.2c0.5,0.9,0.6,1.5,0.7,2l1.6-0.4c0-0.5-0.3-1.4-0.8-2.4
				c-1.4-2.6-4-3.6-6.6-2.2c-1.2,0.6-2,1.6-2.2,2.7c-0.3,1.1-0.1,2.3,0.7,3.8c0.6,1,1.4,1.9,1.9,2.4l4.1-2.3L164.4,215z
				 M174.4,223.5l-2.3,0.5c-0.7,0.2-1.2,0.3-1.8,0.4l0,0c0.4-0.5,0.6-1,1-1.6l1.2-2l-1.3-1.9l-2.7,5.4l-3,2.1l1.2,1.7l3.1-2.2l6-0.6
				L174.4,223.5z M154.5,170.6l-8.9,0.9l0.2,2l8.9-0.9L154.5,170.6z M148.5,180.3l7.2-1.3l-0.4-2l-8.8,1.6l1,5.5l1.7-0.3
				L148.5,180.3z M154.2,189.1l1.8-0.5l0.9,3.4l1.6-0.4l-1.5-5.3l-8.7,2.4l1.5,5.5l1.6-0.4l-1-3.6l2.1-0.6l0.9,3.2l1.6-0.4
				L154.2,189.1z"/>
		</g>
	</g>
	<g>
		<path class="st4" d="M27.8,474.5v-16.5h4.3l3.4,6c1,1.7,1.9,3.8,2.7,5.6l0.1,0c-0.2-2.2-0.3-4.4-0.3-6.9v-4.8h3.4v16.5h-3.9
			l-3.5-6.3c-1-1.8-2.1-3.9-2.9-5.8l-0.1,0c0.1,2.2,0.2,4.5,0.2,7.2v4.9H27.8z"/>
		<path class="st4" d="M48.3,458.1v16.5h-3.7v-16.5H48.3z"/>
		<path class="st4" d="M51.6,458.1h3.7v13.3h6.6v3.1H51.6V458.1z"/>
		<path class="st4" d="M73.8,467.6h-6.1v3.9h6.8v3H64v-16.5h10.1v3h-6.4v3.4h6.1V467.6z"/>
		<path class="st4" d="M91.8,467.6h-6.1v3.9h6.8v3H82v-16.5h10.1v3h-6.4v3.4h6.1V467.6z"/>
		<path class="st4" d="M108.8,473.8c-1.2,0.4-3.3,0.9-5.5,0.9c-3,0-5.2-0.8-6.7-2.2c-1.5-1.4-2.3-3.6-2.3-6c0-5.5,4-8.6,9.4-8.6
			c2.1,0,3.8,0.4,4.6,0.8l-0.8,3c-0.9-0.4-2-0.7-3.8-0.7c-3.1,0-5.5,1.7-5.5,5.3c0,3.4,2.1,5.4,5.2,5.4c0.8,0,1.5-0.1,1.8-0.2V468
			h-2.5v-2.9h6.1V473.8z"/>
		<path class="st4" d="M115.5,474.5v-6.8l-5.2-9.7h4.3l1.7,4c0.5,1.2,0.9,2.1,1.3,3.2h0c0.4-1,0.8-2,1.2-3.2l1.7-4h4.2l-5.4,9.6v6.9
			H115.5z"/>
		<path class="st4" d="M126.4,458.3c1.1-0.2,2.8-0.3,5-0.3c2.3,0,3.9,0.4,5,1.3c1.1,0.8,1.7,2.2,1.7,3.8c0,1.6-0.5,3-1.5,3.9
			c-1.3,1.2-3.2,1.7-5.3,1.7c-0.5,0-0.9,0-1.3-0.1v5.9h-3.7V458.3z M130.1,465.8c0.3,0.1,0.7,0.1,1.2,0.1c2,0,3.2-1,3.2-2.7
			c0-1.5-1-2.4-2.9-2.4c-0.7,0-1.2,0.1-1.5,0.1V465.8z"/>
		<path class="st4" d="M143.8,461.2h-4.4v-3.1H152v3.1h-4.5v13.3h-3.7V461.2z"/>
		<path class="st4" d="M157.7,458.1v16.5H154v-16.5H157.7z"/>
		<path class="st4" d="M164.8,470.3l-1.2,4.2h-3.8l5-16.5h4.9l5.1,16.5h-4l-1.3-4.2H164.8z M169,467.5l-1-3.5
			c-0.3-1-0.6-2.2-0.8-3.2h-0.1c-0.2,1-0.5,2.2-0.8,3.2l-1,3.5H169z"/>
		<path class="st4" d="M177,474.5v-16.5h4.3l3.4,6c1,1.7,1.9,3.8,2.7,5.6l0.1,0c-0.2-2.2-0.3-4.4-0.3-6.9v-4.8h3.4v16.5h-3.9
			l-3.5-6.3c-1-1.8-2.1-3.9-2.9-5.8l-0.1,0c0.1,2.2,0.2,4.5,0.2,7.2v4.9H177z"/>
		<path class="st4" d="M202.5,458.1v16.5h-3.7v-16.5H202.5z"/>
		<path class="st4" d="M205.7,474.5v-16.5h4.3l3.4,6c1,1.7,1.9,3.8,2.7,5.6l0.1,0c-0.2-2.2-0.3-4.4-0.3-6.9v-4.8h3.4v16.5h-3.9
			l-3.5-6.3c-1-1.8-2.1-3.9-2.9-5.8l-0.1,0c0.1,2.2,0.2,4.5,0.2,7.2v4.9H205.7z"/>
		<path class="st4" d="M225.8,461.2h-4.4v-3.1H234v3.1h-4.5v13.3h-3.7V461.2z"/>
		<path class="st4" d="M245.8,467.6h-6.1v3.9h6.8v3H236v-16.5h10.1v3h-6.4v3.4h6.1V467.6z"/>
		<path class="st4" d="M249,458.3c1.2-0.2,3-0.4,4.9-0.4c2.4,0,4.2,0.4,5.3,1.3c1,0.8,1.5,1.9,1.5,3.5c0,2.1-1.5,3.5-2.9,4v0.1
			c1.1,0.5,1.8,1.6,2.2,3.1c0.5,1.9,1,4,1.3,4.6h-3.8c-0.3-0.5-0.7-1.8-1.1-3.8c-0.5-2.1-1.1-2.6-2.7-2.6h-1.1v6.5H249V458.3z
			 M252.7,465.4h1.5c1.8,0,3-0.9,3-2.4c0-1.5-1-2.3-2.7-2.3c-0.9,0-1.4,0.1-1.7,0.1V465.4z"/>
		<path class="st4" d="M263.5,474.5v-16.5h4.3l3.4,6c1,1.7,1.9,3.8,2.7,5.6l0.1,0c-0.2-2.2-0.3-4.4-0.3-6.9v-4.8h3.4v16.5h-3.9
			l-3.5-6.3c-1-1.8-2.1-3.9-2.9-5.8l-0.1,0c0.1,2.2,0.2,4.5,0.2,7.2v4.9H263.5z"/>
		<path class="st4" d="M284.2,470.3l-1.2,4.2h-3.8l5-16.5h4.9l5.1,16.5h-4l-1.3-4.2H284.2z M288.4,467.5l-1-3.5
			c-0.3-1-0.6-2.2-0.8-3.2h-0.1c-0.2,1-0.5,2.2-0.8,3.2l-1,3.5H288.4z"/>
		<path class="st4" d="M297.9,461.2h-4.4v-3.1h12.7v3.1h-4.5v13.3h-3.7V461.2z"/>
		<path class="st4" d="M311.8,458.1v16.5h-3.7v-16.5H311.8z"/>
		<path class="st4" d="M330.1,466.1c0,5.4-3.3,8.7-8.1,8.7c-4.9,0-7.8-3.7-7.8-8.4c0-4.9,3.2-8.6,8-8.6
			C327.4,457.8,330.1,461.6,330.1,466.1z M318.2,466.3c0,3.2,1.5,5.5,4,5.5c2.5,0,4-2.4,4-5.6c0-3-1.4-5.5-4-5.5
			C319.7,460.8,318.2,463.1,318.2,466.3z"/>
		<path class="st4" d="M332.6,474.5v-16.5h4.3l3.4,6c1,1.7,1.9,3.8,2.7,5.6l0.1,0c-0.2-2.2-0.3-4.4-0.3-6.9v-4.8h3.4v16.5h-3.9
			l-3.5-6.3c-1-1.8-2.1-3.9-2.9-5.8l-0.1,0c0.1,2.2,0.2,4.5,0.2,7.2v4.9H332.6z"/>
		<path class="st4" d="M353.3,470.3l-1.2,4.2h-3.8l5-16.5h4.9l5.1,16.5h-4l-1.3-4.2H353.3z M357.4,467.5l-1-3.5
			c-0.3-1-0.6-2.2-0.8-3.2h-0.1c-0.2,1-0.5,2.2-0.8,3.2l-1,3.5H357.4z"/>
		<path class="st4" d="M365.5,458.1h3.7v13.3h6.6v3.1h-10.3V458.1z"/>
		<path class="st4" d="M383,470.7c1,0.5,2.5,1,4.1,1c1.7,0,2.6-0.7,2.6-1.8c0-1-0.8-1.6-2.8-2.3c-2.7-1-4.5-2.5-4.5-4.9
			c0-2.8,2.4-4.9,6.2-4.9c1.9,0,3.2,0.4,4.2,0.8l-0.8,3c-0.7-0.3-1.8-0.8-3.4-0.8c-1.6,0-2.4,0.8-2.4,1.6c0,1,0.9,1.5,3,2.3
			c2.9,1.1,4.3,2.6,4.3,4.9c0,2.7-2.1,5.1-6.6,5.1c-1.9,0-3.7-0.5-4.7-1L383,470.7z"/>
		<path class="st4" d="M408.1,474.1c-0.7,0.3-2.2,0.7-4.2,0.7c-5.7,0-8.6-3.6-8.6-8.3c0-5.6,4-8.7,9-8.7c1.9,0,3.4,0.4,4.1,0.7
			l-0.8,2.9c-0.7-0.3-1.8-0.6-3.1-0.6c-2.9,0-5.2,1.8-5.2,5.4c0,3.3,1.9,5.4,5.3,5.4c1.1,0,2.4-0.2,3.1-0.5L408.1,474.1z"/>
		<path class="st4" d="M414.3,458.1v6.3h6.1v-6.3h3.7v16.5h-3.7v-6.9h-6.1v6.9h-3.7v-16.5H414.3z"/>
		<path class="st4" d="M442.5,466.1c0,5.4-3.3,8.7-8.1,8.7c-4.9,0-7.8-3.7-7.8-8.4c0-4.9,3.2-8.6,8-8.6
			C439.7,457.8,442.5,461.6,442.5,466.1z M430.6,466.3c0,3.2,1.5,5.5,4,5.5c2.5,0,4-2.4,4-5.6c0-3-1.4-5.5-4-5.5
			C432.1,460.8,430.6,463.1,430.6,466.3z"/>
		<path class="st4" d="M460,466.1c0,5.4-3.3,8.7-8.1,8.7c-4.9,0-7.8-3.7-7.8-8.4c0-4.9,3.2-8.6,8-8.6
			C457.2,457.8,460,461.6,460,466.1z M448.1,466.3c0,3.2,1.5,5.5,4,5.5c2.5,0,4-2.4,4-5.6c0-3-1.4-5.5-4-5.5
			C449.6,460.8,448.1,463.1,448.1,466.3z"/>
		<path class="st4" d="M462.4,458.1h3.7v13.3h6.6v3.1h-10.3V458.1z"/>
		<path class="st4" d="M475,470.7c1,0.5,2.5,1,4.1,1c1.7,0,2.6-0.7,2.6-1.8c0-1-0.8-1.6-2.8-2.3c-2.7-1-4.5-2.5-4.5-4.9
			c0-2.8,2.4-4.9,6.2-4.9c1.9,0,3.2,0.4,4.2,0.8l-0.8,3c-0.7-0.3-1.8-0.8-3.4-0.8c-1.6,0-2.4,0.8-2.4,1.6c0,1,0.9,1.5,3,2.3
			c2.9,1.1,4.3,2.6,4.3,4.9c0,2.7-2.1,5.1-6.6,5.1c-1.9,0-3.7-0.5-4.7-1L475,470.7z"/>
	</g>
	<g>
		<rect x="37.5" y="412.7" class="st4" width="5.3" height="4.7"/>
		<rect x="30.1" y="412.7" class="st4" width="5.3" height="4.7"/>
		<rect x="56.6" y="442.1" class="st4" width="5.3" height="4.7"/>
		<rect x="49.2" y="442.1" class="st4" width="5.3" height="4.7"/>
		<path class="st4" d="M67.9,434.4h-3.7c-1.4,0-2.5-0.1-3.2-0.3c-0.7-0.2-1.3-0.6-1.8-1.2c0.1-0.7,0.2-1.3,0.2-1.9v-10.8h-5.2v10
			c0,1.3-0.4,2.3-1.1,3.1c-0.7,0.8-1.5,1.2-2.5,1.2h-3.3h0h-0.7c-0.9,0-1.6-0.3-2.1-0.8c-0.5-0.5-0.7-1.4-0.7-2.7l0-10
			c-3.2-0.5-5.6-0.7-7.3-0.7c-2,0-3.7,0.4-5.3,1.2c-1.5,0.8-2.7,1.9-3.5,3.4c-0.8,1.4-1.3,3-1.3,4.8c0,1.8,0.4,3.5,1.2,4.9
			c0.8,1.4,1.9,2.5,3.2,3.2c1.4,0.8,2.9,1.1,4.6,1.1h0.7l2-4.4h-1.9c-1.5,0-2.6-0.4-3.3-1.3c-0.8-0.8-1.2-2-1.2-3.5
			c0-3.4,1.5-5.1,4.5-5.1c0.7,0,1.5,0.1,2.3,0.3v6.9c0,2.2,0.6,3.9,1.7,5.2c1.1,1.3,2.7,1.9,4.8,1.9h2.3h0h4.9
			c1.2,0,2.3-0.2,3.2-0.7c1-0.5,1.8-1.2,2.4-2.1c0.8,1,1.7,1.8,2.7,2.2c0.9,0.4,2.2,0.6,3.7,0.6H73v-28.3h-5.1V434.4z"/>
		<path class="st4" d="M82.4,421.4c-1.5,0.8-2.7,1.9-3.5,3.4c-0.8,1.4-1.3,3-1.3,4.8c0,1.8,0.4,3.5,1.2,4.9c0.8,1.4,1.8,2.5,3.2,3.2
			s2.9,1.1,4.6,1.1h0.5l2-4.4h-1.6c-1.5,0-2.6-0.4-3.3-1.3c-0.8-0.8-1.2-2-1.2-3.5c0-3.4,1.5-5.1,4.5-5.1c0.7,0,1.5,0.1,2.4,0.3
			v12.7c0,1.2-0.2,2.2-0.7,2.9c-0.5,0.7-1.2,1.2-2,1.6c-0.9,0.4-2.1,0.6-3.6,0.8l2.1,4.6c2-0.3,3.7-0.8,5.1-1.5s2.4-1.7,3.2-3.1
			s1.2-3.2,1.2-5.5v-16.5c-3.2-0.5-5.6-0.7-7.3-0.7C85.7,420.2,83.9,420.6,82.4,421.4z"/>
		<path class="st4" d="M122.6,434.4h-3.7c-1.1,0-2-0.2-2.6-0.5c-0.6-0.4-1.1-0.9-1.4-1.7l-4.6-12h-5.5l4.9,12.8
			c-1.6,1-3.8,1.5-6.5,1.5h-5.7l2,4.4h4.5c2.5,0,4.9-0.8,7.2-2.5c0.6,0.9,1.6,1.5,2.8,1.9c1.2,0.4,2.9,0.6,5,0.6c0,0,0,0,0,0h8.8
			v-28.3h-5.1V434.4z"/>
		<rect x="134" y="410.6" class="st4" width="5.2" height="28.3"/>
		<rect x="155.3" y="412.7" class="st4" width="5.3" height="4.7"/>
		<rect x="162.7" y="412.7" class="st4" width="5.3" height="4.7"/>
		<rect x="172" y="442.1" class="st4" width="5.3" height="4.7"/>
		<rect x="179.4" y="442.1" class="st4" width="5.3" height="4.7"/>
		<path class="st4" d="M172.4,438.8h11.4v-18.3h-5.1v13.9h-6.3h0h-0.7c-0.9,0-1.6-0.3-2.1-0.8c-0.5-0.5-0.7-1.4-0.7-2.7l0-10
			c-3.2-0.5-5.6-0.7-7.3-0.7c-2,0-3.7,0.4-5.3,1.2c-1.5,0.8-2.7,1.9-3.5,3.4c-0.8,1.4-1.3,3-1.3,4.8c0,1.8,0.4,3.5,1.2,4.9
			c0.8,1.4,1.9,2.5,3.2,3.2c1.4,0.8,2.9,1.1,4.6,1.1h0.7l2-4.4h-1.9c-1.5,0-2.6-0.4-3.3-1.3c-0.8-0.8-1.2-2-1.2-3.5
			c0-3.4,1.5-5.1,4.5-5.1c0.7,0,1.5,0.1,2.3,0.3v6.9c0,2.2,0.6,3.9,1.7,5.2c1.1,1.3,2.7,1.9,4.8,1.9H172.4L172.4,438.8z"/>
		<path class="st4" d="M259,434.4h-3.7c-1.5,0-2.6-0.4-3.3-1.1c0.4-1.1,0.7-2.4,0.7-3.8c0-1.8-0.4-3.4-1.3-4.8
			c-0.8-1.4-2-2.6-3.5-3.4c-1.5-0.8-3.3-1.2-5.3-1.2c-1.7,0-4.1,0.2-7.3,0.7v13.5H233c-1.5,0-2.6-0.4-3.3-1.1
			c0.4-1.1,0.7-2.4,0.7-3.8c0-1.8-0.4-3.4-1.2-4.8c-0.8-1.4-1.9-2.5-3.5-3.4c-1.5-0.8-3.3-1.2-5.4-1.2c-3.8,0-7.9,1.4-12.1,4.2v-3.9
			H203v13.9h-3.7c-1.7,0-2.9-0.5-3.7-1.6v-12.3h-5.2v17.3c0,1.2-0.2,2.1-0.5,2.8c-0.3,0.7-0.9,1.2-1.6,1.5c-0.7,0.3-1.6,0.5-2.8,0.7
			l2.1,4.6c2.4-0.3,4.3-1.2,5.8-2.7c1.5-1.5,2.2-3.9,2.2-7.1v0c1.3,0.8,2.5,1.1,3.7,1.1c0,0,0,0,0,0h22.1c2.5,0,4.6-0.8,6.3-2.4
			c0.8,0.8,1.6,1.4,2.6,1.8c1,0.4,1.9,0.6,2.7,0.6h10.6c2.5,0,4.6-0.8,6.3-2.4c0.8,0.8,1.6,1.4,2.6,1.8c1,0.4,1.9,0.6,2.7,0.6h8.8
			v-28.3H259V434.4z M223.8,433.1c-0.8,0.8-1.9,1.3-3.3,1.3h-12.3v-5.6c1.9-1.3,3.7-2.3,5.4-3.1s3.7-1.1,5.8-1.1
			c1.7,0,3.1,0.5,4.1,1.4c1,0.9,1.5,2.1,1.6,3.6C225,431.1,224.6,432.3,223.8,433.1z M246.1,433.1c-0.8,0.8-1.9,1.3-3.3,1.3h-2.4
			v-9.6c0.8-0.2,1.6-0.3,2.4-0.3c3,0,4.5,1.7,4.5,5.1C247.3,431.1,246.9,432.3,246.1,433.1z"/>
		<rect x="270.4" y="410.6" class="st4" width="5.2" height="28.3"/>
		<rect x="322.6" y="442.1" class="st4" width="5.3" height="4.7"/>
		<rect x="315.2" y="442.1" class="st4" width="5.3" height="4.7"/>
		<rect x="334.5" y="412.7" class="st4" width="5.3" height="4.7"/>
		<path class="st4" d="M346.8,434.4h-3.7c-1.6,0-2.8-0.5-3.6-1.4c0.1-0.7,0.2-1.4,0.2-2.1v-10.4h-5.2v9.6c0,1.3-0.4,2.3-1.1,3.1
			c-0.7,0.8-1.5,1.2-2.5,1.2h-0.7c-1.4,0-2.5-0.1-3.2-0.3c-0.7-0.2-1.3-0.6-1.8-1.2c0.1-0.7,0.2-1.3,0.2-1.9v-10.8h-5.2v10
			c0,1.3-0.4,2.3-1.1,3.1c-0.7,0.8-1.5,1.2-2.5,1.2h-3.3h-4.1v-23.8h-5.2V441h-4.3c-3.6,0-5.4-1.7-5.4-5v-6.4h-5.2v7.2
			c0,2.5,0.7,4.5,2.2,6.1c1.5,1.6,3.7,2.4,6.9,2.4h11v-6.6h4.1h4.9c1.2,0,2.3-0.2,3.2-0.7c1-0.5,1.8-1.2,2.4-2.1
			c0.8,1,1.7,1.8,2.7,2.2c0.9,0.4,2.2,0.6,3.7,0.6h2.3c2.2,0,4-0.8,5.3-2.4c0.8,0.8,1.6,1.4,2.6,1.8s1.8,0.6,2.7,0.6h8.8v-28.3h-5.1
			V434.4z"/>
		<rect x="358.2" y="410.6" class="st4" width="5.2" height="28.3"/>
		<path class="st4" d="M415.6,434.4h-2.3c-1.3,0-2.4-0.3-3.4-0.8c-1-0.5-1.6-1.3-1.7-2.4v-10.7H403v9.6c0,1.3-0.4,2.3-1.1,3.1
			c-0.7,0.8-1.5,1.2-2.5,1.2h-2.3v-13.9h-5.2V441h-4.3c-3.6,0-5.4-1.7-5.4-5v-6.4H377v7.2c0,2.5,0.7,4.5,2.2,6.1
			c1.5,1.6,3.7,2.4,6.9,2.4h11v-6.6h3.9c2.2,0,4-0.8,5.4-2.4c1.4,1.6,3.4,2.4,6,2.4h8.4V419h-5.2V434.4z"/>
		<path class="st4" d="M426.6,437.9c0,1.2-0.2,2.1-0.5,2.8c-0.3,0.7-0.9,1.2-1.6,1.5c-0.7,0.3-1.6,0.5-2.8,0.7l2.1,4.6
			c2.4-0.3,4.3-1.2,5.8-2.7c1.5-1.5,2.2-3.9,2.2-7.1v-17.2h-5.2V437.9z"/>
		<rect x="437.3" y="410.6" class="st4" width="5.2" height="28.3"/>
		<path class="st4" d="M485.4,424.8c-0.8-1.4-2-2.6-3.5-3.4c-1.5-0.8-3.3-1.2-5.3-1.2c-1.7,0-4.1,0.2-7.3,0.7v13.5H467
			c-1.1,0-2-0.2-2.6-0.5c-0.6-0.4-1.1-0.9-1.4-1.7l-4.6-12h-5.5l4.9,12.8c-1.6,1-3.8,1.5-6.5,1.5h-5.7l2,4.4h4.5
			c2.5,0,4.9-0.8,7.2-2.5c0.6,0.9,1.6,1.5,2.8,1.9c1.2,0.4,2.9,0.6,5,0.6h17.4c1.5-3.9,2.2-7,2.2-9.3
			C486.6,427.8,486.2,426.2,485.4,424.8z M480.5,434.4h-6.1v-9.6c0.8-0.2,1.6-0.3,2.4-0.3c3,0,4.5,1.7,4.5,5.1
			C481.3,431.1,481,432.7,480.5,434.4z"/>
	</g>
</g>
</svg>
