<?xml version="1.0" encoding="utf-8"?>
<!-- Generator: Adobe Illustrator 25.3.0, SVG Export Plug-In . SVG Version: 6.00 Build 0)  -->
<svg version="1.1" id="Layer_1" xmlns="http://www.w3.org/2000/svg" xmlns:xlink="http://www.w3.org/1999/xlink" x="0px" y="0px"
	 viewBox="0 0 114 113.9" style="enable-background:new 0 0 114 113.9;" xml:space="preserve">
<style type="text/css">
	.st0{opacity:0.49;}
	.st1{fill:#D3B366;}
	.st2{fill:#20355D;}
	.st3{fill:#FFFFFF;}
	.st4{opacity:0.33;fill:#D3B366;enable-background:new    ;}
	.st5{opacity:0.63;}
	.st6{opacity:0.35;enable-background:new    ;}
	.st7{opacity:0.35;fill:#20355D;enable-background:new    ;}
	.st8{opacity:0.63;fill:#D3B366;}
	.st9{opacity:0.64;}
	.st10{fill:#2EC98A;stroke:#20355D;stroke-width:2;stroke-miterlimit:10;}
</style>
<g class="st0">
	<path class="st1" d="M88,106.5c-0.2,0-0.4,0-0.6-0.1l-55.3-9.1c-0.9-0.1-1.6-0.5-2.1-1.1c-0.5-0.7-0.8-1.4-0.6-2.3v-0.1v0
		l13.9-79.5c0.3-1.4,1.6-2.5,3.2-2.5c0.2,0,0.5,0,0.7,0.1l55.2,9.1c0.9,0.1,1.6,0.6,2.1,1.2c0.5,0.7,0.8,1.4,0.6,2.2l-14,79.4
		C90.8,105.4,89.6,106.5,88,106.5z"/>
	<path class="st2" d="M46.5,12.7L46.5,12.7c0.2,0,0.3,0,0.5,0l0,0l0,0l55.2,9.1c1.2,0.2,2.1,1.2,1.9,2.3l-14,79.6
		c-0.2,1.1-1.1,1.8-2.2,1.8c-0.1,0-0.3,0-0.4,0l0,0l0,0l-55.3-9.1h-0.1H32c-0.6-0.1-1.1-0.4-1.4-0.8c-0.4-0.5-0.5-1-0.4-1.5V94v-0.2
		l14-79.3C44.4,13.5,45.4,12.7,46.5,12.7 M46.5,10.8c-2,0-3.7,1.3-4.1,3.2l-14,79.7c0,0.1,0,0.1,0,0.1c-0.3,2.2,1.3,4.3,3.5,4.5
		l55.3,9.1c0.3,0.1,0.6,0.1,0.8,0.1c1.9,0,3.6-1.3,4-3.3l14-79.6c0.3-2.2-1.3-4.2-3.5-4.5L47.3,11C47,10.9,46.7,10.8,46.5,10.8
		L46.5,10.8z"/>
</g>
<g>
	<path class="st2" d="M46.5,12.7L46.5,12.7c0.2,0,0.3,0,0.5,0l0,0l0,0l55.2,9.1c1.2,0.2,2.1,1.2,1.9,2.3l-14,79.6
		c-0.2,1.1-1.1,1.8-2.2,1.8c-0.1,0-0.3,0-0.4,0l0,0l0,0l-55.3-9.1h-0.1H32c-0.6-0.1-1.1-0.4-1.4-0.8c-0.4-0.5-0.5-1-0.4-1.5V94v-0.2
		l14-79.3C44.4,13.5,45.4,12.7,46.5,12.7 M46.5,10.8c-2,0-3.7,1.3-4.1,3.2l-14,79.7c0,0.1,0,0.1,0,0.1c-0.3,2.2,1.3,4.3,3.5,4.5
		l55.3,9.1c0.3,0.1,0.6,0.1,0.8,0.1c1.9,0,3.6-1.3,4-3.3l14-79.6c0.3-2.2-1.3-4.2-3.5-4.5L47.3,11C47,10.9,46.7,10.8,46.5,10.8
		L46.5,10.8z"/>
</g>
<g>
	<path class="st3" d="M24.7,101.5c-1.5,0-2.9-1.1-3.1-2.6l-14-79.1c-0.1-0.8,0.1-1.5,0.6-2.1c0.5-0.7,1.1-1.1,1.9-1.1l51.5-8.4
		c0.2,0,0.3,0,0.5,0c1.4,0,2.7,1.1,3,2.5l13.9,79.2c0.3,1.5-1,3.1-2.5,3.3l-51.3,8.3C25,101.5,24.8,101.5,24.7,101.5z"/>
	<path class="st1" d="M62.2,9c1,0,1.8,0.7,2,1.7l13.9,79.2c0.1,0.5-0.1,1-0.4,1.4s-0.9,0.8-1.3,0.9L25,100.5c-0.1,0-0.2,0-0.4,0
		c-1.1,0-2-0.8-2.1-1.7l0,0l0,0L8.6,19.7c-0.1-0.5,0.1-1,0.4-1.4c0.3-0.5,0.9-0.8,1.3-0.9L61.8,9C61.9,9.1,62.1,9,62.2,9 M62.2,7.1
		c-0.2,0-0.4,0-0.6,0L10,15.6c-2.1,0.3-3.6,2.3-3.3,4.4l14,79.1c0.3,2,2,3.3,4,3.3c0.2,0,0.4,0,0.7,0L76.7,94
		c2.1-0.3,3.6-2.3,3.3-4.4l-14-79.3C65.7,8.5,64,7.1,62.2,7.1L62.2,7.1z"/>
</g>
<g>
	<path class="st3" d="M19.7,4h68.6c1.9,0,3.4,1.5,3.4,3.4v93.9c0,1.9-1.5,3.4-3.4,3.4H19.7c-1.9,0-3.4-1.5-3.4-3.4v-94
		C16.4,5.5,17.9,4,19.7,4z"/>
</g>
<path class="st4" d="M28.4,69.3h51.5c1,0,1.7,0.8,1.7,1.7v8c0,1-0.8,1.7-1.7,1.7H28.4c-1,0-1.7-0.8-1.7-1.7v-8
	C26.7,69.9,27.4,69.3,28.4,69.3z"/>
<g class="st5">
	<path class="st1" d="M27.8,15.5h52.7c0.7,0,1.1,0.6,1.1,1.1v3.4c0,0.7-0.6,1.1-1.1,1.1H27.8c-0.7,0-1.1-0.6-1.1-1.1v-3.4
		C26.7,15.9,27.1,15.5,27.8,15.5z"/>
</g>
<g class="st6">
	<path class="st2" d="M27.8,26.9h24.1c0.7,0,1.1,0.6,1.1,1.1v1.1c0,0.7-0.6,1.1-1.1,1.1H27.8c-0.7,0-1.1-0.6-1.1-1.1v-1.1
		C26.7,27.3,27.1,26.9,27.8,26.9z"/>
</g>
<path class="st7" d="M59.9,26.9h20.6c0.7,0,1.1,0.6,1.1,1.1v1.1c0,0.7-0.6,1.1-1.1,1.1H59.9c-0.7,0-1.1-0.6-1.1-1.1v-1.1
	C58.7,27.3,59.3,26.9,59.9,26.9z"/>
<path class="st7" d="M27.8,36.1H81c0.7,0,1.1,0.6,1.1,1.1v1.1c0,0.7-0.6,1.1-1.1,1.1H27.8c-0.7,0-1.1-0.6-1.1-1.1v-1.1
	C26.7,36.5,27.1,36.1,27.8,36.1z"/>
<path class="st4" d="M27.8,44h52.7c0.7,0,1.1,0.6,1.1,1.1v1.1c0,0.7-0.6,1.1-1.1,1.1H27.8c-0.7,0-1.1-0.6-1.1-1.1v-1.2
	C26.7,44.6,27.1,44,27.8,44z"/>
<path class="st8" d="M27.6,53.2H47c0.6,0,0.9,0.6,0.9,1.1v1.1c0,0.7-0.5,1.1-0.9,1.1H27.6c-0.6,0-0.9-0.6-0.9-1.1v-1.1
	C26.7,53.8,27.1,53.2,27.6,53.2z"/>
<path class="st7" d="M27.6,86.6H47c0.6,0,0.9,0.6,0.9,1.1v1.1c0,0.7-0.5,1.1-0.9,1.1H27.6c-0.6,0-0.9-0.6-0.9-1.1v-1.1
	C26.7,87.2,27.1,86.6,27.6,86.6z"/>
<g class="st9">
	<path class="st2" d="M88.4,5.9c0.9,0,1.5,0.7,1.5,1.5v93.9c0,0.9-0.7,1.5-1.5,1.5H19.7c-0.9,0-1.5-0.7-1.5-1.5v-94
		c0-0.9,0.7-1.5,1.5-1.5L88.4,5.9 M88.4,4H19.7c-1.9,0-3.4,1.5-3.4,3.4v93.9c0,1.9,1.5,3.4,3.4,3.4h68.6c1.9,0,3.4-1.5,3.4-3.4v-94
		C91.8,5.5,90.3,4,88.4,4L88.4,4z"/>
</g>
<g>
	<path class="st10" d="M98.4,91.2c0,11.3-9.2,20.6-20.6,20.6s-20.6-9.2-20.6-20.6s9.2-20.6,20.6-20.6l0,0
		C89.1,70.7,98.4,79.7,98.4,91.2L98.4,91.2"/>
	<path class="st3" d="M89.5,87.2L87,89.8c-3.5,3.7-7.3,7.3-10.6,11c-0.5,0.5-1.2,0.9-1.7,0.7l0,0c-0.7,0-1.4-0.2-1.7-0.7
		c-1.9-2.1-4.2-4.4-6.1-6.3c-0.9-1-0.7-2.4,0.3-3.1c1-0.7,2.3-0.7,3.1,0.2c1.4,1.4,3,3,4.4,4.4c3-3.1,6.1-6.3,9.1-9.2l2.4-2.6
		c1-0.9,2.4-0.9,3.5,0C90.3,85.1,90.3,86.4,89.5,87.2L89.5,87.2z"/>
</g>
</svg>
