<?xml version="1.0" encoding="utf-8"?>
<!-- Generator: Adobe Illustrator 26.3.1, SVG Export Plug-In . SVG Version: 6.00 Build 0)  -->
<svg version="1.1" id="Layer_1" xmlns="http://www.w3.org/2000/svg" xmlns:xlink="http://www.w3.org/1999/xlink" x="0px" y="0px"
	 viewBox="0 0 500 500" style="enable-background:new 0 0 500 500;" xml:space="preserve">
<style type="text/css">
	.st0{fill:#EBEBEB;}
	.st1{fill:#F0F0F0;}
	.st2{fill:#F5F5F5;}
	.st3{fill:#FFFFFF;}
	.st4{fill:#E0E0E0;}
	.st5{fill:#67B4F3;}
	.st6{opacity:0.2;enable-background:new    ;}
	.st7{fill:#263238;}
	.st8{fill:#FFC3BD;}
	.st9{opacity:0.4;fill:#FFFFFF;enable-background:new    ;}
	.st10{fill:#B55B52;}
	.st11{opacity:0.8;fill:#FFFFFF;enable-background:new    ;}
	.st12{fill:#ED847E;}
	.st13{opacity:0.2;fill:#FFFFFF;enable-background:new    ;}
</style>
<g id="freepik--background-complete--inject-9">
	<rect x="-904.1" y="340.9" class="st0" width="500" height="0.2"/>
	<rect x="-545.1" y="350.4" class="st0" width="90.9" height="0.2"/>
	<rect x="-597.7" y="347.7" class="st0" width="24.9" height="0.2"/>
	<rect x="-554.5" y="359.7" class="st0" width="38.6" height="0.2"/>
	<rect x="-851.6" y="358" class="st0" width="22.6" height="0.2"/>
	<rect x="-820.1" y="358" class="st0" width="26.9" height="0.2"/>
	<rect x="-725.8" y="353.8" class="st0" width="46.8" height="0.2"/>
	<path class="st0" d="M-667.1,296.3h-193.1c-3.1,0-5.7-2.6-5.7-5.7V19.2c0-3.1,2.6-5.7,5.7-5.7h193.1c3.2,0,5.7,2.6,5.7,5.7
		c0,0,0,0,0,0v271.4C-661.4,293.7-663.9,296.3-667.1,296.3z M-860.2,13.7c-3,0-5.5,2.4-5.5,5.5v271.4c0,3,2.4,5.5,5.5,5.5h193.1
		c3,0,5.5-2.4,5.5-5.5V19.2c0-3-2.4-5.5-5.5-5.5H-860.2z"/>
	<path class="st0" d="M-450.8,296.3h-193.1c-3.2,0-5.7-2.6-5.7-5.7V19.2c0-3.1,2.6-5.7,5.7-5.7h193.1c3.1,0,5.7,2.5,5.7,5.7v271.4
		C-445.1,293.7-447.6,296.3-450.8,296.3z M-643.9,13.7c-3,0-5.5,2.4-5.5,5.5v271.4c0,3,2.4,5.5,5.5,5.5h193.1c3,0,5.5-2.4,5.5-5.5
		V19.2c0-3-2.4-5.5-5.5-5.5H-643.9z"/>
	<rect x="-851.6" y="76.5" class="st1" width="119.6" height="264.4"/>
	<rect x="-851.6" y="76.5" class="st2" width="113.9" height="264.4"/>
	<rect x="-845.6" y="82.5" class="st1" width="101.9" height="252.4"/>
	<path class="st3" d="M-812.7,201.5h-20.8c-1.5,0-2.7-1.2-2.7-2.7l0,0c0-1.5,1.2-2.7,2.7-2.7h20.8c1.5,0,2.7,1.2,2.7,2.7l0,0
		C-810,200.3-811.2,201.5-812.7,201.5z"/>
	<rect x="-845.6" y="82.5" class="st1" width="1.6" height="252.4"/>
	<rect x="-676" y="258.7" class="st1" width="17.8" height="77.2"/>
	<rect x="-749.4" y="335.9" class="st1" width="87.8" height="4.9"/>
	<rect x="-752.9" y="258.7" class="st2" width="76.8" height="77.2"/>
	<rect x="-745.9" y="268.2" class="st1" width="62.8" height="25.3"/>
	<rect x="-745.9" y="301.1" class="st1" width="62.8" height="25.3"/>
	<path class="st2" d="M-721.5,270.3h14.1c1,0,1.7-0.8,1.7-1.7l0,0c0-1-0.8-1.7-1.7-1.7h-14.1c-1,0-1.7,0.8-1.7,1.7l0,0
		C-723.2,269.5-722.5,270.3-721.5,270.3z"/>
	<path class="st2" d="M-721.5,303.2h14.1c0.9,0,1.7-0.8,1.7-1.7l0,0c0-1-0.8-1.7-1.7-1.7h-14.1c-1,0-1.7,0.8-1.7,1.7l0,0
		C-723.2,302.4-722.4,303.2-721.5,303.2z"/>
	<path class="st2" d="M-708.6,257.2L-708.6,257.2c-0.7,0-1.3-0.6-1.3-1.3v-40.1c0-0.7,0.6-1.3,1.3-1.3l0,0l0,0
		c0.7,0,1.3,0.6,1.3,1.3v40.1C-707.3,256.6-707.9,257.2-708.6,257.2z"/>
	<rect x="-720.9" y="255.6" class="st1" width="24.7" height="3.1"/>
	<path class="st1" d="M-701.8,233.2L-701.8,233.2c-0.4,0-0.7-0.3-0.7-0.6v-20c0-0.4,0.3-0.7,0.7-0.7l0,0c0.4,0,0.7,0.3,0.7,0.7v20
		C-701.1,232.9-701.4,233.2-701.8,233.2C-701.7,233.2-701.7,233.2-701.8,233.2z"/>
	<path class="st1" d="M-727.8,219.4c0,0,0.5-18.9,19.2-18.9c18.7,0,19.2,18.9,19.2,18.9L-727.8,219.4z"/>
	<path class="st1" d="M-565.8,246.1L-565.8,246.1c0.5,0,1.1,0,1.6,0c11.4,0.8,20.5,9.9,21.3,21.4c0.2,2.5-0.1,5-0.7,7.5
		c-2.5,9.8-3.7,19.8-3.6,29.9v29.3c0,2.1-1.7,3.9-3.8,3.9c0,0,0,0,0,0h-93.1v-92H-565.8z"/>
	<path class="st2" d="M-667.1,269c0-12.7,10.3-22.9,23-22.9c12.7,0,22.9,10.3,22.9,23c0,2-0.3,3.9-0.8,5.9
		c-2.5,9.8-3.7,19.8-3.6,29.9v29.3c0,2.1-1.7,3.9-3.8,3.9c0,0,0,0,0,0h-29.4c-2.1,0-3.9-1.7-3.9-3.9l0,0v-31.1
		c0.1-9.5-1.1-18.9-3.6-28C-666.9,273.2-667.1,271.1-667.1,269z"/>
	<rect x="-612.6" y="282.2" class="st1" width="83.6" height="55.9"/>
	<path class="st4" d="M-459.9,294.9h-111.9l0,0v-85.7c0-9.6,7.8-17.4,17.4-17.4h77.2c9.6,0,17.4,7.8,17.4,17.4V294.9L-459.9,294.9z"
		/>
	<path class="st2" d="M-481.7,294.9h-111.9l0,0v-86.5c0-9.1,7.4-16.5,16.5-16.5h78.8c9.1,0,16.5,7.4,16.5,16.5L-481.7,294.9
		L-481.7,294.9z"/>
	<path class="st4" d="M-534.4,299.9h-77.1c-2.8,0-5-2.2-5-5v-12.7c0-2.8,2.2-5,5-5h77.1c0.8,0,1.5,0.7,1.5,1.5c0,0,0,0,0,0v19.7
		C-532.9,299.2-533.6,299.9-534.4,299.9z"/>
	<path class="st1" d="M-451.6,246.1L-451.6,246.1c0.5,0,1.1,0,1.6,0c11.4,0.8,20.5,10,21.3,21.4c0.2,2.5-0.1,5-0.7,7.5
		c-2.5,9.8-3.7,19.8-3.6,29.9v29.3c0,2.1-1.7,3.9-3.8,3.9c0,0,0,0,0,0h-93.1v-92H-451.6z"/>
	<path class="st2" d="M-553,269c-0.1-12.7,10.1-23,22.8-23.1c12.2-0.1,22.3,9.4,23.1,21.6c0.2,2.5-0.1,5-0.7,7.5
		c-2.5,9.8-3.7,19.8-3.6,29.9v29.3c0,2.1-1.7,3.9-3.9,3.9l0,0h-29.4c-2.1,0-3.9-1.7-3.9-3.9l0,0v-31.1c0.1-9.5-1.1-18.9-3.5-28
		C-552.7,273.2-553,271.1-553,269z"/>
	<path class="st4" d="M-642.6,340.9h189.3c1.5,0,2.8-1.2,2.8-2.8c0,0,0,0,0,0h-194.9C-645.4,339.6-644.1,340.9-642.6,340.9
		C-642.6,340.9-642.6,340.9-642.6,340.9z"/>
	<rect x="-530.4" y="60" class="st4" width="60.9" height="66.4"/>
	<rect x="-534.1" y="60" class="st2" width="62.5" height="66.4"/>
	<rect x="-528.9" y="65.2" class="st3" width="52" height="56"/>
	<polygon class="st2" points="-502.8,79 -488.6,103.7 -517.1,103.7 	"/>
	<rect x="-615.9" y="98.7" class="st4" width="60.9" height="66.4"/>
	<rect x="-619.5" y="98.7" class="st2" width="62.5" height="66.4"/>
	<rect x="-614.3" y="104" class="st3" width="52" height="56"/>
	<path class="st2" d="M-594.6,141.9l-6.2-10.7c-2-3.5-0.8-8,2.7-10c1.1-0.6,2.4-1,3.7-1h12.4c4.1,0,7.3,3.3,7.3,7.4
		c0,1.3-0.3,2.5-1,3.6l-6.2,10.7c-2,3.5-6.5,4.7-10,2.7C-593,144-594,143-594.6,141.9z"/>
</g>
<g id="freepik--Shadow--inject-9">
	<ellipse id="freepik--path--inject-9" class="st2" cx="247.8" cy="454.6" rx="233.6" ry="13.6"/>
</g>
<g id="freepik--Checklist--inject-9">
	<polygon class="st5" points="397.6,72.6 119.8,72.6 138.1,450.9 415.8,450.9 	"/>
	<polygon class="st6" points="397.6,72.6 119.8,72.6 138.1,450.9 415.8,450.9 	"/>
	<polygon class="st5" points="400.1,72.6 122.3,72.6 140.6,450.9 418.4,450.9 	"/>
	<polygon class="st6" points="385.5,85.4 135,85.4 152.5,433.8 370.3,433.5 406.5,401.5 	"/>
	<path class="st3" d="M387.4,85.3c2.7,104.4,11.1,208.5,25.2,311.9c-19.8,13.7-39.6,27.3-59.2,41H166.1
		C148.4,321.4,138.1,203.5,135,85.3H387.4z"/>
	<path class="st0" d="M412.6,397.3c-19.8,13.7-39.6,27.3-59.2,41c4.3-18.1,8.8-36.2,13.4-54.2L412.6,397.3z"/>
	<path class="st5" d="M203,117.2c0.5,12.8,1,25.5,1.7,38.3h-38.3c-0.6-12.8-1.2-25.5-1.7-38.3H203 M206.9,113.2h-46.4
		c0.5,15.4,1.2,30.9,2,46.4h46.4C208.1,144.1,207.4,128.6,206.9,113.2L206.9,113.2z"/>
	<path class="st4" d="M359.4,131.6H228.3c-0.1-2.9-0.2-5.8-0.3-8.7H359C359.1,125.8,359.3,128.7,359.4,131.6z"/>
	<path class="st4" d="M331.7,149.8H229.1c-0.1-2.9-0.3-5.8-0.4-8.7h102.6C331.4,144,331.5,146.9,331.7,149.8z"/>
	<path class="st5" d="M206.7,192.2c0.8,12.8,1.7,25.5,2.7,38.3h-38.3c-1-12.8-1.9-25.5-2.7-38.3H206.7 M210.5,188.2h-46.4
		c0.9,15.5,2,30.9,3.2,46.4h46.4C212.6,219.1,211.5,203.7,210.5,188.2L210.5,188.2z"/>
	<path class="st4" d="M280.6,206.6h-48.2c-0.2-2.9-0.4-5.8-0.6-8.7H280C280.2,200.8,280.4,203.7,280.6,206.6z"/>
	<path class="st4" d="M326.2,206.6h-35.4c-0.2-2.9-0.4-5.8-0.6-8.7h35.4C325.8,200.8,326,203.7,326.2,206.6z"/>
	<path class="st4" d="M348.4,224.8H233.7c-0.2-2.9-0.4-5.8-0.6-8.7h114.8C348,219.1,348.2,221.9,348.4,224.8z"/>
	<path class="st5" d="M212.5,267.3c1.1,12.8,2.4,25.5,3.7,38.3h-38.3c-1.3-12.8-2.6-25.5-3.7-38.3H212.5 M216.1,263.2h-46.4
		c1.4,15.5,2.9,30.9,4.5,46.4h46.4C219,294.2,217.5,278.7,216.1,263.2z"/>
	<path class="st4" d="M370.6,291.2H239.4l0.9,8.7h131.1L370.6,291.2z"/>
	<path class="st4" d="M340.3,273H237.7c0.3,2.9,0.5,5.8,0.8,8.7h102.6C340.9,278.8,340.6,275.9,340.3,273z"/>
	<path class="st5" d="M220.2,342.3c1.5,12.8,3.1,25.5,4.7,38.3h-38.3c-1.7-12.8-3.2-25.5-4.7-38.3H220.2 M223.8,338.3h-46.4
		c1.8,15.5,3.7,30.9,5.7,46.4h46.3C227.4,369.2,225.5,353.7,223.8,338.3L223.8,338.3z"/>
	<path class="st4" d="M377.8,356.7H246.6c-0.3-2.9-0.7-5.8-1-8.7h131.1C377.1,350.9,377.4,353.8,377.8,356.7z"/>
	<path class="st4" d="M308.6,374.9h-59.7c-0.4-2.9-0.7-5.8-1.1-8.7h59.7C307.9,369.1,308.2,372,308.6,374.9z"/>
	<path class="st4" d="M344.3,374.9h-25.8c-0.4-2.9-0.7-5.8-1.1-8.7h25.8C343.5,369.1,343.9,372,344.3,374.9z"/>
	<path class="st5" d="M186.1,150.1l-1.7-2.7c-3.7-5.9-11.3-11.2-13.9-12.7l2-3.5c5.1,3.1,9.7,7.1,13.6,11.7
		c5.8-7.9,14.5-16.1,26.3-25l2.5,3.3c-12.6,9.4-21.4,18.1-27,26.4L186.1,150.1z"/>
	<path class="st5" d="M190.7,225.1l-1.8-2.7c-3.9-5.9-11.6-11.2-14.2-12.7l1.8-3.5c5.2,3.1,9.9,7.1,13.9,11.7c5.6-8,14-16.2,25.6-25
		c0.9,1.1,1.7,2.2,2.6,3.3c-12.4,9.4-20.9,18.1-26.3,26.4C191.7,223.4,191.2,224.2,190.7,225.1z"/>
	<path class="st5" d="M197.3,300.3l-1.8-2.7c-4-5.9-11.9-11.2-14.6-12.7c0.6-1.2,1.2-2.3,1.8-3.5c5.3,3.1,10.1,7.1,14.2,11.7
		c5.4-8,13.6-16.1,24.9-25l2.7,3.3c-12.1,9.4-20.5,18.1-25.6,26.4L197.3,300.3z"/>
	<path class="st0" d="M318.8,417.5c-7.1,0-11.2-2.6-14.8-4.9c-3.6-2.3-6.7-4.3-12.7-4.3s-8.7,2.1-11.5,4.3
		c-2.8,2.2-6.3,4.9-13.4,4.9s-11.2-2.6-14.8-4.9c-3.6-2.3-6.7-4.3-12.7-4.3c-6,0-8.7,2.1-11.5,4.3c-2.8,2.2-6.3,4.9-13.4,4.9
		s-11.2-2.6-14.8-4.9c-3.6-2.3-6.7-4.3-12.7-4.3c-0.2-1.2-0.3-2.3-0.5-3.5c7.1,0,11.2,2.6,14.8,4.9s6.7,4.3,12.7,4.3
		s8.7-2.1,11.5-4.3c2.8-2.2,6.3-4.9,13.4-4.9c7.1,0,11.2,2.6,14.8,4.9s6.7,4.3,12.7,4.3c6,0,8.7-2.1,11.5-4.3
		c2.8-2.2,6.3-4.9,13.4-4.9c7.1,0,11.2,2.6,14.8,4.9c3.6,2.3,6.7,4.3,12.7,4.3C318.5,415.1,318.6,416.3,318.8,417.5z"/>
	<path class="st7" d="M329,82c-4.1-10.8-13.5-18-23.6-18h-20.6c-3.1,0-6-1.9-7.2-4.8c-3-7.1-9.9-11.7-17.6-11.8
		c-7.5-0.1-14.1,4.7-16.4,11.8c-0.9,2.9-3.7,4.9-6.7,4.8h-20.6c-10.1,0-18.9,7.2-21.9,18l-1.2,4.3h137.4L329,82z"/>
	<path class="st5" d="M329.7,90.5H194.5c-2.4,0-4.3-1.9-4.4-4.2l0,0c-0.1-2.2,1.6-4.1,3.8-4.2c0.1,0,0.2,0,0.2,0h135.2
		c2.4,0,4.3,1.9,4.4,4.2l0,0c0.1,2.2-1.6,4.1-3.8,4.2C329.9,90.5,329.8,90.5,329.7,90.5z"/>
	<path class="st6" d="M329.7,90.5H194.5c-2.4,0-4.3-1.9-4.4-4.2l0,0c-0.1-2.2,1.6-4.1,3.8-4.2c0.1,0,0.2,0,0.2,0h135.2
		c2.4,0,4.3,1.9,4.4,4.2l0,0c0.1,2.2-1.6,4.1-3.8,4.2C329.9,90.5,329.8,90.5,329.7,90.5z"/>
</g>
<g id="freepik--Character--inject-9">
	<polygon class="st8" points="638.7,415.6 631.4,415.6 630.7,398.6 638,398.6 	"/>
	<polygon class="st8" points="682.7,415.6 675.4,415.6 671.7,398.6 679,398.6 	"/>
	<path class="st7" d="M674.9,414.8h8.2c0.3,0,0.6,0.2,0.6,0.5l1.5,6.5c0.1,0.6-0.3,1.2-0.8,1.3c-0.1,0-0.2,0-0.2,0
		c-2.9,0-4.3-0.2-7.9-0.2c-2.2,0-6.8,0.2-9.9,0.2s-3.5-3-2.2-3.3c5.7-1.2,7.8-2.9,9.6-4.6C674,414.9,674.4,414.8,674.9,414.8z"/>
	<path class="st7" d="M631.5,414.8h8c0.3,0,0.6,0.2,0.6,0.5l1.5,6.5c0.1,0.6-0.2,1.1-0.8,1.3c-0.1,0-0.1,0-0.2,0
		c-2.9,0-7.1-0.2-10.7-0.2c-4.2,0-7.9,0.2-12.9,0.2c-3,0-3.8-3-2.6-3.3c5.7-1.3,10.4-1.4,15.4-4.5
		C630.3,415,630.8,414.8,631.5,414.8z"/>
	<path class="st8" d="M645.8,148.3c-1,5.4-1.6,12,2.2,15.6c0,0-2.2,5.4-12.1,5.4c-9.1,0-4.5-5.4-4.5-5.4c6-1.4,5.7-8.8,4.6-13
		L645.8,148.3z"/>
	<path class="st5" d="M628.5,164.6c0.2-1.3,2.5-2.9,5.2-3.5c2.7-0.6,12.9-1.9,16-0.6c3.1,1.3-0.5,5.1-0.5,5.1L628.5,164.6z"/>
	<path class="st9" d="M628.5,164.6c0.2-1.3,2.5-2.9,5.2-3.5c2.7-0.6,12.9-1.9,16-0.6c3.1,1.3-0.5,5.1-0.5,5.1L628.5,164.6z"/>
	<polygon class="st6" points="630.7,398.7 631.1,407.4 638.4,407.4 638,398.7 	"/>
	<polygon class="st6" points="679,398.7 671.7,398.7 673.6,407.4 680.9,407.4 	"/>
	<path class="st8" d="M663.2,170.5l-8.8,5.9c0,0,12.7,22.6,11.6,26.2c-1.5,4.9-3.5,15.7-6.2,21.1c0.4,1.2,2.2,3.9,3.2,4.3
		c7-5.3,14.1-22,13.8-26.7C676.1,190.8,663.2,170.5,663.2,170.5z"/>
	<path class="st10" d="M659.7,223.7l-7-0.5l3.7,7.7c0,0,6.1,0.3,7.1-4.4L659.7,223.7z"/>
	<polygon class="st5" points="694.3,261.3 693.7,262.4 689.8,269.9 549.2,195.6 553.7,187 	"/>
	<polygon class="st5" points="703.4,244.1 700.5,249.6 698.9,252.7 558.3,178.4 562.8,169.8 	"/>
	
		<rect x="621.5" y="140.4" transform="matrix(0.4681 -0.8837 0.8837 0.4681 138.8633 670.435)" class="st5" width="9.7" height="159"/>
	
		<rect x="621.5" y="140.4" transform="matrix(0.4681 -0.8837 0.8837 0.4681 138.8633 670.435)" class="st6" width="9.7" height="159"/>
	<polygon class="st5" points="543.1,170.9 539.1,178.7 549.2,195.6 562.8,169.8 	"/>
	<polygon class="st11" points="543.1,170.9 539.1,178.7 549.2,195.6 562.8,169.8 	"/>
	<polygon class="st5" points="534.7,171.4 539.1,178.7 543.1,170.9 	"/>
	<polygon class="st10" points="647.1,226.7 650.8,233.5 656.4,230.9 652.8,223.2 	"/>
	<path class="st7" d="M661.1,165.5c6.9,1,14.9,25,14.9,25l-14.6,8.2c0,0-6.4-11.4-9.6-19.9C648.5,170,653.6,164.5,661.1,165.5z"/>
	<path class="st6" d="M657,173.8c-3.2-2.9-1.2,9.4,0.3,17.3c0.8,1.5,1.5,2.9,2.1,4.1C662.9,189,661.4,177.8,657,173.8z"/>
	<path class="st7" d="M620,165.9c0,0-8.7,22.1-0.4,63.3h39.2c0.3-6-3.5-35.4,2.3-63.7c-4.3-0.8-8.7-1.4-13.1-1.7
		c-5.5-0.3-11.1-0.3-16.7,0C627.5,164.3,623.7,165,620,165.9z"/>
	<path class="st8" d="M626.1,176.2l-9.9-3.9c0,0-11.4,23.2-15,24.4c-4.9,1.6-14.9,6-20.9,6.9c-0.8,1-1.9,4-1.8,5.1
		c8.4,2.7,26.1-0.9,29.8-3.8C616.7,198.4,626.1,176.2,626.1,176.2z"/>
	<path class="st6" d="M627.2,173.6c-1.6-3.8-4.8-5.3-8-4.8c-1.3,4.6-3.4,14.7-3,30l2.3,1.1C618.5,199.9,630,180,627.2,173.6z"/>
	<path class="st7" d="M628.7,170.9c2.5,6.6-10,25.9-10,25.9l-14.7-8c2.2-6,5-11.8,8.5-17.1C617.7,164,626,163.8,628.7,170.9z"/>
	<path class="st8" d="M580.6,203.5l-8.7,1.9l4.4,8.1c2.4-1.2,4.7-2.8,6.5-4.8L580.6,203.5z"/>
	<polygon class="st8" points="567.8,207.2 571.2,212 576.3,213.5 571.9,205.4 	"/>
	<path class="st7" d="M629.2,140.6c0,0.6-0.4,1-0.8,1s-0.7-0.5-0.6-1.1c0-0.6,0.4-1,0.8-1S629.2,140,629.2,140.6z"/>
	<path class="st12" d="M629.7,140.6c-0.8,1.8-1.9,3.4-3.1,4.9c0.8,0.6,1.8,0.9,2.8,0.7L629.7,140.6z"/>
	<path class="st7" d="M628.4,138.6c-0.1,0-0.1,0-0.1-0.1c-0.2-0.1-0.2-0.3-0.1-0.5c0,0,0,0,0,0c0.6-0.9,1.6-1.6,2.7-1.6
		c0.2,0,0.3,0.2,0.3,0.4c0,0.2-0.2,0.4-0.3,0.4l0,0l0,0c-0.9,0.1-1.6,0.6-2.1,1.3C628.7,138.5,628.6,138.6,628.4,138.6z"/>
	<path class="st8" d="M649.1,140.1c-0.9,7.2-1,11.5-4.9,15c-5.8,5.3-14.6,1.4-15.9-5.9c-1.2-6.6,0.4-17.3,7.7-19.8
		c5.2-1.8,10.8,1,12.6,6.1C649.1,137,649.3,138.6,649.1,140.1z"/>
	<path class="st7" d="M634.5,141.5c-2.5,0.5-6.6-5.1-3.3-9.9c-1.7-0.8-7.1,2.5-9.2-0.6c-2.1-3.1,3.6-4.7,2.5-7.3
		c3.9,0.8-2.5,5.6,1.2,5.1c3.7-0.5,7.9-7.2,12-4.5c7.2,4.9,17.1-3.2,13.1,6.9c4.9-1,8.3,4.8,3.6,8.9c-9.4,8.1-3.6,9.1-9.6,9.5
		C642,149.9,635,146.4,634.5,141.5z"/>
	<path class="st8" d="M638.3,143.4c-0.7,1.5-2,2.6-3.5,3.1c-2,0.7-3.2-1.1-2.7-3.1c0.4-1.8,2-4.3,4.1-4.1c1.5,0.1,2.6,1.5,2.5,3
		C638.6,142.7,638.5,143.1,638.3,143.4z"/>
	<path class="st5" d="M633.5,229.2c0,0,8.3,56,12.9,77c5,23,23.8,99.5,23.8,99.5h13.4c0,0-12.4-74.7-15.3-97.4
		c-3.1-24.7-9.6-79-9.6-79L633.5,229.2z"/>
	<path class="st13" d="M633.5,229.2c0,0,8.3,56,12.9,77c5,23,23.8,99.5,23.8,99.5h13.4c0,0-12.4-74.7-15.3-97.4
		c-3.1-24.7-9.6-79-9.6-79L633.5,229.2z"/>
	<path class="st6" d="M643.4,248.8c-0.6-0.9-1.2-1.2-1.7-1h-0.1c-0.1,0.1-0.2,0.1-0.3,0.2c-0.1,0.1-0.2,0.2-0.3,0.3l-0.2,0.2
		l-0.2,0.3c-0.2,0.3-0.3,0.6-0.5,0.9c-0.1,0.2-0.2,0.4-0.2,0.6c-0.1,0.2-0.2,0.5-0.3,0.8s-0.2,0.8-0.3,1.2c0,0.1,0,0.2-0.1,0.3
		c0,0.1-0.1,0.5-0.2,0.7c0,0.2-0.1,0.4-0.1,0.6c-0.1,0.4-0.2,0.8-0.2,1.2c-0.1,0.4-0.2,0.9-0.2,1.4c0,0.2,0,0.3-0.1,0.5
		c-0.1,0.6-0.2,1.2-0.3,1.8l0,0c2.2,13.9,4.9,29.9,7,41.1c0.1-0.4,0.2-0.7,0.3-1.1c0.4-1.9,0.8-3.7,1-5.6
		C648.2,278.8,647.4,254.6,643.4,248.8z"/>
	<path class="st5" d="M619.6,229.2c0,0-1,54.8-0.2,77.1c0.8,23.2,9,99.3,9,99.3h12.4c0,0,0.5-74.7,1-97.6
		c0.6-24.9,3.6-78.9,3.6-78.9H619.6z"/>
	<path class="st13" d="M619.6,229.2c0,0-1,54.8-0.2,77.1c0.8,23.2,9,99.3,9,99.3h12.4c0,0,0.5-74.7,1-97.6
		c0.6-24.9,3.6-78.9,3.6-78.9H619.6z"/>
	<path class="st7" d="M641.6,401.9c0,0,0,4,0,4h-14.3l-0.6-4.5L641.6,401.9z"/>
	<path class="st7" d="M683.6,402.2c0.1,0,0.7,3.8,0.7,3.8h-14.8l-1.3-4.3L683.6,402.2z"/>
	<path class="st5" d="M672.5,416c-0.5,0-1-0.1-1.4-0.4c-0.3-0.2-0.4-0.6-0.4-0.9c0-0.2,0.1-0.4,0.3-0.5c0.8-0.4,3.2,1,3.5,1.2
		c0.1,0,0.1,0.1,0.1,0.2c0,0.1-0.1,0.1-0.1,0.1C673.7,415.9,673.1,416,672.5,416z M671.4,414.5c-0.1,0-0.2,0-0.2,0
		c-0.1,0-0.1,0.1-0.1,0.2c0,0.2,0.1,0.5,0.2,0.6c0.8,0.4,1.7,0.4,2.6,0.1C673.1,415,672.3,414.7,671.4,414.5L671.4,414.5z"/>
	<path class="st5" d="M674.3,415.8C674.3,415.8,674.3,415.8,674.3,415.8c-0.8-0.4-2.3-2-2.1-2.8c0.1-0.3,0.3-0.5,0.5-0.5
		c0.3,0,0.5,0,0.7,0.2c0.8,0.7,1,2.8,1,2.9C674.5,415.7,674.4,415.8,674.3,415.8C674.4,415.8,674.3,415.8,674.3,415.8z M672.8,412.8
		L672.8,412.8c-0.3,0-0.3,0.1-0.3,0.2c-0.1,0.5,0.8,1.7,1.6,2.3c-0.1-0.8-0.4-1.6-0.9-2.3C673.2,412.8,673,412.8,672.8,412.8
		L672.8,412.8z"/>
	<path class="st5" d="M628.4,416c-0.6,0.1-1.3-0.1-1.8-0.5c-0.2-0.2-0.4-0.5-0.3-0.8c0-0.2,0.1-0.4,0.3-0.5c0.9-0.5,3.8,1,4.2,1.2
		c0.1,0,0.1,0.1,0.1,0.2c0,0.1-0.1,0.1-0.1,0.1C630,416,629.2,416,628.4,416z M627.1,414.5c-0.1,0-0.2,0-0.3,0.1
		c-0.1,0-0.1,0.1-0.1,0.2c0,0.2,0.1,0.4,0.2,0.5c0.5,0.4,1.7,0.5,3.3,0.2C629.2,415,628.1,414.7,627.1,414.5z"/>
	<path class="st5" d="M630.7,415.8L630.7,415.8c-1-0.4-2.7-2-2.6-2.8c0-0.2,0.2-0.4,0.6-0.5c0.4-0.1,0.7,0.1,1,0.3
		c0.9,0.8,1.1,2.7,1.1,2.8c0,0.1,0,0.1-0.1,0.1C630.8,415.8,630.7,415.8,630.7,415.8z M628.9,412.8L628.9,412.8
		c-0.4,0-0.4,0.1-0.4,0.2c-0.1,0.5,1.1,1.7,2,2.3c-0.1-0.8-0.4-1.6-1-2.3C629.3,412.9,629.1,412.8,628.9,412.8L628.9,412.8z"/>
</g>
</svg>
