<?xml version="1.0" encoding="utf-8"?>
<!-- Generator: Adobe Illustrator 26.3.1, SVG Export Plug-In . SVG Version: 6.00 Build 0)  -->
<svg version="1.1" id="Layer_1" xmlns="http://www.w3.org/2000/svg" xmlns:xlink="http://www.w3.org/1999/xlink" x="0px" y="0px"
	 viewBox="0 0 500 404.9" style="enable-background:new 0 0 500 404.9;" xml:space="preserve">
<style type="text/css">
	.st0{fill:#EBEBEB;}
	.st1{fill:#F5F5F5;}
	.st2{fill:#F0F0F0;}
	.st3{fill:#E0E0E0;}
	.st4{fill:#F0F0F0;stroke:#E6E6E6;stroke-width:0.5;stroke-miterlimit:10;}
	.st5{fill:#FAFAFA;stroke:#E6E6E6;stroke-width:0.75;stroke-miterlimit:10;}
	.st6{fill:#F5F5F5;stroke:#E6E6E6;stroke-miterlimit:10;}
	.st7{fill:#E6E6E6;}
	.st8{fill:#FAFAFA;}
	.st9{fill:#F0F0F0;stroke:#E6E6E6;stroke-width:0.75;stroke-miterlimit:10;}
	.st10{fill:#F5F5F5;stroke:#E6E6E6;stroke-width:0.5;stroke-miterlimit:10;}
	.st11{fill:#73CED5;}
	.st12{opacity:0.6;fill:#FFFFFF;stroke:#73CED5;stroke-width:2;stroke-miterlimit:10;enable-background:new    ;}
	.st13{fill:#73CED5;stroke:#73CED5;stroke-width:2;stroke-miterlimit:10;}
	.st14{opacity:0.8;fill:#FFFFFF;stroke:#73CED5;stroke-width:2;stroke-miterlimit:10;enable-background:new    ;}
	.st15{fill:#FFFFFF;}
</style>
<rect x="426.8" y="301.9" class="st0" width="19.2" height="0.2"/>
<g>
	<rect x="25.4" y="365.7" class="st0" width="39.1" height="0.3"/>
	<rect x="165.5" y="365.9" class="st0" width="63.6" height="0.3"/>
	<rect x="88.4" y="371.8" class="st0" width="22.7" height="0.3"/>
	<rect x="421.1" y="371.7" class="st0" width="35.8" height="0.3"/>
	<rect x="351.1" y="369.7" class="st0" width="50.2" height="0.3"/>
	<polygon class="st0" points="69.4,191.7 19.4,191.7 23.8,133.2 65,133.2 	"/>
	<polygon class="st1" points="58.4,191.7 49.8,191.7 48,133.2 55.9,133.2 	"/>
	<rect x="41.9" y="191.7" class="st2" width="5" height="162.8"/>
	<path class="st2" d="M42.5,215.7h3.8c1.8,0,3.3,1.5,3.3,3.3v12.3c0,1.8-1.5,3.3-3.3,3.3h-3.8c-1.8,0-3.3-1.5-3.3-3.3V219
		C39.2,217.2,40.7,215.7,42.5,215.7z"/>
	<path class="st2" d="M42.5,246.1h3.8c1.8,0,3.3,1.5,3.3,3.3v12.3c0,1.8-1.5,3.3-3.3,3.3h-3.8c-1.8,0-3.3-1.5-3.3-3.3v-12.3
		C39.2,247.6,40.7,246.1,42.5,246.1z"/>
	<path class="st2" d="M52.3,354.5H36.5c0-1.9,1.5-3.4,3.4-3.4H49C50.8,351.1,52.3,352.6,52.3,354.5z"/>
	<rect x="41.9" y="191.7" class="st3" width="5" height="3.1"/>
	<rect x="229.1" y="26.4" class="st4" width="138.2" height="138.6"/>
	<rect x="226.7" y="26.4" class="st3" width="2.4" height="138.6"/>
	<rect x="241.3" y="35.2" class="st5" width="113.8" height="121.1"/>
	<path class="st6" d="M304.7,129.4h-13.1c-13.9,0-25.1-11.2-25.1-25.1V87.1c0-13.9,11.2-25.1,25.1-25.1h13.1
		c13.9,0,25.1,11.2,25.1,25.1v17.2C329.9,118.2,318.6,129.4,304.7,129.4z"/>
	<rect x="392" y="195.2" class="st7" width="52.6" height="159.3"/>
	<polygon class="st8" points="418.9,354.5 444.6,354.5 444.6,332.5 392,332.5 	"/>
	<rect x="182.3" y="195.2" class="st7" width="52.6" height="159.3"/>
	<rect x="212.4" y="195.2" class="st5" width="232.2" height="151.8"/>
	<polygon class="st8" points="238.1,354.5 212.5,354.5 212.5,332.5 265.1,332.5 	"/>
	<rect x="232.4" y="251.7" class="st9" width="192.3" height="38"/>
	<rect x="232.4" y="297.8" class="st9" width="192.3" height="38"/>
	<path class="st8" d="M378.9,255.8H278.2c-4.1,0-7.3-3.3-7.3-7.3l0,0h115.4C386.2,252.5,383,255.8,378.9,255.8L378.9,255.8z"/>
	<rect x="232.4" y="205.6" class="st9" width="192.3" height="38"/>
	<path class="st8" d="M378.9,209.7H278.2c-4.1,0-7.3-3.3-7.3-7.4h115.4C386.2,206.4,383,209.7,378.9,209.7L378.9,209.7z"/>
	<path class="st8" d="M378.9,301.9H278.2c-4.1,0-7.3-3.3-7.3-7.4h115.4C386.2,298.6,383,301.9,378.9,301.9L378.9,301.9z"/>
	<g id="freepik--Shadow--inject-2">
		<ellipse id="freepik--path--inject-2" class="st10" cx="248.1" cy="366.2" rx="228.9" ry="13.4"/>
	</g>
	<g id="freepik--complete-list--inject-2">
		<path class="st11" d="M52.7,159.8h176.2c-10.8-0.1-19.8-8.6-20.5-19.4l-3.1-52.5H29.1l3.1,52.5C32.9,151.2,41.8,159.7,52.7,159.8z
			"/>
		<path class="st12" d="M52.7,159.8h176.2c-10.8-0.1-19.8-8.6-20.5-19.4l-3.1-52.5H29.1l3.1,52.5C32.9,151.2,41.8,159.7,52.7,159.8z
			"/>
		<path class="st13" d="M241.9,53H85.1c-10-0.1-18.2,7.9-18.3,17.9c0,0.5,0,1,0,1.5l4.1,68.1c0.7,9.9-6.7,18.6-16.7,19.3
			c-0.5,0-1,0.1-1.6,0h176.2c10,0.1,18.1-7.8,18.3-17.8c0-0.5,0-1.1,0-1.6l0.4,7.4L243,72.4c-0.8-9.9,6.7-18.6,16.6-19.4
			c0.5,0,1.1-0.1,1.6-0.1L241.9,53L241.9,53L241.9,53z"/>
		<path class="st11" d="M261.3,53H85.1c10.8,0.1,19.8,8.6,20.5,19.4l15.2,255.8H297L281.8,72.4C281.1,61.5,272.2,53.1,261.3,53z"/>
		<path class="st14" d="M261.3,53H85.1c10.8,0.1,19.8,8.6,20.5,19.4l15.2,255.8H297L281.8,72.4C281.1,61.5,272.2,53.1,261.3,53z"/>
		<path class="st15" d="M165,125.8h-32.7l-2-32.7H163L165,125.8z M135.9,121.9h25l-1.4-25h-25L135.9,121.9z"/>
		<path class="st15" d="M169.5,202.7h-32.7l-1.9-32.7h32.7L169.5,202.7z M140.5,198.8h25l-1.5-25h-25L140.5,198.8z"/>
		<path class="st15" d="M174.1,279.5h-32.7l-2-32.7h32.7L174.1,279.5z M145,275.7h25l-1.5-25h-25L145,275.7z"/>
		<rect x="180.9" y="93.1" class="st15" width="75.2" height="3.8"/>
		<rect x="181.8" y="107.5" class="st15" width="66.3" height="3.8"/>
		<rect x="182.6" y="121.9" class="st15" width="75.2" height="3.8"/>
		<rect x="185.5" y="170" class="st15" width="75.2" height="3.8"/>
		<rect x="186.3" y="184.4" class="st15" width="44.1" height="3.8"/>
		<rect x="187.2" y="198.8" class="st15" width="22.8" height="3.8"/>
		<rect x="224.8" y="198.8" class="st15" width="37.6" height="3.8"/>
		<rect x="190" y="246.8" class="st15" width="75.2" height="3.8"/>
		<rect x="190.9" y="261.3" class="st15" width="75.2" height="3.8"/>
		<rect x="191.7" y="275.7" class="st15" width="41.6" height="3.8"/>
		<path class="st11" d="M150.8,118.1c-0.8,0-1.6-0.3-2.2-0.9l-8-7.6c-1.3-1.2-1.3-3.2-0.1-4.5s3.2-1.3,4.5-0.1l0,0l5.7,5.4
			l12.8-13.6c1.2-1.3,3.2-1.3,4.5-0.1c1.3,1.2,1.3,3.2,0.1,4.5l-15,16c-0.6,0.6-1.4,1-2.2,1h-0.1V118.1z"/>
		<path class="st11" d="M155.3,195c-0.8,0-1.6-0.3-2.2-0.9l-8-7.6c-1.3-1.2-1.4-3.2-0.2-4.5s3.2-1.4,4.5-0.2l0.1,0.1l5.7,5.4
			l12.8-13.6c1.2-1.3,3.2-1.3,4.5-0.1s1.3,3.2,0.1,4.5l0,0l-15,16C157.1,194.6,156.3,194.9,155.3,195L155.3,195z"/>
		<path class="st11" d="M159.9,271.8c-0.8,0-1.6-0.3-2.2-0.9l-8-7.6c-1.3-1.2-1.4-3.2-0.2-4.5s3.2-1.4,4.5-0.2l0.1,0.1l5.7,5.4
			l12.8-13.6c1.3-1.2,3.4-1,4.5,0.3c1,1.1,1,2.8,0.1,4l-15,16C161.6,271.4,160.8,271.8,159.9,271.8L159.9,271.8z"/>
	</g>
</g>
</svg>
