<?xml version="1.0" encoding="utf-8"?>
<!-- Generator: Adobe Illustrator 26.3.1, SVG Export Plug-In . SVG Version: 6.00 Build 0)  -->
<svg version="1.1" id="Layer_1" xmlns="http://www.w3.org/2000/svg" xmlns:xlink="http://www.w3.org/1999/xlink" x="0px" y="0px"
	 viewBox="0 0 114 113.9" style="enable-background:new 0 0 114 113.9;" xml:space="preserve">
<style type="text/css">
	.st0{opacity:0.49;}
	.st1{fill:#D3B366;}
	.st2{fill:#20355D;}
	.st3{fill:#FFFFFF;}
	.st4{opacity:0.63;}
	.st5{opacity:0.35;fill:#20355D;}
	.st6{opacity:0.33;fill:#D3B366;}
	.st7{opacity:0.64;}
	.st8{fill:#F4EDDA;stroke:#20355D;stroke-width:2;stroke-linecap:round;stroke-linejoin:round;}
	.st9{fill:#FFFFFF;stroke:#D3B366;stroke-miterlimit:10;}
	.st10{opacity:0.42;fill:#D3B366;}
</style>
<g class="st0">
	<path class="st1" d="M83.2,106.3c-0.2,0-0.4,0-0.6-0.1l-53.9-8.8c-0.8-0.1-1.5-0.5-2-1.1c-0.5-0.6-0.7-1.4-0.6-2.2l0-0.1V94
		l13.6-77.4c0.3-1.4,1.6-2.4,3-2.4c0.2,0,0.4,0,0.6,0.1l53.8,8.8c0.8,0.1,1.5,0.5,2,1.2c0.5,0.6,0.7,1.4,0.6,2.1l-13.6,77.5
		C85.9,105.3,84.6,106.3,83.2,106.3z"/>
	<path class="st2" d="M42.8,15.2L42.8,15.2c0.1,0,0.3,0,0.4,0l0,0l0,0L97,24.1c0.5,0.1,1,0.4,1.4,0.8c0.2,0.3,0.5,0.7,0.4,1.3
		l-13.6,77.4c-0.2,1-1,1.7-2,1.7c-0.1,0-0.3,0-0.4,0l0,0l0,0l-53.9-8.8l-0.1,0l-0.1,0c-0.5,0-1-0.3-1.3-0.7
		c-0.3-0.4-0.5-0.9-0.4-1.4l0-0.1v-0.1l13.6-77.3C40.9,15.9,41.8,15.2,42.8,15.2 M42.8,13.2c-1.9,0-3.6,1.3-4,3.2L25.1,93.9
		c0,0.1,0,0.1,0,0.1c-0.3,2.1,1.3,4.2,3.4,4.4l53.9,8.8c0.3,0.1,0.5,0.1,0.8,0.1c1.9,0,3.6-1.3,3.9-3.3l13.7-77.5
		c0.3-2.1-1.3-4.1-3.4-4.4l-53.7-8.8C43.3,13.3,43,13.2,42.8,13.2L42.8,13.2z"/>
</g>
<g>
	<path class="st2" d="M42.8,15.2L42.8,15.2c0.1,0,0.3,0,0.4,0l0,0l0,0L97,24.1c0.5,0.1,1,0.4,1.4,0.8c0.2,0.3,0.5,0.7,0.4,1.3
		l-13.6,77.4c-0.2,1-1,1.7-2,1.7c-0.1,0-0.3,0-0.4,0l0,0l0,0l-53.9-8.8l-0.1,0l-0.1,0c-0.5,0-1-0.3-1.3-0.7
		c-0.3-0.4-0.5-0.9-0.4-1.4l0-0.1v-0.1l13.6-77.3C40.9,15.9,41.8,15.2,42.8,15.2 M42.8,13.2c-1.9,0-3.6,1.3-4,3.2L25.1,93.9
		c0,0.1,0,0.1,0,0.1c-0.3,2.1,1.3,4.2,3.4,4.4l53.9,8.8c0.3,0.1,0.5,0.1,0.8,0.1c1.9,0,3.6-1.3,3.9-3.3l13.7-77.5
		c0.3-2.1-1.3-4.1-3.4-4.4l-53.7-8.8C43.3,13.3,43,13.2,42.8,13.2L42.8,13.2z"/>
</g>
<g>
	<path class="st3" d="M21.5,101.5c-1.5,0-2.7-1-2.9-2.4L5,22c-0.2-1.5,0.9-2.9,2.4-3.1l50.2-8.2c0.1,0,0.3,0,0.4,0
		c1.4,0,2.6,1,2.8,2.4l13.5,77.1c0.2,1.5-0.9,2.9-2.4,3.1l-50.1,8.2C21.8,101.5,21.6,101.5,21.5,101.5
		C21.5,101.5,21.5,101.5,21.5,101.5z"/>
	<path class="st1" d="M58,11.6c0.9,0,1.7,0.6,1.9,1.5l13.5,77.1c0.1,0.9-0.6,1.9-1.6,2l-50.1,8.2c-0.1,0-0.2,0-0.3,0
		c-1,0-1.8-0.7-1.9-1.6l0,0l0,0L6,21.8c-0.1-0.9,0.6-1.9,1.6-2l50.2-8.2C57.8,11.6,57.9,11.6,58,11.6 M58,9.6c-0.2,0-0.4,0-0.6,0
		L7.2,17.8c-2,0.3-3.5,2.3-3.2,4.3l13.5,77.1c0.3,1.9,2,3.3,3.9,3.3c0.2,0,0.4,0,0.6,0l50.1-8.2c2-0.3,3.5-2.3,3.2-4.3L61.9,12.8
		C61.5,10.9,59.8,9.6,58,9.6L58,9.6z"/>
</g>
<g>
	<path class="st3" d="M16.7,6.6h66.9c1.8,0,3.3,1.5,3.3,3.3v91.5c0,1.8-1.5,3.3-3.3,3.3H16.7c-1.8,0-3.3-1.5-3.3-3.3V9.9
		C13.4,8.1,14.9,6.6,16.7,6.6z"/>
</g>
<g class="st4">
	<path class="st1" d="M25.1,82.4h50.2c1,0,1.7,0.8,1.7,1.7V92c0,1-0.8,1.7-1.7,1.7H25.1c-1,0-1.7-0.8-1.7-1.7v-7.8
		C23.5,83.1,24.2,82.4,25.1,82.4z"/>
</g>
<g class="st4">
	<path class="st1" d="M24.6,17.7h51.3c0.6,0,1.1,0.5,1.1,1.1v3.3c0,0.6-0.5,1.1-1.1,1.1H24.6c-0.6,0-1.1-0.5-1.1-1.1v-3.3
		C23.5,18.2,23.9,17.7,24.6,17.7z"/>
</g>
<g class="st4">
	<path class="st1" d="M24.6,28.9H48c0.6,0,1.1,0.5,1.1,1.1v1.1c0,0.6-0.5,1.1-1.1,1.1H24.6c-0.6,0-1.1-0.5-1.1-1.1V30
		C23.5,29.3,23.9,28.9,24.6,28.9z"/>
</g>
<path class="st5" d="M55.8,28.9h20.1c0.6,0,1.1,0.5,1.1,1.1v1.1c0,0.6-0.5,1.1-1.1,1.1H55.8c-0.6,0-1.1-0.5-1.1-1.1V30
	C54.6,29.3,55.2,28.9,55.8,28.9z"/>
<path class="st5" d="M24.6,37.8H48c0.6,0,1.1,0.5,1.1,1.1V40c0,0.6-0.5,1.1-1.1,1.1H24.6c-0.6,0-1.1-0.5-1.1-1.1v-1.1
	C23.5,38.3,23.9,37.8,24.6,37.8z"/>
<path class="st5" d="M55.8,37.8h20.1c0.6,0,1.1,0.5,1.1,1.1V40c0,0.6-0.5,1.1-1.1,1.1H55.8c-0.6,0-1.1-0.5-1.1-1.1v-1.1
	C54.6,38.3,55.2,37.8,55.8,37.8z"/>
<path class="st6" d="M24.6,45.6h51.3c0.6,0,1.1,0.5,1.1,1.1v1.1c0,0.6-0.5,1.1-1.1,1.1H24.6c-0.6,0-1.1-0.5-1.1-1.1v-1.1
	C23.5,46.1,23.9,45.6,24.6,45.6z"/>
<path class="st5" d="M24.3,54.5h18.9c0.5,0,0.9,0.5,0.9,1.1v1.1c0,0.6-0.4,1.1-0.9,1.1H24.3c-0.5,0-0.9-0.5-0.9-1.1v-1.1
	C23.5,55,23.8,54.5,24.3,54.5z"/>
<g class="st7">
	<path class="st2" d="M83.6,8.6c0.7,0,1.3,0.6,1.3,1.3v91.5c0,0.7-0.6,1.3-1.3,1.3H16.7c-0.7,0-1.3-0.6-1.3-1.3V9.9
		c0-0.7,0.6-1.3,1.3-1.3H83.6 M83.6,6.6H16.7c-1.8,0-3.3,1.5-3.3,3.3v91.5c0,1.8,1.5,3.3,3.3,3.3h66.9c1.8,0,3.3-1.5,3.3-3.3V9.9
		C86.9,8.1,85.4,6.6,83.6,6.6L83.6,6.6z"/>
</g>
<path class="st2" d="M60.2,53.3l22.7,40.9c0.5,0.8,0.1,1.9-0.8,2.3l-6.3,2.7c-0.9,0.4-1.9,0-2.2-0.9L57.3,54.6
	c-0.3-0.8,0.1-1.7,0.9-2.1l0,0C58.9,52.2,59.8,52.5,60.2,53.3z"/>
<ellipse class="st8" cx="61" cy="58" rx="15.2" ry="15"/>
<ellipse class="st9" cx="61" cy="58" rx="11.1" ry="11"/>
<path class="st1" d="M71.4,54.1c-0.7-1.7-1.7-3.2-3.1-4.4C66.4,48,63.8,47,61,47c-2.8,0-5.3,1-7.3,2.7c-1.4,1.2-2.5,2.7-3.1,4.4
	c-0.5,1.2-0.7,2.5-0.7,3.9c0,6.1,5,11,11.1,11c6.1,0,11.1-4.9,11.1-11C72.2,56.6,71.9,55.3,71.4,54.1z M61,68.5
	c-5.9,0-10.6-4.7-10.6-10.5c0-1.4,0.3-2.7,0.8-3.9c0.7-1.8,1.9-3.3,3.4-4.4c1.8-1.4,4.1-2.2,6.5-2.2c2.4,0,4.7,0.8,6.5,2.2
	c1.5,1.1,2.7,2.6,3.4,4.4c0.5,1.2,0.8,2.5,0.8,3.9C71.7,63.8,66.9,68.5,61,68.5z"/>
<path class="st10" d="M71.4,54.6H50.6c0.7-1.7,1.7-3.2,3.1-4.4h14.6C69.7,51.4,70.8,52.9,71.4,54.6z"/>
</svg>
